<?xml version="1.0" standalone="no"?>
<!DOCTYPE svg PUBLIC "-//W3C//DTD SVG 1.1//EN" "http://www.w3.org/Graphics/SVG/1.1/DTD/svg11.dtd" >
<svg xmlns="http://www.w3.org/2000/svg" xmlns:xlink="http://www.w3.org/1999/xlink" version="1.1">
<metadata>
Created by FontForge 20170731 at Thu Jul 11 10:41:21 2019
 By Aleksey,,,
Copyright 2019 The Archivo Project Authors (https://github.com/Omnibus-Type/Archivo)
</metadata>
<defs>
<font id="Archivo-Medium" horiz-adv-x="556" >
  <font-face 
    font-family="Archivo Medium"
    font-weight="500"
    font-stretch="normal"
    units-per-em="1000"
    panose-1="2 11 6 3 2 2 2 2 11 4"
    ascent="800"
    descent="-200"
    x-height="526"
    cap-height="686"
    bbox="-710 -267 1310 1080"
    underline-thickness="50"
    underline-position="-150"
    unicode-range="U+000D-FEFF"
  />
<missing-glyph horiz-adv-x="501" 
d="M0 700h500v-700h-500v700zM420 650h-340l170 -255zM220 350l-170 255v-510zM450 605l-170 -255l170 -255v510zM420 50l-170 255l-170 -255h340z" />
    <glyph glyph-name="fi" unicode="fi" horiz-adv-x="534" 
d="M85 441h-76v85h76v77q0 55 28.5 91.5t94.5 36.5q20 0 42 -4t37 -9v-72h-51q-48 0 -48 -46v-74h99v-85h-99v-441h-103v441zM363 723h103v-106h-103v106zM363 526h103v-526h-103v526z" />
    <glyph glyph-name="fl" unicode="fl" horiz-adv-x="534" 
d="M85 441h-76v85h76v77q0 55 28.5 91.5t94.5 36.5q20 0 42 -4t37 -9v-72h-51q-48 0 -48 -46v-74h99v-85h-99v-441h-103v441zM363 723h103v-723h-103v723z" />
    <glyph glyph-name="f_f" unicode="ff" horiz-adv-x="570" 
d="M85 441h-76v85h76v77q0 55 28.5 91.5t94.5 36.5q20 0 42 -4t37 -9v-72h-51q-48 0 -48 -46v-74h172v77q0 55 28.5 91.5t94.5 36.5q20 0 42 -4t37 -9v-72h-52q-47 0 -47 -46v-74h99v-85h-99v-441h-103v441h-172v-441h-103v441z" />
    <glyph glyph-name="f_f_i" unicode="ffi" horiz-adv-x="809" 
d="M85 441h-76v85h76v77q0 55 28.5 91.5t94.5 36.5q20 0 42 -4t37 -9v-72h-51q-48 0 -48 -46v-74h172v77q0 55 28.5 91.5t94.5 36.5q20 0 42 -4t37 -9v-72h-52q-47 0 -47 -46v-74h99v-85h-99v-441h-103v441h-172v-441h-103v441zM638 723h102v-105h-102v105zM638 526h103
v-526h-103v526z" />
    <glyph glyph-name="f_f_l" unicode="ffl" horiz-adv-x="809" 
d="M85 441h-76v85h76v77q0 55 28.5 91.5t94.5 36.5q20 0 42 -4t37 -9v-72h-51q-48 0 -48 -46v-74h172v77q0 55 28.5 91.5t94.5 36.5q20 0 42 -4t37 -9v-72h-52q-47 0 -47 -46v-74h99v-85h-99v-441h-103v441h-172v-441h-103v441zM638 723h103v-723h-103v723z" />
    <glyph glyph-name=".notdef" horiz-adv-x="501" 
d="M0 700h500v-700h-500v700zM420 650h-340l170 -255zM220 350l-170 255v-510zM450 605l-170 -255l170 -255v510zM420 50l-170 255l-170 -255h340z" />
    <glyph glyph-name="uni0000" horiz-adv-x="600" 
 />
    <glyph glyph-name="uni0000" horiz-adv-x="600" 
 />
    <glyph glyph-name="nonmarkingreturn" unicode="&#xd;" horiz-adv-x="278" 
 />
    <glyph glyph-name="space" unicode=" " horiz-adv-x="278" 
 />
    <glyph glyph-name="exclam" unicode="!" horiz-adv-x="295" 
d="M85 686h126l-29 -507h-68zM92 117h112v-117h-112v117z" />
    <glyph glyph-name="quotedbl" unicode="&#x22;" horiz-adv-x="391" 
d="M48 540v146h115v-146l-24 -132h-66zM228 540v146h115v-146l-25 -132h-65z" />
    <glyph glyph-name="numbersign" unicode="#" 
d="M84 174h-74v86h92l32 145h-79v86h97l45 207h86l-46 -207h143l45 207h86l-45 -207h77v-86h-96l-31 -145h82v-86h-100l-40 -186h-85l40 186h-143l-40 -186h-85zM330 260l32 145h-143l-31 -145h142z" />
    <glyph glyph-name="dollar" unicode="$" 
d="M250 67q-98 5 -149 49.5t-51 108.5q0 13 1 19h100v-9q0 -38 27 -59t72 -27v162q-60 15 -97 30t-63 45t-26 78q0 66 50 106t136 46v107h51v-107q82 -5 131 -44.5t49 -97.5l-1 -21h-99v7q0 28 -20 47.5t-60 25.5v-140q59 -15 98.5 -30.5t67 -47t27.5 -83.5
q0 -78 -51.5 -118t-141.5 -46v-117h-51v116zM250 534q-44 -3 -63.5 -21t-19.5 -41q0 -25 21 -39.5t62 -26.5v128zM366 171.5q25 17.5 25 46.5q0 30 -23 47.5t-67 31.5v-148q40 5 65 22.5z" />
    <glyph glyph-name="percent" unicode="%" horiz-adv-x="889" 
d="M95.5 377.5q-39.5 40.5 -39.5 139.5q0 100 39.5 140.5t117.5 40.5t117 -40.5t39 -140.5t-39 -140t-117 -40t-117.5 40.5zM651 686h88l-500 -686h-86zM268.5 430q15.5 27 15.5 82v10q0 55 -15.5 82.5t-55.5 27.5q-41 0 -56 -27t-15 -83v-10q0 -55 15 -82t56 -27
q40 0 55.5 27zM560.5 28.5q-39.5 40.5 -39.5 139.5q0 100 39.5 140.5t117.5 40.5q77 0 116.5 -41t39.5 -140t-39 -139.5t-117 -40.5t-117.5 40.5zM733.5 82q15.5 28 15.5 84v7q0 55 -15.5 82.5t-55.5 27.5q-41 0 -56.5 -27.5t-15.5 -82.5v-7q0 -56 15.5 -84t56.5 -28
q40 0 55.5 28z" />
    <glyph glyph-name="ampersand" unicode="&#x26;" horiz-adv-x="684" 
d="M153.5 12.5q-53.5 26.5 -81 70.5t-27.5 96q0 63 36 117t106 87q-24 32 -36.5 66.5t-12.5 68.5q0 49 22.5 90t65 65.5t98.5 24.5q83 0 126.5 -43t43.5 -108q0 -60 -38 -116t-107 -84l138 -147q31 65 31 149h92q0 -127 -57 -218l123 -131h-137l-52 57q-44 -35 -97 -53
t-108 -18q-75 0 -128.5 26.5zM365.5 463q28.5 37 28.5 76q0 32 -19.5 52.5t-54.5 20.5q-39 0 -61 -25t-22 -63q0 -29 14 -60t37 -55q49 17 77.5 54zM362 86q35 12 64 36l-181 197q-49 -20 -74 -53.5t-25 -76.5q0 -49 38.5 -82t106.5 -33q36 0 71 12z" />
    <glyph glyph-name="quotesingle" unicode="'" horiz-adv-x="205" 
d="M47 540v146h115v-146l-25 -132h-65z" />
    <glyph glyph-name="parenleft" unicode="(" horiz-adv-x="333" 
d="M102.5 53.5q-45.5 116.5 -45.5 241.5q0 121 45.5 235t129.5 205h68q-63 -97 -102 -215t-39 -230t39.5 -231.5t101.5 -215.5h-68q-84 94 -129.5 210.5z" />
    <glyph glyph-name="parenright" unicode=")" horiz-adv-x="333" 
d="M152 61.5q39 121.5 39 235.5q0 110 -39 227t-102 211h68q85 -92 130 -208t45 -239t-45 -238t-130 -207h-68q63 97 102 218.5z" />
    <glyph glyph-name="asterisk" unicode="*" horiz-adv-x="389" 
d="M168 481l-96 -74l-41 71l112 46l-112 47l41 70l96 -74l-17 119h83l-17 -118l96 73l41 -70l-112 -47l112 -46l-41 -71l-96 74l17 -119h-83z" />
    <glyph glyph-name="plus" unicode="+" horiz-adv-x="584" 
d="M247 210h-191v90h191v211h89v-211h192v-90h-192v-210h-89v210z" />
    <glyph glyph-name="comma" unicode="," horiz-adv-x="278" 
d="M128 0h-45v117h112v-107l-54 -151h-58z" />
    <glyph glyph-name="hyphen" unicode="-" horiz-adv-x="333" 
d="M36 322h261v-104h-261v104z" />
    <glyph glyph-name="period" unicode="." horiz-adv-x="278" 
d="M85 117h111v-117h-111v117z" />
    <glyph glyph-name="slash" unicode="/" horiz-adv-x="278" 
d="M199 735h78l-197 -784h-79z" />
    <glyph glyph-name="zero" unicode="0" 
d="M147 19.5q-52 31.5 -80 109.5t-28 214t28 214t80 109.5t131 31.5t131 -32t80 -109.5t28 -213.5t-28 -213.5t-80 -109.5t-131 -32t-131 31.5zM360 101.5q29 28.5 40 82.5t11 141v29q0 90 -11 145.5t-40 84.5t-82 29t-82 -28.5t-40 -82.5t-11 -141v-29q0 -90 11 -145.5
t40 -84.5t82 -29t82 28.5z" />
    <glyph glyph-name="one" unicode="1" 
d="M91 85h172v463h-173v63q48 5 114.5 26t116.5 49h45v-601h159v-85h-434v85z" />
    <glyph glyph-name="two" unicode="2" 
d="M40 31q0 55 27 100.5t65.5 79.5t102.5 81q55 41 86 67t52 56q31 42 31 91q0 42 -27.5 73.5t-91.5 31.5q-67 0 -99 -32.5t-32 -87.5v-41h-103q-3 17 -3 40q0 104 68.5 156t173.5 52q107 0 163.5 -55.5t56.5 -144.5q0 -59 -30 -108t-73 -86.5t-110 -84.5q-6 -5 -32.5 -24
t-45.5 -35.5t-32 -30.5q-12 -13 -24 -33h351v-96h-474v31z" />
    <glyph glyph-name="three" unicode="3" 
d="M99 43.5q-64 55.5 -64 150.5v11h104v-14q0 -57 35 -87.5t101 -30.5q64 0 101 29.5t37 88.5q0 115 -144 115h-66v85h69q54 0 90.5 29.5t36.5 83.5q0 55 -34 82t-87 27q-57 0 -90.5 -28.5t-33.5 -83.5v-12h-105v21q0 56 29 98.5t80.5 66t117.5 23.5q105 0 167 -49t62 -139
q0 -57 -29.5 -93.5t-82.5 -60.5v-4q58 -17 92.5 -60t34.5 -108q0 -60 -30.5 -104.5t-84.5 -68t-124 -23.5q-118 0 -182 55.5z" />
    <glyph glyph-name="four" unicode="4" 
d="M335 162h-312v86q130 215 184 450h110q-19 -84 -57 -177t-77.5 -168t-62.5 -106h215v202q32 75 51 147h52v-349h88v-85h-88v-162h-103v162z" />
    <glyph glyph-name="five" unicode="5" 
d="M101 48.5q-65 60.5 -65 164.5h106q0 -64 37.5 -102.5t96.5 -38.5q61 0 97 39t36 113q0 66 -34.5 102t-92.5 36q-40 0 -73 -19.5t-53 -50.5l-96 14l27 380h393v-96h-305l-14 -191q62 47 146 47q92 0 150 -56.5t58 -165.5q0 -112 -63.5 -174t-175.5 -62q-110 0 -175 60.5z
" />
    <glyph glyph-name="six" unicode="6" 
d="M103 64.5q-64 76.5 -64 258.5q0 138 28.5 220.5t83 118.5t137.5 36q106 0 158 -58.5t52 -155.5h-105q0 63 -27.5 96t-82.5 33q-79 0 -107.5 -59.5t-30.5 -181.5q24 28 67 48t95 20q105 0 159 -62.5t54 -163.5q0 -68 -29.5 -119.5t-81.5 -79t-117 -27.5q-125 0 -189 76.5z
M381.5 113q32.5 40 32.5 104q0 63 -32.5 101.5t-96.5 38.5t-97.5 -39.5t-33.5 -103.5q0 -62 33.5 -101.5t97.5 -39.5t96.5 40z" />
    <glyph glyph-name="seven" unicode="7" 
d="M212 309.5q71 151.5 175 280.5h-351v96h489v-65q-113 -131 -192.5 -279t-79.5 -291q0 -27 1 -51h-113q0 158 71 309.5z" />
    <glyph glyph-name="eight" unicode="8" 
d="M96 43.5q-60 55.5 -60 144.5q0 120 112 164q-46 24 -70 64.5t-24 90.5q0 54 25.5 97t76 68.5t121.5 25.5q72 0 122 -25.5t75.5 -68.5t25.5 -97q0 -50 -24 -90.5t-70 -64.5q113 -44 113 -164q0 -89 -60 -144.5t-182 -55.5q-121 0 -181 55.5zM365 422q32 29 32 81t-32 81.5
t-88 29.5q-55 0 -87 -29.5t-32 -81.5t31.5 -81t87.5 -29t88 29zM378 103.5q35 31.5 35 87.5q0 55 -35 86t-101 31q-65 0 -99.5 -31t-34.5 -86q0 -56 34.5 -87.5t99.5 -31.5q66 0 101 31.5z" />
    <glyph glyph-name="nine" unicode="9" 
d="M110 46.5q-52 58.5 -52 155.5h105q0 -63 27.5 -96t82.5 -33q79 0 107.5 59.5t30.5 181.5q-23 -28 -65 -48t-94 -20q-107 0 -161.5 62.5t-54.5 163.5q0 68 29.5 119.5t81.5 79t117 27.5q125 0 189 -76.5t64 -258.5q0 -138 -28.5 -220.5t-83 -118.5t-137.5 -36
q-106 0 -158 58.5zM368.5 368.5q33.5 39.5 33.5 103.5q0 62 -33.5 101.5t-97.5 39.5t-96.5 -40t-32.5 -104q0 -63 32.5 -101.5t96.5 -38.5t97.5 39.5z" />
    <glyph glyph-name="colon" unicode=":" horiz-adv-x="295" 
d="M92 526h112v-117h-112v117zM92 117h112v-117h-112v117z" />
    <glyph glyph-name="semicolon" unicode=";" horiz-adv-x="295" 
d="M91 526h112v-117h-112v117zM136 0h-45v117h112v-107l-53 -151h-59z" />
    <glyph glyph-name="less" unicode="&#x3c;" horiz-adv-x="584" 
d="M55 199v114l474 197v-99l-387 -155l387 -154v-99z" />
    <glyph glyph-name="equal" unicode="=" horiz-adv-x="584" 
d="M56 405h473v-90h-473v90zM56 192h473v-89h-473v89z" />
    <glyph glyph-name="greater" unicode="&#x3e;" horiz-adv-x="584" 
d="M55 102l387 154l-387 155v99l474 -197v-114l-474 -196v99z" />
    <glyph glyph-name="question" unicode="?" horiz-adv-x="573" 
d="M233 237q0 36 12.5 63t30.5 45.5t49 43.5q39 31 58.5 56t19.5 62t-24 69t-91 32q-75 0 -101.5 -37.5t-26.5 -84.5l1 -27h-104q-3 22 -3 35q0 58 27 104t81.5 73t133.5 27q97 0 156 -47.5t59 -130.5q0 -50 -15 -85.5t-36 -57t-55 -48.5q-38 -29 -55.5 -51t-17.5 -56v-37
h-99v52zM226 117h112v-117h-112v117z" />
    <glyph glyph-name="at" unicode="@" horiz-adv-x="1003" 
d="M162.5 -51q-111.5 102 -111.5 313q0 153 62 250.5t167 141.5t238 44q200 0 319 -92.5t119 -284.5q0 -106 -35.5 -173t-89 -96.5t-107.5 -29.5q-52 0 -78 18.5t-34 43.5h-5q-53 -63 -152 -63q-58 0 -104.5 29t-46.5 105q0 92 78 127.5t222 35.5v50q0 38 -20 58t-72 20
q-49 0 -70.5 -19.5t-21.5 -46.5v-12h-92q-1 6 -1 20q0 63 52 98t138 35q90 0 135.5 -37t45.5 -106v-244q0 -39 47 -39q57 0 98 53.5t41 173.5q0 158 -98.5 234.5t-268.5 76.5q-186 0 -289.5 -94t-103.5 -278q0 -175 87 -262t268 -87q41 0 98.5 9.5t87.5 22.5v-70
q-34 -11 -90.5 -19t-95.5 -8q-205 0 -316.5 102zM569 128q35 31 35 84v35q-99 0 -151.5 -17.5t-52.5 -66.5q0 -35 20 -50.5t62 -15.5q52 0 87 31z" />
    <glyph glyph-name="A" unicode="A" horiz-adv-x="684" 
d="M273 686h140l266 -686h-118l-63 167h-316l-62 -167h-114zM462 262l-75 201l-45 128h-5l-9 -26q-17 -52 -35 -100l-76 -203h245z" />
    <glyph glyph-name="B" unicode="B" horiz-adv-x="684" 
d="M75 686h350q56 0 99.5 -21t68 -59.5t24.5 -88.5q0 -57 -31.5 -99t-82.5 -58v-4q60 -13 96.5 -57.5t36.5 -113.5q0 -92 -58 -138.5t-153 -46.5h-350v686zM400 399q47 0 75.5 26.5t28.5 69.5q0 48 -26 72t-71 24h-221v-192h214zM417 95q50 0 78 25t28 78q0 52 -29 79
t-85 27h-223v-209h231z" />
    <glyph glyph-name="C" unicode="C" horiz-adv-x="722" 
d="M130 76q-85 88 -85 267q0 178 85 266.5t249 88.5q134 0 216.5 -67t82.5 -195h-113q0 81 -50 124.5t-135 43.5q-113 0 -166.5 -61.5t-54.5 -193.5v-11q0 -133 54 -194.5t167 -61.5q88 0 138.5 42.5t50.5 123.5h109q0 -129 -82 -194.5t-217 -65.5q-164 0 -249 88z" />
    <glyph glyph-name="D" unicode="D" horiz-adv-x="722" 
d="M75 686h264q162 0 250 -85t88 -258t-88 -258t-250 -85h-264v686zM339 95q109 0 166.5 58.5t57.5 183.5v11q0 126 -57.5 184.5t-166.5 58.5h-153v-496h153z" />
    <glyph glyph-name="E" unicode="E" horiz-adv-x="667" 
d="M75 686h532v-95h-421v-193h377v-95h-377v-208h427v-95h-538v686z" />
    <glyph glyph-name="F" unicode="F" horiz-adv-x="611" 
d="M75 686h490v-95h-379v-203h342v-95h-342v-293h-111v686z" />
    <glyph glyph-name="G" unicode="G" horiz-adv-x="778" 
d="M131 76q-86 88 -86 267q0 178 89 266.5t259 88.5q92 0 163.5 -27.5t112.5 -83t41 -135.5h-113q0 74 -55.5 113t-146.5 39q-119 0 -177 -61.5t-58 -194.5v-11q0 -134 56 -194.5t170 -60.5q105 0 159.5 45.5t54.5 134.5v6h-232v94h342v-362h-82l-9 76q-82 -88 -236 -88
q-166 0 -252 88z" />
    <glyph glyph-name="H" unicode="H" horiz-adv-x="722" 
d="M75 686h111v-287h350v287h111v-686h-111v303h-350v-303h-111v686z" />
    <glyph glyph-name="I" unicode="I" horiz-adv-x="278" 
d="M84 686h111v-686h-111v686z" />
    <glyph glyph-name="J" unicode="J" horiz-adv-x="517" 
d="M82 38.5q-54 50.5 -54 147.5v31h110v-34q0 -49 25 -75t73 -26t73 28.5t25 83.5v492h110v-489q0 -104 -53.5 -156.5t-154.5 -52.5q-100 0 -154 50.5z" />
    <glyph glyph-name="K" unicode="K" horiz-adv-x="684" 
d="M75 686h111v-364l349 364h135l-263 -276l271 -410h-131l-215 332l-146 -132v-200h-111v686z" />
    <glyph glyph-name="L" unicode="L" horiz-adv-x="573" 
d="M75 686h111v-590h357v-96h-468v686z" />
    <glyph glyph-name="M" unicode="M" horiz-adv-x="833" 
d="M75 686h167l144 -440q13 -41 31 -119h4q18 84 30 119l143 440h164v-686h-111v448l4 123h-7q-10 -45 -18 -71l-165 -500h-97l-163 500q-5 15 -14 51l-5 20h-5l3 -123v-448h-105v686z" />
    <glyph glyph-name="N" unicode="N" horiz-adv-x="722" 
d="M75 686h102l332 -446q11 -15 29 -43l5 2l-1 50v437h105v-686h-100l-333 451q-8 10 -17 24t-13 20l-5 -1l1 -51v-443h-105v686z" />
    <glyph glyph-name="O" unicode="O" horiz-adv-x="778" 
d="M135 77.5q-90 89.5 -90 265.5t90 265.5t254 89.5q165 0 255 -89.5t90 -265.5t-90 -265.5t-255 -89.5q-164 0 -254 89.5zM620 336v12q-1 256 -231 256q-229 0 -230 -256v-12q0 -254 230 -254q231 0 231 254z" />
    <glyph glyph-name="P" unicode="P" horiz-adv-x="667" 
d="M75 686h332q107 0 163 -57.5t56 -156.5t-58.5 -158t-163.5 -59h-218v-255h-111v686zM400 350q53 0 83.5 32.5t30.5 89.5t-29 88t-85 31h-214v-241h214z" />
    <glyph glyph-name="Q" unicode="Q" horiz-adv-x="778" 
d="M430 -10q-26 -2 -41 -2q-164 0 -254 89.5t-90 265.5t90 265.5t254 89.5q165 0 255 -89.5t90 -265.5q0 -126 -47.5 -208.5t-136.5 -118.5l151 -146h-152zM620 336v12q-1 256 -231 256q-229 0 -230 -256v-12q0 -254 230 -254q231 0 231 254z" />
    <glyph glyph-name="R" unicode="R" horiz-adv-x="722" 
d="M75 686h359q107 0 163 -54t56 -147q0 -71 -32 -121t-92 -73l152 -291h-121l-141 275h-233v-275h-111v686zM427 369q53 0 83.5 30.5t30.5 84.5q0 51 -29 79t-85 28h-241v-222h241z" />
    <glyph glyph-name="S" unicode="S" horiz-adv-x="667" 
d="M127 39.5q-80 51.5 -80 156.5l1 21h110q-2 -14 -2 -20q0 -56 47 -85.5t127 -29.5q88 0 133 26t45 75q0 35 -24.5 57.5t-62 36t-101.5 30.5q-81 21 -132.5 41.5t-87.5 60t-36 103.5q0 91 75 138.5t195 47.5q118 0 191.5 -49t73.5 -147v-12h-108v13q0 48 -43 74.5
t-112 26.5q-74 0 -117.5 -22t-43.5 -64q0 -31 24 -51.5t60 -33.5t98 -29q84 -22 135.5 -42t88.5 -59.5t37 -103.5q0 -110 -77 -160.5t-210 -50.5q-124 0 -204 51.5z" />
    <glyph glyph-name="T" unicode="T" horiz-adv-x="611" 
d="M250 590h-228v96h567v-96h-228v-590h-111v590z" />
    <glyph glyph-name="U" unicode="U" horiz-adv-x="722" 
d="M149.5 54q-74.5 66 -74.5 200v432h111v-434q0 -83 45.5 -126.5t128.5 -43.5q84 0 130 43.5t46 126.5v434h111v-432q0 -134 -74.5 -200t-212.5 -66q-136 0 -210.5 66z" />
    <glyph glyph-name="V" unicode="V" horiz-adv-x="667" 
d="M12 686h120l165 -461l11 -32l26 -76h5l22 63q4 14 8 25.5t7 20.5l164 460h114l-252 -686h-137z" />
    <glyph glyph-name="W" unicode="W" horiz-adv-x="944" 
d="M8 686h117l126 -465q7 -25 23 -102h5l19 102l104 465h148l107 -465q7 -29 20 -102h5q16 76 23 102l124 465h107l-193 -686h-139l-110 468q-9 39 -21 107h-5q-11 -74 -19 -107l-109 -468h-139z" />
    <glyph glyph-name="X" unicode="X" horiz-adv-x="667" 
d="M263 359l-236 327h136l168 -238h8l169 238h130l-236 -325l261 -361h-135l-194 274h-7l-194 -274h-130z" />
    <glyph glyph-name="Y" unicode="Y" horiz-adv-x="667" 
d="M279 282l-268 404h130l194 -304h5l193 304h124l-267 -404v-282h-111v282z" />
    <glyph glyph-name="Z" unicode="Z" horiz-adv-x="611" 
d="M21 55l392 536h-366v95h532v-55l-392 -536h401v-95h-567v55z" />
    <glyph glyph-name="bracketleft" unicode="[" horiz-adv-x="295" 
d="M65 735h197v-74h-106v-748h106v-74h-197v896z" />
    <glyph glyph-name="backslash" unicode="\" horiz-adv-x="278" 
d="M1 735h78l198 -784h-79z" />
    <glyph glyph-name="bracketright" unicode="]" horiz-adv-x="295" 
d="M33 -87h106v748h-106v74h196v-896h-196v74z" />
    <glyph glyph-name="asciicircum" unicode="^" horiz-adv-x="469" 
d="M181 686h107l157 -392h-96l-115 301l-113 -301h-96z" />
    <glyph glyph-name="underscore" unicode="_" 
d="M0 -68h556v-67h-556v67z" />
    <glyph glyph-name="grave" unicode="`" horiz-adv-x="333" 
d="M75 720l1 3h107l84 -132h-84z" />
    <glyph glyph-name="a" unicode="a" 
d="M86.5 20q-52.5 32 -52.5 116q0 101 88 140t252 39v52q0 43 -22.5 65.5t-83.5 22.5q-59 0 -83.5 -21t-24.5 -51v-13h-100q-1 6 -1 22q0 69 58 107.5t155 38.5q102 0 153.5 -42t51.5 -119v-269q0 -18 10 -26.5t25 -8.5h36v-69q-26 -13 -71 -13q-36 0 -60.5 19.5t-32.5 53.5
h-7q-28 -36 -71.5 -56t-101.5 -20q-65 0 -117.5 32zM333.5 107.5q40.5 35.5 40.5 97.5v32q-114 0 -174 -19.5t-60 -73.5q0 -37 23.5 -54.5t70.5 -17.5q59 0 99.5 35.5z" />
    <glyph glyph-name="b" unicode="b" horiz-adv-x="573" 
d="M234.5 9q-42.5 21 -67.5 61h-7l-10 -70h-82v723h103v-257h6q50 72 159 72q93 0 147 -68.5t54 -206.5q0 -140 -54 -207.5t-154 -67.5q-52 0 -94.5 21zM401 117q30 42 30 140v9q0 100 -30 142.5t-101 42.5q-67 0 -98 -47t-31 -139v-8q0 -90 31 -136t98 -46q71 0 101 42z
" />
    <glyph glyph-name="c" unicode="c" horiz-adv-x="517" 
d="M94 55q-58 67 -58 208t58.5 208t179.5 67q107 0 160.5 -52.5t53.5 -155.5h-104q0 64 -25.5 94t-85.5 30q-68 0 -99.5 -45t-31.5 -144v-7q0 -98 31.5 -142t101.5 -44q59 0 86.5 31.5t27.5 92.5h99q0 -94 -54 -151t-160 -57q-122 0 -180 67z" />
    <glyph glyph-name="d" unicode="d" horiz-adv-x="573" 
d="M90 55.5q-54 67.5 -54 207.5q0 138 54 206.5t147 68.5q109 0 159 -72h6v257h103v-723h-82l-10 70h-7q-25 -40 -67.5 -61t-94.5 -21q-100 0 -154 67.5zM371 121q31 46 31 136v8q0 186 -129 186q-71 0 -101 -42.5t-30 -142.5v-9q0 -98 30 -140t101 -42q67 0 98 46z" />
    <glyph glyph-name="e" unicode="e" 
d="M100 55q-62 67 -62 208t62 208t189 67q115 0 172 -62.5t57 -198.5v-40h-374q4 -85 38.5 -125.5t107.5 -40.5q57 0 92 27t35 83h101q0 -94 -63.5 -143.5t-165.5 -49.5q-127 0 -189 67zM411 315q0 140 -122 140q-68 0 -102 -33.5t-41 -106.5h265z" />
    <glyph glyph-name="f" unicode="f" horiz-adv-x="295" 
d="M85 441h-76v85h76v77q0 55 28.5 91.5t94.5 36.5q20 0 42 -4t37 -9v-72h-51q-48 0 -48 -46v-74h99v-85h-99v-441h-103v441z" />
    <glyph glyph-name="g" unicode="g" horiz-adv-x="573" 
d="M61.5 -151q-41.5 31 -41.5 94q0 78 84 111q-24 13 -39 33.5t-15 46.5q0 37 27 58.5t62 30.5q-34 24 -53 59t-19 78q0 84 58 131t161 47q55 0 101 -17q63 33 71 91h99q0 -50 -28 -84t-77 -45q54 -48 54 -123q0 -83 -58 -130t-160 -47h-83q-24 0 -37 -11t-13 -28t12.5 -28
t35.5 -11h220q61 0 98 -38t37 -94q0 -41 -20 -76.5t-60 -57t-96 -21.5h-223q-56 0 -97.5 31zM374 284.5q30 26.5 30 75.5t-29.5 75.5t-88.5 26.5q-58 0 -87.5 -26.5t-29.5 -75.5t29.5 -75.5t87.5 -26.5t88 26.5zM383 -104q31 0 51.5 17t20.5 44t-17 43t-44 16h-211
q-27 0 -43.5 -16t-16.5 -43q0 -28 16.5 -44.5t43.5 -16.5h200z" />
    <glyph glyph-name="h" unicode="h" horiz-adv-x="573" 
d="M68 723h103v-257h7q56 72 163 72q167 0 167 -181v-357h-103v344q0 59 -26.5 82.5t-77.5 23.5q-35 0 -65 -17.5t-47.5 -49.5t-17.5 -74v-309h-103v723z" />
    <glyph glyph-name="i" unicode="i" horiz-adv-x="239" 
d="M68 723h102v-105h-102v105zM68 526h103v-526h-103v526z" />
    <glyph glyph-name="j" unicode="j" horiz-adv-x="239" 
d="M68 723h103v-106h-103v106zM-24 -169v69h46q46 0 46 47v579h103v-581q0 -54 -27.5 -90.5t-90.5 -36.5q-36 0 -77 13z" />
    <glyph glyph-name="k" unicode="k" horiz-adv-x="517" 
d="M68 723h103v-440l208 243h124l-179 -205l189 -321h-119l-135 246l-88 -84v-162h-103v723z" />
    <glyph glyph-name="l" unicode="l" horiz-adv-x="239" 
d="M68 723h103v-723h-103v723z" />
    <glyph glyph-name="m" unicode="m" horiz-adv-x="850" 
d="M68 526h83l10 -70h7q27 40 66 61t89 21q102 0 137 -82h6q27 39 69 60.5t92 21.5q74 0 116 -39.5t42 -127.5v-371h-103v351q0 54 -23.5 76.5t-65.5 22.5q-49 0 -82 -39t-33 -102v-309h-103v351q0 54 -22.5 76.5t-64.5 22.5q-49 0 -83 -39t-34 -102v-309h-103v526z" />
    <glyph glyph-name="n" unicode="n" horiz-adv-x="573" 
d="M68 526h83l10 -70h7q28 40 72.5 61t100.5 21q167 0 167 -181v-357h-103v344q0 59 -26.5 82.5t-77.5 23.5q-35 0 -65 -17.5t-47.5 -49.5t-17.5 -74v-309h-103v526z" />
    <glyph glyph-name="o" unicode="o" horiz-adv-x="573" 
d="M98.5 55.5q-62.5 67.5 -62.5 207.5t62.5 207.5t187.5 67.5t188 -67.5t63 -207.5t-63 -207.5t-188 -67.5t-187.5 67.5zM396.5 117.5q34.5 44.5 34.5 140.5v10q0 96 -34.5 140.5t-110.5 44.5q-75 0 -109.5 -44.5t-34.5 -140.5v-10q0 -96 34.5 -140.5t109.5 -44.5
q76 0 110.5 44.5z" />
    <glyph glyph-name="p" unicode="p" horiz-adv-x="573" 
d="M68 526h82l10 -70h7q25 40 67.5 61t94.5 21q100 0 154 -67.5t54 -207.5q0 -138 -54 -206.5t-147 -68.5q-109 0 -159 72h-6v-233h-103v699zM401 117q30 42 30 140v9q0 100 -30 142.5t-101 42.5q-67 0 -98 -47t-31 -138v-8q0 -90 31 -136.5t98 -46.5q71 0 101 42z" />
    <glyph glyph-name="q" unicode="q" horiz-adv-x="573" 
d="M402 60h-6q-50 -72 -159 -72q-93 0 -147 68.5t-54 206.5q0 140 54 207.5t154 67.5q52 0 94.5 -21t67.5 -61h7l10 70h82v-699h-103v233zM371 121.5q31 46.5 31 136.5v8q0 185 -129 185q-71 0 -101 -42.5t-30 -142.5v-9q0 -98 30 -140t101 -42q67 0 98 46.5z" />
    <glyph glyph-name="r" unicode="r" horiz-adv-x="350" 
d="M68 526h83l10 -81h6q36 93 121 93q28 0 49 -8v-98h-37q-59 0 -94 -34t-35 -104v-294h-103v526z" />
    <glyph glyph-name="s" unicode="s" horiz-adv-x="517" 
d="M92.5 33q-56.5 45 -56.5 113q0 11 0.5 14.5t0.5 4.5h101v-9q0 -43 35 -64.5t89 -21.5q48 0 80.5 18t32.5 51q0 26 -18 42.5t-44 26t-75 22.5q-60 15 -98 30t-64.5 45t-26.5 80q0 72 59 112.5t157 40.5q61 0 106.5 -18.5t70 -51.5t24.5 -74l-1 -20h-101v7q0 33 -26.5 53.5
t-81.5 20.5q-53 0 -77.5 -18.5t-24.5 -43.5q0 -31 30 -46t95 -30q63 -15 103 -30.5t69 -48t29 -86.5q0 -84 -60.5 -124t-162.5 -40q-108 0 -164.5 45z" />
    <glyph glyph-name="t" unicode="t" horiz-adv-x="295" 
d="M107 23.5q-27 34.5 -27 85.5v332h-64v85h65l20 147h82v-147h89v-85h-89v-322q0 -46 43 -46h46v-70q-13 -6 -35.5 -10t-42.5 -4q-60 0 -87 34.5z" />
    <glyph glyph-name="u" unicode="u" horiz-adv-x="573" 
d="M65 169v357h103v-344q0 -59 26.5 -82.5t77.5 -23.5q35 0 65 17.5t47.5 49.5t17.5 74v309h103v-526h-83l-10 70h-7q-29 -40 -73 -61t-100 -21q-167 0 -167 181z" />
    <glyph glyph-name="v" unicode="v" horiz-adv-x="517" 
d="M12 526h108l90 -252q18 -50 49 -163h5q29 107 49 163l89 252h103l-194 -526h-105z" />
    <glyph glyph-name="w" unicode="w" horiz-adv-x="739" 
d="M5 526h106l74 -273l31 -132h4l28 132l65 273h117l68 -274q9 -32 29 -131h5q21 93 30 131l72 274h100l-158 -526h-110l-71 295l-24 110h-4q-14 -76 -23 -110l-71 -295h-111z" />
    <glyph glyph-name="x" unicode="x" horiz-adv-x="517" 
d="M199 270l-181 256h124l116 -177h6l119 177h118l-182 -254l191 -272h-124l-127 193h-6l-128 -193h-118z" />
    <glyph glyph-name="y" unicode="y" horiz-adv-x="517" 
d="M50 -172v68h44q91 0 122 104l-204 526h108l98 -258q20 -51 51 -157h5q28 100 46 157l82 258h103l-174 -499q-36 -100 -81 -154.5t-123 -54.5q-49 0 -77 10z" />
    <glyph glyph-name="z" unicode="z" horiz-adv-x="500" 
d="M23 51l288 390h-269v85h419v-50l-288 -391h303v-85h-453v51z" />
    <glyph glyph-name="braceleft" unicode="{" horiz-adv-x="351" 
d="M171.5 -128.5q-47.5 30.5 -47.5 117.5v196q0 31 -25.5 45.5t-61.5 14.5v86q36 0 61.5 14.5t25.5 45.5v196q0 87 47.5 117.5t136.5 30.5v-63q-38 0 -65 -15t-28 -53l-4 -116q-1 -24 -2 -46.5t-1 -40.5q-2 -54 -25.5 -81t-75.5 -27v-10q52 0 75.5 -27t25.5 -81
q0 -18 1 -40.5t2 -46.5l4 -116q1 -38 27.5 -53t65.5 -15v-63q-89 0 -136.5 30.5z" />
    <glyph glyph-name="bar" unicode="|" horiz-adv-x="266" 
d="M91 723h84v-896h-84v896z" />
    <glyph glyph-name="braceright" unicode="}" horiz-adv-x="351" 
d="M43 -96q39 0 65.5 15t27.5 53l4 116q1 24 2 46.5t1 40.5q2 54 25.5 81t75.5 27v10q-52 0 -75.5 27t-25.5 81q0 18 -1 40.5t-2 46.5l-4 116q-1 38 -28 53t-65 15v63q89 0 136.5 -30.5t47.5 -117.5v-196q0 -31 25.5 -45.5t61.5 -14.5v-86q-36 0 -61.5 -14.5t-25.5 -45.5
v-196q0 -87 -47.5 -117.5t-136.5 -30.5v63z" />
    <glyph glyph-name="asciitilde" unicode="~" horiz-adv-x="584" 
d="M41 308q22 31 59.5 52t85.5 21q25 0 47.5 -7.5t57.5 -22.5q32 -15 56.5 -23t50.5 -8q42 0 80 21t65 52v-101q-22 -31 -59.5 -52t-85.5 -21q-25 0 -47.5 7.5t-57.5 22.5q-32 15 -56.5 23t-50.5 8q-42 0 -80 -21t-65 -52v101z" />
    <glyph glyph-name="uni00A0" unicode="&#xa0;" horiz-adv-x="278" 
 />
    <glyph glyph-name="exclamdown" unicode="&#xa1;" horiz-adv-x="333" 
d="M111 526h112v-117h-112v117zM133 347h68l29 -507h-126z" />
    <glyph glyph-name="cent" unicode="&#xa2;" 
d="M258 68q-109 7 -160.5 73.5t-51.5 200.5t52 201t160 73v107h51v-107q94 -6 142 -58.5t48 -148.5h-105q0 57 -19.5 86.5t-65.5 35.5v-378q46 6 68 36.5t22 85.5h100q0 -88 -48 -144t-142 -63v-117h-51v117zM258 531q-55 -7 -80.5 -51.5t-25.5 -131.5v-11
q0 -87 25.5 -131.5t80.5 -52.5v378z" />
    <glyph glyph-name="sterling" unicode="&#xa3;" 
d="M32 89h71v208h-85v85h85v117q0 98 54 148.5t152 50.5q206 0 206 -194v-13h-103v16q0 53 -26.5 79.5t-76.5 26.5q-102 0 -102 -99v-132h162v-85h-164l-12 -208h320v-89h-481v89z" />
    <glyph glyph-name="currency" unicode="&#xa4;" 
d="M29 144l54 56q-25 31 -37.5 70t-12.5 81q0 43 12.5 82.5t37.5 67.5l-55 54l48 48l57 -56q28 24 66.5 37.5t78.5 13.5t78.5 -13.5t66.5 -37.5l57 56l48 -48l-55 -54q25 -28 37.5 -67.5t12.5 -82.5q0 -42 -12.5 -81t-37.5 -70l54 -56l-45 -45l-55 58q-29 -27 -68 -41
t-81 -14t-81 14t-68 41l-55 -58zM359.5 204.5q37.5 23.5 59.5 62.5t22 84q0 44 -22 82.5t-59.5 62t-81.5 23.5t-81.5 -23.5t-59.5 -62t-22 -82.5q0 -45 22 -84t59.5 -62.5t81.5 -23.5t81.5 23.5z" />
    <glyph glyph-name="yen" unicode="&#xa5;" 
d="M230 161h-196v70h196v70h-196v70h166q-3 5 -20 29t-31 46l-144 240h119l110 -192q32 -54 50 -97h5q6 12 18.5 38.5t29.5 57.5l104 193h110l-137 -236q-15 -26 -31 -50t-19 -29h158v-70h-189v-70h189v-70h-189v-161h-103v161z" />
    <glyph glyph-name="brokenbar" unicode="&#xa6;" horiz-adv-x="266" 
d="M91 723h84v-366h-84v366zM91 193h84v-366h-84v366z" />
    <glyph glyph-name="section" unicode="&#xa7;" 
d="M156.5 -163.5q-48.5 18.5 -74 51.5t-25.5 74l1 20h107v-7q0 -34 27.5 -54.5t86.5 -20.5q62 0 87 23t25 51q0 26 -18.5 45t-47 32.5t-77.5 32.5q-66 25 -107 46.5t-70 57.5t-29 89q0 42 26.5 76.5t67.5 56.5q-79 52 -79 135q0 72 61 112.5t168 40.5q65 0 113.5 -18.5
t74 -51.5t25.5 -74l-1 -20h-107v7q0 33 -27.5 53.5t-86.5 20.5q-62 0 -87 -22.5t-25 -51.5q0 -36 35 -58.5t108 -50.5q66 -25 107 -46.5t70 -57.5t29 -89q0 -42 -26.5 -76.5t-67.5 -57.5q37 -25 58 -57t21 -77q0 -72 -61 -112.5t-168 -40.5q-65 0 -113.5 18.5zM412 216
q0 36 -22 61.5t-54 41.5t-89 38q-28 10 -42 16q-28 -12 -44.5 -31t-16.5 -42q0 -36 22 -61.5t54.5 -42t88.5 -38.5q28 -10 41 -16q62 29 62 74z" />
    <glyph glyph-name="dieresis" unicode="&#xa8;" horiz-adv-x="333" 
d="M21 723h97v-102h-97v102zM215 723h97v-102h-97v102z" />
    <glyph glyph-name="copyright" unicode="&#xa9;" horiz-adv-x="737" 
d="M190.5 36q-81.5 48 -129.5 129.5t-48 177.5t48 177.5t129.5 129.5t177.5 48t177.5 -48t129.5 -129.5t48 -177.5t-48 -177.5t-129.5 -129.5t-177.5 -48t-177.5 48zM519 80.5q69 40.5 109.5 110t40.5 152.5q0 82 -40.5 151.5t-109.5 110.5t-151 41t-151 -41t-109.5 -110.5
t-40.5 -151.5q0 -83 40.5 -152.5t109.5 -110t151 -40.5t151 40.5zM233 183.5q-43 50.5 -43 158.5t43.5 159.5t134.5 51.5q82 0 120.5 -40.5t38.5 -120.5h-71q0 54 -19 78t-69 24q-55 0 -80.5 -35.5t-25.5 -116.5q0 -80 25 -115.5t81 -35.5q48 0 70 25.5t22 77.5h67
q0 -70 -39 -115.5t-120 -45.5q-92 0 -135 50.5z" />
    <glyph glyph-name="ordfeminine" unicode="&#xaa;" horiz-adv-x="370" 
d="M59.5 395.5q-34.5 20.5 -34.5 76.5q0 67 56.5 93t161.5 26v37q0 25 -13.5 38.5t-49.5 13.5q-34 0 -49.5 -13.5t-15.5 -33.5v-10h-73v16q0 46 38.5 71.5t101.5 25.5q67 0 100.5 -26.5t33.5 -75.5v-180q0 -11 6.5 -16.5t15.5 -5.5h25v-46q-14 -9 -47 -9q-25 0 -43 11.5
t-24 30.5h-2q-39 -44 -109 -44q-44 0 -78.5 20.5zM218 453.5q25 21.5 25 59.5v24q-69 0 -105.5 -12.5t-36.5 -47.5q0 -24 14 -34.5t42 -10.5q36 0 61 21.5z" />
    <glyph glyph-name="guillemotleft" unicode="&#xab;" 
d="M62 326l151 200h80l-123 -200l123 -200h-80zM266 326l151 200h79l-122 -200l122 -200h-79z" />
    <glyph glyph-name="logicalnot" unicode="&#xac;" horiz-adv-x="584" 
d="M445 359h-393v95h481v-258h-88v163z" />
    <glyph glyph-name="uni00AD" unicode="&#xad;" horiz-adv-x="333" 
d="M36 322h261v-104h-261v104z" />
    <glyph glyph-name="registered" unicode="&#xae;" horiz-adv-x="737" 
d="M190.5 36q-81.5 48 -129.5 129.5t-48 177.5t48 177.5t129.5 129.5t177.5 48t177.5 -48t129.5 -129.5t48 -177.5t-48 -177.5t-129.5 -129.5t-177.5 -48t-177.5 48zM519 80.5q69 40.5 109.5 110t40.5 152.5q0 82 -40.5 151.5t-109.5 110.5t-151 41t-151 -41t-109.5 -110.5
t-40.5 -151.5q0 -83 40.5 -152.5t109.5 -110t151 -40.5t151 40.5zM223 550h190q62 0 94.5 -33.5t32.5 -90.5q0 -42 -18 -72.5t-53 -44.5l87 -171h-75l-80 159h-107v-159h-71v412zM403 356q30 0 47.5 18.5t17.5 51.5q0 32 -16.5 48.5t-48.5 16.5h-109v-135h109z" />
    <glyph glyph-name="macron" unicode="&#xaf;" horiz-adv-x="333" 
d="M14 677h305v-77h-305v77z" />
    <glyph glyph-name="degree" unicode="&#xb0;" horiz-adv-x="400" 
d="M127.5 434q-32.5 19 -51.5 51.5t-19 71.5q0 38 19 70.5t51.5 51.5t71.5 19q38 0 70.5 -19t51.5 -51.5t19 -70.5q0 -39 -19 -71.5t-51.5 -51.5t-70.5 -19q-39 0 -71.5 19zM254 500.5q23 23.5 23 56.5q0 32 -23 55t-55 23q-33 0 -56.5 -23t-23.5 -55q0 -33 23.5 -56.5
t56.5 -23.5q32 0 55 23.5z" />
    <glyph glyph-name="plusminus" unicode="&#xb1;" horiz-adv-x="549" 
d="M230 344h-191v90h191v211h89v-211h192v-90h-192v-210h-89v210zM38 89h473v-89h-473v89z" />
    <glyph glyph-name="uni00B2" unicode="&#xb2;" horiz-adv-x="333" 
d="M41 458q0 42 25.5 72t74.5 65q26 19 41 31.5t25 25.5q16 21 16 42q0 18 -12 31.5t-39 13.5q-29 0 -43 -14t-14 -38v-23h-68q-2 14 -2 25q0 55 36.5 82.5t92.5 27.5q57 0 87.5 -29.5t30.5 -77.5q0 -33 -15.5 -59t-35 -42.5t-58.5 -45.5q-6 -4 -20.5 -14.5t-23.5 -19
t-13 -15.5h168v-62h-253v24z" />
    <glyph glyph-name="uni00B3" unicode="&#xb3;" horiz-adv-x="333" 
d="M72 456.5q-34 29.5 -34 81.5v12h69v-13q0 -25 15 -38t44 -13q60 0 60 51q0 49 -63 49h-31v60h33q23 0 39 12t16 35t-14.5 34.5t-37.5 11.5q-24 0 -39 -12t-15 -36v-12h-69v17q0 46 34 74t88 28q56 0 89 -26.5t33 -75.5q0 -26 -13.5 -44t-38.5 -32v-2q60 -27 60 -85
q0 -49 -35.5 -77.5t-92.5 -28.5q-63 0 -97 29.5z" />
    <glyph glyph-name="acute" unicode="&#xb4;" horiz-adv-x="333" 
d="M159 723h107l1 -3l-108 -129h-84z" />
    <glyph glyph-name="uni00B5" unicode="&#xb5;" horiz-adv-x="576" 
d="M69 526h103v-344q0 -59 26.5 -82.5t77.5 -23.5q35 0 65 17.5t47.5 49.5t17.5 74v309h103v-526h-83l-10 70h-7q-25 -40 -63.5 -61t-85.5 -21q-55 0 -90 26q2 -30 2 -73v-114h-103v699z" />
    <glyph glyph-name="paragraph" unicode="&#xb6;" horiz-adv-x="543" 
d="M233 253q-57 0 -106 24t-79 73t-30 118q0 113 66.5 165.5t177.5 52.5h266v-61h-61v-793h-84v793h-66v-793h-84v421z" />
    <glyph glyph-name="periodcentered" unicode="&#xb7;" horiz-adv-x="333" 
d="M110 416h112v-117h-112v117z" />
    <glyph glyph-name="cedilla" unicode="&#xb8;" horiz-adv-x="333" 
d="M50 -174v49h96q21 0 31.5 5t10.5 19q0 13 -9 18.5t-31 5.5h-47l15 88h69l-8 -46q42 -2 68 -18t26 -48q0 -45 -37.5 -63t-85.5 -18q-53 0 -98 8z" />
    <glyph glyph-name="uni00B9" unicode="&#xb9;" horiz-adv-x="333" 
d="M52 495h86v208h-86v45q26 2 61 13t61 25h34v-291h78v-61h-234v61z" />
    <glyph glyph-name="ordmasculine" unicode="&#xba;" horiz-adv-x="365" 
d="M62.5 418.5q-40.5 44.5 -40.5 136.5t40.5 136.5t120.5 44.5t120.5 -44.5t40.5 -136.5t-40.5 -136.5t-120.5 -44.5t-120.5 44.5zM248 461.5q20 29.5 20 92.5v6q0 62 -20 90t-65 28t-65 -28.5t-20 -89.5v-6q0 -64 20 -93t65 -29t65 29.5z" />
    <glyph glyph-name="guillemotright" unicode="&#xbb;" 
d="M179 326l-123 200h80l150 -200l-150 -200h-80zM382 326l-122 200h79l151 -200l-151 -200h-79z" />
    <glyph glyph-name="onequarter" unicode="&#xbc;" horiz-adv-x="833" 
d="M652 698h76l-546 -710h-76zM49 390h87v213h-87v45q26 2 61 13t61 25h34v-296h78v-62h-234v62zM666 79h-155v55q55 97 87 232h73q-14 -60 -42 -125.5t-51 -101.5h88v81q16 37 27 86h42v-167h44v-60h-44v-79h-69v79z" />
    <glyph glyph-name="onehalf" unicode="&#xbd;" horiz-adv-x="833" 
d="M652 698h76l-546 -710h-76zM49 390h87v213h-87v45q26 2 61 13t61 25h34v-296h78v-62h-234v62zM528 24q0 42 25 71t75 67q52 37 69 62q12 15 12 37q0 18 -12 31.5t-38 13.5q-30 0 -44 -14t-14 -38v-23h-67q-3 11 -3 25q0 55 37 82.5t93 27.5q57 0 87.5 -29.5t30.5 -77.5
q0 -45 -29 -78t-81 -69q-6 -4 -20 -14.5t-23 -19.5t-13 -16h168v-62h-253v24z" />
    <glyph glyph-name="threequarters" unicode="&#xbe;" horiz-adv-x="833" 
d="M76.5 356.5q-34.5 29.5 -34.5 81.5v12h69v-13q0 -25 15 -38t44 -13q60 0 60 51q0 49 -63 49h-30v60h32q24 0 39.5 12t15.5 35t-14.5 34.5t-37.5 11.5q-24 0 -39 -12t-15 -36v-12h-69v17q0 46 34 74t88 28q56 0 89 -26.5t33 -75.5q0 -26 -13.5 -44t-38.5 -32v-2
q60 -26 60 -85q0 -49 -35.5 -77.5t-92.5 -28.5q-62 0 -96.5 29.5zM652 698h76l-546 -710h-76zM666 79h-155v55q55 97 87 232h73q-14 -60 -42 -125.5t-51 -101.5h88v81q16 37 27 86h42v-167h44v-60h-44v-79h-69v79z" />
    <glyph glyph-name="questiondown" unicode="&#xbf;" horiz-adv-x="611" 
d="M256 526h111v-117h-111v117zM141.5 -124.5q-59.5 47.5 -59.5 130.5q0 50 15 85.5t36.5 57t55.5 48.5q38 29 55.5 51t17.5 56v37h99v-52q0 -36 -12.5 -63t-30.5 -45.5t-49 -43.5q-39 -31 -58.5 -56t-19.5 -62t23.5 -69t90.5 -32q75 0 101.5 37.5t26.5 84.5l-1 27h104
q3 -22 3 -35q0 -58 -27 -104t-81 -73t-133 -27q-97 0 -156.5 47.5z" />
    <glyph glyph-name="Agrave" unicode="&#xc0;" horiz-adv-x="684" 
d="M273 686h140l266 -686h-118l-63 167h-316l-62 -167h-114zM462 262l-75 201l-45 128h-5l-9 -26q-17 -52 -35 -100l-76 -203h245zM218 850l1 3h104l64 -102h-87z" />
    <glyph glyph-name="Aacute" unicode="&#xc1;" horiz-adv-x="684" 
d="M273 686h140l266 -686h-118l-63 167h-316l-62 -167h-114zM462 262l-75 201l-45 128h-5l-9 -26q-17 -52 -35 -100l-76 -203h245zM336 853h114l1 -3l-82 -99h-87z" />
    <glyph glyph-name="Acircumflex" unicode="&#xc2;" horiz-adv-x="684" 
d="M273 686h140l266 -686h-118l-63 167h-316l-62 -167h-114zM462 262l-75 201l-45 128h-5l-9 -26q-17 -52 -35 -100l-76 -203h245zM290 853h96l105 -105h-97l-56 46l-57 -46h-97z" />
    <glyph glyph-name="Atilde" unicode="&#xc3;" horiz-adv-x="684" 
d="M273 686h140l266 -686h-118l-63 167h-316l-62 -167h-114zM462 262l-75 201l-45 128h-5l-9 -26q-17 -52 -35 -100l-76 -203h245zM208.5 821.5q24.5 31.5 69.5 31.5q17 0 32 -4.5t39 -14.5q34 -14 48 -14q26 0 30 33h67q0 -47 -24.5 -78.5t-70.5 -31.5q-17 0 -33 5t-37 14
q-3 1 -19.5 7.5t-29.5 6.5q-26 0 -30 -33h-66q0 47 24.5 78.5z" />
    <glyph glyph-name="Adieresis" unicode="&#xc4;" horiz-adv-x="684" 
d="M273 686h140l266 -686h-118l-63 167h-316l-62 -167h-114zM462 262l-75 201l-45 128h-5l-9 -26q-17 -52 -35 -100l-76 -203h245zM192 883h97v-102h-97v102zM386 883h97v-102h-97v102z" />
    <glyph glyph-name="Aring" unicode="&#xc5;" horiz-adv-x="684" 
d="M273 686h140l266 -686h-118l-63 167h-316l-62 -167h-114zM462 262l-75 201l-45 128h-5l-9 -26q-17 -52 -35 -100l-76 -203h245zM268 751q-27 28 -27 69q0 42 26.5 70t71.5 28t71.5 -28t26.5 -70q0 -41 -27 -69t-71 -28t-71 28zM374 786q14 14 14 34q0 21 -13.5 35
t-35.5 14t-35.5 -14t-13.5 -35q0 -20 13.5 -34t35.5 -14q21 0 35 14z" />
    <glyph glyph-name="AE" unicode="&#xc6;" horiz-adv-x="1000" 
d="M339 686h601v-95h-428l54 -193h330v-95h-304l58 -208h296v-95h-383l-46 167h-327l-80 -167h-112zM491 262l-89 329h-5l-161 -329h255z" />
    <glyph glyph-name="Ccedilla" unicode="&#xc7;" horiz-adv-x="722" 
d="M518.5 124.5q50.5 42.5 50.5 123.5h109q0 -122 -74 -187.5t-199 -71.5l-4 -25q42 -2 68 -18t26 -48q0 -45 -37.5 -63t-85.5 -18q-53 0 -98 8v49h96q21 0 31.5 5t10.5 19q0 13 -9 18.5t-31 5.5h-47l12 68q-292 22 -292 353q0 178 85 266.5t249 88.5q134 0 216.5 -67
t82.5 -195h-113q0 81 -50 124.5t-135 43.5q-113 0 -166.5 -61.5t-54.5 -193.5v-11q0 -133 54 -194.5t167 -61.5q88 0 138.5 42.5z" />
    <glyph glyph-name="Egrave" unicode="&#xc8;" horiz-adv-x="667" 
d="M75 686h532v-95h-421v-193h377v-95h-377v-208h427v-95h-538v686zM227 850l1 3h104l64 -102h-87z" />
    <glyph glyph-name="Eacute" unicode="&#xc9;" horiz-adv-x="667" 
d="M75 686h532v-95h-421v-193h377v-95h-377v-208h427v-95h-538v686zM345 853h114l1 -3l-82 -99h-87z" />
    <glyph glyph-name="Ecircumflex" unicode="&#xca;" horiz-adv-x="667" 
d="M75 686h532v-95h-421v-193h377v-95h-377v-208h427v-95h-538v686zM299 853h96l105 -105h-97l-56 46l-57 -46h-97z" />
    <glyph glyph-name="Edieresis" unicode="&#xcb;" horiz-adv-x="667" 
d="M75 686h532v-95h-421v-193h377v-95h-377v-208h427v-95h-538v686zM201 883h97v-102h-97v102zM395 883h97v-102h-97v102z" />
    <glyph glyph-name="Igrave" unicode="&#xcc;" horiz-adv-x="278" 
d="M84 686h111v-686h-111v686zM20 850l1 3h104l64 -102h-87z" />
    <glyph glyph-name="Iacute" unicode="&#xcd;" horiz-adv-x="278" 
d="M84 686h111v-686h-111v686zM138 853h114l1 -3l-82 -99h-87z" />
    <glyph glyph-name="Icircumflex" unicode="&#xce;" horiz-adv-x="278" 
d="M84 686h111v-686h-111v686zM92 853h96l105 -105h-97l-56 46l-57 -46h-97z" />
    <glyph glyph-name="Idieresis" unicode="&#xcf;" horiz-adv-x="278" 
d="M84 686h111v-686h-111v686zM-6 883h97v-102h-97v102zM188 883h97v-102h-97v102z" />
    <glyph glyph-name="Eth" unicode="&#xd0;" horiz-adv-x="722" 
d="M75 301h-68v92h68v293h264q162 0 250 -85t88 -258t-88 -258t-250 -85h-264v301zM339 95q109 0 166.5 58.5t57.5 183.5v11q0 126 -57.5 184.5t-166.5 58.5h-153v-198h181v-92h-181v-206h153z" />
    <glyph glyph-name="Ntilde" unicode="&#xd1;" horiz-adv-x="722" 
d="M75 686h102l332 -446q11 -15 29 -43l5 2l-1 50v437h105v-686h-100l-333 451q-8 10 -17 24t-13 20l-5 -1l1 -51v-443h-105v686zM236.5 821.5q24.5 31.5 69.5 31.5q17 0 32 -4.5t39 -14.5q34 -14 48 -14q26 0 30 33h67q0 -47 -24.5 -78.5t-70.5 -31.5q-17 0 -33 5t-37 14
q-3 1 -19.5 7.5t-29.5 6.5q-26 0 -30 -33h-66q0 47 24.5 78.5z" />
    <glyph glyph-name="Ograve" unicode="&#xd2;" horiz-adv-x="778" 
d="M135 77.5q-90 89.5 -90 265.5t90 265.5t254 89.5q165 0 255 -89.5t90 -265.5t-90 -265.5t-255 -89.5q-164 0 -254 89.5zM620 336v12q-1 256 -231 256q-229 0 -230 -256v-12q0 -254 230 -254q231 0 231 254zM269 850l1 3h104l64 -102h-87z" />
    <glyph glyph-name="Oacute" unicode="&#xd3;" horiz-adv-x="778" 
d="M135 77.5q-90 89.5 -90 265.5t90 265.5t254 89.5q165 0 255 -89.5t90 -265.5t-90 -265.5t-255 -89.5q-164 0 -254 89.5zM620 336v12q-1 256 -231 256q-229 0 -230 -256v-12q0 -254 230 -254q231 0 231 254zM387 853h114l1 -3l-82 -99h-87z" />
    <glyph glyph-name="Ocircumflex" unicode="&#xd4;" horiz-adv-x="778" 
d="M135 77.5q-90 89.5 -90 265.5t90 265.5t254 89.5q165 0 255 -89.5t90 -265.5t-90 -265.5t-255 -89.5q-164 0 -254 89.5zM620 336v12q-1 256 -231 256q-229 0 -230 -256v-12q0 -254 230 -254q231 0 231 254zM341 853h96l105 -105h-97l-56 46l-57 -46h-97z" />
    <glyph glyph-name="Otilde" unicode="&#xd5;" horiz-adv-x="778" 
d="M135 77.5q-90 89.5 -90 265.5t90 265.5t254 89.5q165 0 255 -89.5t90 -265.5t-90 -265.5t-255 -89.5q-164 0 -254 89.5zM620 336v12q-1 256 -231 256q-229 0 -230 -256v-12q0 -254 230 -254q231 0 231 254zM259.5 821.5q24.5 31.5 69.5 31.5q17 0 32 -4.5t39 -14.5
q34 -14 48 -14q26 0 30 33h67q0 -47 -24.5 -78.5t-70.5 -31.5q-17 0 -33 5t-37 14q-3 1 -19.5 7.5t-29.5 6.5q-26 0 -30 -33h-66q0 47 24.5 78.5z" />
    <glyph glyph-name="Odieresis" unicode="&#xd6;" horiz-adv-x="778" 
d="M135 77.5q-90 89.5 -90 265.5t90 265.5t254 89.5q165 0 255 -89.5t90 -265.5t-90 -265.5t-255 -89.5q-164 0 -254 89.5zM620 336v12q-1 256 -231 256q-229 0 -230 -256v-12q0 -254 230 -254q231 0 231 254zM243 883h97v-102h-97v102zM437 883h97v-102h-97v102z" />
    <glyph glyph-name="multiply" unicode="&#xd7;" horiz-adv-x="584" 
d="M79 106l150 149l-150 150l63 63l149 -150l150 150l63 -63l-149 -150l149 -149l-63 -63l-150 149l-149 -149z" />
    <glyph glyph-name="Oslash" unicode="&#xd8;" horiz-adv-x="778" 
d="M734 343q0 -176 -90 -265.5t-255 -89.5q-115 0 -192 43l-61 -80h-88l92 121q-95 92 -95 271q0 176 90 265.5t254 89.5q116 0 194 -44l52 69h87l-83 -110q95 -90 95 -270zM206 159l315 414q-53 31 -132 31q-229 0 -230 -256v-12q0 -115 47 -177zM620 348q0 114 -47 178
l-315 -414q54 -30 131 -30q231 0 231 254v12z" />
    <glyph glyph-name="Ugrave" unicode="&#xd9;" horiz-adv-x="722" 
d="M149.5 54q-74.5 66 -74.5 200v432h111v-434q0 -83 45.5 -126.5t128.5 -43.5q84 0 130 43.5t46 126.5v434h111v-432q0 -134 -74.5 -200t-212.5 -66q-136 0 -210.5 66zM241 850l1 3h104l64 -102h-87z" />
    <glyph glyph-name="Uacute" unicode="&#xda;" horiz-adv-x="722" 
d="M149.5 54q-74.5 66 -74.5 200v432h111v-434q0 -83 45.5 -126.5t128.5 -43.5q84 0 130 43.5t46 126.5v434h111v-432q0 -134 -74.5 -200t-212.5 -66q-136 0 -210.5 66zM359 853h114l1 -3l-82 -99h-87z" />
    <glyph glyph-name="Ucircumflex" unicode="&#xdb;" horiz-adv-x="722" 
d="M149.5 54q-74.5 66 -74.5 200v432h111v-434q0 -83 45.5 -126.5t128.5 -43.5q84 0 130 43.5t46 126.5v434h111v-432q0 -134 -74.5 -200t-212.5 -66q-136 0 -210.5 66zM313 853h96l105 -105h-97l-56 46l-57 -46h-97z" />
    <glyph glyph-name="Udieresis" unicode="&#xdc;" horiz-adv-x="722" 
d="M149.5 54q-74.5 66 -74.5 200v432h111v-434q0 -83 45.5 -126.5t128.5 -43.5q84 0 130 43.5t46 126.5v434h111v-432q0 -134 -74.5 -200t-212.5 -66q-136 0 -210.5 66zM215 883h97v-102h-97v102zM409 883h97v-102h-97v102z" />
    <glyph glyph-name="Yacute" unicode="&#xdd;" horiz-adv-x="667" 
d="M279 282l-268 404h130l194 -304h5l193 304h124l-267 -404v-282h-111v282zM336 853h114l1 -3l-82 -99h-87z" />
    <glyph glyph-name="Thorn" unicode="&#xde;" horiz-adv-x="667" 
d="M75 686h111v-115h221q107 0 163 -57.5t56 -156.5q0 -100 -59 -159t-163 -59h-218v-139h-111v686zM400 235q53 0 83.5 32.5t30.5 88.5q0 57 -29 88t-85 31h-214v-240h214z" />
    <glyph glyph-name="germandbls" unicode="&#xdf;" horiz-adv-x="611" 
d="M64 514q0 112 70 166.5t180 54.5q73 0 127 -23t83 -63.5t29 -93.5q0 -57 -32 -99.5t-85 -60.5v-4q65 -19 103.5 -68t38.5 -117q0 -58 -28.5 -105t-79 -74t-113.5 -27h-113v85h102q55 0 91 38t36 91q0 54 -38 90.5t-96 36.5h-95v88h87q49 0 83 33t34 81t-35.5 78
t-100.5 30q-68 0 -106 -34.5t-38 -98.5v-518h-104v514z" />
    <glyph glyph-name="agrave" unicode="&#xe0;" 
d="M86.5 20q-52.5 32 -52.5 116q0 101 88 140t252 39v52q0 43 -22.5 65.5t-83.5 22.5q-59 0 -83.5 -21t-24.5 -51v-13h-100q-1 6 -1 22q0 69 58 107.5t155 38.5q102 0 153.5 -42t51.5 -119v-269q0 -18 10 -26.5t25 -8.5h36v-69q-26 -13 -71 -13q-36 0 -60.5 19.5t-32.5 53.5
h-7q-28 -36 -71.5 -56t-101.5 -20q-65 0 -117.5 32zM333.5 107.5q40.5 35.5 40.5 97.5v32q-114 0 -174 -19.5t-60 -73.5q0 -37 23.5 -54.5t70.5 -17.5q59 0 99.5 35.5zM139 720l1 3h107l84 -132h-84z" />
    <glyph glyph-name="aacute" unicode="&#xe1;" 
d="M86.5 20q-52.5 32 -52.5 116q0 101 88 140t252 39v52q0 43 -22.5 65.5t-83.5 22.5q-59 0 -83.5 -21t-24.5 -51v-13h-100q-1 6 -1 22q0 69 58 107.5t155 38.5q102 0 153.5 -42t51.5 -119v-269q0 -18 10 -26.5t25 -8.5h36v-69q-26 -13 -71 -13q-36 0 -60.5 19.5t-32.5 53.5
h-7q-28 -36 -71.5 -56t-101.5 -20q-65 0 -117.5 32zM333.5 107.5q40.5 35.5 40.5 97.5v32q-114 0 -174 -19.5t-60 -73.5q0 -37 23.5 -54.5t70.5 -17.5q59 0 99.5 35.5zM314 723h107l1 -3l-108 -129h-84z" />
    <glyph glyph-name="acircumflex" unicode="&#xe2;" 
d="M86.5 20q-52.5 32 -52.5 116q0 101 88 140t252 39v52q0 43 -22.5 65.5t-83.5 22.5q-59 0 -83.5 -21t-24.5 -51v-13h-100q-1 6 -1 22q0 69 58 107.5t155 38.5q102 0 153.5 -42t51.5 -119v-269q0 -18 10 -26.5t25 -8.5h36v-69q-26 -13 -71 -13q-36 0 -60.5 19.5t-32.5 53.5
h-7q-28 -36 -71.5 -56t-101.5 -20q-65 0 -117.5 32zM333.5 107.5q40.5 35.5 40.5 97.5v32q-114 0 -174 -19.5t-60 -73.5q0 -37 23.5 -54.5t70.5 -17.5q59 0 99.5 35.5zM222 723h96l105 -135h-97l-56 76l-57 -76h-97z" />
    <glyph glyph-name="atilde" unicode="&#xe3;" 
d="M86.5 20q-52.5 32 -52.5 116q0 101 88 140t252 39v52q0 43 -22.5 65.5t-83.5 22.5q-59 0 -83.5 -21t-24.5 -51v-13h-100q-1 6 -1 22q0 69 58 107.5t155 38.5q102 0 153.5 -42t51.5 -119v-269q0 -18 10 -26.5t25 -8.5h36v-69q-26 -13 -71 -13q-36 0 -60.5 19.5t-32.5 53.5
h-7q-28 -36 -71.5 -56t-101.5 -20q-65 0 -117.5 32zM333.5 107.5q40.5 35.5 40.5 97.5v32q-114 0 -174 -19.5t-60 -73.5q0 -37 23.5 -54.5t70.5 -17.5q59 0 99.5 35.5zM128 692q22 31 67 31q18 0 33.5 -4t42.5 -13q22 -8 37 -12t31 -4q26 0 30 33h67q0 -48 -22.5 -79
t-67.5 -31q-18 0 -32.5 4t-42.5 13q-24 8 -38.5 12t-30.5 4q-26 0 -30 -33h-66q0 48 22 79z" />
    <glyph glyph-name="adieresis" unicode="&#xe4;" 
d="M86.5 20q-52.5 32 -52.5 116q0 101 88 140t252 39v52q0 43 -22.5 65.5t-83.5 22.5q-59 0 -83.5 -21t-24.5 -51v-13h-100q-1 6 -1 22q0 69 58 107.5t155 38.5q102 0 153.5 -42t51.5 -119v-269q0 -18 10 -26.5t25 -8.5h36v-69q-26 -13 -71 -13q-36 0 -60.5 19.5t-32.5 53.5
h-7q-28 -36 -71.5 -56t-101.5 -20q-65 0 -117.5 32zM333.5 107.5q40.5 35.5 40.5 97.5v32q-114 0 -174 -19.5t-60 -73.5q0 -37 23.5 -54.5t70.5 -17.5q59 0 99.5 35.5zM124 723h97v-102h-97v102zM318 723h97v-102h-97v102z" />
    <glyph glyph-name="aring" unicode="&#xe5;" 
d="M86.5 20q-52.5 32 -52.5 116q0 101 88 140t252 39v52q0 43 -22.5 65.5t-83.5 22.5q-59 0 -83.5 -21t-24.5 -51v-13h-100q-1 6 -1 22q0 69 58 107.5t155 38.5q102 0 153.5 -42t51.5 -119v-269q0 -18 10 -26.5t25 -8.5h36v-69q-26 -13 -71 -13q-36 0 -60.5 19.5t-32.5 53.5
h-7q-28 -36 -71.5 -56t-101.5 -20q-65 0 -117.5 32zM333.5 107.5q40.5 35.5 40.5 97.5v32q-114 0 -174 -19.5t-60 -73.5q0 -37 23.5 -54.5t70.5 -17.5q59 0 99.5 35.5zM200 591q-27 28 -27 69q0 42 26.5 70t71.5 28t71.5 -28t26.5 -70q0 -41 -27 -69t-71 -28t-71 28z
M306 626q14 14 14 34q0 21 -13.5 35t-35.5 14t-35.5 -14t-13.5 -35q0 -20 13.5 -34t35.5 -14q21 0 35 14z" />
    <glyph glyph-name="ae" unicode="&#xe6;" horiz-adv-x="889" 
d="M92.5 20q-58.5 32 -58.5 116q0 101 90 140t259 39v52q0 42 -24.5 65t-87.5 23q-60 0 -85.5 -21t-25.5 -51v-13h-100q-1 6 -1 22q0 69 59 107.5t158 38.5q121 0 174 -67q61 67 177 67q112 0 168 -62.5t56 -198.5v-40h-365q4 -85 37.5 -125.5t103.5 -40.5q55 0 89 27t34 83
h101q0 -94 -62.5 -143.5t-161.5 -49.5q-137 0 -196 83q-35 -40 -88 -61.5t-119 -21.5q-73 0 -131.5 32zM744 315q0 140 -117 140q-65 0 -98.5 -33.5t-40.5 -106.5h256zM342 105.5q41 33.5 41 99.5v32q-118 0 -180.5 -19.5t-62.5 -73.5q0 -37 24.5 -54.5t72.5 -17.5
q64 0 105 33.5z" />
    <glyph glyph-name="ccedilla" unicode="&#xe7;" horiz-adv-x="517" 
d="M361.5 103.5q27.5 31.5 27.5 92.5h99q0 -90 -50 -146.5t-147 -61.5l-4 -24q42 -2 68 -18t26 -48q0 -45 -37.5 -63t-85.5 -18q-53 0 -98 8v49h96q21 0 31.5 5t10.5 19q0 13 -9 18.5t-31 5.5h-47l12 69q-95 14 -141 80t-46 192q0 141 58.5 208t179.5 67q107 0 160.5 -52.5
t53.5 -155.5h-104q0 64 -25.5 94t-85.5 30q-68 0 -99.5 -45t-31.5 -144v-7q0 -98 31.5 -142t101.5 -44q59 0 86.5 31.5z" />
    <glyph glyph-name="egrave" unicode="&#xe8;" 
d="M100 55q-62 67 -62 208t62 208t189 67q115 0 172 -62.5t57 -198.5v-40h-374q4 -85 38.5 -125.5t107.5 -40.5q57 0 92 27t35 83h101q0 -94 -63.5 -143.5t-165.5 -49.5q-127 0 -189 67zM411 315q0 140 -122 140q-68 0 -102 -33.5t-41 -106.5h265zM151 720l1 3h107l84 -132
h-84z" />
    <glyph glyph-name="eacute" unicode="&#xe9;" 
d="M100 55q-62 67 -62 208t62 208t189 67q115 0 172 -62.5t57 -198.5v-40h-374q4 -85 38.5 -125.5t107.5 -40.5q57 0 92 27t35 83h101q0 -94 -63.5 -143.5t-165.5 -49.5q-127 0 -189 67zM411 315q0 140 -122 140q-68 0 -102 -33.5t-41 -106.5h265zM326 723h107l1 -3
l-108 -129h-84z" />
    <glyph glyph-name="ecircumflex" unicode="&#xea;" 
d="M100 55q-62 67 -62 208t62 208t189 67q115 0 172 -62.5t57 -198.5v-40h-374q4 -85 38.5 -125.5t107.5 -40.5q57 0 92 27t35 83h101q0 -94 -63.5 -143.5t-165.5 -49.5q-127 0 -189 67zM411 315q0 140 -122 140q-68 0 -102 -33.5t-41 -106.5h265zM234 723h96l105 -135h-97
l-56 76l-57 -76h-97z" />
    <glyph glyph-name="edieresis" unicode="&#xeb;" 
d="M100 55q-62 67 -62 208t62 208t189 67q115 0 172 -62.5t57 -198.5v-40h-374q4 -85 38.5 -125.5t107.5 -40.5q57 0 92 27t35 83h101q0 -94 -63.5 -143.5t-165.5 -49.5q-127 0 -189 67zM411 315q0 140 -122 140q-68 0 -102 -33.5t-41 -106.5h265zM136 723h97v-102h-97v102z
M330 723h97v-102h-97v102z" />
    <glyph glyph-name="igrave" unicode="&#xec;" horiz-adv-x="239" 
d="M68 526h103v-526h-103v526zM-13 720l1 3h107l84 -132h-84z" />
    <glyph glyph-name="iacute" unicode="&#xed;" horiz-adv-x="239" 
d="M68 526h103v-526h-103v526zM162 723h107l1 -3l-108 -129h-84z" />
    <glyph glyph-name="icircumflex" unicode="&#xee;" horiz-adv-x="239" 
d="M68 526h103v-526h-103v526zM70 723h96l105 -135h-97l-56 76l-57 -76h-97z" />
    <glyph glyph-name="idieresis" unicode="&#xef;" horiz-adv-x="239" 
d="M68 526h103v-526h-103v526zM-28 723h97v-102h-97v102zM166 723h97v-102h-97v102z" />
    <glyph glyph-name="eth" unicode="&#xf0;" horiz-adv-x="573" 
d="M98.5 55q-62.5 67 -62.5 207q0 135 60 204t165 69q39 0 81 -14l2 2q-25 41 -67 84l-156 -12v64l100 7q-13 11 -48 38l-19 15l2 4h118q37 -28 58 -48l154 10v-64l-93 -6q70 -77 107 -163.5t37 -189.5q0 -140 -63 -207t-188 -67t-187.5 67zM396.5 117.5
q34.5 44.5 34.5 141.5v12q0 92 -34.5 135.5t-110.5 43.5t-110 -43.5t-34 -138.5v-9q0 -97 34 -141.5t110 -44.5t110.5 44.5z" />
    <glyph glyph-name="ntilde" unicode="&#xf1;" horiz-adv-x="573" 
d="M68 526h83l10 -70h7q28 40 72.5 61t100.5 21q167 0 167 -181v-357h-103v344q0 59 -26.5 82.5t-77.5 23.5q-35 0 -65 -17.5t-47.5 -49.5t-17.5 -74v-309h-103v526zM156 692q22 31 67 31q18 0 33.5 -4t42.5 -13q22 -8 37 -12t31 -4q26 0 30 33h67q0 -48 -22.5 -79
t-67.5 -31q-18 0 -32.5 4t-42.5 13q-24 8 -38.5 12t-30.5 4q-26 0 -30 -33h-66q0 48 22 79z" />
    <glyph glyph-name="ograve" unicode="&#xf2;" horiz-adv-x="573" 
d="M98.5 55.5q-62.5 67.5 -62.5 207.5t62.5 207.5t187.5 67.5t188 -67.5t63 -207.5t-63 -207.5t-188 -67.5t-187.5 67.5zM396.5 117.5q34.5 44.5 34.5 140.5v10q0 96 -34.5 140.5t-110.5 44.5q-75 0 -109.5 -44.5t-34.5 -140.5v-10q0 -96 34.5 -140.5t109.5 -44.5
q76 0 110.5 44.5zM155 720l1 3h107l84 -132h-84z" />
    <glyph glyph-name="oacute" unicode="&#xf3;" horiz-adv-x="573" 
d="M98.5 55.5q-62.5 67.5 -62.5 207.5t62.5 207.5t187.5 67.5t188 -67.5t63 -207.5t-63 -207.5t-188 -67.5t-187.5 67.5zM396.5 117.5q34.5 44.5 34.5 140.5v10q0 96 -34.5 140.5t-110.5 44.5q-75 0 -109.5 -44.5t-34.5 -140.5v-10q0 -96 34.5 -140.5t109.5 -44.5
q76 0 110.5 44.5zM330 723h107l1 -3l-108 -129h-84z" />
    <glyph glyph-name="ocircumflex" unicode="&#xf4;" horiz-adv-x="573" 
d="M98.5 55.5q-62.5 67.5 -62.5 207.5t62.5 207.5t187.5 67.5t188 -67.5t63 -207.5t-63 -207.5t-188 -67.5t-187.5 67.5zM396.5 117.5q34.5 44.5 34.5 140.5v10q0 96 -34.5 140.5t-110.5 44.5q-75 0 -109.5 -44.5t-34.5 -140.5v-10q0 -96 34.5 -140.5t109.5 -44.5
q76 0 110.5 44.5zM238 723h96l105 -135h-97l-56 76l-57 -76h-97z" />
    <glyph glyph-name="otilde" unicode="&#xf5;" horiz-adv-x="573" 
d="M98.5 55.5q-62.5 67.5 -62.5 207.5t62.5 207.5t187.5 67.5t188 -67.5t63 -207.5t-63 -207.5t-188 -67.5t-187.5 67.5zM396.5 117.5q34.5 44.5 34.5 140.5v10q0 96 -34.5 140.5t-110.5 44.5q-75 0 -109.5 -44.5t-34.5 -140.5v-10q0 -96 34.5 -140.5t109.5 -44.5
q76 0 110.5 44.5zM144 692q22 31 67 31q18 0 33.5 -4t42.5 -13q22 -8 37 -12t31 -4q26 0 30 33h67q0 -48 -22.5 -79t-67.5 -31q-18 0 -32.5 4t-42.5 13q-24 8 -38.5 12t-30.5 4q-26 0 -30 -33h-66q0 48 22 79z" />
    <glyph glyph-name="odieresis" unicode="&#xf6;" horiz-adv-x="573" 
d="M98.5 55.5q-62.5 67.5 -62.5 207.5t62.5 207.5t187.5 67.5t188 -67.5t63 -207.5t-63 -207.5t-188 -67.5t-187.5 67.5zM396.5 117.5q34.5 44.5 34.5 140.5v10q0 96 -34.5 140.5t-110.5 44.5q-75 0 -109.5 -44.5t-34.5 -140.5v-10q0 -96 34.5 -140.5t109.5 -44.5
q76 0 110.5 44.5zM140 723h97v-102h-97v102zM334 723h97v-102h-97v102z" />
    <glyph glyph-name="divide" unicode="&#xf7;" horiz-adv-x="549" 
d="M221 511h106v-103h-106v103zM38 300h473v-89h-473v89zM221 103h106v-103h-106v103z" />
    <glyph glyph-name="oslash" unicode="&#xf8;" horiz-adv-x="573" 
d="M474 471q63 -67 63 -208q0 -140 -63 -207.5t-188 -67.5q-82 0 -135 28l-46 -65h-78l73 103q-64 69 -64 209t62.5 207.5t187.5 67.5q84 0 138 -29l47 66h77zM162 141l208 292q-34 20 -84 20q-75 0 -109.5 -44.5t-34.5 -140.5v-10q0 -76 20 -117zM412 383l-207 -291
q31 -19 81 -19q76 0 110.5 44.5t34.5 140.5v10q0 73 -19 115z" />
    <glyph glyph-name="ugrave" unicode="&#xf9;" horiz-adv-x="573" 
d="M65 169v357h103v-344q0 -59 26.5 -82.5t77.5 -23.5q35 0 65 17.5t47.5 49.5t17.5 74v309h103v-526h-83l-10 70h-7q-29 -40 -73 -61t-100 -21q-167 0 -167 181zM156 720l1 3h107l84 -132h-84z" />
    <glyph glyph-name="uacute" unicode="&#xfa;" horiz-adv-x="573" 
d="M65 169v357h103v-344q0 -59 26.5 -82.5t77.5 -23.5q35 0 65 17.5t47.5 49.5t17.5 74v309h103v-526h-83l-10 70h-7q-29 -40 -73 -61t-100 -21q-167 0 -167 181zM331 723h107l1 -3l-108 -129h-84z" />
    <glyph glyph-name="ucircumflex" unicode="&#xfb;" horiz-adv-x="573" 
d="M65 169v357h103v-344q0 -59 26.5 -82.5t77.5 -23.5q35 0 65 17.5t47.5 49.5t17.5 74v309h103v-526h-83l-10 70h-7q-29 -40 -73 -61t-100 -21q-167 0 -167 181zM239 723h96l105 -135h-97l-56 76l-57 -76h-97z" />
    <glyph glyph-name="udieresis" unicode="&#xfc;" horiz-adv-x="573" 
d="M65 169v357h103v-344q0 -59 26.5 -82.5t77.5 -23.5q35 0 65 17.5t47.5 49.5t17.5 74v309h103v-526h-83l-10 70h-7q-29 -40 -73 -61t-100 -21q-167 0 -167 181zM141 723h97v-102h-97v102zM335 723h97v-102h-97v102z" />
    <glyph glyph-name="yacute" unicode="&#xfd;" horiz-adv-x="517" 
d="M50 -172v68h44q91 0 122 104l-204 526h108l98 -258q20 -51 51 -157h5q28 100 46 157l82 258h103l-174 -499q-36 -100 -81 -154.5t-123 -54.5q-49 0 -77 10zM307 723h107l1 -3l-108 -129h-84z" />
    <glyph glyph-name="thorn" unicode="&#xfe;" horiz-adv-x="573" 
d="M68 727h103v-261h6q50 72 159 72q94 0 147.5 -68.5t53.5 -206.5t-54 -206.5t-147 -68.5q-109 0 -159 72h-6v-233h-103v900zM401 117q30 42 30 140v9q0 100 -30 142.5t-101 42.5q-67 0 -98 -47t-31 -138v-8q0 -90 31 -136.5t98 -46.5q71 0 101 42z" />
    <glyph glyph-name="ydieresis" unicode="&#xff;" horiz-adv-x="517" 
d="M50 -172v68h44q91 0 122 104l-204 526h108l98 -258q20 -51 51 -157h5q28 100 46 157l82 258h103l-174 -499q-36 -100 -81 -154.5t-123 -54.5q-49 0 -77 10zM117 723h97v-102h-97v102zM311 723h97v-102h-97v102z" />
    <glyph glyph-name="Amacron" unicode="&#x100;" horiz-adv-x="684" 
d="M273 686h140l266 -686h-118l-63 167h-316l-62 -167h-114zM462 262l-75 201l-45 128h-5l-9 -26q-17 -52 -35 -100l-76 -203h245zM185 837h305v-77h-305v77z" />
    <glyph glyph-name="amacron" unicode="&#x101;" 
d="M86.5 20q-52.5 32 -52.5 116q0 101 88 140t252 39v52q0 43 -22.5 65.5t-83.5 22.5q-59 0 -83.5 -21t-24.5 -51v-13h-100q-1 6 -1 22q0 69 58 107.5t155 38.5q102 0 153.5 -42t51.5 -119v-269q0 -18 10 -26.5t25 -8.5h36v-69q-26 -13 -71 -13q-36 0 -60.5 19.5t-32.5 53.5
h-7q-28 -36 -71.5 -56t-101.5 -20q-65 0 -117.5 32zM333.5 107.5q40.5 35.5 40.5 97.5v32q-114 0 -174 -19.5t-60 -73.5q0 -37 23.5 -54.5t70.5 -17.5q59 0 99.5 35.5zM117 677h305v-77h-305v77z" />
    <glyph glyph-name="Abreve" unicode="&#x102;" horiz-adv-x="684" 
d="M273 686h140l266 -686h-118l-63 167h-316l-62 -167h-114zM462 262l-75 201l-45 128h-5l-9 -26q-17 -52 -35 -100l-76 -203h245zM223 776.5q-36 36.5 -36 86.5h70q4 -20 22 -35.5t58 -15.5t59 15.5t22 35.5h70q0 -50 -36.5 -86.5t-114.5 -36.5t-114 36.5z" />
    <glyph glyph-name="abreve" unicode="&#x103;" 
d="M86.5 20q-52.5 32 -52.5 116q0 101 88 140t252 39v52q0 43 -22.5 65.5t-83.5 22.5q-59 0 -83.5 -21t-24.5 -51v-13h-100q-1 6 -1 22q0 69 58 107.5t155 38.5q102 0 153.5 -42t51.5 -119v-269q0 -18 10 -26.5t25 -8.5h36v-69q-26 -13 -71 -13q-36 0 -60.5 19.5t-32.5 53.5
h-7q-28 -36 -71.5 -56t-101.5 -20q-65 0 -117.5 32zM333.5 107.5q40.5 35.5 40.5 97.5v32q-114 0 -174 -19.5t-60 -73.5q0 -37 23.5 -54.5t70.5 -17.5q59 0 99.5 35.5zM155 616.5q-36 36.5 -36 86.5h70q4 -20 22 -35.5t58 -15.5t59 15.5t22 35.5h70q0 -50 -36.5 -86.5
t-114.5 -36.5t-114 36.5z" />
    <glyph glyph-name="Aogonek" unicode="&#x104;" horiz-adv-x="684" 
d="M709 -121v-48q-29 -14 -61 -14q-42 0 -65 20.5t-23 52.5q0 28 17 57.5t48 52.5h-64l-63 167h-316l-62 -167h-114l267 686h140l264 -682h1l1 -4q-18 -22 -28.5 -43.5t-10.5 -37.5q0 -40 50 -40h19zM462 262l-75 201l-45 128h-5l-9 -26q-17 -52 -35 -100l-76 -203h245z" />
    <glyph glyph-name="aogonek" unicode="&#x105;" 
d="M578 -117v-48q-29 -14 -61 -14q-42 0 -65 20.5t-23 52.5q0 24 12.5 49.5t36.5 47.5h-1q-36 0 -60.5 19.5t-32.5 53.5h-7q-28 -36 -71.5 -56t-101.5 -20q-65 0 -117.5 32t-52.5 116q0 101 88 140t252 39v52q0 43 -22.5 65.5t-83.5 22.5q-59 0 -83.5 -21t-24.5 -51v-13
h-100q-1 6 -1 22q0 69 58 107.5t155 38.5q102 0 153.5 -42t51.5 -119v-269q0 -18 10 -26.5t25 -8.5h36v-69q-18 -22 -28.5 -43.5t-10.5 -37.5q0 -40 50 -40h19zM374 237q-114 0 -174 -19.5t-60 -73.5q0 -37 23.5 -54.5t70.5 -17.5q59 0 99.5 35.5t40.5 97.5v32z" />
    <glyph glyph-name="Cacute" unicode="&#x106;" horiz-adv-x="722" 
d="M130 76q-85 88 -85 267q0 178 85 266.5t249 88.5q134 0 216.5 -67t82.5 -195h-113q0 81 -50 124.5t-135 43.5q-113 0 -166.5 -61.5t-54.5 -193.5v-11q0 -133 54 -194.5t167 -61.5q88 0 138.5 42.5t50.5 123.5h109q0 -129 -82 -194.5t-217 -65.5q-164 0 -249 88zM373 853
h114l1 -3l-82 -99h-87z" />
    <glyph glyph-name="cacute" unicode="&#x107;" horiz-adv-x="517" 
d="M94 55q-58 67 -58 208t58.5 208t179.5 67q107 0 160.5 -52.5t53.5 -155.5h-104q0 64 -25.5 94t-85.5 30q-68 0 -99.5 -45t-31.5 -144v-7q0 -98 31.5 -142t101.5 -44q59 0 86.5 31.5t27.5 92.5h99q0 -94 -54 -151t-160 -57q-122 0 -180 67zM317 723h107l1 -3l-108 -129
h-84z" />
    <glyph glyph-name="Ccircumflex" unicode="&#x108;" horiz-adv-x="722" 
d="M130 76q-85 88 -85 267q0 178 85 266.5t249 88.5q134 0 216.5 -67t82.5 -195h-113q0 81 -50 124.5t-135 43.5q-113 0 -166.5 -61.5t-54.5 -193.5v-11q0 -133 54 -194.5t167 -61.5q88 0 138.5 42.5t50.5 123.5h109q0 -129 -82 -194.5t-217 -65.5q-164 0 -249 88zM327 853
h96l105 -105h-97l-56 46l-57 -46h-97z" />
    <glyph glyph-name="ccircumflex" unicode="&#x109;" horiz-adv-x="517" 
d="M94 55q-58 67 -58 208t58.5 208t179.5 67q107 0 160.5 -52.5t53.5 -155.5h-104q0 64 -25.5 94t-85.5 30q-68 0 -99.5 -45t-31.5 -144v-7q0 -98 31.5 -142t101.5 -44q59 0 86.5 31.5t27.5 92.5h99q0 -94 -54 -151t-160 -57q-122 0 -180 67zM225 723h96l105 -135h-97
l-56 76l-57 -76h-97z" />
    <glyph glyph-name="Cdotaccent" unicode="&#x10a;" horiz-adv-x="722" 
d="M130 76q-85 88 -85 267q0 178 85 266.5t249 88.5q134 0 216.5 -67t82.5 -195h-113q0 81 -50 124.5t-135 43.5q-113 0 -166.5 -61.5t-54.5 -193.5v-11q0 -133 54 -194.5t167 -61.5q88 0 138.5 42.5t50.5 123.5h109q0 -129 -82 -194.5t-217 -65.5q-164 0 -249 88zM324 883
h102v-105h-102v105z" />
    <glyph glyph-name="cdotaccent" unicode="&#x10b;" horiz-adv-x="517" 
d="M94 55q-58 67 -58 208t58.5 208t179.5 67q107 0 160.5 -52.5t53.5 -155.5h-104q0 64 -25.5 94t-85.5 30q-68 0 -99.5 -45t-31.5 -144v-7q0 -98 31.5 -142t101.5 -44q59 0 86.5 31.5t27.5 92.5h99q0 -94 -54 -151t-160 -57q-122 0 -180 67zM222 723h102v-105h-102v105z
" />
    <glyph glyph-name="Ccaron" unicode="&#x10c;" horiz-adv-x="722" 
d="M130 76q-85 88 -85 267q0 178 85 266.5t249 88.5q134 0 216.5 -67t82.5 -195h-113q0 81 -50 124.5t-135 43.5q-113 0 -166.5 -61.5t-54.5 -193.5v-11q0 -133 54 -194.5t167 -61.5q88 0 138.5 42.5t50.5 123.5h109q0 -129 -82 -194.5t-217 -65.5q-164 0 -249 88zM221 853
h97l57 -46l56 46h97l-105 -105h-96z" />
    <glyph glyph-name="ccaron" unicode="&#x10d;" horiz-adv-x="517" 
d="M94 55q-58 67 -58 208t58.5 208t179.5 67q107 0 160.5 -52.5t53.5 -155.5h-104q0 64 -25.5 94t-85.5 30q-68 0 -99.5 -45t-31.5 -144v-7q0 -98 31.5 -142t101.5 -44q59 0 86.5 31.5t27.5 92.5h99q0 -94 -54 -151t-160 -57q-122 0 -180 67zM119 723h97l57 -76l56 76h97
l-105 -135h-96z" />
    <glyph glyph-name="Dcaron" unicode="&#x10e;" horiz-adv-x="722" 
d="M75 686h264q162 0 250 -85t88 -258t-88 -258t-250 -85h-264v686zM339 95q109 0 166.5 58.5t57.5 183.5v11q0 126 -57.5 184.5t-166.5 58.5h-153v-496h153zM192 853h97l57 -46l56 46h97l-105 -105h-96z" />
    <glyph glyph-name="dcaron" unicode="&#x10f;" horiz-adv-x="573" 
d="M90 55.5q-54 67.5 -54 207.5q0 138 54 206.5t147 68.5q109 0 159 -72h6v257h103v-723h-82l-10 70h-7q-25 -40 -67.5 -61t-94.5 -21q-100 0 -154 67.5zM371 121q31 46 31 136v8q0 186 -129 186q-71 0 -101 -42.5t-30 -142.5v-9q0 -98 30 -140t101 -42q67 0 98 46zM575 723
h81l-48 -177h-53z" />
    <glyph glyph-name="Dcroat" unicode="&#x110;" horiz-adv-x="722" 
d="M75 301h-68v92h68v293h264q162 0 250 -85t88 -258t-88 -258t-250 -85h-264v301zM339 95q109 0 166.5 58.5t57.5 183.5v11q0 126 -57.5 184.5t-166.5 58.5h-153v-198h181v-92h-181v-206h153z" />
    <glyph glyph-name="dcroat" unicode="&#x111;" horiz-adv-x="573" 
d="M568 593h-63v-593h-82l-10 70h-7q-25 -40 -67.5 -61t-94.5 -21q-100 0 -154 67.5t-54 207.5q0 138 54 206.5t147 68.5q109 0 159 -72h6v127h-145v65h145v65h103v-65h63v-65zM402 265q0 186 -129 186q-71 0 -101 -42.5t-30 -142.5v-9q0 -98 30 -140t101 -42q67 0 98 46
t31 136v8z" />
    <glyph glyph-name="Emacron" unicode="&#x112;" horiz-adv-x="667" 
d="M75 686h532v-95h-421v-193h377v-95h-377v-208h427v-95h-538v686zM194 837h305v-77h-305v77z" />
    <glyph glyph-name="emacron" unicode="&#x113;" 
d="M100 55q-62 67 -62 208t62 208t189 67q115 0 172 -62.5t57 -198.5v-40h-374q4 -85 38.5 -125.5t107.5 -40.5q57 0 92 27t35 83h101q0 -94 -63.5 -143.5t-165.5 -49.5q-127 0 -189 67zM411 315q0 140 -122 140q-68 0 -102 -33.5t-41 -106.5h265zM129 677h305v-77h-305v77z
" />
    <glyph glyph-name="Ebreve" unicode="&#x114;" horiz-adv-x="667" 
d="M75 686h532v-95h-421v-193h377v-95h-377v-208h427v-95h-538v686zM232 776.5q-36 36.5 -36 86.5h70q4 -20 22 -35.5t58 -15.5t59 15.5t22 35.5h70q0 -50 -36.5 -86.5t-114.5 -36.5t-114 36.5z" />
    <glyph glyph-name="ebreve" unicode="&#x115;" 
d="M100 55q-62 67 -62 208t62 208t189 67q115 0 172 -62.5t57 -198.5v-40h-374q4 -85 38.5 -125.5t107.5 -40.5q57 0 92 27t35 83h101q0 -94 -63.5 -143.5t-165.5 -49.5q-127 0 -189 67zM411 315q0 140 -122 140q-68 0 -102 -33.5t-41 -106.5h265zM167 616.5
q-36 36.5 -36 86.5h70q4 -20 22 -35.5t58 -15.5t59 15.5t22 35.5h70q0 -50 -36.5 -86.5t-114.5 -36.5t-114 36.5z" />
    <glyph glyph-name="Edotaccent" unicode="&#x116;" horiz-adv-x="667" 
d="M75 686h532v-95h-421v-193h377v-95h-377v-208h427v-95h-538v686zM296 883h102v-105h-102v105z" />
    <glyph glyph-name="edotaccent" unicode="&#x117;" 
d="M100 55q-62 67 -62 208t62 208t189 67q115 0 172 -62.5t57 -198.5v-40h-374q4 -85 38.5 -125.5t107.5 -40.5q57 0 92 27t35 83h101q0 -94 -63.5 -143.5t-165.5 -49.5q-127 0 -189 67zM411 315q0 140 -122 140q-68 0 -102 -33.5t-41 -106.5h265zM231 723h102v-105h-102
v105z" />
    <glyph glyph-name="Eogonek" unicode="&#x118;" horiz-adv-x="667" 
d="M643 -121v-48q-29 -14 -61 -14q-42 0 -65 20.5t-23 52.5q0 28 17 57.5t48 52.5h-484v686h532v-95h-421v-193h377v-95h-377v-208h427v-95q-18 -22 -28.5 -43.5t-10.5 -37.5q0 -40 50 -40h19z" />
    <glyph glyph-name="eogonek" unicode="&#x119;" 
d="M518 237h-374q4 -85 38.5 -125.5t107.5 -40.5q57 0 92 27t35 83h101q0 -71 -37 -116.5t-101 -64.5q-18 -22 -28.5 -43.5t-10.5 -37.5q0 -40 50 -40h19v-48q-29 -14 -61 -14q-42 0 -65 20.5t-23 52.5q0 25 13 50.5t38 48.5q-8 -1 -23 -1q-127 0 -189 67t-62 208t62 208
t189 67q115 0 172 -62.5t57 -198.5v-40zM411 315q0 140 -122 140q-68 0 -102 -33.5t-41 -106.5h265z" />
    <glyph glyph-name="Ecaron" unicode="&#x11a;" horiz-adv-x="667" 
d="M75 686h532v-95h-421v-193h377v-95h-377v-208h427v-95h-538v686zM193 853h97l57 -46l56 46h97l-105 -105h-96z" />
    <glyph glyph-name="ecaron" unicode="&#x11b;" 
d="M100 55q-62 67 -62 208t62 208t189 67q115 0 172 -62.5t57 -198.5v-40h-374q4 -85 38.5 -125.5t107.5 -40.5q57 0 92 27t35 83h101q0 -94 -63.5 -143.5t-165.5 -49.5q-127 0 -189 67zM411 315q0 140 -122 140q-68 0 -102 -33.5t-41 -106.5h265zM128 723h97l57 -76l56 76
h97l-105 -135h-96z" />
    <glyph glyph-name="Gcircumflex" unicode="&#x11c;" horiz-adv-x="778" 
d="M131 76q-86 88 -86 267q0 178 89 266.5t259 88.5q92 0 163.5 -27.5t112.5 -83t41 -135.5h-113q0 74 -55.5 113t-146.5 39q-119 0 -177 -61.5t-58 -194.5v-11q0 -134 56 -194.5t170 -60.5q105 0 159.5 45.5t54.5 134.5v6h-232v94h342v-362h-82l-9 76q-82 -88 -236 -88
q-166 0 -252 88zM345 853h96l105 -105h-97l-56 46l-57 -46h-97z" />
    <glyph glyph-name="gcircumflex" unicode="&#x11d;" horiz-adv-x="573" 
d="M242 723h77l84 -135h-78l-45 76l-45 -76h-78zM61.5 -151q-41.5 31 -41.5 94q0 78 84 111q-24 13 -39 33.5t-15 46.5q0 37 27 58.5t62 30.5q-34 24 -53 59t-19 78q0 84 58 131t161 47q55 0 101 -17q63 33 71 91h99q0 -50 -28 -84t-77 -45q54 -48 54 -123q0 -83 -58 -130
t-160 -47h-83q-24 0 -37 -11t-13 -28t12.5 -28t35.5 -11h220q61 0 98 -38t37 -94q0 -41 -20 -76.5t-60 -57t-96 -21.5h-223q-56 0 -97.5 31zM374 284.5q30 26.5 30 75.5t-29.5 75.5t-88.5 26.5q-58 0 -87.5 -26.5t-29.5 -75.5t29.5 -75.5t87.5 -26.5t88 26.5zM383 -104
q31 0 51.5 17t20.5 44t-17 43t-44 16h-211q-27 0 -43.5 -16t-16.5 -43q0 -28 16.5 -44.5t43.5 -16.5h200z" />
    <glyph glyph-name="Gbreve" unicode="&#x11e;" horiz-adv-x="778" 
d="M131 76q-86 88 -86 267q0 178 89 266.5t259 88.5q92 0 163.5 -27.5t112.5 -83t41 -135.5h-113q0 74 -55.5 113t-146.5 39q-119 0 -177 -61.5t-58 -194.5v-11q0 -134 56 -194.5t170 -60.5q105 0 159.5 45.5t54.5 134.5v6h-232v94h342v-362h-82l-9 76q-82 -88 -236 -88
q-166 0 -252 88zM278 776.5q-36 36.5 -36 86.5h70q4 -20 22 -35.5t58 -15.5t59 15.5t22 35.5h70q0 -50 -36.5 -86.5t-114.5 -36.5t-114 36.5z" />
    <glyph glyph-name="gbreve" unicode="&#x11f;" horiz-adv-x="573" 
d="M61.5 -151q-41.5 31 -41.5 94q0 78 84 111q-24 13 -39 33.5t-15 46.5q0 37 27 58.5t62 30.5q-34 24 -53 59t-19 78q0 84 58 131t161 47q55 0 101 -17q63 33 71 91h99q0 -50 -28 -84t-77 -45q54 -48 54 -123q0 -83 -58 -130t-160 -47h-83q-24 0 -37 -11t-13 -28t12.5 -28
t35.5 -11h220q61 0 98 -38t37 -94q0 -41 -20 -76.5t-60 -57t-96 -21.5h-223q-56 0 -97.5 31zM374 284.5q30 26.5 30 75.5t-29.5 75.5t-88.5 26.5q-58 0 -87.5 -26.5t-29.5 -75.5t29.5 -75.5t87.5 -26.5t88 26.5zM383 -104q31 0 51.5 17t20.5 44t-17 43t-44 16h-211
q-27 0 -43.5 -16t-16.5 -43q0 -28 16.5 -44.5t43.5 -16.5h200zM165 616.5q-36 36.5 -36 86.5h70q4 -20 22 -35.5t58 -15.5t59 15.5t22 35.5h70q0 -50 -36.5 -86.5t-114.5 -36.5t-114 36.5z" />
    <glyph glyph-name="Gdotaccent" unicode="&#x120;" horiz-adv-x="778" 
d="M131 76q-86 88 -86 267q0 178 89 266.5t259 88.5q92 0 163.5 -27.5t112.5 -83t41 -135.5h-113q0 74 -55.5 113t-146.5 39q-119 0 -177 -61.5t-58 -194.5v-11q0 -134 56 -194.5t170 -60.5q105 0 159.5 45.5t54.5 134.5v6h-232v94h342v-362h-82l-9 76q-82 -88 -236 -88
q-166 0 -252 88zM342 883h102v-105h-102v105z" />
    <glyph glyph-name="gdotaccent" unicode="&#x121;" horiz-adv-x="573" 
d="M61.5 -151q-41.5 31 -41.5 94q0 78 84 111q-24 13 -39 33.5t-15 46.5q0 37 27 58.5t62 30.5q-34 24 -53 59t-19 78q0 84 58 131t161 47q55 0 101 -17q63 33 71 91h99q0 -50 -28 -84t-77 -45q54 -48 54 -123q0 -83 -58 -130t-160 -47h-83q-24 0 -37 -11t-13 -28t12.5 -28
t35.5 -11h220q61 0 98 -38t37 -94q0 -41 -20 -76.5t-60 -57t-96 -21.5h-223q-56 0 -97.5 31zM374 284.5q30 26.5 30 75.5t-29.5 75.5t-88.5 26.5q-58 0 -87.5 -26.5t-29.5 -75.5t29.5 -75.5t87.5 -26.5t88 26.5zM383 -104q31 0 51.5 17t20.5 44t-17 43t-44 16h-211
q-27 0 -43.5 -16t-16.5 -43q0 -28 16.5 -44.5t43.5 -16.5h200zM229 723h102v-105h-102v105z" />
    <glyph glyph-name="uni0122" unicode="&#x122;" horiz-adv-x="778" 
d="M131 76q-86 88 -86 267q0 178 89 266.5t259 88.5q92 0 163.5 -27.5t112.5 -83t41 -135.5h-113q0 74 -55.5 113t-146.5 39q-119 0 -177 -61.5t-58 -194.5v-11q0 -134 56 -194.5t170 -60.5q105 0 159.5 45.5t54.5 134.5v6h-232v94h342v-362h-82l-9 76q-82 -88 -236 -88
q-166 0 -252 88zM381 -183h-39v104h98v-96l-47 -92h-51z" />
    <glyph glyph-name="uni0123" unicode="&#x123;" horiz-adv-x="573" 
d="M61.5 -151q-41.5 31 -41.5 94q0 78 84 111q-24 13 -39 33.5t-15 46.5q0 37 27 58.5t62 30.5q-34 24 -53 59t-19 78q0 84 58 131t161 47q55 0 101 -17q63 33 71 91h99q0 -50 -28 -84t-77 -45q54 -48 54 -123q0 -83 -58 -130t-160 -47h-83q-24 0 -37 -11t-13 -28t12.5 -28
t35.5 -11h220q61 0 98 -38t37 -94q0 -41 -20 -76.5t-60 -57t-96 -21.5h-223q-56 0 -97.5 31zM374 284.5q30 26.5 30 75.5t-29.5 75.5t-88.5 26.5q-58 0 -87.5 -26.5t-29.5 -75.5t29.5 -75.5t87.5 -26.5t88 26.5zM383 -104q31 0 51.5 17t20.5 44t-17 43t-44 16h-211
q-27 0 -43.5 -16t-16.5 -43q0 -28 16.5 -44.5t43.5 -16.5h200zM236 686l46 102h52l-39 -94h39v-102h-98v94z" />
    <glyph glyph-name="Hcircumflex" unicode="&#x124;" horiz-adv-x="722" 
d="M75 686h111v-287h350v287h111v-686h-111v303h-350v-303h-111v686zM313 853h96l105 -105h-97l-56 46l-57 -46h-97z" />
    <glyph glyph-name="hcircumflex" unicode="&#x125;" horiz-adv-x="573" 
d="M68 723h103v-257h7q56 72 163 72q167 0 167 -181v-357h-103v344q0 59 -26.5 82.5t-77.5 23.5q-35 0 -65 -17.5t-47.5 -49.5t-17.5 -74v-309h-103v723zM73 853h96l105 -105h-97l-56 46l-57 -46h-97z" />
    <glyph glyph-name="Hbar" unicode="&#x126;" horiz-adv-x="722" 
d="M717 494h-70v-494h-111v303h-350v-303h-111v494h-68v92h68v100h111v-100h350v100h111v-100h70v-92zM536 494h-350v-95h350v95z" />
    <glyph glyph-name="hbar" unicode="&#x127;" horiz-adv-x="573" 
d="M508 357v-357h-103v344q0 59 -26.5 82.5t-77.5 23.5q-35 0 -65 -17.5t-47.5 -49.5t-17.5 -74v-309h-103v593h-68v65h68v65h103v-65h140v-65h-140v-127h7q56 72 163 72q167 0 167 -181z" />
    <glyph glyph-name="Itilde" unicode="&#x128;" horiz-adv-x="278" 
d="M84 686h111v-686h-111v686zM10.5 821.5q24.5 31.5 69.5 31.5q17 0 32 -4.5t39 -14.5q34 -14 48 -14q26 0 30 33h67q0 -47 -24.5 -78.5t-70.5 -31.5q-17 0 -33 5t-37 14q-3 1 -19.5 7.5t-29.5 6.5q-26 0 -30 -33h-66q0 47 24.5 78.5z" />
    <glyph glyph-name="itilde" unicode="&#x129;" horiz-adv-x="239" 
d="M68 526h103v-526h-103v526zM-24 692q22 31 67 31q18 0 33.5 -4t42.5 -13q22 -8 37 -12t31 -4q26 0 30 33h67q0 -48 -22.5 -79t-67.5 -31q-18 0 -32.5 4t-42.5 13q-24 8 -38.5 12t-30.5 4q-26 0 -30 -33h-66q0 48 22 79z" />
    <glyph glyph-name="Imacron" unicode="&#x12a;" horiz-adv-x="278" 
d="M84 686h111v-686h-111v686zM-13 837h305v-77h-305v77z" />
    <glyph glyph-name="imacron" unicode="&#x12b;" horiz-adv-x="239" 
d="M68 526h103v-526h-103v526zM-35 677h305v-77h-305v77z" />
    <glyph glyph-name="Ibreve" unicode="&#x12c;" horiz-adv-x="278" 
d="M84 686h111v-686h-111v686zM25 776.5q-36 36.5 -36 86.5h70q4 -20 22 -35.5t58 -15.5t59 15.5t22 35.5h70q0 -50 -36.5 -86.5t-114.5 -36.5t-114 36.5z" />
    <glyph glyph-name="ibreve" unicode="&#x12d;" horiz-adv-x="239" 
d="M68 526h103v-526h-103v526zM3 616.5q-36 36.5 -36 86.5h70q4 -20 22 -35.5t58 -15.5t59 15.5t22 35.5h70q0 -50 -36.5 -86.5t-114.5 -36.5t-114 36.5z" />
    <glyph glyph-name="Iogonek" unicode="&#x12e;" horiz-adv-x="278" 
d="M202 -121v-48q-29 -14 -61 -14q-42 0 -65 20.5t-23 52.5q0 28 17 57.5t48 52.5h-34v686h111v-686h-23q-18 -22 -28.5 -43.5t-10.5 -37.5q0 -40 50 -40h19z" />
    <glyph glyph-name="iogonek" unicode="&#x12f;" horiz-adv-x="239" 
d="M170 618h-102v105h102v-105zM185 -121v-48q-29 -14 -61 -14q-42 0 -65 20.5t-23 52.5q0 28 17 57.5t48 52.5h-33v526h103v-526h-16q-18 -22 -28.5 -43.5t-10.5 -37.5q0 -40 50 -40h19z" />
    <glyph glyph-name="Idotaccent" unicode="&#x130;" horiz-adv-x="278" 
d="M84 686h111v-686h-111v686zM89 883h102v-105h-102v105z" />
    <glyph glyph-name="dotlessi" unicode="&#x131;" horiz-adv-x="239" 
d="M68 526h103v-526h-103v526z" />
    <glyph glyph-name="IJ" unicode="&#x132;" horiz-adv-x="795" 
d="M84 686h111v-686h-111v686zM360 38.5q-54 50.5 -54 147.5v31h110v-34q0 -49 25 -75t73 -26t73 28.5t25 83.5v492h110v-489q0 -104 -53.5 -156.5t-154.5 -52.5q-100 0 -154 50.5z" />
    <glyph glyph-name="ij" unicode="&#x133;" horiz-adv-x="478" 
d="M68 723h102v-105h-102v105zM68 526h103v-526h-103v526zM307 723h103v-106h-103v106zM215 -169v69h46q46 0 46 47v579h103v-581q0 -54 -27.5 -90.5t-90.5 -36.5q-36 0 -77 13z" />
    <glyph glyph-name="Jcircumflex" unicode="&#x134;" horiz-adv-x="517" 
d="M82 38.5q-54 50.5 -54 147.5v31h110v-34q0 -49 25 -75t73 -26t73 28.5t25 83.5v492h110v-489q0 -104 -53.5 -156.5t-154.5 -52.5q-100 0 -154 50.5zM340 853h96l105 -105h-97l-56 46l-57 -46h-97z" />
    <glyph glyph-name="jcircumflex" unicode="&#x135;" horiz-adv-x="239" 
d="M-24 -169v69h46q46 0 46 47v579h103v-581q0 -54 -27.5 -90.5t-90.5 -36.5q-36 0 -77 13zM71 723h96l105 -135h-97l-56 76l-57 -76h-97z" />
    <glyph glyph-name="uni0136" unicode="&#x136;" horiz-adv-x="684" 
d="M75 686h111v-364l349 364h135l-263 -276l271 -410h-131l-215 332l-146 -132v-200h-111v686zM335 -183h-39v104h98v-96l-47 -92h-51z" />
    <glyph glyph-name="uni0137" unicode="&#x137;" horiz-adv-x="517" 
d="M68 723h103v-440l208 243h124l-179 -205l189 -321h-119l-135 246l-88 -84v-162h-103v723zM264 -183h-39v104h98v-96l-47 -92h-51z" />
    <glyph glyph-name="kgreenlandic" unicode="&#x138;" horiz-adv-x="517" 
d="M68 526h103v-243l208 243h124l-179 -205l189 -321h-119l-135 246l-88 -84v-162h-103v526z" />
    <glyph glyph-name="Lacute" unicode="&#x139;" horiz-adv-x="573" 
d="M75 686h111v-590h357v-96h-468v686zM128 853h114l1 -3l-82 -99h-87z" />
    <glyph glyph-name="lacute" unicode="&#x13a;" horiz-adv-x="239" 
d="M68 723h103v-723h-103v723zM118 867h114l1 -3l-82 -99h-87z" />
    <glyph glyph-name="uni013B" unicode="&#x13b;" horiz-adv-x="573" 
d="M75 686h111v-590h357v-96h-468v686zM304 -183h-39v104h98v-96l-47 -92h-51z" />
    <glyph glyph-name="uni013C" unicode="&#x13c;" horiz-adv-x="239" 
d="M68 723h103v-723h-103v723zM111 -183h-39v104h98v-96l-47 -92h-51z" />
    <glyph glyph-name="Lcaron" unicode="&#x13d;" horiz-adv-x="573" 
d="M75 686h111v-590h357v-96h-468v686zM306 723h81l-48 -177h-53z" />
    <glyph glyph-name="lcaron" unicode="&#x13e;" horiz-adv-x="239" 
d="M68 723h103v-723h-103v723zM241 723h81l-48 -177h-53z" />
    <glyph glyph-name="Ldot" unicode="&#x13f;" horiz-adv-x="573" 
d="M75 686h111v-590h357v-96h-468v686zM362 419h112v-117h-112v117z" />
    <glyph glyph-name="ldot" unicode="&#x140;" horiz-adv-x="239" 
d="M68 723h103v-723h-103v723zM223 419h112v-117h-112v117z" />
    <glyph glyph-name="Lslash" unicode="&#x141;" horiz-adv-x="573" 
d="M75 258l-71 -47v87l71 47v341h111v-267l180 120v-88l-180 -119v-236h357v-96h-468v258z" />
    <glyph glyph-name="lslash" unicode="&#x142;" horiz-adv-x="239" 
d="M238 410l-67 -52v-358h-103v277l-68 -53v85l68 53v361h103v-280l67 52v-85z" />
    <glyph glyph-name="Nacute" unicode="&#x143;" horiz-adv-x="722" 
d="M75 686h102l332 -446q11 -15 29 -43l5 2l-1 50v437h105v-686h-100l-333 451q-8 10 -17 24t-13 20l-5 -1l1 -51v-443h-105v686zM364 853h114l1 -3l-82 -99h-87z" />
    <glyph glyph-name="nacute" unicode="&#x144;" horiz-adv-x="573" 
d="M68 526h83l10 -70h7q28 40 72.5 61t100.5 21q167 0 167 -181v-357h-103v344q0 59 -26.5 82.5t-77.5 23.5q-35 0 -65 -17.5t-47.5 -49.5t-17.5 -74v-309h-103v526zM342 723h107l1 -3l-108 -129h-84z" />
    <glyph glyph-name="uni0145" unicode="&#x145;" horiz-adv-x="722" 
d="M75 686h102l332 -446q11 -15 29 -43l5 2l-1 50v437h105v-686h-100l-333 451q-8 10 -17 24t-13 20l-5 -1l1 -51v-443h-105v686zM353 -183h-39v104h98v-96l-47 -92h-51z" />
    <glyph glyph-name="uni0146" unicode="&#x146;" horiz-adv-x="573" 
d="M68 526h83l10 -70h7q28 40 72.5 61t100.5 21q167 0 167 -181v-357h-103v344q0 59 -26.5 82.5t-77.5 23.5q-35 0 -65 -17.5t-47.5 -49.5t-17.5 -74v-309h-103v526zM289 -183h-39v104h98v-96l-47 -92h-51z" />
    <glyph glyph-name="Ncaron" unicode="&#x147;" horiz-adv-x="722" 
d="M75 686h102l332 -446q11 -15 29 -43l5 2l-1 50v437h105v-686h-100l-333 451q-8 10 -17 24t-13 20l-5 -1l1 -51v-443h-105v686zM212 853h97l57 -46l56 46h97l-105 -105h-96z" />
    <glyph glyph-name="ncaron" unicode="&#x148;" horiz-adv-x="573" 
d="M68 526h83l10 -70h7q28 40 72.5 61t100.5 21q167 0 167 -181v-357h-103v344q0 59 -26.5 82.5t-77.5 23.5q-35 0 -65 -17.5t-47.5 -49.5t-17.5 -74v-309h-103v526zM144 723h97l57 -76l56 76h97l-105 -135h-96z" />
    <glyph glyph-name="napostrophe" unicode="&#x149;" horiz-adv-x="573" 
d="M68 526h83l10 -70h7q28 40 72.5 61t100.5 21q167 0 167 -181v-357h-103v344q0 59 -26.5 82.5t-77.5 23.5q-35 0 -65 -17.5t-47.5 -49.5t-17.5 -74v-309h-103v526zM10 584h-40v102h101v-93l-48 -118h-53z" />
    <glyph glyph-name="Eng" unicode="&#x14a;" horiz-adv-x="722" 
d="M450 -169v69h46q22 0 34 12t12 35v53l-327 451l-19 26l-12 17l-5 -2q3 -33 3 -51l-2 -441h-105v686h102l332 -445q11 -15 29 -43l5 2l-1 50v436h105v-741q0 -54 -27.5 -90.5t-91.5 -36.5q-37 0 -78 13z" />
    <glyph glyph-name="eng" unicode="&#x14b;" horiz-adv-x="573" 
d="M312 -169v69h47q22 0 34 12t12 35v397q0 59 -26.5 82.5t-77.5 23.5q-35 0 -65 -17.5t-47.5 -49.5t-17.5 -74v-309h-103v526h83l10 -70h7q28 40 72.5 61t100.5 21q167 0 167 -181v-412q0 -54 -27.5 -90.5t-91.5 -36.5q-36 0 -77 13z" />
    <glyph glyph-name="Omacron" unicode="&#x14c;" horiz-adv-x="778" 
d="M135 77.5q-90 89.5 -90 265.5t90 265.5t254 89.5q165 0 255 -89.5t90 -265.5t-90 -265.5t-255 -89.5q-164 0 -254 89.5zM620 336v12q-1 256 -231 256q-229 0 -230 -256v-12q0 -254 230 -254q231 0 231 254zM236 837h305v-77h-305v77z" />
    <glyph glyph-name="omacron" unicode="&#x14d;" horiz-adv-x="573" 
d="M98.5 55.5q-62.5 67.5 -62.5 207.5t62.5 207.5t187.5 67.5t188 -67.5t63 -207.5t-63 -207.5t-188 -67.5t-187.5 67.5zM396.5 117.5q34.5 44.5 34.5 140.5v10q0 96 -34.5 140.5t-110.5 44.5q-75 0 -109.5 -44.5t-34.5 -140.5v-10q0 -96 34.5 -140.5t109.5 -44.5
q76 0 110.5 44.5zM133 677h305v-77h-305v77z" />
    <glyph glyph-name="Obreve" unicode="&#x14e;" horiz-adv-x="778" 
d="M135 77.5q-90 89.5 -90 265.5t90 265.5t254 89.5q165 0 255 -89.5t90 -265.5t-90 -265.5t-255 -89.5q-164 0 -254 89.5zM620 336v12q-1 256 -231 256q-229 0 -230 -256v-12q0 -254 230 -254q231 0 231 254zM274 776.5q-36 36.5 -36 86.5h70q4 -20 22 -35.5t58 -15.5
t59 15.5t22 35.5h70q0 -50 -36.5 -86.5t-114.5 -36.5t-114 36.5z" />
    <glyph glyph-name="obreve" unicode="&#x14f;" horiz-adv-x="573" 
d="M98.5 55.5q-62.5 67.5 -62.5 207.5t62.5 207.5t187.5 67.5t188 -67.5t63 -207.5t-63 -207.5t-188 -67.5t-187.5 67.5zM396.5 117.5q34.5 44.5 34.5 140.5v10q0 96 -34.5 140.5t-110.5 44.5q-75 0 -109.5 -44.5t-34.5 -140.5v-10q0 -96 34.5 -140.5t109.5 -44.5
q76 0 110.5 44.5zM171 616.5q-36 36.5 -36 86.5h70q4 -20 22 -35.5t58 -15.5t59 15.5t22 35.5h70q0 -50 -36.5 -86.5t-114.5 -36.5t-114 36.5z" />
    <glyph glyph-name="Ohungarumlaut" unicode="&#x150;" horiz-adv-x="778" 
d="M135 77.5q-90 89.5 -90 265.5t90 265.5t254 89.5q165 0 255 -89.5t90 -265.5t-90 -265.5t-255 -89.5q-164 0 -254 89.5zM620 336v12q-1 256 -231 256q-229 0 -230 -256v-12q0 -254 230 -254q231 0 231 254zM329 853h108l1 -3l-91 -99h-85zM479 853h108l1 -3l-91 -99h-85z
" />
    <glyph glyph-name="ohungarumlaut" unicode="&#x151;" horiz-adv-x="573" 
d="M98.5 55.5q-62.5 67.5 -62.5 207.5t62.5 207.5t187.5 67.5t188 -67.5t63 -207.5t-63 -207.5t-188 -67.5t-187.5 67.5zM396.5 117.5q34.5 44.5 34.5 140.5v10q0 96 -34.5 140.5t-110.5 44.5q-75 0 -109.5 -44.5t-34.5 -140.5v-10q0 -96 34.5 -140.5t109.5 -44.5
q76 0 110.5 44.5zM216 723h108l1 -3l-91 -129h-85zM366 723h108l1 -3l-91 -129h-85z" />
    <glyph glyph-name="OE" unicode="&#x152;" horiz-adv-x="1000" 
d="M116.5 78q-71.5 90 -71.5 265t71.5 265t202.5 90q114 0 183 -81v69h437v-93h-327v-196h275v-93h-275v-211h334v-93h-444v69q-69 -81 -183 -81q-131 0 -202.5 90zM459.5 143.5q42.5 61.5 42.5 199.5t-42.5 199.5t-122.5 61.5q-91 0 -134.5 -61.5t-43.5 -199.5t43.5 -199.5
t134.5 -61.5q80 0 122.5 61.5z" />
    <glyph glyph-name="oe" unicode="&#x153;" horiz-adv-x="944" 
d="M98.5 55.5q-62.5 67.5 -62.5 207.5t62.5 207.5t186.5 67.5q133 0 196 -88q61 88 198 88q115 0 172 -62.5t57 -198.5v-40h-374q4 -85 38.5 -125.5t107.5 -40.5q57 0 92 27t35 83h101q0 -94 -63.5 -143.5t-165.5 -49.5q-136 0 -198 87q-63 -87 -196 -87q-124 0 -186.5 67.5
zM801 315q0 140 -122 140q-68 0 -102 -33.5t-41 -106.5h265zM394 117.5q34 44.5 34 141.5v3q0 100 -34 145.5t-109 45.5t-109 -44t-34 -140v-8q0 -98 34 -143t109 -45t109 44.5z" />
    <glyph glyph-name="Racute" unicode="&#x154;" horiz-adv-x="722" 
d="M75 686h359q107 0 163 -54t56 -147q0 -71 -32 -121t-92 -73l152 -291h-121l-141 275h-233v-275h-111v686zM427 369q53 0 83.5 30.5t30.5 84.5q0 51 -29 79t-85 28h-241v-222h241zM335 853h114l1 -3l-82 -99h-87z" />
    <glyph glyph-name="racute" unicode="&#x155;" horiz-adv-x="350" 
d="M68 526h83l10 -81h6q36 93 121 93q28 0 49 -8v-98h-37q-59 0 -94 -34t-35 -104v-294h-103v526zM244 723h107l1 -3l-108 -129h-84z" />
    <glyph glyph-name="uni0156" unicode="&#x156;" horiz-adv-x="722" 
d="M75 686h359q107 0 163 -54t56 -147q0 -71 -32 -121t-92 -73l152 -291h-121l-141 275h-233v-275h-111v686zM427 369q53 0 83.5 30.5t30.5 84.5q0 51 -29 79t-85 28h-241v-222h241zM352 -183h-39v104h98v-96l-47 -92h-51z" />
    <glyph glyph-name="uni0157" unicode="&#x157;" horiz-adv-x="350" 
d="M68 526h83l10 -81h6q36 93 121 93q28 0 49 -8v-98h-37q-59 0 -94 -34t-35 -104v-294h-103v526zM110 -183h-39v104h98v-96l-47 -92h-51z" />
    <glyph glyph-name="Rcaron" unicode="&#x158;" horiz-adv-x="722" 
d="M75 686h359q107 0 163 -54t56 -147q0 -71 -32 -121t-92 -73l152 -291h-121l-141 275h-233v-275h-111v686zM427 369q53 0 83.5 30.5t30.5 84.5q0 51 -29 79t-85 28h-241v-222h241zM183 853h97l57 -46l56 46h97l-105 -105h-96z" />
    <glyph glyph-name="rcaron" unicode="&#x159;" horiz-adv-x="350" 
d="M68 526h83l10 -81h6q36 93 121 93q28 0 49 -8v-98h-37q-59 0 -94 -34t-35 -104v-294h-103v526zM46 723h97l57 -76l56 76h97l-105 -135h-96z" />
    <glyph glyph-name="Sacute" unicode="&#x15a;" horiz-adv-x="667" 
d="M127 39.5q-80 51.5 -80 156.5l1 21h110q-2 -14 -2 -20q0 -56 47 -85.5t127 -29.5q88 0 133 26t45 75q0 35 -24.5 57.5t-62 36t-101.5 30.5q-81 21 -132.5 41.5t-87.5 60t-36 103.5q0 91 75 138.5t195 47.5q118 0 191.5 -49t73.5 -147v-12h-108v13q0 48 -43 74.5
t-112 26.5q-74 0 -117.5 -22t-43.5 -64q0 -31 24 -51.5t60 -33.5t98 -29q84 -22 135.5 -42t88.5 -59.5t37 -103.5q0 -110 -77 -160.5t-210 -50.5q-124 0 -204 51.5zM334 853h114l1 -3l-82 -99h-87z" />
    <glyph glyph-name="sacute" unicode="&#x15b;" horiz-adv-x="517" 
d="M92.5 33q-56.5 45 -56.5 113q0 11 0.5 14.5t0.5 4.5h101v-9q0 -43 35 -64.5t89 -21.5q48 0 80.5 18t32.5 51q0 26 -18 42.5t-44 26t-75 22.5q-60 15 -98 30t-64.5 45t-26.5 80q0 72 59 112.5t157 40.5q61 0 106.5 -18.5t70 -51.5t24.5 -74l-1 -20h-101v7q0 33 -26.5 53.5
t-81.5 20.5q-53 0 -77.5 -18.5t-24.5 -43.5q0 -31 30 -46t95 -30q63 -15 103 -30.5t69 -48t29 -86.5q0 -84 -60.5 -124t-162.5 -40q-108 0 -164.5 45zM295 723h107l1 -3l-108 -129h-84z" />
    <glyph glyph-name="Scircumflex" unicode="&#x15c;" horiz-adv-x="667" 
d="M127 39.5q-80 51.5 -80 156.5l1 21h110q-2 -14 -2 -20q0 -56 47 -85.5t127 -29.5q88 0 133 26t45 75q0 35 -24.5 57.5t-62 36t-101.5 30.5q-81 21 -132.5 41.5t-87.5 60t-36 103.5q0 91 75 138.5t195 47.5q118 0 191.5 -49t73.5 -147v-12h-108v13q0 48 -43 74.5
t-112 26.5q-74 0 -117.5 -22t-43.5 -64q0 -31 24 -51.5t60 -33.5t98 -29q84 -22 135.5 -42t88.5 -59.5t37 -103.5q0 -110 -77 -160.5t-210 -50.5q-124 0 -204 51.5zM288 853h96l105 -105h-97l-56 46l-57 -46h-97z" />
    <glyph glyph-name="scircumflex" unicode="&#x15d;" horiz-adv-x="517" 
d="M92.5 33q-56.5 45 -56.5 113q0 11 0.5 14.5t0.5 4.5h101v-9q0 -43 35 -64.5t89 -21.5q48 0 80.5 18t32.5 51q0 26 -18 42.5t-44 26t-75 22.5q-60 15 -98 30t-64.5 45t-26.5 80q0 72 59 112.5t157 40.5q61 0 106.5 -18.5t70 -51.5t24.5 -74l-1 -20h-101v7q0 33 -26.5 53.5
t-81.5 20.5q-53 0 -77.5 -18.5t-24.5 -43.5q0 -31 30 -46t95 -30q63 -15 103 -30.5t69 -48t29 -86.5q0 -84 -60.5 -124t-162.5 -40q-108 0 -164.5 45zM203 723h96l105 -135h-97l-56 76l-57 -76h-97z" />
    <glyph glyph-name="Scedilla" unicode="&#x15e;" horiz-adv-x="667" 
d="M553 47.5q-65 -50.5 -180 -58.5l-4 -25q42 -2 68 -18t26 -48q0 -45 -37.5 -63t-85.5 -18q-53 0 -98 8v49h96q21 0 31.5 5t10.5 19q0 13 -9 18.5t-31 5.5h-47l11 67q-114 5 -185.5 56.5t-71.5 150.5l1 21h110q-2 -14 -2 -20q0 -56 47 -85.5t127 -29.5q88 0 133 26t45 75
q0 35 -24.5 57.5t-62 36t-101.5 30.5q-81 21 -132.5 41.5t-87.5 60t-36 103.5q0 91 75 138.5t195 47.5q118 0 191.5 -49t73.5 -147v-12h-108v13q0 48 -43 74.5t-112 26.5q-74 0 -117.5 -22t-43.5 -64q0 -31 24 -51.5t60 -33.5t98 -29q84 -22 135.5 -42t88.5 -59.5t37 -103.5
q0 -101 -65 -151.5z" />
    <glyph glyph-name="scedilla" unicode="&#x15f;" horiz-adv-x="517" 
d="M429 35q-51 -40 -139 -46l-4 -25q42 -2 68 -18t26 -48q0 -45 -37.5 -63t-85.5 -18q-53 0 -98 8v49h96q21 0 31.5 5t10.5 19q0 13 -9 18.5t-31 5.5h-47l11 67q-91 8 -138 51.5t-47 105.5q0 11 0.5 14.5t0.5 4.5h101v-9q0 -43 35 -64.5t89 -21.5q48 0 80.5 18t32.5 51
q0 26 -18 42.5t-44 26t-75 22.5q-60 15 -98 30t-64.5 45t-26.5 80q0 72 59 112.5t157 40.5q61 0 106.5 -18.5t70 -51.5t24.5 -74l-1 -20h-101v7q0 33 -26.5 53.5t-81.5 20.5q-53 0 -77.5 -18.5t-24.5 -43.5q0 -31 30 -46t95 -30q63 -15 103 -30.5t69 -48t29 -86.5
q0 -77 -51 -117z" />
    <glyph glyph-name="Scaron" unicode="&#x160;" horiz-adv-x="667" 
d="M127 39.5q-80 51.5 -80 156.5l1 21h110q-2 -14 -2 -20q0 -56 47 -85.5t127 -29.5q88 0 133 26t45 75q0 35 -24.5 57.5t-62 36t-101.5 30.5q-81 21 -132.5 41.5t-87.5 60t-36 103.5q0 91 75 138.5t195 47.5q118 0 191.5 -49t73.5 -147v-12h-108v13q0 48 -43 74.5
t-112 26.5q-74 0 -117.5 -22t-43.5 -64q0 -31 24 -51.5t60 -33.5t98 -29q84 -22 135.5 -42t88.5 -59.5t37 -103.5q0 -110 -77 -160.5t-210 -50.5q-124 0 -204 51.5zM182 853h97l57 -46l56 46h97l-105 -105h-96z" />
    <glyph glyph-name="scaron" unicode="&#x161;" horiz-adv-x="517" 
d="M92.5 33q-56.5 45 -56.5 113q0 11 0.5 14.5t0.5 4.5h101v-9q0 -43 35 -64.5t89 -21.5q48 0 80.5 18t32.5 51q0 26 -18 42.5t-44 26t-75 22.5q-60 15 -98 30t-64.5 45t-26.5 80q0 72 59 112.5t157 40.5q61 0 106.5 -18.5t70 -51.5t24.5 -74l-1 -20h-101v7q0 33 -26.5 53.5
t-81.5 20.5q-53 0 -77.5 -18.5t-24.5 -43.5q0 -31 30 -46t95 -30q63 -15 103 -30.5t69 -48t29 -86.5q0 -84 -60.5 -124t-162.5 -40q-108 0 -164.5 45zM97 723h97l57 -76l56 76h97l-105 -135h-96z" />
    <glyph glyph-name="uni0162" unicode="&#x162;" horiz-adv-x="611" 
d="M340 0l-6 -36q42 -2 68 -18t26 -48q0 -45 -37.5 -63t-85.5 -18q-53 0 -98 8v49h96q21 0 31.5 5t10.5 19q0 13 -9 18.5t-31 5.5h-47l13 78h-21v590h-228v96h567v-96h-228v-590h-21z" />
    <glyph glyph-name="uni0163" unicode="&#x163;" horiz-adv-x="295" 
d="M273 -54q26 -16 26 -48q0 -45 -37.5 -63t-85.5 -18q-53 0 -98 8v49h96q21 0 31.5 5t10.5 19q0 13 -9 18.5t-31 5.5h-47l13 76q-32 13 -47 43t-15 68v332h-64v85h65l20 147h82v-147h89v-85h-89v-322q0 -46 43 -46h46v-70q-29 -12 -63 -13l-4 -26q42 -2 68 -18z" />
    <glyph glyph-name="Tcaron" unicode="&#x164;" horiz-adv-x="611" 
d="M250 590h-228v96h567v-96h-228v-590h-111v590zM152 853h97l57 -46l56 46h97l-105 -105h-96z" />
    <glyph glyph-name="tcaron" unicode="&#x165;" horiz-adv-x="295" 
d="M107 23.5q-27 34.5 -27 85.5v332h-64v85h65l20 147h82v-147h89v-85h-89v-322q0 -46 43 -46h46v-70q-13 -6 -35.5 -10t-42.5 -4q-60 0 -87 34.5zM238 743h81l-48 -177h-53z" />
    <glyph glyph-name="Tbar" unicode="&#x166;" horiz-adv-x="611" 
d="M250 315h-150v78h150v197h-228v96h567v-96h-228v-197h150v-78h-150v-315h-111v315z" />
    <glyph glyph-name="tbar" unicode="&#x167;" horiz-adv-x="295" 
d="M107 23.5q-27 34.5 -27 85.5v175h-64v65h64v92h-64v85h65l20 147h82v-147h89v-85h-89v-92h79v-65h-79v-165q0 -46 43 -46h46v-70q-13 -6 -35.5 -10t-42.5 -4q-60 0 -87 34.5z" />
    <glyph glyph-name="Utilde" unicode="&#x168;" horiz-adv-x="722" 
d="M149.5 54q-74.5 66 -74.5 200v432h111v-434q0 -83 45.5 -126.5t128.5 -43.5q84 0 130 43.5t46 126.5v434h111v-432q0 -134 -74.5 -200t-212.5 -66q-136 0 -210.5 66zM231.5 821.5q24.5 31.5 69.5 31.5q17 0 32 -4.5t39 -14.5q34 -14 48 -14q26 0 30 33h67
q0 -47 -24.5 -78.5t-70.5 -31.5q-17 0 -33 5t-37 14q-3 1 -19.5 7.5t-29.5 6.5q-26 0 -30 -33h-66q0 47 24.5 78.5z" />
    <glyph glyph-name="utilde" unicode="&#x169;" horiz-adv-x="573" 
d="M65 169v357h103v-344q0 -59 26.5 -82.5t77.5 -23.5q35 0 65 17.5t47.5 49.5t17.5 74v309h103v-526h-83l-10 70h-7q-29 -40 -73 -61t-100 -21q-167 0 -167 181zM145 692q22 31 67 31q18 0 33.5 -4t42.5 -13q22 -8 37 -12t31 -4q26 0 30 33h67q0 -48 -22.5 -79t-67.5 -31
q-18 0 -32.5 4t-42.5 13q-24 8 -38.5 12t-30.5 4q-26 0 -30 -33h-66q0 48 22 79z" />
    <glyph glyph-name="Umacron" unicode="&#x16a;" horiz-adv-x="722" 
d="M149.5 54q-74.5 66 -74.5 200v432h111v-434q0 -83 45.5 -126.5t128.5 -43.5q84 0 130 43.5t46 126.5v434h111v-432q0 -134 -74.5 -200t-212.5 -66q-136 0 -210.5 66zM208 837h305v-77h-305v77z" />
    <glyph glyph-name="umacron" unicode="&#x16b;" horiz-adv-x="573" 
d="M65 169v357h103v-344q0 -59 26.5 -82.5t77.5 -23.5q35 0 65 17.5t47.5 49.5t17.5 74v309h103v-526h-83l-10 70h-7q-29 -40 -73 -61t-100 -21q-167 0 -167 181zM134 677h305v-77h-305v77z" />
    <glyph glyph-name="Ubreve" unicode="&#x16c;" horiz-adv-x="722" 
d="M149.5 54q-74.5 66 -74.5 200v432h111v-434q0 -83 45.5 -126.5t128.5 -43.5q84 0 130 43.5t46 126.5v434h111v-432q0 -134 -74.5 -200t-212.5 -66q-136 0 -210.5 66zM246 776.5q-36 36.5 -36 86.5h70q4 -20 22 -35.5t58 -15.5t59 15.5t22 35.5h70q0 -50 -36.5 -86.5
t-114.5 -36.5t-114 36.5z" />
    <glyph glyph-name="ubreve" unicode="&#x16d;" horiz-adv-x="573" 
d="M65 169v357h103v-344q0 -59 26.5 -82.5t77.5 -23.5q35 0 65 17.5t47.5 49.5t17.5 74v309h103v-526h-83l-10 70h-7q-29 -40 -73 -61t-100 -21q-167 0 -167 181zM172 616.5q-36 36.5 -36 86.5h70q4 -20 22 -35.5t58 -15.5t59 15.5t22 35.5h70q0 -50 -36.5 -86.5
t-114.5 -36.5t-114 36.5z" />
    <glyph glyph-name="Uring" unicode="&#x16e;" horiz-adv-x="722" 
d="M149.5 54q-74.5 66 -74.5 200v432h111v-434q0 -83 45.5 -126.5t128.5 -43.5q84 0 130 43.5t46 126.5v434h111v-432q0 -134 -74.5 -200t-212.5 -66q-136 0 -210.5 66zM291 751q-27 28 -27 69q0 42 26.5 70t71.5 28t71.5 -28t26.5 -70q0 -41 -27 -69t-71 -28t-71 28z
M397 786q14 14 14 34q0 21 -13.5 35t-35.5 14t-35.5 -14t-13.5 -35q0 -20 13.5 -34t35.5 -14q21 0 35 14z" />
    <glyph glyph-name="uring" unicode="&#x16f;" horiz-adv-x="573" 
d="M65 169v357h103v-344q0 -59 26.5 -82.5t77.5 -23.5q35 0 65 17.5t47.5 49.5t17.5 74v309h103v-526h-83l-10 70h-7q-29 -40 -73 -61t-100 -21q-167 0 -167 181zM217 591q-27 28 -27 69q0 42 26.5 70t71.5 28t71.5 -28t26.5 -70q0 -41 -27 -69t-71 -28t-71 28zM323 626
q14 14 14 34q0 21 -13.5 35t-35.5 14t-35.5 -14t-13.5 -35q0 -20 13.5 -34t35.5 -14q21 0 35 14z" />
    <glyph glyph-name="Uhungarumlaut" unicode="&#x170;" horiz-adv-x="722" 
d="M149.5 54q-74.5 66 -74.5 200v432h111v-434q0 -83 45.5 -126.5t128.5 -43.5q84 0 130 43.5t46 126.5v434h111v-432q0 -134 -74.5 -200t-212.5 -66q-136 0 -210.5 66zM301 853h108l1 -3l-91 -99h-85zM451 853h108l1 -3l-91 -99h-85z" />
    <glyph glyph-name="uhungarumlaut" unicode="&#x171;" horiz-adv-x="573" 
d="M65 169v357h103v-344q0 -59 26.5 -82.5t77.5 -23.5q35 0 65 17.5t47.5 49.5t17.5 74v309h103v-526h-83l-10 70h-7q-29 -40 -73 -61t-100 -21q-167 0 -167 181zM217 723h108l1 -3l-91 -129h-85zM367 723h108l1 -3l-91 -129h-85z" />
    <glyph glyph-name="Uogonek" unicode="&#x172;" horiz-adv-x="722" 
d="M647 686v-432q0 -106 -47 -169.5t-135 -84.5q-18 -22 -28.5 -43.5t-10.5 -37.5q0 -40 50 -40h19v-48q-29 -14 -61 -14q-42 0 -65 20.5t-23 52.5q0 25 13.5 51t38.5 48q-12 -1 -38 -1q-136 0 -210.5 66t-74.5 200v432h111v-434q0 -83 45.5 -126.5t128.5 -43.5
q84 0 130 43.5t46 126.5v434h111z" />
    <glyph glyph-name="uogonek" unicode="&#x173;" horiz-adv-x="573" 
d="M535 -121v-48q-29 -14 -61 -14q-42 0 -65 20.5t-23 52.5q0 28 17 57.5t48 52.5h-29l-10 70h-7q-29 -40 -73 -61t-100 -21q-167 0 -167 181v357h103v-344q0 -59 26.5 -82.5t77.5 -23.5q35 0 65 17.5t47.5 49.5t17.5 74v309h103v-526q-18 -22 -28.5 -43.5t-10.5 -37.5
q0 -40 50 -40h19z" />
    <glyph glyph-name="Wcircumflex" unicode="&#x174;" horiz-adv-x="944" 
d="M8 686h117l126 -465q7 -25 23 -102h5l19 102l104 465h148l107 -465q7 -29 20 -102h5q16 76 23 102l124 465h107l-193 -686h-139l-110 468q-9 39 -21 107h-5q-11 -74 -19 -107l-109 -468h-139zM424 853h96l105 -105h-97l-56 46l-57 -46h-97z" />
    <glyph glyph-name="wcircumflex" unicode="&#x175;" horiz-adv-x="739" 
d="M5 526h106l74 -273l31 -132h4l28 132l65 273h117l68 -274q9 -32 29 -131h5q21 93 30 131l72 274h100l-158 -526h-110l-71 295l-24 110h-4q-14 -76 -23 -110l-71 -295h-111zM320 723h96l105 -135h-97l-56 76l-57 -76h-97z" />
    <glyph glyph-name="Ycircumflex" unicode="&#x176;" horiz-adv-x="667" 
d="M279 282l-268 404h130l194 -304h5l193 304h124l-267 -404v-282h-111v282zM290 853h96l105 -105h-97l-56 46l-57 -46h-97z" />
    <glyph glyph-name="ycircumflex" unicode="&#x177;" horiz-adv-x="517" 
d="M50 -172v68h44q91 0 122 104l-204 526h108l98 -258q20 -51 51 -157h5q28 100 46 157l82 258h103l-174 -499q-36 -100 -81 -154.5t-123 -54.5q-49 0 -77 10zM215 723h96l105 -135h-97l-56 76l-57 -76h-97z" />
    <glyph glyph-name="Ydieresis" unicode="&#x178;" horiz-adv-x="667" 
d="M279 282l-268 404h130l194 -304h5l193 304h124l-267 -404v-282h-111v282zM192 883h97v-102h-97v102zM386 883h97v-102h-97v102z" />
    <glyph glyph-name="Zacute" unicode="&#x179;" horiz-adv-x="611" 
d="M21 55l392 536h-366v95h532v-55l-392 -536h401v-95h-567v55zM308 853h114l1 -3l-82 -99h-87z" />
    <glyph glyph-name="zacute" unicode="&#x17a;" horiz-adv-x="500" 
d="M23 51l288 390h-269v85h419v-50l-288 -391h303v-85h-453v51zM298 723h107l1 -3l-108 -129h-84z" />
    <glyph glyph-name="Zdotaccent" unicode="&#x17b;" horiz-adv-x="611" 
d="M21 55l392 536h-366v95h532v-55l-392 -536h401v-95h-567v55zM259 883h102v-105h-102v105z" />
    <glyph glyph-name="zdotaccent" unicode="&#x17c;" horiz-adv-x="500" 
d="M23 51l288 390h-269v85h419v-50l-288 -391h303v-85h-453v51zM203 723h102v-105h-102v105z" />
    <glyph glyph-name="Zcaron" unicode="&#x17d;" horiz-adv-x="611" 
d="M21 55l392 536h-366v95h532v-55l-392 -536h401v-95h-567v55zM156 853h97l57 -46l56 46h97l-105 -105h-96z" />
    <glyph glyph-name="zcaron" unicode="&#x17e;" horiz-adv-x="500" 
d="M23 51l288 390h-269v85h419v-50l-288 -391h303v-85h-453v51zM100 723h97l57 -76l56 76h97l-105 -135h-96z" />
    <glyph glyph-name="longs" unicode="&#x17f;" horiz-adv-x="278" 
d="M85 441h-76v85h76v77q0 55 28.5 91.5t94.5 36.5q20 0 42 -4t37 -9v-72h-51q-48 0 -48 -46v-600h-103v441z" />
    <glyph glyph-name="uni018F" unicode="&#x18f;" horiz-adv-x="753" 
d="M127.5 66.5q-82.5 78.5 -82.5 249.5v57h550q-7 119 -63.5 176t-169.5 57q-93 0 -151.5 -37.5t-58.5 -116.5h-107q0 120 88.5 183t236.5 63q170 0 254.5 -88t84.5 -272q0 -179 -82.5 -264.5t-253.5 -85.5q-163 0 -245.5 78.5zM530.5 127q50.5 47 61.5 153h-432
q0 -104 57.5 -152t161.5 -48q101 0 151.5 47z" />
    <glyph glyph-name="uni0191" unicode="&#x191;" horiz-adv-x="611" 
d="M-17 -169v69h46q46 0 46 47v739h490v-95h-379v-203h342v-95h-342v-348q0 -53 -31 -90t-95 -37q-36 0 -77 13z" />
    <glyph glyph-name="florin" unicode="&#x192;" 
d="M68.5 -179q-21.5 4 -34.5 9l15 72h52q45 0 56 46l96 447h-77l18 85h76l27 123q11 55 47 91.5t103 36.5q20 0 41 -4t34 -9l-15 -72h-51q-46 0 -57 -46l-26 -120h99l-18 -85h-98l-96 -450q-12 -55 -48 -91.5t-102 -36.5q-20 0 -41.5 4z" />
    <glyph glyph-name="uni019D" unicode="&#x19d;" horiz-adv-x="722" 
d="M-16 -169v69h46q45 0 45 47v739h102l332 -446q11 -15 29 -43l5 2l-1 50v437h105v-686h-100l-324 438q-10 14 -14 21l-25 36l-5 -1l1 -69v-480q0 -54 -27.5 -90.5t-90.5 -36.5q-37 0 -78 13z" />
    <glyph glyph-name="Ohorn" unicode="&#x1a0;" horiz-adv-x="778" 
d="M734 343q0 -176 -90 -265.5t-255 -89.5q-164 0 -254 89.5t-90 265.5t90 265.5t254 89.5q60 0 111 -12h72q49 0 49 53v107h93v-107q0 -43 -24 -71.5t-69 -38.5q113 -90 113 -286zM620 348q-1 256 -231 256q-229 0 -230 -256v-12q0 -254 230 -254q231 0 231 254v12z" />
    <glyph glyph-name="ohorn" unicode="&#x1a1;" horiz-adv-x="573" 
d="M537 510q-22 -28 -63 -39q63 -67 63 -208q0 -140 -63 -207.5t-188 -67.5t-187.5 67.5t-62.5 207.5t62.5 207.5t187.5 67.5q53 0 95 -12h36q49 0 49 53v107h93v-107q0 -41 -22 -69zM431 268q0 96 -34.5 140.5t-110.5 44.5q-75 0 -109.5 -44.5t-34.5 -140.5v-10
q0 -96 34.5 -140.5t109.5 -44.5q76 0 110.5 44.5t34.5 140.5v10z" />
    <glyph glyph-name="Uhorn" unicode="&#x1af;" horiz-adv-x="722" 
d="M761 846v-107q0 -48 -30 -78t-84 -36v-371q0 -134 -74.5 -200t-212.5 -66q-136 0 -210.5 66t-74.5 200v432h111v-434q0 -83 45.5 -126.5t128.5 -43.5q84 0 130 43.5t46 126.5v434h83q49 0 49 53v107h93z" />
    <glyph glyph-name="uhorn" unicode="&#x1b0;" horiz-adv-x="573" 
d="M617 686v-107q0 -47 -29.5 -77t-82.5 -36v-466h-83l-10 70h-7q-29 -40 -73 -61t-100 -21q-167 0 -167 181v357h103v-344q0 -59 26.5 -82.5t77.5 -23.5q35 0 65 17.5t47.5 49.5t17.5 74v309h73q49 0 49 53v107h93z" />
    <glyph glyph-name="uni01C4" unicode="&#x1c4;" horiz-adv-x="1333" 
d="M75 686h264q162 0 250 -85t88 -258t-88 -258t-250 -85h-264v686zM339 95q109 0 166.5 58.5t57.5 183.5v11q0 126 -57.5 184.5t-166.5 58.5h-153v-496h153zM743 55l392 536h-366v95h532v-55l-392 -536h401v-95h-567v55zM878 853h97l57 -46l56 46h97l-105 -105h-96z" />
    <glyph glyph-name="uni01C5" unicode="&#x1c5;" horiz-adv-x="1222" 
d="M75 686h264q162 0 250 -85t88 -258t-88 -258t-250 -85h-264v686zM339 95q109 0 166.5 58.5t57.5 183.5v11q0 126 -57.5 184.5t-166.5 58.5h-153v-496h153zM745 51l288 390h-269v85h419v-50l-288 -391h303v-85h-453v51zM822 723h97l57 -76l56 76h97l-105 -135h-96z" />
    <glyph glyph-name="uni01C6" unicode="&#x1c6;" horiz-adv-x="1073" 
d="M90 55.5q-54 67.5 -54 207.5q0 138 54 206.5t147 68.5q109 0 159 -72h6v257h103v-723h-82l-10 70h-7q-25 -40 -67.5 -61t-94.5 -21q-100 0 -154 67.5zM371 121q31 46 31 136v8q0 186 -129 186q-71 0 -101 -42.5t-30 -142.5v-9q0 -98 30 -140t101 -42q67 0 98 46zM596 51
l288 390h-269v85h419v-50l-288 -391h303v-85h-453v51zM673 723h97l57 -76l56 76h97l-105 -135h-96z" />
    <glyph glyph-name="uni01C7" unicode="&#x1c7;" horiz-adv-x="1090" 
d="M75 686h111v-590h357v-96h-468v686zM655 38.5q-54 50.5 -54 147.5v31h110v-34q0 -49 25 -75t73 -26t73 28.5t25 83.5v492h110v-489q0 -104 -53.5 -156.5t-154.5 -52.5q-100 0 -154 50.5z" />
    <glyph glyph-name="uni01C8" unicode="&#x1c8;" horiz-adv-x="812" 
d="M75 686h111v-590h357v-96h-468v686zM641 723h103v-106h-103v106zM549 -169v69h46q46 0 46 47v579h103v-581q0 -54 -27.5 -90.5t-90.5 -36.5q-36 0 -77 13z" />
    <glyph glyph-name="uni01C9" unicode="&#x1c9;" horiz-adv-x="478" 
d="M68 723h103v-723h-103v723zM307 723h103v-106h-103v106zM215 -169v69h46q46 0 46 47v579h103v-581q0 -54 -27.5 -90.5t-90.5 -36.5q-36 0 -77 13z" />
    <glyph glyph-name="uni01CA" unicode="&#x1ca;" horiz-adv-x="1239" 
d="M75 686h102l332 -446q11 -15 29 -43l5 2l-1 50v437h105v-686h-100l-333 451q-8 10 -17 24t-13 20l-5 -1l1 -51v-443h-105v686zM804 38.5q-54 50.5 -54 147.5v31h110v-34q0 -49 25 -75t73 -26t73 28.5t25 83.5v492h110v-489q0 -104 -53.5 -156.5t-154.5 -52.5
q-100 0 -154 50.5z" />
    <glyph glyph-name="uni01CB" unicode="&#x1cb;" horiz-adv-x="961" 
d="M75 686h102l332 -446q11 -15 29 -43l5 2l-1 50v437h105v-686h-100l-333 451q-8 10 -17 24t-13 20l-5 -1l1 -51v-443h-105v686zM790 723h103v-106h-103v106zM698 -169v69h46q46 0 46 47v579h103v-581q0 -54 -27.5 -90.5t-90.5 -36.5q-36 0 -77 13z" />
    <glyph glyph-name="uni01CC" unicode="&#x1cc;" horiz-adv-x="812" 
d="M68 526h83l10 -70h7q28 40 72.5 61t100.5 21q167 0 167 -181v-357h-103v344q0 59 -26.5 82.5t-77.5 23.5q-35 0 -65 -17.5t-47.5 -49.5t-17.5 -74v-309h-103v526zM641 723h103v-106h-103v106zM549 -169v69h46q46 0 46 47v579h103v-581q0 -54 -27.5 -90.5t-90.5 -36.5
q-36 0 -77 13z" />
    <glyph glyph-name="uni01CD" unicode="&#x1cd;" horiz-adv-x="684" 
d="M273 686h140l266 -686h-118l-63 167h-316l-62 -167h-114zM462 262l-75 201l-45 128h-5l-9 -26q-17 -52 -35 -100l-76 -203h245zM184 853h97l57 -46l56 46h97l-105 -105h-96z" />
    <glyph glyph-name="uni01CE" unicode="&#x1ce;" 
d="M86.5 20q-52.5 32 -52.5 116q0 101 88 140t252 39v52q0 43 -22.5 65.5t-83.5 22.5q-59 0 -83.5 -21t-24.5 -51v-13h-100q-1 6 -1 22q0 69 58 107.5t155 38.5q102 0 153.5 -42t51.5 -119v-269q0 -18 10 -26.5t25 -8.5h36v-69q-26 -13 -71 -13q-36 0 -60.5 19.5t-32.5 53.5
h-7q-28 -36 -71.5 -56t-101.5 -20q-65 0 -117.5 32zM333.5 107.5q40.5 35.5 40.5 97.5v32q-114 0 -174 -19.5t-60 -73.5q0 -37 23.5 -54.5t70.5 -17.5q59 0 99.5 35.5zM116 723h97l57 -76l56 76h97l-105 -135h-96z" />
    <glyph glyph-name="uni01CF" unicode="&#x1cf;" horiz-adv-x="278" 
d="M84 686h111v-686h-111v686zM-14 853h97l57 -46l56 46h97l-105 -105h-96z" />
    <glyph glyph-name="uni01D0" unicode="&#x1d0;" horiz-adv-x="239" 
d="M68 526h103v-526h-103v526zM-36 723h97l57 -76l56 76h97l-105 -135h-96z" />
    <glyph glyph-name="uni01D1" unicode="&#x1d1;" horiz-adv-x="778" 
d="M135 77.5q-90 89.5 -90 265.5t90 265.5t254 89.5q165 0 255 -89.5t90 -265.5t-90 -265.5t-255 -89.5q-164 0 -254 89.5zM620 336v12q-1 256 -231 256q-229 0 -230 -256v-12q0 -254 230 -254q231 0 231 254zM235 853h97l57 -46l56 46h97l-105 -105h-96z" />
    <glyph glyph-name="uni01D2" unicode="&#x1d2;" horiz-adv-x="573" 
d="M98.5 55.5q-62.5 67.5 -62.5 207.5t62.5 207.5t187.5 67.5t188 -67.5t63 -207.5t-63 -207.5t-188 -67.5t-187.5 67.5zM396.5 117.5q34.5 44.5 34.5 140.5v10q0 96 -34.5 140.5t-110.5 44.5q-75 0 -109.5 -44.5t-34.5 -140.5v-10q0 -96 34.5 -140.5t109.5 -44.5
q76 0 110.5 44.5zM132 723h97l57 -76l56 76h97l-105 -135h-96z" />
    <glyph glyph-name="uni01D3" unicode="&#x1d3;" horiz-adv-x="722" 
d="M149.5 54q-74.5 66 -74.5 200v432h111v-434q0 -83 45.5 -126.5t128.5 -43.5q84 0 130 43.5t46 126.5v434h111v-432q0 -134 -74.5 -200t-212.5 -66q-136 0 -210.5 66zM207 853h97l57 -46l56 46h97l-105 -105h-96z" />
    <glyph glyph-name="uni01D4" unicode="&#x1d4;" horiz-adv-x="573" 
d="M65 169v357h103v-344q0 -59 26.5 -82.5t77.5 -23.5q35 0 65 17.5t47.5 49.5t17.5 74v309h103v-526h-83l-10 70h-7q-29 -40 -73 -61t-100 -21q-167 0 -167 181zM133 723h97l57 -76l56 76h97l-105 -135h-96z" />
    <glyph glyph-name="uni01D5" unicode="&#x1d5;" horiz-adv-x="722" 
d="M149.5 54q-74.5 66 -74.5 200v432h111v-434q0 -83 45.5 -126.5t128.5 -43.5q84 0 130 43.5t46 126.5v434h111v-432q0 -134 -74.5 -200t-212.5 -66q-136 0 -210.5 66zM215 883h97v-102h-97v102zM409 883h97v-102h-97v102zM208 1034h305v-77h-305v77z" />
    <glyph glyph-name="uni01D6" unicode="&#x1d6;" horiz-adv-x="573" 
d="M65 169v357h103v-344q0 -59 26.5 -82.5t77.5 -23.5q35 0 65 17.5t47.5 49.5t17.5 74v309h103v-526h-83l-10 70h-7q-29 -40 -73 -61t-100 -21q-167 0 -167 181zM141 723h97v-102h-97v102zM335 723h97v-102h-97v102zM134 874h305v-77h-305v77z" />
    <glyph glyph-name="uni01D7" unicode="&#x1d7;" horiz-adv-x="722" 
d="M149.5 54q-74.5 66 -74.5 200v432h111v-434q0 -83 45.5 -126.5t128.5 -43.5q84 0 130 43.5t46 126.5v434h111v-432q0 -134 -74.5 -200t-212.5 -66q-136 0 -210.5 66zM215 883h97v-102h-97v102zM409 883h97v-102h-97v102zM359 1050h114l1 -3l-82 -99h-87z" />
    <glyph glyph-name="uni01D8" unicode="&#x1d8;" horiz-adv-x="573" 
d="M65 169v357h103v-344q0 -59 26.5 -82.5t77.5 -23.5q35 0 65 17.5t47.5 49.5t17.5 74v309h103v-526h-83l-10 70h-7q-29 -40 -73 -61t-100 -21q-167 0 -167 181zM141 723h97v-102h-97v102zM335 723h97v-102h-97v102zM331 920h107l1 -3l-108 -129h-84z" />
    <glyph glyph-name="uni01D9" unicode="&#x1d9;" horiz-adv-x="722" 
d="M149.5 54q-74.5 66 -74.5 200v432h111v-434q0 -83 45.5 -126.5t128.5 -43.5q84 0 130 43.5t46 126.5v434h111v-432q0 -134 -74.5 -200t-212.5 -66q-136 0 -210.5 66zM215 883h97v-102h-97v102zM409 883h97v-102h-97v102zM207 1050h97l57 -46l56 46h97l-105 -105h-96z" />
    <glyph glyph-name="uni01DA" unicode="&#x1da;" horiz-adv-x="573" 
d="M65 169v357h103v-344q0 -59 26.5 -82.5t77.5 -23.5q35 0 65 17.5t47.5 49.5t17.5 74v309h103v-526h-83l-10 70h-7q-29 -40 -73 -61t-100 -21q-167 0 -167 181zM141 723h97v-102h-97v102zM335 723h97v-102h-97v102zM133 920h97l57 -76l56 76h97l-105 -135h-96z" />
    <glyph glyph-name="uni01DB" unicode="&#x1db;" horiz-adv-x="722" 
d="M149.5 54q-74.5 66 -74.5 200v432h111v-434q0 -83 45.5 -126.5t128.5 -43.5q84 0 130 43.5t46 126.5v434h111v-432q0 -134 -74.5 -200t-212.5 -66q-136 0 -210.5 66zM215 883h97v-102h-97v102zM409 883h97v-102h-97v102zM241 1047l1 3h104l64 -102h-87z" />
    <glyph glyph-name="uni01DC" unicode="&#x1dc;" horiz-adv-x="573" 
d="M65 169v357h103v-344q0 -59 26.5 -82.5t77.5 -23.5q35 0 65 17.5t47.5 49.5t17.5 74v309h103v-526h-83l-10 70h-7q-29 -40 -73 -61t-100 -21q-167 0 -167 181zM141 723h97v-102h-97v102zM335 723h97v-102h-97v102zM156 917l1 3h107l84 -132h-84z" />
    <glyph glyph-name="Gcaron" unicode="&#x1e6;" horiz-adv-x="778" 
d="M131 76q-86 88 -86 267q0 178 89 266.5t259 88.5q92 0 163.5 -27.5t112.5 -83t41 -135.5h-113q0 74 -55.5 113t-146.5 39q-119 0 -177 -61.5t-58 -194.5v-11q0 -134 56 -194.5t170 -60.5q105 0 159.5 45.5t54.5 134.5v6h-232v94h342v-362h-82l-9 76q-82 -88 -236 -88
q-166 0 -252 88zM239 853h97l57 -46l56 46h97l-105 -105h-96z" />
    <glyph glyph-name="gcaron" unicode="&#x1e7;" horiz-adv-x="573" 
d="M61.5 -151q-41.5 31 -41.5 94q0 78 84 111q-24 13 -39 33.5t-15 46.5q0 37 27 58.5t62 30.5q-34 24 -53 59t-19 78q0 84 58 131t161 47q55 0 101 -17q63 33 71 91h99q0 -50 -28 -84t-77 -45q54 -48 54 -123q0 -83 -58 -130t-160 -47h-83q-24 0 -37 -11t-13 -28t12.5 -28
t35.5 -11h220q61 0 98 -38t37 -94q0 -41 -20 -76.5t-60 -57t-96 -21.5h-223q-56 0 -97.5 31zM374 284.5q30 26.5 30 75.5t-29.5 75.5t-88.5 26.5q-58 0 -87.5 -26.5t-29.5 -75.5t29.5 -75.5t87.5 -26.5t88 26.5zM383 -104q31 0 51.5 17t20.5 44t-17 43t-44 16h-211
q-27 0 -43.5 -16t-16.5 -43q0 -28 16.5 -44.5t43.5 -16.5h200zM126 723h97l57 -76l56 76h97l-105 -135h-96z" />
    <glyph glyph-name="uni01EA" unicode="&#x1ea;" horiz-adv-x="778" 
d="M651 85q-83 -89 -235 -96q-30 -41 -30 -70q0 -40 50 -40h19v-48q-29 -14 -61 -14q-42 0 -65 20.5t-23 52.5q0 25 13 50.5t38 48.5q-149 8 -230.5 97.5t-81.5 256.5q0 176 90 265.5t254 89.5q165 0 255 -89.5t90 -265.5q0 -169 -83 -258zM389 82q231 0 231 254v12
q-1 256 -231 256q-229 0 -230 -256v-12q0 -254 230 -254z" />
    <glyph glyph-name="uni01EB" unicode="&#x1eb;" horiz-adv-x="573" 
d="M483 65.5q-54 -67.5 -162 -76.5q-31 -41 -31 -70q0 -40 50 -40h19v-48q-29 -14 -61 -14q-42 0 -65 20.5t-23 52.5q0 25 13 50.5t38 48.5q-113 6 -169 73.5t-56 200.5q0 140 62.5 207.5t187.5 67.5t188 -67.5t63 -207.5q0 -130 -54 -197.5zM176.5 117.5
q34.5 -44.5 109.5 -44.5q76 0 110.5 44.5t34.5 140.5v10q0 96 -34.5 140.5t-110.5 44.5q-75 0 -109.5 -44.5t-34.5 -140.5v-10q0 -96 34.5 -140.5z" />
    <glyph glyph-name="uni01F1" unicode="&#x1f1;" horiz-adv-x="1333" 
d="M75 686h264q162 0 250 -85t88 -258t-88 -258t-250 -85h-264v686zM339 95q109 0 166.5 58.5t57.5 183.5v11q0 126 -57.5 184.5t-166.5 58.5h-153v-496h153zM743 55l392 536h-366v95h532v-55l-392 -536h401v-95h-567v55z" />
    <glyph glyph-name="uni01F2" unicode="&#x1f2;" horiz-adv-x="1222" 
d="M75 686h264q162 0 250 -85t88 -258t-88 -258t-250 -85h-264v686zM339 95q109 0 166.5 58.5t57.5 183.5v11q0 126 -57.5 184.5t-166.5 58.5h-153v-496h153zM745 51l288 390h-269v85h419v-50l-288 -391h303v-85h-453v51z" />
    <glyph glyph-name="uni01F3" unicode="&#x1f3;" horiz-adv-x="1073" 
d="M90 55.5q-54 67.5 -54 207.5q0 138 54 206.5t147 68.5q109 0 159 -72h6v257h103v-723h-82l-10 70h-7q-25 -40 -67.5 -61t-94.5 -21q-100 0 -154 67.5zM371 121q31 46 31 136v8q0 186 -129 186q-71 0 -101 -42.5t-30 -142.5v-9q0 -98 30 -140t101 -42q67 0 98 46zM596 51
l288 390h-269v85h419v-50l-288 -391h303v-85h-453v51z" />
    <glyph glyph-name="uni01F4" unicode="&#x1f4;" horiz-adv-x="778" 
d="M131 76q-86 88 -86 267q0 178 89 266.5t259 88.5q92 0 163.5 -27.5t112.5 -83t41 -135.5h-113q0 74 -55.5 113t-146.5 39q-119 0 -177 -61.5t-58 -194.5v-11q0 -134 56 -194.5t170 -60.5q105 0 159.5 45.5t54.5 134.5v6h-232v94h342v-362h-82l-9 76q-82 -88 -236 -88
q-166 0 -252 88zM391 853h114l1 -3l-82 -99h-87z" />
    <glyph glyph-name="uni01F5" unicode="&#x1f5;" horiz-adv-x="573" 
d="M61.5 -151q-41.5 31 -41.5 94q0 78 84 111q-24 13 -39 33.5t-15 46.5q0 37 27 58.5t62 30.5q-34 24 -53 59t-19 78q0 84 58 131t161 47q55 0 101 -17q63 33 71 91h99q0 -50 -28 -84t-77 -45q54 -48 54 -123q0 -83 -58 -130t-160 -47h-83q-24 0 -37 -11t-13 -28t12.5 -28
t35.5 -11h220q61 0 98 -38t37 -94q0 -41 -20 -76.5t-60 -57t-96 -21.5h-223q-56 0 -97.5 31zM374 284.5q30 26.5 30 75.5t-29.5 75.5t-88.5 26.5q-58 0 -87.5 -26.5t-29.5 -75.5t29.5 -75.5t87.5 -26.5t88 26.5zM383 -104q31 0 51.5 17t20.5 44t-17 43t-44 16h-211
q-27 0 -43.5 -16t-16.5 -43q0 -28 16.5 -44.5t43.5 -16.5h200zM324 723h107l1 -3l-108 -129h-84z" />
    <glyph glyph-name="Aringacute" unicode="&#x1fa;" horiz-adv-x="684" 
d="M273 686h140l266 -686h-118l-63 167h-316l-62 -167h-114zM462 262l-75 201l-45 128h-5l-9 -26q-17 -52 -35 -100l-76 -203h245zM268 751q-27 28 -27 69q0 42 26.5 70t71.5 28t71.5 -28t26.5 -70q0 -41 -27 -69t-71 -28t-71 28zM374 786q14 14 14 34q0 21 -13.5 35
t-35.5 14t-35.5 -14t-13.5 -35q0 -20 13.5 -34t35.5 -14q21 0 35 14zM383 1080h107l1 -3l-108 -129h-84z" />
    <glyph glyph-name="aringacute" unicode="&#x1fb;" 
d="M86.5 20q-52.5 32 -52.5 116q0 101 88 140t252 39v52q0 43 -22.5 65.5t-83.5 22.5q-59 0 -83.5 -21t-24.5 -51v-13h-100q-1 6 -1 22q0 69 58 107.5t155 38.5q102 0 153.5 -42t51.5 -119v-269q0 -18 10 -26.5t25 -8.5h36v-69q-26 -13 -71 -13q-36 0 -60.5 19.5t-32.5 53.5
h-7q-28 -36 -71.5 -56t-101.5 -20q-65 0 -117.5 32zM333.5 107.5q40.5 35.5 40.5 97.5v32q-114 0 -174 -19.5t-60 -73.5q0 -37 23.5 -54.5t70.5 -17.5q59 0 99.5 35.5zM200 591q-27 28 -27 69q0 42 26.5 70t71.5 28t71.5 -28t26.5 -70q0 -41 -27 -69t-71 -28t-71 28z
M306 626q14 14 14 34q0 21 -13.5 35t-35.5 14t-35.5 -14t-13.5 -35q0 -20 13.5 -34t35.5 -14q21 0 35 14zM315 920h107l1 -3l-108 -129h-84z" />
    <glyph glyph-name="AEacute" unicode="&#x1fc;" horiz-adv-x="1000" 
d="M339 686h601v-95h-428l54 -193h330v-95h-304l58 -208h296v-95h-383l-46 167h-327l-80 -167h-112zM491 262l-89 329h-5l-161 -329h255zM568 853h114l1 -3l-82 -99h-87z" />
    <glyph glyph-name="aeacute" unicode="&#x1fd;" horiz-adv-x="889" 
d="M92.5 20q-58.5 32 -58.5 116q0 101 90 140t259 39v52q0 42 -24.5 65t-87.5 23q-60 0 -85.5 -21t-25.5 -51v-13h-100q-1 6 -1 22q0 69 59 107.5t158 38.5q121 0 174 -67q61 67 177 67q112 0 168 -62.5t56 -198.5v-40h-365q4 -85 37.5 -125.5t103.5 -40.5q55 0 89 27t34 83
h101q0 -94 -62.5 -143.5t-161.5 -49.5q-137 0 -196 83q-35 -40 -88 -61.5t-119 -21.5q-73 0 -131.5 32zM744 315q0 140 -117 140q-65 0 -98.5 -33.5t-40.5 -106.5h256zM342 105.5q41 33.5 41 99.5v32q-118 0 -180.5 -19.5t-62.5 -73.5q0 -37 24.5 -54.5t72.5 -17.5
q64 0 105 33.5zM490 723h107l1 -3l-108 -129h-84z" />
    <glyph glyph-name="Oslashacute" unicode="&#x1fe;" horiz-adv-x="778" 
d="M734 343q0 -176 -90 -265.5t-255 -89.5q-115 0 -192 43l-61 -80h-88l92 121q-95 92 -95 271q0 176 90 265.5t254 89.5q116 0 194 -44l52 69h87l-83 -110q95 -90 95 -270zM206 159l315 414q-53 31 -132 31q-229 0 -230 -256v-12q0 -115 47 -177zM620 348q0 114 -47 178
l-315 -414q54 -30 131 -30q231 0 231 254v12zM387 853h114l1 -3l-82 -99h-87z" />
    <glyph glyph-name="oslashacute" unicode="&#x1ff;" horiz-adv-x="573" 
d="M474 471q63 -67 63 -208q0 -140 -63 -207.5t-188 -67.5q-82 0 -135 28l-46 -65h-78l73 103q-64 69 -64 209t62.5 207.5t187.5 67.5q84 0 138 -29l47 66h77zM162 141l208 292q-34 20 -84 20q-75 0 -109.5 -44.5t-34.5 -140.5v-10q0 -76 20 -117zM412 383l-207 -291
q31 -19 81 -19q76 0 110.5 44.5t34.5 140.5v10q0 73 -19 115zM326 723h107l1 -3l-108 -129h-84z" />
    <glyph glyph-name="uni0200" unicode="&#x200;" horiz-adv-x="684" 
d="M273 686h140l266 -686h-118l-63 167h-316l-62 -167h-114zM462 262l-75 201l-45 128h-5l-9 -26q-17 -52 -35 -100l-76 -203h245zM129 850l1 3h108l67 -102h-90zM279 850l1 3h108l67 -102h-90z" />
    <glyph glyph-name="uni0201" unicode="&#x201;" 
d="M86.5 20q-52.5 32 -52.5 116q0 101 88 140t252 39v52q0 43 -22.5 65.5t-83.5 22.5q-59 0 -83.5 -21t-24.5 -51v-13h-100q-1 6 -1 22q0 69 58 107.5t155 38.5q102 0 153.5 -42t51.5 -119v-269q0 -18 10 -26.5t25 -8.5h36v-69q-26 -13 -71 -13q-36 0 -60.5 19.5t-32.5 53.5
h-7q-28 -36 -71.5 -56t-101.5 -20q-65 0 -117.5 32zM333.5 107.5q40.5 35.5 40.5 97.5v32q-114 0 -174 -19.5t-60 -73.5q0 -37 23.5 -54.5t70.5 -17.5q59 0 99.5 35.5zM61 720l1 3h108l67 -132h-85zM211 720l1 3h108l67 -132h-85z" />
    <glyph glyph-name="uni0202" unicode="&#x202;" horiz-adv-x="684" 
d="M273 686h140l266 -686h-118l-63 167h-316l-62 -167h-114zM462 262l-75 201l-45 128h-5l-9 -26q-17 -52 -35 -100l-76 -203h245zM224.5 846.5q36.5 36.5 114.5 36.5t114 -36.5t36 -86.5h-70q-4 20 -22 35.5t-58 15.5t-59 -15.5t-22 -35.5h-70q0 50 36.5 86.5z" />
    <glyph glyph-name="uni0203" unicode="&#x203;" 
d="M86.5 20q-52.5 32 -52.5 116q0 101 88 140t252 39v52q0 43 -22.5 65.5t-83.5 22.5q-59 0 -83.5 -21t-24.5 -51v-13h-100q-1 6 -1 22q0 69 58 107.5t155 38.5q102 0 153.5 -42t51.5 -119v-269q0 -18 10 -26.5t25 -8.5h36v-69q-26 -13 -71 -13q-36 0 -60.5 19.5t-32.5 53.5
h-7q-28 -36 -71.5 -56t-101.5 -20q-65 0 -117.5 32zM333.5 107.5q40.5 35.5 40.5 97.5v32q-114 0 -174 -19.5t-60 -73.5q0 -37 23.5 -54.5t70.5 -17.5q59 0 99.5 35.5zM156.5 686.5q36.5 36.5 114.5 36.5t114 -36.5t36 -86.5h-70q-4 20 -22 35.5t-58 15.5t-59 -15.5
t-22 -35.5h-70q0 50 36.5 86.5z" />
    <glyph glyph-name="uni0204" unicode="&#x204;" horiz-adv-x="667" 
d="M75 686h532v-95h-421v-193h377v-95h-377v-208h427v-95h-538v686zM138 850l1 3h108l67 -102h-90zM288 850l1 3h108l67 -102h-90z" />
    <glyph glyph-name="uni0205" unicode="&#x205;" 
d="M100 55q-62 67 -62 208t62 208t189 67q115 0 172 -62.5t57 -198.5v-40h-374q4 -85 38.5 -125.5t107.5 -40.5q57 0 92 27t35 83h101q0 -94 -63.5 -143.5t-165.5 -49.5q-127 0 -189 67zM411 315q0 140 -122 140q-68 0 -102 -33.5t-41 -106.5h265zM73 720l1 3h108l67 -132
h-85zM223 720l1 3h108l67 -132h-85z" />
    <glyph glyph-name="uni0206" unicode="&#x206;" horiz-adv-x="667" 
d="M75 686h532v-95h-421v-193h377v-95h-377v-208h427v-95h-538v686zM233.5 846.5q36.5 36.5 114.5 36.5t114 -36.5t36 -86.5h-70q-4 20 -22 35.5t-58 15.5t-59 -15.5t-22 -35.5h-70q0 50 36.5 86.5z" />
    <glyph glyph-name="uni0207" unicode="&#x207;" 
d="M100 55q-62 67 -62 208t62 208t189 67q115 0 172 -62.5t57 -198.5v-40h-374q4 -85 38.5 -125.5t107.5 -40.5q57 0 92 27t35 83h101q0 -94 -63.5 -143.5t-165.5 -49.5q-127 0 -189 67zM411 315q0 140 -122 140q-68 0 -102 -33.5t-41 -106.5h265zM168.5 686.5
q36.5 36.5 114.5 36.5t114 -36.5t36 -86.5h-70q-4 20 -22 35.5t-58 15.5t-59 -15.5t-22 -35.5h-70q0 50 36.5 86.5z" />
    <glyph glyph-name="uni0208" unicode="&#x208;" horiz-adv-x="278" 
d="M84 686h111v-686h-111v686zM-69 850l1 3h108l67 -102h-90zM81 850l1 3h108l67 -102h-90z" />
    <glyph glyph-name="uni0209" unicode="&#x209;" horiz-adv-x="239" 
d="M68 526h103v-526h-103v526zM-91 720l1 3h108l67 -132h-85zM59 720l1 3h108l67 -132h-85z" />
    <glyph glyph-name="uni020A" unicode="&#x20a;" horiz-adv-x="278" 
d="M84 686h111v-686h-111v686zM26.5 846.5q36.5 36.5 114.5 36.5t114 -36.5t36 -86.5h-70q-4 20 -22 35.5t-58 15.5t-59 -15.5t-22 -35.5h-70q0 50 36.5 86.5z" />
    <glyph glyph-name="uni020B" unicode="&#x20b;" horiz-adv-x="239" 
d="M68 526h103v-526h-103v526zM4.5 686.5q36.5 36.5 114.5 36.5t114 -36.5t36 -86.5h-70q-4 20 -22 35.5t-58 15.5t-59 -15.5t-22 -35.5h-70q0 50 36.5 86.5z" />
    <glyph glyph-name="uni020C" unicode="&#x20c;" horiz-adv-x="778" 
d="M135 77.5q-90 89.5 -90 265.5t90 265.5t254 89.5q165 0 255 -89.5t90 -265.5t-90 -265.5t-255 -89.5q-164 0 -254 89.5zM620 336v12q-1 256 -231 256q-229 0 -230 -256v-12q0 -254 230 -254q231 0 231 254zM180 850l1 3h108l67 -102h-90zM330 850l1 3h108l67 -102h-90z
" />
    <glyph glyph-name="uni020D" unicode="&#x20d;" horiz-adv-x="573" 
d="M98.5 55.5q-62.5 67.5 -62.5 207.5t62.5 207.5t187.5 67.5t188 -67.5t63 -207.5t-63 -207.5t-188 -67.5t-187.5 67.5zM396.5 117.5q34.5 44.5 34.5 140.5v10q0 96 -34.5 140.5t-110.5 44.5q-75 0 -109.5 -44.5t-34.5 -140.5v-10q0 -96 34.5 -140.5t109.5 -44.5
q76 0 110.5 44.5zM77 720l1 3h108l67 -132h-85zM227 720l1 3h108l67 -132h-85z" />
    <glyph glyph-name="uni020E" unicode="&#x20e;" horiz-adv-x="778" 
d="M135 77.5q-90 89.5 -90 265.5t90 265.5t254 89.5q165 0 255 -89.5t90 -265.5t-90 -265.5t-255 -89.5q-164 0 -254 89.5zM620 336v12q-1 256 -231 256q-229 0 -230 -256v-12q0 -254 230 -254q231 0 231 254zM275.5 846.5q36.5 36.5 114.5 36.5t114 -36.5t36 -86.5h-70
q-4 20 -22 35.5t-58 15.5t-59 -15.5t-22 -35.5h-70q0 50 36.5 86.5z" />
    <glyph glyph-name="uni020F" unicode="&#x20f;" horiz-adv-x="573" 
d="M98.5 55.5q-62.5 67.5 -62.5 207.5t62.5 207.5t187.5 67.5t188 -67.5t63 -207.5t-63 -207.5t-188 -67.5t-187.5 67.5zM396.5 117.5q34.5 44.5 34.5 140.5v10q0 96 -34.5 140.5t-110.5 44.5q-75 0 -109.5 -44.5t-34.5 -140.5v-10q0 -96 34.5 -140.5t109.5 -44.5
q76 0 110.5 44.5zM172.5 686.5q36.5 36.5 114.5 36.5t114 -36.5t36 -86.5h-70q-4 20 -22 35.5t-58 15.5t-59 -15.5t-22 -35.5h-70q0 50 36.5 86.5z" />
    <glyph glyph-name="uni0210" unicode="&#x210;" horiz-adv-x="722" 
d="M75 686h359q107 0 163 -54t56 -147q0 -71 -32 -121t-92 -73l152 -291h-121l-141 275h-233v-275h-111v686zM427 369q53 0 83.5 30.5t30.5 84.5q0 51 -29 79t-85 28h-241v-222h241zM128 850l1 3h108l67 -102h-90zM278 850l1 3h108l67 -102h-90z" />
    <glyph glyph-name="uni0211" unicode="&#x211;" horiz-adv-x="350" 
d="M68 526h83l10 -81h6q36 93 121 93q28 0 49 -8v-98h-37q-59 0 -94 -34t-35 -104v-294h-103v526zM-9 720l1 3h108l67 -132h-85zM141 720l1 3h108l67 -132h-85z" />
    <glyph glyph-name="uni0212" unicode="&#x212;" horiz-adv-x="722" 
d="M75 686h359q107 0 163 -54t56 -147q0 -71 -32 -121t-92 -73l152 -291h-121l-141 275h-233v-275h-111v686zM427 369q53 0 83.5 30.5t30.5 84.5q0 51 -29 79t-85 28h-241v-222h241zM223.5 846.5q36.5 36.5 114.5 36.5t114 -36.5t36 -86.5h-70q-4 20 -22 35.5t-58 15.5
t-59 -15.5t-22 -35.5h-70q0 50 36.5 86.5z" />
    <glyph glyph-name="uni0213" unicode="&#x213;" horiz-adv-x="350" 
d="M68 526h83l10 -81h6q36 93 121 93q28 0 49 -8v-98h-37q-59 0 -94 -34t-35 -104v-294h-103v526zM86.5 686.5q36.5 36.5 114.5 36.5t114 -36.5t36 -86.5h-70q-4 20 -22 35.5t-58 15.5t-59 -15.5t-22 -35.5h-70q0 50 36.5 86.5z" />
    <glyph glyph-name="uni0214" unicode="&#x214;" horiz-adv-x="722" 
d="M149.5 54q-74.5 66 -74.5 200v432h111v-434q0 -83 45.5 -126.5t128.5 -43.5q84 0 130 43.5t46 126.5v434h111v-432q0 -134 -74.5 -200t-212.5 -66q-136 0 -210.5 66zM152 850l1 3h108l67 -102h-90zM302 850l1 3h108l67 -102h-90z" />
    <glyph glyph-name="uni0215" unicode="&#x215;" horiz-adv-x="573" 
d="M65 169v357h103v-344q0 -59 26.5 -82.5t77.5 -23.5q35 0 65 17.5t47.5 49.5t17.5 74v309h103v-526h-83l-10 70h-7q-29 -40 -73 -61t-100 -21q-167 0 -167 181zM78 720l1 3h108l67 -132h-85zM228 720l1 3h108l67 -132h-85z" />
    <glyph glyph-name="uni0216" unicode="&#x216;" horiz-adv-x="722" 
d="M149.5 54q-74.5 66 -74.5 200v432h111v-434q0 -83 45.5 -126.5t128.5 -43.5q84 0 130 43.5t46 126.5v434h111v-432q0 -134 -74.5 -200t-212.5 -66q-136 0 -210.5 66zM247.5 846.5q36.5 36.5 114.5 36.5t114 -36.5t36 -86.5h-70q-4 20 -22 35.5t-58 15.5t-59 -15.5
t-22 -35.5h-70q0 50 36.5 86.5z" />
    <glyph glyph-name="uni0217" unicode="&#x217;" horiz-adv-x="573" 
d="M65 169v357h103v-344q0 -59 26.5 -82.5t77.5 -23.5q35 0 65 17.5t47.5 49.5t17.5 74v309h103v-526h-83l-10 70h-7q-29 -40 -73 -61t-100 -21q-167 0 -167 181zM173.5 686.5q36.5 36.5 114.5 36.5t114 -36.5t36 -86.5h-70q-4 20 -22 35.5t-58 15.5t-59 -15.5t-22 -35.5
h-70q0 50 36.5 86.5z" />
    <glyph glyph-name="uni0218" unicode="&#x218;" horiz-adv-x="667" 
d="M127 39.5q-80 51.5 -80 156.5l1 21h110q-2 -14 -2 -20q0 -56 47 -85.5t127 -29.5q88 0 133 26t45 75q0 35 -24.5 57.5t-62 36t-101.5 30.5q-81 21 -132.5 41.5t-87.5 60t-36 103.5q0 91 75 138.5t195 47.5q118 0 191.5 -49t73.5 -147v-12h-108v13q0 48 -43 74.5
t-112 26.5q-74 0 -117.5 -22t-43.5 -64q0 -31 24 -51.5t60 -33.5t98 -29q84 -22 135.5 -42t88.5 -59.5t37 -103.5q0 -110 -77 -160.5t-210 -50.5q-124 0 -204 51.5zM331 -183h-39v104h98v-96l-47 -92h-51z" />
    <glyph glyph-name="uni0219" unicode="&#x219;" horiz-adv-x="517" 
d="M92.5 33q-56.5 45 -56.5 113q0 11 0.5 14.5t0.5 4.5h101v-9q0 -43 35 -64.5t89 -21.5q48 0 80.5 18t32.5 51q0 26 -18 42.5t-44 26t-75 22.5q-60 15 -98 30t-64.5 45t-26.5 80q0 72 59 112.5t157 40.5q61 0 106.5 -18.5t70 -51.5t24.5 -74l-1 -20h-101v7q0 33 -26.5 53.5
t-81.5 20.5q-53 0 -77.5 -18.5t-24.5 -43.5q0 -31 30 -46t95 -30q63 -15 103 -30.5t69 -48t29 -86.5q0 -84 -60.5 -124t-162.5 -40q-108 0 -164.5 45zM251 -183h-39v104h98v-96l-47 -92h-51z" />
    <glyph glyph-name="uni021A" unicode="&#x21a;" horiz-adv-x="611" 
d="M250 590h-228v96h567v-96h-228v-590h-111v590zM296 -183h-39v104h98v-96l-47 -92h-51z" />
    <glyph glyph-name="uni021B" unicode="&#x21b;" horiz-adv-x="295" 
d="M107 23.5q-27 34.5 -27 85.5v332h-64v85h65l20 147h82v-147h89v-85h-89v-322q0 -46 43 -46h46v-70q-13 -6 -35.5 -10t-42.5 -4q-60 0 -87 34.5zM170 -183h-39v104h98v-96l-47 -92h-51z" />
    <glyph glyph-name="uni022A" unicode="&#x22a;" horiz-adv-x="778" 
d="M135 77.5q-90 89.5 -90 265.5t90 265.5t254 89.5q165 0 255 -89.5t90 -265.5t-90 -265.5t-255 -89.5q-164 0 -254 89.5zM620 336v12q-1 256 -231 256q-229 0 -230 -256v-12q0 -254 230 -254q231 0 231 254zM243 883h97v-102h-97v102zM437 883h97v-102h-97v102zM236 1034
h305v-77h-305v77z" />
    <glyph glyph-name="uni022B" unicode="&#x22b;" horiz-adv-x="573" 
d="M98.5 55.5q-62.5 67.5 -62.5 207.5t62.5 207.5t187.5 67.5t188 -67.5t63 -207.5t-63 -207.5t-188 -67.5t-187.5 67.5zM396.5 117.5q34.5 44.5 34.5 140.5v10q0 96 -34.5 140.5t-110.5 44.5q-75 0 -109.5 -44.5t-34.5 -140.5v-10q0 -96 34.5 -140.5t109.5 -44.5
q76 0 110.5 44.5zM140 723h97v-102h-97v102zM334 723h97v-102h-97v102zM133 874h305v-77h-305v77z" />
    <glyph glyph-name="uni022C" unicode="&#x22c;" horiz-adv-x="778" 
d="M135 77.5q-90 89.5 -90 265.5t90 265.5t254 89.5q165 0 255 -89.5t90 -265.5t-90 -265.5t-255 -89.5q-164 0 -254 89.5zM620 336v12q-1 256 -231 256q-229 0 -230 -256v-12q0 -254 230 -254q231 0 231 254zM259.5 821.5q24.5 31.5 69.5 31.5q17 0 32 -4.5t39 -14.5
q34 -14 48 -14q26 0 30 33h67q0 -47 -24.5 -78.5t-70.5 -31.5q-17 0 -33 5t-37 14q-3 1 -19.5 7.5t-29.5 6.5q-26 0 -30 -33h-66q0 47 24.5 78.5zM237 997h305v-77h-305v77z" />
    <glyph glyph-name="uni022D" unicode="&#x22d;" horiz-adv-x="573" 
d="M98.5 55.5q-62.5 67.5 -62.5 207.5t62.5 207.5t187.5 67.5t188 -67.5t63 -207.5t-63 -207.5t-188 -67.5t-187.5 67.5zM396.5 117.5q34.5 44.5 34.5 140.5v10q0 96 -34.5 140.5t-110.5 44.5q-75 0 -109.5 -44.5t-34.5 -140.5v-10q0 -96 34.5 -140.5t109.5 -44.5
q76 0 110.5 44.5zM144 692q22 31 67 31q18 0 33.5 -4t42.5 -13q22 -8 37 -12t31 -4q26 0 30 33h67q0 -48 -22.5 -79t-67.5 -31q-18 0 -32.5 4t-42.5 13q-24 8 -38.5 12t-30.5 4q-26 0 -30 -33h-66q0 48 22 79zM134 874h305v-77h-305v77z" />
    <glyph glyph-name="uni0230" unicode="&#x230;" horiz-adv-x="778" 
d="M135 77.5q-90 89.5 -90 265.5t90 265.5t254 89.5q165 0 255 -89.5t90 -265.5t-90 -265.5t-255 -89.5q-164 0 -254 89.5zM620 336v12q-1 256 -231 256q-229 0 -230 -256v-12q0 -254 230 -254q231 0 231 254zM338 883h102v-105h-102v105zM236 1034h305v-77h-305v77z" />
    <glyph glyph-name="uni0231" unicode="&#x231;" horiz-adv-x="573" 
d="M98.5 55.5q-62.5 67.5 -62.5 207.5t62.5 207.5t187.5 67.5t188 -67.5t63 -207.5t-63 -207.5t-188 -67.5t-187.5 67.5zM396.5 117.5q34.5 44.5 34.5 140.5v10q0 96 -34.5 140.5t-110.5 44.5q-75 0 -109.5 -44.5t-34.5 -140.5v-10q0 -96 34.5 -140.5t109.5 -44.5
q76 0 110.5 44.5zM235 723h102v-105h-102v105zM133 874h305v-77h-305v77z" />
    <glyph glyph-name="uni0232" unicode="&#x232;" horiz-adv-x="667" 
d="M279 282l-268 404h130l194 -304h5l193 304h124l-267 -404v-282h-111v282zM185 837h305v-77h-305v77z" />
    <glyph glyph-name="uni0233" unicode="&#x233;" horiz-adv-x="517" 
d="M50 -172v68h44q91 0 122 104l-204 526h108l98 -258q20 -51 51 -157h5q28 100 46 157l82 258h103l-174 -499q-36 -100 -81 -154.5t-123 -54.5q-49 0 -77 10zM110 677h305v-77h-305v77z" />
    <glyph glyph-name="uni0237" unicode="&#x237;" horiz-adv-x="239" 
d="M-24 -169v69h46q46 0 46 47v579h103v-581q0 -54 -27.5 -90.5t-90.5 -36.5q-36 0 -77 13z" />
    <glyph glyph-name="uni0259" unicode="&#x259;" 
d="M456 471q62 -67 62 -208t-62 -208t-189 -67q-115 0 -172 62.5t-57 198.5v40h374q-4 85 -38.5 125.5t-107.5 40.5q-57 0 -92 -27t-35 -83h-101q0 94 63.5 143.5t165.5 49.5q127 0 189 -67zM145 211q0 -140 122 -140q68 0 102 33.5t41 106.5h-265z" />
    <glyph glyph-name="uni0272" unicode="&#x272;" horiz-adv-x="573" 
d="M-24 -169v69h46q46 0 46 47v579h83l10 -70h7q28 40 72.5 61t100.5 21q167 0 167 -181v-357h-103v344q0 59 -26.5 82.5t-77.5 23.5q-35 0 -65 -17.5t-47.5 -49.5t-17.5 -74v-364q0 -54 -27.5 -90.5t-90.5 -36.5q-36 0 -77 13z" />
    <glyph glyph-name="uni02B9" unicode="&#x2b9;" horiz-adv-x="140" 
d="M30 716h109l1 -3l-54 -171h-86z" />
    <glyph glyph-name="uni02BA" unicode="&#x2ba;" horiz-adv-x="300" 
d="M30 716h109l1 -3l-54 -171h-86zM190 716h109l1 -3l-54 -171h-86z" />
    <glyph glyph-name="uni02BC" unicode="&#x2bc;" horiz-adv-x="101" 
d="M40 621h-40v102h101v-93l-48 -118h-53z" />
    <glyph glyph-name="circumflex" unicode="&#x2c6;" horiz-adv-x="333" 
d="M119 723h96l105 -135h-97l-56 76l-57 -76h-97z" />
    <glyph glyph-name="caron" unicode="&#x2c7;" horiz-adv-x="333" 
d="M13 723h97l57 -76l56 76h97l-105 -135h-96z" />
    <glyph glyph-name="uni02C9" unicode="&#x2c9;" horiz-adv-x="305" 
d="M0 677h305v-77h-305v77z" />
    <glyph glyph-name="breve" unicode="&#x2d8;" horiz-adv-x="333" 
d="M52 636.5q-36 36.5 -36 86.5h70q4 -20 22 -35.5t58 -15.5t59 15.5t22 35.5h70q0 -50 -36.5 -86.5t-114.5 -36.5t-114 36.5z" />
    <glyph glyph-name="dotaccent" unicode="&#x2d9;" horiz-adv-x="333" 
d="M116 723h102v-105h-102v105z" />
    <glyph glyph-name="ring" unicode="&#x2da;" horiz-adv-x="333" 
d="M96 591q-27 28 -27 69q0 42 26.5 70t71.5 28t71.5 -28t26.5 -70q0 -41 -27 -69t-71 -28t-71 28zM202.5 626q13.5 14 13.5 34q0 21 -13.5 35t-35.5 14t-35.5 -14t-13.5 -35q0 -20 14 -34t35 -14q22 0 35.5 14z" />
    <glyph glyph-name="ogonek" unicode="&#x2db;" horiz-adv-x="333" 
d="M109.5 -161q-30.5 21 -30.5 68q0 34 14 57.5t40 47.5h68v-4q-14 -14 -25 -32.5t-11 -37.5q0 -23 12.5 -38.5t38.5 -15.5h30v-52q-34 -14 -64 -14q-42 0 -72.5 21z" />
    <glyph glyph-name="tilde" unicode="&#x2dc;" horiz-adv-x="333" 
d="M24 692q22 31 67 31q18 0 33.5 -4t42.5 -13q22 -8 37 -12t31 -4q26 0 30 33h67q0 -48 -22.5 -79t-67.5 -31q-18 0 -32.5 4t-42.5 13q-24 8 -38.5 12t-30.5 4q-26 0 -30 -33h-66q0 48 22 79z" />
    <glyph glyph-name="hungarumlaut" unicode="&#x2dd;" horiz-adv-x="333" 
d="M88 723h108l1 -3l-91 -129h-85zM238 723h108l1 -3l-91 -129h-85z" />
    <glyph glyph-name="gravecomb" unicode="&#x300;" horiz-adv-x="0" 
d="M-192 720l1 3h107l84 -132h-84z" />
    <glyph glyph-name="acutecomb" unicode="&#x301;" horiz-adv-x="0" 
d="M-108 723h107l1 -3l-108 -129h-84z" />
    <glyph glyph-name="uni0302" unicode="&#x302;" horiz-adv-x="0" 
d="M-201 723h96l105 -135h-97l-56 76l-57 -76h-97z" />
    <glyph glyph-name="tildecomb" unicode="&#x303;" horiz-adv-x="0" 
d="M-308 692q22 31 67 31q18 0 33.5 -4t42.5 -13q22 -8 37 -12t31 -4q26 0 30 33h67q0 -48 -22.5 -79t-67.5 -31q-18 0 -32.5 4t-42.5 13q-24 8 -38.5 12t-30.5 4q-26 0 -30 -33h-66q0 48 22 79z" />
    <glyph glyph-name="uni0304" unicode="&#x304;" horiz-adv-x="0" 
d="M-305 677h305v-77h-305v77z" />
    <glyph glyph-name="uni0306" unicode="&#x306;" horiz-adv-x="0" 
d="M-265 616.5q-36 36.5 -36 86.5h70q4 -20 22 -35.5t58 -15.5t59 15.5t22 35.5h70q0 -50 -36.5 -86.5t-114.5 -36.5t-114 36.5z" />
    <glyph glyph-name="uni0307" unicode="&#x307;" horiz-adv-x="0" 
d="M-102 723h102v-105h-102v105z" />
    <glyph glyph-name="uni0308" unicode="&#x308;" horiz-adv-x="0" 
d="M-291 723h97v-102h-97v102zM-97 723h97v-102h-97v102z" />
    <glyph glyph-name="hookabovecomb" unicode="&#x309;" horiz-adv-x="0" 
d="M-126 650h13q16 0 23 4.5t7 13.5q0 10 -8 14t-24 4h-60v41q35 8 76 8q39 0 69 -13.5t30 -46.5q0 -26 -19 -40.5t-48 -16.5v-27h-59v59z" />
    <glyph glyph-name="uni030A" unicode="&#x30a;" horiz-adv-x="0" 
d="M-169 591q-27 28 -27 69q0 42 26.5 70t71.5 28t71.5 -28t26.5 -70q0 -41 -27 -69t-71 -28t-71 28zM-63 626q14 14 14 34q0 21 -13.5 35t-35.5 14t-35.5 -14t-13.5 -35q0 -20 13.5 -34t35.5 -14q21 0 35 14z" />
    <glyph glyph-name="uni030B" unicode="&#x30b;" horiz-adv-x="0" 
d="M-259 723h108l1 -3l-91 -129h-85zM-109 723h108l1 -3l-91 -129h-85z" />
    <glyph glyph-name="uni030C" unicode="&#x30c;" horiz-adv-x="0" 
d="M-307 723h97l57 -76l56 76h97l-105 -135h-96z" />
    <glyph glyph-name="uni030F" unicode="&#x30f;" horiz-adv-x="0" 
d="M-326 720l1 3h108l67 -132h-85zM-176 720l1 3h108l67 -132h-85z" />
    <glyph glyph-name="uni0311" unicode="&#x311;" horiz-adv-x="0" 
d="M-264.5 686.5q36.5 36.5 114.5 36.5t114 -36.5t36 -86.5h-70q-4 20 -22 35.5t-58 15.5t-59 -15.5t-22 -35.5h-70q0 50 36.5 86.5z" />
    <glyph glyph-name="uni0312" unicode="&#x312;" horiz-adv-x="0" 
d="M-98 686l46 102h52l-39 -94h39v-102h-98v94z" />
    <glyph glyph-name="uni0313" unicode="&#x313;" horiz-adv-x="0" 
d="M-59 716h-39v102h98v-94l-47 -132h-51z" />
    <glyph glyph-name="uni031B" unicode="&#x31b;" horiz-adv-x="0" 
d="M-215 526h73q49 0 49 53v107h93v-107q0 -53 -37 -84t-103 -31h-75v62z" />
    <glyph glyph-name="dotbelowcomb" unicode="&#x323;" horiz-adv-x="0" 
d="M-102 -78h102v-105h-102v105z" />
    <glyph glyph-name="uni0324" unicode="&#x324;" horiz-adv-x="0" 
d="M-291 -79h97v-104h-97v104zM-97 -79h97v-104h-97v104z" />
    <glyph glyph-name="uni0326" unicode="&#x326;" horiz-adv-x="0" 
d="M-59 -183h-39v104h98v-96l-47 -92h-51z" />
    <glyph glyph-name="uni0327" unicode="&#x327;" horiz-adv-x="0" 
d="M-221 -175v49h96q21 0 31.5 5t10.5 19q0 13 -9 18.5t-31 5.5h-47l15 88h69l-8 -46q42 -2 68 -18t26 -48q0 -45 -37.5 -63t-85.5 -18q-53 0 -98 8z" />
    <glyph glyph-name="uni0328" unicode="&#x328;" horiz-adv-x="0" 
d="M-126 -162.5q-23 20.5 -23 52.5q0 29 18 59.5t52 54.5h48l1 -4q-18 -22 -28.5 -43.5t-10.5 -37.5q0 -40 50 -40h19v-48q-29 -14 -61 -14q-42 0 -65 20.5z" />
    <glyph glyph-name="uni032E" unicode="&#x32e;" horiz-adv-x="0" 
d="M-265 -159.5q-36 36.5 -36 86.5h70q4 -20 22 -35.5t58 -15.5t59 15.5t22 35.5h70q0 -50 -36.5 -86.5t-114.5 -36.5t-114 36.5z" />
    <glyph glyph-name="uni0331" unicode="&#x331;" horiz-adv-x="0" 
d="M-305 -78h305v-77h-305v77z" />
    <glyph glyph-name="uni0335" unicode="&#x335;" horiz-adv-x="0" 
d="M-310 416h310v-92h-310v92z" />
    <glyph glyph-name="uni0336" unicode="&#x336;" horiz-adv-x="0" 
d="M-710 416h710v-92h-710v92z" />
    <glyph glyph-name="uni0337" unicode="&#x337;" horiz-adv-x="0" 
d="M-238 304l238 186v-85l-238 -186v85z" />
    <glyph glyph-name="uni0338" unicode="&#x338;" horiz-adv-x="0" 
d="M-77 575h77l-443 -624h-78z" />
    <glyph glyph-name="uni0394" unicode="&#x394;" horiz-adv-x="683" 
d="M272 686h139l267 -686h-673zM523 95l-18 48l-17 44l-104 279q-22 59 -43 121h-5l-43 -121l-103 -280q-25 -63 -35 -91h368z" />
    <glyph glyph-name="uni03A9" unicode="&#x3a9;" horiz-adv-x="765" 
d="M36 96h43q18 0 44 -3l50 -4q-124 91 -124 260q0 170 87.5 259.5t245.5 89.5t246 -89.5t88 -259.5q0 -85 -33 -150.5t-93 -109.5q16 0 46 4q9 1 21 2t28 1h44v-96h-316v83q96 18 142.5 75t46.5 177v6q0 138 -56 200.5t-164 62.5q-107 0 -163.5 -61.5t-56.5 -194.5v-13
q0 -120 46.5 -176.5t141.5 -75.5v-83h-314v96z" />
    <glyph glyph-name="uni03BC" unicode="&#x3bc;" horiz-adv-x="576" 
d="M69 526h103v-344q0 -59 26.5 -82.5t77.5 -23.5q35 0 65 17.5t47.5 49.5t17.5 74v309h103v-526h-83l-10 70h-7q-25 -40 -63.5 -61t-85.5 -21q-55 0 -90 26q2 -30 2 -73v-114h-103v699z" />
    <glyph glyph-name="pi" unicode="&#x3c0;" horiz-adv-x="713" 
d="M149 209q24 134 27 232q-53 0 -83 -3t-51 -10l-15 68q46 30 186 30h470l-10 -85h-99v-285q0 -108 16 -156h-101q-9 12 -14 50.5t-5 96.5v294h-190q-8 -110 -31.5 -245.5t-50.5 -195.5h-103q30 75 54 209z" />
    <glyph glyph-name="uni1E0C" unicode="&#x1e0c;" horiz-adv-x="722" 
d="M75 686h264q162 0 250 -85t88 -258t-88 -258t-250 -85h-264v686zM339 95q109 0 166.5 58.5t57.5 183.5v11q0 126 -57.5 184.5t-166.5 58.5h-153v-496h153zM309 -88h102v-94h-102v94z" />
    <glyph glyph-name="uni1E0D" unicode="&#x1e0d;" horiz-adv-x="573" 
d="M90 55.5q-54 67.5 -54 207.5q0 138 54 206.5t147 68.5q109 0 159 -72h6v257h103v-723h-82l-10 70h-7q-25 -40 -67.5 -61t-94.5 -21q-100 0 -154 67.5zM371 121q31 46 31 136v8q0 186 -129 186q-71 0 -101 -42.5t-30 -142.5v-9q0 -98 30 -140t101 -42q67 0 98 46zM235 -78
h102v-105h-102v105z" />
    <glyph glyph-name="uni1E24" unicode="&#x1e24;" horiz-adv-x="722" 
d="M75 686h111v-287h350v287h111v-686h-111v303h-350v-303h-111v686zM307 -88h102v-94h-102v94z" />
    <glyph glyph-name="uni1E25" unicode="&#x1e25;" horiz-adv-x="573" 
d="M68 723h103v-257h7q56 72 163 72q167 0 167 -181v-357h-103v344q0 59 -26.5 82.5t-77.5 23.5q-35 0 -65 -17.5t-47.5 -49.5t-17.5 -74v-309h-103v723zM238 -78h102v-105h-102v105z" />
    <glyph glyph-name="uni1E44" unicode="&#x1e44;" horiz-adv-x="722" 
d="M75 686h102l332 -446q11 -15 29 -43l5 2l-1 50v437h105v-686h-100l-333 451q-8 10 -17 24t-13 20l-5 -1l1 -51v-443h-105v686zM315 883h102v-105h-102v105z" />
    <glyph glyph-name="uni1E45" unicode="&#x1e45;" horiz-adv-x="573" 
d="M68 526h83l10 -70h7q28 40 72.5 61t100.5 21q167 0 167 -181v-357h-103v344q0 59 -26.5 82.5t-77.5 23.5q-35 0 -65 -17.5t-47.5 -49.5t-17.5 -74v-309h-103v526zM247 723h102v-105h-102v105z" />
    <glyph glyph-name="uni1E5A" unicode="&#x1e5a;" horiz-adv-x="722" 
d="M75 686h359q107 0 163 -54t56 -147q0 -71 -32 -121t-92 -73l152 -291h-121l-141 275h-233v-275h-111v686zM427 369q53 0 83.5 30.5t30.5 84.5q0 51 -29 79t-85 28h-241v-222h241zM310 -88h102v-94h-102v94z" />
    <glyph glyph-name="uni1E5B" unicode="&#x1e5b;" horiz-adv-x="350" 
d="M68 526h83l10 -81h6q36 93 121 93q28 0 49 -8v-98h-37q-59 0 -94 -34t-35 -104v-294h-103v526zM68 -78h102v-105h-102v105z" />
    <glyph glyph-name="uni1E62" unicode="&#x1e62;" horiz-adv-x="667" 
d="M127 39.5q-80 51.5 -80 156.5l1 21h110q-2 -14 -2 -20q0 -56 47 -85.5t127 -29.5q88 0 133 26t45 75q0 35 -24.5 57.5t-62 36t-101.5 30.5q-81 21 -132.5 41.5t-87.5 60t-36 103.5q0 91 75 138.5t195 47.5q118 0 191.5 -49t73.5 -147v-12h-108v13q0 48 -43 74.5
t-112 26.5q-74 0 -117.5 -22t-43.5 -64q0 -31 24 -51.5t60 -33.5t98 -29q84 -22 135.5 -42t88.5 -59.5t37 -103.5q0 -110 -77 -160.5t-210 -50.5q-124 0 -204 51.5zM289 -88h102v-94h-102v94z" />
    <glyph glyph-name="uni1E63" unicode="&#x1e63;" horiz-adv-x="517" 
d="M92.5 33q-56.5 45 -56.5 113q0 11 0.5 14.5t0.5 4.5h101v-9q0 -43 35 -64.5t89 -21.5q48 0 80.5 18t32.5 51q0 26 -18 42.5t-44 26t-75 22.5q-60 15 -98 30t-64.5 45t-26.5 80q0 72 59 112.5t157 40.5q61 0 106.5 -18.5t70 -51.5t24.5 -74l-1 -20h-101v7q0 33 -26.5 53.5
t-81.5 20.5q-53 0 -77.5 -18.5t-24.5 -43.5q0 -31 30 -46t95 -30q63 -15 103 -30.5t69 -48t29 -86.5q0 -84 -60.5 -124t-162.5 -40q-108 0 -164.5 45zM209 -78h102v-105h-102v105z" />
    <glyph glyph-name="uni1E6C" unicode="&#x1e6c;" horiz-adv-x="611" 
d="M250 590h-228v96h567v-96h-228v-590h-111v590zM254 -88h102v-94h-102v94z" />
    <glyph glyph-name="uni1E6D" unicode="&#x1e6d;" horiz-adv-x="295" 
d="M107 23.5q-27 34.5 -27 85.5v332h-64v85h65l20 147h82v-147h89v-85h-89v-322q0 -46 43 -46h46v-70q-13 -6 -35.5 -10t-42.5 -4q-60 0 -87 34.5zM128 -78h102v-105h-102v105z" />
    <glyph glyph-name="Wgrave" unicode="&#x1e80;" horiz-adv-x="944" 
d="M8 686h117l126 -465q7 -25 23 -102h5l19 102l104 465h148l107 -465q7 -29 20 -102h5q16 76 23 102l124 465h107l-193 -686h-139l-110 468q-9 39 -21 107h-5q-11 -74 -19 -107l-109 -468h-139zM352 850l1 3h104l64 -102h-87z" />
    <glyph glyph-name="wgrave" unicode="&#x1e81;" horiz-adv-x="739" 
d="M5 526h106l74 -273l31 -132h4l28 132l65 273h117l68 -274q9 -32 29 -131h5q21 93 30 131l72 274h100l-158 -526h-110l-71 295l-24 110h-4q-14 -76 -23 -110l-71 -295h-111zM237 720l1 3h107l84 -132h-84z" />
    <glyph glyph-name="Wacute" unicode="&#x1e82;" horiz-adv-x="944" 
d="M8 686h117l126 -465q7 -25 23 -102h5l19 102l104 465h148l107 -465q7 -29 20 -102h5q16 76 23 102l124 465h107l-193 -686h-139l-110 468q-9 39 -21 107h-5q-11 -74 -19 -107l-109 -468h-139zM470 853h114l1 -3l-82 -99h-87z" />
    <glyph glyph-name="wacute" unicode="&#x1e83;" horiz-adv-x="739" 
d="M5 526h106l74 -273l31 -132h4l28 132l65 273h117l68 -274q9 -32 29 -131h5q21 93 30 131l72 274h100l-158 -526h-110l-71 295l-24 110h-4q-14 -76 -23 -110l-71 -295h-111zM412 723h107l1 -3l-108 -129h-84z" />
    <glyph glyph-name="Wdieresis" unicode="&#x1e84;" horiz-adv-x="944" 
d="M8 686h117l126 -465q7 -25 23 -102h5l19 102l104 465h148l107 -465q7 -29 20 -102h5q16 76 23 102l124 465h107l-193 -686h-139l-110 468q-9 39 -21 107h-5q-11 -74 -19 -107l-109 -468h-139zM326 883h97v-102h-97v102zM520 883h97v-102h-97v102z" />
    <glyph glyph-name="wdieresis" unicode="&#x1e85;" horiz-adv-x="739" 
d="M5 526h106l74 -273l31 -132h4l28 132l65 273h117l68 -274q9 -32 29 -131h5q21 93 30 131l72 274h100l-158 -526h-110l-71 295l-24 110h-4q-14 -76 -23 -110l-71 -295h-111zM222 723h97v-102h-97v102zM416 723h97v-102h-97v102z" />
    <glyph glyph-name="uni1E92" unicode="&#x1e92;" horiz-adv-x="611" 
d="M21 55l392 536h-366v95h532v-55l-392 -536h401v-95h-567v55zM254 -88h102v-94h-102v94z" />
    <glyph glyph-name="uni1E93" unicode="&#x1e93;" horiz-adv-x="500" 
d="M23 51l288 390h-269v85h419v-50l-288 -391h303v-85h-453v51zM198 -78h102v-105h-102v105z" />
    <glyph glyph-name="uni1E9E" unicode="&#x1e9e;" horiz-adv-x="769" 
d="M75 412q0 140 86.5 213t236.5 73q86 0 151.5 -24t101.5 -68.5t36 -103.5q0 -52 -26 -94t-65 -57v-4q59 -15 92 -56.5t33 -102.5q0 -53 -25.5 -96t-73 -67.5t-110.5 -24.5h-224v96h211q51 0 80 29.5t29 69.5q0 43 -34.5 70t-94.5 27h-191v95h188q43 0 70.5 30t27.5 75
q0 52 -41.5 82t-124.5 30q-108 0 -165 -49.5t-57 -149.5v-405h-111v412z" />
    <glyph glyph-name="uni1EA0" unicode="&#x1ea0;" horiz-adv-x="684" 
d="M273 686h140l266 -686h-118l-63 167h-316l-62 -167h-114zM462 262l-75 201l-45 128h-5l-9 -26q-17 -52 -35 -100l-76 -203h245zM286 -88h102v-94h-102v94z" />
    <glyph glyph-name="uni1EA1" unicode="&#x1ea1;" 
d="M86.5 20q-52.5 32 -52.5 116q0 101 88 140t252 39v52q0 43 -22.5 65.5t-83.5 22.5q-59 0 -83.5 -21t-24.5 -51v-13h-100q-1 6 -1 22q0 69 58 107.5t155 38.5q102 0 153.5 -42t51.5 -119v-269q0 -18 10 -26.5t25 -8.5h36v-69q-26 -13 -71 -13q-36 0 -60.5 19.5t-32.5 53.5
h-7q-28 -36 -71.5 -56t-101.5 -20q-65 0 -117.5 32zM333.5 107.5q40.5 35.5 40.5 97.5v32q-114 0 -174 -19.5t-60 -73.5q0 -37 23.5 -54.5t70.5 -17.5q59 0 99.5 35.5zM216 -78h102v-105h-102v105z" />
    <glyph glyph-name="uni1EA2" unicode="&#x1ea2;" horiz-adv-x="684" 
d="M273 686h140l266 -686h-118l-63 167h-316l-62 -167h-114zM462 262l-75 201l-45 128h-5l-9 -26q-17 -52 -35 -100l-76 -203h245zM306 810h13q16 0 23 4.5t7 13.5q0 10 -8 14t-24 4h-60v41q35 8 76 8q39 0 69 -13.5t30 -46.5q0 -26 -19 -40.5t-48 -16.5v-27h-59v59z" />
    <glyph glyph-name="uni1EA3" unicode="&#x1ea3;" 
d="M86.5 20q-52.5 32 -52.5 116q0 101 88 140t252 39v52q0 43 -22.5 65.5t-83.5 22.5q-59 0 -83.5 -21t-24.5 -51v-13h-100q-1 6 -1 22q0 69 58 107.5t155 38.5q102 0 153.5 -42t51.5 -119v-269q0 -18 10 -26.5t25 -8.5h36v-69q-26 -13 -71 -13q-36 0 -60.5 19.5t-32.5 53.5
h-7q-28 -36 -71.5 -56t-101.5 -20q-65 0 -117.5 32zM333.5 107.5q40.5 35.5 40.5 97.5v32q-114 0 -174 -19.5t-60 -73.5q0 -37 23.5 -54.5t70.5 -17.5q59 0 99.5 35.5zM238 650h13q16 0 23 4.5t7 13.5q0 10 -8 14t-24 4h-60v41q35 8 76 8q39 0 69 -13.5t30 -46.5
q0 -26 -19 -40.5t-48 -16.5v-27h-59v59z" />
    <glyph glyph-name="uni1EA4" unicode="&#x1ea4;" horiz-adv-x="684" 
d="M273 686h140l266 -686h-118l-63 167h-316l-62 -167h-114zM462 262l-75 201l-45 128h-5l-9 -26q-17 -52 -35 -100l-76 -203h245zM290 853h96l105 -105h-97l-56 46l-57 -46h-97zM336 980h114l1 -3l-82 -99h-87z" />
    <glyph glyph-name="uni1EA5" unicode="&#x1ea5;" 
d="M86.5 20q-52.5 32 -52.5 116q0 101 88 140t252 39v52q0 43 -22.5 65.5t-83.5 22.5q-59 0 -83.5 -21t-24.5 -51v-13h-100q-1 6 -1 22q0 69 58 107.5t155 38.5q102 0 153.5 -42t51.5 -119v-269q0 -18 10 -26.5t25 -8.5h36v-69q-26 -13 -71 -13q-36 0 -60.5 19.5t-32.5 53.5
h-7q-28 -36 -71.5 -56t-101.5 -20q-65 0 -117.5 32zM333.5 107.5q40.5 35.5 40.5 97.5v32q-114 0 -174 -19.5t-60 -73.5q0 -37 23.5 -54.5t70.5 -17.5q59 0 99.5 35.5zM222 723h96l105 -135h-97l-56 76l-57 -76h-97zM314 890h107l1 -3l-108 -129h-84z" />
    <glyph glyph-name="uni1EA6" unicode="&#x1ea6;" horiz-adv-x="684" 
d="M273 686h140l266 -686h-118l-63 167h-316l-62 -167h-114zM462 262l-75 201l-45 128h-5l-9 -26q-17 -52 -35 -100l-76 -203h245zM290 853h96l105 -105h-97l-56 46l-57 -46h-97zM218 977l1 3h104l64 -102h-87z" />
    <glyph glyph-name="uni1EA7" unicode="&#x1ea7;" 
d="M86.5 20q-52.5 32 -52.5 116q0 101 88 140t252 39v52q0 43 -22.5 65.5t-83.5 22.5q-59 0 -83.5 -21t-24.5 -51v-13h-100q-1 6 -1 22q0 69 58 107.5t155 38.5q102 0 153.5 -42t51.5 -119v-269q0 -18 10 -26.5t25 -8.5h36v-69q-26 -13 -71 -13q-36 0 -60.5 19.5t-32.5 53.5
h-7q-28 -36 -71.5 -56t-101.5 -20q-65 0 -117.5 32zM333.5 107.5q40.5 35.5 40.5 97.5v32q-114 0 -174 -19.5t-60 -73.5q0 -37 23.5 -54.5t70.5 -17.5q59 0 99.5 35.5zM222 723h96l105 -135h-97l-56 76l-57 -76h-97zM139 887l1 3h107l84 -132h-84z" />
    <glyph glyph-name="uni1EA8" unicode="&#x1ea8;" horiz-adv-x="684" 
d="M273 686h140l266 -686h-118l-63 167h-316l-62 -167h-114zM462 262l-75 201l-45 128h-5l-9 -26q-17 -52 -35 -100l-76 -203h245zM290 853h96l105 -105h-97l-56 46l-57 -46h-97zM306 937h13q16 0 23 4.5t7 13.5q0 10 -8 14t-24 4h-60v41q35 8 76 8q39 0 69 -13.5t30 -46.5
q0 -26 -19 -40.5t-48 -16.5v-27h-59v59z" />
    <glyph glyph-name="uni1EA9" unicode="&#x1ea9;" 
d="M86.5 20q-52.5 32 -52.5 116q0 101 88 140t252 39v52q0 43 -22.5 65.5t-83.5 22.5q-59 0 -83.5 -21t-24.5 -51v-13h-100q-1 6 -1 22q0 69 58 107.5t155 38.5q102 0 153.5 -42t51.5 -119v-269q0 -18 10 -26.5t25 -8.5h36v-69q-26 -13 -71 -13q-36 0 -60.5 19.5t-32.5 53.5
h-7q-28 -36 -71.5 -56t-101.5 -20q-65 0 -117.5 32zM333.5 107.5q40.5 35.5 40.5 97.5v32q-114 0 -174 -19.5t-60 -73.5q0 -37 23.5 -54.5t70.5 -17.5q59 0 99.5 35.5zM222 723h96l105 -135h-97l-56 76l-57 -76h-97zM238 817h13q16 0 23 4.5t7 13.5q0 10 -8 14t-24 4h-60v41
q35 8 76 8q39 0 69 -13.5t30 -46.5q0 -26 -19 -40.5t-48 -16.5v-27h-59v59z" />
    <glyph glyph-name="uni1EAA" unicode="&#x1eaa;" horiz-adv-x="684" 
d="M273 686h140l266 -686h-118l-63 167h-316l-62 -167h-114zM462 262l-75 201l-45 128h-5l-9 -26q-17 -52 -35 -100l-76 -203h245zM290 853h96l105 -105h-97l-56 46l-57 -46h-97zM208.5 948.5q24.5 31.5 69.5 31.5q17 0 32 -4.5t39 -14.5q34 -14 48 -14q26 0 30 33h67
q0 -47 -24.5 -78.5t-70.5 -31.5q-17 0 -33 5t-37 14q-3 1 -19.5 7.5t-29.5 6.5q-26 0 -30 -33h-66q0 47 24.5 78.5z" />
    <glyph glyph-name="uni1EAB" unicode="&#x1eab;" 
d="M86.5 20q-52.5 32 -52.5 116q0 101 88 140t252 39v52q0 43 -22.5 65.5t-83.5 22.5q-59 0 -83.5 -21t-24.5 -51v-13h-100q-1 6 -1 22q0 69 58 107.5t155 38.5q102 0 153.5 -42t51.5 -119v-269q0 -18 10 -26.5t25 -8.5h36v-69q-26 -13 -71 -13q-36 0 -60.5 19.5t-32.5 53.5
h-7q-28 -36 -71.5 -56t-101.5 -20q-65 0 -117.5 32zM333.5 107.5q40.5 35.5 40.5 97.5v32q-114 0 -174 -19.5t-60 -73.5q0 -37 23.5 -54.5t70.5 -17.5q59 0 99.5 35.5zM222 723h96l105 -135h-97l-56 76l-57 -76h-97zM128 859q22 31 67 31q18 0 33.5 -4t42.5 -13
q22 -8 37 -12t31 -4q26 0 30 33h67q0 -48 -22.5 -79t-67.5 -31q-18 0 -32.5 4t-42.5 13q-24 8 -38.5 12t-30.5 4q-26 0 -30 -33h-66q0 48 22 79z" />
    <glyph glyph-name="uni1EAC" unicode="&#x1eac;" horiz-adv-x="684" 
d="M273 686h140l266 -686h-118l-63 167h-316l-62 -167h-114zM462 262l-75 201l-45 128h-5l-9 -26q-17 -52 -35 -100l-76 -203h245zM286 -88h102v-94h-102v94zM290 853h96l105 -105h-97l-56 46l-57 -46h-97z" />
    <glyph glyph-name="uni1EAD" unicode="&#x1ead;" 
d="M86.5 20q-52.5 32 -52.5 116q0 101 88 140t252 39v52q0 43 -22.5 65.5t-83.5 22.5q-59 0 -83.5 -21t-24.5 -51v-13h-100q-1 6 -1 22q0 69 58 107.5t155 38.5q102 0 153.5 -42t51.5 -119v-269q0 -18 10 -26.5t25 -8.5h36v-69q-26 -13 -71 -13q-36 0 -60.5 19.5t-32.5 53.5
h-7q-28 -36 -71.5 -56t-101.5 -20q-65 0 -117.5 32zM333.5 107.5q40.5 35.5 40.5 97.5v32q-114 0 -174 -19.5t-60 -73.5q0 -37 23.5 -54.5t70.5 -17.5q59 0 99.5 35.5zM216 -78h102v-105h-102v105zM222 723h96l105 -135h-97l-56 76l-57 -76h-97z" />
    <glyph glyph-name="uni1EAE" unicode="&#x1eae;" horiz-adv-x="684" 
d="M273 686h140l266 -686h-118l-63 167h-316l-62 -167h-114zM462 262l-75 201l-45 128h-5l-9 -26q-17 -52 -35 -100l-76 -203h245zM223 776.5q-36 36.5 -36 86.5h70q4 -20 22 -35.5t58 -15.5t59 15.5t22 35.5h70q0 -50 -36.5 -86.5t-114.5 -36.5t-114 36.5zM336 977h114
l1 -3l-82 -99h-87z" />
    <glyph glyph-name="uni1EAF" unicode="&#x1eaf;" 
d="M86.5 20q-52.5 32 -52.5 116q0 101 88 140t252 39v52q0 43 -22.5 65.5t-83.5 22.5q-59 0 -83.5 -21t-24.5 -51v-13h-100q-1 6 -1 22q0 69 58 107.5t155 38.5q102 0 153.5 -42t51.5 -119v-269q0 -18 10 -26.5t25 -8.5h36v-69q-26 -13 -71 -13q-36 0 -60.5 19.5t-32.5 53.5
h-7q-28 -36 -71.5 -56t-101.5 -20q-65 0 -117.5 32zM333.5 107.5q40.5 35.5 40.5 97.5v32q-114 0 -174 -19.5t-60 -73.5q0 -37 23.5 -54.5t70.5 -17.5q59 0 99.5 35.5zM155 616.5q-36 36.5 -36 86.5h70q4 -20 22 -35.5t58 -15.5t59 15.5t22 35.5h70q0 -50 -36.5 -86.5
t-114.5 -36.5t-114 36.5zM314 847h107l1 -3l-108 -129h-84z" />
    <glyph glyph-name="uni1EB0" unicode="&#x1eb0;" horiz-adv-x="684" 
d="M273 686h140l266 -686h-118l-63 167h-316l-62 -167h-114zM462 262l-75 201l-45 128h-5l-9 -26q-17 -52 -35 -100l-76 -203h245zM223 776.5q-36 36.5 -36 86.5h70q4 -20 22 -35.5t58 -15.5t59 15.5t22 35.5h70q0 -50 -36.5 -86.5t-114.5 -36.5t-114 36.5zM218 974l1 3h104
l64 -102h-87z" />
    <glyph glyph-name="uni1EB1" unicode="&#x1eb1;" 
d="M86.5 20q-52.5 32 -52.5 116q0 101 88 140t252 39v52q0 43 -22.5 65.5t-83.5 22.5q-59 0 -83.5 -21t-24.5 -51v-13h-100q-1 6 -1 22q0 69 58 107.5t155 38.5q102 0 153.5 -42t51.5 -119v-269q0 -18 10 -26.5t25 -8.5h36v-69q-26 -13 -71 -13q-36 0 -60.5 19.5t-32.5 53.5
h-7q-28 -36 -71.5 -56t-101.5 -20q-65 0 -117.5 32zM333.5 107.5q40.5 35.5 40.5 97.5v32q-114 0 -174 -19.5t-60 -73.5q0 -37 23.5 -54.5t70.5 -17.5q59 0 99.5 35.5zM155 616.5q-36 36.5 -36 86.5h70q4 -20 22 -35.5t58 -15.5t59 15.5t22 35.5h70q0 -50 -36.5 -86.5
t-114.5 -36.5t-114 36.5zM139 844l1 3h107l84 -132h-84z" />
    <glyph glyph-name="uni1EB2" unicode="&#x1eb2;" horiz-adv-x="684" 
d="M273 686h140l266 -686h-118l-63 167h-316l-62 -167h-114zM462 262l-75 201l-45 128h-5l-9 -26q-17 -52 -35 -100l-76 -203h245zM223 776.5q-36 36.5 -36 86.5h70q4 -20 22 -35.5t58 -15.5t59 15.5t22 35.5h70q0 -50 -36.5 -86.5t-114.5 -36.5t-114 36.5zM306 934h13
q16 0 23 4.5t7 13.5q0 10 -8 14t-24 4h-60v41q35 8 76 8q39 0 69 -13.5t30 -46.5q0 -26 -19 -40.5t-48 -16.5v-27h-59v59z" />
    <glyph glyph-name="uni1EB3" unicode="&#x1eb3;" 
d="M86.5 20q-52.5 32 -52.5 116q0 101 88 140t252 39v52q0 43 -22.5 65.5t-83.5 22.5q-59 0 -83.5 -21t-24.5 -51v-13h-100q-1 6 -1 22q0 69 58 107.5t155 38.5q102 0 153.5 -42t51.5 -119v-269q0 -18 10 -26.5t25 -8.5h36v-69q-26 -13 -71 -13q-36 0 -60.5 19.5t-32.5 53.5
h-7q-28 -36 -71.5 -56t-101.5 -20q-65 0 -117.5 32zM333.5 107.5q40.5 35.5 40.5 97.5v32q-114 0 -174 -19.5t-60 -73.5q0 -37 23.5 -54.5t70.5 -17.5q59 0 99.5 35.5zM155 616.5q-36 36.5 -36 86.5h70q4 -20 22 -35.5t58 -15.5t59 15.5t22 35.5h70q0 -50 -36.5 -86.5
t-114.5 -36.5t-114 36.5zM238 774h13q16 0 23 4.5t7 13.5q0 10 -8 14t-24 4h-60v41q35 8 76 8q39 0 69 -13.5t30 -46.5q0 -26 -19 -40.5t-48 -16.5v-27h-59v59z" />
    <glyph glyph-name="uni1EB4" unicode="&#x1eb4;" horiz-adv-x="684" 
d="M273 686h140l266 -686h-118l-63 167h-316l-62 -167h-114zM462 262l-75 201l-45 128h-5l-9 -26q-17 -52 -35 -100l-76 -203h245zM223 776.5q-36 36.5 -36 86.5h70q4 -20 22 -35.5t58 -15.5t59 15.5t22 35.5h70q0 -50 -36.5 -86.5t-114.5 -36.5t-114 36.5zM208.5 945.5
q24.5 31.5 69.5 31.5q17 0 32 -4.5t39 -14.5q34 -14 48 -14q26 0 30 33h67q0 -47 -24.5 -78.5t-70.5 -31.5q-17 0 -33 5t-37 14q-3 1 -19.5 7.5t-29.5 6.5q-26 0 -30 -33h-66q0 47 24.5 78.5z" />
    <glyph glyph-name="uni1EB5" unicode="&#x1eb5;" 
d="M86.5 20q-52.5 32 -52.5 116q0 101 88 140t252 39v52q0 43 -22.5 65.5t-83.5 22.5q-59 0 -83.5 -21t-24.5 -51v-13h-100q-1 6 -1 22q0 69 58 107.5t155 38.5q102 0 153.5 -42t51.5 -119v-269q0 -18 10 -26.5t25 -8.5h36v-69q-26 -13 -71 -13q-36 0 -60.5 19.5t-32.5 53.5
h-7q-28 -36 -71.5 -56t-101.5 -20q-65 0 -117.5 32zM333.5 107.5q40.5 35.5 40.5 97.5v32q-114 0 -174 -19.5t-60 -73.5q0 -37 23.5 -54.5t70.5 -17.5q59 0 99.5 35.5zM155 616.5q-36 36.5 -36 86.5h70q4 -20 22 -35.5t58 -15.5t59 15.5t22 35.5h70q0 -50 -36.5 -86.5
t-114.5 -36.5t-114 36.5zM128 816q22 31 67 31q18 0 33.5 -4t42.5 -13q22 -8 37 -12t31 -4q26 0 30 33h67q0 -48 -22.5 -79t-67.5 -31q-18 0 -32.5 4t-42.5 13q-24 8 -38.5 12t-30.5 4q-26 0 -30 -33h-66q0 48 22 79z" />
    <glyph glyph-name="uni1EB6" unicode="&#x1eb6;" horiz-adv-x="684" 
d="M273 686h140l266 -686h-118l-63 167h-316l-62 -167h-114zM462 262l-75 201l-45 128h-5l-9 -26q-17 -52 -35 -100l-76 -203h245zM286 -88h102v-94h-102v94zM223 776.5q-36 36.5 -36 86.5h70q4 -20 22 -35.5t58 -15.5t59 15.5t22 35.5h70q0 -50 -36.5 -86.5t-114.5 -36.5
t-114 36.5z" />
    <glyph glyph-name="uni1EB7" unicode="&#x1eb7;" 
d="M86.5 20q-52.5 32 -52.5 116q0 101 88 140t252 39v52q0 43 -22.5 65.5t-83.5 22.5q-59 0 -83.5 -21t-24.5 -51v-13h-100q-1 6 -1 22q0 69 58 107.5t155 38.5q102 0 153.5 -42t51.5 -119v-269q0 -18 10 -26.5t25 -8.5h36v-69q-26 -13 -71 -13q-36 0 -60.5 19.5t-32.5 53.5
h-7q-28 -36 -71.5 -56t-101.5 -20q-65 0 -117.5 32zM333.5 107.5q40.5 35.5 40.5 97.5v32q-114 0 -174 -19.5t-60 -73.5q0 -37 23.5 -54.5t70.5 -17.5q59 0 99.5 35.5zM216 -78h102v-105h-102v105zM155 616.5q-36 36.5 -36 86.5h70q4 -20 22 -35.5t58 -15.5t59 15.5t22 35.5
h70q0 -50 -36.5 -86.5t-114.5 -36.5t-114 36.5z" />
    <glyph glyph-name="uni1EB8" unicode="&#x1eb8;" horiz-adv-x="667" 
d="M75 686h532v-95h-421v-193h377v-95h-377v-208h427v-95h-538v686zM295 -88h102v-94h-102v94z" />
    <glyph glyph-name="uni1EB9" unicode="&#x1eb9;" 
d="M100 55q-62 67 -62 208t62 208t189 67q115 0 172 -62.5t57 -198.5v-40h-374q4 -85 38.5 -125.5t107.5 -40.5q57 0 92 27t35 83h101q0 -94 -63.5 -143.5t-165.5 -49.5q-127 0 -189 67zM411 315q0 140 -122 140q-68 0 -102 -33.5t-41 -106.5h265zM234 -78h102v-105h-102
v105z" />
    <glyph glyph-name="uni1EBA" unicode="&#x1eba;" horiz-adv-x="667" 
d="M75 686h532v-95h-421v-193h377v-95h-377v-208h427v-95h-538v686zM315 810h13q16 0 23 4.5t7 13.5q0 10 -8 14t-24 4h-60v41q35 8 76 8q39 0 69 -13.5t30 -46.5q0 -26 -19 -40.5t-48 -16.5v-27h-59v59z" />
    <glyph glyph-name="uni1EBB" unicode="&#x1ebb;" 
d="M100 55q-62 67 -62 208t62 208t189 67q115 0 172 -62.5t57 -198.5v-40h-374q4 -85 38.5 -125.5t107.5 -40.5q57 0 92 27t35 83h101q0 -94 -63.5 -143.5t-165.5 -49.5q-127 0 -189 67zM411 315q0 140 -122 140q-68 0 -102 -33.5t-41 -106.5h265zM250 650h13q16 0 23 4.5
t7 13.5q0 10 -8 14t-24 4h-60v41q35 8 76 8q39 0 69 -13.5t30 -46.5q0 -26 -19 -40.5t-48 -16.5v-27h-59v59z" />
    <glyph glyph-name="uni1EBC" unicode="&#x1ebc;" horiz-adv-x="667" 
d="M75 686h532v-95h-421v-193h377v-95h-377v-208h427v-95h-538v686zM217.5 821.5q24.5 31.5 69.5 31.5q17 0 32 -4.5t39 -14.5q34 -14 48 -14q26 0 30 33h67q0 -47 -24.5 -78.5t-70.5 -31.5q-17 0 -33 5t-37 14q-3 1 -19.5 7.5t-29.5 6.5q-26 0 -30 -33h-66q0 47 24.5 78.5z
" />
    <glyph glyph-name="uni1EBD" unicode="&#x1ebd;" 
d="M100 55q-62 67 -62 208t62 208t189 67q115 0 172 -62.5t57 -198.5v-40h-374q4 -85 38.5 -125.5t107.5 -40.5q57 0 92 27t35 83h101q0 -94 -63.5 -143.5t-165.5 -49.5q-127 0 -189 67zM411 315q0 140 -122 140q-68 0 -102 -33.5t-41 -106.5h265zM140 692q22 31 67 31
q18 0 33.5 -4t42.5 -13q22 -8 37 -12t31 -4q26 0 30 33h67q0 -48 -22.5 -79t-67.5 -31q-18 0 -32.5 4t-42.5 13q-24 8 -38.5 12t-30.5 4q-26 0 -30 -33h-66q0 48 22 79z" />
    <glyph glyph-name="uni1EBE" unicode="&#x1ebe;" horiz-adv-x="667" 
d="M75 686h532v-95h-421v-193h377v-95h-377v-208h427v-95h-538v686zM299 853h96l105 -105h-97l-56 46l-57 -46h-97zM345 980h114l1 -3l-82 -99h-87z" />
    <glyph glyph-name="uni1EBF" unicode="&#x1ebf;" 
d="M100 55q-62 67 -62 208t62 208t189 67q115 0 172 -62.5t57 -198.5v-40h-374q4 -85 38.5 -125.5t107.5 -40.5q57 0 92 27t35 83h101q0 -94 -63.5 -143.5t-165.5 -49.5q-127 0 -189 67zM411 315q0 140 -122 140q-68 0 -102 -33.5t-41 -106.5h265zM234 723h96l105 -135h-97
l-56 76l-57 -76h-97zM326 890h107l1 -3l-108 -129h-84z" />
    <glyph glyph-name="uni1EC0" unicode="&#x1ec0;" horiz-adv-x="667" 
d="M75 686h532v-95h-421v-193h377v-95h-377v-208h427v-95h-538v686zM299 853h96l105 -105h-97l-56 46l-57 -46h-97zM227 977l1 3h104l64 -102h-87z" />
    <glyph glyph-name="uni1EC1" unicode="&#x1ec1;" 
d="M100 55q-62 67 -62 208t62 208t189 67q115 0 172 -62.5t57 -198.5v-40h-374q4 -85 38.5 -125.5t107.5 -40.5q57 0 92 27t35 83h101q0 -94 -63.5 -143.5t-165.5 -49.5q-127 0 -189 67zM411 315q0 140 -122 140q-68 0 -102 -33.5t-41 -106.5h265zM234 723h96l105 -135h-97
l-56 76l-57 -76h-97zM151 887l1 3h107l84 -132h-84z" />
    <glyph glyph-name="uni1EC2" unicode="&#x1ec2;" horiz-adv-x="667" 
d="M75 686h532v-95h-421v-193h377v-95h-377v-208h427v-95h-538v686zM299 853h96l105 -105h-97l-56 46l-57 -46h-97zM315 937h13q16 0 23 4.5t7 13.5q0 10 -8 14t-24 4h-60v41q35 8 76 8q39 0 69 -13.5t30 -46.5q0 -26 -19 -40.5t-48 -16.5v-27h-59v59z" />
    <glyph glyph-name="uni1EC3" unicode="&#x1ec3;" 
d="M100 55q-62 67 -62 208t62 208t189 67q115 0 172 -62.5t57 -198.5v-40h-374q4 -85 38.5 -125.5t107.5 -40.5q57 0 92 27t35 83h101q0 -94 -63.5 -143.5t-165.5 -49.5q-127 0 -189 67zM411 315q0 140 -122 140q-68 0 -102 -33.5t-41 -106.5h265zM234 723h96l105 -135h-97
l-56 76l-57 -76h-97zM250 817h13q16 0 23 4.5t7 13.5q0 10 -8 14t-24 4h-60v41q35 8 76 8q39 0 69 -13.5t30 -46.5q0 -26 -19 -40.5t-48 -16.5v-27h-59v59z" />
    <glyph glyph-name="uni1EC4" unicode="&#x1ec4;" horiz-adv-x="667" 
d="M75 686h532v-95h-421v-193h377v-95h-377v-208h427v-95h-538v686zM299 853h96l105 -105h-97l-56 46l-57 -46h-97zM217.5 948.5q24.5 31.5 69.5 31.5q17 0 32 -4.5t39 -14.5q34 -14 48 -14q26 0 30 33h67q0 -47 -24.5 -78.5t-70.5 -31.5q-17 0 -33 5t-37 14q-3 1 -19.5 7.5
t-29.5 6.5q-26 0 -30 -33h-66q0 47 24.5 78.5z" />
    <glyph glyph-name="uni1EC5" unicode="&#x1ec5;" 
d="M100 55q-62 67 -62 208t62 208t189 67q115 0 172 -62.5t57 -198.5v-40h-374q4 -85 38.5 -125.5t107.5 -40.5q57 0 92 27t35 83h101q0 -94 -63.5 -143.5t-165.5 -49.5q-127 0 -189 67zM411 315q0 140 -122 140q-68 0 -102 -33.5t-41 -106.5h265zM234 723h96l105 -135h-97
l-56 76l-57 -76h-97zM140 859q22 31 67 31q18 0 33.5 -4t42.5 -13q22 -8 37 -12t31 -4q26 0 30 33h67q0 -48 -22.5 -79t-67.5 -31q-18 0 -32.5 4t-42.5 13q-24 8 -38.5 12t-30.5 4q-26 0 -30 -33h-66q0 48 22 79z" />
    <glyph glyph-name="uni1EC6" unicode="&#x1ec6;" horiz-adv-x="667" 
d="M75 686h532v-95h-421v-193h377v-95h-377v-208h427v-95h-538v686zM295 -88h102v-94h-102v94zM299 853h96l105 -105h-97l-56 46l-57 -46h-97z" />
    <glyph glyph-name="uni1EC7" unicode="&#x1ec7;" 
d="M100 55q-62 67 -62 208t62 208t189 67q115 0 172 -62.5t57 -198.5v-40h-374q4 -85 38.5 -125.5t107.5 -40.5q57 0 92 27t35 83h101q0 -94 -63.5 -143.5t-165.5 -49.5q-127 0 -189 67zM411 315q0 140 -122 140q-68 0 -102 -33.5t-41 -106.5h265zM234 -78h102v-105h-102
v105zM234 723h96l105 -135h-97l-56 76l-57 -76h-97z" />
    <glyph glyph-name="uni1EC8" unicode="&#x1ec8;" horiz-adv-x="278" 
d="M84 686h111v-686h-111v686zM108 810h13q16 0 23 4.5t7 13.5q0 10 -8 14t-24 4h-60v41q35 8 76 8q39 0 69 -13.5t30 -46.5q0 -26 -19 -40.5t-48 -16.5v-27h-59v59z" />
    <glyph glyph-name="uni1EC9" unicode="&#x1ec9;" horiz-adv-x="239" 
d="M68 526h103v-526h-103v526zM86 650h13q16 0 23 4.5t7 13.5q0 10 -8 14t-24 4h-60v41q35 8 76 8q39 0 69 -13.5t30 -46.5q0 -26 -19 -40.5t-48 -16.5v-27h-59v59z" />
    <glyph glyph-name="uni1ECA" unicode="&#x1eca;" horiz-adv-x="278" 
d="M84 686h111v-686h-111v686zM87 -88h102v-94h-102v94z" />
    <glyph glyph-name="uni1ECB" unicode="&#x1ecb;" horiz-adv-x="239" 
d="M68 723h102v-105h-102v105zM68 526h103v-526h-103v526zM68 -78h102v-105h-102v105z" />
    <glyph glyph-name="uni1ECC" unicode="&#x1ecc;" horiz-adv-x="778" 
d="M135 77.5q-90 89.5 -90 265.5t90 265.5t254 89.5q165 0 255 -89.5t90 -265.5t-90 -265.5t-255 -89.5q-164 0 -254 89.5zM620 336v12q-1 256 -231 256q-229 0 -230 -256v-12q0 -254 230 -254q231 0 231 254zM351 -88h102v-94h-102v94z" />
    <glyph glyph-name="uni1ECD" unicode="&#x1ecd;" horiz-adv-x="573" 
d="M98.5 55.5q-62.5 67.5 -62.5 207.5t62.5 207.5t187.5 67.5t188 -67.5t63 -207.5t-63 -207.5t-188 -67.5t-187.5 67.5zM396.5 117.5q34.5 44.5 34.5 140.5v10q0 96 -34.5 140.5t-110.5 44.5q-75 0 -109.5 -44.5t-34.5 -140.5v-10q0 -96 34.5 -140.5t109.5 -44.5
q76 0 110.5 44.5zM236 -78h102v-105h-102v105z" />
    <glyph glyph-name="uni1ECE" unicode="&#x1ece;" horiz-adv-x="778" 
d="M135 77.5q-90 89.5 -90 265.5t90 265.5t254 89.5q165 0 255 -89.5t90 -265.5t-90 -265.5t-255 -89.5q-164 0 -254 89.5zM620 336v12q-1 256 -231 256q-229 0 -230 -256v-12q0 -254 230 -254q231 0 231 254zM357 810h13q16 0 23 4.5t7 13.5q0 10 -8 14t-24 4h-60v41
q35 8 76 8q39 0 69 -13.5t30 -46.5q0 -26 -19 -40.5t-48 -16.5v-27h-59v59z" />
    <glyph glyph-name="uni1ECF" unicode="&#x1ecf;" horiz-adv-x="573" 
d="M98.5 55.5q-62.5 67.5 -62.5 207.5t62.5 207.5t187.5 67.5t188 -67.5t63 -207.5t-63 -207.5t-188 -67.5t-187.5 67.5zM396.5 117.5q34.5 44.5 34.5 140.5v10q0 96 -34.5 140.5t-110.5 44.5q-75 0 -109.5 -44.5t-34.5 -140.5v-10q0 -96 34.5 -140.5t109.5 -44.5
q76 0 110.5 44.5zM254 650h13q16 0 23 4.5t7 13.5q0 10 -8 14t-24 4h-60v41q35 8 76 8q39 0 69 -13.5t30 -46.5q0 -26 -19 -40.5t-48 -16.5v-27h-59v59z" />
    <glyph glyph-name="uni1ED0" unicode="&#x1ed0;" horiz-adv-x="778" 
d="M135 77.5q-90 89.5 -90 265.5t90 265.5t254 89.5q165 0 255 -89.5t90 -265.5t-90 -265.5t-255 -89.5q-164 0 -254 89.5zM620 336v12q-1 256 -231 256q-229 0 -230 -256v-12q0 -254 230 -254q231 0 231 254zM341 853h96l105 -105h-97l-56 46l-57 -46h-97zM387 980h114
l1 -3l-82 -99h-87z" />
    <glyph glyph-name="uni1ED1" unicode="&#x1ed1;" horiz-adv-x="573" 
d="M98.5 55.5q-62.5 67.5 -62.5 207.5t62.5 207.5t187.5 67.5t188 -67.5t63 -207.5t-63 -207.5t-188 -67.5t-187.5 67.5zM396.5 117.5q34.5 44.5 34.5 140.5v10q0 96 -34.5 140.5t-110.5 44.5q-75 0 -109.5 -44.5t-34.5 -140.5v-10q0 -96 34.5 -140.5t109.5 -44.5
q76 0 110.5 44.5zM238 723h96l105 -135h-97l-56 76l-57 -76h-97zM330 890h107l1 -3l-108 -129h-84z" />
    <glyph glyph-name="uni1ED2" unicode="&#x1ed2;" horiz-adv-x="778" 
d="M135 77.5q-90 89.5 -90 265.5t90 265.5t254 89.5q165 0 255 -89.5t90 -265.5t-90 -265.5t-255 -89.5q-164 0 -254 89.5zM620 336v12q-1 256 -231 256q-229 0 -230 -256v-12q0 -254 230 -254q231 0 231 254zM341 853h96l105 -105h-97l-56 46l-57 -46h-97zM269 977l1 3h104
l64 -102h-87z" />
    <glyph glyph-name="uni1ED3" unicode="&#x1ed3;" horiz-adv-x="573" 
d="M98.5 55.5q-62.5 67.5 -62.5 207.5t62.5 207.5t187.5 67.5t188 -67.5t63 -207.5t-63 -207.5t-188 -67.5t-187.5 67.5zM396.5 117.5q34.5 44.5 34.5 140.5v10q0 96 -34.5 140.5t-110.5 44.5q-75 0 -109.5 -44.5t-34.5 -140.5v-10q0 -96 34.5 -140.5t109.5 -44.5
q76 0 110.5 44.5zM238 723h96l105 -135h-97l-56 76l-57 -76h-97zM155 887l1 3h107l84 -132h-84z" />
    <glyph glyph-name="uni1ED4" unicode="&#x1ed4;" horiz-adv-x="778" 
d="M135 77.5q-90 89.5 -90 265.5t90 265.5t254 89.5q165 0 255 -89.5t90 -265.5t-90 -265.5t-255 -89.5q-164 0 -254 89.5zM620 336v12q-1 256 -231 256q-229 0 -230 -256v-12q0 -254 230 -254q231 0 231 254zM341 853h96l105 -105h-97l-56 46l-57 -46h-97zM357 937h13
q16 0 23 4.5t7 13.5q0 10 -8 14t-24 4h-60v41q35 8 76 8q39 0 69 -13.5t30 -46.5q0 -26 -19 -40.5t-48 -16.5v-27h-59v59z" />
    <glyph glyph-name="uni1ED5" unicode="&#x1ed5;" horiz-adv-x="573" 
d="M98.5 55.5q-62.5 67.5 -62.5 207.5t62.5 207.5t187.5 67.5t188 -67.5t63 -207.5t-63 -207.5t-188 -67.5t-187.5 67.5zM396.5 117.5q34.5 44.5 34.5 140.5v10q0 96 -34.5 140.5t-110.5 44.5q-75 0 -109.5 -44.5t-34.5 -140.5v-10q0 -96 34.5 -140.5t109.5 -44.5
q76 0 110.5 44.5zM238 723h96l105 -135h-97l-56 76l-57 -76h-97zM254 817h13q16 0 23 4.5t7 13.5q0 10 -8 14t-24 4h-60v41q35 8 76 8q39 0 69 -13.5t30 -46.5q0 -26 -19 -40.5t-48 -16.5v-27h-59v59z" />
    <glyph glyph-name="uni1ED6" unicode="&#x1ed6;" horiz-adv-x="778" 
d="M135 77.5q-90 89.5 -90 265.5t90 265.5t254 89.5q165 0 255 -89.5t90 -265.5t-90 -265.5t-255 -89.5q-164 0 -254 89.5zM620 336v12q-1 256 -231 256q-229 0 -230 -256v-12q0 -254 230 -254q231 0 231 254zM341 853h96l105 -105h-97l-56 46l-57 -46h-97zM259.5 948.5
q24.5 31.5 69.5 31.5q17 0 32 -4.5t39 -14.5q34 -14 48 -14q26 0 30 33h67q0 -47 -24.5 -78.5t-70.5 -31.5q-17 0 -33 5t-37 14q-3 1 -19.5 7.5t-29.5 6.5q-26 0 -30 -33h-66q0 47 24.5 78.5z" />
    <glyph glyph-name="uni1ED7" unicode="&#x1ed7;" horiz-adv-x="573" 
d="M98.5 55.5q-62.5 67.5 -62.5 207.5t62.5 207.5t187.5 67.5t188 -67.5t63 -207.5t-63 -207.5t-188 -67.5t-187.5 67.5zM396.5 117.5q34.5 44.5 34.5 140.5v10q0 96 -34.5 140.5t-110.5 44.5q-75 0 -109.5 -44.5t-34.5 -140.5v-10q0 -96 34.5 -140.5t109.5 -44.5
q76 0 110.5 44.5zM238 723h96l105 -135h-97l-56 76l-57 -76h-97zM144 859q22 31 67 31q18 0 33.5 -4t42.5 -13q22 -8 37 -12t31 -4q26 0 30 33h67q0 -48 -22.5 -79t-67.5 -31q-18 0 -32.5 4t-42.5 13q-24 8 -38.5 12t-30.5 4q-26 0 -30 -33h-66q0 48 22 79z" />
    <glyph glyph-name="uni1ED8" unicode="&#x1ed8;" horiz-adv-x="778" 
d="M135 77.5q-90 89.5 -90 265.5t90 265.5t254 89.5q165 0 255 -89.5t90 -265.5t-90 -265.5t-255 -89.5q-164 0 -254 89.5zM620 336v12q-1 256 -231 256q-229 0 -230 -256v-12q0 -254 230 -254q231 0 231 254zM351 -88h102v-94h-102v94zM341 853h96l105 -105h-97l-56 46
l-57 -46h-97z" />
    <glyph glyph-name="uni1ED9" unicode="&#x1ed9;" horiz-adv-x="573" 
d="M98.5 55.5q-62.5 67.5 -62.5 207.5t62.5 207.5t187.5 67.5t188 -67.5t63 -207.5t-63 -207.5t-188 -67.5t-187.5 67.5zM396.5 117.5q34.5 44.5 34.5 140.5v10q0 96 -34.5 140.5t-110.5 44.5q-75 0 -109.5 -44.5t-34.5 -140.5v-10q0 -96 34.5 -140.5t109.5 -44.5
q76 0 110.5 44.5zM236 -78h102v-105h-102v105zM238 723h96l105 -135h-97l-56 76l-57 -76h-97z" />
    <glyph glyph-name="uni1EDA" unicode="&#x1eda;" horiz-adv-x="778" 
d="M734 343q0 -176 -90 -265.5t-255 -89.5q-164 0 -254 89.5t-90 265.5t90 265.5t254 89.5q60 0 111 -12h72q49 0 49 53v107h93v-107q0 -43 -24 -71.5t-69 -38.5q113 -90 113 -286zM620 348q-1 256 -231 256q-229 0 -230 -256v-12q0 -254 230 -254q231 0 231 254v12z
M387 853h114l1 -3l-82 -99h-87z" />
    <glyph glyph-name="uni1EDB" unicode="&#x1edb;" horiz-adv-x="573" 
d="M537 510q-22 -28 -63 -39q63 -67 63 -208q0 -140 -63 -207.5t-188 -67.5t-187.5 67.5t-62.5 207.5t62.5 207.5t187.5 67.5q53 0 95 -12h36q49 0 49 53v107h93v-107q0 -41 -22 -69zM431 268q0 96 -34.5 140.5t-110.5 44.5q-75 0 -109.5 -44.5t-34.5 -140.5v-10
q0 -96 34.5 -140.5t109.5 -44.5q76 0 110.5 44.5t34.5 140.5v10zM330 723h107l1 -3l-108 -129h-84z" />
    <glyph glyph-name="uni1EDC" unicode="&#x1edc;" horiz-adv-x="778" 
d="M734 343q0 -176 -90 -265.5t-255 -89.5q-164 0 -254 89.5t-90 265.5t90 265.5t254 89.5q60 0 111 -12h72q49 0 49 53v107h93v-107q0 -43 -24 -71.5t-69 -38.5q113 -90 113 -286zM620 348q-1 256 -231 256q-229 0 -230 -256v-12q0 -254 230 -254q231 0 231 254v12z
M269 850l1 3h104l64 -102h-87z" />
    <glyph glyph-name="uni1EDD" unicode="&#x1edd;" horiz-adv-x="573" 
d="M537 510q-22 -28 -63 -39q63 -67 63 -208q0 -140 -63 -207.5t-188 -67.5t-187.5 67.5t-62.5 207.5t62.5 207.5t187.5 67.5q53 0 95 -12h36q49 0 49 53v107h93v-107q0 -41 -22 -69zM431 268q0 96 -34.5 140.5t-110.5 44.5q-75 0 -109.5 -44.5t-34.5 -140.5v-10
q0 -96 34.5 -140.5t109.5 -44.5q76 0 110.5 44.5t34.5 140.5v10zM155 720l1 3h107l84 -132h-84z" />
    <glyph glyph-name="uni1EDE" unicode="&#x1ede;" horiz-adv-x="778" 
d="M734 343q0 -176 -90 -265.5t-255 -89.5q-164 0 -254 89.5t-90 265.5t90 265.5t254 89.5q60 0 111 -12h72q49 0 49 53v107h93v-107q0 -43 -24 -71.5t-69 -38.5q113 -90 113 -286zM620 348q-1 256 -231 256q-229 0 -230 -256v-12q0 -254 230 -254q231 0 231 254v12z
M357 810h13q16 0 23 4.5t7 13.5q0 10 -8 14t-24 4h-60v41q35 8 76 8q39 0 69 -13.5t30 -46.5q0 -26 -19 -40.5t-48 -16.5v-27h-59v59z" />
    <glyph glyph-name="uni1EDF" unicode="&#x1edf;" horiz-adv-x="573" 
d="M537 510q-22 -28 -63 -39q63 -67 63 -208q0 -140 -63 -207.5t-188 -67.5t-187.5 67.5t-62.5 207.5t62.5 207.5t187.5 67.5q53 0 95 -12h36q49 0 49 53v107h93v-107q0 -41 -22 -69zM431 268q0 96 -34.5 140.5t-110.5 44.5q-75 0 -109.5 -44.5t-34.5 -140.5v-10
q0 -96 34.5 -140.5t109.5 -44.5q76 0 110.5 44.5t34.5 140.5v10zM254 650h13q16 0 23 4.5t7 13.5q0 10 -8 14t-24 4h-60v41q35 8 76 8q39 0 69 -13.5t30 -46.5q0 -26 -19 -40.5t-48 -16.5v-27h-59v59z" />
    <glyph glyph-name="uni1EE0" unicode="&#x1ee0;" horiz-adv-x="778" 
d="M734 343q0 -176 -90 -265.5t-255 -89.5q-164 0 -254 89.5t-90 265.5t90 265.5t254 89.5q60 0 111 -12h72q49 0 49 53v107h93v-107q0 -43 -24 -71.5t-69 -38.5q113 -90 113 -286zM620 348q-1 256 -231 256q-229 0 -230 -256v-12q0 -254 230 -254q231 0 231 254v12z
M259.5 821.5q24.5 31.5 69.5 31.5q17 0 32 -4.5t39 -14.5q34 -14 48 -14q26 0 30 33h67q0 -47 -24.5 -78.5t-70.5 -31.5q-17 0 -33 5t-37 14q-3 1 -19.5 7.5t-29.5 6.5q-26 0 -30 -33h-66q0 47 24.5 78.5z" />
    <glyph glyph-name="uni1EE1" unicode="&#x1ee1;" horiz-adv-x="573" 
d="M197 613h-59q0 48 20 79t60 31q16 0 30 -4t39 -13q20 -8 33.5 -12t27.5 -4q23 0 27 33h60q0 -48 -20 -79t-61 -31q-16 0 -30 4t-37 13q-22 8 -35 12t-28 4q-23 0 -27 -33zM537 510q-22 -28 -63 -39q63 -67 63 -208q0 -140 -63 -207.5t-188 -67.5t-187.5 67.5t-62.5 207.5
t62.5 207.5t187.5 67.5q53 0 95 -12h36q49 0 49 53v107h93v-107q0 -41 -22 -69zM431 268q0 96 -34.5 140.5t-110.5 44.5q-75 0 -109.5 -44.5t-34.5 -140.5v-10q0 -96 34.5 -140.5t109.5 -44.5q76 0 110.5 44.5t34.5 140.5v10z" />
    <glyph glyph-name="uni1EE2" unicode="&#x1ee2;" horiz-adv-x="778" 
d="M734 343q0 -176 -90 -265.5t-255 -89.5q-164 0 -254 89.5t-90 265.5t90 265.5t254 89.5q60 0 111 -12h72q49 0 49 53v107h93v-107q0 -43 -24 -71.5t-69 -38.5q113 -90 113 -286zM620 348q-1 256 -231 256q-229 0 -230 -256v-12q0 -254 230 -254q231 0 231 254v12z
M351 -88h102v-94h-102v94z" />
    <glyph glyph-name="uni1EE3" unicode="&#x1ee3;" horiz-adv-x="573" 
d="M537 510q-22 -28 -63 -39q63 -67 63 -208q0 -140 -63 -207.5t-188 -67.5t-187.5 67.5t-62.5 207.5t62.5 207.5t187.5 67.5q53 0 95 -12h36q49 0 49 53v107h93v-107q0 -41 -22 -69zM431 268q0 96 -34.5 140.5t-110.5 44.5q-75 0 -109.5 -44.5t-34.5 -140.5v-10
q0 -96 34.5 -140.5t109.5 -44.5q76 0 110.5 44.5t34.5 140.5v10zM236 -78h102v-105h-102v105z" />
    <glyph glyph-name="uni1EE4" unicode="&#x1ee4;" horiz-adv-x="722" 
d="M149.5 54q-74.5 66 -74.5 200v432h111v-434q0 -83 45.5 -126.5t128.5 -43.5q84 0 130 43.5t46 126.5v434h111v-432q0 -134 -74.5 -200t-212.5 -66q-136 0 -210.5 66zM307 -88h102v-94h-102v94z" />
    <glyph glyph-name="uni1EE5" unicode="&#x1ee5;" horiz-adv-x="573" 
d="M65 169v357h103v-344q0 -59 26.5 -82.5t77.5 -23.5q35 0 65 17.5t47.5 49.5t17.5 74v309h103v-526h-83l-10 70h-7q-29 -40 -73 -61t-100 -21q-167 0 -167 181zM237 -78h102v-105h-102v105z" />
    <glyph glyph-name="uni1EE6" unicode="&#x1ee6;" horiz-adv-x="722" 
d="M149.5 54q-74.5 66 -74.5 200v432h111v-434q0 -83 45.5 -126.5t128.5 -43.5q84 0 130 43.5t46 126.5v434h111v-432q0 -134 -74.5 -200t-212.5 -66q-136 0 -210.5 66zM329 810h13q16 0 23 4.5t7 13.5q0 10 -8 14t-24 4h-60v41q35 8 76 8q39 0 69 -13.5t30 -46.5
q0 -26 -19 -40.5t-48 -16.5v-27h-59v59z" />
    <glyph glyph-name="uni1EE7" unicode="&#x1ee7;" horiz-adv-x="573" 
d="M65 169v357h103v-344q0 -59 26.5 -82.5t77.5 -23.5q35 0 65 17.5t47.5 49.5t17.5 74v309h103v-526h-83l-10 70h-7q-29 -40 -73 -61t-100 -21q-167 0 -167 181zM255 650h13q16 0 23 4.5t7 13.5q0 10 -8 14t-24 4h-60v41q35 8 76 8q39 0 69 -13.5t30 -46.5q0 -26 -19 -40.5
t-48 -16.5v-27h-59v59z" />
    <glyph glyph-name="uni1EE8" unicode="&#x1ee8;" horiz-adv-x="722" 
d="M761 846v-107q0 -48 -30 -78t-84 -36v-371q0 -134 -74.5 -200t-212.5 -66q-136 0 -210.5 66t-74.5 200v432h111v-434q0 -83 45.5 -126.5t128.5 -43.5q84 0 130 43.5t46 126.5v434h83q49 0 49 53v107h93zM359 853h114l1 -3l-82 -99h-87z" />
    <glyph glyph-name="uni1EE9" unicode="&#x1ee9;" horiz-adv-x="573" 
d="M617 686v-107q0 -47 -29.5 -77t-82.5 -36v-466h-83l-10 70h-7q-29 -40 -73 -61t-100 -21q-167 0 -167 181v357h103v-344q0 -59 26.5 -82.5t77.5 -23.5q35 0 65 17.5t47.5 49.5t17.5 74v309h73q49 0 49 53v107h93zM331 723h107l1 -3l-108 -129h-84z" />
    <glyph glyph-name="uni1EEA" unicode="&#x1eea;" horiz-adv-x="722" 
d="M761 846v-107q0 -48 -30 -78t-84 -36v-371q0 -134 -74.5 -200t-212.5 -66q-136 0 -210.5 66t-74.5 200v432h111v-434q0 -83 45.5 -126.5t128.5 -43.5q84 0 130 43.5t46 126.5v434h83q49 0 49 53v107h93zM241 850l1 3h104l64 -102h-87z" />
    <glyph glyph-name="uni1EEB" unicode="&#x1eeb;" horiz-adv-x="573" 
d="M617 686v-107q0 -47 -29.5 -77t-82.5 -36v-466h-83l-10 70h-7q-29 -40 -73 -61t-100 -21q-167 0 -167 181v357h103v-344q0 -59 26.5 -82.5t77.5 -23.5q35 0 65 17.5t47.5 49.5t17.5 74v309h73q49 0 49 53v107h93zM156 720l1 3h107l84 -132h-84z" />
    <glyph glyph-name="uni1EEC" unicode="&#x1eec;" horiz-adv-x="722" 
d="M761 846v-107q0 -48 -30 -78t-84 -36v-371q0 -134 -74.5 -200t-212.5 -66q-136 0 -210.5 66t-74.5 200v432h111v-434q0 -83 45.5 -126.5t128.5 -43.5q84 0 130 43.5t46 126.5v434h83q49 0 49 53v107h93zM329 810h13q16 0 23 4.5t7 13.5q0 10 -8 14t-24 4h-60v41
q35 8 76 8q39 0 69 -13.5t30 -46.5q0 -26 -19 -40.5t-48 -16.5v-27h-59v59z" />
    <glyph glyph-name="uni1EED" unicode="&#x1eed;" horiz-adv-x="573" 
d="M617 686v-107q0 -47 -29.5 -77t-82.5 -36v-466h-83l-10 70h-7q-29 -40 -73 -61t-100 -21q-167 0 -167 181v357h103v-344q0 -59 26.5 -82.5t77.5 -23.5q35 0 65 17.5t47.5 49.5t17.5 74v309h73q49 0 49 53v107h93zM255 650h13q16 0 23 4.5t7 13.5q0 10 -8 14t-24 4h-60v41
q35 8 76 8q39 0 69 -13.5t30 -46.5q0 -26 -19 -40.5t-48 -16.5v-27h-59v59z" />
    <glyph glyph-name="uni1EEE" unicode="&#x1eee;" horiz-adv-x="722" 
d="M761 846v-107q0 -48 -30 -78t-84 -36v-371q0 -134 -74.5 -200t-212.5 -66q-136 0 -210.5 66t-74.5 200v432h111v-434q0 -83 45.5 -126.5t128.5 -43.5q84 0 130 43.5t46 126.5v434h83q49 0 49 53v107h93zM231.5 821.5q24.5 31.5 69.5 31.5q17 0 32 -4.5t39 -14.5
q34 -14 48 -14q26 0 30 33h67q0 -47 -24.5 -78.5t-70.5 -31.5q-17 0 -33 5t-37 14q-3 1 -19.5 7.5t-29.5 6.5q-26 0 -30 -33h-66q0 47 24.5 78.5z" />
    <glyph glyph-name="uni1EEF" unicode="&#x1eef;" horiz-adv-x="573" 
d="M617 686v-107q0 -47 -29.5 -77t-82.5 -36v-466h-83l-10 70h-7q-29 -40 -73 -61t-100 -21q-167 0 -167 181v357h103v-344q0 -59 26.5 -82.5t77.5 -23.5q35 0 65 17.5t47.5 49.5t17.5 74v309h73q49 0 49 53v107h93zM145 692q22 31 67 31q18 0 33.5 -4t42.5 -13
q22 -8 37 -12t31 -4q26 0 30 33h67q0 -48 -22.5 -79t-67.5 -31q-18 0 -32.5 4t-42.5 13q-24 8 -38.5 12t-30.5 4q-26 0 -30 -33h-66q0 48 22 79z" />
    <glyph glyph-name="uni1EF0" unicode="&#x1ef0;" horiz-adv-x="722" 
d="M761 846v-107q0 -48 -30 -78t-84 -36v-371q0 -134 -74.5 -200t-212.5 -66q-136 0 -210.5 66t-74.5 200v432h111v-434q0 -83 45.5 -126.5t128.5 -43.5q84 0 130 43.5t46 126.5v434h83q49 0 49 53v107h93zM307 -88h102v-94h-102v94z" />
    <glyph glyph-name="uni1EF1" unicode="&#x1ef1;" horiz-adv-x="573" 
d="M617 686v-107q0 -47 -29.5 -77t-82.5 -36v-466h-83l-10 70h-7q-29 -40 -73 -61t-100 -21q-167 0 -167 181v357h103v-344q0 -59 26.5 -82.5t77.5 -23.5q35 0 65 17.5t47.5 49.5t17.5 74v309h73q49 0 49 53v107h93zM237 -78h102v-105h-102v105z" />
    <glyph glyph-name="Ygrave" unicode="&#x1ef2;" horiz-adv-x="667" 
d="M279 282l-268 404h130l194 -304h5l193 304h124l-267 -404v-282h-111v282zM218 850l1 3h104l64 -102h-87z" />
    <glyph glyph-name="ygrave" unicode="&#x1ef3;" horiz-adv-x="517" 
d="M50 -172v68h44q91 0 122 104l-204 526h108l98 -258q20 -51 51 -157h5q28 100 46 157l82 258h103l-174 -499q-36 -100 -81 -154.5t-123 -54.5q-49 0 -77 10zM132 720l1 3h107l84 -132h-84z" />
    <glyph glyph-name="uni1EF4" unicode="&#x1ef4;" horiz-adv-x="667" 
d="M279 282l-268 404h130l194 -304h5l193 304h124l-267 -404v-282h-111v282zM284 -88h102v-94h-102v94z" />
    <glyph glyph-name="uni1EF5" unicode="&#x1ef5;" horiz-adv-x="517" 
d="M50 -172v68h44q91 0 122 104l-204 526h108l98 -258q20 -51 51 -157h5q28 100 46 157l82 258h103l-174 -499q-36 -100 -81 -154.5t-123 -54.5q-49 0 -77 10zM366 -78h102v-105h-102v105z" />
    <glyph glyph-name="uni1EF6" unicode="&#x1ef6;" horiz-adv-x="667" 
d="M279 282l-268 404h130l194 -304h5l193 304h124l-267 -404v-282h-111v282zM306 810h13q16 0 23 4.5t7 13.5q0 10 -8 14t-24 4h-60v41q35 8 76 8q39 0 69 -13.5t30 -46.5q0 -26 -19 -40.5t-48 -16.5v-27h-59v59z" />
    <glyph glyph-name="uni1EF7" unicode="&#x1ef7;" horiz-adv-x="517" 
d="M50 -172v68h44q91 0 122 104l-204 526h108l98 -258q20 -51 51 -157h5q28 100 46 157l82 258h103l-174 -499q-36 -100 -81 -154.5t-123 -54.5q-49 0 -77 10zM231 650h13q16 0 23 4.5t7 13.5q0 10 -8 14t-24 4h-60v41q35 8 76 8q39 0 69 -13.5t30 -46.5q0 -26 -19 -40.5
t-48 -16.5v-27h-59v59z" />
    <glyph glyph-name="uni1EF8" unicode="&#x1ef8;" horiz-adv-x="667" 
d="M279 282l-268 404h130l194 -304h5l193 304h124l-267 -404v-282h-111v282zM208.5 821.5q24.5 31.5 69.5 31.5q17 0 32 -4.5t39 -14.5q34 -14 48 -14q26 0 30 33h67q0 -47 -24.5 -78.5t-70.5 -31.5q-17 0 -33 5t-37 14q-3 1 -19.5 7.5t-29.5 6.5q-26 0 -30 -33h-66
q0 47 24.5 78.5z" />
    <glyph glyph-name="uni1EF9" unicode="&#x1ef9;" horiz-adv-x="517" 
d="M50 -172v68h44q91 0 122 104l-204 526h108l98 -258q20 -51 51 -157h5q28 100 46 157l82 258h103l-174 -499q-36 -100 -81 -154.5t-123 -54.5q-49 0 -77 10zM121 692q22 31 67 31q18 0 33.5 -4t42.5 -13q22 -8 37 -12t31 -4q26 0 30 33h67q0 -48 -22.5 -79t-67.5 -31
q-18 0 -32.5 4t-42.5 13q-24 8 -38.5 12t-30.5 4q-26 0 -30 -33h-66q0 48 22 79z" />
    <glyph glyph-name="uni2002" unicode="&#x2002;" horiz-adv-x="600" 
 />
    <glyph glyph-name="uni2003" unicode="&#x2003;" horiz-adv-x="1000" 
 />
    <glyph glyph-name="uni2004" unicode="&#x2004;" horiz-adv-x="333" 
 />
    <glyph glyph-name="uni2005" unicode="&#x2005;" horiz-adv-x="250" 
 />
    <glyph glyph-name="uni2009" unicode="&#x2009;" horiz-adv-x="178" 
 />
    <glyph glyph-name="uni2010" unicode="&#x2010;" horiz-adv-x="600" 
d="M36 322h261v-104h-261v104z" />
    <glyph glyph-name="uni2011" unicode="&#x2011;" horiz-adv-x="333" 
d="M36 322h261v-104h-261v104z" />
    <glyph glyph-name="endash" unicode="&#x2013;" 
d="M0 311h556v-82h-556v82z" />
    <glyph glyph-name="emdash" unicode="&#x2014;" horiz-adv-x="1000" 
d="M0 311h1000v-82h-1000v82z" />
    <glyph glyph-name="uni2015" unicode="&#x2015;" horiz-adv-x="1000" 
d="M100 311h800v-82h-800v82z" />
    <glyph glyph-name="underscoredbl" unicode="&#x2017;" horiz-adv-x="552" 
d="M0 -68h552v-65h-552v65zM0 -181h552v-65h-552v65z" />
    <glyph glyph-name="quoteleft" unicode="&#x2018;" horiz-adv-x="239" 
d="M67 535l54 151h58l-45 -141h45v-117h-112v107z" />
    <glyph glyph-name="quoteright" unicode="&#x2019;" horiz-adv-x="239" 
d="M105 569h-45v117h112v-107l-54 -151h-58z" />
    <glyph glyph-name="quotesinglbase" unicode="&#x201a;" horiz-adv-x="239" 
d="M108 0h-44v117h111v-107l-53 -151h-58z" />
    <glyph glyph-name="quotereversed" unicode="&#x201b;" horiz-adv-x="239" 
d="M67 579v107h112v-117h-45l45 -141h-58z" />
    <glyph glyph-name="quotedblleft" unicode="&#x201c;" horiz-adv-x="384" 
d="M48 535l54 151h58l-44 -141h44v-117h-112v107zM222 535l53 151h59l-45 -141h45v-117h-112v107z" />
    <glyph glyph-name="quotedblright" unicode="&#x201d;" horiz-adv-x="384" 
d="M95 569h-44v117h111v-107l-53 -151h-58zM269 569h-45v117h112v-107l-54 -151h-58z" />
    <glyph glyph-name="quotedblbase" unicode="&#x201e;" horiz-adv-x="384" 
d="M95 0h-44v117h111v-107l-53 -151h-58zM269 0h-45v117h112v-107l-54 -151h-58z" />
    <glyph glyph-name="dagger" unicode="&#x2020;" 
d="M247 429l-205 -18v99l205 -17l-17 193h94l-17 -193l206 17v-99l-206 18l20 -600h-100z" />
    <glyph glyph-name="daggerdbl" unicode="&#x2021;" 
d="M247 23l-205 -17v99l205 -18l-20 173l20 169l-205 -18v99l205 -17l-17 193h94l-17 -193l206 17v-99l-206 18l20 -169l-20 -173l206 18v-99l-206 17l17 -194h-94z" />
    <glyph glyph-name="bullet" unicode="&#x2022;" horiz-adv-x="350" 
d="M111.5 233q-29.5 17 -46.5 46.5t-17 63.5t17 63.5t46.5 47t63.5 17.5t63.5 -17.5t47 -47t17.5 -63.5t-17.5 -63.5t-47 -46.5t-63.5 -17t-63.5 17z" />
    <glyph glyph-name="ellipsis" unicode="&#x2026;" horiz-adv-x="1000" 
d="M111 117h112v-117h-112v117zM444 117h112v-117h-112v117zM776 117h112v-117h-112v117z" />
    <glyph glyph-name="perthousand" unicode="&#x2030;" horiz-adv-x="1000" 
d="M53.5 377.5q-35.5 40.5 -35.5 139.5q0 100 35.5 140.5t106.5 40.5t106.5 -40.5t35.5 -140.5t-35 -140t-107 -40q-71 0 -106.5 40.5zM489 686h73l-376 -686h-71zM205.5 429.5q11.5 26.5 11.5 82.5v10q0 56 -11.5 83t-45.5 27q-33 0 -45 -27t-12 -83v-10q0 -55 12 -82
t45 -27q34 0 45.5 26.5zM409 27.5q-36 40.5 -36 139.5q0 100 35.5 140.5t107.5 40.5q71 0 106 -40.5t35 -140.5t-35 -140t-106 -40t-107 40.5zM733 27.5q-36 40.5 -36 139.5q0 100 35.5 140.5t107.5 40.5q71 0 106 -40.5t35 -140.5t-35 -140t-106 -40t-107 40.5zM561 80
q12 27 12 82v10q0 56 -12 83t-45 27q-34 0 -46 -27t-12 -83v-10q0 -55 12 -82t46 -27q33 0 45 27zM885 80q12 27 12 82v10q0 56 -12 83t-45 27t-45 -27t-12 -83v-10q0 -55 12 -82t45 -27t45 27z" />
    <glyph glyph-name="minute" unicode="&#x2032;" horiz-adv-x="203" 
d="M80 686h109l1 -3l-54 -171h-86z" />
    <glyph glyph-name="second" unicode="&#x2033;" horiz-adv-x="392" 
d="M80 686h109l1 -3l-54 -171h-86zM240 686h109l1 -3l-54 -171h-86z" />
    <glyph glyph-name="guilsinglleft" unicode="&#x2039;" horiz-adv-x="333" 
d="M56 326l151 200h79l-122 -200l122 -200h-79z" />
    <glyph glyph-name="guilsinglright" unicode="&#x203a;" horiz-adv-x="333" 
d="M169 326l-122 200h79l151 -200l-151 -200h-79z" />
    <glyph glyph-name="exclamdbl" unicode="&#x203c;" horiz-adv-x="525" 
d="M314 686h126l-29 -507h-68zM321 117h112v-117h-112v117zM85 686h126l-29 -507h-68zM92 117h112v-117h-112v117z" />
    <glyph glyph-name="uni203E" unicode="&#x203e;" horiz-adv-x="333" 
d="M-15 867h364v-77h-364v77z" />
    <glyph glyph-name="fraction" unicode="&#x2044;" horiz-adv-x="167" 
d="M328 698h76l-546 -710h-76z" />
    <glyph glyph-name="uni2052" unicode="&#x2052;" horiz-adv-x="732" 
d="M601 698h76l-546 -710h-76zM115 686h111v-117h-111v117zM506 117h111v-117h-111v117z" />
    <glyph glyph-name="uni2070" unicode="&#x2070;" horiz-adv-x="333" 
d="M66.5 469q-34.5 42 -34.5 143q0 100 34 143t98 43q68 0 103 -42t35 -144q0 -101 -34.5 -143t-100.5 -42t-100.5 42zM218.5 513q13.5 27 13.5 90v15q0 64 -13.5 92t-51.5 28q-37 0 -50.5 -26.5t-13.5 -89.5v-16q0 -65 13.5 -92.5t50.5 -27.5q38 0 51.5 27z" />
    <glyph glyph-name="uni2074" unicode="&#x2074;" horiz-adv-x="333" 
d="M188 513h-155v55q56 98 87 231h73q-14 -59 -42 -124t-51 -102h88v81q16 37 27 86h42v-167h44v-60h-44v-79h-69v79z" />
    <glyph glyph-name="uni2075" unicode="&#x2075;" horiz-adv-x="333" 
d="M73 459q-35 32 -35 87h70q0 -28 16.5 -44t42.5 -16t41.5 17t15.5 50q0 30 -16.5 45t-44.5 15t-52 -22l-61 9l15 186h212v-62h-154l-5 -67q28 15 64 15q50 0 81.5 -30.5t31.5 -88.5q0 -60 -34 -93t-94 -33q-59 0 -94 32z" />
    <glyph glyph-name="uni2076" unicode="&#x2076;" horiz-adv-x="333" 
d="M65 469q-35 42 -35 133q0 99 37.5 147.5t102.5 48.5q61 0 90.5 -32.5t29.5 -79.5h-70q0 52 -53 52q-69 0 -71 -111q12 15 34.5 26.5t50.5 11.5q61 0 91 -31.5t30 -85.5q0 -52 -36 -86.5t-95 -34.5q-71 0 -106 42zM214 504q17 18 17 46t-17 44.5t-45 16.5q-29 0 -46.5 -17
t-17.5 -45q0 -27 17.5 -45t46.5 -18q28 0 45 18z" />
    <glyph glyph-name="uni2077" unicode="&#x2077;" horiz-adv-x="333" 
d="M121.5 585q33.5 71 88.5 139h-175v62h261v-46q-59 -70 -97 -137t-38 -135q0 -18 1 -34h-74q0 80 33.5 151z" />
    <glyph glyph-name="uni2078" unicode="&#x2078;" horiz-adv-x="333" 
d="M69.5 458q-31.5 30 -31.5 79q0 58 53 83q-22 13 -33.5 33t-11.5 43q0 45 31 74t89 29t89 -29t31 -74q0 -22 -12 -42t-33 -34q26 -13 40 -35t14 -48q0 -49 -32 -79t-97 -30t-96.5 30zM203.5 659.5q13.5 12.5 13.5 34.5t-13.5 34t-37.5 12t-37.5 -12t-13.5 -34t13.5 -34.5
t37.5 -12.5t37.5 12.5zM209.5 500.5q15.5 13.5 15.5 37.5t-15.5 37t-43.5 13q-29 0 -44 -13t-15 -37t15 -37.5t44 -13.5q28 0 43.5 13.5z" />
    <glyph glyph-name="uni2079" unicode="&#x2079;" horiz-adv-x="333" 
d="M72.5 459.5q-29.5 32.5 -29.5 79.5h70q0 -52 53 -52q69 0 71 111q-12 -16 -33.5 -27t-49.5 -11q-61 0 -92 31t-31 84q0 52 36.5 87.5t95.5 35.5q71 0 105.5 -42t34.5 -133q0 -99 -37.5 -147.5t-102.5 -48.5q-61 0 -90.5 32.5zM210.5 631q17.5 17 17.5 45q0 27 -17.5 45
t-46.5 18q-28 0 -45 -18t-17 -46t17 -44.5t45 -16.5q29 0 46.5 17z" />
    <glyph glyph-name="uni207F" unicode="&#x207f;" horiz-adv-x="374" 
d="M45 728h60l7 -46h4q37 54 107 54q109 0 109 -118v-235h-73v226q0 38 -16 53t-46 15q-33 0 -56 -25.5t-23 -65.5v-203h-73v345z" />
    <glyph glyph-name="uni2080" unicode="&#x2080;" horiz-adv-x="333" 
d="M66.5 -131q-34.5 42 -34.5 143q0 100 34 143t98 43q68 0 103 -42t35 -144q0 -101 -34.5 -143t-100.5 -42t-100.5 42zM218.5 -87q13.5 27 13.5 90v15q0 64 -13.5 92t-51.5 28q-37 0 -50.5 -26.5t-13.5 -89.5v-16q0 -65 13.5 -92.5t50.5 -27.5q38 0 51.5 27z" />
    <glyph glyph-name="uni2081" unicode="&#x2081;" horiz-adv-x="333" 
d="M52 -105h86v208h-86v45q26 2 61 13t61 25h34v-291h78v-61h-234v61z" />
    <glyph glyph-name="uni2082" unicode="&#x2082;" horiz-adv-x="333" 
d="M41 -142q0 42 25.5 72t74.5 65q26 19 41 31.5t25 25.5q16 21 16 42q0 18 -12 31.5t-39 13.5q-29 0 -43 -14t-14 -38v-23h-68q-2 14 -2 25q0 55 36.5 82.5t92.5 27.5q57 0 87.5 -29.5t30.5 -77.5q0 -33 -15.5 -59t-35 -42.5t-58.5 -45.5q-6 -4 -20.5 -14.5t-23.5 -19
t-13 -15.5h168v-62h-253v24z" />
    <glyph glyph-name="uni2083" unicode="&#x2083;" horiz-adv-x="333" 
d="M72 -143.5q-34 29.5 -34 81.5v12h69v-13q0 -25 15 -38t44 -13q60 0 60 51q0 49 -63 49h-31v60h33q23 0 39 12t16 35t-14.5 34.5t-37.5 11.5q-24 0 -39 -12t-15 -36v-12h-69v17q0 46 34 74t88 28q56 0 89 -26.5t33 -75.5q0 -26 -13.5 -44t-38.5 -32v-2q60 -27 60 -85
q0 -49 -35.5 -77.5t-92.5 -28.5q-63 0 -97 29.5z" />
    <glyph glyph-name="uni2084" unicode="&#x2084;" horiz-adv-x="333" 
d="M188 -87h-155v55q56 98 87 231h73q-14 -59 -42 -124t-51 -102h88v81q16 37 27 86h42v-167h44v-60h-44v-79h-69v79z" />
    <glyph glyph-name="uni2085" unicode="&#x2085;" horiz-adv-x="333" 
d="M73 -141q-35 32 -35 87h70q0 -28 16.5 -44t42.5 -16t41.5 17t15.5 50q0 30 -16.5 45t-44.5 15t-52 -22l-61 9l15 186h212v-62h-154l-5 -67q28 15 64 15q50 0 81.5 -30.5t31.5 -88.5q0 -60 -34 -93t-94 -33q-59 0 -94 32z" />
    <glyph glyph-name="uni2086" unicode="&#x2086;" horiz-adv-x="333" 
d="M65 -131q-35 42 -35 133q0 99 37.5 147.5t102.5 48.5q61 0 90.5 -32.5t29.5 -79.5h-70q0 52 -53 52q-69 0 -71 -111q12 15 34.5 26.5t50.5 11.5q61 0 91 -31.5t30 -85.5q0 -52 -36 -86.5t-95 -34.5q-71 0 -106 42zM214 -96q17 18 17 46t-17 44.5t-45 16.5
q-29 0 -46.5 -17t-17.5 -45q0 -27 17.5 -45t46.5 -18q28 0 45 18z" />
    <glyph glyph-name="uni2087" unicode="&#x2087;" horiz-adv-x="333" 
d="M121.5 -15q33.5 71 88.5 139h-175v62h261v-46q-59 -70 -97 -137t-38 -135q0 -18 1 -34h-74q0 80 33.5 151z" />
    <glyph glyph-name="uni2088" unicode="&#x2088;" horiz-adv-x="333" 
d="M69.5 -142q-31.5 30 -31.5 79q0 58 53 83q-22 13 -33.5 33t-11.5 43q0 45 31 74t89 29t89 -29t31 -74q0 -22 -12 -42t-33 -34q26 -13 40 -35t14 -48q0 -49 -32 -79t-97 -30t-96.5 30zM203.5 59.5q13.5 12.5 13.5 34.5t-13.5 34t-37.5 12t-37.5 -12t-13.5 -34t13.5 -34.5
t37.5 -12.5t37.5 12.5zM209.5 -99.5q15.5 13.5 15.5 37.5t-15.5 37t-43.5 13q-29 0 -44 -13t-15 -37t15 -37.5t44 -13.5q28 0 43.5 13.5z" />
    <glyph glyph-name="uni2089" unicode="&#x2089;" horiz-adv-x="333" 
d="M72.5 -140.5q-29.5 32.5 -29.5 79.5h70q0 -52 53 -52q69 0 71 111q-12 -16 -33.5 -27t-49.5 -11q-61 0 -92 31t-31 84q0 52 36.5 87.5t95.5 35.5q71 0 105.5 -42t34.5 -133q0 -99 -37.5 -147.5t-102.5 -48.5q-61 0 -90.5 32.5zM210.5 31q17.5 17 17.5 45q0 27 -17.5 45
t-46.5 18q-28 0 -45 -18t-17 -46t17 -44.5t45 -16.5q29 0 46.5 17z" />
    <glyph glyph-name="uni2099" unicode="&#x2099;" horiz-adv-x="374" 
d="M45 248h60l7 -46h4q37 54 107 54q109 0 109 -118v-235h-73v226q0 38 -16 53t-46 15q-33 0 -56 -25.5t-23 -65.5v-203h-73v345z" />
    <glyph glyph-name="colonmonetary" unicode="&#x20a1;" horiz-adv-x="722" 
d="M507.5 123.5q41.5 41.5 41.5 124.5h109q0 -130 -73 -195t-206 -65q-18 0 -50 2l-29 -78h-54l32 86q-40 10 -67 23l-41 -109h-54l51 137q-102 84 -102 294q0 180 76.5 267.5t237.5 87.5q20 0 30 -1l28 75h54l-30 -81q39 -8 68 -22l38 103h54l-49 -130q86 -67 86 -206h-113
q0 54 -16 89l-165 -443h16q86 0 127.5 41.5zM210 164l164 440q-72 -1 -114.5 -28t-61.5 -82t-19 -145v-11q0 -116 31 -174zM312 89l180 483q-25 20 -65 28l-180 -482q26 -20 65 -29z" />
    <glyph glyph-name="franc" unicode="&#x20a3;" horiz-adv-x="591" 
d="M186 591v-203h322v-95h-322v-107h205v-65h-205v-121h-111v121h-65v65h65v500h470v-95h-359z" />
    <glyph glyph-name="lira" unicode="&#x20a4;" 
d="M32 89h71v111h-85v78h85v69h-85v78h85v74q0 98 54 148.5t152 50.5q206 0 206 -194v-13h-103v16q0 53 -26.5 79.5t-76.5 26.5q-102 0 -102 -99v-89h162v-78h-164v-69h164v-78h-164l-12 -111h320v-89h-481v89z" />
    <glyph glyph-name="uni20A6" unicode="&#x20a6;" horiz-adv-x="710" 
d="M627 384v-76h67v-72h-67v-236h-100l-313 451l-30 44l-5 -1l1 -51v-443h-105v236h-59v72h59v76h-59v72h59v230h102l312 -446l29 -43l5 2l-1 50v437h105v-230h67v-72h-67z" />
    <glyph glyph-name="peseta" unicode="&#x20a7;" horiz-adv-x="681" 
d="M676 437h-72q-10 -84 -67.5 -133t-152.5 -49h-198v-255h-111v437h-65v65h65v184h312q98 0 154 -49t64 -135h71v-65zM186 502h306q-8 43 -36 66t-76 23h-194v-89zM453 373q29 23 38 64h-305v-87h194q44 0 73 23z" />
    <glyph glyph-name="uni20A9" unicode="&#x20a9;" horiz-adv-x="944" 
d="M928 290h-118l-77 -290h-139l-62 290h-121l-61 -290h-139l-77 290h-118v72h98l-86 324h117l81 -324h111l65 324h148l68 -324h112l79 324h107l-86 -324h98v-72zM517 362l-23 106q-9 39 -21 107h-5q-12 -74 -19 -107l-22 -106h90zM322 290h-78l17 -69q7 -25 23 -102h5
l19 102zM712 290h-79l14 -69l20 -102h5q16 76 23 102z" />
    <glyph glyph-name="dong" unicode="&#x20ab;" horiz-adv-x="573" 
d="M568 593h-66v-528h-79l-10 70h-7q-25 -40 -67 -61t-92 -21q-94 0 -147.5 63.5t-53.5 173.5t53.5 173t147.5 63q44 0 85 -20t64 -52h6v139h-145v65h145v65h100v-65h66v-65zM402 293q0 73 -35 113t-94 40t-90 -39.5t-31 -112.5v-9q0 -73 31 -112.5t90 -39.5q62 0 95.5 39.5
t33.5 112.5v8zM46 0h456v-65h-456v65z" />
    <glyph glyph-name="Euro" unicode="&#x20ac;" 
d="M208 53.5q-88 65.5 -116 184.5h-76v70h66q-1 11 -1 35q0 23 1 35h-66v70h76q28 119 116 184.5t220 65.5q48 0 93 -12v-83q-40 10 -76 10q-88 0 -152.5 -42t-88.5 -123h246v-70h-260q-2 -22 -2 -35t2 -35h260v-70h-246q24 -81 88.5 -123t152.5 -42q36 0 76 10v-83
q-51 -12 -93 -12q-132 0 -220 65.5z" />
    <glyph glyph-name="uni20AD" unicode="&#x20ad;" horiz-adv-x="664" 
d="M344 307l306 -307h-135l-294 307h-35v-307h-111v307h-59v72h59v307h111v-307h35l294 307h135l-306 -307h270v-72h-270z" />
    <glyph glyph-name="uni20B1" unicode="&#x20b1;" horiz-adv-x="681" 
d="M676 491h-71q1 -6 1 -19q0 -15 -1 -23h71v-65h-84q-23 -61 -76.5 -95t-131.5 -34h-198v-255h-111v384h-65v65h65v42h-65v65h65v130h312q81 0 133.5 -34t72.5 -96h83v-65zM463.5 382.5q30.5 32.5 30.5 89.5t-29 88t-85 31h-194v-241h194q53 0 83.5 32.5z" />
    <glyph glyph-name="uni20B2" unicode="&#x20b2;" horiz-adv-x="738" 
d="M396 362h274v-362h-82l-9 76q-38 -41 -80.5 -62t-102.5 -25v-68h-51v67q-154 4 -227 91.5t-73 263.5q0 173 73 260t227 94v56h51v-55q128 -5 201 -67.5t73 -178.5h-113q0 72 -41.5 109.5t-119.5 41.5v-241zM203 147q43 -60 142 -64v520q-100 -7 -142.5 -67.5
t-42.5 -187.5v-11q0 -130 43 -190zM396 268v-185q87 6 125.5 50t38.5 129v6h-164z" />
    <glyph glyph-name="uni20B5" unicode="&#x20b5;" horiz-adv-x="722" 
d="M507.5 123.5q41.5 41.5 41.5 124.5h109q0 -130 -73 -195t-206 -65q-65 0 -118 14l-34 -90h-54l40 108q-75 37 -111.5 116.5t-36.5 206.5q0 180 76.5 267.5t237.5 87.5q42 0 84 -8l31 82h54l-36 -96q70 -28 108 -88t38 -152h-113q0 108 -68 146l-182 -489q38 -11 85 -11
q86 0 127.5 41.5zM195.5 199q16.5 -54 53.5 -82l181 482q-25 5 -50 5q-75 0 -118.5 -26.5t-63 -82t-19.5 -146.5v-11q0 -85 16.5 -139z" />
    <glyph glyph-name="uni20B9" unicode="&#x20b9;" horiz-adv-x="617" 
d="M451 614q27 -34 38 -86h116v-72h-111q-5 -93 -63.5 -147t-158.5 -54h-70l286 -255h-152l-282 255v95h214q49 0 79 28.5t34 77.5h-326v72h318q-25 63 -105 63h-214v95h551v-72h-154z" />
    <glyph glyph-name="uni20BA" unicode="&#x20ba;" horiz-adv-x="533" 
d="M503 271v-41q0 -111 -65 -170.5t-183 -59.5h-180v210l-65 -36v76l65 36v58l-65 -36v76l65 36v266h111v-206l189 104v-76l-189 -104v-58l189 104v-76l-189 -104v-174h69q68 0 103 33.5t35 97.5v44h110z" />
    <glyph glyph-name="uni20BC" unicode="&#x20bc;" horiz-adv-x="765" 
d="M622.5 603q73.5 -88 73.5 -254v-349h-114v341q0 133 -42 194.5t-135 67.5v-482h-51v482q-89 -8 -130.5 -68t-41.5 -187v-348h-113v349q0 165 72 253t213 95v76h51v-76q144 -6 217.5 -94z" />
    <glyph glyph-name="uni20BD" unicode="&#x20bd;" horiz-adv-x="681" 
d="M186 255v-79h205v-65h-205v-111h-111v111h-65v65h65v79h-65v95h65v336h312q107 0 163 -57.5t56 -156.5t-58.5 -158t-163.5 -59h-198zM186 350h194q53 0 83.5 32.5t30.5 89.5t-29 88t-85 31h-194v-241z" />
    <glyph glyph-name="uni2105" unicode="&#x2105;" horiz-adv-x="885" 
d="M85 361q-40 46 -40 145q0 98 40.5 145t122.5 47q71 0 108.5 -39t37.5 -115h-85q0 44 -14.5 65t-46.5 21q-41 0 -59.5 -27t-18.5 -92v-10q0 -65 18.5 -92t59.5 -27q65 0 65 86h81q0 -69 -37.5 -111t-108.5 -42q-83 0 -123 46zM647 698h77l-501 -710h-77zM505 180
q0 192 168 192q167 0 167 -192t-167 -192q-168 0 -168 192zM736.5 83.5q20.5 27.5 20.5 91.5v10q0 64 -20.5 92t-63.5 28t-63 -27.5t-20 -92.5v-10q0 -65 20 -92t63 -27t63.5 27.5z" />
    <glyph glyph-name="uni2113" unicode="&#x2113;" horiz-adv-x="374" 
d="M114.5 38q-37.5 50 -38.5 131v9l-40 -34v76q26 24 39 37v251q0 119 41.5 173t102.5 54q56 0 86 -41t30 -112q0 -148 -175 -335v-49q0 -68 23.5 -100t60.5 -32q41 0 78 30v-82q-43 -26 -91 -26q-79 0 -116.5 50zM269 583q0 82 -46 82q-27 0 -45 -37.5t-18 -119.5v-171
q109 141 109 246z" />
    <glyph glyph-name="uni2116" unicode="&#x2116;" horiz-adv-x="1086" 
d="M746 352q-41 48 -41 149t41 149t123 48q163 0 163 -197t-163 -197q-82 0 -123 48zM75 686h102l314 -438q17 -23 33 -50l5 2l-1 64v422h105v-686h-100l-317 445q-8 11 -17.5 27t-14.5 23l-5 -2l1 -59v-434h-105v686zM925 402.5q17 28.5 17 93.5v10q0 65 -17 93.5t-56 28.5
t-56.5 -28.5t-17.5 -93.5v-10q0 -65 17.5 -93.5t56.5 -28.5t56 28.5zM720 264h299v-73h-299v73z" />
    <glyph glyph-name="uni2117" unicode="&#x2117;" horiz-adv-x="737" 
d="M190.5 36q-81.5 48 -129.5 129.5t-48 177.5t48 177.5t129.5 129.5t177.5 48t177.5 -48t129.5 -129.5t48 -177.5t-48 -177.5t-129.5 -129.5t-177.5 -48t-177.5 48zM519 80.5q69 40.5 109.5 110t40.5 152.5q0 82 -40.5 151.5t-109.5 110.5t-151 41t-151 -41t-109.5 -110.5
t-40.5 -151.5q0 -83 40.5 -152.5t109.5 -110t151 -40.5t151 40.5zM236 550h190q62 0 94.5 -33.5t32.5 -90.5q0 -66 -38.5 -97.5t-100.5 -31.5h-107v-159h-71v412zM416 356q30 0 47.5 18.5t17.5 51.5q0 32 -16.5 48.5t-48.5 16.5h-109v-135h109z" />
    <glyph glyph-name="trademark" unicode="&#x2122;" horiz-adv-x="1000" 
d="M220 621h-141v66h352v-66h-140v-339h-71v339zM482 687h108l103 -312h4l104 312h106v-406h-70v318h-5l-108 -318h-66l-108 321h-4v-321h-64v406z" />
    <glyph glyph-name="uni2126" unicode="&#x2126;" horiz-adv-x="765" 
d="M36 96h43q18 0 44 -3l50 -4q-124 91 -124 260q0 170 87.5 259.5t245.5 89.5t246 -89.5t88 -259.5q0 -85 -33 -150.5t-93 -109.5q16 0 46 4q9 1 21 2t28 1h44v-96h-316v83q96 18 142.5 75t46.5 177v6q0 138 -56 200.5t-164 62.5q-107 0 -163.5 -61.5t-56.5 -194.5v-13
q0 -120 46.5 -176.5t141.5 -75.5v-83h-314v96z" />
    <glyph glyph-name="estimated" unicode="&#x212e;" horiz-adv-x="600" 
d="M165.5 23.5q-58.5 35.5 -89.5 97.5t-31 142t31 142t89.5 97.5t136.5 35.5t136 -36.5t89.5 -101.5t31.5 -147v-5h-406v-165q58 -53 149 -53q65 0 114.5 29t75.5 80l34 -21q-32 -61 -89.5 -95.5t-134.5 -34.5q-78 0 -136.5 35.5zM451 290v151q-60 55 -149 55
q-90 0 -149 -54v-152h298z" />
    <glyph glyph-name="uni2153" unicode="&#x2153;" horiz-adv-x="833" 
d="M52 395h86v208h-86v45q26 2 61 13t61 25h34v-291h78v-61h-234v61zM661 698h76l-546 -710h-76zM572 15.5q-34 29.5 -34 81.5v12h69v-13q0 -25 15 -38t44 -13q60 0 60 51q0 49 -63 49h-31v60h33q23 0 39 12t16 35t-14.5 34.5t-37.5 11.5q-24 0 -39 -12t-15 -36v-12h-69v17
q0 46 34 74t88 28q56 0 89 -26.5t33 -75.5q0 -26 -13.5 -44t-38.5 -32v-2q60 -27 60 -85q0 -49 -35.5 -77.5t-92.5 -28.5q-63 0 -97 29.5z" />
    <glyph glyph-name="uni2154" unicode="&#x2154;" horiz-adv-x="833" 
d="M41 358q0 42 25.5 72t74.5 65q26 19 41 31.5t25 25.5q16 21 16 42q0 18 -12 31.5t-39 13.5q-29 0 -43 -14t-14 -38v-23h-68q-2 14 -2 25q0 55 36.5 82.5t92.5 27.5q57 0 87.5 -29.5t30.5 -77.5q0 -33 -15.5 -59t-35 -42.5t-58.5 -45.5q-6 -4 -20.5 -14.5t-23.5 -19
t-13 -15.5h168v-62h-253v24zM661 698h76l-546 -710h-76zM572 15.5q-34 29.5 -34 81.5v12h69v-13q0 -25 15 -38t44 -13q60 0 60 51q0 49 -63 49h-31v60h33q23 0 39 12t16 35t-14.5 34.5t-37.5 11.5q-24 0 -39 -12t-15 -36v-12h-69v17q0 46 34 74t88 28q56 0 89 -26.5
t33 -75.5q0 -26 -13.5 -44t-38.5 -32v-2q60 -27 60 -85q0 -49 -35.5 -77.5t-92.5 -28.5q-63 0 -97 29.5z" />
    <glyph glyph-name="oneeighth" unicode="&#x215b;" horiz-adv-x="833" 
d="M52 395h86v208h-86v45q26 2 61 13t61 25h34v-291h78v-61h-234v61zM661 698h76l-546 -710h-76zM569.5 16q-31.5 30 -31.5 79q0 58 53 83q-22 13 -33.5 33t-11.5 43q0 45 31 74t89 29t89 -29t31 -74q0 -22 -12 -42t-33 -34q26 -13 40 -35t14 -48q0 -49 -32 -79t-97 -30
t-96.5 30zM703.5 217.5q13.5 12.5 13.5 34.5t-13.5 34t-37.5 12t-37.5 -12t-13.5 -34t13.5 -34.5t37.5 -12.5t37.5 12.5zM709.5 58.5q15.5 13.5 15.5 37.5t-15.5 37t-43.5 13q-29 0 -44 -13t-15 -37t15 -37.5t44 -13.5q28 0 43.5 13.5z" />
    <glyph glyph-name="threeeighths" unicode="&#x215c;" horiz-adv-x="833" 
d="M72 356.5q-34 29.5 -34 81.5v12h69v-13q0 -25 15 -38t44 -13q60 0 60 51q0 49 -63 49h-31v60h33q23 0 39 12t16 35t-14.5 34.5t-37.5 11.5q-24 0 -39 -12t-15 -36v-12h-69v17q0 46 34 74t88 28q56 0 89 -26.5t33 -75.5q0 -26 -13.5 -44t-38.5 -32v-2q60 -27 60 -85
q0 -49 -35.5 -77.5t-92.5 -28.5q-63 0 -97 29.5zM661 698h76l-546 -710h-76zM569.5 16q-31.5 30 -31.5 79q0 58 53 83q-22 13 -33.5 33t-11.5 43q0 45 31 74t89 29t89 -29t31 -74q0 -22 -12 -42t-33 -34q26 -13 40 -35t14 -48q0 -49 -32 -79t-97 -30t-96.5 30zM703.5 217.5
q13.5 12.5 13.5 34.5t-13.5 34t-37.5 12t-37.5 -12t-13.5 -34t13.5 -34.5t37.5 -12.5t37.5 12.5zM709.5 58.5q15.5 13.5 15.5 37.5t-15.5 37t-43.5 13q-29 0 -44 -13t-15 -37t15 -37.5t44 -13.5q28 0 43.5 13.5z" />
    <glyph glyph-name="fiveeighths" unicode="&#x215d;" horiz-adv-x="833" 
d="M73 359q-35 32 -35 87h70q0 -28 16.5 -44t42.5 -16t41.5 17t15.5 50q0 30 -16.5 45t-44.5 15t-52 -22l-61 9l15 186h212v-62h-154l-5 -67q28 15 64 15q50 0 81.5 -30.5t31.5 -88.5q0 -60 -34 -93t-94 -33q-59 0 -94 32zM661 698h76l-546 -710h-76zM569.5 16
q-31.5 30 -31.5 79q0 58 53 83q-22 13 -33.5 33t-11.5 43q0 45 31 74t89 29t89 -29t31 -74q0 -22 -12 -42t-33 -34q26 -13 40 -35t14 -48q0 -49 -32 -79t-97 -30t-96.5 30zM703.5 217.5q13.5 12.5 13.5 34.5t-13.5 34t-37.5 12t-37.5 -12t-13.5 -34t13.5 -34.5t37.5 -12.5
t37.5 12.5zM709.5 58.5q15.5 13.5 15.5 37.5t-15.5 37t-43.5 13q-29 0 -44 -13t-15 -37t15 -37.5t44 -13.5q28 0 43.5 13.5z" />
    <glyph glyph-name="seveneighths" unicode="&#x215e;" horiz-adv-x="792" 
d="M121.5 485q33.5 71 88.5 139h-175v62h261v-46q-59 -70 -97 -137t-38 -135q0 -18 1 -34h-74q0 80 33.5 151zM621 698h76l-546 -710h-76zM529.5 16q-31.5 30 -31.5 79q0 58 53 83q-22 13 -33.5 33t-11.5 43q0 45 31 74t89 29t89 -29t31 -74q0 -22 -12 -42t-33 -34
q26 -13 40 -35t14 -48q0 -49 -32 -79t-97 -30t-96.5 30zM663.5 217.5q13.5 12.5 13.5 34.5t-13.5 34t-37.5 12t-37.5 -12t-13.5 -34t13.5 -34.5t37.5 -12.5t37.5 12.5zM669.5 58.5q15.5 13.5 15.5 37.5t-15.5 37t-43.5 13q-29 0 -44 -13t-15 -37t15 -37.5t44 -13.5
q28 0 43.5 13.5z" />
    <glyph glyph-name="arrowleft" unicode="&#x2190;" horiz-adv-x="1000" 
d="M42 242v21l197 166h45l-56 -135h732v-84h-732l56 -134h-45z" />
    <glyph glyph-name="arrowup" unicode="&#x2191;" horiz-adv-x="500" 
d="M209 525l-135 -57v45l166 197h21l166 -197v-45l-134 57v-733h-84v733z" />
    <glyph glyph-name="arrowright" unicode="&#x2192;" horiz-adv-x="1000" 
d="M774 210h-733v84h733l-57 135h45l197 -166v-21l-197 -166h-45z" />
    <glyph glyph-name="arrowdown" unicode="&#x2193;" horiz-adv-x="500" 
d="M74 -11v45l135 -56v732h84v-732l135 56v-45l-167 -197h-21z" />
    <glyph glyph-name="arrowboth" unicode="&#x2194;" horiz-adv-x="1000" 
d="M42 242v21l197 166h45l-53 -134h543l-57 134h45l197 -166v-21l-197 -166h-45l57 134h-543l53 -134h-45z" />
    <glyph glyph-name="arrowupdn" unicode="&#x2195;" horiz-adv-x="500" 
d="M73 -9v45l134 -57v543l-134 -53v45l166 197h21l166 -197v-45l-135 53v-543l135 57v-45l-166 -197h-21z" />
    <glyph glyph-name="arrowupdnbse" unicode="&#x21a8;" horiz-adv-x="500" 
d="M73 72v45l134 -56v461l-134 -53v45l166 197h21l166 -197v-45l-135 53v-461l135 56v-45l-166 -197h-21zM72 -173h355v-60h-355v60z" />
    <glyph glyph-name="partialdiff" unicode="&#x2202;" horiz-adv-x="494" 
d="M122 17q-39 29 -59 78.5t-20 108.5q0 73 26 129t69.5 86t92.5 30q44 0 74 -21.5t43 -46.5h4q1 6 1 34q0 67 -19 122.5t-52.5 87.5t-74.5 32q-57 0 -104 -34v83q53 29 118 29q61 0 112.5 -37.5t83 -116.5t31.5 -198q0 -187 -60 -291t-172 -104q-55 0 -94 29zM305 135.5
q33 65.5 40 157.5q-10 31 -35.5 55.5t-61.5 24.5q-29 0 -53 -23.5t-38 -63t-14 -85.5q0 -59 21.5 -95t58.5 -36q49 0 82 65.5z" />
    <glyph glyph-name="emptyset" unicode="&#x2205;" 
d="M29 144l54 56q-25 31 -37.5 70t-12.5 81q0 67 34 124t90.5 90t120.5 33q40 0 78.5 -13.5t66.5 -37.5l57 56l48 -48l-55 -54q25 -28 37.5 -67.5t12.5 -82.5q0 -67 -34 -124.5t-90.5 -91t-120.5 -33.5q-42 0 -81 14t-68 41l-55 -58zM366 492q-41 27 -88 27
q-44 0 -81.5 -23.5t-59.5 -62t-22 -82.5q0 -48 25 -89zM359.5 204.5q37.5 23.5 59.5 62.5t22 84q0 51 -28 93l-231 -230q42 -33 96 -33q44 0 81.5 23.5z" />
    <glyph glyph-name="uni2206" unicode="&#x2206;" horiz-adv-x="683" 
d="M272 686h139l267 -686h-673zM523 95l-18 48l-17 44l-104 279q-22 59 -43 121h-5l-43 -121l-103 -280q-25 -63 -35 -91h368z" />
    <glyph glyph-name="product" unicode="&#x220f;" horiz-adv-x="823" 
d="M137 629h-96v94h741v-94h-98v-757h-109v757h-328v-757h-110v757z" />
    <glyph glyph-name="summation" unicode="&#x2211;" horiz-adv-x="713" 
d="M59 -54l310 353l-300 343v81h602v-92h-450v-4l277 -312l-300 -340v-4h492v-99h-631v74z" />
    <glyph glyph-name="minus" unicode="&#x2212;" horiz-adv-x="584" 
d="M56 300h472v-89h-472v89z" />
    <glyph glyph-name="uni2215" unicode="&#x2215;" horiz-adv-x="167" 
d="M318 698h76l-546 -710h-76z" />
    <glyph glyph-name="uni2219" unicode="&#x2219;" horiz-adv-x="350" 
d="M123 210q-19 19 -19 45t19 45t45 19t45 -19t19 -45t-19 -45t-45 -19t-45 19z" />
    <glyph glyph-name="radical" unicode="&#x221a;" horiz-adv-x="549" 
d="M124 285l-72 -28l-22 66l165 69l120 -327q11 -30 25 -79l135 871h73l-162 -1005h-96z" />
    <glyph glyph-name="infinity" unicode="&#x221e;" horiz-adv-x="713" 
d="M88 185q-41 44 -41 112t42 112.5t109 44.5q47 0 85.5 -25t74.5 -70q36 44 72.5 69.5t84.5 25.5q66 0 108 -44t42 -111q0 -69 -41.5 -113.5t-107.5 -44.5q-88 0 -161 95q-37 -45 -74.5 -70t-85.5 -25q-66 0 -107 44zM255 237q26 21 54 59q-31 41 -55.5 60.5t-55.5 19.5
q-29 0 -50 -23t-21 -57q0 -33 21 -56.5t51 -23.5t56 21zM564.5 240q20.5 24 20.5 55q0 34 -21 57.5t-51 23.5q-29 0 -53.5 -19t-57.5 -60q32 -42 58 -61.5t55 -19.5t49.5 24z" />
    <glyph glyph-name="orthogonal" unicode="&#x221f;" horiz-adv-x="979" 
d="M177 625h79v-552h546v-73h-625v625z" />
    <glyph glyph-name="intersection" unicode="&#x2229;" horiz-adv-x="720" 
d="M94 410q0 73 35.5 134t96.5 96.5t133 35.5t133.5 -35.5t97 -96.5t35.5 -134v-410h-79v411q0 52 -25 95t-67.5 68t-93.5 25t-94 -25t-68 -68t-25 -95v-411h-79v410z" />
    <glyph glyph-name="integral" unicode="&#x222b;" horiz-adv-x="274" 
d="M30 -85q82 0 82 58q-27 629 -27 774q0 65 44 88.5t123 23.5v-55q-84 0 -84 -57q28 -632 28 -776q0 -65 -43.5 -88.5t-122.5 -23.5v56z" />
    <glyph glyph-name="approxequal" unicode="&#x2248;" horiz-adv-x="549" 
d="M35 366q21 30 57 51t81 21q24 0 46 -7.5t54 -22.5q31 -15 54 -22.5t48 -7.5q40 0 76.5 21t62.5 51v-101q-21 -30 -57 -51t-82 -21q-24 0 -46 7.5t-54 22.5q-31 15 -54 22.5t-48 7.5q-40 0 -76 -21t-62 -51v101zM35 153q21 30 57 51t81 21q24 0 46 -7.5t54 -22.5
q31 -15 54 -22.5t48 -7.5q40 0 76.5 21t62.5 51v-101q-21 -30 -57 -51t-82 -21q-24 0 -46 7.5t-54 22.5q-31 15 -54 22.5t-48 7.5q-40 0 -76 -21t-62 -51v101z" />
    <glyph glyph-name="notequal" unicode="&#x2260;" horiz-adv-x="549" 
d="M157 103h-119v89h167l65 123h-232v90h280l43 79h72l-42 -79h120v-90h-168l-66 -123h234v-89h-281l-42 -78h-72z" />
    <glyph glyph-name="equivalence" unicode="&#x2261;" horiz-adv-x="583" 
d="M57 525h472v-90h-472v90zM57 312h472v-90h-472v90zM57 99h472v-89h-472v89z" />
    <glyph glyph-name="lessequal" unicode="&#x2264;" horiz-adv-x="549" 
d="M38 320v113l473 197v-99l-386 -154l386 -155v-98zM38 89h473v-89h-473v89z" />
    <glyph glyph-name="greaterequal" unicode="&#x2265;" horiz-adv-x="549" 
d="M38 222l386 155l-386 154v99l473 -197v-113l-473 -196v98zM38 89h473v-89h-473v89z" />
    <glyph glyph-name="house" unicode="&#x2302;" horiz-adv-x="604" 
d="M77 310l225 253l225 -253v-310h-450v310zM479 49v241l-177 199l-177 -199v-241h354z" />
    <glyph glyph-name="revlogicalnot" unicode="&#x2310;" horiz-adv-x="584" 
d="M52 454h481v-95h-393v-163h-88v258z" />
    <glyph glyph-name="integraltp" unicode="&#x2320;" horiz-adv-x="604" 
d="M253 747q0 65 44 88.5t123 23.5v-55q-84 0 -84 -57l17 -997h-86q-14 880 -14 997z" />
    <glyph glyph-name="integralbt" unicode="&#x2321;" horiz-adv-x="604" 
d="M184 -195q84 0 84 57l-17 997h86q14 -880 14 -997q0 -65 -44 -88.5t-123 -23.5v55z" />
    <glyph glyph-name="lozenge" unicode="&#x25ca;" horiz-adv-x="589" 
d="M54 298l179 429h114l178 -429l-178 -430h-114zM424 298l-134 340l-134 -340l134 -341z" />
    <glyph glyph-name="uni27E8" unicode="&#x27e8;" horiz-adv-x="527" 
d="M55 235l297 354h119l-299 -354l300 -355h-119z" />
    <glyph glyph-name="uni27E9" unicode="&#x27e9;" horiz-adv-x="527" 
d="M355 234l-300 355h119l298 -355l-297 -354h-119z" />
    <glyph glyph-name="uniA78B" unicode="&#xa78b;" horiz-adv-x="187" 
d="M47 686h110v-105l-49 -373h-61v478z" />
    <glyph glyph-name="uniA78C" unicode="&#xa78c;" horiz-adv-x="169" 
d="M47 723h102v-115l-42 -320h-60v435z" />
    <glyph glyph-name="uniE0FF" unicode="&#xe0ff;" horiz-adv-x="600" 
 />
    <glyph glyph-name="uniEFFD" unicode="&#xeffd;" horiz-adv-x="600" 
 />
    <glyph glyph-name="uniF000" unicode="&#xf000;" horiz-adv-x="600" 
 />
    <glyph glyph-name="uniFEFF" unicode="&#xfeff;" horiz-adv-x="0" 
 />
    <glyph glyph-name="NULL" horiz-adv-x="0" 
 />
    <glyph glyph-name="uni00A40301" horiz-adv-x="795" 
d="M84 686h111v-686h-111v686zM138 853h114l1 -3l-82 -99h-87zM360 38.5q-54 50.5 -54 147.5v31h110v-34q0 -49 25 -75t73 -26t73 28.5t25 83.5v492h110v-489q0 -104 -53.5 -156.5t-154.5 -52.5q-100 0 -154 50.5zM664 853h114l1 -3l-82 -99h-87z" />
    <glyph glyph-name="Y.loclGUA" horiz-adv-x="667" 
d="M142.5 31q-67.5 43 -67.5 129v8h111q0 -41 38.5 -63.5t102.5 -22.5q154 0 154 161v49h-6q-52 -91 -182 -91q-106 0 -162 57t-56 172v256h111v-261q0 -64 33 -97t96 -33q78 0 122 49.5t44 143.5v198h111v-433q0 -136 -68 -200.5t-199 -64.5q-115 0 -182.5 43z" />
    <glyph glyph-name="Yacute.loclGUA" horiz-adv-x="667" 
d="M142.5 31q-67.5 43 -67.5 129v8h111q0 -41 38.5 -63.5t102.5 -22.5q154 0 154 161v49h-6q-52 -91 -182 -91q-106 0 -162 57t-56 172v256h111v-261q0 -64 33 -97t96 -33q78 0 122 49.5t44 143.5v198h111v-433q0 -136 -68 -200.5t-199 -64.5q-115 0 -182.5 43zM325 853h114
l1 -3l-82 -99h-87z" />
    <glyph glyph-name="Ycircumflex.loclGUA" horiz-adv-x="667" 
d="M142.5 31q-67.5 43 -67.5 129v8h111q0 -41 38.5 -63.5t102.5 -22.5q154 0 154 161v49h-6q-52 -91 -182 -91q-106 0 -162 57t-56 172v256h111v-261q0 -64 33 -97t96 -33q78 0 122 49.5t44 143.5v198h111v-433q0 -136 -68 -200.5t-199 -64.5q-115 0 -182.5 43zM279 853h96
l105 -105h-97l-56 46l-57 -46h-97z" />
    <glyph glyph-name="Ydieresis.loclGUA" horiz-adv-x="667" 
d="M142.5 31q-67.5 43 -67.5 129v8h111q0 -41 38.5 -63.5t102.5 -22.5q154 0 154 161v49h-6q-52 -91 -182 -91q-106 0 -162 57t-56 172v256h111v-261q0 -64 33 -97t96 -33q78 0 122 49.5t44 143.5v198h111v-433q0 -136 -68 -200.5t-199 -64.5q-115 0 -182.5 43zM181 883h97
v-102h-97v102zM375 883h97v-102h-97v102z" />
    <glyph glyph-name="Ygrave.loclGUA" horiz-adv-x="667" 
d="M142.5 31q-67.5 43 -67.5 129v8h111q0 -41 38.5 -63.5t102.5 -22.5q154 0 154 161v49h-6q-52 -91 -182 -91q-106 0 -162 57t-56 172v256h111v-261q0 -64 33 -97t96 -33q78 0 122 49.5t44 143.5v198h111v-433q0 -136 -68 -200.5t-199 -64.5q-115 0 -182.5 43zM207 850l1 3
h104l64 -102h-87z" />
    <glyph glyph-name="uni0232.loclGUA" horiz-adv-x="667" 
d="M142.5 31q-67.5 43 -67.5 129v8h111q0 -41 38.5 -63.5t102.5 -22.5q154 0 154 161v49h-6q-52 -91 -182 -91q-106 0 -162 57t-56 172v256h111v-261q0 -64 33 -97t96 -33q78 0 122 49.5t44 143.5v198h111v-433q0 -136 -68 -200.5t-199 -64.5q-115 0 -182.5 43zM174 837h305
v-77h-305v77z" />
    <glyph glyph-name="uni1EF8.loclGUA" horiz-adv-x="667" 
d="M142.5 31q-67.5 43 -67.5 129v8h111q0 -41 38.5 -63.5t102.5 -22.5q154 0 154 161v49h-6q-52 -91 -182 -91q-106 0 -162 57t-56 172v256h111v-261q0 -64 33 -97t96 -33q78 0 122 49.5t44 143.5v198h111v-433q0 -136 -68 -200.5t-199 -64.5q-115 0 -182.5 43zM197.5 821.5
q24.5 31.5 69.5 31.5q17 0 32 -4.5t39 -14.5q34 -14 48 -14q26 0 30 33h67q0 -47 -24.5 -78.5t-70.5 -31.5q-17 0 -33 5t-37 14q-3 1 -19.5 7.5t-29.5 6.5q-26 0 -30 -33h-66q0 47 24.5 78.5z" />
    <glyph glyph-name="Cacute.loclPLK" horiz-adv-x="722" 
d="M130 76q-85 88 -85 267q0 178 85 266.5t249 88.5q134 0 216.5 -67t82.5 -195h-113q0 81 -50 124.5t-135 43.5q-113 0 -166.5 -61.5t-54.5 -193.5v-11q0 -133 54 -194.5t167 -61.5q88 0 138.5 42.5t50.5 123.5h109q0 -129 -82 -194.5t-217 -65.5q-164 0 -249 88zM345 913
h105l1 -2l-48 -160h-85z" />
    <glyph glyph-name="Nacute.loclPLK" horiz-adv-x="722" 
d="M75 686h102l332 -446q11 -15 29 -43l5 2l-1 50v437h105v-686h-100l-333 451q-8 10 -17 24t-13 20l-5 -1l1 -51v-443h-105v686zM336 913h105l1 -2l-48 -160h-85z" />
    <glyph glyph-name="Oacute.loclPLK" horiz-adv-x="778" 
d="M135 77.5q-90 89.5 -90 265.5t90 265.5t254 89.5q165 0 255 -89.5t90 -265.5t-90 -265.5t-255 -89.5q-164 0 -254 89.5zM620 336v12q-1 256 -231 256q-229 0 -230 -256v-12q0 -254 230 -254q231 0 231 254zM359 913h105l1 -2l-48 -160h-85z" />
    </font>
</defs>
</svg>
