<?xml version="1.0" standalone="no"?>
<!DOCTYPE svg PUBLIC "-//W3C//DTD SVG 1.1//EN" "http://www.w3.org/Graphics/SVG/1.1/DTD/svg11.dtd" >
<svg xmlns="http://www.w3.org/2000/svg" xmlns:xlink="http://www.w3.org/1999/xlink" version="1.1">
<metadata>
Created by FontForge 20170731 at Thu Jul 11 13:56:11 2019
 By Aleksey,,,
Copyright 2019 The Archivo Narrow Project Authors (https://github.com/Omnibus-Type/ArchivoNarrow)
</metadata>
<defs>
<font id="ArchivoNarrow-Bold" horiz-adv-x="456" >
  <font-face 
    font-family="Archivo Narrow"
    font-weight="700"
    font-stretch="normal"
    units-per-em="1000"
    panose-1="2 11 8 6 2 2 2 2 11 4"
    ascent="800"
    descent="-200"
    x-height="526"
    cap-height="686"
    bbox="-573 -263 1072 1050"
    underline-thickness="50"
    underline-position="-150"
    unicode-range="U+000D-FEFF"
  />
<missing-glyph horiz-adv-x="500" 
d="M0 700h500v-700h-500v700zM420 650h-340l170 -255zM220 350l-170 255v-510zM450 605l-170 -255l170 -255v510zM420 50l-170 255l-170 -255h340z" />
    <glyph glyph-name="fi" unicode="fi" horiz-adv-x="501" 
d="M62 425h-53v101h53v64q0 60 29 100.5t95 40.5q20 0 45.5 -3.5t41.5 -8.5v-89h-49q-20 0 -31 -11t-11 -32v-61h91v-101h-91v-425h-120v425zM327 526h120v-526h-120v526zM326 723h121v-115h-121v115z" />
    <glyph glyph-name="fl" unicode="fl" horiz-adv-x="501" 
d="M62 425h-53v101h53v64q0 60 29 100.5t95 40.5q20 0 45.5 -3.5t41.5 -8.5v-89h-49q-20 0 -31 -11t-11 -32v-61h91v-101h-91v-425h-120v425zM327 723h120v-723h-120v723z" />
    <glyph glyph-name="f_f" unicode="ff" horiz-adv-x="546" 
d="M62 425h-53v101h53v64q0 60 29 100.5t95 40.5q20 0 45.5 -3.5t41.5 -8.5v-89h-49q-20 0 -31 -11t-11 -32v-61h91v-101h-91v-425h-120v425zM335 425h-53v101h53v64q0 60 29 100.5t95 40.5q20 0 45.5 -3.5t41.5 -8.5v-89h-49q-20 0 -31 -11t-11 -32v-61h91v-101h-91v-425
h-120v425z" />
    <glyph glyph-name="f_f_i" unicode="ffi" horiz-adv-x="774" 
d="M62 425h-53v101h53v64q0 60 29 100.5t95 40.5q20 0 45.5 -3.5t41.5 -8.5v-89h-49q-20 0 -31 -11t-11 -32v-61h91v-101h-91v-425h-120v425zM335 425h-53v101h53v64q0 60 29 100.5t95 40.5q20 0 45.5 -3.5t41.5 -8.5v-89h-49q-20 0 -31 -11t-11 -32v-61h91v-101h-91v-425
h-120v425zM600 526h120v-526h-120v526zM599 723h121v-115h-121v115z" />
    <glyph glyph-name="f_f_l" unicode="ffl" horiz-adv-x="774" 
d="M62 425h-53v101h53v64q0 60 29 100.5t95 40.5q20 0 45.5 -3.5t41.5 -8.5v-89h-49q-20 0 -31 -11t-11 -32v-61h91v-101h-91v-425h-120v425zM335 425h-53v101h53v64q0 60 29 100.5t95 40.5q20 0 45.5 -3.5t41.5 -8.5v-89h-49q-20 0 -31 -11t-11 -32v-61h91v-101h-91v-425
h-120v425zM600 723h120v-723h-120v723z" />
    <glyph glyph-name=".notdef" horiz-adv-x="500" 
d="M0 700h500v-700h-500v700zM420 650h-340l170 -255zM220 350l-170 255v-510zM450 605l-170 -255l170 -255v510zM420 50l-170 255l-170 -255h340z" />
    <glyph glyph-name="uni0000" horiz-adv-x="600" 
 />
    <glyph glyph-name="uni0000" horiz-adv-x="600" 
 />
    <glyph glyph-name="nonmarkingreturn" unicode="&#xd;" horiz-adv-x="228" 
 />
    <glyph glyph-name="space" unicode=" " horiz-adv-x="228" 
 />
    <glyph glyph-name="exclam" unicode="!" horiz-adv-x="273" 
d="M60 686h153l-36 -489h-82zM68 137h138v-137h-138v137z" />
    <glyph glyph-name="quotedbl" unicode="&#x22;" horiz-adv-x="389" 
d="M45 539v147h122v-147l-21 -132h-79zM226 539v147h122v-147l-21 -132h-79z" />
    <glyph glyph-name="numbersign" unicode="#" 
d="M68 195h-63v84h82l31 141h-74v84h93l44 194h88l-44 -194h75l44 194h88l-44 -194h62v-84h-81l-31 -141h73v-84h-92l-44 -195h-88l44 195h-75l-44 -195h-88zM250 279l31 141h-75l-31 -141h75z" />
    <glyph glyph-name="dollar" unicode="$" 
d="M198 69q-78 7 -121.5 51.5t-43.5 114.5l1 12h110v-7q0 -32 15 -52t39 -27v143q-49 14 -81 28.5t-54 45t-22 80.5q0 69 43 110t114 48v107h55v-106q68 -6 111 -44t43 -98l-1 -23h-110v10q0 48 -43 64v-129q52 -14 85.5 -28.5t57.5 -46t24 -84.5q0 -157 -167 -169v-118h-55
v118zM198 526q-21 -7 -34 -22t-13 -36q0 -20 12 -32.5t35 -21.5v112zM294 181q16 16 16 42q0 23 -14.5 37.5t-42.5 25.5v-127q25 6 41 22z" />
    <glyph glyph-name="percent" unicode="%" horiz-adv-x="729" 
d="M69.5 377.5q-34.5 40.5 -34.5 139.5t34.5 140t103.5 41t103.5 -41t34.5 -140t-34.5 -139.5t-103.5 -40.5t-103.5 40.5zM532 686h86l-419 -686h-85zM211.5 435.5q10.5 25.5 10.5 74.5v15q0 49 -10.5 74.5t-38.5 25.5t-38.5 -25.5t-10.5 -74.5v-15q0 -49 10.5 -74.5
t38.5 -25.5t38.5 25.5zM453.5 28.5q-34.5 40.5 -34.5 139.5t34.5 140t103.5 41t103.5 -41t34.5 -140t-34.5 -139.5t-103.5 -40.5t-103.5 40.5zM595.5 86.5q10.5 25.5 10.5 74.5v15q0 49 -10.5 74.5t-38.5 25.5t-38.5 -25.5t-10.5 -74.5v-15q0 -49 10.5 -74.5t38.5 -25.5
t38.5 25.5z" />
    <glyph glyph-name="ampersand" unicode="&#x26;" horiz-adv-x="592" 
d="M440 0l-32 43q-72 -56 -162 -56q-67 0 -113.5 26.5t-69.5 71t-23 96.5q0 60 30 116.5t85 93.5q-43 66 -43 136q0 47 21 86t61 62t95 23q74 0 113.5 -40.5t39.5 -102.5q0 -56 -32.5 -111.5t-90.5 -89.5l92 -128q17 56 17 132h110q0 -135 -56 -231l91 -127h-133zM242 578.5
q-14 -18.5 -14 -48.5q0 -24 8 -50.5t22 -47.5q31 15 51 48.5t20 66.5q0 22 -11.5 36t-34.5 14q-27 0 -41 -18.5zM349 124l-134 184q-26 -18 -40.5 -49t-14.5 -66q0 -44 24 -74t69 -30q55 0 96 35z" />
    <glyph glyph-name="quotesingle" unicode="'" horiz-adv-x="195" 
d="M37 539v147h122v-147l-21 -132h-79z" />
    <glyph glyph-name="parenleft" unicode="(" horiz-adv-x="273" 
d="M68.5 50q-38.5 115 -38.5 238t38.5 239t110.5 208h79q-52 -97 -85 -215t-33 -230t33 -231t85 -216h-79q-72 92 -110.5 207z" />
    <glyph glyph-name="parenright" unicode=")" horiz-adv-x="273" 
d="M100 59q33 119 33 231t-33 230t-85 215h79q72 -92 110.5 -208t38.5 -239t-38.5 -238t-110.5 -207h-79q52 97 85 216z" />
    <glyph glyph-name="asterisk" unicode="*" horiz-adv-x="319" 
d="M131 483l-84 -60l-39 68l93 42l-93 44l39 66l84 -59l-10 102h78l-10 -101l84 58l39 -66l-93 -44l93 -42l-39 -68l-84 60l10 -102h-78z" />
    <glyph glyph-name="plus" unicode="+" horiz-adv-x="479" 
d="M187 203h-154v104h154v204h103v-204h155v-104h-155v-203h-103v203z" />
    <glyph glyph-name="comma" unicode="," horiz-adv-x="228" 
d="M100 0h-55v137h138v-125l-66 -168h-72z" />
    <glyph glyph-name="hyphen" unicode="-" horiz-adv-x="273" 
d="M16 329h241v-118h-241v118z" />
    <glyph glyph-name="period" unicode="." horiz-adv-x="228" 
d="M45 137h138v-137h-138v137z" />
    <glyph glyph-name="slash" unicode="/" horiz-adv-x="228" 
d="M143 735h85l-141 -784h-86z" />
    <glyph glyph-name="zero" unicode="0" 
d="M119 19.5q-43 31.5 -66 109.5t-23 214t23 214t66 109.5t109 31.5q65 0 108.5 -32t66.5 -110t23 -213t-23 -213t-66.5 -110t-108.5 -32q-66 0 -109 31.5zM273.5 112q15.5 23 21.5 69.5t6 126.5v70q0 80 -6 126.5t-21.5 69.5t-45.5 23t-45.5 -23t-21.5 -69.5t-6 -126.5v-70
q0 -80 6 -126.5t21.5 -69.5t45.5 -23t45.5 23z" />
    <glyph glyph-name="one" unicode="1" 
d="M40 101h154v428h-155v80q44 5 107 26.5t109 50.5h59v-585h141v-101h-415v101z" />
    <glyph glyph-name="two" unicode="2" 
d="M33 24q0 52 19.5 98.5t54.5 92.5q27 34 63 73q44 49 68.5 80.5t41.5 70.5t17 82q0 29 -15 51.5t-48 22.5q-35 0 -52 -29t-17 -75v-41h-123q-3 17 -3 40q0 104 56.5 156t143.5 52q82 0 133 -44t51 -134q0 -58 -25 -113.5t-58.5 -99.5t-84.5 -103q-44 -50 -51 -60
q-15 -20 -21 -32h243v-112h-393v24z" />
    <glyph glyph-name="three" unicode="3" 
d="M78 43.5q-53 55.5 -53 150.5v18h125v-21q0 -49 19.5 -75.5t56.5 -26.5q35 0 55 25.5t20 75.5q0 108 -82 108h-33v101h35q30 0 49 27.5t19 78.5q0 92 -63 92q-31 0 -47.5 -24t-16.5 -72v-19h-125v28q0 56 24 98.5t66.5 66t97.5 23.5q87 0 138 -49t51 -139
q0 -57 -23.5 -93.5t-65.5 -60.5v-4q46 -17 73.5 -60t27.5 -108q0 -90 -55 -143t-143 -53q-97 0 -150 55.5z" />
    <glyph glyph-name="four" unicode="4" 
d="M255 155h-247v96q52 91 96.5 209t76.5 238h120q-17 -82 -53.5 -172.5t-74.5 -164t-61 -105.5h143v154q19 38 38 91t29 95h53v-340h70v-101h-70v-155h-120v155z" />
    <glyph glyph-name="five" unicode="5" 
d="M85 48.5q-55 60.5 -55 164.5h125q0 -58 20.5 -91.5t56.5 -33.5q35 0 56 35t21 101q0 58 -19.5 91t-50.5 33q-48 0 -74 -58l-116 16l23 380h332v-112h-226l-10 -162q42 34 98 34q74 0 120.5 -56.5t46.5 -165.5q0 -112 -53.5 -174t-147.5 -62q-92 0 -147 60.5z" />
    <glyph glyph-name="six" unicode="6" 
d="M82.5 64.5q-52.5 76.5 -52.5 258.5q0 139 23 222t66.5 118t108.5 35q91 0 135.5 -61t44.5 -162h-123q0 61 -14 91.5t-47 30.5q-30 0 -44.5 -26t-19.5 -71t-6 -123q17 26 45 40t61 14q81 0 123.5 -61t42.5 -160q0 -67 -24.5 -117.5t-67.5 -77.5t-97 -27
q-102 0 -154.5 76.5zM284.5 122.5q17.5 33.5 17.5 87.5q0 57 -17.5 90t-52.5 33t-53 -33t-18 -90q0 -54 18 -87.5t53 -33.5t52.5 33.5z" />
    <glyph glyph-name="seven" unicode="7" 
d="M157.5 306.5q58.5 152.5 145.5 267.5h-280v112h410v-81q-85 -128 -143.5 -270t-58.5 -284q0 -27 1 -51h-133q0 154 58.5 306.5z" />
    <glyph glyph-name="eight" unicode="8" 
d="M79 43.5q-49 55.5 -49 144.5q0 120 88 164q-37 24 -55.5 64.5t-18.5 90.5q0 83 48 137t136 54t136 -54t48 -137q0 -50 -19 -90.5t-56 -64.5q89 -44 89 -164q0 -89 -49 -144.5t-149 -55.5t-149 55.5zM274.5 425.5q16.5 25.5 16.5 73.5t-16.5 73.5t-46.5 25.5t-46 -25
t-16 -74t16 -74t46 -25t46.5 25.5zM283 115q19 27 19 79t-19 79.5t-55 27.5t-55 -27.5t-19 -79.5t19 -79t55 -27t55 27z" />
    <glyph glyph-name="nine" unicode="9" 
d="M92.5 49q-44.5 61 -44.5 162h123q0 -61 14 -91.5t47 -30.5q30 0 44.5 26t19.5 71t6 123q-17 -26 -45 -40t-61 -14q-81 0 -123.5 61t-42.5 160q0 67 24.5 117.5t67.5 77.5t97 27q102 0 154.5 -76.5t52.5 -258.5q0 -139 -23 -222t-66.5 -118t-108.5 -35q-91 0 -135.5 61z
M277 386q18 33 18 90q0 54 -18 87.5t-53 33.5t-52.5 -33.5t-17.5 -87.5q0 -57 17.5 -90t52.5 -33t53 33z" />
    <glyph glyph-name="colon" unicode=":" horiz-adv-x="273" 
d="M55 526h138v-137h-138v137zM55 137h138v-137h-138v137z" />
    <glyph glyph-name="semicolon" unicode=";" horiz-adv-x="273" 
d="M55 526h138v-137h-138v137zM109 0h-55v137h138v-125l-66 -168h-72z" />
    <glyph glyph-name="less" unicode="&#x3c;" horiz-adv-x="479" 
d="M34 197v127l412 207v-118l-311 -152l311 -152v-118z" />
    <glyph glyph-name="equal" unicode="=" horiz-adv-x="479" 
d="M33 412h412v-104h-412v104zM33 199h412v-103h-412v103z" />
    <glyph glyph-name="greater" unicode="&#x3e;" horiz-adv-x="479" 
d="M34 109l311 152l-311 152v118l412 -207v-127l-412 -206v118z" />
    <glyph glyph-name="question" unicode="?" horiz-adv-x="501" 
d="M202 240q0 39 14.5 66.5t43.5 62.5q31 37 46.5 66.5t15.5 73.5q0 27 -15 54.5t-55 27.5q-44 0 -60.5 -32.5t-16.5 -72.5l1 -27h-126q-3 24 -3 35q0 57 24 103.5t72 73.5t117 27q88 0 140.5 -49t52.5 -129q0 -65 -18.5 -103t-53.5 -78q-27 -31 -40 -55t-13 -59v-28h-126
v43zM197 137h138v-137h-138v137z" />
    <glyph glyph-name="at" unicode="@" horiz-adv-x="800" 
d="M117.5 -51q-92.5 102 -92.5 313q0 153 51.5 250.5t138.5 141.5t197 44q166 0 265 -92.5t99 -284.5q0 -106 -30.5 -173t-76 -96.5t-92.5 -29.5q-46 0 -68.5 16t-35.5 47h-5q-22 -32 -49 -47.5t-71 -15.5q-45 0 -82.5 30.5t-37.5 103.5q0 91 62 129t175 38v50
q0 28 -10.5 43.5t-39.5 15.5q-31 0 -44 -14.5t-13 -35.5v-13h-106q-1 5 -1 20q0 59 44 95.5t117 36.5q82 0 122.5 -36.5t40.5 -104.5v-228q0 -38 30 -38q40 0 69 50t29 158q0 156 -78 231.5t-214 75.5q-148 0 -230.5 -93t-82.5 -275q0 -173 69 -259t213 -86q35 0 85 9.5
t75 22.5v-74q-29 -11 -77.5 -19t-82.5 -8q-170 0 -262.5 102zM447.5 142q17.5 29 17.5 75v27q-125 0 -125 -78q0 -25 13 -39t40 -14q37 0 54.5 29z" />
    <glyph glyph-name="A" unicode="A" horiz-adv-x="592" 
d="M221 686h149l221 -686h-131l-42 135h-253l-41 -135h-124zM383 249l-69 229q-10 34 -20 93h-4q-10 -63 -20 -93l-70 -229h183z" />
    <glyph glyph-name="B" unicode="B" horiz-adv-x="592" 
d="M60 686h295q54 0 96.5 -21.5t66.5 -60t24 -88.5q0 -57 -29.5 -98.5t-75.5 -57.5v-4q53 -16 87 -62t34 -110q0 -56 -27.5 -97.5t-73.5 -64t-102 -22.5h-295v686zM320 408q44 0 67.5 24t23.5 61q0 38 -23 58.5t-62 20.5h-138v-164h132zM334 114q41 0 67 22.5t26 63.5
q0 42 -25.5 68.5t-73.5 26.5h-140v-181h146z" />
    <glyph glyph-name="C" unicode="C" horiz-adv-x="592" 
d="M104.5 76.5q-70.5 88.5 -70.5 266.5t70.5 266.5t202.5 88.5q113 0 182.5 -67t69.5 -200h-131q0 77 -32.5 117t-88.5 40q-70 0 -105.5 -57.5t-35.5 -162.5v-50q0 -105 36.5 -162.5t108.5 -57.5q57 0 90 39.5t33 116.5h125q0 -130 -69 -198t-183 -68q-132 0 -202.5 88.5z
" />
    <glyph glyph-name="D" unicode="D" horiz-adv-x="592" 
d="M60 686h223q130 0 202.5 -85t72.5 -248q0 -173 -72 -263t-203 -90h-223v686zM271 114q73 0 114 54.5t41 159.5v50q0 95 -41 144.5t-114 49.5h-83v-458h83z" />
    <glyph glyph-name="E" unicode="E" horiz-adv-x="547" 
d="M60 686h437v-114h-309v-164h265v-114h-265v-180h315v-114h-443v686z" />
    <glyph glyph-name="F" unicode="F" horiz-adv-x="501" 
d="M60 686h403v-114h-275v-173h235v-114h-235v-285h-128v686z" />
    <glyph glyph-name="G" unicode="G" horiz-adv-x="638" 
d="M302 373h285v-373h-83l-22 76q-33 -43 -80.5 -65.5t-102.5 -22.5q-129 0 -197 87.5t-68 267.5q0 179 75 267t216 88q71 0 130.5 -29.5t95.5 -86.5t36 -136h-131q0 67 -38.5 104.5t-96.5 37.5q-78 0 -116.5 -57t-38.5 -163v-50q0 -107 38.5 -163.5t117.5 -56.5
q59 0 96.5 45.5t37.5 119.5h-154v110z" />
    <glyph glyph-name="H" unicode="H" horiz-adv-x="592" 
d="M60 686h128v-278h216v278h128v-686h-128v294h-216v-294h-128v686z" />
    <glyph glyph-name="I" unicode="I" horiz-adv-x="228" 
d="M50 686h128v-686h-128v686z" />
    <glyph glyph-name="J" unicode="J" 
d="M59.5 33q-50.5 45 -50.5 130v53h127v-43q0 -36 17 -55.5t50 -19.5q32 0 48.5 19.5t16.5 55.5v513h128v-523q0 -85 -50 -130t-143 -45t-143.5 45z" />
    <glyph glyph-name="K" unicode="K" horiz-adv-x="592" 
d="M60 686h129v-351l251 351h143l-203 -279l209 -407h-144l-149 306l-107 -131v-175h-129v686z" />
    <glyph glyph-name="L" unicode="L" horiz-adv-x="501" 
d="M60 686h128v-566h290v-120h-418v686z" />
    <glyph glyph-name="M" unicode="M" horiz-adv-x="683" 
d="M53 686h180l85 -378q9 -43 27 -155h4q14 117 23 155l84 378h174v-686h-118v437q0 29 5 110h-4l-24 -108l-96 -439h-111l-97 441l-24 106h-4q5 -84 5 -110v-437h-109v686z" />
    <glyph glyph-name="N" unicode="N" horiz-adv-x="592" 
d="M60 686h113l212 -378q10 -16 31 -64l3 3l-1 57v382h114v-686h-114l-212 378q-8 13 -31 64l-4 -3l2 -57v-382h-113v686z" />
    <glyph glyph-name="O" unicode="O" horiz-adv-x="638" 
d="M108.5 76.5q-74.5 88.5 -74.5 266.5t74.5 266.5t210.5 88.5t210.5 -88.5t74.5 -266.5t-74.5 -266.5t-210.5 -88.5t-210.5 88.5zM433 155.5q39 57.5 39 162.5v50q0 105 -39 162.5t-114 57.5t-114 -57.5t-39 -162.5v-50q0 -105 39 -162.5t114 -57.5t114 57.5z" />
    <glyph glyph-name="P" unicode="P" horiz-adv-x="547" 
d="M60 686h245q103 0 159 -57t56 -149q0 -64 -27 -112.5t-75.5 -75t-112.5 -26.5h-117v-266h-128v686zM292 379q46 0 71 26.5t25 74.5q0 42 -25.5 67t-70.5 25h-104v-193h104z" />
    <glyph glyph-name="Q" unicode="Q" horiz-adv-x="638" 
d="M331 -12h-12q-136 0 -210.5 88.5t-74.5 266.5t74.5 266.5t210.5 88.5t210.5 -88.5t74.5 -266.5q0 -126 -38.5 -207.5t-110.5 -118.5l132 -141h-157zM433 155.5q39 57.5 39 162.5v50q0 105 -39 162.5t-114 57.5t-114 -57.5t-39 -162.5v-50q0 -105 39 -162.5t114 -57.5
t114 57.5z" />
    <glyph glyph-name="R" unicode="R" horiz-adv-x="592" 
d="M60 686h287q101 0 155.5 -54t54.5 -142q0 -62 -30.5 -108t-84.5 -68l132 -314h-139l-114 286h-133v-286h-128v686zM329 399q45 0 67.5 23.5t22.5 67.5q0 39 -21 60.5t-64 21.5h-146v-173h141z" />
    <glyph glyph-name="S" unicode="S" horiz-adv-x="547" 
d="M148 12.5q-54 24.5 -86 72.5t-32 116l1 22h133l-1 -16q0 -50 29 -79.5t81 -29.5q53 0 78.5 23.5t25.5 57.5t-18 55.5t-44.5 33.5t-74.5 28q-63 20 -102 40t-66.5 61t-27.5 109q0 62 31 105.5t83 65t115 21.5q98 0 160.5 -50.5t62.5 -151.5v-12h-131v9q0 44 -25 69.5
t-68 25.5q-45 0 -70.5 -20.5t-25.5 -52.5q0 -28 17 -46t42.5 -29t70.5 -25q65 -21 105 -40.5t69 -60.5t29 -108q0 -113 -64.5 -165.5t-177.5 -52.5q-65 0 -119 24.5z" />
    <glyph glyph-name="T" unicode="T" horiz-adv-x="501" 
d="M187 572h-170v114h468v-114h-170v-572h-128v572z" />
    <glyph glyph-name="U" unicode="U" horiz-adv-x="592" 
d="M122.5 46.5q-61.5 58.5 -61.5 168.5v471h128v-467q0 -59 28 -90t79 -31t79.5 31t28.5 90v467h128v-471q0 -110 -62 -168.5t-174 -58.5t-173.5 58.5z" />
    <glyph glyph-name="V" unicode="V" horiz-adv-x="547" 
d="M0 686h132l144 -491h4l142 491h125l-209 -686h-129z" />
    <glyph glyph-name="W" unicode="W" horiz-adv-x="774" 
d="M0 686h127l82 -422q6 -28 13 -96h4q7 68 13 96l83 422h145l82 -422q5 -26 13 -96h4q6 64 13 96l84 422h110l-149 -686h-129l-93 437q-8 33 -14 97h-4q-8 -69 -14 -97l-92 -437h-129z" />
    <glyph glyph-name="X" unicode="X" horiz-adv-x="547" 
d="M194 360l-176 326h143l115 -224h4l115 224h133l-177 -324l195 -362h-142l-134 259h-4l-133 -259h-133z" />
    <glyph glyph-name="Y" unicode="Y" horiz-adv-x="547" 
d="M210 259l-210 427h135l140 -301h4l139 301h129l-209 -427v-259h-128v259z" />
    <glyph glyph-name="Z" unicode="Z" horiz-adv-x="501" 
d="M16 49l282 523h-261v114h436v-50l-282 -522h289v-114h-464v49z" />
    <glyph glyph-name="bracketleft" unicode="[" horiz-adv-x="273" 
d="M49 735h199v-95h-83v-706h83v-95h-199v896z" />
    <glyph glyph-name="backslash" unicode="\" horiz-adv-x="228" 
d="M1 735h85l142 -784h-86z" />
    <glyph glyph-name="bracketright" unicode="]" horiz-adv-x="273" 
d="M25 -66h83v706h-83v95h199v-896h-199v95z" />
    <glyph glyph-name="asciicircum" unicode="^" horiz-adv-x="479" 
d="M188 686h107l157 -392h-110l-101 270l-99 -270h-110z" />
    <glyph glyph-name="underscore" unicode="_" 
d="M0 -63h455v-69h-455v69z" />
    <glyph glyph-name="grave" unicode="`" horiz-adv-x="273" 
d="M21 720l1 3h120l86 -132h-99z" />
    <glyph glyph-name="a" unicode="a" 
d="M55.5 21.5q-41.5 33.5 -41.5 114.5q0 100 68 142t193 42v55q0 31 -11.5 48t-43.5 17q-33 0 -48 -16.5t-15 -38.5v-15h-117q-1 6 -1 22q0 66 48.5 106t129.5 40q90 0 134.5 -40t44.5 -115v-259q0 -18 8 -26.5t20 -8.5h24v-85q-30 -16 -71 -16q-35 0 -59.5 18.5t-33.5 50.5
h-5q-25 -35 -54.5 -52t-78.5 -17t-90.5 33.5zM255.5 120q19.5 32 19.5 83v30q-61 0 -99.5 -19.5t-38.5 -66.5q0 -28 14.5 -43.5t44.5 -15.5q40 0 59.5 32z" />
    <glyph glyph-name="b" unicode="b" horiz-adv-x="501" 
d="M222 7.5q-31 19.5 -50 57.5h-5l-12 -65h-100v723h120v-251h5q14 31 45.5 48.5t71.5 17.5q74 0 118.5 -68.5t44.5 -205.5q0 -139 -44.5 -207.5t-124.5 -68.5q-38 0 -69 19.5zM316 133.5q19 36.5 19 110.5v38q0 74 -19 110.5t-61 36.5t-61 -37.5t-19 -111.5v-36
q0 -74 19 -110.5t61 -36.5t61 36.5z" />
    <glyph glyph-name="c" unicode="c" 
d="M89 54.5q-48 66.5 -48 208.5q0 141 48.5 208t146.5 67q87 0 135.5 -51.5t48.5 -158.5h-123q0 109 -61 109q-37 0 -53.5 -38.5t-16.5 -116.5v-38q0 -78 17.5 -116.5t56.5 -38.5q32 0 46.5 27t14.5 82h119q0 -107 -47 -158.5t-133 -51.5q-103 0 -151 66.5z" />
    <glyph glyph-name="d" unicode="d" horiz-adv-x="501" 
d="M85.5 56.5q-44.5 68.5 -44.5 207.5q0 137 44.5 205.5t118.5 68.5q40 0 71.5 -17.5t45.5 -48.5h5v251h120v-723h-100l-12 65h-5q-19 -38 -50 -57.5t-69 -19.5q-80 0 -124.5 68.5zM307 133.5q19 36.5 19 110.5v36q0 74 -19 111.5t-61 37.5t-61 -36.5t-19 -110.5v-38
q0 -74 19 -110.5t61 -36.5t61 36.5z" />
    <glyph glyph-name="e" unicode="e" 
d="M82.5 55.5q-51.5 67.5 -51.5 207.5q0 275 202 275q96 0 143 -67t47 -208v-30h-267q1 -74 19.5 -110.5t61.5 -36.5q31 0 49 26.5t18 73.5h119q0 -98 -51 -148t-135 -50q-103 0 -154.5 67.5zM297 320q0 120 -64 120q-37 0 -55 -30.5t-21 -89.5h140z" />
    <glyph glyph-name="f" unicode="f" horiz-adv-x="273" 
d="M62 425h-53v101h53v64q0 60 29 100.5t95 40.5q20 0 45.5 -3.5t41.5 -8.5v-89h-49q-20 0 -31 -11t-11 -32v-61h91v-101h-91v-425h-120v425z" />
    <glyph glyph-name="g" unicode="g" horiz-adv-x="501" 
d="M49.5 -148q-33.5 34 -33.5 87q0 70 67 107q-42 26 -42 79q0 33 21.5 56.5t55.5 35.5q-64 47 -64 142q0 83 50.5 131t143.5 48q50 0 88 -15q27 19 39 45.5t12 45.5h99q0 -108 -85 -134q42 -47 42 -121q0 -83 -50.5 -131t-144.5 -48h-50q-16 0 -26 -9t-10 -23q0 -13 9 -22
t22 -9h182q51 0 85.5 -37.5t34.5 -99.5q0 -48 -22.5 -85t-61.5 -57t-86 -20h-193q-49 0 -82.5 34zM304 292.5q19 23.5 19 66.5t-19 66.5t-56 23.5q-36 0 -55 -23.5t-19 -66.5t19 -66.5t55 -23.5q37 0 56 23.5zM320 -91q23 0 38.5 13.5t15.5 35.5t-14 35t-35 13h-140
q-20 0 -34 -14t-14 -34q0 -22 13.5 -35.5t34.5 -13.5h135z" />
    <glyph glyph-name="h" unicode="h" horiz-adv-x="501" 
d="M55 723h120v-253h4q20 29 52 48.5t75 19.5q65 0 102.5 -40.5t37.5 -128.5v-369h-120v336q0 49 -17.5 71t-51.5 22q-35 0 -58.5 -30.5t-23.5 -74.5v-324h-120v723z" />
    <glyph glyph-name="i" unicode="i" horiz-adv-x="228" 
d="M54 526h120v-526h-120v526zM53 723h121v-115h-121v115z" />
    <glyph glyph-name="j" unicode="j" horiz-adv-x="228" 
d="M5.5 -178.5q-25.5 3.5 -42.5 8.5v89h44q47 0 47 48v559h120v-567q0 -61 -28 -101t-94 -40q-21 0 -46.5 3.5zM53 723h121v-115h-121v115z" />
    <glyph glyph-name="k" unicode="k" 
d="M54 723h120v-406l147 209h128l-156 -214l164 -312h-133l-106 218l-44 -54v-164h-120v723z" />
    <glyph glyph-name="l" unicode="l" horiz-adv-x="228" 
d="M54 723h120v-723h-120v723z" />
    <glyph glyph-name="m" unicode="m" horiz-adv-x="729" 
d="M55 526h100l12 -65h6q21 34 52.5 55.5t72.5 21.5q84 0 113 -77q22 34 57 55.5t79 21.5q130 0 130 -169v-369h-120v336q0 50 -14 71.5t-45 21.5q-30 0 -51.5 -27.5t-21.5 -69.5v-332h-118v336q0 50 -14.5 71.5t-45.5 21.5t-51.5 -29.5t-20.5 -75.5v-324h-120v526z" />
    <glyph glyph-name="n" unicode="n" horiz-adv-x="501" 
d="M55 526h100l12 -65h6q23 34 56 55.5t77 21.5q65 0 102.5 -40.5t37.5 -128.5v-369h-120v336q0 49 -17.5 71t-51.5 22q-35 0 -58.5 -30.5t-23.5 -74.5v-324h-120v526z" />
    <glyph glyph-name="o" unicode="o" horiz-adv-x="501" 
d="M93 55q-52 67 -52 208t52 208t158 67t158 -67t52 -208t-52 -208t-158 -67t-158 67zM316 127.5q20 38.5 20 116.5v38q0 78 -20 116.5t-65 38.5t-65 -38.5t-20 -116.5v-38q0 -78 20 -116.5t65 -38.5t65 38.5z" />
    <glyph glyph-name="p" unicode="p" horiz-adv-x="501" 
d="M55 526h100l12 -65h5q19 38 50 57.5t69 19.5q80 0 124.5 -68.5t44.5 -207.5q0 -137 -44.5 -205.5t-118.5 -68.5q-40 0 -71.5 17.5t-45.5 48.5h-5v-227h-120v699zM316 133.5q19 36.5 19 110.5v38q0 74 -19 110.5t-61 36.5t-61 -36.5t-19 -110.5v-36q0 -74 19 -111.5
t61 -37.5t61 36.5z" />
    <glyph glyph-name="q" unicode="q" horiz-adv-x="501" 
d="M326 54h-5q-14 -31 -45.5 -48.5t-71.5 -17.5q-74 0 -118.5 68.5t-44.5 205.5q0 139 44.5 207.5t124.5 68.5q38 0 69 -19.5t50 -57.5h5l12 65h100v-699h-120v227zM307 134.5q19 37.5 19 111.5v36q0 74 -19 110.5t-61 36.5t-61 -36.5t-19 -110.5v-38q0 -74 19 -110.5
t61 -36.5t61 37.5z" />
    <glyph glyph-name="r" unicode="r" horiz-adv-x="319" 
d="M55 526h100l14 -77h6q13 40 34 64.5t57 24.5q29 0 50 -8v-116h-43q-44 0 -71 -28t-27 -93v-293h-120v526z" />
    <glyph glyph-name="s" unicode="s" 
d="M83.5 33.5q-50.5 45.5 -50.5 121.5l1 12h122v-7q1 -39 22 -56.5t50 -17.5q28 0 49 13.5t21 43.5q0 32 -24 46.5t-76 28.5q-50 14 -81 28t-53.5 46t-22.5 86q0 77 52.5 118.5t135.5 41.5q77 0 127.5 -38.5t50.5 -104.5l-1 -23h-122v2q-1 66 -59 66q-28 0 -45 -14t-17 -38
q0 -28 23 -40.5t72 -25.5q51 -13 83 -27.5t55.5 -47t23.5 -89.5q0 -170 -196 -170q-90 0 -140.5 45.5z" />
    <glyph glyph-name="t" unicode="t" horiz-adv-x="273" 
d="M91 28.5q-29 40.5 -29 100.5v296h-53v101h53l18 148h102v-148h76v-101h-76v-293q0 -21 11 -32t31 -11h34v-89q-13 -5 -34 -8.5t-38 -3.5q-66 0 -95 40.5z" />
    <glyph glyph-name="u" unicode="u" horiz-adv-x="501" 
d="M92.5 28.5q-37.5 40.5 -37.5 128.5v369h120v-336q0 -50 17 -71.5t52 -21.5t58.5 29.5t23.5 73.5v326h120v-526h-100l-12 65h-6q-23 -34 -56 -55.5t-77 -21.5q-65 0 -102.5 40.5z" />
    <glyph glyph-name="v" unicode="v" 
d="M4 526h126l68 -226q11 -38 33 -158h4q17 114 30 158l67 226h120l-163 -526h-122z" />
    <glyph glyph-name="w" unicode="w" horiz-adv-x="638" 
d="M1 526h120l50 -216q15 -67 21 -165h4q8 93 22 164l45 217h120l45 -218q10 -48 22 -163h4q15 107 26 163l46 218h111l-127 -526h-121l-52 251q-10 50 -15 130h-6q-5 -78 -15 -129l-51 -252h-121z" />
    <glyph glyph-name="x" unicode="x" 
d="M157 272l-140 254h136l78 -153h5l78 153h129l-142 -251l150 -275h-135l-89 174h-5l-89 -174h-128z" />
    <glyph glyph-name="y" unicode="y" 
d="M67.5 -178.5q-23.5 3.5 -23.5 5.5v92h54q27 0 49 20t32 61l-175 526h127l79 -247q12 -38 28 -137h4q14 93 25 136l65 248h120l-144 -499q-28 -97 -72 -153t-114 -56q-31 0 -54.5 3.5z" />
    <glyph glyph-name="z" unicode="z" horiz-adv-x="410" 
d="M18 51l204 374h-192v101h355v-50l-205 -375h212v-101h-374v51z" />
    <glyph glyph-name="braceleft" unicode="{" horiz-adv-x="319" 
d="M154 -128q-53 31 -53 117v193q0 31 -23 45.5t-54 14.5v92q31 0 54 14.5t23 45.5v193q0 86 53 117t144 31v-77q-33 0 -56 -13.5t-23 -47.5q0 -40 -4 -120l-3 -76q-2 -53 -27 -80.5t-81 -27.5v-10q56 0 81 -27t27 -81l3 -76q4 -80 4 -120q0 -61 79 -61v-77q-91 0 -144 31z
" />
    <glyph glyph-name="bar" unicode="|" horiz-adv-x="230" 
d="M70 723h90v-896h-90v896z" />
    <glyph glyph-name="braceright" unicode="}" horiz-adv-x="319" 
d="M21 -82q79 0 79 61q0 40 4 120l3 76q2 54 27 81t81 27v10q-56 0 -81 27.5t-27 80.5l-3 76q-4 80 -4 120q0 34 -23 47.5t-56 13.5v77q91 0 144 -31t53 -117v-193q0 -31 23 -45.5t54 -14.5v-92q-31 0 -54 -14.5t-23 -45.5v-193q0 -86 -53 -117t-144 -31v77z" />
    <glyph glyph-name="asciitilde" unicode="~" horiz-adv-x="479" 
d="M27 317q19 31 51 52t72 21q21 0 40.5 -7.5t47.5 -22.5t48.5 -23t42.5 -8q35 0 67.5 21t55.5 52v-120q-19 -31 -51 -52t-72 -21q-21 0 -40.5 7.5t-47.5 22.5t-48.5 23t-42.5 8q-35 0 -67.5 -21t-55.5 -52v120z" />
    <glyph glyph-name="uni00A0" unicode="&#xa0;" horiz-adv-x="228" 
 />
    <glyph glyph-name="exclamdown" unicode="&#xa1;" horiz-adv-x="273" 
d="M68 526h138v-137h-138v137zM95 329h82l36 -489h-153z" />
    <glyph glyph-name="cent" unicode="&#xa2;" 
d="M207 70q-85 10 -125.5 76.5t-40.5 196.5t41 197t125 76v107h55v-106q75 -8 116.5 -59.5t41.5 -149.5h-111q0 91 -47 108v-348q51 15 51 110h107q0 -100 -41.5 -151.5t-116.5 -57.5v-118h-55v119zM207 515q-28 -12 -40.5 -50t-12.5 -103v-38q0 -128 53 -152v343z" />
    <glyph glyph-name="sterling" unicode="&#xa3;" 
d="M20 108h51v180h-62v101h62v110q0 98 47.5 148.5t133.5 50.5q84 0 132.5 -49.5t48.5 -144.5v-13h-119v26q0 39 -16.5 59.5t-45.5 20.5q-28 0 -44 -18.5t-16 -53.5v-136h120v-101h-121l-11 -180h246v-108h-406v108z" />
    <glyph glyph-name="currency" unicode="&#xa4;" 
d="M103 155l-42 -42l-61 61l50 50q-28 53 -28 118q0 64 27 116l-49 50l60 62l42 -42q57 49 126 49q34 0 66 -13t59 -36l42 42l60 -62l-49 -49q28 -54 28 -117t-29 -119l50 -49l-61 -61l-42 42q-57 -47 -124 -47q-68 0 -125 47zM288.5 217.5q27.5 19.5 44 52.5t16.5 72
q0 40 -16.5 73t-44 52.5t-60.5 19.5t-61 -19.5t-44.5 -52.5t-16.5 -73q0 -39 16.5 -72t44.5 -52.5t61 -19.5t60.5 19.5z" />
    <glyph glyph-name="yen" unicode="&#xa5;" 
d="M168 153h-140v81h139v70h-139v81h105l-129 301h131l94 -263h4l93 263h125l-128 -301h105v-82h-140v-69h140v-81h-140v-153h-120v153z" />
    <glyph glyph-name="brokenbar" unicode="&#xa6;" horiz-adv-x="230" 
d="M70 723h90v-372h-90v372zM70 199h90v-372h-90v372z" />
    <glyph glyph-name="section" unicode="&#xa7;" 
d="M101.5 -143.5q-50.5 38.5 -50.5 104.5l1 23h122q0 -34 15.5 -51t43.5 -17t45 14t17 38q0 28 -14.5 48.5t-36 34t-59.5 32.5q-48 24 -77 44t-50 54.5t-21 86.5q0 40 17 78t48 65q-51 49 -51 127q0 77 52 118.5t136 41.5q77 0 127.5 -38.5t50.5 -104.5l-1 -23h-122
q0 34 -15.5 51t-43.5 17t-45 -14t-17 -38q0 -28 14.5 -48.5t36 -34t59.5 -32.5q48 -24 77 -44t50 -54.5t21 -86.5q0 -41 -17 -78.5t-48 -64.5q51 -51 51 -127q0 -77 -52 -118.5t-136 -41.5q-77 0 -127.5 38.5zM313 213q0 33 -15 57t-37.5 39.5t-61.5 36.5l-23 13
q-21 -28 -21 -56q0 -34 15.5 -58t38.5 -40t62 -38l20 -11q22 27 22 57z" />
    <glyph glyph-name="dieresis" unicode="&#xa8;" horiz-adv-x="273" 
d="M-1 723h100v-109h-100v109zM174 723h100v-109h-100v109z" />
    <glyph glyph-name="copyright" unicode="&#xa9;" horiz-adv-x="604" 
d="M149.5 31.5q-64.5 43.5 -99 123.5t-34.5 188t34.5 188t99 123.5t152.5 43.5t152.5 -43.5t99 -123.5t34.5 -188t-34.5 -188t-99 -123.5t-152.5 -43.5t-152.5 43.5zM425 79.5q52 36.5 79.5 104.5t27.5 159t-27.5 159t-79.5 104.5t-123 36.5t-123 -36.5t-79.5 -104.5
t-27.5 -159t27.5 -159t79.5 -104.5t123 -36.5t123 36.5zM185 186q-42 52 -42 157t42 157.5t119 52.5q67 0 108 -39.5t41 -118.5h-87q0 41 -16.5 62t-45.5 21q-36 0 -54.5 -31.5t-18.5 -88.5v-29q0 -57 19 -88.5t57 -31.5q29 0 45.5 20.5t16.5 61.5h84q0 -77 -41 -117
t-108 -40q-77 0 -119 52z" />
    <glyph glyph-name="ordfeminine" unicode="&#xaa;" horiz-adv-x="303" 
d="M42 385.5q-28 22.5 -28 77.5q0 67 45 95.5t127 28.5v37q0 19 -7 29.5t-26 10.5q-20 0 -29 -9.5t-9 -23.5v-10h-83q-1 4 -1 14q0 45 32.5 72t87.5 27q61 0 91 -27t30 -78v-170q0 -12 5.5 -18t13.5 -6h16v-62q-22 -10 -48 -10q-23 0 -39.5 12.5t-22.5 33.5h-4
q-16 -23 -36.5 -34.5t-53.5 -11.5t-61 22.5zM174 455q12 21 12 53v20q-85 0 -85 -58q0 -36 36 -36q25 0 37 21z" />
    <glyph glyph-name="guillemotleft" unicode="&#xab;" 
d="M19 326l136 200h91l-108 -200l108 -200h-91zM202 326l136 200h91l-108 -200l108 -200h-91z" />
    <glyph glyph-name="logicalnot" unicode="&#xac;" horiz-adv-x="479" 
d="M341 350h-312v113h416v-276h-104v163z" />
    <glyph glyph-name="uni00AD" unicode="&#xad;" horiz-adv-x="273" 
d="M16 329h241v-118h-241v118z" />
    <glyph glyph-name="registered" unicode="&#xae;" horiz-adv-x="604" 
d="M149.5 31.5q-64.5 43.5 -99 123.5t-34.5 188t34.5 188t99 123.5t152.5 43.5t152.5 -43.5t99 -123.5t34.5 -188t-34.5 -188t-99 -123.5t-152.5 -43.5t-152.5 43.5zM425 79.5q52 36.5 79.5 104.5t27.5 159t-27.5 159t-79.5 104.5t-123 36.5t-123 -36.5t-79.5 -104.5
t-27.5 -159t27.5 -159t79.5 -104.5t123 -36.5t123 36.5zM173 546h158q49 0 81 -34.5t32 -90.5q0 -36 -13 -62t-35 -41l74 -178h-86l-61 152h-64v-152h-86v406zM303 362q53 0 53 56q0 50 -53 50h-44v-106h44z" />
    <glyph glyph-name="macron" unicode="&#xaf;" horiz-adv-x="273" 
d="M9 687h255v-87h-255v87z" />
    <glyph glyph-name="degree" unicode="&#xb0;" horiz-adv-x="400" 
d="M126.5 433q-32.5 19 -51.5 51.5t-19 71.5t19 71.5t51.5 51.5t71.5 19t71.5 -19t51.5 -51.5t19 -71.5t-19 -71.5t-51.5 -51.5t-71.5 -19t-71.5 19zM250 503.5q21 21.5 21 52.5t-21 52t-52 21t-52.5 -21t-21.5 -52t21.5 -52.5t52.5 -21.5t52 21.5z" />
    <glyph glyph-name="plusminus" unicode="&#xb1;" horiz-adv-x="549" 
d="M222 317h-154v104h154v174h103v-174h155v-104h-155v-173h-103v173zM68 103h412v-103h-412v103z" />
    <glyph glyph-name="uni00B2" unicode="&#xb2;" horiz-adv-x="273" 
d="M24 449q0 38 21 70t61 75q31 32 46.5 54t15.5 44q0 21 -7 31.5t-25 10.5q-17 0 -26 -13t-9 -33v-25h-73q-3 13 -3 24q0 50 30 80.5t80 30.5q49 0 78.5 -27t29.5 -72q0 -41 -20.5 -73t-56.5 -69q-20 -22 -29.5 -34t-13.5 -24h125v-65h-224v15z" />
    <glyph glyph-name="uni00B3" unicode="&#xb3;" horiz-adv-x="273" 
d="M52.5 456q-30.5 28 -30.5 80v11h75v-13q0 -19 11 -31t29 -12q20 0 32.5 13t12.5 34t-12.5 34t-33.5 13h-30v65h31q17 0 28 13.5t11 35.5q0 19 -10.5 28t-25.5 9q-16 0 -26.5 -11t-10.5 -28v-20h-74v25q0 43 30.5 69.5t79.5 26.5q52 0 81.5 -24t29.5 -71q0 -52 -49 -82
q26 -12 40.5 -34.5t14.5 -53.5q0 -47 -31.5 -76t-83.5 -29q-58 0 -88.5 28z" />
    <glyph glyph-name="acute" unicode="&#xb4;" horiz-adv-x="273" 
d="M134 723h120l1 -3l-108 -129h-99z" />
    <glyph glyph-name="uni00B5" unicode="&#xb5;" horiz-adv-x="501" 
d="M55 526h120v-336q0 -50 17 -71.5t52 -21.5t58.5 29.5t23.5 73.5v326h120v-526h-100l-12 65h-6q-19 -34 -47.5 -55.5t-65.5 -21.5q-21 0 -40 8v-169h-120v699z" />
    <glyph glyph-name="paragraph" unicode="&#xb6;" 
d="M187 250q-48 6 -86.5 36.5t-60.5 77.5t-22 103q0 60 25.5 110t69.5 79.5t97 29.5h239v-76h-48v-783h-81v783h-53v-783h-80v423z" />
    <glyph glyph-name="periodcentered" unicode="&#xb7;" horiz-adv-x="228" 
d="M53 409h121v-131h-121v131z" />
    <glyph glyph-name="cedilla" unicode="&#xb8;" horiz-adv-x="273" 
d="M36 -174v49h71q18 0 27 5.5t9 18.5q0 12 -7.5 18t-26.5 6h-33l11 88h68l-5 -44q35 -2 57 -19t22 -49q0 -45 -33.5 -63t-75.5 -18q-46 0 -84 8z" />
    <glyph glyph-name="uni00B9" unicode="&#xb9;" horiz-adv-x="273" 
d="M20 502h74v195h-74v49q23 3 54 14.5t52 25.5h44v-284h65v-69h-215v69z" />
    <glyph glyph-name="ordmasculine" unicode="&#xba;" horiz-adv-x="299" 
d="M45 407.5q-35 45.5 -35 140.5t35 140.5t107 45.5t107 -45.5t35 -140.5t-35 -140.5t-107 -45.5t-107 45.5zM192.5 460q12.5 25 12.5 75v26q0 50 -12.5 75t-40.5 25t-40.5 -25t-12.5 -75v-26q0 -50 12.5 -75t40.5 -25t40.5 25z" />
    <glyph glyph-name="guillemotright" unicode="&#xbb;" 
d="M135 326l-108 200h91l136 -200l-136 -200h-91zM318 326l-108 200h91l136 -200l-136 -200h-91z" />
    <glyph glyph-name="onequarter" unicode="&#xbc;" horiz-adv-x="683" 
d="M20 402h74v195h-74v49q23 3 54 14.5t52 25.5h44v-284h65v-69h-215v69zM516 698h66l-395 -710h-67zM562 80h-142v49q59 94 87 236h78q-14 -61 -39.5 -123t-52.5 -102h69v71q18 33 37 96h39v-167h27v-60h-27v-80h-76v80z" />
    <glyph glyph-name="onehalf" unicode="&#xbd;" horiz-adv-x="683" 
d="M20 402h74v195h-74v49q23 3 54 14.5t52 25.5h44v-284h65v-69h-215v69zM516 698h66l-395 -710h-67zM434 15q0 38 21 70t61 75q31 32 46.5 54t15.5 44q0 21 -7 31.5t-25 10.5q-17 0 -26 -13t-9 -33v-25h-73q-3 13 -3 24q0 50 30 80.5t80 30.5q49 0 78.5 -27t29.5 -72
q0 -41 -20.5 -73t-56.5 -69q-20 -22 -29.5 -34t-13.5 -24h125v-65h-224v15z" />
    <glyph glyph-name="threequarters" unicode="&#xbe;" horiz-adv-x="683" 
d="M52.5 356q-30.5 28 -30.5 80v11h75v-13q0 -19 11 -31t29 -12q20 0 32.5 13t12.5 34t-12.5 34t-33.5 13h-30v65h31q17 0 28 13.5t11 35.5q0 19 -10.5 28t-25.5 9q-16 0 -26.5 -11t-10.5 -28v-20h-74v25q0 43 30.5 69.5t79.5 26.5q52 0 81.5 -24t29.5 -71q0 -52 -49 -82
q26 -12 40.5 -34.5t14.5 -53.5q0 -47 -31.5 -76t-83.5 -29q-58 0 -88.5 28zM516 698h66l-395 -710h-67zM562 80h-142v49q59 94 87 236h78q-14 -61 -39.5 -123t-52.5 -102h69v71q18 33 37 96h39v-167h27v-60h-27v-80h-76v80z" />
    <glyph glyph-name="questiondown" unicode="&#xbf;" horiz-adv-x="501" 
d="M166 526h138v-137h-138v137zM100.5 -123q-52.5 49 -52.5 129q0 65 18.5 103t53.5 78q27 31 40 55t13 59v28h126v-43q0 -39 -14.5 -66.5t-43.5 -62.5q-31 -37 -46.5 -66.5t-15.5 -73.5q0 -27 15 -54.5t55 -27.5q44 0 60.5 32.5t16.5 72.5l-1 27h126q3 -24 3 -35
q0 -57 -24 -103.5t-72 -73.5t-117 -27q-88 0 -140.5 49z" />
    <glyph glyph-name="Agrave" unicode="&#xc0;" horiz-adv-x="592" 
d="M221 686h149l221 -686h-131l-42 135h-253l-41 -135h-124zM383 249l-69 229q-10 34 -20 93h-4q-10 -63 -20 -93l-70 -229h183zM158 850l1 3h120l86 -102h-99z" />
    <glyph glyph-name="Aacute" unicode="&#xc1;" horiz-adv-x="592" 
d="M221 686h149l221 -686h-131l-42 135h-253l-41 -135h-124zM383 249l-69 229q-10 34 -20 93h-4q-10 -63 -20 -93l-70 -229h183zM288 853h130l1 -3l-88 -99h-109z" />
    <glyph glyph-name="Acircumflex" unicode="&#xc2;" horiz-adv-x="592" 
d="M221 686h149l221 -686h-131l-42 135h-253l-41 -135h-124zM383 249l-69 229q-10 34 -20 93h-4q-10 -63 -20 -93l-70 -229h183zM247 853h98l85 -105h-90l-44 39l-45 -39h-90z" />
    <glyph glyph-name="Atilde" unicode="&#xc3;" horiz-adv-x="592" 
d="M221 686h149l221 -686h-131l-42 135h-253l-41 -135h-124zM383 249l-69 229q-10 34 -20 93h-4q-10 -63 -20 -93l-70 -229h183zM166.5 823.5q22.5 33.5 66.5 33.5q14 0 26.5 -4t35.5 -13q19 -8 32 -12t26 -4q31 0 36 33h59q0 -43 -22.5 -76.5t-66.5 -33.5q-14 0 -26.5 4
t-35.5 13q-19 8 -32 12t-26 4q-31 0 -36 -33h-59q0 43 22.5 76.5z" />
    <glyph glyph-name="Adieresis" unicode="&#xc4;" horiz-adv-x="592" 
d="M221 686h149l221 -686h-131l-42 135h-253l-41 -135h-124zM383 249l-69 229q-10 34 -20 93h-4q-10 -63 -20 -93l-70 -229h183zM158 883h100v-109h-100v109zM333 883h100v-109h-100v109z" />
    <glyph glyph-name="Aring" unicode="&#xc5;" horiz-adv-x="592" 
d="M221 686h149l221 -686h-131l-42 135h-253l-41 -135h-124zM383 249l-69 229q-10 34 -20 93h-4q-10 -63 -20 -93l-70 -229h183zM228.5 749q-28.5 28 -28.5 68t28 68t68 28t68 -28.5t28 -67.5q0 -40 -28 -68t-68 -28q-39 0 -67.5 28zM325.5 787q12.5 12 12.5 30t-12.5 30
t-29.5 12q-18 0 -30 -12t-12 -30t12 -30t30 -12q17 0 29.5 12z" />
    <glyph glyph-name="AE" unicode="&#xc6;" horiz-adv-x="820" 
d="M255 686h516v-114h-333l40 -164h249v-114h-221l44 -180h227v-114h-330l-33 135h-253l-50 -135h-119zM387 249l-59 251l-11 46h-4l-18 -48l-92 -249h184z" />
    <glyph glyph-name="Ccedilla" unicode="&#xc7;" horiz-adv-x="592" 
d="M401 137.5q33 39.5 33 116.5h125q0 -121 -60 -188.5t-160 -76.5l-3 -22q35 -2 57 -19t22 -49q0 -45 -33.5 -63t-75.5 -18q-46 0 -84 8v49h71q18 0 27 5.5t9 18.5q0 12 -7.5 18t-26.5 6h-33l8 67q-114 11 -175 99.5t-61 253.5q0 178 70.5 266.5t202.5 88.5
q113 0 182.5 -67t69.5 -200h-131q0 77 -32.5 117t-88.5 40q-70 0 -105.5 -57.5t-35.5 -162.5v-50q0 -105 36.5 -162.5t108.5 -57.5q57 0 90 39.5z" />
    <glyph glyph-name="Egrave" unicode="&#xc8;" horiz-adv-x="547" 
d="M60 686h437v-114h-309v-164h265v-114h-265v-180h315v-114h-443v686zM141 850l1 3h120l86 -102h-99z" />
    <glyph glyph-name="Eacute" unicode="&#xc9;" horiz-adv-x="547" 
d="M60 686h437v-114h-309v-164h265v-114h-265v-180h315v-114h-443v686zM271 853h130l1 -3l-88 -99h-109z" />
    <glyph glyph-name="Ecircumflex" unicode="&#xca;" horiz-adv-x="547" 
d="M60 686h437v-114h-309v-164h265v-114h-265v-180h315v-114h-443v686zM230 853h98l85 -105h-90l-44 39l-45 -39h-90z" />
    <glyph glyph-name="Edieresis" unicode="&#xcb;" horiz-adv-x="547" 
d="M60 686h437v-114h-309v-164h265v-114h-265v-180h315v-114h-443v686zM141 883h100v-109h-100v109zM316 883h100v-109h-100v109z" />
    <glyph glyph-name="Igrave" unicode="&#xcc;" horiz-adv-x="228" 
d="M50 686h128v-686h-128v686zM-24 850l1 3h120l86 -102h-99z" />
    <glyph glyph-name="Iacute" unicode="&#xcd;" horiz-adv-x="228" 
d="M50 686h128v-686h-128v686zM106 853h130l1 -3l-88 -99h-109z" />
    <glyph glyph-name="Icircumflex" unicode="&#xce;" horiz-adv-x="228" 
d="M50 686h128v-686h-128v686zM65 853h98l85 -105h-90l-44 39l-45 -39h-90z" />
    <glyph glyph-name="Idieresis" unicode="&#xcf;" horiz-adv-x="228" 
d="M50 686h128v-686h-128v686zM-24 883h100v-109h-100v109zM151 883h100v-109h-100v109z" />
    <glyph glyph-name="Eth" unicode="&#xd0;" horiz-adv-x="592" 
d="M60 312h-50v85h50v289h223q130 0 202.5 -85t72.5 -248q0 -173 -72 -263t-203 -90h-223v312zM271 114q73 0 114 54.5t41 159.5v50q0 95 -41 144.5t-114 49.5h-83v-175h125v-85h-125v-198h83z" />
    <glyph glyph-name="Ntilde" unicode="&#xd1;" horiz-adv-x="592" 
d="M60 686h113l212 -378q10 -16 31 -64l3 3l-1 57v382h114v-686h-114l-212 378q-8 13 -31 64l-4 -3l2 -57v-382h-113v686zM166.5 823.5q22.5 33.5 66.5 33.5q14 0 26.5 -4t35.5 -13q19 -8 32 -12t26 -4q31 0 36 33h59q0 -43 -22.5 -76.5t-66.5 -33.5q-14 0 -26.5 4t-35.5 13
q-19 8 -32 12t-26 4q-31 0 -36 -33h-59q0 43 22.5 76.5z" />
    <glyph glyph-name="Ograve" unicode="&#xd2;" horiz-adv-x="638" 
d="M108.5 76.5q-74.5 88.5 -74.5 266.5t74.5 266.5t210.5 88.5t210.5 -88.5t74.5 -266.5t-74.5 -266.5t-210.5 -88.5t-210.5 88.5zM433 155.5q39 57.5 39 162.5v50q0 105 -39 162.5t-114 57.5t-114 -57.5t-39 -162.5v-50q0 -105 39 -162.5t114 -57.5t114 57.5zM181 850l1 3
h120l86 -102h-99z" />
    <glyph glyph-name="Oacute" unicode="&#xd3;" horiz-adv-x="638" 
d="M108.5 76.5q-74.5 88.5 -74.5 266.5t74.5 266.5t210.5 88.5t210.5 -88.5t74.5 -266.5t-74.5 -266.5t-210.5 -88.5t-210.5 88.5zM433 155.5q39 57.5 39 162.5v50q0 105 -39 162.5t-114 57.5t-114 -57.5t-39 -162.5v-50q0 -105 39 -162.5t114 -57.5t114 57.5zM311 853h130
l1 -3l-88 -99h-109z" />
    <glyph glyph-name="Ocircumflex" unicode="&#xd4;" horiz-adv-x="638" 
d="M108.5 76.5q-74.5 88.5 -74.5 266.5t74.5 266.5t210.5 88.5t210.5 -88.5t74.5 -266.5t-74.5 -266.5t-210.5 -88.5t-210.5 88.5zM433 155.5q39 57.5 39 162.5v50q0 105 -39 162.5t-114 57.5t-114 -57.5t-39 -162.5v-50q0 -105 39 -162.5t114 -57.5t114 57.5zM270 853h98
l85 -105h-90l-44 39l-45 -39h-90z" />
    <glyph glyph-name="Otilde" unicode="&#xd5;" horiz-adv-x="638" 
d="M108.5 76.5q-74.5 88.5 -74.5 266.5t74.5 266.5t210.5 88.5t210.5 -88.5t74.5 -266.5t-74.5 -266.5t-210.5 -88.5t-210.5 88.5zM433 155.5q39 57.5 39 162.5v50q0 105 -39 162.5t-114 57.5t-114 -57.5t-39 -162.5v-50q0 -105 39 -162.5t114 -57.5t114 57.5zM189.5 823.5
q22.5 33.5 66.5 33.5q14 0 26.5 -4t35.5 -13q19 -8 32 -12t26 -4q31 0 36 33h59q0 -43 -22.5 -76.5t-66.5 -33.5q-14 0 -26.5 4t-35.5 13q-19 8 -32 12t-26 4q-31 0 -36 -33h-59q0 43 22.5 76.5z" />
    <glyph glyph-name="Odieresis" unicode="&#xd6;" horiz-adv-x="638" 
d="M108.5 76.5q-74.5 88.5 -74.5 266.5t74.5 266.5t210.5 88.5t210.5 -88.5t74.5 -266.5t-74.5 -266.5t-210.5 -88.5t-210.5 88.5zM433 155.5q39 57.5 39 162.5v50q0 105 -39 162.5t-114 57.5t-114 -57.5t-39 -162.5v-50q0 -105 39 -162.5t114 -57.5t114 57.5zM181 883h100
v-109h-100v109zM356 883h100v-109h-100v109z" />
    <glyph glyph-name="multiply" unicode="&#xd7;" horiz-adv-x="479" 
d="M29 111l146 145l-146 146l72 72l145 -146l146 146l72 -72l-146 -146l146 -145l-72 -72l-146 146l-145 -146z" />
    <glyph glyph-name="Oslash" unicode="&#xd8;" horiz-adv-x="638" 
d="M604 343q0 -178 -74.5 -266.5t-210.5 -88.5q-91 0 -155 40l-40 -65h-84l70 112q-76 90 -76 268t74.5 266.5t210.5 88.5q93 0 155 -40l41 65h84l-70 -113q75 -91 75 -267zM185 195l226 361q-37 32 -92 32q-75 0 -114 -57.5t-39 -162.5v-50q0 -75 19 -123zM472 368
q0 74 -19 122l-225 -361q37 -31 91 -31q75 0 114 57.5t39 162.5v50z" />
    <glyph glyph-name="Ugrave" unicode="&#xd9;" horiz-adv-x="592" 
d="M122.5 46.5q-61.5 58.5 -61.5 168.5v471h128v-467q0 -59 28 -90t79 -31t79.5 31t28.5 90v467h128v-471q0 -110 -62 -168.5t-174 -58.5t-173.5 58.5zM158 850l1 3h120l86 -102h-99z" />
    <glyph glyph-name="Uacute" unicode="&#xda;" horiz-adv-x="592" 
d="M122.5 46.5q-61.5 58.5 -61.5 168.5v471h128v-467q0 -59 28 -90t79 -31t79.5 31t28.5 90v467h128v-471q0 -110 -62 -168.5t-174 -58.5t-173.5 58.5zM288 853h130l1 -3l-88 -99h-109z" />
    <glyph glyph-name="Ucircumflex" unicode="&#xdb;" horiz-adv-x="592" 
d="M122.5 46.5q-61.5 58.5 -61.5 168.5v471h128v-467q0 -59 28 -90t79 -31t79.5 31t28.5 90v467h128v-471q0 -110 -62 -168.5t-174 -58.5t-173.5 58.5zM247 853h98l85 -105h-90l-44 39l-45 -39h-90z" />
    <glyph glyph-name="Udieresis" unicode="&#xdc;" horiz-adv-x="592" 
d="M122.5 46.5q-61.5 58.5 -61.5 168.5v471h128v-467q0 -59 28 -90t79 -31t79.5 31t28.5 90v467h128v-471q0 -110 -62 -168.5t-174 -58.5t-173.5 58.5zM158 883h100v-109h-100v109zM333 883h100v-109h-100v109z" />
    <glyph glyph-name="Yacute" unicode="&#xdd;" horiz-adv-x="547" 
d="M210 259l-210 427h135l140 -301h4l139 301h129l-209 -427v-259h-128v259zM265 853h130l1 -3l-88 -99h-109z" />
    <glyph glyph-name="Thorn" unicode="&#xde;" horiz-adv-x="547" 
d="M60 686h128v-122h117q103 0 159 -57t56 -149q0 -64 -27 -112.5t-75.5 -75t-112.5 -26.5h-117v-144h-128v686zM292 257q46 0 71 26.5t25 74.5q0 42 -25.5 67t-70.5 25h-104v-193h104z" />
    <glyph glyph-name="germandbls" unicode="&#xdf;" horiz-adv-x="501" 
d="M40 520q0 109 59 162t155 53q87 0 142.5 -50.5t55.5 -136.5q0 -50 -26.5 -93.5t-68.5 -59.5v-4q51 -19 83.5 -69t32.5 -108q0 -63 -26.5 -111.5t-72 -75.5t-101.5 -27h-65v102h52q38 0 65 33.5t27 79.5q0 45 -27 77t-65 32h-52v113h49q31 0 52.5 32t21.5 76
q0 40 -21.5 64.5t-60.5 24.5q-41 0 -65 -28t-24 -78v-528h-120v520z" />
    <glyph glyph-name="agrave" unicode="&#xe0;" 
d="M55.5 21.5q-41.5 33.5 -41.5 114.5q0 100 68 142t193 42v55q0 31 -11.5 48t-43.5 17q-33 0 -48 -16.5t-15 -38.5v-15h-117q-1 6 -1 22q0 66 48.5 106t129.5 40q90 0 134.5 -40t44.5 -115v-259q0 -18 8 -26.5t20 -8.5h24v-85q-30 -16 -71 -16q-35 0 -59.5 18.5t-33.5 50.5
h-5q-25 -35 -54.5 -52t-78.5 -17t-90.5 33.5zM255.5 120q19.5 32 19.5 83v30q-61 0 -99.5 -19.5t-38.5 -66.5q0 -28 14.5 -43.5t44.5 -15.5q40 0 59.5 32zM79 720l1 3h120l86 -132h-99z" />
    <glyph glyph-name="aacute" unicode="&#xe1;" 
d="M55.5 21.5q-41.5 33.5 -41.5 114.5q0 100 68 142t193 42v55q0 31 -11.5 48t-43.5 17q-33 0 -48 -16.5t-15 -38.5v-15h-117q-1 6 -1 22q0 66 48.5 106t129.5 40q90 0 134.5 -40t44.5 -115v-259q0 -18 8 -26.5t20 -8.5h24v-85q-30 -16 -71 -16q-35 0 -59.5 18.5t-33.5 50.5
h-5q-25 -35 -54.5 -52t-78.5 -17t-90.5 33.5zM255.5 120q19.5 32 19.5 83v30q-61 0 -99.5 -19.5t-38.5 -66.5q0 -28 14.5 -43.5t44.5 -15.5q40 0 59.5 32zM234 723h120l1 -3l-108 -129h-99z" />
    <glyph glyph-name="acircumflex" unicode="&#xe2;" 
d="M55.5 21.5q-41.5 33.5 -41.5 114.5q0 100 68 142t193 42v55q0 31 -11.5 48t-43.5 17q-33 0 -48 -16.5t-15 -38.5v-15h-117q-1 6 -1 22q0 66 48.5 106t129.5 40q90 0 134.5 -40t44.5 -115v-259q0 -18 8 -26.5t20 -8.5h24v-85q-30 -16 -71 -16q-35 0 -59.5 18.5t-33.5 50.5
h-5q-25 -35 -54.5 -52t-78.5 -17t-90.5 33.5zM255.5 120q19.5 32 19.5 83v30q-61 0 -99.5 -19.5t-38.5 -66.5q0 -28 14.5 -43.5t44.5 -15.5q40 0 59.5 32zM168 723h98l85 -135h-90l-44 69l-45 -69h-90z" />
    <glyph glyph-name="atilde" unicode="&#xe3;" 
d="M55.5 21.5q-41.5 33.5 -41.5 114.5q0 100 68 142t193 42v55q0 31 -11.5 48t-43.5 17q-33 0 -48 -16.5t-15 -38.5v-15h-117q-1 6 -1 22q0 66 48.5 106t129.5 40q90 0 134.5 -40t44.5 -115v-259q0 -18 8 -26.5t20 -8.5h24v-85q-30 -16 -71 -16q-35 0 -59.5 18.5t-33.5 50.5
h-5q-25 -35 -54.5 -52t-78.5 -17t-90.5 33.5zM255.5 120q19.5 32 19.5 83v30q-61 0 -99.5 -19.5t-38.5 -66.5q0 -28 14.5 -43.5t44.5 -15.5q40 0 59.5 32zM74 686q25 37 73 37q16 0 30 -4.5t39 -14.5q21 -9 35 -13.5t29 -4.5q17 0 26.5 8.5t12.5 28.5h66q0 -48 -25 -85
t-74 -37q-16 0 -29.5 4.5t-38.5 14.5q-21 9 -35 13.5t-29 4.5q-34 0 -39 -37h-66q0 48 25 85z" />
    <glyph glyph-name="adieresis" unicode="&#xe4;" 
d="M55.5 21.5q-41.5 33.5 -41.5 114.5q0 100 68 142t193 42v55q0 31 -11.5 48t-43.5 17q-33 0 -48 -16.5t-15 -38.5v-15h-117q-1 6 -1 22q0 66 48.5 106t129.5 40q90 0 134.5 -40t44.5 -115v-259q0 -18 8 -26.5t20 -8.5h24v-85q-30 -16 -71 -16q-35 0 -59.5 18.5t-33.5 50.5
h-5q-25 -35 -54.5 -52t-78.5 -17t-90.5 33.5zM255.5 120q19.5 32 19.5 83v30q-61 0 -99.5 -19.5t-38.5 -66.5q0 -28 14.5 -43.5t44.5 -15.5q40 0 59.5 32zM79 723h100v-109h-100v109zM254 723h100v-109h-100v109z" />
    <glyph glyph-name="aring" unicode="&#xe5;" 
d="M55.5 21.5q-41.5 33.5 -41.5 114.5q0 100 68 142t193 42v55q0 31 -11.5 48t-43.5 17q-33 0 -48 -16.5t-15 -38.5v-15h-117q-1 6 -1 22q0 66 48.5 106t129.5 40q90 0 134.5 -40t44.5 -115v-259q0 -18 8 -26.5t20 -8.5h24v-85q-30 -16 -71 -16q-35 0 -59.5 18.5t-33.5 50.5
h-5q-25 -35 -54.5 -52t-78.5 -17t-90.5 33.5zM255.5 120q19.5 32 19.5 83v30q-61 0 -99.5 -19.5t-38.5 -66.5q0 -28 14.5 -43.5t44.5 -15.5q40 0 59.5 32zM149.5 589q-28.5 28 -28.5 68t28 68t68 28t68 -28.5t28 -67.5q0 -40 -28 -68t-68 -28q-39 0 -67.5 28zM249.5 624.5
q13.5 13.5 13.5 32.5t-13.5 32.5t-32.5 13.5q-20 0 -33 -13t-13 -33q0 -19 13 -32.5t33 -13.5q19 0 32.5 13.5z" />
    <glyph glyph-name="ae" unicode="&#xe6;" horiz-adv-x="729" 
d="M84.5 21.5q-47.5 33.5 -47.5 114.5q0 100 68 142t193 42v55q0 31 -11.5 48t-43.5 17q-33 0 -48 -16.5t-15 -38.5v-15h-117q-1 6 -1 22q0 66 48.5 106t129.5 40q88 0 135 -50q47 50 125 50q96 0 143 -67t47 -208v-30h-267q1 -74 19.5 -110.5t61.5 -36.5q31 0 49 26.5
t18 73.5h119q0 -98 -51 -148t-135 -50q-107 0 -157 71q-31 -34 -68.5 -52.5t-89.5 -18.5q-57 0 -104.5 33.5zM564 320q0 120 -64 120q-37 0 -55 -30.5t-21 -89.5h140zM278.5 120q19.5 32 19.5 83v30q-61 0 -99.5 -19.5t-38.5 -66.5q0 -28 14.5 -43.5t44.5 -15.5
q40 0 59.5 32z" />
    <glyph glyph-name="ccedilla" unicode="&#xe7;" 
d="M286.5 116q14.5 27 14.5 82h119q0 -100 -41.5 -151.5t-116.5 -57.5l-2 -22q35 -2 57 -19t22 -49q0 -45 -33.5 -63t-75.5 -18q-46 0 -84 8v49h71q18 0 27 5.5t9 18.5q0 12 -7.5 18t-26.5 6h-33l9 69q-79 13 -116.5 79t-37.5 192q0 141 48.5 208t146.5 67q87 0 135.5 -51.5
t48.5 -158.5h-123q0 109 -61 109q-37 0 -53.5 -38.5t-16.5 -116.5v-38q0 -78 17.5 -116.5t56.5 -38.5q32 0 46.5 27z" />
    <glyph glyph-name="egrave" unicode="&#xe8;" 
d="M82.5 55.5q-51.5 67.5 -51.5 207.5q0 275 202 275q96 0 143 -67t47 -208v-30h-267q1 -74 19.5 -110.5t61.5 -36.5q31 0 49 26.5t18 73.5h119q0 -98 -51 -148t-135 -50q-103 0 -154.5 67.5zM297 320q0 120 -64 120q-37 0 -55 -30.5t-21 -89.5h140zM90 720l1 3h120l86 -132
h-99z" />
    <glyph glyph-name="eacute" unicode="&#xe9;" 
d="M82.5 55.5q-51.5 67.5 -51.5 207.5q0 275 202 275q96 0 143 -67t47 -208v-30h-267q1 -74 19.5 -110.5t61.5 -36.5q31 0 49 26.5t18 73.5h119q0 -98 -51 -148t-135 -50q-103 0 -154.5 67.5zM297 320q0 120 -64 120q-37 0 -55 -30.5t-21 -89.5h140zM245 723h120l1 -3
l-108 -129h-99z" />
    <glyph glyph-name="ecircumflex" unicode="&#xea;" 
d="M82.5 55.5q-51.5 67.5 -51.5 207.5q0 275 202 275q96 0 143 -67t47 -208v-30h-267q1 -74 19.5 -110.5t61.5 -36.5q31 0 49 26.5t18 73.5h119q0 -98 -51 -148t-135 -50q-103 0 -154.5 67.5zM297 320q0 120 -64 120q-37 0 -55 -30.5t-21 -89.5h140zM179 723h98l85 -135h-90
l-44 69l-45 -69h-90z" />
    <glyph glyph-name="edieresis" unicode="&#xeb;" 
d="M82.5 55.5q-51.5 67.5 -51.5 207.5q0 275 202 275q96 0 143 -67t47 -208v-30h-267q1 -74 19.5 -110.5t61.5 -36.5q31 0 49 26.5t18 73.5h119q0 -98 -51 -148t-135 -50q-103 0 -154.5 67.5zM297 320q0 120 -64 120q-37 0 -55 -30.5t-21 -89.5h140zM90 723h100v-109h-100
v109zM265 723h100v-109h-100v109z" />
    <glyph glyph-name="igrave" unicode="&#xec;" horiz-adv-x="228" 
d="M54 526h120v-526h-120v526zM-24 720l1 3h120l86 -132h-99z" />
    <glyph glyph-name="iacute" unicode="&#xed;" horiz-adv-x="228" 
d="M54 526h120v-526h-120v526zM131 723h120l1 -3l-108 -129h-99z" />
    <glyph glyph-name="icircumflex" unicode="&#xee;" horiz-adv-x="228" 
d="M54 526h120v-526h-120v526zM65 723h98l85 -135h-90l-44 69l-45 -69h-90z" />
    <glyph glyph-name="idieresis" unicode="&#xef;" horiz-adv-x="228" 
d="M54 526h120v-526h-120v526zM-24 723h100v-109h-100v109zM151 723h100v-109h-100v109z" />
    <glyph glyph-name="eth" unicode="&#xf0;" horiz-adv-x="501" 
d="M93 55q-52 67 -52 208q0 134 48.5 204.5t133.5 70.5q25 0 49 -8l3 4q-14 27 -38 61l-129 -11v73l75 7q-13 15 -53 55l2 4h126q24 -20 50 -48l130 12v-73l-75 -7q98 -143 98 -344q0 -141 -52 -208t-158 -67t-158 67zM316 127.5q20 38.5 20 116.5v38q0 78 -20 116.5
t-65 38.5t-65 -38.5t-20 -116.5v-38q0 -78 20 -116.5t65 -38.5t65 38.5z" />
    <glyph glyph-name="ntilde" unicode="&#xf1;" horiz-adv-x="501" 
d="M55 526h100l12 -65h6q23 34 56 55.5t77 21.5q65 0 102.5 -40.5t37.5 -128.5v-369h-120v336q0 49 -17.5 71t-51.5 22q-35 0 -58.5 -30.5t-23.5 -74.5v-324h-120v526zM107 686q25 37 73 37q16 0 30 -4.5t39 -14.5q21 -9 35 -13.5t29 -4.5q17 0 26.5 8.5t12.5 28.5h66
q0 -48 -25 -85t-74 -37q-16 0 -29.5 4.5t-38.5 14.5q-21 9 -35 13.5t-29 4.5q-34 0 -39 -37h-66q0 48 25 85z" />
    <glyph glyph-name="ograve" unicode="&#xf2;" horiz-adv-x="501" 
d="M93 55q-52 67 -52 208t52 208t158 67t158 -67t52 -208t-52 -208t-158 -67t-158 67zM316 127.5q20 38.5 20 116.5v38q0 78 -20 116.5t-65 38.5t-65 -38.5t-20 -116.5v-38q0 -78 20 -116.5t65 -38.5t65 38.5zM112 720l1 3h120l86 -132h-99z" />
    <glyph glyph-name="oacute" unicode="&#xf3;" horiz-adv-x="501" 
d="M93 55q-52 67 -52 208t52 208t158 67t158 -67t52 -208t-52 -208t-158 -67t-158 67zM316 127.5q20 38.5 20 116.5v38q0 78 -20 116.5t-65 38.5t-65 -38.5t-20 -116.5v-38q0 -78 20 -116.5t65 -38.5t65 38.5zM267 723h120l1 -3l-108 -129h-99z" />
    <glyph glyph-name="ocircumflex" unicode="&#xf4;" horiz-adv-x="501" 
d="M93 55q-52 67 -52 208t52 208t158 67t158 -67t52 -208t-52 -208t-158 -67t-158 67zM316 127.5q20 38.5 20 116.5v38q0 78 -20 116.5t-65 38.5t-65 -38.5t-20 -116.5v-38q0 -78 20 -116.5t65 -38.5t65 38.5zM201 723h98l85 -135h-90l-44 69l-45 -69h-90z" />
    <glyph glyph-name="otilde" unicode="&#xf5;" horiz-adv-x="501" 
d="M93 55q-52 67 -52 208t52 208t158 67t158 -67t52 -208t-52 -208t-158 -67t-158 67zM316 127.5q20 38.5 20 116.5v38q0 78 -20 116.5t-65 38.5t-65 -38.5t-20 -116.5v-38q0 -78 20 -116.5t65 -38.5t65 38.5zM107 686q25 37 73 37q16 0 30 -4.5t39 -14.5q21 -9 35 -13.5
t29 -4.5q17 0 26.5 8.5t12.5 28.5h66q0 -48 -25 -85t-74 -37q-16 0 -29.5 4.5t-38.5 14.5q-21 9 -35 13.5t-29 4.5q-34 0 -39 -37h-66q0 48 25 85z" />
    <glyph glyph-name="odieresis" unicode="&#xf6;" horiz-adv-x="501" 
d="M93 55q-52 67 -52 208t52 208t158 67t158 -67t52 -208t-52 -208t-158 -67t-158 67zM316 127.5q20 38.5 20 116.5v38q0 78 -20 116.5t-65 38.5t-65 -38.5t-20 -116.5v-38q0 -78 20 -116.5t65 -38.5t65 38.5zM112 723h100v-109h-100v109zM287 723h100v-109h-100v109z" />
    <glyph glyph-name="divide" unicode="&#xf7;" horiz-adv-x="549" 
d="M222 470h104v-111h-104v111zM33 307h482v-104h-482v104zM222 151h104v-110h-104v110z" />
    <glyph glyph-name="oslash" unicode="&#xf8;" horiz-adv-x="501" 
d="M461 263q0 -141 -52 -208t-158 -67q-59 0 -101 21l-22 -41h-75l44 82q-56 68 -56 213q0 141 52 208t158 67q59 0 101 -21l22 41h75l-44 -82q56 -68 56 -213zM170 183l129 238q-19 16 -48 16q-45 0 -65 -38.5t-20 -116.5v-38q0 -37 4 -61zM336 282q0 37 -4 61l-129 -238
q19 -16 48 -16q45 0 65 38.5t20 116.5v38z" />
    <glyph glyph-name="ugrave" unicode="&#xf9;" horiz-adv-x="501" 
d="M92.5 28.5q-37.5 40.5 -37.5 128.5v369h120v-336q0 -50 17 -71.5t52 -21.5t58.5 29.5t23.5 73.5v326h120v-526h-100l-12 65h-6q-23 -34 -56 -55.5t-77 -21.5q-65 0 -102.5 40.5zM112 720l1 3h120l86 -132h-99z" />
    <glyph glyph-name="uacute" unicode="&#xfa;" horiz-adv-x="501" 
d="M92.5 28.5q-37.5 40.5 -37.5 128.5v369h120v-336q0 -50 17 -71.5t52 -21.5t58.5 29.5t23.5 73.5v326h120v-526h-100l-12 65h-6q-23 -34 -56 -55.5t-77 -21.5q-65 0 -102.5 40.5zM267 723h120l1 -3l-108 -129h-99z" />
    <glyph glyph-name="ucircumflex" unicode="&#xfb;" horiz-adv-x="501" 
d="M92.5 28.5q-37.5 40.5 -37.5 128.5v369h120v-336q0 -50 17 -71.5t52 -21.5t58.5 29.5t23.5 73.5v326h120v-526h-100l-12 65h-6q-23 -34 -56 -55.5t-77 -21.5q-65 0 -102.5 40.5zM201 723h98l85 -135h-90l-44 69l-45 -69h-90z" />
    <glyph glyph-name="udieresis" unicode="&#xfc;" horiz-adv-x="501" 
d="M92.5 28.5q-37.5 40.5 -37.5 128.5v369h120v-336q0 -50 17 -71.5t52 -21.5t58.5 29.5t23.5 73.5v326h120v-526h-100l-12 65h-6q-23 -34 -56 -55.5t-77 -21.5q-65 0 -102.5 40.5zM112 723h100v-109h-100v109zM287 723h100v-109h-100v109z" />
    <glyph glyph-name="yacute" unicode="&#xfd;" 
d="M67.5 -178.5q-23.5 3.5 -23.5 5.5v92h54q27 0 49 20t32 61l-175 526h127l79 -247q12 -38 28 -137h4q14 93 25 136l65 248h120l-144 -499q-28 -97 -72 -153t-114 -56q-31 0 -54.5 3.5zM245 723h120l1 -3l-108 -129h-99z" />
    <glyph glyph-name="thorn" unicode="&#xfe;" horiz-adv-x="501" 
d="M55 723h120v-257h1q19 35 49 53.5t66 18.5q80 0 124.5 -68.5t44.5 -207.5q0 -137 -44.5 -205.5t-118.5 -68.5q-40 0 -71.5 17.5t-45.5 48.5h-5v-227h-120v896zM316 133.5q19 36.5 19 110.5v38q0 74 -19 110.5t-61 36.5t-61 -36.5t-19 -110.5v-36q0 -74 19 -111.5
t61 -37.5t61 36.5z" />
    <glyph glyph-name="ydieresis" unicode="&#xff;" 
d="M67.5 -178.5q-23.5 3.5 -23.5 5.5v92h54q27 0 49 20t32 61l-175 526h127l79 -247q12 -38 28 -137h4q14 93 25 136l65 248h120l-144 -499q-28 -97 -72 -153t-114 -56q-31 0 -54.5 3.5zM90 723h100v-109h-100v109zM265 723h100v-109h-100v109z" />
    <glyph glyph-name="Amacron" unicode="&#x100;" horiz-adv-x="592" 
d="M221 686h149l221 -686h-131l-42 135h-253l-41 -135h-124zM383 249l-69 229q-10 34 -20 93h-4q-10 -63 -20 -93l-70 -229h183zM168 846h255v-87h-255v87z" />
    <glyph glyph-name="amacron" unicode="&#x101;" 
d="M55.5 21.5q-41.5 33.5 -41.5 114.5q0 100 68 142t193 42v55q0 31 -11.5 48t-43.5 17q-33 0 -48 -16.5t-15 -38.5v-15h-117q-1 6 -1 22q0 66 48.5 106t129.5 40q90 0 134.5 -40t44.5 -115v-259q0 -18 8 -26.5t20 -8.5h24v-85q-30 -16 -71 -16q-35 0 -59.5 18.5t-33.5 50.5
h-5q-25 -35 -54.5 -52t-78.5 -17t-90.5 33.5zM255.5 120q19.5 32 19.5 83v30q-61 0 -99.5 -19.5t-38.5 -66.5q0 -28 14.5 -43.5t44.5 -15.5q40 0 59.5 32zM89 686h255v-87h-255v87z" />
    <glyph glyph-name="Abreve" unicode="&#x102;" horiz-adv-x="592" 
d="M221 686h149l221 -686h-131l-42 135h-253l-41 -135h-124zM383 249l-69 229q-10 34 -20 93h-4q-10 -63 -20 -93l-70 -229h183zM225.5 752q-30.5 16 -47 40.5t-16.5 50.5h74q3 -12 19.5 -22.5t39.5 -10.5q24 0 41 10.5t19 22.5h74q0 -26 -16.5 -50.5t-47 -40.5t-70.5 -16
q-39 0 -69.5 16z" />
    <glyph glyph-name="abreve" unicode="&#x103;" 
d="M55.5 21.5q-41.5 33.5 -41.5 114.5q0 100 68 142t193 42v55q0 31 -11.5 48t-43.5 17q-33 0 -48 -16.5t-15 -38.5v-15h-117q-1 6 -1 22q0 66 48.5 106t129.5 40q90 0 134.5 -40t44.5 -115v-259q0 -18 8 -26.5t20 -8.5h24v-85q-30 -16 -71 -16q-35 0 -59.5 18.5t-33.5 50.5
h-5q-25 -35 -54.5 -52t-78.5 -17t-90.5 33.5zM255.5 120q19.5 32 19.5 83v30q-61 0 -99.5 -19.5t-38.5 -66.5q0 -28 14.5 -43.5t44.5 -15.5q40 0 59.5 32zM146.5 592q-30.5 16 -47 40.5t-16.5 50.5h74q3 -12 19.5 -22.5t39.5 -10.5q24 0 41 10.5t19 22.5h74
q0 -26 -16.5 -50.5t-47 -40.5t-70.5 -16q-39 0 -69.5 16z" />
    <glyph glyph-name="Aogonek" unicode="&#x104;" horiz-adv-x="592" 
d="M611 -121v-56q-36 -11 -66 -11q-48 0 -74 23.5t-26 58.5q0 27 17 55.5t50 50.5h-52l-42 135h-253l-41 -135h-124l221 686h149l221 -686q-27 -18 -43 -40.5t-16 -42.5q0 -17 14 -27.5t43 -10.5h22zM383 249l-69 229q-10 34 -20 93h-4q-10 -63 -20 -93l-70 -229h183z" />
    <glyph glyph-name="aogonek" unicode="&#x105;" 
d="M485 -117v-55q-36 -14 -66 -14q-41 0 -70 21.5t-29 68.5q0 41 33 87q-26 5 -43.5 22.5t-25.5 43.5h-5q-25 -35 -54.5 -52t-78.5 -17t-90.5 33.5t-41.5 114.5q0 100 68 142t193 42v55q0 31 -11.5 48t-43.5 17q-33 0 -48 -16.5t-15 -38.5v-15h-117q-1 6 -1 22
q0 66 48.5 106t129.5 40q90 0 134.5 -40t44.5 -115v-259q0 -18 8 -26.5t20 -8.5h24v-85q-13 -11 -22 -30.5t-9 -39.5q0 -22 11.5 -36.5t34.5 -14.5h22zM275 233q-61 0 -99.5 -19.5t-38.5 -66.5q0 -28 14.5 -43.5t44.5 -15.5q40 0 59.5 32t19.5 83v30z" />
    <glyph glyph-name="Cacute" unicode="&#x106;" horiz-adv-x="592" 
d="M104.5 76.5q-70.5 88.5 -70.5 266.5t70.5 266.5t202.5 88.5q113 0 182.5 -67t69.5 -200h-131q0 77 -32.5 117t-88.5 40q-70 0 -105.5 -57.5t-35.5 -162.5v-50q0 -105 36.5 -162.5t108.5 -57.5q57 0 90 39.5t33 116.5h125q0 -130 -69 -198t-183 -68q-132 0 -202.5 88.5z
M299 853h130l1 -3l-88 -99h-109z" />
    <glyph glyph-name="cacute" unicode="&#x107;" 
d="M89 54.5q-48 66.5 -48 208.5q0 141 48.5 208t146.5 67q87 0 135.5 -51.5t48.5 -158.5h-123q0 109 -61 109q-37 0 -53.5 -38.5t-16.5 -116.5v-38q0 -78 17.5 -116.5t56.5 -38.5q32 0 46.5 27t14.5 82h119q0 -107 -47 -158.5t-133 -51.5q-103 0 -151 66.5zM254 723h120
l1 -3l-108 -129h-99z" />
    <glyph glyph-name="Ccircumflex" unicode="&#x108;" horiz-adv-x="592" 
d="M104.5 76.5q-70.5 88.5 -70.5 266.5t70.5 266.5t202.5 88.5q113 0 182.5 -67t69.5 -200h-131q0 77 -32.5 117t-88.5 40q-70 0 -105.5 -57.5t-35.5 -162.5v-50q0 -105 36.5 -162.5t108.5 -57.5q57 0 90 39.5t33 116.5h125q0 -130 -69 -198t-183 -68q-132 0 -202.5 88.5z
M258 853h98l85 -105h-90l-44 39l-45 -39h-90z" />
    <glyph glyph-name="ccircumflex" unicode="&#x109;" 
d="M89 54.5q-48 66.5 -48 208.5q0 141 48.5 208t146.5 67q87 0 135.5 -51.5t48.5 -158.5h-123q0 109 -61 109q-37 0 -53.5 -38.5t-16.5 -116.5v-38q0 -78 17.5 -116.5t56.5 -38.5q32 0 46.5 27t14.5 82h119q0 -107 -47 -158.5t-133 -51.5q-103 0 -151 66.5zM188 723h98
l85 -135h-90l-44 69l-45 -69h-90z" />
    <glyph glyph-name="Cdotaccent" unicode="&#x10a;" horiz-adv-x="592" 
d="M104.5 76.5q-70.5 88.5 -70.5 266.5t70.5 266.5t202.5 88.5q113 0 182.5 -67t69.5 -200h-131q0 77 -32.5 117t-88.5 40q-70 0 -105.5 -57.5t-35.5 -162.5v-50q0 -105 36.5 -162.5t108.5 -57.5q57 0 90 39.5t33 116.5h125q0 -130 -69 -198t-183 -68q-132 0 -202.5 88.5z
M243 883h128v-115h-128v115z" />
    <glyph glyph-name="cdotaccent" unicode="&#x10b;" 
d="M89 54.5q-48 66.5 -48 208.5q0 141 48.5 208t146.5 67q87 0 135.5 -51.5t48.5 -158.5h-123q0 109 -61 109q-37 0 -53.5 -38.5t-16.5 -116.5v-38q0 -78 17.5 -116.5t56.5 -38.5q32 0 46.5 27t14.5 82h119q0 -107 -47 -158.5t-133 -51.5q-103 0 -151 66.5zM176 723h121
v-115h-121v115z" />
    <glyph glyph-name="Ccaron" unicode="&#x10c;" horiz-adv-x="592" 
d="M104.5 76.5q-70.5 88.5 -70.5 266.5t70.5 266.5t202.5 88.5q113 0 182.5 -67t69.5 -200h-131q0 77 -32.5 117t-88.5 40q-70 0 -105.5 -57.5t-35.5 -162.5v-50q0 -105 36.5 -162.5t108.5 -57.5q57 0 90 39.5t33 116.5h125q0 -130 -69 -198t-183 -68q-132 0 -202.5 88.5z
M172 853h90l45 -39l44 39h90l-85 -105h-98z" />
    <glyph glyph-name="ccaron" unicode="&#x10d;" 
d="M89 54.5q-48 66.5 -48 208.5q0 141 48.5 208t146.5 67q87 0 135.5 -51.5t48.5 -158.5h-123q0 109 -61 109q-37 0 -53.5 -38.5t-16.5 -116.5v-38q0 -78 17.5 -116.5t56.5 -38.5q32 0 46.5 27t14.5 82h119q0 -107 -47 -158.5t-133 -51.5q-103 0 -151 66.5zM102 723h90
l45 -69l44 69h90l-85 -135h-98z" />
    <glyph glyph-name="Dcaron" unicode="&#x10e;" horiz-adv-x="592" 
d="M60 686h223q130 0 202.5 -85t72.5 -248q0 -173 -72 -263t-203 -90h-223v686zM271 114q73 0 114 54.5t41 159.5v50q0 95 -41 144.5t-114 49.5h-83v-458h83zM128 853h90l45 -39l44 39h90l-85 -105h-98z" />
    <glyph glyph-name="dcaron" unicode="&#x10f;" horiz-adv-x="501" 
d="M85.5 56.5q-44.5 68.5 -44.5 207.5q0 137 44.5 205.5t118.5 68.5q40 0 71.5 -17.5t45.5 -48.5h5v251h120v-723h-100l-12 65h-5q-19 -38 -50 -57.5t-69 -19.5q-80 0 -124.5 68.5zM307 133.5q19 36.5 19 110.5v36q0 74 -19 111.5t-61 37.5t-61 -36.5t-19 -110.5v-38
q0 -74 19 -110.5t61 -36.5t61 36.5zM516 723h98l-66 -177h-72z" />
    <glyph glyph-name="Dcroat" unicode="&#x110;" horiz-adv-x="592" 
d="M60 312h-50v85h50v289h223q130 0 202.5 -85t72.5 -248q0 -173 -72 -263t-203 -90h-223v312zM271 114q73 0 114 54.5t41 159.5v50q0 95 -41 144.5t-114 49.5h-83v-175h125v-85h-125v-198h83z" />
    <glyph glyph-name="dcroat" unicode="&#x111;" horiz-adv-x="501" 
d="M500 583h-54v-583h-100l-12 65h-5q-19 -38 -50 -57.5t-69 -19.5q-80 0 -124.5 68.5t-44.5 207.5q0 137 44.5 205.5t118.5 68.5q40 0 71.5 -17.5t45.5 -48.5h5v111h-132v87h132v53h120v-53h54v-87zM326 280q0 74 -19 111.5t-61 37.5t-61 -36.5t-19 -110.5v-38
q0 -74 19 -110.5t61 -36.5t61 36.5t19 110.5v36z" />
    <glyph glyph-name="Emacron" unicode="&#x112;" horiz-adv-x="547" 
d="M60 686h437v-114h-309v-164h265v-114h-265v-180h315v-114h-443v686zM151 846h255v-87h-255v87z" />
    <glyph glyph-name="emacron" unicode="&#x113;" 
d="M82.5 55.5q-51.5 67.5 -51.5 207.5q0 275 202 275q96 0 143 -67t47 -208v-30h-267q1 -74 19.5 -110.5t61.5 -36.5q31 0 49 26.5t18 73.5h119q0 -98 -51 -148t-135 -50q-103 0 -154.5 67.5zM297 320q0 120 -64 120q-37 0 -55 -30.5t-21 -89.5h140zM100 686h255v-87h-255
v87z" />
    <glyph glyph-name="Ebreve" unicode="&#x114;" horiz-adv-x="547" 
d="M60 686h437v-114h-309v-164h265v-114h-265v-180h315v-114h-443v686zM208.5 752q-30.5 16 -47 40.5t-16.5 50.5h74q3 -12 19.5 -22.5t39.5 -10.5q24 0 41 10.5t19 22.5h74q0 -26 -16.5 -50.5t-47 -40.5t-70.5 -16q-39 0 -69.5 16z" />
    <glyph glyph-name="ebreve" unicode="&#x115;" 
d="M82.5 55.5q-51.5 67.5 -51.5 207.5q0 275 202 275q96 0 143 -67t47 -208v-30h-267q1 -74 19.5 -110.5t61.5 -36.5q31 0 49 26.5t18 73.5h119q0 -98 -51 -148t-135 -50q-103 0 -154.5 67.5zM297 320q0 120 -64 120q-37 0 -55 -30.5t-21 -89.5h140zM157.5 592
q-30.5 16 -47 40.5t-16.5 50.5h74q3 -12 19.5 -22.5t39.5 -10.5q24 0 41 10.5t19 22.5h74q0 -26 -16.5 -50.5t-47 -40.5t-70.5 -16q-39 0 -69.5 16z" />
    <glyph glyph-name="Edotaccent" unicode="&#x116;" horiz-adv-x="547" 
d="M60 686h437v-114h-309v-164h265v-114h-265v-180h315v-114h-443v686zM215 883h128v-115h-128v115z" />
    <glyph glyph-name="edotaccent" unicode="&#x117;" 
d="M82.5 55.5q-51.5 67.5 -51.5 207.5q0 275 202 275q96 0 143 -67t47 -208v-30h-267q1 -74 19.5 -110.5t61.5 -36.5q31 0 49 26.5t18 73.5h119q0 -98 -51 -148t-135 -50q-103 0 -154.5 67.5zM297 320q0 120 -64 120q-37 0 -55 -30.5t-21 -89.5h140zM167 723h121v-115h-121
v115z" />
    <glyph glyph-name="Eogonek" unicode="&#x118;" horiz-adv-x="547" 
d="M523 -121v-56q-36 -11 -66 -11q-48 0 -74 23.5t-26 58.5q0 27 17 55.5t50 50.5h-364v686h437v-114h-309v-164h265v-114h-265v-180h315v-114q-27 -18 -43 -40.5t-16 -42.5q0 -17 14 -27.5t43 -10.5h22z" />
    <glyph glyph-name="eogonek" unicode="&#x119;" 
d="M423 233h-267q1 -74 19.5 -110.5t61.5 -36.5q31 0 49 26.5t18 73.5h119q0 -69 -26 -114.5t-73 -66.5q-13 -11 -22 -30.5t-9 -39.5q0 -22 11.5 -36.5t34.5 -14.5h22v-55q-36 -14 -66 -14q-41 0 -70 21.5t-29 68.5q0 42 31 83q-98 3 -147 70.5t-49 204.5q0 275 202 275
q96 0 143 -67t47 -208v-30zM297 320q0 120 -64 120q-37 0 -55 -30.5t-21 -89.5h140z" />
    <glyph glyph-name="Ecaron" unicode="&#x11a;" horiz-adv-x="547" 
d="M60 686h437v-114h-309v-164h265v-114h-265v-180h315v-114h-443v686zM144 853h90l45 -39l44 39h90l-85 -105h-98z" />
    <glyph glyph-name="ecaron" unicode="&#x11b;" 
d="M82.5 55.5q-51.5 67.5 -51.5 207.5q0 275 202 275q96 0 143 -67t47 -208v-30h-267q1 -74 19.5 -110.5t61.5 -36.5q31 0 49 26.5t18 73.5h119q0 -98 -51 -148t-135 -50q-103 0 -154.5 67.5zM297 320q0 120 -64 120q-37 0 -55 -30.5t-21 -89.5h140zM93 723h90l45 -69l44 69
h90l-85 -135h-98z" />
    <glyph glyph-name="Gcircumflex" unicode="&#x11c;" horiz-adv-x="638" 
d="M302 373h285v-373h-83l-22 76q-33 -43 -80.5 -65.5t-102.5 -22.5q-129 0 -197 87.5t-68 267.5q0 179 75 267t216 88q71 0 130.5 -29.5t95.5 -86.5t36 -136h-131q0 67 -38.5 104.5t-96.5 37.5q-78 0 -116.5 -57t-38.5 -163v-50q0 -107 38.5 -163.5t117.5 -56.5
q59 0 96.5 45.5t37.5 119.5h-154v110zM270 853h98l85 -105h-90l-44 39l-45 -39h-90z" />
    <glyph glyph-name="gcircumflex" unicode="&#x11d;" horiz-adv-x="501" 
d="M206 723h89l76 -135h-81l-39 69l-41 -69h-81zM49.5 -148q-33.5 34 -33.5 87q0 70 67 107q-42 26 -42 79q0 33 21.5 56.5t55.5 35.5q-64 47 -64 142q0 83 50.5 131t143.5 48q50 0 88 -15q27 19 39 45.5t12 45.5h99q0 -108 -85 -134q42 -47 42 -121q0 -83 -50.5 -131
t-144.5 -48h-50q-16 0 -26 -9t-10 -23q0 -13 9 -22t22 -9h182q51 0 85.5 -37.5t34.5 -99.5q0 -48 -22.5 -85t-61.5 -57t-86 -20h-193q-49 0 -82.5 34zM304 292.5q19 23.5 19 66.5t-19 66.5t-56 23.5q-36 0 -55 -23.5t-19 -66.5t19 -66.5t55 -23.5q37 0 56 23.5zM320 -91
q23 0 38.5 13.5t15.5 35.5t-14 35t-35 13h-140q-20 0 -34 -14t-14 -34q0 -22 13.5 -35.5t34.5 -13.5h135z" />
    <glyph glyph-name="Gbreve" unicode="&#x11e;" horiz-adv-x="638" 
d="M302 373h285v-373h-83l-22 76q-33 -43 -80.5 -65.5t-102.5 -22.5q-129 0 -197 87.5t-68 267.5q0 179 75 267t216 88q71 0 130.5 -29.5t95.5 -86.5t36 -136h-131q0 67 -38.5 104.5t-96.5 37.5q-78 0 -116.5 -57t-38.5 -163v-50q0 -107 38.5 -163.5t117.5 -56.5
q59 0 96.5 45.5t37.5 119.5h-154v110zM248.5 752q-30.5 16 -47 40.5t-16.5 50.5h74q3 -12 19.5 -22.5t39.5 -10.5q24 0 41 10.5t19 22.5h74q0 -26 -16.5 -50.5t-47 -40.5t-70.5 -16q-39 0 -69.5 16z" />
    <glyph glyph-name="gbreve" unicode="&#x11f;" horiz-adv-x="501" 
d="M49.5 -148q-33.5 34 -33.5 87q0 70 67 107q-42 26 -42 79q0 33 21.5 56.5t55.5 35.5q-64 47 -64 142q0 83 50.5 131t143.5 48q50 0 88 -15q27 19 39 45.5t12 45.5h99q0 -108 -85 -134q42 -47 42 -121q0 -83 -50.5 -131t-144.5 -48h-50q-16 0 -26 -9t-10 -23q0 -13 9 -22
t22 -9h182q51 0 85.5 -37.5t34.5 -99.5q0 -48 -22.5 -85t-61.5 -57t-86 -20h-193q-49 0 -82.5 34zM304 292.5q19 23.5 19 66.5t-19 66.5t-56 23.5q-36 0 -55 -23.5t-19 -66.5t19 -66.5t55 -23.5q37 0 56 23.5zM320 -91q23 0 38.5 13.5t15.5 35.5t-14 35t-35 13h-140
q-20 0 -34 -14t-14 -34q0 -22 13.5 -35.5t34.5 -13.5h135zM179.5 592q-30.5 16 -47 40.5t-16.5 50.5h74q3 -12 19.5 -22.5t39.5 -10.5q24 0 41 10.5t19 22.5h74q0 -26 -16.5 -50.5t-47 -40.5t-70.5 -16q-39 0 -69.5 16z" />
    <glyph glyph-name="Gdotaccent" unicode="&#x120;" horiz-adv-x="638" 
d="M302 373h285v-373h-83l-22 76q-33 -43 -80.5 -65.5t-102.5 -22.5q-129 0 -197 87.5t-68 267.5q0 179 75 267t216 88q71 0 130.5 -29.5t95.5 -86.5t36 -136h-131q0 67 -38.5 104.5t-96.5 37.5q-78 0 -116.5 -57t-38.5 -163v-50q0 -107 38.5 -163.5t117.5 -56.5
q59 0 96.5 45.5t37.5 119.5h-154v110zM255 883h128v-115h-128v115z" />
    <glyph glyph-name="gdotaccent" unicode="&#x121;" horiz-adv-x="501" 
d="M49.5 -148q-33.5 34 -33.5 87q0 70 67 107q-42 26 -42 79q0 33 21.5 56.5t55.5 35.5q-64 47 -64 142q0 83 50.5 131t143.5 48q50 0 88 -15q27 19 39 45.5t12 45.5h99q0 -108 -85 -134q42 -47 42 -121q0 -83 -50.5 -131t-144.5 -48h-50q-16 0 -26 -9t-10 -23q0 -13 9 -22
t22 -9h182q51 0 85.5 -37.5t34.5 -99.5q0 -48 -22.5 -85t-61.5 -57t-86 -20h-193q-49 0 -82.5 34zM304 292.5q19 23.5 19 66.5t-19 66.5t-56 23.5q-36 0 -55 -23.5t-19 -66.5t19 -66.5t55 -23.5q37 0 56 23.5zM320 -91q23 0 38.5 13.5t15.5 35.5t-14 35t-35 13h-140
q-20 0 -34 -14t-14 -34q0 -22 13.5 -35.5t34.5 -13.5h135zM189 723h121v-115h-121v115z" />
    <glyph glyph-name="uni0122" unicode="&#x122;" horiz-adv-x="638" 
d="M302 373h285v-373h-83l-22 76q-33 -43 -80.5 -65.5t-102.5 -22.5q-129 0 -197 87.5t-68 267.5q0 179 75 267t216 88q71 0 130.5 -29.5t95.5 -86.5t36 -136h-131q0 67 -38.5 104.5t-96.5 37.5q-78 0 -116.5 -57t-38.5 -163v-50q0 -107 38.5 -163.5t117.5 -56.5
q59 0 96.5 45.5t37.5 119.5h-154v110zM290 -178h-49v111h128v-100l-46 -96h-65z" />
    <glyph glyph-name="uni0123" unicode="&#x123;" horiz-adv-x="501" 
d="M49.5 -148q-33.5 34 -33.5 87q0 70 67 107q-42 26 -42 79q0 33 21.5 56.5t55.5 35.5q-64 47 -64 142q0 83 50.5 131t143.5 48q50 0 88 -15q27 19 39 45.5t12 45.5h99q0 -108 -85 -134q42 -47 42 -121q0 -83 -50.5 -131t-144.5 -48h-50q-16 0 -26 -9t-10 -23q0 -13 9 -22
t22 -9h182q51 0 85.5 -37.5t34.5 -99.5q0 -48 -22.5 -85t-61.5 -57t-86 -20h-193q-49 0 -82.5 34zM304 292.5q19 23.5 19 66.5t-19 66.5t-56 23.5q-36 0 -55 -23.5t-19 -66.5t19 -66.5t55 -23.5q37 0 56 23.5zM320 -91q23 0 38.5 13.5t15.5 35.5t-14 35t-35 13h-140
q-20 0 -34 -14t-14 -34q0 -22 13.5 -35.5t34.5 -13.5h135zM187 708l46 96h79l-37 -85h33v-111h-121v100z" />
    <glyph glyph-name="Hcircumflex" unicode="&#x124;" horiz-adv-x="592" 
d="M60 686h128v-278h216v278h128v-686h-128v294h-216v-294h-128v686zM247 853h98l85 -105h-90l-44 39l-45 -39h-90z" />
    <glyph glyph-name="hcircumflex" unicode="&#x125;" horiz-adv-x="501" 
d="M55 723h120v-253h4q20 29 52 48.5t75 19.5q65 0 102.5 -40.5t37.5 -128.5v-369h-120v336q0 49 -17.5 71t-51.5 22q-35 0 -58.5 -30.5t-23.5 -74.5v-324h-120v723zM63 853h98l85 -105h-90l-44 39l-45 -39h-90z" />
    <glyph glyph-name="Hbar" unicode="&#x126;" horiz-adv-x="592" 
d="M583 494h-51v-494h-128v294h-216v-294h-128v494h-50v92h50v100h128v-100h216v100h128v-100h51v-92zM404 494h-216v-86h216v86z" />
    <glyph glyph-name="hbar" unicode="&#x127;" horiz-adv-x="501" 
d="M408.5 497.5q37.5 -40.5 37.5 -128.5v-369h-120v336q0 49 -17.5 71t-51.5 22q-35 0 -58.5 -30.5t-23.5 -74.5v-324h-120v593h-55v68h55v62h120v-62h131v-68h-131v-123h4q20 29 52 48.5t75 19.5q65 0 102.5 -40.5z" />
    <glyph glyph-name="Itilde" unicode="&#x128;" horiz-adv-x="228" 
d="M50 686h128v-686h-128v686zM-15.5 823.5q22.5 33.5 66.5 33.5q14 0 26.5 -4t35.5 -13q19 -8 32 -12t26 -4q31 0 36 33h59q0 -43 -22.5 -76.5t-66.5 -33.5q-14 0 -26.5 4t-35.5 13q-19 8 -32 12t-26 4q-31 0 -36 -33h-59q0 43 22.5 76.5z" />
    <glyph glyph-name="itilde" unicode="&#x129;" horiz-adv-x="228" 
d="M54 526h120v-526h-120v526zM-29 686q25 37 73 37q16 0 30 -4.5t39 -14.5q21 -9 35 -13.5t29 -4.5q17 0 26.5 8.5t12.5 28.5h66q0 -48 -25 -85t-74 -37q-16 0 -29.5 4.5t-38.5 14.5q-21 9 -35 13.5t-29 4.5q-34 0 -39 -37h-66q0 48 25 85z" />
    <glyph glyph-name="Imacron" unicode="&#x12a;" horiz-adv-x="228" 
d="M50 686h128v-686h-128v686zM-14 846h255v-87h-255v87z" />
    <glyph glyph-name="imacron" unicode="&#x12b;" horiz-adv-x="228" 
d="M54 526h120v-526h-120v526zM-14 686h255v-87h-255v87z" />
    <glyph glyph-name="Ibreve" unicode="&#x12c;" horiz-adv-x="228" 
d="M50 686h128v-686h-128v686zM43.5 752q-30.5 16 -47 40.5t-16.5 50.5h74q3 -12 19.5 -22.5t39.5 -10.5q24 0 41 10.5t19 22.5h74q0 -26 -16.5 -50.5t-47 -40.5t-70.5 -16q-39 0 -69.5 16z" />
    <glyph glyph-name="ibreve" unicode="&#x12d;" horiz-adv-x="228" 
d="M54 526h120v-526h-120v526zM43.5 592q-30.5 16 -47 40.5t-16.5 50.5h74q3 -12 19.5 -22.5t39.5 -10.5q24 0 41 10.5t19 22.5h74q0 -26 -16.5 -50.5t-47 -40.5t-70.5 -16q-39 0 -69.5 16z" />
    <glyph glyph-name="Iogonek" unicode="&#x12e;" horiz-adv-x="228" 
d="M115 -40.5q-16 -22.5 -16 -42.5q0 -17 14 -27.5t43 -10.5h22v-56q-36 -11 -66 -11q-48 0 -74 23.5t-26 58.5q0 27 17 55.5t50 50.5h-29v686h128v-686h-20q-27 -18 -43 -40.5z" />
    <glyph glyph-name="iogonek" unicode="&#x12f;" horiz-adv-x="228" 
d="M174 608h-121v115h121v-115zM197 -121v-55q-36 -14 -66 -14q-41 0 -70 21.5t-29 68.5q0 25 12.5 52t31.5 48h-22v526h120v-526h-14q-13 -11 -22 -30.5t-9 -39.5q0 -22 11.5 -36.5t34.5 -14.5h22z" />
    <glyph glyph-name="Idotaccent" unicode="&#x130;" horiz-adv-x="228" 
d="M50 686h128v-686h-128v686zM50 883h128v-115h-128v115z" />
    <glyph glyph-name="dotlessi" unicode="&#x131;" horiz-adv-x="228" 
d="M54 526h120v-526h-120v526z" />
    <glyph glyph-name="IJ" unicode="&#x132;" horiz-adv-x="684" 
d="M50 686h128v-686h-128v686zM287.5 33q-50.5 45 -50.5 130v53h127v-43q0 -36 17 -55.5t50 -19.5q32 0 48.5 19.5t16.5 55.5v513h128v-523q0 -85 -50 -130t-143 -45t-143.5 45z" />
    <glyph glyph-name="ij" unicode="&#x133;" 
d="M54 526h120v-526h-120v526zM53 723h121v-115h-121v115zM233.5 -178.5q-25.5 3.5 -42.5 8.5v89h44q47 0 47 48v559h120v-567q0 -61 -28 -101t-94 -40q-21 0 -46.5 3.5zM281 723h121v-115h-121v115z" />
    <glyph glyph-name="Jcircumflex" unicode="&#x134;" 
d="M59.5 33q-50.5 45 -50.5 130v53h127v-43q0 -36 17 -55.5t50 -19.5q32 0 48.5 19.5t16.5 55.5v513h128v-523q0 -85 -50 -130t-143 -45t-143.5 45zM285 853h98l85 -105h-90l-44 39l-45 -39h-90z" />
    <glyph glyph-name="jcircumflex" unicode="&#x135;" horiz-adv-x="228" 
d="M5.5 -178.5q-25.5 3.5 -42.5 8.5v89h44q47 0 47 48v559h120v-567q0 -61 -28 -101t-94 -40q-21 0 -46.5 3.5zM65 723h98l85 -135h-90l-44 69l-45 -69h-90z" />
    <glyph glyph-name="uni0136" unicode="&#x136;" horiz-adv-x="592" 
d="M60 686h129v-351l251 351h143l-203 -279l209 -407h-144l-149 306l-107 -131v-175h-129v686zM283 -178h-49v111h128v-100l-46 -96h-65z" />
    <glyph glyph-name="uni0137" unicode="&#x137;" 
d="M54 723h120v-406l147 209h128l-156 -214l164 -312h-133l-106 218l-44 -54v-164h-120v723zM208 -178h-32v111h107v-100l-46 -96h-65z" />
    <glyph glyph-name="kgreenlandic" unicode="&#x138;" horiz-adv-x="457" 
d="M54 526h120v-209l147 209h128l-156 -214l164 -312h-133l-106 218l-44 -54v-164h-120v526z" />
    <glyph glyph-name="Lacute" unicode="&#x139;" horiz-adv-x="501" 
d="M60 686h128v-566h290v-120h-418v686zM115 853h130l1 -3l-88 -99h-109z" />
    <glyph glyph-name="lacute" unicode="&#x13a;" horiz-adv-x="228" 
d="M54 723h120v-723h-120v723zM106 867h130l1 -3l-88 -99h-109z" />
    <glyph glyph-name="uni013B" unicode="&#x13b;" horiz-adv-x="501" 
d="M60 686h128v-566h290v-120h-418v686zM237 -178h-49v111h128v-100l-46 -96h-65z" />
    <glyph glyph-name="uni013C" unicode="&#x13c;" horiz-adv-x="228" 
d="M54 723h120v-723h-120v723zM94 -178h-32v111h107v-100l-46 -96h-65z" />
    <glyph glyph-name="Lcaron" unicode="&#x13d;" horiz-adv-x="501" 
d="M60 686h128v-566h290v-120h-418v686zM329 723h98l-66 -177h-72z" />
    <glyph glyph-name="lcaron" unicode="&#x13e;" horiz-adv-x="228" 
d="M54 723h120v-723h-120v723zM244 723h98l-66 -177h-72z" />
    <glyph glyph-name="Ldot" unicode="&#x13f;" horiz-adv-x="501" 
d="M60 686h128v-566h290v-120h-418v686zM311 423h128v-125h-128v125z" />
    <glyph glyph-name="ldot" unicode="&#x140;" horiz-adv-x="228" 
d="M54 723h120v-723h-120v723zM210 425h128v-125h-128v125z" />
    <glyph glyph-name="Lslash" unicode="&#x141;" horiz-adv-x="501" 
d="M60 207l-60 -53v95l60 53v384h128v-270l141 126v-97l-141 -125v-200h290v-120h-418v207z" />
    <glyph glyph-name="lslash" unicode="&#x142;" horiz-adv-x="228" 
d="M253 408l-79 -70v-338h-120v231l-68 -60v96l68 61v395h120v-288l79 70v-97z" />
    <glyph glyph-name="Nacute" unicode="&#x143;" horiz-adv-x="592" 
d="M60 686h113l212 -378q10 -16 31 -64l3 3l-1 57v382h114v-686h-114l-212 378q-8 13 -31 64l-4 -3l2 -57v-382h-113v686zM288 853h130l1 -3l-88 -99h-109z" />
    <glyph glyph-name="nacute" unicode="&#x144;" horiz-adv-x="501" 
d="M55 526h100l12 -65h6q23 34 56 55.5t77 21.5q65 0 102.5 -40.5t37.5 -128.5v-369h-120v336q0 49 -17.5 71t-51.5 22q-35 0 -58.5 -30.5t-23.5 -74.5v-324h-120v526zM267 723h120l1 -3l-108 -129h-99z" />
    <glyph glyph-name="uni0145" unicode="&#x145;" horiz-adv-x="592" 
d="M60 686h113l212 -378q10 -16 31 -64l3 3l-1 57v382h114v-686h-114l-212 378q-8 13 -31 64l-4 -3l2 -57v-382h-113v686zM283 -178h-49v111h128v-100l-46 -96h-65z" />
    <glyph glyph-name="uni0146" unicode="&#x146;" horiz-adv-x="501" 
d="M55 526h100l12 -65h6q23 34 56 55.5t77 21.5q65 0 102.5 -40.5t37.5 -128.5v-369h-120v336q0 49 -17.5 71t-51.5 22q-35 0 -58.5 -30.5t-23.5 -74.5v-324h-120v526zM230 -178h-32v111h107v-100l-46 -96h-65z" />
    <glyph glyph-name="Ncaron" unicode="&#x147;" horiz-adv-x="592" 
d="M60 686h113l212 -378q10 -16 31 -64l3 3l-1 57v382h114v-686h-114l-212 378q-8 13 -31 64l-4 -3l2 -57v-382h-113v686zM161 853h90l45 -39l44 39h90l-85 -105h-98z" />
    <glyph glyph-name="ncaron" unicode="&#x148;" horiz-adv-x="501" 
d="M55 526h100l12 -65h6q23 34 56 55.5t77 21.5q65 0 102.5 -40.5t37.5 -128.5v-369h-120v336q0 49 -17.5 71t-51.5 22q-35 0 -58.5 -30.5t-23.5 -74.5v-324h-120v526zM115 723h90l45 -69l44 69h90l-85 -135h-98z" />
    <glyph glyph-name="napostrophe" unicode="&#x149;" horiz-adv-x="501" 
d="M55 526h100l12 -65h6q23 34 56 55.5t77 21.5q65 0 102.5 -40.5t37.5 -128.5v-369h-120v336q0 49 -17.5 71t-51.5 22q-35 0 -58.5 -30.5t-23.5 -74.5v-324h-120v526zM-4 571h-55v115h138v-103l-66 -124h-72z" />
    <glyph glyph-name="Eng" unicode="&#x14a;" horiz-adv-x="592" 
d="M364.5 -178.5q-24.5 3.5 -41.5 8.5v89h45q47 0 47 48v33l-209 378q-8 13 -31 64l-4 -3l2 -57v-382h-113v686h113l212 -378q10 -16 31 -64l3 3l-1 57v382h114v-727q0 -61 -28 -101t-94 -40q-21 0 -45.5 3.5z" />
    <glyph glyph-name="eng" unicode="&#x14b;" horiz-adv-x="501" 
d="M277.5 -178.5q-25.5 3.5 -42.5 8.5v89h44q47 0 47 48v369q0 49 -17.5 71t-51.5 22q-35 0 -58.5 -30.5t-23.5 -74.5v-324h-120v526h100l12 -65h6q23 34 56 55.5t77 21.5q65 0 102.5 -40.5t37.5 -128.5v-410q0 -61 -28 -101t-94 -40q-21 0 -46.5 3.5z" />
    <glyph glyph-name="Omacron" unicode="&#x14c;" horiz-adv-x="638" 
d="M108.5 76.5q-74.5 88.5 -74.5 266.5t74.5 266.5t210.5 88.5t210.5 -88.5t74.5 -266.5t-74.5 -266.5t-210.5 -88.5t-210.5 88.5zM433 155.5q39 57.5 39 162.5v50q0 105 -39 162.5t-114 57.5t-114 -57.5t-39 -162.5v-50q0 -105 39 -162.5t114 -57.5t114 57.5zM191 846h255
v-87h-255v87z" />
    <glyph glyph-name="omacron" unicode="&#x14d;" horiz-adv-x="501" 
d="M93 55q-52 67 -52 208t52 208t158 67t158 -67t52 -208t-52 -208t-158 -67t-158 67zM316 127.5q20 38.5 20 116.5v38q0 78 -20 116.5t-65 38.5t-65 -38.5t-20 -116.5v-38q0 -78 20 -116.5t65 -38.5t65 38.5zM122 686h255v-87h-255v87z" />
    <glyph glyph-name="Obreve" unicode="&#x14e;" horiz-adv-x="638" 
d="M108.5 76.5q-74.5 88.5 -74.5 266.5t74.5 266.5t210.5 88.5t210.5 -88.5t74.5 -266.5t-74.5 -266.5t-210.5 -88.5t-210.5 88.5zM433 155.5q39 57.5 39 162.5v50q0 105 -39 162.5t-114 57.5t-114 -57.5t-39 -162.5v-50q0 -105 39 -162.5t114 -57.5t114 57.5zM248.5 752
q-30.5 16 -47 40.5t-16.5 50.5h74q3 -12 19.5 -22.5t39.5 -10.5q24 0 41 10.5t19 22.5h74q0 -26 -16.5 -50.5t-47 -40.5t-70.5 -16q-39 0 -69.5 16z" />
    <glyph glyph-name="obreve" unicode="&#x14f;" horiz-adv-x="501" 
d="M93 55q-52 67 -52 208t52 208t158 67t158 -67t52 -208t-52 -208t-158 -67t-158 67zM316 127.5q20 38.5 20 116.5v38q0 78 -20 116.5t-65 38.5t-65 -38.5t-20 -116.5v-38q0 -78 20 -116.5t65 -38.5t65 38.5zM179.5 592q-30.5 16 -47 40.5t-16.5 50.5h74q3 -12 19.5 -22.5
t39.5 -10.5q24 0 41 10.5t19 22.5h74q0 -26 -16.5 -50.5t-47 -40.5t-70.5 -16q-39 0 -69.5 16z" />
    <glyph glyph-name="Ohungarumlaut" unicode="&#x150;" horiz-adv-x="638" 
d="M108.5 76.5q-74.5 88.5 -74.5 266.5t74.5 266.5t210.5 88.5t210.5 -88.5t74.5 -266.5t-74.5 -266.5t-210.5 -88.5t-210.5 88.5zM433 155.5q39 57.5 39 162.5v50q0 105 -39 162.5t-114 57.5t-114 -57.5t-39 -162.5v-50q0 -105 39 -162.5t114 -57.5t114 57.5zM268 853h100
l1 -3l-84 -99h-79zM408 853h100l1 -3l-84 -99h-79z" />
    <glyph glyph-name="ohungarumlaut" unicode="&#x151;" horiz-adv-x="501" 
d="M93 55q-52 67 -52 208t52 208t158 67t158 -67t52 -208t-52 -208t-158 -67t-158 67zM316 127.5q20 38.5 20 116.5v38q0 78 -20 116.5t-65 38.5t-65 -38.5t-20 -116.5v-38q0 -78 20 -116.5t65 -38.5t65 38.5zM199 723h100l1 -3l-84 -129h-79zM339 723h100l1 -3l-84 -129
h-79z" />
    <glyph glyph-name="OE" unicode="&#x152;" horiz-adv-x="820" 
d="M90 77q-60 89 -60 266t60 266t168 89q94 0 150 -74v62h377v-114h-249v-164h206v-114h-206v-180h256v-114h-384v61q-55 -73 -150 -73q-108 0 -168 89zM377 150q30 52 30 168v50q0 116 -30 168t-93 52q-62 0 -92 -52t-30 -168v-50q0 -116 30 -168t92 -52q63 0 93 52z" />
    <glyph glyph-name="oe" unicode="&#x153;" horiz-adv-x="774" 
d="M93 55q-52 67 -52 208t52 208t158 67q97 0 147 -66q50 66 141 66q96 0 143 -67t47 -208v-30h-267q1 -74 19.5 -110.5t61.5 -36.5q31 0 49 26.5t18 73.5h119q0 -98 -51 -148t-135 -50q-94 0 -144 65q-52 -65 -148 -65q-106 0 -158 67zM603 320q0 120 -64 120
q-37 0 -55 -30.5t-21 -89.5h140zM316 127.5q20 38.5 20 116.5v38q0 78 -20 116.5t-65 38.5t-65 -38.5t-20 -116.5v-38q0 -78 20 -116.5t65 -38.5t65 38.5z" />
    <glyph glyph-name="Racute" unicode="&#x154;" horiz-adv-x="592" 
d="M60 686h287q101 0 155.5 -54t54.5 -142q0 -62 -30.5 -108t-84.5 -68l132 -314h-139l-114 286h-133v-286h-128v686zM329 399q45 0 67.5 23.5t22.5 67.5q0 39 -21 60.5t-64 21.5h-146v-173h141zM273 853h130l1 -3l-88 -99h-109z" />
    <glyph glyph-name="racute" unicode="&#x155;" horiz-adv-x="319" 
d="M55 526h100l14 -77h6q13 40 34 64.5t57 24.5q29 0 50 -8v-116h-43q-44 0 -71 -28t-27 -93v-293h-120v526zM197 723h120l1 -3l-108 -129h-99z" />
    <glyph glyph-name="uni0156" unicode="&#x156;" horiz-adv-x="592" 
d="M60 686h287q101 0 155.5 -54t54.5 -142q0 -62 -30.5 -108t-84.5 -68l132 -314h-139l-114 286h-133v-286h-128v686zM329 399q45 0 67.5 23.5t22.5 67.5q0 39 -21 60.5t-64 21.5h-146v-173h141zM283 -178h-49v111h128v-100l-46 -96h-65z" />
    <glyph glyph-name="uni0157" unicode="&#x157;" horiz-adv-x="319" 
d="M55 526h100l14 -77h6q13 40 34 64.5t57 24.5q29 0 50 -8v-116h-43q-44 0 -71 -28t-27 -93v-293h-120v526zM101 -178h-32v111h107v-100l-46 -96h-65z" />
    <glyph glyph-name="Rcaron" unicode="&#x158;" horiz-adv-x="592" 
d="M60 686h287q101 0 155.5 -54t54.5 -142q0 -62 -30.5 -108t-84.5 -68l132 -314h-139l-114 286h-133v-286h-128v686zM329 399q45 0 67.5 23.5t22.5 67.5q0 39 -21 60.5t-64 21.5h-146v-173h141zM146 853h90l45 -39l44 39h90l-85 -105h-98z" />
    <glyph glyph-name="rcaron" unicode="&#x159;" horiz-adv-x="319" 
d="M55 526h100l14 -77h6q13 40 34 64.5t57 24.5q29 0 50 -8v-116h-43q-44 0 -71 -28t-27 -93v-293h-120v526zM45 723h90l45 -69l44 69h90l-85 -135h-98z" />
    <glyph glyph-name="Sacute" unicode="&#x15a;" horiz-adv-x="547" 
d="M148 12.5q-54 24.5 -86 72.5t-32 116l1 22h133l-1 -16q0 -50 29 -79.5t81 -29.5q53 0 78.5 23.5t25.5 57.5t-18 55.5t-44.5 33.5t-74.5 28q-63 20 -102 40t-66.5 61t-27.5 109q0 62 31 105.5t83 65t115 21.5q98 0 160.5 -50.5t62.5 -151.5v-12h-131v9q0 44 -25 69.5
t-68 25.5q-45 0 -70.5 -20.5t-25.5 -52.5q0 -28 17 -46t42.5 -29t70.5 -25q65 -21 105 -40.5t69 -60.5t29 -108q0 -113 -64.5 -165.5t-177.5 -52.5q-65 0 -119 24.5zM265 853h130l1 -3l-88 -99h-109z" />
    <glyph glyph-name="sacute" unicode="&#x15b;" 
d="M83.5 33.5q-50.5 45.5 -50.5 121.5l1 12h122v-7q1 -39 22 -56.5t50 -17.5q28 0 49 13.5t21 43.5q0 32 -24 46.5t-76 28.5q-50 14 -81 28t-53.5 46t-22.5 86q0 77 52.5 118.5t135.5 41.5q77 0 127.5 -38.5t50.5 -104.5l-1 -23h-122v2q-1 66 -59 66q-28 0 -45 -14t-17 -38
q0 -28 23 -40.5t72 -25.5q51 -13 83 -27.5t55.5 -47t23.5 -89.5q0 -170 -196 -170q-90 0 -140.5 45.5zM245 723h120l1 -3l-108 -129h-99z" />
    <glyph glyph-name="Scircumflex" unicode="&#x15c;" horiz-adv-x="547" 
d="M148 12.5q-54 24.5 -86 72.5t-32 116l1 22h133l-1 -16q0 -50 29 -79.5t81 -29.5q53 0 78.5 23.5t25.5 57.5t-18 55.5t-44.5 33.5t-74.5 28q-63 20 -102 40t-66.5 61t-27.5 109q0 62 31 105.5t83 65t115 21.5q98 0 160.5 -50.5t62.5 -151.5v-12h-131v9q0 44 -25 69.5
t-68 25.5q-45 0 -70.5 -20.5t-25.5 -52.5q0 -28 17 -46t42.5 -29t70.5 -25q65 -21 105 -40.5t69 -60.5t29 -108q0 -113 -64.5 -165.5t-177.5 -52.5q-65 0 -119 24.5zM224 853h98l85 -105h-90l-44 39l-45 -39h-90z" />
    <glyph glyph-name="scircumflex" unicode="&#x15d;" 
d="M83.5 33.5q-50.5 45.5 -50.5 121.5l1 12h122v-7q1 -39 22 -56.5t50 -17.5q28 0 49 13.5t21 43.5q0 32 -24 46.5t-76 28.5q-50 14 -81 28t-53.5 46t-22.5 86q0 77 52.5 118.5t135.5 41.5q77 0 127.5 -38.5t50.5 -104.5l-1 -23h-122v2q-1 66 -59 66q-28 0 -45 -14t-17 -38
q0 -28 23 -40.5t72 -25.5q51 -13 83 -27.5t55.5 -47t23.5 -89.5q0 -170 -196 -170q-90 0 -140.5 45.5zM179 723h98l85 -135h-90l-44 69l-45 -69h-90z" />
    <glyph glyph-name="Scedilla" unicode="&#x15e;" horiz-adv-x="547" 
d="M454.5 50q-54.5 -53 -151.5 -61l-3 -22q35 -2 57 -19t22 -49q0 -45 -33.5 -63t-75.5 -18q-46 0 -84 8v49h71q18 0 27 5.5t9 18.5q0 12 -7.5 18t-26.5 6h-33l8 67q-89 9 -146.5 63.5t-57.5 147.5l1 22h133l-1 -16q0 -50 29 -79.5t81 -29.5q53 0 78.5 23.5t25.5 57.5
t-18 55.5t-44.5 33.5t-74.5 28q-63 20 -102 40t-66.5 61t-27.5 109q0 62 31 105.5t83 65t115 21.5q98 0 160.5 -50.5t62.5 -151.5v-12h-131v9q0 44 -25 69.5t-68 25.5q-45 0 -70.5 -20.5t-25.5 -52.5q0 -28 17 -46t42.5 -29t70.5 -25q65 -21 105 -40.5t69 -60.5t29 -108
q0 -103 -54.5 -156z" />
    <glyph glyph-name="scedilla" unicode="&#x15f;" 
d="M247 -11l-2 -22q35 -2 57 -19t22 -49q0 -45 -33.5 -63t-75.5 -18q-46 0 -84 8v49h71q18 0 27 5.5t9 18.5q0 12 -7.5 18t-26.5 6h-33l9 68q-70 11 -108.5 54.5t-38.5 109.5l1 12h122v-7q1 -39 22 -56.5t50 -17.5q28 0 49 13.5t21 43.5q0 32 -24 46.5t-76 28.5
q-50 14 -81 28t-53.5 46t-22.5 86q0 77 52.5 118.5t135.5 41.5q77 0 127.5 -38.5t50.5 -104.5l-1 -23h-122v2q-1 66 -59 66q-28 0 -45 -14t-17 -38q0 -28 23 -40.5t72 -25.5q51 -13 83 -27.5t55.5 -47t23.5 -89.5q0 -160 -173 -169z" />
    <glyph glyph-name="Scaron" unicode="&#x160;" horiz-adv-x="547" 
d="M148 12.5q-54 24.5 -86 72.5t-32 116l1 22h133l-1 -16q0 -50 29 -79.5t81 -29.5q53 0 78.5 23.5t25.5 57.5t-18 55.5t-44.5 33.5t-74.5 28q-63 20 -102 40t-66.5 61t-27.5 109q0 62 31 105.5t83 65t115 21.5q98 0 160.5 -50.5t62.5 -151.5v-12h-131v9q0 44 -25 69.5
t-68 25.5q-45 0 -70.5 -20.5t-25.5 -52.5q0 -28 17 -46t42.5 -29t70.5 -25q65 -21 105 -40.5t69 -60.5t29 -108q0 -113 -64.5 -165.5t-177.5 -52.5q-65 0 -119 24.5zM138 853h90l45 -39l44 39h90l-85 -105h-98z" />
    <glyph glyph-name="scaron" unicode="&#x161;" 
d="M83.5 33.5q-50.5 45.5 -50.5 121.5l1 12h122v-7q1 -39 22 -56.5t50 -17.5q28 0 49 13.5t21 43.5q0 32 -24 46.5t-76 28.5q-50 14 -81 28t-53.5 46t-22.5 86q0 77 52.5 118.5t135.5 41.5q77 0 127.5 -38.5t50.5 -104.5l-1 -23h-122v2q-1 66 -59 66q-28 0 -45 -14t-17 -38
q0 -28 23 -40.5t72 -25.5q51 -13 83 -27.5t55.5 -47t23.5 -89.5q0 -170 -196 -170q-90 0 -140.5 45.5zM93 723h90l45 -69l44 69h90l-85 -135h-98z" />
    <glyph glyph-name="uni0162" unicode="&#x162;" horiz-adv-x="501" 
d="M283 0l-4 -33q35 -2 57 -19t22 -49q0 -45 -33.5 -63t-75.5 -18q-46 0 -84 8v49h71q18 0 27 5.5t9 18.5q0 12 -7.5 18t-26.5 6h-33l10 77h-28v572h-170v114h468v-114h-170v-572h-32z" />
    <glyph glyph-name="uni0163" unicode="&#x163;" horiz-adv-x="273" 
d="M240 -52q22 -17 22 -49q0 -45 -33.5 -63t-75.5 -18q-46 0 -84 8v49h71q18 0 27 5.5t9 18.5q0 12 -7.5 18t-26.5 6h-33l10 81q-30 18 -43.5 51t-13.5 74v296h-53v101h53l18 148h102v-148h76v-101h-76v-293q0 -21 11 -32t31 -11h34v-89q-13 -5 -34 -8.5t-38 -3.5h-1l-2 -21
q35 -2 57 -19z" />
    <glyph glyph-name="Tcaron" unicode="&#x164;" horiz-adv-x="501" 
d="M187 572h-170v114h468v-114h-170v-572h-128v572zM115 853h90l45 -39l44 39h90l-85 -105h-98z" />
    <glyph glyph-name="tcaron" unicode="&#x165;" horiz-adv-x="273" 
d="M91 28.5q-29 40.5 -29 100.5v296h-53v101h53l18 148h102v-148h76v-101h-76v-293q0 -21 11 -32t31 -11h34v-89q-13 -5 -34 -8.5t-38 -3.5q-66 0 -95 40.5zM253 743h98l-66 -177h-72z" />
    <glyph glyph-name="Tbar" unicode="&#x166;" horiz-adv-x="501" 
d="M187 306h-118v87h118v179h-170v114h468v-114h-170v-179h118v-87h-118v-306h-128v306z" />
    <glyph glyph-name="tbar" unicode="&#x167;" horiz-adv-x="273" 
d="M91 28.5q-29 40.5 -29 100.5v133h-51v87h51v76h-53v101h53l18 148h102v-148h76v-101h-76v-76h72v-87h-72v-130q0 -21 11 -32t31 -11h34v-89q-13 -5 -34 -8.5t-38 -3.5q-66 0 -95 40.5z" />
    <glyph glyph-name="Utilde" unicode="&#x168;" horiz-adv-x="592" 
d="M122.5 46.5q-61.5 58.5 -61.5 168.5v471h128v-467q0 -59 28 -90t79 -31t79.5 31t28.5 90v467h128v-471q0 -110 -62 -168.5t-174 -58.5t-173.5 58.5zM166.5 823.5q22.5 33.5 66.5 33.5q14 0 26.5 -4t35.5 -13q19 -8 32 -12t26 -4q31 0 36 33h59q0 -43 -22.5 -76.5
t-66.5 -33.5q-14 0 -26.5 4t-35.5 13q-19 8 -32 12t-26 4q-31 0 -36 -33h-59q0 43 22.5 76.5z" />
    <glyph glyph-name="utilde" unicode="&#x169;" horiz-adv-x="501" 
d="M92.5 28.5q-37.5 40.5 -37.5 128.5v369h120v-336q0 -50 17 -71.5t52 -21.5t58.5 29.5t23.5 73.5v326h120v-526h-100l-12 65h-6q-23 -34 -56 -55.5t-77 -21.5q-65 0 -102.5 40.5zM107 686q25 37 73 37q16 0 30 -4.5t39 -14.5q21 -9 35 -13.5t29 -4.5q17 0 26.5 8.5
t12.5 28.5h66q0 -48 -25 -85t-74 -37q-16 0 -29.5 4.5t-38.5 14.5q-21 9 -35 13.5t-29 4.5q-34 0 -39 -37h-66q0 48 25 85z" />
    <glyph glyph-name="Umacron" unicode="&#x16a;" horiz-adv-x="592" 
d="M122.5 46.5q-61.5 58.5 -61.5 168.5v471h128v-467q0 -59 28 -90t79 -31t79.5 31t28.5 90v467h128v-471q0 -110 -62 -168.5t-174 -58.5t-173.5 58.5zM168 846h255v-87h-255v87z" />
    <glyph glyph-name="umacron" unicode="&#x16b;" horiz-adv-x="501" 
d="M92.5 28.5q-37.5 40.5 -37.5 128.5v369h120v-336q0 -50 17 -71.5t52 -21.5t58.5 29.5t23.5 73.5v326h120v-526h-100l-12 65h-6q-23 -34 -56 -55.5t-77 -21.5q-65 0 -102.5 40.5zM122 686h255v-87h-255v87z" />
    <glyph glyph-name="Ubreve" unicode="&#x16c;" horiz-adv-x="592" 
d="M122.5 46.5q-61.5 58.5 -61.5 168.5v471h128v-467q0 -59 28 -90t79 -31t79.5 31t28.5 90v467h128v-471q0 -110 -62 -168.5t-174 -58.5t-173.5 58.5zM225.5 752q-30.5 16 -47 40.5t-16.5 50.5h74q3 -12 19.5 -22.5t39.5 -10.5q24 0 41 10.5t19 22.5h74q0 -26 -16.5 -50.5
t-47 -40.5t-70.5 -16q-39 0 -69.5 16z" />
    <glyph glyph-name="ubreve" unicode="&#x16d;" horiz-adv-x="501" 
d="M92.5 28.5q-37.5 40.5 -37.5 128.5v369h120v-336q0 -50 17 -71.5t52 -21.5t58.5 29.5t23.5 73.5v326h120v-526h-100l-12 65h-6q-23 -34 -56 -55.5t-77 -21.5q-65 0 -102.5 40.5zM179.5 592q-30.5 16 -47 40.5t-16.5 50.5h74q3 -12 19.5 -22.5t39.5 -10.5q24 0 41 10.5
t19 22.5h74q0 -26 -16.5 -50.5t-47 -40.5t-70.5 -16q-39 0 -69.5 16z" />
    <glyph glyph-name="Uring" unicode="&#x16e;" horiz-adv-x="592" 
d="M122.5 46.5q-61.5 58.5 -61.5 168.5v471h128v-467q0 -59 28 -90t79 -31t79.5 31t28.5 90v467h128v-471q0 -110 -62 -168.5t-174 -58.5t-173.5 58.5zM228.5 749q-28.5 28 -28.5 68t28 68t68 28t68 -28.5t28 -67.5q0 -40 -28 -68t-68 -28q-39 0 -67.5 28zM325.5 787
q12.5 12 12.5 30t-12.5 30t-29.5 12q-18 0 -30 -12t-12 -30t12 -30t30 -12q17 0 29.5 12z" />
    <glyph glyph-name="uring" unicode="&#x16f;" horiz-adv-x="501" 
d="M92.5 28.5q-37.5 40.5 -37.5 128.5v369h120v-336q0 -50 17 -71.5t52 -21.5t58.5 29.5t23.5 73.5v326h120v-526h-100l-12 65h-6q-23 -34 -56 -55.5t-77 -21.5q-65 0 -102.5 40.5zM182.5 589q-28.5 28 -28.5 68t28 68t68 28t68 -28.5t28 -67.5q0 -40 -28 -68t-68 -28
q-39 0 -67.5 28zM282.5 624.5q13.5 13.5 13.5 32.5t-13.5 32.5t-32.5 13.5q-20 0 -33 -13t-13 -33q0 -19 13 -32.5t33 -13.5q19 0 32.5 13.5z" />
    <glyph glyph-name="Uhungarumlaut" unicode="&#x170;" horiz-adv-x="592" 
d="M122.5 46.5q-61.5 58.5 -61.5 168.5v471h128v-467q0 -59 28 -90t79 -31t79.5 31t28.5 90v467h128v-471q0 -110 -62 -168.5t-174 -58.5t-173.5 58.5zM245 853h100l1 -3l-84 -99h-79zM385 853h100l1 -3l-84 -99h-79z" />
    <glyph glyph-name="uhungarumlaut" unicode="&#x171;" horiz-adv-x="501" 
d="M92.5 28.5q-37.5 40.5 -37.5 128.5v369h120v-336q0 -50 17 -71.5t52 -21.5t58.5 29.5t23.5 73.5v326h120v-526h-100l-12 65h-6q-23 -34 -56 -55.5t-77 -21.5q-65 0 -102.5 40.5zM199 723h100l1 -3l-84 -129h-79zM339 723h100l1 -3l-84 -129h-79z" />
    <glyph glyph-name="Uogonek" unicode="&#x172;" horiz-adv-x="592" 
d="M532 686v-471q0 -80 -32.5 -132.5t-94.5 -76.5v-1q-27 -18 -43 -40.5t-16 -42.5q0 -17 14 -27.5t43 -10.5h22v-56q-36 -11 -66 -11q-48 0 -74 23.5t-26 58.5q0 22 11.5 45.5t33.5 43.5h-8q-112 0 -173.5 58.5t-61.5 168.5v471h128v-467q0 -59 28 -90t79 -31t79.5 31
t28.5 90v467h128z" />
    <glyph glyph-name="uogonek" unicode="&#x173;" horiz-adv-x="501" 
d="M483 -121v-55q-36 -14 -66 -14q-41 0 -70 21.5t-29 68.5q0 25 12.5 52t31.5 48h-16l-12 65h-6q-23 -34 -56 -55.5t-77 -21.5q-65 0 -102.5 40.5t-37.5 128.5v369h120v-336q0 -50 17 -71.5t52 -21.5t58.5 29.5t23.5 73.5v326h120v-526q-13 -11 -22 -30.5t-9 -39.5
q0 -22 11.5 -36.5t34.5 -14.5h22z" />
    <glyph glyph-name="Wcircumflex" unicode="&#x174;" horiz-adv-x="774" 
d="M0 686h127l82 -422q6 -28 13 -96h4q7 68 13 96l83 422h145l82 -422q5 -26 13 -96h4q6 64 13 96l84 422h110l-149 -686h-129l-93 437q-8 33 -14 97h-4q-8 -69 -14 -97l-92 -437h-129zM338 853h98l85 -105h-90l-44 39l-45 -39h-90z" />
    <glyph glyph-name="wcircumflex" unicode="&#x175;" horiz-adv-x="638" 
d="M1 526h120l50 -216q15 -67 21 -165h4q8 93 22 164l45 217h120l45 -218q10 -48 22 -163h4q15 107 26 163l46 218h111l-127 -526h-121l-52 251q-10 50 -15 130h-6q-5 -78 -15 -129l-51 -252h-121zM270 723h98l85 -135h-90l-44 69l-45 -69h-90z" />
    <glyph glyph-name="Ycircumflex" unicode="&#x176;" horiz-adv-x="547" 
d="M210 259l-210 427h135l140 -301h4l139 301h129l-209 -427v-259h-128v259zM224 853h98l85 -105h-90l-44 39l-45 -39h-90z" />
    <glyph glyph-name="ycircumflex" unicode="&#x177;" 
d="M67.5 -178.5q-23.5 3.5 -23.5 5.5v92h54q27 0 49 20t32 61l-175 526h127l79 -247q12 -38 28 -137h4q14 93 25 136l65 248h120l-144 -499q-28 -97 -72 -153t-114 -56q-31 0 -54.5 3.5zM179 723h98l85 -135h-90l-44 69l-45 -69h-90z" />
    <glyph glyph-name="Ydieresis" unicode="&#x178;" horiz-adv-x="547" 
d="M210 259l-210 427h135l140 -301h4l139 301h129l-209 -427v-259h-128v259zM135 883h100v-109h-100v109zM310 883h100v-109h-100v109z" />
    <glyph glyph-name="Zacute" unicode="&#x179;" horiz-adv-x="501" 
d="M16 49l282 523h-261v114h436v-50l-282 -522h289v-114h-464v49zM242 853h130l1 -3l-88 -99h-109z" />
    <glyph glyph-name="zacute" unicode="&#x17a;" horiz-adv-x="410" 
d="M18 51l204 374h-192v101h355v-50l-205 -375h212v-101h-374v51zM222 723h120l1 -3l-108 -129h-99z" />
    <glyph glyph-name="Zdotaccent" unicode="&#x17b;" horiz-adv-x="501" 
d="M16 49l282 523h-261v114h436v-50l-282 -522h289v-114h-464v49zM186 883h128v-115h-128v115z" />
    <glyph glyph-name="zdotaccent" unicode="&#x17c;" horiz-adv-x="410" 
d="M18 51l204 374h-192v101h355v-50l-205 -375h212v-101h-374v51zM144 723h121v-115h-121v115z" />
    <glyph glyph-name="Zcaron" unicode="&#x17d;" horiz-adv-x="501" 
d="M16 49l282 523h-261v114h436v-50l-282 -522h289v-114h-464v49zM115 853h90l45 -39l44 39h90l-85 -105h-98z" />
    <glyph glyph-name="zcaron" unicode="&#x17e;" horiz-adv-x="410" 
d="M18 51l204 374h-192v101h355v-50l-205 -375h212v-101h-374v51zM70 723h90l45 -69l44 69h90l-85 -135h-98z" />
    <glyph glyph-name="longs" unicode="&#x17f;" horiz-adv-x="228" 
d="M62 425h-53v101h53v64q0 60 29 100.5t95 40.5q20 0 45.5 -3.5t41.5 -8.5v-89h-49q-20 0 -31 -11t-11 -32v-587h-120v425z" />
    <glyph glyph-name="uni018F" unicode="&#x18f;" horiz-adv-x="600" 
d="M112.5 74.5q-62.5 86.5 -62.5 268.5v39h385q-2 112 -33.5 160t-101.5 48q-62 0 -95 -38.5t-33 -109.5h-122q0 77 31 135t87.5 89.5t131.5 31.5q136 0 201 -87t65 -268q0 -182 -64 -268.5t-197 -86.5q-130 0 -192.5 86.5zM402 143.5q33 47.5 31 135.5h-255
q0 -183 127 -183q64 0 97 47.5z" />
    <glyph glyph-name="uni0191" unicode="&#x191;" horiz-adv-x="501" 
d="M5.5 -177.5q-24.5 4.5 -39.5 10.5v82h49q22 0 33.5 11.5t11.5 33.5v726h403v-114h-275v-173h235v-114h-235v-333q0 -56 -33.5 -95t-103.5 -39q-21 0 -45.5 4.5z" />
    <glyph glyph-name="florin" unicode="&#x192;" 
d="M59 -178.5q-25 3.5 -40 8.5l13 89h49q20 0 32.5 11t15.5 32l60 424h-73l14 101h73l14 103q9 60 44 100.5t101 40.5q20 0 45 -3.5t40 -8.5l-13 -89h-49q-20 0 -32.5 -11t-15.5 -32l-14 -100h91l-14 -101h-91l-60 -427q-9 -60 -44 -100.5t-101 -40.5q-20 0 -45 3.5z" />
    <glyph glyph-name="uni019D" unicode="&#x19d;" horiz-adv-x="592" 
d="M5.5 -177.5q-24.5 4.5 -39.5 10.5v82h49q22 0 33.5 11.5t11.5 33.5v726h113l212 -378q7 -10 31 -64l4 1q-2 20 -2 59v382h114v-686h-114l-212 378q-10 18 -22 46l-9 18l-4 -3l2 -57v-440q0 -54 -29.5 -89t-92.5 -35q-21 0 -45.5 4.5z" />
    <glyph glyph-name="Ohorn" unicode="&#x1a0;" horiz-adv-x="638" 
d="M592 659.5q-26 -31.5 -71 -40.5q83 -91 83 -276q0 -178 -74.5 -266.5t-210.5 -88.5t-210.5 88.5t-74.5 266.5t74.5 266.5t210.5 88.5q50 0 92 -12h57q27 0 38.5 12.5t11.5 40.5v81h100v-81q0 -48 -26 -79.5zM472 368q0 105 -39 162.5t-114 57.5t-114 -57.5t-39 -162.5
v-50q0 -105 39 -162.5t114 -57.5t114 57.5t39 162.5v50z" />
    <glyph glyph-name="ohorn" unicode="&#x1a1;" horiz-adv-x="501" 
d="M461 513.5q-20 -27.5 -55 -39.5q55 -67 55 -211q0 -141 -52 -208t-158 -67t-158 67t-52 208t52 208t158 67q46 0 80 -12q35 0 50 12.5t15 40.5v61h85v-61q0 -38 -20 -65.5zM336 282q0 78 -20 116.5t-65 38.5t-65 -38.5t-20 -116.5v-38q0 -78 20 -116.5t65 -38.5t65 38.5
t20 116.5v38z" />
    <glyph glyph-name="Uhorn" unicode="&#x1af;" horiz-adv-x="592" 
d="M632 820v-81q0 -49 -26.5 -80.5t-73.5 -39.5v-404q0 -110 -62 -168.5t-174 -58.5t-173.5 58.5t-61.5 168.5v471h128v-467q0 -59 28 -90t79 -31t79.5 31t28.5 90v467h78q27 0 38.5 12.5t11.5 40.5v81h100z" />
    <glyph glyph-name="uhorn" unicode="&#x1b0;" horiz-adv-x="501" 
d="M546 640v-61q0 -45 -26.5 -74t-73.5 -37v-468h-100l-12 65h-6q-23 -34 -56 -55.5t-77 -21.5q-65 0 -102.5 40.5t-37.5 128.5v369h120v-336q0 -50 17 -71.5t52 -21.5t58.5 29.5t23.5 73.5v326h70q35 0 50 12.5t15 40.5v61h85z" />
    <glyph glyph-name="uni01C4" unicode="&#x1c4;" horiz-adv-x="1093" 
d="M60 686h223q130 0 202.5 -85t72.5 -248q0 -173 -72 -263t-203 -90h-223v686zM271 114q73 0 114 54.5t41 159.5v50q0 95 -41 144.5t-114 49.5h-83v-458h83zM608 49l282 523h-261v114h436v-50l-282 -522h289v-114h-464v49zM707 853h90l45 -39l44 39h90l-85 -105h-98z" />
    <glyph glyph-name="uni01C5" unicode="&#x1c5;" horiz-adv-x="1002" 
d="M60 686h223q130 0 202.5 -85t72.5 -248q0 -173 -72 -263t-203 -90h-223v686zM271 114q73 0 114 54.5t41 159.5v50q0 95 -41 144.5t-114 49.5h-83v-458h83zM610 51l204 374h-192v101h355v-50l-205 -375h212v-101h-374v51zM662 723h90l45 -69l44 69h90l-85 -135h-98z" />
    <glyph glyph-name="uni01C6" unicode="&#x1c6;" horiz-adv-x="911" 
d="M85.5 56.5q-44.5 68.5 -44.5 207.5q0 137 44.5 205.5t118.5 68.5q40 0 71.5 -17.5t45.5 -48.5h5v251h120v-723h-100l-12 65h-5q-19 -38 -50 -57.5t-69 -19.5q-80 0 -124.5 68.5zM307 133.5q19 36.5 19 110.5v36q0 74 -19 111.5t-61 37.5t-61 -36.5t-19 -110.5v-38
q0 -74 19 -110.5t61 -36.5t61 36.5zM519 51l204 374h-192v101h355v-50l-205 -375h212v-101h-374v51zM571 723h90l45 -69l44 69h90l-85 -135h-98z" />
    <glyph glyph-name="uni01C7" unicode="&#x1c7;" horiz-adv-x="907" 
d="M60 686h128v-566h240v-120h-368v686zM510.5 33q-50.5 45 -50.5 130v53h127v-43q0 -36 17 -55.5t50 -19.5q32 0 48.5 19.5t16.5 55.5v513h128v-523q0 -85 -50 -130t-143 -45t-143.5 45z" />
    <glyph glyph-name="uni01C8" unicode="&#x1c8;" horiz-adv-x="729" 
d="M60 686h128v-566h290v-120h-418v686zM506.5 -178.5q-25.5 3.5 -42.5 8.5v89h44q47 0 47 48v559h120v-567q0 -61 -28 -101t-94 -40q-21 0 -46.5 3.5zM554 723h121v-115h-121v115z" />
    <glyph glyph-name="uni01C9" unicode="&#x1c9;" 
d="M54 723h120v-723h-120v723zM233.5 -178.5q-25.5 3.5 -42.5 8.5v89h44q47 0 47 48v559h120v-567q0 -61 -28 -101t-94 -40q-21 0 -46.5 3.5zM281 723h121v-115h-121v115z" />
    <glyph glyph-name="uni01CA" unicode="&#x1ca;" horiz-adv-x="1048" 
d="M60 686h113l212 -378q10 -16 31 -64l3 3l-1 57v382h114v-686h-114l-212 378q-8 13 -31 64l-4 -3l2 -57v-382h-113v686zM651.5 33q-50.5 45 -50.5 130v53h127v-43q0 -36 17 -55.5t50 -19.5q32 0 48.5 19.5t16.5 55.5v513h128v-523q0 -85 -50 -130t-143 -45t-143.5 45z" />
    <glyph glyph-name="uni01CB" unicode="&#x1cb;" horiz-adv-x="820" 
d="M60 686h113l212 -378q10 -16 31 -64l3 3l-1 57v382h114v-686h-114l-212 378q-8 13 -31 64l-4 -3l2 -57v-382h-113v686zM597.5 -178.5q-25.5 3.5 -42.5 8.5v89h44q47 0 47 48v559h120v-567q0 -61 -28 -101t-94 -40q-21 0 -46.5 3.5zM645 723h121v-115h-121v115z" />
    <glyph glyph-name="uni01CC" unicode="&#x1cc;" horiz-adv-x="729" 
d="M55 526h100l12 -65h6q23 34 56 55.5t77 21.5q65 0 102.5 -40.5t37.5 -128.5v-369h-120v336q0 49 -17.5 71t-51.5 22q-35 0 -58.5 -30.5t-23.5 -74.5v-324h-120v526zM506.5 -178.5q-25.5 3.5 -42.5 8.5v89h44q47 0 47 48v559h120v-567q0 -61 -28 -101t-94 -40
q-21 0 -46.5 3.5zM554 723h121v-115h-121v115z" />
    <glyph glyph-name="uni01CD" unicode="&#x1cd;" horiz-adv-x="592" 
d="M221 686h149l221 -686h-131l-42 135h-253l-41 -135h-124zM383 249l-69 229q-10 34 -20 93h-4q-10 -63 -20 -93l-70 -229h183zM161 853h90l45 -39l44 39h90l-85 -105h-98z" />
    <glyph glyph-name="uni01CE" unicode="&#x1ce;" 
d="M55.5 21.5q-41.5 33.5 -41.5 114.5q0 100 68 142t193 42v55q0 31 -11.5 48t-43.5 17q-33 0 -48 -16.5t-15 -38.5v-15h-117q-1 6 -1 22q0 66 48.5 106t129.5 40q90 0 134.5 -40t44.5 -115v-259q0 -18 8 -26.5t20 -8.5h24v-85q-30 -16 -71 -16q-35 0 -59.5 18.5t-33.5 50.5
h-5q-25 -35 -54.5 -52t-78.5 -17t-90.5 33.5zM255.5 120q19.5 32 19.5 83v30q-61 0 -99.5 -19.5t-38.5 -66.5q0 -28 14.5 -43.5t44.5 -15.5q40 0 59.5 32zM82 723h90l45 -69l44 69h90l-85 -135h-98z" />
    <glyph glyph-name="uni01CF" unicode="&#x1cf;" horiz-adv-x="228" 
d="M50 686h128v-686h-128v686zM-21 853h90l45 -39l44 39h90l-85 -105h-98z" />
    <glyph glyph-name="uni01D0" unicode="&#x1d0;" horiz-adv-x="228" 
d="M54 526h120v-526h-120v526zM-21 723h90l45 -69l44 69h90l-85 -135h-98z" />
    <glyph glyph-name="uni01D1" unicode="&#x1d1;" horiz-adv-x="638" 
d="M108.5 76.5q-74.5 88.5 -74.5 266.5t74.5 266.5t210.5 88.5t210.5 -88.5t74.5 -266.5t-74.5 -266.5t-210.5 -88.5t-210.5 88.5zM433 155.5q39 57.5 39 162.5v50q0 105 -39 162.5t-114 57.5t-114 -57.5t-39 -162.5v-50q0 -105 39 -162.5t114 -57.5t114 57.5zM184 853h90
l45 -39l44 39h90l-85 -105h-98z" />
    <glyph glyph-name="uni01D2" unicode="&#x1d2;" horiz-adv-x="501" 
d="M93 55q-52 67 -52 208t52 208t158 67t158 -67t52 -208t-52 -208t-158 -67t-158 67zM316 127.5q20 38.5 20 116.5v38q0 78 -20 116.5t-65 38.5t-65 -38.5t-20 -116.5v-38q0 -78 20 -116.5t65 -38.5t65 38.5zM115 723h90l45 -69l44 69h90l-85 -135h-98z" />
    <glyph glyph-name="uni01D3" unicode="&#x1d3;" horiz-adv-x="592" 
d="M122.5 46.5q-61.5 58.5 -61.5 168.5v471h128v-467q0 -59 28 -90t79 -31t79.5 31t28.5 90v467h128v-471q0 -110 -62 -168.5t-174 -58.5t-173.5 58.5zM161 853h90l45 -39l44 39h90l-85 -105h-98z" />
    <glyph glyph-name="uni01D4" unicode="&#x1d4;" horiz-adv-x="501" 
d="M92.5 28.5q-37.5 40.5 -37.5 128.5v369h120v-336q0 -50 17 -71.5t52 -21.5t58.5 29.5t23.5 73.5v326h120v-526h-100l-12 65h-6q-23 -34 -56 -55.5t-77 -21.5q-65 0 -102.5 40.5zM115 723h90l45 -69l44 69h90l-85 -135h-98z" />
    <glyph glyph-name="uni01D5" unicode="&#x1d5;" horiz-adv-x="592" 
d="M122.5 46.5q-61.5 58.5 -61.5 168.5v471h128v-467q0 -59 28 -90t79 -31t79.5 31t28.5 90v467h128v-471q0 -110 -62 -168.5t-174 -58.5t-173.5 58.5zM158 883h100v-109h-100v109zM333 883h100v-109h-100v109zM168 1043h255v-87h-255v87z" />
    <glyph glyph-name="uni01D6" unicode="&#x1d6;" horiz-adv-x="501" 
d="M92.5 28.5q-37.5 40.5 -37.5 128.5v369h120v-336q0 -50 17 -71.5t52 -21.5t58.5 29.5t23.5 73.5v326h120v-526h-100l-12 65h-6q-23 -34 -56 -55.5t-77 -21.5q-65 0 -102.5 40.5zM112 723h100v-109h-100v109zM287 723h100v-109h-100v109zM122 883h255v-87h-255v87z" />
    <glyph glyph-name="uni01D7" unicode="&#x1d7;" horiz-adv-x="592" 
d="M122.5 46.5q-61.5 58.5 -61.5 168.5v471h128v-467q0 -59 28 -90t79 -31t79.5 31t28.5 90v467h128v-471q0 -110 -62 -168.5t-174 -58.5t-173.5 58.5zM158 883h100v-109h-100v109zM333 883h100v-109h-100v109zM288 1050h130l1 -3l-88 -99h-109z" />
    <glyph glyph-name="uni01D8" unicode="&#x1d8;" horiz-adv-x="501" 
d="M92.5 28.5q-37.5 40.5 -37.5 128.5v369h120v-336q0 -50 17 -71.5t52 -21.5t58.5 29.5t23.5 73.5v326h120v-526h-100l-12 65h-6q-23 -34 -56 -55.5t-77 -21.5q-65 0 -102.5 40.5zM112 723h100v-109h-100v109zM287 723h100v-109h-100v109zM267 920h120l1 -3l-108 -129h-99z
" />
    <glyph glyph-name="uni01D9" unicode="&#x1d9;" horiz-adv-x="592" 
d="M122.5 46.5q-61.5 58.5 -61.5 168.5v471h128v-467q0 -59 28 -90t79 -31t79.5 31t28.5 90v467h128v-471q0 -110 -62 -168.5t-174 -58.5t-173.5 58.5zM158 883h100v-109h-100v109zM333 883h100v-109h-100v109zM161 1050h90l45 -39l44 39h90l-85 -105h-98z" />
    <glyph glyph-name="uni01DA" unicode="&#x1da;" horiz-adv-x="501" 
d="M92.5 28.5q-37.5 40.5 -37.5 128.5v369h120v-336q0 -50 17 -71.5t52 -21.5t58.5 29.5t23.5 73.5v326h120v-526h-100l-12 65h-6q-23 -34 -56 -55.5t-77 -21.5q-65 0 -102.5 40.5zM112 723h100v-109h-100v109zM287 723h100v-109h-100v109zM115 920h90l45 -69l44 69h90
l-85 -135h-98z" />
    <glyph glyph-name="uni01DB" unicode="&#x1db;" horiz-adv-x="592" 
d="M122.5 46.5q-61.5 58.5 -61.5 168.5v471h128v-467q0 -59 28 -90t79 -31t79.5 31t28.5 90v467h128v-471q0 -110 -62 -168.5t-174 -58.5t-173.5 58.5zM158 883h100v-109h-100v109zM333 883h100v-109h-100v109zM158 1047l1 3h120l86 -102h-99z" />
    <glyph glyph-name="uni01DC" unicode="&#x1dc;" horiz-adv-x="501" 
d="M92.5 28.5q-37.5 40.5 -37.5 128.5v369h120v-336q0 -50 17 -71.5t52 -21.5t58.5 29.5t23.5 73.5v326h120v-526h-100l-12 65h-6q-23 -34 -56 -55.5t-77 -21.5q-65 0 -102.5 40.5zM112 723h100v-109h-100v109zM287 723h100v-109h-100v109zM112 917l1 3h120l86 -132h-99z
" />
    <glyph glyph-name="Gcaron" unicode="&#x1e6;" horiz-adv-x="638" 
d="M302 373h285v-373h-83l-22 76q-33 -43 -80.5 -65.5t-102.5 -22.5q-129 0 -197 87.5t-68 267.5q0 179 75 267t216 88q71 0 130.5 -29.5t95.5 -86.5t36 -136h-131q0 67 -38.5 104.5t-96.5 37.5q-78 0 -116.5 -57t-38.5 -163v-50q0 -107 38.5 -163.5t117.5 -56.5
q59 0 96.5 45.5t37.5 119.5h-154v110zM184 853h90l45 -39l44 39h90l-85 -105h-98z" />
    <glyph glyph-name="gcaron" unicode="&#x1e7;" horiz-adv-x="501" 
d="M49.5 -148q-33.5 34 -33.5 87q0 70 67 107q-42 26 -42 79q0 33 21.5 56.5t55.5 35.5q-64 47 -64 142q0 83 50.5 131t143.5 48q50 0 88 -15q27 19 39 45.5t12 45.5h99q0 -108 -85 -134q42 -47 42 -121q0 -83 -50.5 -131t-144.5 -48h-50q-16 0 -26 -9t-10 -23q0 -13 9 -22
t22 -9h182q51 0 85.5 -37.5t34.5 -99.5q0 -48 -22.5 -85t-61.5 -57t-86 -20h-193q-49 0 -82.5 34zM304 292.5q19 23.5 19 66.5t-19 66.5t-56 23.5q-36 0 -55 -23.5t-19 -66.5t19 -66.5t55 -23.5q37 0 56 23.5zM320 -91q23 0 38.5 13.5t15.5 35.5t-14 35t-35 13h-140
q-20 0 -34 -14t-14 -34q0 -22 13.5 -35.5t34.5 -13.5h135zM115 723h90l45 -69l44 69h90l-85 -135h-98z" />
    <glyph glyph-name="uni01EA" unicode="&#x1ea;" horiz-adv-x="638" 
d="M317 -46.5q-12 -19.5 -12 -36.5t14 -27.5t43 -10.5h22v-56q-36 -11 -66 -11q-48 0 -74 23.5t-26 58.5q0 25 14 50.5t40 46.5q-114 15 -176 102.5t-62 249.5q0 178 74.5 266.5t210.5 88.5t210.5 -88.5t74.5 -266.5q0 -167 -66.5 -255.5t-188.5 -98.5q-20 -16 -32 -35.5z
M205 155.5q39 -57.5 114 -57.5t114 57.5t39 162.5v50q0 105 -39 162.5t-114 57.5t-114 -57.5t-39 -162.5v-50q0 -105 39 -162.5z" />
    <glyph glyph-name="uni01EB" unicode="&#x1eb;" horiz-adv-x="501" 
d="M416.5 65.5q-44.5 -67.5 -135.5 -76.5q-9 -12 -15 -27.5t-6 -31.5q0 -22 11.5 -36.5t34.5 -14.5h22v-55q-36 -14 -66 -14q-41 0 -70 21.5t-29 68.5q0 24 10.5 48t27.5 44q-81 15 -120.5 81.5t-39.5 189.5q0 141 52 208t158 67t158 -67t52 -208q0 -130 -44.5 -197.5z
M186 127.5q20 -38.5 65 -38.5t65 38.5t20 116.5v38q0 78 -20 116.5t-65 38.5t-65 -38.5t-20 -116.5v-38q0 -78 20 -116.5z" />
    <glyph glyph-name="Aringacute" unicode="&#x1fa;" horiz-adv-x="592" 
d="M323 957h120l1 -3l-92 -106h-99zM217 674q-17 23 -17 54q0 38 28 65.5t68 27.5t68 -27.5t28 -65.5q0 -29 -18 -55l217 -673h-131l-42 135h-253l-41 -135h-124zM328.5 696q13.5 13 13.5 32t-13.5 31.5t-32.5 12.5q-20 0 -33 -12.5t-13 -31.5t13 -32t33 -13q19 0 32.5 13z
M383 249l-69 229q-10 34 -20 93h-4q-10 -63 -20 -93l-70 -229h183z" />
    <glyph glyph-name="aringacute" unicode="&#x1fb;" 
d="M55.5 21.5q-41.5 33.5 -41.5 114.5q0 100 68 142t193 42v55q0 31 -11.5 48t-43.5 17q-33 0 -48 -16.5t-15 -38.5v-15h-117q-1 6 -1 22q0 66 48.5 106t129.5 40q90 0 134.5 -40t44.5 -115v-259q0 -18 8 -26.5t20 -8.5h24v-85q-30 -16 -71 -16q-35 0 -59.5 18.5t-33.5 50.5
h-5q-25 -35 -54.5 -52t-78.5 -17t-90.5 33.5zM255.5 120q19.5 32 19.5 83v30q-61 0 -99.5 -19.5t-38.5 -66.5q0 -28 14.5 -43.5t44.5 -15.5q40 0 59.5 32zM149.5 589q-28.5 28 -28.5 68t28 68t68 28t68 -28.5t28 -67.5q0 -40 -28 -68t-68 -28q-39 0 -67.5 28zM249.5 624.5
q13.5 13.5 13.5 32.5t-13.5 32.5t-32.5 13.5q-20 0 -33 -13t-13 -33q0 -19 13 -32.5t33 -13.5q19 0 32.5 13.5zM234 920h120l1 -3l-108 -129h-99z" />
    <glyph glyph-name="AEacute" unicode="&#x1fc;" horiz-adv-x="820" 
d="M255 686h516v-114h-333l40 -164h249v-114h-221l44 -180h227v-114h-330l-33 135h-253l-50 -135h-119zM387 249l-59 251l-11 46h-4l-18 -48l-92 -249h184zM492 853h130l1 -3l-88 -99h-109z" />
    <glyph glyph-name="aeacute" unicode="&#x1fd;" horiz-adv-x="729" 
d="M84.5 21.5q-47.5 33.5 -47.5 114.5q0 100 68 142t193 42v55q0 31 -11.5 48t-43.5 17q-33 0 -48 -16.5t-15 -38.5v-15h-117q-1 6 -1 22q0 66 48.5 106t129.5 40q88 0 135 -50q47 50 125 50q96 0 143 -67t47 -208v-30h-267q1 -74 19.5 -110.5t61.5 -36.5q31 0 49 26.5
t18 73.5h119q0 -98 -51 -148t-135 -50q-107 0 -157 71q-31 -34 -68.5 -52.5t-89.5 -18.5q-57 0 -104.5 33.5zM564 320q0 120 -64 120q-37 0 -55 -30.5t-21 -89.5h140zM278.5 120q19.5 32 19.5 83v30q-61 0 -99.5 -19.5t-38.5 -66.5q0 -28 14.5 -43.5t44.5 -15.5
q40 0 59.5 32zM382 723h120l1 -3l-108 -129h-99z" />
    <glyph glyph-name="Oslashacute" unicode="&#x1fe;" horiz-adv-x="638" 
d="M604 343q0 -178 -74.5 -266.5t-210.5 -88.5q-91 0 -155 40l-40 -65h-84l70 112q-76 90 -76 268t74.5 266.5t210.5 88.5q93 0 155 -40l41 65h84l-70 -113q75 -91 75 -267zM185 195l226 361q-37 32 -92 32q-75 0 -114 -57.5t-39 -162.5v-50q0 -75 19 -123zM472 368
q0 74 -19 122l-225 -361q37 -31 91 -31q75 0 114 57.5t39 162.5v50zM311 853h130l1 -3l-88 -99h-109z" />
    <glyph glyph-name="oslashacute" unicode="&#x1ff;" horiz-adv-x="501" 
d="M461 263q0 -141 -52 -208t-158 -67q-59 0 -101 21l-22 -41h-75l44 82q-56 68 -56 213q0 141 52 208t158 67q59 0 101 -21l22 41h75l-44 -82q56 -68 56 -213zM170 183l129 238q-19 16 -48 16q-45 0 -65 -38.5t-20 -116.5v-38q0 -37 4 -61zM336 282q0 37 -4 61l-129 -238
q19 -16 48 -16q45 0 65 38.5t20 116.5v38zM267 723h120l1 -3l-108 -129h-99z" />
    <glyph glyph-name="uni0200" unicode="&#x200;" horiz-adv-x="592" 
d="M221 686h149l221 -686h-131l-42 135h-253l-41 -135h-124zM383 249l-69 229q-10 34 -20 93h-4q-10 -63 -20 -93l-70 -229h183zM109 850l1 3h100l62 -102h-79zM249 850l1 3h100l62 -102h-79z" />
    <glyph glyph-name="uni0201" unicode="&#x201;" 
d="M55.5 21.5q-41.5 33.5 -41.5 114.5q0 100 68 142t193 42v55q0 31 -11.5 48t-43.5 17q-33 0 -48 -16.5t-15 -38.5v-15h-117q-1 6 -1 22q0 66 48.5 106t129.5 40q90 0 134.5 -40t44.5 -115v-259q0 -18 8 -26.5t20 -8.5h24v-85q-30 -16 -71 -16q-35 0 -59.5 18.5t-33.5 50.5
h-5q-25 -35 -54.5 -52t-78.5 -17t-90.5 33.5zM255.5 120q19.5 32 19.5 83v30q-61 0 -99.5 -19.5t-38.5 -66.5q0 -28 14.5 -43.5t44.5 -15.5q40 0 59.5 32zM32 720l1 3h102l62 -132h-81zM174 720l1 3h98l62 -132h-77z" />
    <glyph glyph-name="uni0202" unicode="&#x202;" horiz-adv-x="592" 
d="M221 686h149l221 -686h-131l-42 135h-253l-41 -135h-124zM383 249l-69 229q-10 34 -20 93h-4q-10 -63 -20 -93l-70 -229h183zM178.5 836.5q16.5 24.5 47 40.5t69.5 16q40 0 70.5 -16t47 -40.5t16.5 -50.5h-74q-2 12 -19 22.5t-41 10.5q-23 0 -39.5 -10.5t-19.5 -22.5h-74
q0 26 16.5 50.5z" />
    <glyph glyph-name="uni0203" unicode="&#x203;" 
d="M55.5 21.5q-41.5 33.5 -41.5 114.5q0 100 68 142t193 42v55q0 31 -11.5 48t-43.5 17q-33 0 -48 -16.5t-15 -38.5v-15h-117q-1 6 -1 22q0 66 48.5 106t129.5 40q90 0 134.5 -40t44.5 -115v-259q0 -18 8 -26.5t20 -8.5h24v-85q-30 -16 -71 -16q-35 0 -59.5 18.5t-33.5 50.5
h-5q-25 -35 -54.5 -52t-78.5 -17t-90.5 33.5zM255.5 120q19.5 32 19.5 83v30q-61 0 -99.5 -19.5t-38.5 -66.5q0 -28 14.5 -43.5t44.5 -15.5q40 0 59.5 32zM99.5 646.5q16.5 24.5 47 40.5t69.5 16q40 0 70.5 -16t47 -40.5t16.5 -50.5h-74q-2 12 -19 22.5t-41 10.5
q-23 0 -39.5 -10.5t-19.5 -22.5h-74q0 26 16.5 50.5z" />
    <glyph glyph-name="uni0204" unicode="&#x204;" horiz-adv-x="547" 
d="M60 686h437v-114h-309v-164h265v-114h-265v-180h315v-114h-443v686zM92 850l1 3h100l62 -102h-79zM232 850l1 3h100l62 -102h-79z" />
    <glyph glyph-name="uni0205" unicode="&#x205;" 
d="M82.5 55.5q-51.5 67.5 -51.5 207.5q0 275 202 275q96 0 143 -67t47 -208v-30h-267q1 -74 19.5 -110.5t61.5 -36.5q31 0 49 26.5t18 73.5h119q0 -98 -51 -148t-135 -50q-103 0 -154.5 67.5zM297 320q0 120 -64 120q-37 0 -55 -30.5t-21 -89.5h140zM43 720l1 3h102l62 -132
h-81zM185 720l1 3h98l62 -132h-77z" />
    <glyph glyph-name="uni0206" unicode="&#x206;" horiz-adv-x="547" 
d="M60 686h437v-114h-309v-164h265v-114h-265v-180h315v-114h-443v686zM161.5 836.5q16.5 24.5 47 40.5t69.5 16q40 0 70.5 -16t47 -40.5t16.5 -50.5h-74q-2 12 -19 22.5t-41 10.5q-23 0 -39.5 -10.5t-19.5 -22.5h-74q0 26 16.5 50.5z" />
    <glyph glyph-name="uni0207" unicode="&#x207;" 
d="M82.5 55.5q-51.5 67.5 -51.5 207.5q0 275 202 275q96 0 143 -67t47 -208v-30h-267q1 -74 19.5 -110.5t61.5 -36.5q31 0 49 26.5t18 73.5h119q0 -98 -51 -148t-135 -50q-103 0 -154.5 67.5zM297 320q0 120 -64 120q-37 0 -55 -30.5t-21 -89.5h140zM110.5 646.5
q16.5 24.5 47 40.5t69.5 16q40 0 70.5 -16t47 -40.5t16.5 -50.5h-74q-2 12 -19 22.5t-41 10.5q-23 0 -39.5 -10.5t-19.5 -22.5h-74q0 26 16.5 50.5z" />
    <glyph glyph-name="uni0208" unicode="&#x208;" horiz-adv-x="228" 
d="M50 686h128v-686h-128v686zM-73 850l1 3h100l62 -102h-79zM67 850l1 3h100l62 -102h-79z" />
    <glyph glyph-name="uni0209" unicode="&#x209;" horiz-adv-x="228" 
d="M54 526h120v-526h-120v526zM-71 720l1 3h102l62 -132h-81zM71 720l1 3h98l62 -132h-77z" />
    <glyph glyph-name="uni020A" unicode="&#x20a;" horiz-adv-x="228" 
d="M50 686h128v-686h-128v686zM-3.5 836.5q16.5 24.5 47 40.5t69.5 16q40 0 70.5 -16t47 -40.5t16.5 -50.5h-74q-2 12 -19 22.5t-41 10.5q-23 0 -39.5 -10.5t-19.5 -22.5h-74q0 26 16.5 50.5z" />
    <glyph glyph-name="uni020B" unicode="&#x20b;" horiz-adv-x="228" 
d="M54 526h120v-526h-120v526zM-3.5 646.5q16.5 24.5 47 40.5t69.5 16q40 0 70.5 -16t47 -40.5t16.5 -50.5h-74q-2 12 -19 22.5t-41 10.5q-23 0 -39.5 -10.5t-19.5 -22.5h-74q0 26 16.5 50.5z" />
    <glyph glyph-name="uni020C" unicode="&#x20c;" horiz-adv-x="638" 
d="M108.5 76.5q-74.5 88.5 -74.5 266.5t74.5 266.5t210.5 88.5t210.5 -88.5t74.5 -266.5t-74.5 -266.5t-210.5 -88.5t-210.5 88.5zM433 155.5q39 57.5 39 162.5v50q0 105 -39 162.5t-114 57.5t-114 -57.5t-39 -162.5v-50q0 -105 39 -162.5t114 -57.5t114 57.5zM132 850l1 3
h100l62 -102h-79zM272 850l1 3h100l62 -102h-79z" />
    <glyph glyph-name="uni020D" unicode="&#x20d;" horiz-adv-x="501" 
d="M93 55q-52 67 -52 208t52 208t158 67t158 -67t52 -208t-52 -208t-158 -67t-158 67zM316 127.5q20 38.5 20 116.5v38q0 78 -20 116.5t-65 38.5t-65 -38.5t-20 -116.5v-38q0 -78 20 -116.5t65 -38.5t65 38.5zM65 720l1 3h102l62 -132h-81zM207 720l1 3h98l62 -132h-77z" />
    <glyph glyph-name="uni020E" unicode="&#x20e;" horiz-adv-x="638" 
d="M108.5 76.5q-74.5 88.5 -74.5 266.5t74.5 266.5t210.5 88.5t210.5 -88.5t74.5 -266.5t-74.5 -266.5t-210.5 -88.5t-210.5 88.5zM433 155.5q39 57.5 39 162.5v50q0 105 -39 162.5t-114 57.5t-114 -57.5t-39 -162.5v-50q0 -105 39 -162.5t114 -57.5t114 57.5zM201.5 836.5
q16.5 24.5 47 40.5t69.5 16q40 0 70.5 -16t47 -40.5t16.5 -50.5h-74q-2 12 -19 22.5t-41 10.5q-23 0 -39.5 -10.5t-19.5 -22.5h-74q0 26 16.5 50.5z" />
    <glyph glyph-name="uni020F" unicode="&#x20f;" horiz-adv-x="501" 
d="M93 55q-52 67 -52 208t52 208t158 67t158 -67t52 -208t-52 -208t-158 -67t-158 67zM316 127.5q20 38.5 20 116.5v38q0 78 -20 116.5t-65 38.5t-65 -38.5t-20 -116.5v-38q0 -78 20 -116.5t65 -38.5t65 38.5zM132.5 646.5q16.5 24.5 47 40.5t69.5 16q40 0 70.5 -16
t47 -40.5t16.5 -50.5h-74q-2 12 -19 22.5t-41 10.5q-23 0 -39.5 -10.5t-19.5 -22.5h-74q0 26 16.5 50.5z" />
    <glyph glyph-name="uni0210" unicode="&#x210;" horiz-adv-x="592" 
d="M60 686h287q101 0 155.5 -54t54.5 -142q0 -62 -30.5 -108t-84.5 -68l132 -314h-139l-114 286h-133v-286h-128v686zM329 399q45 0 67.5 23.5t22.5 67.5q0 39 -21 60.5t-64 21.5h-146v-173h141zM94 850l1 3h100l62 -102h-79zM234 850l1 3h100l62 -102h-79z" />
    <glyph glyph-name="uni0211" unicode="&#x211;" horiz-adv-x="319" 
d="M55 526h100l14 -77h6q13 40 34 64.5t57 24.5q29 0 50 -8v-116h-43q-44 0 -71 -28t-27 -93v-293h-120v526zM-5 720l1 3h102l62 -132h-81zM137 720l1 3h98l62 -132h-77z" />
    <glyph glyph-name="uni0212" unicode="&#x212;" horiz-adv-x="592" 
d="M60 686h287q101 0 155.5 -54t54.5 -142q0 -62 -30.5 -108t-84.5 -68l132 -314h-139l-114 286h-133v-286h-128v686zM329 399q45 0 67.5 23.5t22.5 67.5q0 39 -21 60.5t-64 21.5h-146v-173h141zM163.5 836.5q16.5 24.5 47 40.5t69.5 16q40 0 70.5 -16t47 -40.5t16.5 -50.5
h-74q-2 12 -19 22.5t-41 10.5q-23 0 -39.5 -10.5t-19.5 -22.5h-74q0 26 16.5 50.5z" />
    <glyph glyph-name="uni0213" unicode="&#x213;" horiz-adv-x="319" 
d="M55 526h100l14 -77h6q13 40 34 64.5t57 24.5q29 0 50 -8v-116h-43q-44 0 -71 -28t-27 -93v-293h-120v526zM62.5 646.5q16.5 24.5 47 40.5t69.5 16q40 0 70.5 -16t47 -40.5t16.5 -50.5h-74q-2 12 -19 22.5t-41 10.5q-23 0 -39.5 -10.5t-19.5 -22.5h-74q0 26 16.5 50.5z
" />
    <glyph glyph-name="uni0214" unicode="&#x214;" horiz-adv-x="592" 
d="M122.5 46.5q-61.5 58.5 -61.5 168.5v471h128v-467q0 -59 28 -90t79 -31t79.5 31t28.5 90v467h128v-471q0 -110 -62 -168.5t-174 -58.5t-173.5 58.5zM109 850l1 3h100l62 -102h-79zM249 850l1 3h100l62 -102h-79z" />
    <glyph glyph-name="uni0215" unicode="&#x215;" horiz-adv-x="501" 
d="M92.5 28.5q-37.5 40.5 -37.5 128.5v369h120v-336q0 -50 17 -71.5t52 -21.5t58.5 29.5t23.5 73.5v326h120v-526h-100l-12 65h-6q-23 -34 -56 -55.5t-77 -21.5q-65 0 -102.5 40.5zM65 720l1 3h102l62 -132h-81zM207 720l1 3h98l62 -132h-77z" />
    <glyph glyph-name="uni0216" unicode="&#x216;" horiz-adv-x="592" 
d="M122.5 46.5q-61.5 58.5 -61.5 168.5v471h128v-467q0 -59 28 -90t79 -31t79.5 31t28.5 90v467h128v-471q0 -110 -62 -168.5t-174 -58.5t-173.5 58.5zM178.5 836.5q16.5 24.5 47 40.5t69.5 16q40 0 70.5 -16t47 -40.5t16.5 -50.5h-74q-2 12 -19 22.5t-41 10.5
q-23 0 -39.5 -10.5t-19.5 -22.5h-74q0 26 16.5 50.5z" />
    <glyph glyph-name="uni0217" unicode="&#x217;" horiz-adv-x="501" 
d="M92.5 28.5q-37.5 40.5 -37.5 128.5v369h120v-336q0 -50 17 -71.5t52 -21.5t58.5 29.5t23.5 73.5v326h120v-526h-100l-12 65h-6q-23 -34 -56 -55.5t-77 -21.5q-65 0 -102.5 40.5zM132.5 646.5q16.5 24.5 47 40.5t69.5 16q40 0 70.5 -16t47 -40.5t16.5 -50.5h-74
q-2 12 -19 22.5t-41 10.5q-23 0 -39.5 -10.5t-19.5 -22.5h-74q0 26 16.5 50.5z" />
    <glyph glyph-name="uni0218" unicode="&#x218;" horiz-adv-x="547" 
d="M148 12.5q-54 24.5 -86 72.5t-32 116l1 22h133l-1 -16q0 -50 29 -79.5t81 -29.5q53 0 78.5 23.5t25.5 57.5t-18 55.5t-44.5 33.5t-74.5 28q-63 20 -102 40t-66.5 61t-27.5 109q0 62 31 105.5t83 65t115 21.5q98 0 160.5 -50.5t62.5 -151.5v-12h-131v9q0 44 -25 69.5
t-68 25.5q-45 0 -70.5 -20.5t-25.5 -52.5q0 -28 17 -46t42.5 -29t70.5 -25q65 -21 105 -40.5t69 -60.5t29 -108q0 -113 -64.5 -165.5t-177.5 -52.5q-65 0 -119 24.5zM260 -178h-49v111h128v-100l-46 -96h-65z" />
    <glyph glyph-name="uni0219" unicode="&#x219;" 
d="M83.5 33.5q-50.5 45.5 -50.5 121.5l1 12h122v-7q1 -39 22 -56.5t50 -17.5q28 0 49 13.5t21 43.5q0 32 -24 46.5t-76 28.5q-50 14 -81 28t-53.5 46t-22.5 86q0 77 52.5 118.5t135.5 41.5q77 0 127.5 -38.5t50.5 -104.5l-1 -23h-122v2q-1 66 -59 66q-28 0 -45 -14t-17 -38
q0 -28 23 -40.5t72 -25.5q51 -13 83 -27.5t55.5 -47t23.5 -89.5q0 -170 -196 -170q-90 0 -140.5 45.5zM208 -178h-32v111h107v-100l-46 -96h-65z" />
    <glyph glyph-name="uni021A" unicode="&#x21a;" horiz-adv-x="501" 
d="M187 572h-170v114h468v-114h-170v-572h-128v572zM239 -178h-49v111h128v-100l-46 -96h-65z" />
    <glyph glyph-name="uni021B" unicode="&#x21b;" horiz-adv-x="273" 
d="M91 28.5q-29 40.5 -29 100.5v296h-53v101h53l18 148h102v-148h76v-101h-76v-293q0 -21 11 -32t31 -11h34v-89q-13 -5 -34 -8.5t-38 -3.5q-66 0 -95 40.5zM146 -178h-32v111h107v-100l-46 -96h-65z" />
    <glyph glyph-name="uni022A" unicode="&#x22a;" horiz-adv-x="638" 
d="M108.5 76.5q-74.5 88.5 -74.5 266.5t74.5 266.5t210.5 88.5t210.5 -88.5t74.5 -266.5t-74.5 -266.5t-210.5 -88.5t-210.5 88.5zM433 155.5q39 57.5 39 162.5v50q0 105 -39 162.5t-114 57.5t-114 -57.5t-39 -162.5v-50q0 -105 39 -162.5t114 -57.5t114 57.5zM181 883h100
v-109h-100v109zM356 883h100v-109h-100v109zM191 1043h255v-87h-255v87z" />
    <glyph glyph-name="uni022B" unicode="&#x22b;" horiz-adv-x="501" 
d="M93 55q-52 67 -52 208t52 208t158 67t158 -67t52 -208t-52 -208t-158 -67t-158 67zM316 127.5q20 38.5 20 116.5v38q0 78 -20 116.5t-65 38.5t-65 -38.5t-20 -116.5v-38q0 -78 20 -116.5t65 -38.5t65 38.5zM112 723h100v-109h-100v109zM287 723h100v-109h-100v109z
M122 883h255v-87h-255v87z" />
    <glyph glyph-name="uni022C" unicode="&#x22c;" horiz-adv-x="638" 
d="M108.5 76.5q-74.5 88.5 -74.5 266.5t74.5 266.5t210.5 88.5t210.5 -88.5t74.5 -266.5t-74.5 -266.5t-210.5 -88.5t-210.5 88.5zM433 155.5q39 57.5 39 162.5v50q0 105 -39 162.5t-114 57.5t-114 -57.5t-39 -162.5v-50q0 -105 39 -162.5t114 -57.5t114 57.5zM189.5 823.5
q22.5 33.5 66.5 33.5q14 0 26.5 -4t35.5 -13q19 -8 32 -12t26 -4q31 0 36 33h59q0 -43 -22.5 -76.5t-66.5 -33.5q-14 0 -26.5 4t-35.5 13q-19 8 -32 12t-26 4q-31 0 -36 -33h-59q0 43 22.5 76.5zM191 1006h255v-87h-255v87z" />
    <glyph glyph-name="uni022D" unicode="&#x22d;" horiz-adv-x="501" 
d="M93 55q-52 67 -52 208t52 208t158 67t158 -67t52 -208t-52 -208t-158 -67t-158 67zM316 127.5q20 38.5 20 116.5v38q0 78 -20 116.5t-65 38.5t-65 -38.5t-20 -116.5v-38q0 -78 20 -116.5t65 -38.5t65 38.5zM108 686q25 37 73 37q16 0 30 -4.5t39 -14.5q21 -9 35 -13.5
t29 -4.5q17 0 26.5 8.5t12.5 28.5h66q0 -48 -25 -85t-74 -37q-16 0 -29.5 4.5t-38.5 14.5q-21 9 -35 13.5t-29 4.5q-34 0 -39 -37h-66q0 48 25 85zM124 877h255v-87h-255v87z" />
    <glyph glyph-name="uni0230" unicode="&#x230;" horiz-adv-x="638" 
d="M108.5 76.5q-74.5 88.5 -74.5 266.5t74.5 266.5t210.5 88.5t210.5 -88.5t74.5 -266.5t-74.5 -266.5t-210.5 -88.5t-210.5 88.5zM433 155.5q39 57.5 39 162.5v50q0 105 -39 162.5t-114 57.5t-114 -57.5t-39 -162.5v-50q0 -105 39 -162.5t114 -57.5t114 57.5zM255 883h128
v-115h-128v115zM191 1043h255v-87h-255v87z" />
    <glyph glyph-name="uni0231" unicode="&#x231;" horiz-adv-x="501" 
d="M93 55q-52 67 -52 208t52 208t158 67t158 -67t52 -208t-52 -208t-158 -67t-158 67zM316 127.5q20 38.5 20 116.5v38q0 78 -20 116.5t-65 38.5t-65 -38.5t-20 -116.5v-38q0 -78 20 -116.5t65 -38.5t65 38.5zM198 723h107v-115h-107v115zM124 877h255v-87h-255v87z" />
    <glyph glyph-name="uni0232" unicode="&#x232;" horiz-adv-x="547" 
d="M210 259l-210 427h135l140 -301h4l139 301h129l-209 -427v-259h-128v259zM145 846h255v-87h-255v87z" />
    <glyph glyph-name="uni0233" unicode="&#x233;" 
d="M67.5 -178.5q-23.5 3.5 -23.5 5.5v92h54q27 0 49 20t32 61l-175 526h127l79 -247q12 -38 28 -137h4q14 93 25 136l65 248h120l-144 -499q-28 -97 -72 -153t-114 -56q-31 0 -54.5 3.5zM104 687h255v-87h-255v87z" />
    <glyph glyph-name="uni0237" unicode="&#x237;" horiz-adv-x="228" 
d="M5.5 -178.5q-25.5 3.5 -42.5 8.5v89h44q47 0 47 48v559h120v-567q0 -61 -28 -101t-94 -40q-21 0 -46.5 3.5z" />
    <glyph glyph-name="uni0259" unicode="&#x259;" 
d="M373.5 470.5q51.5 -67.5 51.5 -207.5q0 -275 -202 -275q-96 0 -143 67t-47 208v30h267q-1 74 -19.5 110.5t-61.5 36.5q-31 0 -49 -26.5t-18 -73.5h-119q0 98 51 148t135 50q103 0 154.5 -67.5zM159 206q0 -120 64 -120q37 0 55 30.5t21 89.5h-140z" />
    <glyph glyph-name="uni0272" unicode="&#x272;" horiz-adv-x="501" 
d="M6.5 -178.5q-25.5 3.5 -42.5 8.5v89h44q47 0 47 48v559h100l12 -65h6q23 34 56 55.5t77 21.5q65 0 102.5 -40.5t37.5 -128.5v-369h-120v336q0 49 -17.5 71t-51.5 22q-35 0 -58.5 -30.5t-23.5 -74.5v-365q0 -61 -28 -101t-94 -40q-21 0 -46.5 3.5z" />
    <glyph glyph-name="uni02B9" unicode="&#x2b9;" horiz-adv-x="195" 
d="M48 686h110l1 -3l-47 -177h-89z" />
    <glyph glyph-name="uni02BA" unicode="&#x2ba;" horiz-adv-x="337" 
d="M190 686h110l1 -3l-47 -177h-89zM48 686h110l1 -3l-47 -177h-89z" />
    <glyph glyph-name="uni02BC" unicode="&#x2bc;" horiz-adv-x="138" 
d="M55 608h-55v115h138v-103l-66 -124h-72z" />
    <glyph glyph-name="circumflex" unicode="&#x2c6;" horiz-adv-x="273" 
d="M86 723h98l85 -135h-90l-44 69l-45 -69h-90z" />
    <glyph glyph-name="caron" unicode="&#x2c7;" horiz-adv-x="273" 
d="M0 723h90l45 -69l44 69h90l-85 -135h-98z" />
    <glyph glyph-name="uni02C9" unicode="&#x2c9;" horiz-adv-x="273" 
d="M9 687h255v-87h-255v87z" />
    <glyph glyph-name="breve" unicode="&#x2d8;" horiz-adv-x="273" 
d="M64.5 632q-30.5 16 -47 40.5t-16.5 50.5h74q3 -12 19.5 -22.5t39.5 -10.5q24 0 41 10.5t19 22.5h74q0 -26 -16.5 -50.5t-47 -40.5t-70.5 -16q-39 0 -69.5 16z" />
    <glyph glyph-name="dotaccent" unicode="&#x2d9;" horiz-adv-x="273" 
d="M83 723h107v-115h-107v115z" />
    <glyph glyph-name="ring" unicode="&#x2da;" horiz-adv-x="273" 
d="M71.5 589q-28.5 28 -28.5 68t28 68t68 28t68 -28.5t28 -67.5q0 -40 -28 -68t-68 -28q-39 0 -67.5 28zM171.5 624.5q13.5 13.5 13.5 32.5t-13.5 32.5t-32.5 13.5t-32.5 -13t-13.5 -33q0 -19 13.5 -32.5t32.5 -13.5t32.5 13.5z" />
    <glyph glyph-name="ogonek" unicode="&#x2db;" horiz-adv-x="273" 
d="M87 -165q-26 25 -26 63q0 26 12.5 53.5t36.5 52.5h78l2 -4q-15 -17 -22.5 -36t-7.5 -37q0 -21 11.5 -34.5t33.5 -13.5h22v-55q-36 -14 -66 -14q-48 0 -74 25z" />
    <glyph glyph-name="tilde" unicode="&#x2dc;" horiz-adv-x="273" 
d="M-7 686q25 37 73 37q16 0 30 -4.5t39 -14.5q21 -9 35 -13.5t29 -4.5q17 0 26.5 8.5t12.5 28.5h66q0 -48 -25 -85t-74 -37q-16 0 -29.5 4.5t-38.5 14.5q-21 9 -35 13.5t-29 4.5q-34 0 -39 -37h-66q0 48 25 85z" />
    <glyph glyph-name="hungarumlaut" unicode="&#x2dd;" horiz-adv-x="273" 
d="M66 723h100l1 -3l-84 -129h-79zM206 723h100l1 -3l-84 -129h-79z" />
    <glyph glyph-name="gravecomb" unicode="&#x300;" horiz-adv-x="0" 
d="M-252 720l1 3h120l86 -132h-99z" />
    <glyph glyph-name="acutecomb" unicode="&#x301;" horiz-adv-x="0" 
d="M-121 723h120l1 -3l-108 -129h-99z" />
    <glyph glyph-name="uni0302" unicode="&#x302;" horiz-adv-x="0" 
d="M-183 723h98l85 -135h-90l-44 69l-45 -69h-90z" />
    <glyph glyph-name="tildecomb" unicode="&#x303;" horiz-adv-x="0" 
d="M-311 686q25 37 73 37q16 0 30 -4.5t39 -14.5q21 -9 35 -13.5t29 -4.5q17 0 26.5 8.5t12.5 28.5h66q0 -48 -25 -85t-74 -37q-16 0 -29.5 4.5t-38.5 14.5q-21 9 -35 13.5t-29 4.5q-34 0 -39 -37h-66q0 48 25 85z" />
    <glyph glyph-name="uni0304" unicode="&#x304;" horiz-adv-x="0" 
d="M-255 686h255v-87h-255v87z" />
    <glyph glyph-name="uni0306" unicode="&#x306;" horiz-adv-x="0" 
d="M-203.5 592q-30.5 16 -47 40.5t-16.5 50.5h74q3 -12 19.5 -22.5t39.5 -10.5q24 0 41 10.5t19 22.5h74q0 -26 -16.5 -50.5t-47 -40.5t-70.5 -16q-39 0 -69.5 16z" />
    <glyph glyph-name="uni0307" unicode="&#x307;" horiz-adv-x="0" 
d="M-121 723h121v-115h-121v115z" />
    <glyph glyph-name="uni0308" unicode="&#x308;" horiz-adv-x="0" 
d="M-275 723h100v-109h-100v109zM-100 723h100v-109h-100v109z" />
    <glyph glyph-name="hookabovecomb" unicode="&#x309;" horiz-adv-x="0" 
d="M-130 637h14q17 0 24 4.5t7 14.5q0 11 -8.5 15t-25.5 4h-48v42q32 8 69 8q39 0 68.5 -13.5t29.5 -47.5q0 -27 -18.5 -41t-47.5 -16v-21h-64v51z" />
    <glyph glyph-name="uni030A" unicode="&#x30a;" horiz-adv-x="0" 
d="M-163.5 589q-28.5 28 -28.5 68t28 68t68 28t68 -28.5t28 -67.5q0 -40 -28 -68t-68 -28q-39 0 -67.5 28zM-63.5 624.5q13.5 13.5 13.5 32.5t-13.5 32.5t-32.5 13.5q-20 0 -33 -13t-13 -33q0 -19 13 -32.5t33 -13.5q19 0 32.5 13.5z" />
    <glyph glyph-name="uni030B" unicode="&#x30b;" horiz-adv-x="0" 
d="M-207 723h100l1 -3l-84 -129h-79zM-67 723h100l1 -3l-84 -129h-79z" />
    <glyph glyph-name="uni030C" unicode="&#x30c;" horiz-adv-x="0" 
d="M-269 723h90l45 -69l44 69h90l-85 -135h-98z" />
    <glyph glyph-name="uni030F" unicode="&#x30f;" horiz-adv-x="0" 
d="M-303 720l1 3h102l62 -132h-81zM-161 720l1 3h98l62 -132h-77z" />
    <glyph glyph-name="uni0311" unicode="&#x311;" horiz-adv-x="0" 
d="M-255.5 646.5q16.5 24.5 47 40.5t69.5 16q40 0 70.5 -16t47 -40.5t16.5 -50.5h-74q-2 12 -19 22.5t-41 10.5q-23 0 -39.5 -10.5t-19.5 -22.5h-74q0 26 16.5 50.5z" />
    <glyph glyph-name="uni0312" unicode="&#x312;" horiz-adv-x="0" 
d="M-125 708l46 96h79l-37 -85h33v-111h-121v100z" />
    <glyph glyph-name="uni031B" unicode="&#x31b;" horiz-adv-x="0" 
d="M-210 526h60q35 0 50 12.5t15 40.5v61h85v-61q0 -52 -35.5 -82.5t-94.5 -30.5h-80v60z" />
    <glyph glyph-name="dotbelowcomb" unicode="&#x323;" horiz-adv-x="0" 
d="M-117 -67h117v-115h-117v115z" />
    <glyph glyph-name="uni0324" unicode="&#x324;" horiz-adv-x="0" 
d="M-275 -67h110v-115h-110v115zM-110 -67h110v-115h-110v115z" />
    <glyph glyph-name="uni0326" unicode="&#x326;" horiz-adv-x="0" 
d="M-75 -178h-32v111h107v-100l-46 -96h-65z" />
    <glyph glyph-name="uni0327" unicode="&#x327;" horiz-adv-x="0" 
d="M-193 -174v49h71q18 0 27 5.5t9 18.5q0 12 -7.5 18t-26.5 6h-33l11 88h68l-5 -44q35 -2 57 -19t22 -49q0 -45 -33.5 -63t-75.5 -18q-46 0 -84 8z" />
    <glyph glyph-name="uni0328" unicode="&#x328;" horiz-adv-x="0" 
d="M-136 -168.5q-29 21.5 -29 68.5q0 27 14 55t34 49h78l2 -4q-13 -11 -22 -30.5t-9 -39.5q0 -22 11.5 -36.5t34.5 -14.5h22v-55q-36 -14 -66 -14q-41 0 -70 21.5z" />
    <glyph glyph-name="uni032E" unicode="&#x32e;" horiz-adv-x="0" 
d="M-203.5 -158q-30.5 16 -47 40.5t-16.5 50.5h74q3 -12 19.5 -22.5t39.5 -10.5q24 0 41 10.5t19 22.5h74q0 -26 -16.5 -50.5t-47 -40.5t-70.5 -16q-39 0 -69.5 16z" />
    <glyph glyph-name="uni0331" unicode="&#x331;" horiz-adv-x="0" 
d="M-255 -67h255v-87h-255v87z" />
    <glyph glyph-name="uni0335" unicode="&#x335;" horiz-adv-x="0" 
d="M-500 388h500v-69h-500v69z" />
    <glyph glyph-name="uni0336" unicode="&#x336;" horiz-adv-x="0" 
d="M-573 416h573v-92h-573v92z" />
    <glyph glyph-name="uni0337" unicode="&#x337;" horiz-adv-x="0" 
d="M-182 304l182 188v-93l-182 -188v93z" />
    <glyph glyph-name="uni0338" unicode="&#x338;" horiz-adv-x="0" 
d="M-75 558h75l-321 -590h-75z" />
    <glyph glyph-name="uni03BC" unicode="&#x3bc;" horiz-adv-x="501" 
d="M55 526h120v-336q0 -50 17 -71.5t52 -21.5t58.5 29.5t23.5 73.5v326h120v-526h-100l-12 65h-6q-19 -34 -47.5 -55.5t-65.5 -21.5q-21 0 -40 8v-169h-120v699z" />
    <glyph glyph-name="pi" unicode="&#x3c0;" horiz-adv-x="628" 
d="M119 201.5q19 129.5 21 223.5q-45 0 -67.5 -3t-40.5 -10l-12 84q41 30 160 30h401l-8 -101h-83v-269q0 -107 13 -156h-118q-15 27 -15 147v278h-110q-6 -106 -24.5 -237t-40.5 -188h-119q24 72 43 201.5z" />
    <glyph glyph-name="Wgrave" unicode="&#x1e80;" horiz-adv-x="774" 
d="M0 686h127l82 -422q6 -28 13 -96h4q7 68 13 96l83 422h145l82 -422q5 -26 13 -96h4q6 64 13 96l84 422h110l-149 -686h-129l-93 437q-8 33 -14 97h-4q-8 -69 -14 -97l-92 -437h-129zM249 850l1 3h120l86 -102h-99z" />
    <glyph glyph-name="wgrave" unicode="&#x1e81;" horiz-adv-x="638" 
d="M1 526h120l50 -216q15 -67 21 -165h4q8 93 22 164l45 217h120l45 -218q10 -48 22 -163h4q15 107 26 163l46 218h111l-127 -526h-121l-52 251q-10 50 -15 130h-6q-5 -78 -15 -129l-51 -252h-121zM181 720l1 3h120l86 -132h-99z" />
    <glyph glyph-name="Wacute" unicode="&#x1e82;" horiz-adv-x="774" 
d="M0 686h127l82 -422q6 -28 13 -96h4q7 68 13 96l83 422h145l82 -422q5 -26 13 -96h4q6 64 13 96l84 422h110l-149 -686h-129l-93 437q-8 33 -14 97h-4q-8 -69 -14 -97l-92 -437h-129zM379 853h130l1 -3l-88 -99h-109z" />
    <glyph glyph-name="wacute" unicode="&#x1e83;" horiz-adv-x="638" 
d="M1 526h120l50 -216q15 -67 21 -165h4q8 93 22 164l45 217h120l45 -218q10 -48 22 -163h4q15 107 26 163l46 218h111l-127 -526h-121l-52 251q-10 50 -15 130h-6q-5 -78 -15 -129l-51 -252h-121zM336 723h120l1 -3l-108 -129h-99z" />
    <glyph glyph-name="Wdieresis" unicode="&#x1e84;" horiz-adv-x="774" 
d="M0 686h127l82 -422q6 -28 13 -96h4q7 68 13 96l83 422h145l82 -422q5 -26 13 -96h4q6 64 13 96l84 422h110l-149 -686h-129l-93 437q-8 33 -14 97h-4q-8 -69 -14 -97l-92 -437h-129zM249 883h100v-109h-100v109zM424 883h100v-109h-100v109z" />
    <glyph glyph-name="wdieresis" unicode="&#x1e85;" horiz-adv-x="638" 
d="M1 526h120l50 -216q15 -67 21 -165h4q8 93 22 164l45 217h120l45 -218q10 -48 22 -163h4q15 107 26 163l46 218h111l-127 -526h-121l-52 251q-10 50 -15 130h-6q-5 -78 -15 -129l-51 -252h-121zM181 723h100v-109h-100v109zM356 723h100v-109h-100v109z" />
    <glyph glyph-name="uni1E9E" unicode="&#x1e9e;" horiz-adv-x="611" 
d="M50 424q0 132 68 203t195 71q118 0 185.5 -53t67.5 -142q0 -53 -26 -95t-65 -57v-4q59 -15 92 -56.5t33 -103.5q0 -55 -26.5 -97.5t-75 -66t-111.5 -23.5h-142v93h129q48 0 73.5 25.5t25.5 73.5q0 46 -35 73.5t-104 27.5h-89v93h86q53 0 80 28t27 80q0 47 -32.5 72.5
t-93.5 25.5q-66 0 -101.5 -43.5t-35.5 -124.5v-424h-125v424z" />
    <glyph glyph-name="uni1EA0" unicode="&#x1ea0;" horiz-adv-x="592" 
d="M221 686h149l221 -686h-131l-42 135h-253l-41 -135h-124zM383 249l-69 229q-10 34 -20 93h-4q-10 -63 -20 -93l-70 -229h183zM232 -67h127v-115h-127v115z" />
    <glyph glyph-name="uni1EA1" unicode="&#x1ea1;" 
d="M55.5 21.5q-41.5 33.5 -41.5 114.5q0 100 68 142t193 42v55q0 31 -11.5 48t-43.5 17q-33 0 -48 -16.5t-15 -38.5v-15h-117q-1 6 -1 22q0 66 48.5 106t129.5 40q90 0 134.5 -40t44.5 -115v-259q0 -18 8 -26.5t20 -8.5h24v-85q-30 -16 -71 -16q-35 0 -59.5 18.5t-33.5 50.5
h-5q-25 -35 -54.5 -52t-78.5 -17t-90.5 33.5zM255.5 120q19.5 32 19.5 83v30q-61 0 -99.5 -19.5t-38.5 -66.5q0 -28 14.5 -43.5t44.5 -15.5q40 0 59.5 32zM169 -67h117v-115h-117v115z" />
    <glyph glyph-name="uni1EA2" unicode="&#x1ea2;" horiz-adv-x="592" 
d="M221 686h149l221 -686h-131l-42 135h-253l-41 -135h-124zM383 249l-69 229q-10 34 -20 93h-4q-10 -63 -20 -93l-70 -229h183zM263 797h14q17 0 24 4.5t7 14.5q0 11 -8.5 15t-25.5 4h-48v42q32 8 69 8q39 0 68.5 -13.5t29.5 -47.5q0 -27 -18.5 -41t-47.5 -16v-21h-64v51z
" />
    <glyph glyph-name="uni1EA3" unicode="&#x1ea3;" 
d="M55.5 21.5q-41.5 33.5 -41.5 114.5q0 100 68 142t193 42v55q0 31 -11.5 48t-43.5 17q-33 0 -48 -16.5t-15 -38.5v-15h-117q-1 6 -1 22q0 66 48.5 106t129.5 40q90 0 134.5 -40t44.5 -115v-259q0 -18 8 -26.5t20 -8.5h24v-85q-30 -16 -71 -16q-35 0 -59.5 18.5t-33.5 50.5
h-5q-25 -35 -54.5 -52t-78.5 -17t-90.5 33.5zM255.5 120q19.5 32 19.5 83v30q-61 0 -99.5 -19.5t-38.5 -66.5q0 -28 14.5 -43.5t44.5 -15.5q40 0 59.5 32zM184 637h14q17 0 24 4.5t7 14.5q0 11 -8.5 15t-25.5 4h-48v42q32 8 69 8q39 0 68.5 -13.5t29.5 -47.5
q0 -27 -18.5 -41t-47.5 -16v-21h-64v51z" />
    <glyph glyph-name="uni1EA4" unicode="&#x1ea4;" horiz-adv-x="592" 
d="M221 686h149l221 -686h-131l-42 135h-253l-41 -135h-124zM383 249l-69 229q-10 34 -20 93h-4q-10 -63 -20 -93l-70 -229h183zM247 853h98l85 -105h-90l-44 39l-45 -39h-90zM288 993h130l1 -3l-88 -99h-109z" />
    <glyph glyph-name="uni1EA5" unicode="&#x1ea5;" 
d="M55.5 21.5q-41.5 33.5 -41.5 114.5q0 100 68 142t193 42v55q0 31 -11.5 48t-43.5 17q-33 0 -48 -16.5t-15 -38.5v-15h-117q-1 6 -1 22q0 66 48.5 106t129.5 40q90 0 134.5 -40t44.5 -115v-259q0 -18 8 -26.5t20 -8.5h24v-85q-30 -16 -71 -16q-35 0 -59.5 18.5t-33.5 50.5
h-5q-25 -35 -54.5 -52t-78.5 -17t-90.5 33.5zM255.5 120q19.5 32 19.5 83v30q-61 0 -99.5 -19.5t-38.5 -66.5q0 -28 14.5 -43.5t44.5 -15.5q40 0 59.5 32zM168 723h98l85 -135h-90l-44 69l-45 -69h-90zM234 890h120l1 -3l-108 -129h-99z" />
    <glyph glyph-name="uni1EA6" unicode="&#x1ea6;" horiz-adv-x="592" 
d="M221 686h149l221 -686h-131l-42 135h-253l-41 -135h-124zM383 249l-69 229q-10 34 -20 93h-4q-10 -63 -20 -93l-70 -229h183zM247 853h98l85 -105h-90l-44 39l-45 -39h-90zM158 990l1 3h120l86 -102h-99z" />
    <glyph glyph-name="uni1EA7" unicode="&#x1ea7;" 
d="M55.5 21.5q-41.5 33.5 -41.5 114.5q0 100 68 142t193 42v55q0 31 -11.5 48t-43.5 17q-33 0 -48 -16.5t-15 -38.5v-15h-117q-1 6 -1 22q0 66 48.5 106t129.5 40q90 0 134.5 -40t44.5 -115v-259q0 -18 8 -26.5t20 -8.5h24v-85q-30 -16 -71 -16q-35 0 -59.5 18.5t-33.5 50.5
h-5q-25 -35 -54.5 -52t-78.5 -17t-90.5 33.5zM255.5 120q19.5 32 19.5 83v30q-61 0 -99.5 -19.5t-38.5 -66.5q0 -28 14.5 -43.5t44.5 -15.5q40 0 59.5 32zM168 723h98l85 -135h-90l-44 69l-45 -69h-90zM79 887l1 3h120l86 -132h-99z" />
    <glyph glyph-name="uni1EA8" unicode="&#x1ea8;" horiz-adv-x="592" 
d="M221 686h149l221 -686h-131l-42 135h-253l-41 -135h-124zM383 249l-69 229q-10 34 -20 93h-4q-10 -63 -20 -93l-70 -229h183zM247 853h98l85 -105h-90l-44 39l-45 -39h-90zM263 937h14q17 0 24 4.5t7 14.5q0 11 -8.5 15t-25.5 4h-48v42q32 8 69 8q39 0 68.5 -13.5
t29.5 -47.5q0 -27 -18.5 -41t-47.5 -16v-21h-64v51z" />
    <glyph glyph-name="uni1EA9" unicode="&#x1ea9;" 
d="M55.5 21.5q-41.5 33.5 -41.5 114.5q0 100 68 142t193 42v55q0 31 -11.5 48t-43.5 17q-33 0 -48 -16.5t-15 -38.5v-15h-117q-1 6 -1 22q0 66 48.5 106t129.5 40q90 0 134.5 -40t44.5 -115v-259q0 -18 8 -26.5t20 -8.5h24v-85q-30 -16 -71 -16q-35 0 -59.5 18.5t-33.5 50.5
h-5q-25 -35 -54.5 -52t-78.5 -17t-90.5 33.5zM255.5 120q19.5 32 19.5 83v30q-61 0 -99.5 -19.5t-38.5 -66.5q0 -28 14.5 -43.5t44.5 -15.5q40 0 59.5 32zM168 723h98l85 -135h-90l-44 69l-45 -69h-90zM184 804h14q17 0 24 4.5t7 14.5q0 11 -8.5 15t-25.5 4h-48v42
q32 8 69 8q39 0 68.5 -13.5t29.5 -47.5q0 -27 -18.5 -41t-47.5 -16v-21h-64v51z" />
    <glyph glyph-name="uni1EAA" unicode="&#x1eaa;" horiz-adv-x="592" 
d="M221 686h149l221 -686h-131l-42 135h-253l-41 -135h-124zM383 249l-69 229q-10 34 -20 93h-4q-10 -63 -20 -93l-70 -229h183zM247 853h98l85 -105h-90l-44 39l-45 -39h-90zM166.5 963.5q22.5 33.5 66.5 33.5q14 0 26.5 -4t35.5 -13q19 -8 32 -12t26 -4q31 0 36 33h59
q0 -43 -22.5 -76.5t-66.5 -33.5q-14 0 -26.5 4t-35.5 13q-19 8 -32 12t-26 4q-31 0 -36 -33h-59q0 43 22.5 76.5z" />
    <glyph glyph-name="uni1EAB" unicode="&#x1eab;" 
d="M55.5 21.5q-41.5 33.5 -41.5 114.5q0 100 68 142t193 42v55q0 31 -11.5 48t-43.5 17q-33 0 -48 -16.5t-15 -38.5v-15h-117q-1 6 -1 22q0 66 48.5 106t129.5 40q90 0 134.5 -40t44.5 -115v-259q0 -18 8 -26.5t20 -8.5h24v-85q-30 -16 -71 -16q-35 0 -59.5 18.5t-33.5 50.5
h-5q-25 -35 -54.5 -52t-78.5 -17t-90.5 33.5zM255.5 120q19.5 32 19.5 83v30q-61 0 -99.5 -19.5t-38.5 -66.5q0 -28 14.5 -43.5t44.5 -15.5q40 0 59.5 32zM168 723h98l85 -135h-90l-44 69l-45 -69h-90zM74 853q25 37 73 37q16 0 30 -4.5t39 -14.5q21 -9 35 -13.5t29 -4.5
q17 0 26.5 8.5t12.5 28.5h66q0 -48 -25 -85t-74 -37q-16 0 -29.5 4.5t-38.5 14.5q-21 9 -35 13.5t-29 4.5q-34 0 -39 -37h-66q0 48 25 85z" />
    <glyph glyph-name="uni1EAC" unicode="&#x1eac;" horiz-adv-x="592" 
d="M221 686h149l221 -686h-131l-42 135h-253l-41 -135h-124zM383 249l-69 229q-10 34 -20 93h-4q-10 -63 -20 -93l-70 -229h183zM247 853h98l85 -105h-90l-44 39l-45 -39h-90zM232 -67h127v-115h-127v115z" />
    <glyph glyph-name="uni1EAD" unicode="&#x1ead;" 
d="M55.5 21.5q-41.5 33.5 -41.5 114.5q0 100 68 142t193 42v55q0 31 -11.5 48t-43.5 17q-33 0 -48 -16.5t-15 -38.5v-15h-117q-1 6 -1 22q0 66 48.5 106t129.5 40q90 0 134.5 -40t44.5 -115v-259q0 -18 8 -26.5t20 -8.5h24v-85q-30 -16 -71 -16q-35 0 -59.5 18.5t-33.5 50.5
h-5q-25 -35 -54.5 -52t-78.5 -17t-90.5 33.5zM255.5 120q19.5 32 19.5 83v30q-61 0 -99.5 -19.5t-38.5 -66.5q0 -28 14.5 -43.5t44.5 -15.5q40 0 59.5 32zM169 -67h117v-115h-117v115zM168 723h98l85 -135h-90l-44 69l-45 -69h-90z" />
    <glyph glyph-name="uni1EAE" unicode="&#x1eae;" horiz-adv-x="592" 
d="M221 686h149l221 -686h-131l-42 135h-253l-41 -135h-124zM383 249l-69 229q-10 34 -20 93h-4q-10 -63 -20 -93l-70 -229h183zM225.5 752q-30.5 16 -47 40.5t-16.5 50.5h74q3 -12 19.5 -22.5t39.5 -10.5q24 0 41 10.5t19 22.5h74q0 -26 -16.5 -50.5t-47 -40.5t-70.5 -16
q-39 0 -69.5 16zM288 977h130l1 -3l-88 -99h-109z" />
    <glyph glyph-name="uni1EAF" unicode="&#x1eaf;" 
d="M55.5 21.5q-41.5 33.5 -41.5 114.5q0 100 68 142t193 42v55q0 31 -11.5 48t-43.5 17q-33 0 -48 -16.5t-15 -38.5v-15h-117q-1 6 -1 22q0 66 48.5 106t129.5 40q90 0 134.5 -40t44.5 -115v-259q0 -18 8 -26.5t20 -8.5h24v-85q-30 -16 -71 -16q-35 0 -59.5 18.5t-33.5 50.5
h-5q-25 -35 -54.5 -52t-78.5 -17t-90.5 33.5zM255.5 120q19.5 32 19.5 83v30q-61 0 -99.5 -19.5t-38.5 -66.5q0 -28 14.5 -43.5t44.5 -15.5q40 0 59.5 32zM146.5 592q-30.5 16 -47 40.5t-16.5 50.5h74q3 -12 19.5 -22.5t39.5 -10.5q24 0 41 10.5t19 22.5h74
q0 -26 -16.5 -50.5t-47 -40.5t-70.5 -16q-39 0 -69.5 16zM234 847h120l1 -3l-108 -129h-99z" />
    <glyph glyph-name="uni1EB0" unicode="&#x1eb0;" horiz-adv-x="592" 
d="M221 686h149l221 -686h-131l-42 135h-253l-41 -135h-124zM383 249l-69 229q-10 34 -20 93h-4q-10 -63 -20 -93l-70 -229h183zM225.5 752q-30.5 16 -47 40.5t-16.5 50.5h74q3 -12 19.5 -22.5t39.5 -10.5q24 0 41 10.5t19 22.5h74q0 -26 -16.5 -50.5t-47 -40.5t-70.5 -16
q-39 0 -69.5 16zM158 974l1 3h120l86 -102h-99z" />
    <glyph glyph-name="uni1EB1" unicode="&#x1eb1;" 
d="M55.5 21.5q-41.5 33.5 -41.5 114.5q0 100 68 142t193 42v55q0 31 -11.5 48t-43.5 17q-33 0 -48 -16.5t-15 -38.5v-15h-117q-1 6 -1 22q0 66 48.5 106t129.5 40q90 0 134.5 -40t44.5 -115v-259q0 -18 8 -26.5t20 -8.5h24v-85q-30 -16 -71 -16q-35 0 -59.5 18.5t-33.5 50.5
h-5q-25 -35 -54.5 -52t-78.5 -17t-90.5 33.5zM255.5 120q19.5 32 19.5 83v30q-61 0 -99.5 -19.5t-38.5 -66.5q0 -28 14.5 -43.5t44.5 -15.5q40 0 59.5 32zM146.5 592q-30.5 16 -47 40.5t-16.5 50.5h74q3 -12 19.5 -22.5t39.5 -10.5q24 0 41 10.5t19 22.5h74
q0 -26 -16.5 -50.5t-47 -40.5t-70.5 -16q-39 0 -69.5 16zM79 844l1 3h120l86 -132h-99z" />
    <glyph glyph-name="uni1EB2" unicode="&#x1eb2;" horiz-adv-x="592" 
d="M221 686h149l221 -686h-131l-42 135h-253l-41 -135h-124zM383 249l-69 229q-10 34 -20 93h-4q-10 -63 -20 -93l-70 -229h183zM225.5 752q-30.5 16 -47 40.5t-16.5 50.5h74q3 -12 19.5 -22.5t39.5 -10.5q24 0 41 10.5t19 22.5h74q0 -26 -16.5 -50.5t-47 -40.5t-70.5 -16
q-39 0 -69.5 16zM263 921h14q17 0 24 4.5t7 14.5q0 11 -8.5 15t-25.5 4h-48v42q32 8 69 8q39 0 68.5 -13.5t29.5 -47.5q0 -27 -18.5 -41t-47.5 -16v-21h-64v51z" />
    <glyph glyph-name="uni1EB3" unicode="&#x1eb3;" 
d="M55.5 21.5q-41.5 33.5 -41.5 114.5q0 100 68 142t193 42v55q0 31 -11.5 48t-43.5 17q-33 0 -48 -16.5t-15 -38.5v-15h-117q-1 6 -1 22q0 66 48.5 106t129.5 40q90 0 134.5 -40t44.5 -115v-259q0 -18 8 -26.5t20 -8.5h24v-85q-30 -16 -71 -16q-35 0 -59.5 18.5t-33.5 50.5
h-5q-25 -35 -54.5 -52t-78.5 -17t-90.5 33.5zM255.5 120q19.5 32 19.5 83v30q-61 0 -99.5 -19.5t-38.5 -66.5q0 -28 14.5 -43.5t44.5 -15.5q40 0 59.5 32zM146.5 592q-30.5 16 -47 40.5t-16.5 50.5h74q3 -12 19.5 -22.5t39.5 -10.5q24 0 41 10.5t19 22.5h74
q0 -26 -16.5 -50.5t-47 -40.5t-70.5 -16q-39 0 -69.5 16zM184 761h14q17 0 24 4.5t7 14.5q0 11 -8.5 15t-25.5 4h-48v42q32 8 69 8q39 0 68.5 -13.5t29.5 -47.5q0 -27 -18.5 -41t-47.5 -16v-21h-64v51z" />
    <glyph glyph-name="uni1EB4" unicode="&#x1eb4;" horiz-adv-x="592" 
d="M221 686h149l221 -686h-131l-42 135h-253l-41 -135h-124zM383 249l-69 229q-10 34 -20 93h-4q-10 -63 -20 -93l-70 -229h183zM225.5 752q-30.5 16 -47 40.5t-16.5 50.5h74q3 -12 19.5 -22.5t39.5 -10.5q24 0 41 10.5t19 22.5h74q0 -26 -16.5 -50.5t-47 -40.5t-70.5 -16
q-39 0 -69.5 16zM166.5 947.5q22.5 33.5 66.5 33.5q14 0 26.5 -4t35.5 -13q19 -8 32 -12t26 -4q31 0 36 33h59q0 -43 -22.5 -76.5t-66.5 -33.5q-14 0 -26.5 4t-35.5 13q-19 8 -32 12t-26 4q-31 0 -36 -33h-59q0 43 22.5 76.5z" />
    <glyph glyph-name="uni1EB5" unicode="&#x1eb5;" 
d="M55.5 21.5q-41.5 33.5 -41.5 114.5q0 100 68 142t193 42v55q0 31 -11.5 48t-43.5 17q-33 0 -48 -16.5t-15 -38.5v-15h-117q-1 6 -1 22q0 66 48.5 106t129.5 40q90 0 134.5 -40t44.5 -115v-259q0 -18 8 -26.5t20 -8.5h24v-85q-30 -16 -71 -16q-35 0 -59.5 18.5t-33.5 50.5
h-5q-25 -35 -54.5 -52t-78.5 -17t-90.5 33.5zM255.5 120q19.5 32 19.5 83v30q-61 0 -99.5 -19.5t-38.5 -66.5q0 -28 14.5 -43.5t44.5 -15.5q40 0 59.5 32zM146.5 592q-30.5 16 -47 40.5t-16.5 50.5h74q3 -12 19.5 -22.5t39.5 -10.5q24 0 41 10.5t19 22.5h74
q0 -26 -16.5 -50.5t-47 -40.5t-70.5 -16q-39 0 -69.5 16zM74 810q25 37 73 37q16 0 30 -4.5t39 -14.5q21 -9 35 -13.5t29 -4.5q17 0 26.5 8.5t12.5 28.5h66q0 -48 -25 -85t-74 -37q-16 0 -29.5 4.5t-38.5 14.5q-21 9 -35 13.5t-29 4.5q-34 0 -39 -37h-66q0 48 25 85z" />
    <glyph glyph-name="uni1EB6" unicode="&#x1eb6;" horiz-adv-x="592" 
d="M221 686h149l221 -686h-131l-42 135h-253l-41 -135h-124zM383 249l-69 229q-10 34 -20 93h-4q-10 -63 -20 -93l-70 -229h183zM232 -67h127v-115h-127v115zM225.5 752q-30.5 16 -47 40.5t-16.5 50.5h74q3 -12 19.5 -22.5t39.5 -10.5q24 0 41 10.5t19 22.5h74
q0 -26 -16.5 -50.5t-47 -40.5t-70.5 -16q-39 0 -69.5 16z" />
    <glyph glyph-name="uni1EB7" unicode="&#x1eb7;" 
d="M55.5 21.5q-41.5 33.5 -41.5 114.5q0 100 68 142t193 42v55q0 31 -11.5 48t-43.5 17q-33 0 -48 -16.5t-15 -38.5v-15h-117q-1 6 -1 22q0 66 48.5 106t129.5 40q90 0 134.5 -40t44.5 -115v-259q0 -18 8 -26.5t20 -8.5h24v-85q-30 -16 -71 -16q-35 0 -59.5 18.5t-33.5 50.5
h-5q-25 -35 -54.5 -52t-78.5 -17t-90.5 33.5zM255.5 120q19.5 32 19.5 83v30q-61 0 -99.5 -19.5t-38.5 -66.5q0 -28 14.5 -43.5t44.5 -15.5q40 0 59.5 32zM169 -67h117v-115h-117v115zM146.5 592q-30.5 16 -47 40.5t-16.5 50.5h74q3 -12 19.5 -22.5t39.5 -10.5q24 0 41 10.5
t19 22.5h74q0 -26 -16.5 -50.5t-47 -40.5t-70.5 -16q-39 0 -69.5 16z" />
    <glyph glyph-name="uni1EB8" unicode="&#x1eb8;" horiz-adv-x="547" 
d="M60 686h437v-114h-309v-164h265v-114h-265v-180h315v-114h-443v686zM229 -67h127v-115h-127v115z" />
    <glyph glyph-name="uni1EB9" unicode="&#x1eb9;" 
d="M82.5 55.5q-51.5 67.5 -51.5 207.5q0 275 202 275q96 0 143 -67t47 -208v-30h-267q1 -74 19.5 -110.5t61.5 -36.5q31 0 49 26.5t18 73.5h119q0 -98 -51 -148t-135 -50q-103 0 -154.5 67.5zM297 320q0 120 -64 120q-37 0 -55 -30.5t-21 -89.5h140zM169 -67h117v-115h-117
v115z" />
    <glyph glyph-name="uni1EBA" unicode="&#x1eba;" horiz-adv-x="547" 
d="M60 686h437v-114h-309v-164h265v-114h-265v-180h315v-114h-443v686zM246 797h14q17 0 24 4.5t7 14.5q0 11 -8.5 15t-25.5 4h-48v42q32 8 69 8q39 0 68.5 -13.5t29.5 -47.5q0 -27 -18.5 -41t-47.5 -16v-21h-64v51z" />
    <glyph glyph-name="uni1EBB" unicode="&#x1ebb;" 
d="M82.5 55.5q-51.5 67.5 -51.5 207.5q0 275 202 275q96 0 143 -67t47 -208v-30h-267q1 -74 19.5 -110.5t61.5 -36.5q31 0 49 26.5t18 73.5h119q0 -98 -51 -148t-135 -50q-103 0 -154.5 67.5zM297 320q0 120 -64 120q-37 0 -55 -30.5t-21 -89.5h140zM195 637h14q17 0 24 4.5
t7 14.5q0 11 -8.5 15t-25.5 4h-48v42q32 8 69 8q39 0 68.5 -13.5t29.5 -47.5q0 -27 -18.5 -41t-47.5 -16v-21h-64v51z" />
    <glyph glyph-name="uni1EBC" unicode="&#x1ebc;" horiz-adv-x="547" 
d="M60 686h437v-114h-309v-164h265v-114h-265v-180h315v-114h-443v686zM149.5 823.5q22.5 33.5 66.5 33.5q14 0 26.5 -4t35.5 -13q19 -8 32 -12t26 -4q31 0 36 33h59q0 -43 -22.5 -76.5t-66.5 -33.5q-14 0 -26.5 4t-35.5 13q-19 8 -32 12t-26 4q-31 0 -36 -33h-59
q0 43 22.5 76.5z" />
    <glyph glyph-name="uni1EBD" unicode="&#x1ebd;" 
d="M82.5 55.5q-51.5 67.5 -51.5 207.5q0 275 202 275q96 0 143 -67t47 -208v-30h-267q1 -74 19.5 -110.5t61.5 -36.5q31 0 49 26.5t18 73.5h119q0 -98 -51 -148t-135 -50q-103 0 -154.5 67.5zM297 320q0 120 -64 120q-37 0 -55 -30.5t-21 -89.5h140zM85 686q25 37 73 37
q16 0 30 -4.5t39 -14.5q21 -9 35 -13.5t29 -4.5q17 0 26.5 8.5t12.5 28.5h66q0 -48 -25 -85t-74 -37q-16 0 -29.5 4.5t-38.5 14.5q-21 9 -35 13.5t-29 4.5q-34 0 -39 -37h-66q0 48 25 85z" />
    <glyph glyph-name="uni1EBE" unicode="&#x1ebe;" horiz-adv-x="547" 
d="M60 686h437v-114h-309v-164h265v-114h-265v-180h315v-114h-443v686zM230 853h98l85 -105h-90l-44 39l-45 -39h-90zM271 993h130l1 -3l-88 -99h-109z" />
    <glyph glyph-name="uni1EBF" unicode="&#x1ebf;" 
d="M82.5 55.5q-51.5 67.5 -51.5 207.5q0 275 202 275q96 0 143 -67t47 -208v-30h-267q1 -74 19.5 -110.5t61.5 -36.5q31 0 49 26.5t18 73.5h119q0 -98 -51 -148t-135 -50q-103 0 -154.5 67.5zM297 320q0 120 -64 120q-37 0 -55 -30.5t-21 -89.5h140zM179 723h98l85 -135h-90
l-44 69l-45 -69h-90zM245 890h120l1 -3l-108 -129h-99z" />
    <glyph glyph-name="uni1EC0" unicode="&#x1ec0;" horiz-adv-x="547" 
d="M60 686h437v-114h-309v-164h265v-114h-265v-180h315v-114h-443v686zM230 853h98l85 -105h-90l-44 39l-45 -39h-90zM141 990l1 3h120l86 -102h-99z" />
    <glyph glyph-name="uni1EC1" unicode="&#x1ec1;" 
d="M82.5 55.5q-51.5 67.5 -51.5 207.5q0 275 202 275q96 0 143 -67t47 -208v-30h-267q1 -74 19.5 -110.5t61.5 -36.5q31 0 49 26.5t18 73.5h119q0 -98 -51 -148t-135 -50q-103 0 -154.5 67.5zM297 320q0 120 -64 120q-37 0 -55 -30.5t-21 -89.5h140zM179 723h98l85 -135h-90
l-44 69l-45 -69h-90zM90 887l1 3h120l86 -132h-99z" />
    <glyph glyph-name="uni1EC2" unicode="&#x1ec2;" horiz-adv-x="547" 
d="M60 686h437v-114h-309v-164h265v-114h-265v-180h315v-114h-443v686zM230 853h98l85 -105h-90l-44 39l-45 -39h-90zM246 937h14q17 0 24 4.5t7 14.5q0 11 -8.5 15t-25.5 4h-48v42q32 8 69 8q39 0 68.5 -13.5t29.5 -47.5q0 -27 -18.5 -41t-47.5 -16v-21h-64v51z" />
    <glyph glyph-name="uni1EC3" unicode="&#x1ec3;" 
d="M82.5 55.5q-51.5 67.5 -51.5 207.5q0 275 202 275q96 0 143 -67t47 -208v-30h-267q1 -74 19.5 -110.5t61.5 -36.5q31 0 49 26.5t18 73.5h119q0 -98 -51 -148t-135 -50q-103 0 -154.5 67.5zM297 320q0 120 -64 120q-37 0 -55 -30.5t-21 -89.5h140zM179 723h98l85 -135h-90
l-44 69l-45 -69h-90zM195 804h14q17 0 24 4.5t7 14.5q0 11 -8.5 15t-25.5 4h-48v42q32 8 69 8q39 0 68.5 -13.5t29.5 -47.5q0 -27 -18.5 -41t-47.5 -16v-21h-64v51z" />
    <glyph glyph-name="uni1EC4" unicode="&#x1ec4;" horiz-adv-x="547" 
d="M60 686h437v-114h-309v-164h265v-114h-265v-180h315v-114h-443v686zM230 853h98l85 -105h-90l-44 39l-45 -39h-90zM149.5 963.5q22.5 33.5 66.5 33.5q14 0 26.5 -4t35.5 -13q19 -8 32 -12t26 -4q31 0 36 33h59q0 -43 -22.5 -76.5t-66.5 -33.5q-14 0 -26.5 4t-35.5 13
q-19 8 -32 12t-26 4q-31 0 -36 -33h-59q0 43 22.5 76.5z" />
    <glyph glyph-name="uni1EC5" unicode="&#x1ec5;" 
d="M82.5 55.5q-51.5 67.5 -51.5 207.5q0 275 202 275q96 0 143 -67t47 -208v-30h-267q1 -74 19.5 -110.5t61.5 -36.5q31 0 49 26.5t18 73.5h119q0 -98 -51 -148t-135 -50q-103 0 -154.5 67.5zM297 320q0 120 -64 120q-37 0 -55 -30.5t-21 -89.5h140zM179 723h98l85 -135h-90
l-44 69l-45 -69h-90zM85 853q25 37 73 37q16 0 30 -4.5t39 -14.5q21 -9 35 -13.5t29 -4.5q17 0 26.5 8.5t12.5 28.5h66q0 -48 -25 -85t-74 -37q-16 0 -29.5 4.5t-38.5 14.5q-21 9 -35 13.5t-29 4.5q-34 0 -39 -37h-66q0 48 25 85z" />
    <glyph glyph-name="uni1EC6" unicode="&#x1ec6;" horiz-adv-x="547" 
d="M60 686h437v-114h-309v-164h265v-114h-265v-180h315v-114h-443v686zM229 -67h127v-115h-127v115zM230 853h98l85 -105h-90l-44 39l-45 -39h-90z" />
    <glyph glyph-name="uni1EC7" unicode="&#x1ec7;" 
d="M82.5 55.5q-51.5 67.5 -51.5 207.5q0 275 202 275q96 0 143 -67t47 -208v-30h-267q1 -74 19.5 -110.5t61.5 -36.5q31 0 49 26.5t18 73.5h119q0 -98 -51 -148t-135 -50q-103 0 -154.5 67.5zM297 320q0 120 -64 120q-37 0 -55 -30.5t-21 -89.5h140zM169 -67h117v-115h-117
v115zM179 723h98l85 -135h-90l-44 69l-45 -69h-90z" />
    <glyph glyph-name="uni1EC8" unicode="&#x1ec8;" horiz-adv-x="228" 
d="M50 686h128v-686h-128v686zM81 797h14q17 0 24 4.5t7 14.5q0 11 -8.5 15t-25.5 4h-48v42q32 8 69 8q39 0 68.5 -13.5t29.5 -47.5q0 -27 -18.5 -41t-47.5 -16v-21h-64v51z" />
    <glyph glyph-name="uni1EC9" unicode="&#x1ec9;" horiz-adv-x="228" 
d="M54 526h120v-526h-120v526zM81 637h14q17 0 24 4.5t7 14.5q0 11 -8.5 15t-25.5 4h-48v42q32 8 69 8q39 0 68.5 -13.5t29.5 -47.5q0 -27 -18.5 -41t-47.5 -16v-21h-64v51z" />
    <glyph glyph-name="uni1ECA" unicode="&#x1eca;" horiz-adv-x="228" 
d="M50 686h128v-686h-128v686zM50 -67h127v-115h-127v115z" />
    <glyph glyph-name="uni1ECB" unicode="&#x1ecb;" horiz-adv-x="228" 
d="M54 526h120v-526h-120v526zM53 723h121v-115h-121v115zM55 -67h117v-115h-117v115z" />
    <glyph glyph-name="uni1ECC" unicode="&#x1ecc;" horiz-adv-x="638" 
d="M108.5 76.5q-74.5 88.5 -74.5 266.5t74.5 266.5t210.5 88.5t210.5 -88.5t74.5 -266.5t-74.5 -266.5t-210.5 -88.5t-210.5 88.5zM433 155.5q39 57.5 39 162.5v50q0 105 -39 162.5t-114 57.5t-114 -57.5t-39 -162.5v-50q0 -105 39 -162.5t114 -57.5t114 57.5zM255 -67h127
v-115h-127v115z" />
    <glyph glyph-name="uni1ECD" unicode="&#x1ecd;" horiz-adv-x="501" 
d="M93 55q-52 67 -52 208t52 208t158 67t158 -67t52 -208t-52 -208t-158 -67t-158 67zM316 127.5q20 38.5 20 116.5v38q0 78 -20 116.5t-65 38.5t-65 -38.5t-20 -116.5v-38q0 -78 20 -116.5t65 -38.5t65 38.5zM192 -67h117v-115h-117v115z" />
    <glyph glyph-name="uni1ECE" unicode="&#x1ece;" horiz-adv-x="638" 
d="M108.5 76.5q-74.5 88.5 -74.5 266.5t74.5 266.5t210.5 88.5t210.5 -88.5t74.5 -266.5t-74.5 -266.5t-210.5 -88.5t-210.5 88.5zM433 155.5q39 57.5 39 162.5v50q0 105 -39 162.5t-114 57.5t-114 -57.5t-39 -162.5v-50q0 -105 39 -162.5t114 -57.5t114 57.5zM286 797h14
q17 0 24 4.5t7 14.5q0 11 -8.5 15t-25.5 4h-48v42q32 8 69 8q39 0 68.5 -13.5t29.5 -47.5q0 -27 -18.5 -41t-47.5 -16v-21h-64v51z" />
    <glyph glyph-name="uni1ECF" unicode="&#x1ecf;" horiz-adv-x="501" 
d="M93 55q-52 67 -52 208t52 208t158 67t158 -67t52 -208t-52 -208t-158 -67t-158 67zM316 127.5q20 38.5 20 116.5v38q0 78 -20 116.5t-65 38.5t-65 -38.5t-20 -116.5v-38q0 -78 20 -116.5t65 -38.5t65 38.5zM217 637h14q17 0 24 4.5t7 14.5q0 11 -8.5 15t-25.5 4h-48v42
q32 8 69 8q39 0 68.5 -13.5t29.5 -47.5q0 -27 -18.5 -41t-47.5 -16v-21h-64v51z" />
    <glyph glyph-name="uni1ED0" unicode="&#x1ed0;" horiz-adv-x="638" 
d="M108.5 76.5q-74.5 88.5 -74.5 266.5t74.5 266.5t210.5 88.5t210.5 -88.5t74.5 -266.5t-74.5 -266.5t-210.5 -88.5t-210.5 88.5zM433 155.5q39 57.5 39 162.5v50q0 105 -39 162.5t-114 57.5t-114 -57.5t-39 -162.5v-50q0 -105 39 -162.5t114 -57.5t114 57.5zM270 853h98
l85 -105h-90l-44 39l-45 -39h-90zM311 993h130l1 -3l-88 -99h-109z" />
    <glyph glyph-name="uni1ED1" unicode="&#x1ed1;" horiz-adv-x="501" 
d="M93 55q-52 67 -52 208t52 208t158 67t158 -67t52 -208t-52 -208t-158 -67t-158 67zM316 127.5q20 38.5 20 116.5v38q0 78 -20 116.5t-65 38.5t-65 -38.5t-20 -116.5v-38q0 -78 20 -116.5t65 -38.5t65 38.5zM201 723h98l85 -135h-90l-44 69l-45 -69h-90zM267 890h120l1 -3
l-108 -129h-99z" />
    <glyph glyph-name="uni1ED2" unicode="&#x1ed2;" horiz-adv-x="638" 
d="M108.5 76.5q-74.5 88.5 -74.5 266.5t74.5 266.5t210.5 88.5t210.5 -88.5t74.5 -266.5t-74.5 -266.5t-210.5 -88.5t-210.5 88.5zM433 155.5q39 57.5 39 162.5v50q0 105 -39 162.5t-114 57.5t-114 -57.5t-39 -162.5v-50q0 -105 39 -162.5t114 -57.5t114 57.5zM270 853h98
l85 -105h-90l-44 39l-45 -39h-90zM181 990l1 3h120l86 -102h-99z" />
    <glyph glyph-name="uni1ED3" unicode="&#x1ed3;" horiz-adv-x="501" 
d="M93 55q-52 67 -52 208t52 208t158 67t158 -67t52 -208t-52 -208t-158 -67t-158 67zM316 127.5q20 38.5 20 116.5v38q0 78 -20 116.5t-65 38.5t-65 -38.5t-20 -116.5v-38q0 -78 20 -116.5t65 -38.5t65 38.5zM201 723h98l85 -135h-90l-44 69l-45 -69h-90zM112 887l1 3h120
l86 -132h-99z" />
    <glyph glyph-name="uni1ED4" unicode="&#x1ed4;" horiz-adv-x="638" 
d="M108.5 76.5q-74.5 88.5 -74.5 266.5t74.5 266.5t210.5 88.5t210.5 -88.5t74.5 -266.5t-74.5 -266.5t-210.5 -88.5t-210.5 88.5zM433 155.5q39 57.5 39 162.5v50q0 105 -39 162.5t-114 57.5t-114 -57.5t-39 -162.5v-50q0 -105 39 -162.5t114 -57.5t114 57.5zM270 853h98
l85 -105h-90l-44 39l-45 -39h-90zM286 937h14q17 0 24 4.5t7 14.5q0 11 -8.5 15t-25.5 4h-48v42q32 8 69 8q39 0 68.5 -13.5t29.5 -47.5q0 -27 -18.5 -41t-47.5 -16v-21h-64v51z" />
    <glyph glyph-name="uni1ED5" unicode="&#x1ed5;" horiz-adv-x="501" 
d="M93 55q-52 67 -52 208t52 208t158 67t158 -67t52 -208t-52 -208t-158 -67t-158 67zM316 127.5q20 38.5 20 116.5v38q0 78 -20 116.5t-65 38.5t-65 -38.5t-20 -116.5v-38q0 -78 20 -116.5t65 -38.5t65 38.5zM201 723h98l85 -135h-90l-44 69l-45 -69h-90zM217 804h14
q17 0 24 4.5t7 14.5q0 11 -8.5 15t-25.5 4h-48v42q32 8 69 8q39 0 68.5 -13.5t29.5 -47.5q0 -27 -18.5 -41t-47.5 -16v-21h-64v51z" />
    <glyph glyph-name="uni1ED6" unicode="&#x1ed6;" horiz-adv-x="638" 
d="M108.5 76.5q-74.5 88.5 -74.5 266.5t74.5 266.5t210.5 88.5t210.5 -88.5t74.5 -266.5t-74.5 -266.5t-210.5 -88.5t-210.5 88.5zM433 155.5q39 57.5 39 162.5v50q0 105 -39 162.5t-114 57.5t-114 -57.5t-39 -162.5v-50q0 -105 39 -162.5t114 -57.5t114 57.5zM270 853h98
l85 -105h-90l-44 39l-45 -39h-90zM189.5 963.5q22.5 33.5 66.5 33.5q14 0 26.5 -4t35.5 -13q19 -8 32 -12t26 -4q31 0 36 33h59q0 -43 -22.5 -76.5t-66.5 -33.5q-14 0 -26.5 4t-35.5 13q-19 8 -32 12t-26 4q-31 0 -36 -33h-59q0 43 22.5 76.5z" />
    <glyph glyph-name="uni1ED7" unicode="&#x1ed7;" horiz-adv-x="501" 
d="M93 55q-52 67 -52 208t52 208t158 67t158 -67t52 -208t-52 -208t-158 -67t-158 67zM316 127.5q20 38.5 20 116.5v38q0 78 -20 116.5t-65 38.5t-65 -38.5t-20 -116.5v-38q0 -78 20 -116.5t65 -38.5t65 38.5zM201 723h98l85 -135h-90l-44 69l-45 -69h-90zM107 853
q25 37 73 37q16 0 30 -4.5t39 -14.5q21 -9 35 -13.5t29 -4.5q17 0 26.5 8.5t12.5 28.5h66q0 -48 -25 -85t-74 -37q-16 0 -29.5 4.5t-38.5 14.5q-21 9 -35 13.5t-29 4.5q-34 0 -39 -37h-66q0 48 25 85z" />
    <glyph glyph-name="uni1ED8" unicode="&#x1ed8;" horiz-adv-x="638" 
d="M108.5 76.5q-74.5 88.5 -74.5 266.5t74.5 266.5t210.5 88.5t210.5 -88.5t74.5 -266.5t-74.5 -266.5t-210.5 -88.5t-210.5 88.5zM433 155.5q39 57.5 39 162.5v50q0 105 -39 162.5t-114 57.5t-114 -57.5t-39 -162.5v-50q0 -105 39 -162.5t114 -57.5t114 57.5zM270 853h98
l85 -105h-90l-44 39l-45 -39h-90zM255 -67h127v-115h-127v115z" />
    <glyph glyph-name="uni1ED9" unicode="&#x1ed9;" horiz-adv-x="501" 
d="M93 55q-52 67 -52 208t52 208t158 67t158 -67t52 -208t-52 -208t-158 -67t-158 67zM316 127.5q20 38.5 20 116.5v38q0 78 -20 116.5t-65 38.5t-65 -38.5t-20 -116.5v-38q0 -78 20 -116.5t65 -38.5t65 38.5zM192 -67h117v-115h-117v115zM201 723h98l85 -135h-90l-44 69
l-45 -69h-90z" />
    <glyph glyph-name="uni1EDA" unicode="&#x1eda;" horiz-adv-x="638" 
d="M592 659.5q-26 -31.5 -71 -40.5q83 -91 83 -276q0 -178 -74.5 -266.5t-210.5 -88.5t-210.5 88.5t-74.5 266.5t74.5 266.5t210.5 88.5q50 0 92 -12h57q27 0 38.5 12.5t11.5 40.5v81h100v-81q0 -48 -26 -79.5zM472 368q0 105 -39 162.5t-114 57.5t-114 -57.5t-39 -162.5
v-50q0 -105 39 -162.5t114 -57.5t114 57.5t39 162.5v50zM311 853h130l1 -3l-88 -99h-109z" />
    <glyph glyph-name="uni1EDB" unicode="&#x1edb;" horiz-adv-x="501" 
d="M461 513.5q-20 -27.5 -55 -39.5q55 -67 55 -211q0 -141 -52 -208t-158 -67t-158 67t-52 208t52 208t158 67q46 0 80 -12q35 0 50 12.5t15 40.5v61h85v-61q0 -38 -20 -65.5zM336 282q0 78 -20 116.5t-65 38.5t-65 -38.5t-20 -116.5v-38q0 -78 20 -116.5t65 -38.5t65 38.5
t20 116.5v38zM267 723h120l1 -3l-108 -129h-99z" />
    <glyph glyph-name="uni1EDC" unicode="&#x1edc;" horiz-adv-x="638" 
d="M592 659.5q-26 -31.5 -71 -40.5q83 -91 83 -276q0 -178 -74.5 -266.5t-210.5 -88.5t-210.5 88.5t-74.5 266.5t74.5 266.5t210.5 88.5q50 0 92 -12h57q27 0 38.5 12.5t11.5 40.5v81h100v-81q0 -48 -26 -79.5zM472 368q0 105 -39 162.5t-114 57.5t-114 -57.5t-39 -162.5
v-50q0 -105 39 -162.5t114 -57.5t114 57.5t39 162.5v50zM181 850l1 3h120l86 -102h-99z" />
    <glyph glyph-name="uni1EDD" unicode="&#x1edd;" horiz-adv-x="501" 
d="M461 513.5q-20 -27.5 -55 -39.5q55 -67 55 -211q0 -141 -52 -208t-158 -67t-158 67t-52 208t52 208t158 67q46 0 80 -12q35 0 50 12.5t15 40.5v61h85v-61q0 -38 -20 -65.5zM336 282q0 78 -20 116.5t-65 38.5t-65 -38.5t-20 -116.5v-38q0 -78 20 -116.5t65 -38.5t65 38.5
t20 116.5v38zM112 720l1 3h120l86 -132h-99z" />
    <glyph glyph-name="uni1EDE" unicode="&#x1ede;" horiz-adv-x="638" 
d="M592 659.5q-26 -31.5 -71 -40.5q83 -91 83 -276q0 -178 -74.5 -266.5t-210.5 -88.5t-210.5 88.5t-74.5 266.5t74.5 266.5t210.5 88.5q50 0 92 -12h57q27 0 38.5 12.5t11.5 40.5v81h100v-81q0 -48 -26 -79.5zM472 368q0 105 -39 162.5t-114 57.5t-114 -57.5t-39 -162.5
v-50q0 -105 39 -162.5t114 -57.5t114 57.5t39 162.5v50zM286 797h14q17 0 24 4.5t7 14.5q0 11 -8.5 15t-25.5 4h-48v42q32 8 69 8q39 0 68.5 -13.5t29.5 -47.5q0 -27 -18.5 -41t-47.5 -16v-21h-64v51z" />
    <glyph glyph-name="uni1EDF" unicode="&#x1edf;" horiz-adv-x="501" 
d="M461 513.5q-20 -27.5 -55 -39.5q55 -67 55 -211q0 -141 -52 -208t-158 -67t-158 67t-52 208t52 208t158 67q46 0 80 -12q35 0 50 12.5t15 40.5v61h85v-61q0 -38 -20 -65.5zM336 282q0 78 -20 116.5t-65 38.5t-65 -38.5t-20 -116.5v-38q0 -78 20 -116.5t65 -38.5t65 38.5
t20 116.5v38zM217 637h14q17 0 24 4.5t7 14.5q0 11 -8.5 15t-25.5 4h-48v42q32 8 69 8q39 0 68.5 -13.5t29.5 -47.5q0 -27 -18.5 -41t-47.5 -16v-21h-64v51z" />
    <glyph glyph-name="uni1EE0" unicode="&#x1ee0;" horiz-adv-x="638" 
d="M592 659.5q-26 -31.5 -71 -40.5q83 -91 83 -276q0 -178 -74.5 -266.5t-210.5 -88.5t-210.5 88.5t-74.5 266.5t74.5 266.5t210.5 88.5q50 0 92 -12h57q27 0 38.5 12.5t11.5 40.5v81h100v-81q0 -48 -26 -79.5zM472 368q0 105 -39 162.5t-114 57.5t-114 -57.5t-39 -162.5
v-50q0 -105 39 -162.5t114 -57.5t114 57.5t39 162.5v50zM189.5 823.5q22.5 33.5 66.5 33.5q14 0 26.5 -4t35.5 -13q19 -8 32 -12t26 -4q31 0 36 33h59q0 -43 -22.5 -76.5t-66.5 -33.5q-14 0 -26.5 4t-35.5 13q-19 8 -32 12t-26 4q-31 0 -36 -33h-59q0 43 22.5 76.5z" />
    <glyph glyph-name="uni1EE1" unicode="&#x1ee1;" horiz-adv-x="501" 
d="M158 601h-59q0 48 22.5 85t65.5 37q14 0 26.5 -4.5t35.5 -14.5q19 -9 32 -13.5t26 -4.5q15 0 23.5 8.5t11.5 28.5h59q0 -48 -22.5 -85t-66.5 -37q-15 0 -28 4.5t-33 14.5q-20 9 -32 13.5t-25 4.5q-31 0 -36 -37zM461 513.5q-20 -27.5 -55 -39.5q55 -67 55 -211
q0 -141 -52 -208t-158 -67t-158 67t-52 208t52 208t158 67q46 0 80 -12q35 0 50 12.5t15 40.5v61h85v-61q0 -38 -20 -65.5zM336 282q0 78 -20 116.5t-65 38.5t-65 -38.5t-20 -116.5v-38q0 -78 20 -116.5t65 -38.5t65 38.5t20 116.5v38z" />
    <glyph glyph-name="uni1EE2" unicode="&#x1ee2;" horiz-adv-x="638" 
d="M592 659.5q-26 -31.5 -71 -40.5q83 -91 83 -276q0 -178 -74.5 -266.5t-210.5 -88.5t-210.5 88.5t-74.5 266.5t74.5 266.5t210.5 88.5q50 0 92 -12h57q27 0 38.5 12.5t11.5 40.5v81h100v-81q0 -48 -26 -79.5zM472 368q0 105 -39 162.5t-114 57.5t-114 -57.5t-39 -162.5
v-50q0 -105 39 -162.5t114 -57.5t114 57.5t39 162.5v50zM255 -67h127v-115h-127v115z" />
    <glyph glyph-name="uni1EE3" unicode="&#x1ee3;" horiz-adv-x="501" 
d="M461 513.5q-20 -27.5 -55 -39.5q55 -67 55 -211q0 -141 -52 -208t-158 -67t-158 67t-52 208t52 208t158 67q46 0 80 -12q35 0 50 12.5t15 40.5v61h85v-61q0 -38 -20 -65.5zM336 282q0 78 -20 116.5t-65 38.5t-65 -38.5t-20 -116.5v-38q0 -78 20 -116.5t65 -38.5t65 38.5
t20 116.5v38zM192 -67h117v-115h-117v115z" />
    <glyph glyph-name="uni1EE4" unicode="&#x1ee4;" horiz-adv-x="592" 
d="M122.5 46.5q-61.5 58.5 -61.5 168.5v471h128v-467q0 -59 28 -90t79 -31t79.5 31t28.5 90v467h128v-471q0 -110 -62 -168.5t-174 -58.5t-173.5 58.5zM237 -67h117v-115h-117v115z" />
    <glyph glyph-name="uni1EE5" unicode="&#x1ee5;" horiz-adv-x="501" 
d="M92.5 28.5q-37.5 40.5 -37.5 128.5v369h120v-336q0 -50 17 -71.5t52 -21.5t58.5 29.5t23.5 73.5v326h120v-526h-100l-12 65h-6q-23 -34 -56 -55.5t-77 -21.5q-65 0 -102.5 40.5zM192 -67h117v-115h-117v115z" />
    <glyph glyph-name="uni1EE6" unicode="&#x1ee6;" horiz-adv-x="592" 
d="M122.5 46.5q-61.5 58.5 -61.5 168.5v471h128v-467q0 -59 28 -90t79 -31t79.5 31t28.5 90v467h128v-471q0 -110 -62 -168.5t-174 -58.5t-173.5 58.5zM263 797h14q17 0 24 4.5t7 14.5q0 11 -8.5 15t-25.5 4h-48v42q32 8 69 8q39 0 68.5 -13.5t29.5 -47.5q0 -27 -18.5 -41
t-47.5 -16v-21h-64v51z" />
    <glyph glyph-name="uni1EE7" unicode="&#x1ee7;" horiz-adv-x="501" 
d="M92.5 28.5q-37.5 40.5 -37.5 128.5v369h120v-336q0 -50 17 -71.5t52 -21.5t58.5 29.5t23.5 73.5v326h120v-526h-100l-12 65h-6q-23 -34 -56 -55.5t-77 -21.5q-65 0 -102.5 40.5zM217 637h14q17 0 24 4.5t7 14.5q0 11 -8.5 15t-25.5 4h-48v42q32 8 69 8q39 0 68.5 -13.5
t29.5 -47.5q0 -27 -18.5 -41t-47.5 -16v-21h-64v51z" />
    <glyph glyph-name="uni1EE8" unicode="&#x1ee8;" horiz-adv-x="592" 
d="M632 820v-81q0 -49 -26.5 -80.5t-73.5 -39.5v-404q0 -110 -62 -168.5t-174 -58.5t-173.5 58.5t-61.5 168.5v471h128v-467q0 -59 28 -90t79 -31t79.5 31t28.5 90v467h78q27 0 38.5 12.5t11.5 40.5v81h100zM288 853h130l1 -3l-88 -99h-109z" />
    <glyph glyph-name="uni1EE9" unicode="&#x1ee9;" horiz-adv-x="501" 
d="M546 640v-61q0 -45 -26.5 -74t-73.5 -37v-468h-100l-12 65h-6q-23 -34 -56 -55.5t-77 -21.5q-65 0 -102.5 40.5t-37.5 128.5v369h120v-336q0 -50 17 -71.5t52 -21.5t58.5 29.5t23.5 73.5v326h70q35 0 50 12.5t15 40.5v61h85zM267 723h120l1 -3l-108 -129h-99z" />
    <glyph glyph-name="uni1EEA" unicode="&#x1eea;" horiz-adv-x="592" 
d="M632 820v-81q0 -49 -26.5 -80.5t-73.5 -39.5v-404q0 -110 -62 -168.5t-174 -58.5t-173.5 58.5t-61.5 168.5v471h128v-467q0 -59 28 -90t79 -31t79.5 31t28.5 90v467h78q27 0 38.5 12.5t11.5 40.5v81h100zM158 850l1 3h120l86 -102h-99z" />
    <glyph glyph-name="uni1EEB" unicode="&#x1eeb;" horiz-adv-x="501" 
d="M546 640v-61q0 -45 -26.5 -74t-73.5 -37v-468h-100l-12 65h-6q-23 -34 -56 -55.5t-77 -21.5q-65 0 -102.5 40.5t-37.5 128.5v369h120v-336q0 -50 17 -71.5t52 -21.5t58.5 29.5t23.5 73.5v326h70q35 0 50 12.5t15 40.5v61h85zM112 720l1 3h120l86 -132h-99z" />
    <glyph glyph-name="uni1EEC" unicode="&#x1eec;" horiz-adv-x="592" 
d="M632 820v-81q0 -49 -26.5 -80.5t-73.5 -39.5v-404q0 -110 -62 -168.5t-174 -58.5t-173.5 58.5t-61.5 168.5v471h128v-467q0 -59 28 -90t79 -31t79.5 31t28.5 90v467h78q27 0 38.5 12.5t11.5 40.5v81h100zM263 797h14q17 0 24 4.5t7 14.5q0 11 -8.5 15t-25.5 4h-48v42
q32 8 69 8q39 0 68.5 -13.5t29.5 -47.5q0 -27 -18.5 -41t-47.5 -16v-21h-64v51z" />
    <glyph glyph-name="uni1EED" unicode="&#x1eed;" horiz-adv-x="501" 
d="M546 640v-61q0 -45 -26.5 -74t-73.5 -37v-468h-100l-12 65h-6q-23 -34 -56 -55.5t-77 -21.5q-65 0 -102.5 40.5t-37.5 128.5v369h120v-336q0 -50 17 -71.5t52 -21.5t58.5 29.5t23.5 73.5v326h70q35 0 50 12.5t15 40.5v61h85zM217 637h14q17 0 24 4.5t7 14.5q0 11 -8.5 15
t-25.5 4h-48v42q32 8 69 8q39 0 68.5 -13.5t29.5 -47.5q0 -27 -18.5 -41t-47.5 -16v-21h-64v51z" />
    <glyph glyph-name="uni1EEE" unicode="&#x1eee;" horiz-adv-x="592" 
d="M632 820v-81q0 -49 -26.5 -80.5t-73.5 -39.5v-404q0 -110 -62 -168.5t-174 -58.5t-173.5 58.5t-61.5 168.5v471h128v-467q0 -59 28 -90t79 -31t79.5 31t28.5 90v467h78q27 0 38.5 12.5t11.5 40.5v81h100zM166.5 823.5q22.5 33.5 66.5 33.5q14 0 26.5 -4t35.5 -13
q19 -8 32 -12t26 -4q31 0 36 33h59q0 -43 -22.5 -76.5t-66.5 -33.5q-14 0 -26.5 4t-35.5 13q-19 8 -32 12t-26 4q-31 0 -36 -33h-59q0 43 22.5 76.5z" />
    <glyph glyph-name="uni1EEF" unicode="&#x1eef;" horiz-adv-x="501" 
d="M546 640v-61q0 -45 -26.5 -74t-73.5 -37v-468h-100l-12 65h-6q-23 -34 -56 -55.5t-77 -21.5q-65 0 -102.5 40.5t-37.5 128.5v369h120v-336q0 -50 17 -71.5t52 -21.5t58.5 29.5t23.5 73.5v326h70q35 0 50 12.5t15 40.5v61h85zM107 686q25 37 73 37q16 0 30 -4.5t39 -14.5
q21 -9 35 -13.5t29 -4.5q17 0 26.5 8.5t12.5 28.5h66q0 -48 -25 -85t-74 -37q-16 0 -29.5 4.5t-38.5 14.5q-21 9 -35 13.5t-29 4.5q-34 0 -39 -37h-66q0 48 25 85z" />
    <glyph glyph-name="uni1EF0" unicode="&#x1ef0;" horiz-adv-x="592" 
d="M632 820v-81q0 -49 -26.5 -80.5t-73.5 -39.5v-404q0 -110 -62 -168.5t-174 -58.5t-173.5 58.5t-61.5 168.5v471h128v-467q0 -59 28 -90t79 -31t79.5 31t28.5 90v467h78q27 0 38.5 12.5t11.5 40.5v81h100zM237 -67h117v-115h-117v115z" />
    <glyph glyph-name="uni1EF1" unicode="&#x1ef1;" horiz-adv-x="501" 
d="M546 640v-61q0 -45 -26.5 -74t-73.5 -37v-468h-100l-12 65h-6q-23 -34 -56 -55.5t-77 -21.5q-65 0 -102.5 40.5t-37.5 128.5v369h120v-336q0 -50 17 -71.5t52 -21.5t58.5 29.5t23.5 73.5v326h70q35 0 50 12.5t15 40.5v61h85zM192 -67h117v-115h-117v115z" />
    <glyph glyph-name="Ygrave" unicode="&#x1ef2;" horiz-adv-x="547" 
d="M210 259l-210 427h135l140 -301h4l139 301h129l-209 -427v-259h-128v259zM135 850l1 3h120l86 -102h-99z" />
    <glyph glyph-name="ygrave" unicode="&#x1ef3;" 
d="M67.5 -178.5q-23.5 3.5 -23.5 5.5v92h54q27 0 49 20t32 61l-175 526h127l79 -247q12 -38 28 -137h4q14 93 25 136l65 248h120l-144 -499q-28 -97 -72 -153t-114 -56q-31 0 -54.5 3.5zM90 720l1 3h120l86 -132h-99z" />
    <glyph glyph-name="uni1EF4" unicode="&#x1ef4;" horiz-adv-x="547" 
d="M210 259l-210 427h135l140 -301h4l139 301h129l-209 -427v-259h-128v259zM210 -67h127v-115h-127v115z" />
    <glyph glyph-name="uni1EF5" unicode="&#x1ef5;" 
d="M67.5 -178.5q-23.5 3.5 -23.5 5.5v92h54q27 0 49 20t32 61l-175 526h127l79 -247q12 -38 28 -137h4q14 93 25 136l65 248h120l-144 -499q-28 -97 -72 -153t-114 -56q-31 0 -54.5 3.5zM321 -67h117v-115h-117v115z" />
    <glyph glyph-name="uni1EF6" unicode="&#x1ef6;" horiz-adv-x="547" 
d="M210 259l-210 427h135l140 -301h4l139 301h129l-209 -427v-259h-128v259zM240 797h14q17 0 24 4.5t7 14.5q0 11 -8.5 15t-25.5 4h-48v42q32 8 69 8q39 0 68.5 -13.5t29.5 -47.5q0 -27 -18.5 -41t-47.5 -16v-21h-64v51z" />
    <glyph glyph-name="uni1EF7" unicode="&#x1ef7;" 
d="M67.5 -178.5q-23.5 3.5 -23.5 5.5v92h54q27 0 49 20t32 61l-175 526h127l79 -247q12 -38 28 -137h4q14 93 25 136l65 248h120l-144 -499q-28 -97 -72 -153t-114 -56q-31 0 -54.5 3.5zM195 637h14q17 0 24 4.5t7 14.5q0 11 -8.5 15t-25.5 4h-48v42q32 8 69 8
q39 0 68.5 -13.5t29.5 -47.5q0 -27 -18.5 -41t-47.5 -16v-21h-64v51z" />
    <glyph glyph-name="uni1EF8" unicode="&#x1ef8;" horiz-adv-x="547" 
d="M210 259l-210 427h135l140 -301h4l139 301h129l-209 -427v-259h-128v259zM143.5 823.5q22.5 33.5 66.5 33.5q14 0 26.5 -4t35.5 -13q19 -8 32 -12t26 -4q31 0 36 33h59q0 -43 -22.5 -76.5t-66.5 -33.5q-14 0 -26.5 4t-35.5 13q-19 8 -32 12t-26 4q-31 0 -36 -33h-59
q0 43 22.5 76.5z" />
    <glyph glyph-name="uni1EF9" unicode="&#x1ef9;" 
d="M67.5 -178.5q-23.5 3.5 -23.5 5.5v92h54q27 0 49 20t32 61l-175 526h127l79 -247q12 -38 28 -137h4q14 93 25 136l65 248h120l-144 -499q-28 -97 -72 -153t-114 -56q-31 0 -54.5 3.5zM85 686q25 37 73 37q16 0 30 -4.5t39 -14.5q21 -9 35 -13.5t29 -4.5q17 0 26.5 8.5
t12.5 28.5h66q0 -48 -25 -85t-74 -37q-16 0 -29.5 4.5t-38.5 14.5q-21 9 -35 13.5t-29 4.5q-34 0 -39 -37h-66q0 48 25 85z" />
    <glyph glyph-name="uni2002" unicode="&#x2002;" horiz-adv-x="600" 
 />
    <glyph glyph-name="uni2003" unicode="&#x2003;" horiz-adv-x="1000" 
 />
    <glyph glyph-name="uni2004" unicode="&#x2004;" horiz-adv-x="333" 
 />
    <glyph glyph-name="uni2005" unicode="&#x2005;" horiz-adv-x="250" 
 />
    <glyph glyph-name="uni2009" unicode="&#x2009;" horiz-adv-x="128" 
 />
    <glyph glyph-name="uni2010" unicode="&#x2010;" horiz-adv-x="273" 
d="M16 329h241v-118h-241v118z" />
    <glyph glyph-name="uni2011" unicode="&#x2011;" horiz-adv-x="273" 
d="M16 329h241v-118h-241v118z" />
    <glyph glyph-name="endash" unicode="&#x2013;" 
d="M0 319h456v-98h-456v98z" />
    <glyph glyph-name="emdash" unicode="&#x2014;" horiz-adv-x="820" 
d="M0 319h820v-98h-820v98z" />
    <glyph glyph-name="uni2015" unicode="&#x2015;" horiz-adv-x="820" 
d="M100 318h620v-95h-620v95z" />
    <glyph glyph-name="underscoredbl" unicode="&#x2017;" horiz-adv-x="500" 
d="M23 -71h455v-78h-455v78zM23 -185h455v-78h-455v78z" />
    <glyph glyph-name="quoteleft" unicode="&#x2018;" horiz-adv-x="228" 
d="M45 518l66 168h72l-55 -156h55v-137h-138v125z" />
    <glyph glyph-name="quoteright" unicode="&#x2019;" horiz-adv-x="228" 
d="M100 549h-55v137h138v-125l-66 -168h-72z" />
    <glyph glyph-name="quotesinglbase" unicode="&#x201a;" horiz-adv-x="228" 
d="M100 0h-55v137h138v-125l-66 -168h-72z" />
    <glyph glyph-name="quotereversed" unicode="&#x201b;" horiz-adv-x="228" 
d="M45 561v125h138v-137h-55l55 -156h-72z" />
    <glyph glyph-name="quotedblleft" unicode="&#x201c;" horiz-adv-x="410" 
d="M44 518l66 168h72l-55 -156h55v-137h-138v125zM227 518l66 168h72l-55 -156h55v-137h-138v125z" />
    <glyph glyph-name="quotedblright" unicode="&#x201d;" horiz-adv-x="410" 
d="M100 549h-55v137h138v-125l-66 -168h-72zM283 549h-55v137h138v-125l-66 -168h-72z" />
    <glyph glyph-name="quotedblbase" unicode="&#x201e;" horiz-adv-x="410" 
d="M100 0h-55v137h138v-125l-66 -168h-72zM283 0h-55v137h138v-125l-66 -168h-72z" />
    <glyph glyph-name="dagger" unicode="&#x2020;" 
d="M190 425l-165 -18v113l165 -17l-17 183h108l-17 -183l166 17v-113l-166 18l20 -598h-114z" />
    <glyph glyph-name="daggerdbl" unicode="&#x2021;" 
d="M190 13l-165 -17v113l165 -18l-20 169l20 165l-165 -18v113l165 -17l-17 183h108l-17 -183l166 17v-113l-166 18l20 -165l-20 -169l166 18v-113l-166 17l17 -186h-108z" />
    <glyph glyph-name="bullet" unicode="&#x2022;" horiz-adv-x="287" 
d="M82.5 237q-27.5 17 -43.5 45.5t-16 61.5q0 51 35 87t85 36t85.5 -36.5t35.5 -86.5q0 -33 -16.5 -61.5t-44 -45.5t-60.5 -17t-60.5 17z" />
    <glyph glyph-name="ellipsis" unicode="&#x2026;" horiz-adv-x="820" 
d="M68 137h138v-137h-138v137zM341 137h138v-137h-138v137zM614 137h138v-137h-138v137z" />
    <glyph glyph-name="perthousand" unicode="&#x2030;" horiz-adv-x="820" 
d="M33 377.5q-31 40.5 -31 139.5q0 100 31 140.5t92 40.5t92 -40.5t31 -140.5q0 -99 -31 -139.5t-92 -40.5t-92 40.5zM351 686h70l-223 -686h-69zM152 432q7 22 7 78v15q0 56 -7 78t-27 22t-27 -22t-7 -78v-15q0 -56 7 -78t27 -22t27 22zM335 28.5q-31 40.5 -31 139.5
q0 100 31 140.5t92 40.5t92 -40.5t31 -140.5q0 -99 -31 -139.5t-92 -40.5t-92 40.5zM605 28.5q-31 40.5 -31 139.5q0 100 31 140.5t92 40.5t92 -40.5t31 -140.5q0 -99 -31 -139.5t-92 -40.5t-92 40.5zM454 83q7 22 7 78v15q0 56 -7 78t-27 22t-27 -22t-7 -78v-15
q0 -56 7 -78t27 -22t27 22zM724 83q7 22 7 78v15q0 56 -7 78t-27 22t-27 -22t-7 -78v-15q0 -56 7 -78t27 -22t27 22z" />
    <glyph glyph-name="minute" unicode="&#x2032;" horiz-adv-x="195" 
d="M48 686h110l1 -3l-47 -177h-89z" />
    <glyph glyph-name="second" unicode="&#x2033;" horiz-adv-x="389" 
d="M48 686h110l1 -3l-47 -177h-89zM199 686h110l1 -3l-47 -177h-89z" />
    <glyph glyph-name="guilsinglleft" unicode="&#x2039;" horiz-adv-x="273" 
d="M19 326l136 200h91l-108 -200l108 -200h-91z" />
    <glyph glyph-name="guilsinglright" unicode="&#x203a;" horiz-adv-x="273" 
d="M135 326l-108 200h91l136 -200l-136 -200h-91z" />
    <glyph glyph-name="exclamdbl" unicode="&#x203c;" horiz-adv-x="546" 
d="M333 686h153l-36 -489h-82zM341 137h138v-137h-138v137zM60 686h153l-36 -489h-82zM68 137h138v-137h-138v137z" />
    <glyph glyph-name="uni203E" unicode="&#x203e;" horiz-adv-x="500" 
d="M0 860h500v-69h-500v69z" />
    <glyph glyph-name="fraction" unicode="&#x2044;" horiz-adv-x="137" 
d="M243 698h66l-395 -710h-67z" />
    <glyph glyph-name="uni2052" unicode="&#x2052;" horiz-adv-x="600" 
d="M465 698h66l-395 -710h-67zM79 686h125v-135h-125v135zM396 135h125v-135h-125v135z" />
    <glyph glyph-name="uni2070" unicode="&#x2070;" horiz-adv-x="273" 
d="M48.5 468.5q-29.5 40.5 -29.5 143.5q0 104 29.5 145t88.5 41t88 -41t29 -145q0 -103 -29 -143.5t-88 -40.5t-88.5 40.5zM168 516.5q8 20.5 8 72.5v48q0 47 -8.5 70t-30.5 23q-23 0 -31.5 -23t-8.5 -70v-48q0 -52 8.5 -72.5t31.5 -20.5t31 20.5z" />
    <glyph glyph-name="uni2074" unicode="&#x2074;" horiz-adv-x="273" 
d="M152 513h-142v49q59 94 87 236h78q-14 -61 -39.5 -123t-52.5 -102h69v71q18 33 37 96h39v-167h27v-60h-27v-80h-76v80z" />
    <glyph glyph-name="uni2075" unicode="&#x2075;" horiz-adv-x="273" 
d="M55 460q-31 32 -31 87h73q0 -27 12 -43t30 -16q20 0 31.5 16.5t11.5 48.5q0 30 -12.5 44.5t-34.5 14.5q-10 0 -18 -5t-18 -16l-65 9l13 186h187v-62h-123l-5 -67q12 7 22.5 11t24.5 4q43 0 71.5 -30.5t28.5 -88.5q0 -59 -30.5 -92t-83.5 -33t-84 32z" />
    <glyph glyph-name="uni2076" unicode="&#x2076;" horiz-adv-x="273" 
d="M58 470.5q-30 42.5 -30 132.5q0 72 11.5 114.5t38 61.5t70.5 19q99 0 99 -116h-71q0 53 -34 53q-21 0 -29.5 -24.5t-9.5 -74.5q20 25 60 25q47 0 71 -32.5t24 -85.5q0 -52 -29.5 -83.5t-77.5 -31.5q-63 0 -93 42.5zM175.5 509q10.5 14 10.5 37q0 24 -11 39t-30 15
t-29.5 -14t-10.5 -37q0 -24 11 -39t31 -15q18 0 28.5 14z" />
    <glyph glyph-name="uni2077" unicode="&#x2077;" horiz-adv-x="273" 
d="M99.5 589q28.5 79 73.5 135h-138v62h213v-45q-40 -60 -67 -135.5t-27 -150.5q0 -15 1 -27h-84q0 82 28.5 161z" />
    <glyph glyph-name="uni2078" unicode="&#x2078;" horiz-adv-x="273" 
d="M53 456.5q-28 28.5 -28 73.5q0 62 50 88q-21 12 -32 33.5t-11 47.5q0 43 27.5 71t78.5 28q50 0 77.5 -28t27.5 -71q0 -26 -11.5 -47t-32.5 -34q27 -14 39.5 -37t12.5 -51q0 -45 -28.5 -73.5t-84.5 -28.5q-57 0 -85 28.5zM162.5 658q8.5 13 8.5 38q0 23 -8.5 35t-23.5 12
q-16 0 -24.5 -12t-8.5 -35q0 -25 8.5 -38t24.5 -13q15 0 23.5 13zM177 538q0 54 -38 54q-19 0 -29 -14t-10 -40q0 -25 10 -38t29 -13q38 0 38 51z" />
    <glyph glyph-name="uni2079" unicode="&#x2079;" horiz-adv-x="273" 
d="M58.5 461.5q-25.5 31.5 -25.5 84.5h74q0 -27 7.5 -40.5t24.5 -13.5q22 0 30 25t9 76q-21 -24 -58 -24q-47 0 -71.5 31.5t-24.5 83.5q0 53 30 84t78 31q58 0 88 -39.5t30 -134.5q0 -107 -28.5 -151t-84.5 -44q-53 0 -78.5 31.5zM161.5 643.5q9.5 13.5 9.5 37.5
q0 26 -9.5 41.5t-27.5 15.5q-17 0 -26.5 -15.5t-9.5 -41.5q0 -24 9 -37.5t27 -13.5t27.5 13.5z" />
    <glyph glyph-name="uni207F" unicode="&#x207f;" horiz-adv-x="325" 
d="M31 726h72l8 -43h4q32 51 85 51q94 0 94 -114v-248h-86v226q0 31 -10.5 45t-30.5 14q-22 0 -36 -19t-14 -48v-218h-86v354z" />
    <glyph glyph-name="uni2080" unicode="&#x2080;" horiz-adv-x="273" 
d="M48.5 -131.5q-29.5 40.5 -29.5 143.5q0 104 29.5 145t88.5 41t88 -41t29 -145q0 -103 -29 -143.5t-88 -40.5t-88.5 40.5zM168 -83.5q8 20.5 8 72.5v48q0 47 -8.5 70t-30.5 23q-23 0 -31.5 -23t-8.5 -70v-48q0 -52 8.5 -72.5t31.5 -20.5t31 20.5z" />
    <glyph glyph-name="uni2081" unicode="&#x2081;" horiz-adv-x="273" 
d="M20 -98h74v195h-74v49q23 3 54 14.5t52 25.5h44v-284h65v-69h-215v69z" />
    <glyph glyph-name="uni2082" unicode="&#x2082;" horiz-adv-x="273" 
d="M24 -151q0 38 21 70t61 75q31 32 46.5 54t15.5 44q0 21 -7 31.5t-25 10.5q-17 0 -26 -13t-9 -33v-25h-73q-3 13 -3 24q0 50 30 80.5t80 30.5q49 0 78.5 -27t29.5 -72q0 -41 -20.5 -73t-56.5 -69q-20 -22 -29.5 -34t-13.5 -24h125v-65h-224v15z" />
    <glyph glyph-name="uni2083" unicode="&#x2083;" horiz-adv-x="273" 
d="M52.5 -144q-30.5 28 -30.5 80v11h75v-13q0 -19 11 -31t29 -12q20 0 32.5 13t12.5 34t-12.5 34t-33.5 13h-30v65h31q17 0 28 13.5t11 35.5q0 19 -10.5 28t-25.5 9q-16 0 -26.5 -11t-10.5 -28v-20h-74v25q0 43 30.5 69.5t79.5 26.5q52 0 81.5 -24t29.5 -71q0 -52 -49 -82
q26 -12 40.5 -34.5t14.5 -53.5q0 -47 -31.5 -76t-83.5 -29q-58 0 -88.5 28z" />
    <glyph glyph-name="uni2084" unicode="&#x2084;" horiz-adv-x="273" 
d="M152 -87h-142v49q59 94 87 236h78q-14 -61 -39.5 -123t-52.5 -102h69v71q18 33 37 96h39v-167h27v-60h-27v-80h-76v80z" />
    <glyph glyph-name="uni2085" unicode="&#x2085;" horiz-adv-x="273" 
d="M55 -140q-31 32 -31 87h73q0 -27 12 -43t30 -16q20 0 31.5 16.5t11.5 48.5q0 30 -12.5 44.5t-34.5 14.5q-10 0 -18 -5t-18 -16l-65 9l13 186h187v-62h-123l-5 -67q12 7 22.5 11t24.5 4q43 0 71.5 -30.5t28.5 -88.5q0 -59 -30.5 -92t-83.5 -33t-84 32z" />
    <glyph glyph-name="uni2086" unicode="&#x2086;" horiz-adv-x="273" 
d="M58 -129.5q-30 42.5 -30 132.5q0 72 11.5 114.5t38 61.5t70.5 19q99 0 99 -116h-71q0 53 -34 53q-21 0 -29.5 -24.5t-9.5 -74.5q20 25 60 25q47 0 71 -32.5t24 -85.5q0 -52 -29.5 -83.5t-77.5 -31.5q-63 0 -93 42.5zM175.5 -91q10.5 14 10.5 37q0 24 -11 39t-30 15
t-29.5 -14t-10.5 -37q0 -24 11 -39t31 -15q18 0 28.5 14z" />
    <glyph glyph-name="uni2087" unicode="&#x2087;" horiz-adv-x="273" 
d="M99.5 -11q28.5 79 73.5 135h-138v62h213v-45q-40 -60 -67 -135.5t-27 -150.5q0 -15 1 -27h-84q0 82 28.5 161z" />
    <glyph glyph-name="uni2088" unicode="&#x2088;" horiz-adv-x="273" 
d="M53 -143.5q-28 28.5 -28 73.5q0 62 50 88q-21 12 -32 33.5t-11 47.5q0 43 27.5 71t78.5 28q50 0 77.5 -28t27.5 -71q0 -26 -11.5 -47t-32.5 -34q27 -14 39.5 -37t12.5 -51q0 -45 -28.5 -73.5t-84.5 -28.5q-57 0 -85 28.5zM162.5 58q8.5 13 8.5 38q0 23 -8.5 35t-23.5 12
q-16 0 -24.5 -12t-8.5 -35q0 -25 8.5 -38t24.5 -13q15 0 23.5 13zM177 -62q0 54 -38 54q-19 0 -29 -14t-10 -40q0 -25 10 -38t29 -13q38 0 38 51z" />
    <glyph glyph-name="uni2089" unicode="&#x2089;" horiz-adv-x="273" 
d="M58.5 -138.5q-25.5 31.5 -25.5 84.5h74q0 -27 7.5 -40.5t24.5 -13.5q22 0 30 25t9 76q-21 -24 -58 -24q-47 0 -71.5 31.5t-24.5 83.5q0 53 30 84t78 31q58 0 88 -39.5t30 -134.5q0 -107 -28.5 -151t-84.5 -44q-53 0 -78.5 31.5zM161.5 43.5q9.5 13.5 9.5 37.5
q0 26 -9.5 41.5t-27.5 15.5q-17 0 -26.5 -15.5t-9.5 -41.5q0 -24 9 -37.5t27 -13.5t27.5 13.5z" />
    <glyph glyph-name="uni2099" unicode="&#x2099;" horiz-adv-x="325" 
d="M31 246h72l8 -43h4q32 51 85 51q94 0 94 -114v-248h-86v226q0 31 -10.5 45t-30.5 14q-22 0 -36 -19t-14 -48v-218h-86v354z" />
    <glyph glyph-name="colonmonetary" unicode="&#x20a1;" horiz-adv-x="592" 
d="M407 138.5q27 41.5 27 115.5h120q0 -128 -65.5 -196t-173.5 -70l-18 -97h-54l18 100q-22 3 -41 9l-20 -109h-54l24 130q-133 77 -133 322q0 173 66 261.5t190 93.5l15 85h53l-16 -87q15 -2 43 -8l17 95h53l-21 -115q55 -30 86 -89.5t31 -147.5h-116q0 66 -24 108
l-81 -449q47 7 74 48.5zM279 91l90 493q-23 10 -42 13l-88 -491q18 -11 40 -15zM193 151l81 444q-59 -13 -88.5 -72t-29.5 -155v-50q0 -109 37 -167z" />
    <glyph glyph-name="franc" unicode="&#x20a3;" horiz-adv-x="504" 
d="M188 572v-173h235v-114h-235v-99h143v-65h-143v-121h-128v121h-60v65h60v500h403v-114h-275z" />
    <glyph glyph-name="lira" unicode="&#x20a4;" 
d="M20 108h51v115h-62v85h62v41h-62v85h62v65q0 98 47.5 148.5t133.5 50.5q84 0 132.5 -49.5t48.5 -144.5v-5h-119v18q0 39 -16.5 59.5t-45.5 20.5q-28 0 -44 -18.5t-16 -53.5v-91h114v-85h-114v-41h114v-85h-115l-11 -115h246v-108h-406v108z" />
    <glyph glyph-name="uni20A6" unicode="&#x20a6;" horiz-adv-x="592" 
d="M527 378v-70h65v-81h-65v-227h-89l-213 357q-15 23 -28.5 53t-19.5 51l-6 -2l2 -77v-382h-108v227h-65v81h65v70h-65v81h65v227h88l218 -364q11 -18 23.5 -46t20.5 -52l5 3l-1 77v382h108v-227h65v-81h-65z" />
    <glyph glyph-name="peseta" unicode="&#x20a7;" horiz-adv-x="547" 
d="M547 447h-58q-8 -92 -68.5 -146.5t-155.5 -54.5h-86v-246h-119v447h-60v50h60v189h205q100 0 157.5 -51.5t66.5 -137.5h58v-50zM179 497h190q-8 41 -38.5 64t-78.5 23h-73v-87zM333 373.5q31 26.5 37 73.5h-191v-100h73q50 0 81 26.5z" />
    <glyph glyph-name="uni20A9" unicode="&#x20a9;" horiz-adv-x="714" 
d="M653 389h60v-96h-80l-59 -293h-129l-49 293h-80l-48 -293h-129l-59 293h-80v96h60l-60 297h127l51 -297h70l44 297h145l44 -297h70l52 297h110zM380 389l-8 48q-6 33 -14 97h-4q-9 -69 -14 -97l-8 -48h48zM233 293h-39l5 -29q5 -31 13 -106h4l13 106zM534 293h-39l4 -29
l13 -106h4q7 70 13 106z" />
    <glyph glyph-name="dong" unicode="&#x20ab;" horiz-adv-x="501" 
d="M501 563h-58v-498h-97l-12 65h-5q-19 -37 -50 -56t-69 -19q-78 0 -123.5 59.5t-45.5 164.5q0 68 21 118.5t58 77t84 26.5q40 0 71.5 -17t45.5 -47h5v126h-180v69h180v91h117v-91h58v-69zM307 184.5q21 32.5 21 92.5q0 61 -21 94t-61 33t-61 -32.5t-21 -93.5t21 -93.5
t61 -32.5t61 32.5zM41 0h402v-69h-402v69z" />
    <glyph glyph-name="Euro" unicode="&#x20ac;" 
d="M172 51.5q-76 63.5 -102 175.5h-60v81h49q-1 11 -1 35q0 23 1 35h-49v81h60q26 112 102 175.5t188 63.5q41 0 74 -10v-100q-30 9 -64 9q-64 0 -109.5 -36.5t-66.5 -101.5h180v-81h-195q-1 -12 -1 -35q0 -24 1 -35h195v-81h-180q21 -66 66.5 -102t109.5 -36q34 0 64 9v-99
q-38 -11 -74 -11q-112 0 -188 63.5z" />
    <glyph glyph-name="uni20AD" unicode="&#x20ad;" horiz-adv-x="592" 
d="M70 304h-70v81h70v301h119v-301h41l215 301h133l-221 -301h195v-81h-187l219 -304h-137l-216 304h-42v-304h-119v304z" />
    <glyph glyph-name="uni20B1" unicode="&#x20b1;" horiz-adv-x="547" 
d="M547 482h-57v-12q0 -15 -1 -23h58v-50h-67q-20 -70 -77 -110.5t-138 -40.5h-86v-246h-119v397h-60v50h60v35h-60v50h60v154h205q90 0 145.5 -41.5t72.5 -112.5h64v-50zM340 380q31 33 31 90q0 52 -31.5 83t-87.5 31h-73v-237h73q57 0 88 33z" />
    <glyph glyph-name="uni20B2" unicode="&#x20b2;" horiz-adv-x="638" 
d="M587 373v-373h-83l-18 90q-24 -38 -60 -63t-78 -34v-102h-55v97q-123 2 -188.5 90t-65.5 265q0 168 65 256t189 98v86h55v-86q65 -5 118.5 -35.5t85.5 -85.5t32 -130h-118q0 63 -33 102t-85 48v-223h239zM193.5 158.5q32.5 -58.5 99.5 -68.5v506q-67 -10 -99.5 -69
t-32.5 -159v-50q0 -101 32.5 -159.5zM437.5 148q33.5 48 33.5 125h-123v-183q56 10 89.5 58z" />
    <glyph glyph-name="uni20B5" unicode="&#x20b5;" horiz-adv-x="592" 
d="M401 130q33 42 33 124h120q0 -130 -68 -198t-179 -68q-23 0 -44 3l-18 -100h-55l20 112q-84 29 -128.5 114t-44.5 226q0 178 70 266.5t200 88.5q19 0 28 -1l15 86h55l-17 -95q77 -21 121.5 -85.5t44.5 -171.5h-116q0 58 -18 96.5t-51 56.5l-88 -493q14 -3 30 -3
q57 0 90 42zM230 112l87 486h-10q-75 0 -113 -60t-38 -170v-50q0 -154 74 -206z" />
    <glyph glyph-name="uni20B9" unicode="&#x20b9;" horiz-adv-x="580" 
d="M540 610h-131q36 -38 45 -85h86v-81h-87q-14 -71 -68.5 -112t-136.5 -41h-28l230 -291h-138l-242 306v76h169q37 0 60.5 16t32.5 46h-262v81h265q-18 64 -91 64h-174v97h470v-76z" />
    <glyph glyph-name="uni20BA" unicode="&#x20ba;" horiz-adv-x="501" 
d="M474 290q0 -148 -70.5 -219t-218.5 -71h-125v220l-60 -23v82l60 23v66l-60 -23v83l60 23v235h119v-188l181 70v-83l-181 -70v-66l181 70v-82l-181 -70v-161q70 0 108.5 17t55.5 56.5t17 110.5h114z" />
    <glyph glyph-name="uni20BC" unicode="&#x20bc;" horiz-adv-x="600" 
d="M496.5 619q58.5 -70 58.5 -197v-422h-119v432q0 74 -26.5 115t-81.5 49v-486h-55v486q-109 -15 -109 -164v-432h-118v422q0 128 58 197.5t169 77.5v86h55v-86q110 -8 168.5 -78z" />
    <glyph glyph-name="uni20BD" unicode="&#x20bd;" horiz-adv-x="547" 
d="M0 187h60v83h-60v99h60v317h245q103 0 159 -57t56 -149q0 -63 -27 -110.5t-75.5 -73.5t-112.5 -26h-127v-83h170v-82h-170v-105h-118v105h-60v82zM292 369q51 0 79 29.5t28 81.5q0 47 -28.5 74.5t-78.5 27.5h-114v-213h114z" />
    <glyph glyph-name="uni2105" unicode="&#x2105;" horiz-adv-x="790" 
d="M73 357q-34 47 -34 147q0 99 34.5 146.5t103.5 47.5q61 0 95 -36t34 -112h-86q0 77 -43 77q-26 0 -38 -27.5t-12 -82.5v-26q0 -56 12 -83t40 -27q23 0 33 19t10 58h84q0 -76 -33 -112t-94 -36q-72 0 -106 47zM542 698h76l-415 -710h-77zM464.5 34.5
q-36.5 47.5 -36.5 146.5t36.5 146.5t111.5 47.5t111.5 -47.5t36.5 -146.5t-36.5 -146.5t-111.5 -47.5t-111.5 47.5zM622 85q14 27 14 83v26q0 56 -14 83t-46 27t-46 -27t-14 -83v-26q0 -56 14 -83t46 -27t46 27z" />
    <glyph glyph-name="uni2113" unicode="&#x2113;" horiz-adv-x="490" 
d="M154.5 37.5q-45.5 49.5 -46.5 129.5v3q-48 -35 -53 -38v89q29 21 53 42v245q0 119 47.5 173t119.5 54q68 0 106 -39.5t38 -113.5q0 -65 -52 -146t-139 -164v-74q0 -57 21.5 -84t55.5 -27q52 0 99 30v-103q-52 -26 -112 -26q-92 0 -137.5 49.5zM330 583q0 68 -42 68
q-25 0 -42.5 -34.5t-17.5 -108.5v-127q102 118 102 202z" />
    <glyph glyph-name="uni2116" unicode="&#x2116;" horiz-adv-x="914" 
d="M589 501q0 197 140 197t140 -197t-140 -197t-140 197zM60 686h113l212 -378q10 -16 31 -64l3 3l-1 57v382h114v-686h-114l-212 378q-8 13 -31 64l-4 -3l2 -57v-382h-113v686zM777 488v26q0 104 -48 104q-24 0 -36 -26.5t-12 -77.5v-26q0 -51 12 -77.5t36 -26.5
q48 0 48 104zM606 264h247v-84h-247v84z" />
    <glyph glyph-name="uni2117" unicode="&#x2117;" horiz-adv-x="604" 
d="M149.5 31.5q-64.5 43.5 -99 123.5t-34.5 188t34.5 188t99 123.5t152.5 43.5t152.5 -43.5t99 -123.5t34.5 -188t-34.5 -188t-99 -123.5t-152.5 -43.5t-152.5 43.5zM425 79.5q52 36.5 79.5 104.5t27.5 159t-27.5 159t-79.5 104.5t-123 36.5t-123 -36.5t-79.5 -104.5
t-27.5 -159t27.5 -159t79.5 -104.5t123 -36.5t123 36.5zM182 546h158q49 0 81 -34.5t32 -90.5q0 -58 -38.5 -93.5t-102.5 -35.5h-44v-152h-86v406zM312 362q53 0 53 56q0 50 -53 50h-44v-106h44z" />
    <glyph glyph-name="trademark" unicode="&#x2122;" horiz-adv-x="820" 
d="M177 619h-100v67h276v-67h-101v-337h-75v337zM385 686h111l63 -283h4l63 283h104v-404h-72v293h-4l-66 -293h-67l-65 293h-5v-293h-66v404z" />
    <glyph glyph-name="uni2126" unicode="&#x2126;" horiz-adv-x="768" 
d="M98 114h25q5 0 33 -6q20 -5 41 -8q-47 40 -73 101t-26 142q0 178 74.5 266.5t210.5 88.5t210 -88.5t74 -266.5q0 -81 -26 -142t-73 -101q18 3 39 8q30 6 36 6h24v-114h-246v81q57 15 86 70.5t29 144.5v72q0 105 -39 162.5t-114 57.5t-114.5 -58t-39.5 -162v-72
q0 -88 29.5 -143t86.5 -71v-82h-247v114z" />
    <glyph glyph-name="estimated" unicode="&#x212e;" horiz-adv-x="600" 
d="M165.5 23.5q-58.5 35.5 -89.5 97.5t-31 142t31 142t89.5 97.5t136.5 35.5t136 -36.5t89.5 -101.5t31.5 -147v-5h-406v-165q58 -53 149 -53q65 0 114.5 29t75.5 80l34 -21q-32 -61 -89.5 -95.5t-134.5 -34.5q-78 0 -136.5 35.5zM451 290v151q-60 55 -149 55
q-90 0 -149 -54v-152h298z" />
    <glyph glyph-name="oneeighth" unicode="&#x215b;" horiz-adv-x="683" 
d="M20 402h74v195h-74v49q23 3 54 14.5t52 25.5h44v-284h65v-69h-215v69zM516 698h66l-395 -710h-67zM463 16.5q-28 28.5 -28 73.5q0 62 50 88q-21 12 -32 33.5t-11 47.5q0 43 27.5 71t78.5 28q50 0 77.5 -28t27.5 -71q0 -26 -11.5 -47t-32.5 -34q27 -14 39.5 -37t12.5 -51
q0 -45 -28.5 -73.5t-84.5 -28.5q-57 0 -85 28.5zM572.5 218q8.5 13 8.5 38q0 23 -8.5 35t-23.5 12q-16 0 -24.5 -12t-8.5 -35q0 -25 8.5 -38t24.5 -13q15 0 23.5 13zM587 98q0 54 -38 54q-19 0 -29 -14t-10 -40q0 -25 10 -38t29 -13q38 0 38 51z" />
    <glyph glyph-name="threeeighths" unicode="&#x215c;" horiz-adv-x="683" 
d="M52.5 356q-30.5 28 -30.5 80v11h75v-13q0 -19 11 -31t29 -12q20 0 32.5 13t12.5 34t-12.5 34t-33.5 13h-30v65h31q17 0 28 13.5t11 35.5q0 19 -10.5 28t-25.5 9q-16 0 -26.5 -11t-10.5 -28v-20h-74v25q0 43 30.5 69.5t79.5 26.5q52 0 81.5 -24t29.5 -71q0 -52 -49 -82
q26 -12 40.5 -34.5t14.5 -53.5q0 -47 -31.5 -76t-83.5 -29q-58 0 -88.5 28zM516 698h66l-395 -710h-67zM463 16.5q-28 28.5 -28 73.5q0 62 50 88q-21 12 -32 33.5t-11 47.5q0 43 27.5 71t78.5 28q50 0 77.5 -28t27.5 -71q0 -26 -11.5 -47t-32.5 -34q27 -14 39.5 -37
t12.5 -51q0 -45 -28.5 -73.5t-84.5 -28.5q-57 0 -85 28.5zM572.5 218q8.5 13 8.5 38q0 23 -8.5 35t-23.5 12q-16 0 -24.5 -12t-8.5 -35q0 -25 8.5 -38t24.5 -13q15 0 23.5 13zM587 98q0 54 -38 54q-19 0 -29 -14t-10 -40q0 -25 10 -38t29 -13q38 0 38 51z" />
    <glyph glyph-name="fiveeighths" unicode="&#x215d;" horiz-adv-x="683" 
d="M55 360q-31 32 -31 87h73q0 -27 12 -43t30 -16q20 0 31.5 16.5t11.5 48.5q0 30 -12.5 44.5t-34.5 14.5q-10 0 -18 -5t-18 -16l-65 9l13 186h187v-62h-123l-5 -67q12 7 22.5 11t24.5 4q43 0 71.5 -30.5t28.5 -88.5q0 -59 -30.5 -92t-83.5 -33t-84 32zM516 698h66
l-395 -710h-67zM463 16.5q-28 28.5 -28 73.5q0 62 50 88q-21 12 -32 33.5t-11 47.5q0 43 27.5 71t78.5 28q50 0 77.5 -28t27.5 -71q0 -26 -11.5 -47t-32.5 -34q27 -14 39.5 -37t12.5 -51q0 -45 -28.5 -73.5t-84.5 -28.5q-57 0 -85 28.5zM572.5 218q8.5 13 8.5 38
q0 23 -8.5 35t-23.5 12q-16 0 -24.5 -12t-8.5 -35q0 -25 8.5 -38t24.5 -13q15 0 23.5 13zM587 98q0 54 -38 54q-19 0 -29 -14t-10 -40q0 -25 10 -38t29 -13q38 0 38 51z" />
    <glyph glyph-name="seveneighths" unicode="&#x215e;" horiz-adv-x="683" 
d="M99.5 489q28.5 79 73.5 135h-138v62h213v-45q-40 -60 -67 -135.5t-27 -150.5q0 -15 1 -27h-84q0 82 28.5 161zM516 698h66l-395 -710h-67zM463 16.5q-28 28.5 -28 73.5q0 62 50 88q-21 12 -32 33.5t-11 47.5q0 43 27.5 71t78.5 28q50 0 77.5 -28t27.5 -71
q0 -26 -11.5 -47t-32.5 -34q27 -14 39.5 -37t12.5 -51q0 -45 -28.5 -73.5t-84.5 -28.5q-57 0 -85 28.5zM572.5 218q8.5 13 8.5 38q0 23 -8.5 35t-23.5 12q-16 0 -24.5 -12t-8.5 -35q0 -25 8.5 -38t24.5 -13q15 0 23.5 13zM587 98q0 54 -38 54q-19 0 -29 -14t-10 -40
q0 -25 10 -38t29 -13q38 0 38 51z" />
    <glyph glyph-name="arrowleft" unicode="&#x2190;" horiz-adv-x="1000" 
d="M42 242v21l197 173h52l-53 -130h722v-108h-722l53 -130h-52z" />
    <glyph glyph-name="arrowup" unicode="&#x2191;" horiz-adv-x="500" 
d="M197 515l-129 -53v52l173 197h21l173 -197v-52l-129 53v-722h-109v722z" />
    <glyph glyph-name="arrowright" unicode="&#x2192;" horiz-adv-x="1000" 
d="M764 198h-722v108h722l-53 130h52l197 -174v-21l-197 -173h-52z" />
    <glyph glyph-name="arrowdown" unicode="&#x2193;" horiz-adv-x="500" 
d="M68 -10v52l130 -53v722h108v-722l130 53v-52l-174 -197h-21z" />
    <glyph glyph-name="arrowboth" unicode="&#x2194;" horiz-adv-x="1000" 
d="M42 242v21l197 173h52l-53 -129h526l-53 129h52l197 -173v-21l-197 -173h-52l53 129h-526l53 -129h-52z" />
    <glyph glyph-name="arrowupdn" unicode="&#x2195;" horiz-adv-x="500" 
d="M65 -10v52l130 -53v526l-130 -53v52l174 197h21l173 -197v-52l-130 53v-526l130 53v-52l-173 -197h-21z" />
    <glyph glyph-name="arrowupdnbse" unicode="&#x21a8;" horiz-adv-x="500" 
d="M65 97v52l130 -53v419l-130 -53v52l174 197h21l173 -197v-52l-130 53v-419l130 53v-52l-173 -197h-21zM66 -147h367v-86h-367v86z" />
    <glyph glyph-name="partialdiff" unicode="&#x2202;" horiz-adv-x="494" 
d="M118 17q-41 29 -61.5 78.5t-20.5 108.5q0 73 26.5 129t69.5 86t93 30q39 0 67 -21t40 -44h4q1 6 1 34q0 60 -17.5 110t-48.5 79t-69 29q-61 0 -108 -34v104q56 29 128 29q62 0 115.5 -37.5t86 -116.5t32.5 -198q0 -186 -62.5 -290.5t-176.5 -104.5q-58 0 -99 29z
M294.5 146q28.5 56 34.5 133q-8 29 -29.5 51t-51.5 22q-24 0 -44 -20.5t-31.5 -55t-11.5 -75.5q0 -50 16.5 -80.5t46.5 -30.5q42 0 70.5 56z" />
    <glyph glyph-name="emptyset" unicode="&#x2205;" 
d="M397 503q38 -65 38 -152q0 -74 -26 -130.5t-73 -87.5t-109 -31q-76 0 -129 47l-42 -50l-47 41l49 58q-38 65 -38 153q0 73 25.5 129t72.5 87t108 31q77 0 130 -47l44 52l47 -41zM115 266l189 224q-32 29 -77 29q-56 0 -90 -46t-35 -122q0 -50 13 -85zM340 435l-190 -224
q33 -30 77 -30q56 0 91 46.5t36 122.5q0 48 -14 85z" />
    <glyph glyph-name="uni2206" unicode="&#x2206;" horiz-adv-x="589" 
d="M13 55l203 631h149l203 -631v-55h-555v55zM420 114l-131 427h-4l-131 -427h266z" />
    <glyph glyph-name="product" unicode="&#x220f;" horiz-adv-x="823" 
d="M178 621h-82v102h631v-102h-83v-749h-121v749h-224v-749h-121v749z" />
    <glyph glyph-name="summation" unicode="&#x2211;" horiz-adv-x="713" 
d="M77 -65l290 364l-281 357v67h569v-98h-389v-4l242 -306l-253 -321v-4h417v-118h-595v63z" />
    <glyph glyph-name="minus" unicode="&#x2212;" horiz-adv-x="479" 
d="M33 307h412v-104h-412v104z" />
    <glyph glyph-name="uni2215" unicode="&#x2215;" horiz-adv-x="137" 
d="M230 698h66l-395 -710h-67z" />
    <glyph glyph-name="uni2219" unicode="&#x2219;" horiz-adv-x="273" 
d="M73 411h125v-135h-125v135z" />
    <glyph glyph-name="radical" unicode="&#x221a;" horiz-adv-x="549" 
d="M117 293l-77 -30l-20 60l172 68q24 -68 74 -204q31 -82 53 -143q10 -28 21 -74l137 887h81l-162 -1005h-110q-57 147 -169 441z" />
    <glyph glyph-name="infinity" unicode="&#x221e;" horiz-adv-x="713" 
d="M122.5 157.5q-34.5 19.5 -55 55.5t-20.5 83t20.5 83.5t56.5 57t80 20.5q49 0 87 -22.5t71 -67.5q5 6 28.5 32t54.5 42t67 16q41 0 76 -19t55.5 -54t20.5 -82q0 -50 -21 -87.5t-56 -57t-75 -19.5t-79.5 19t-78.5 75q-37 -47 -73.5 -70.5t-84.5 -23.5q-39 0 -73.5 19.5z
M309 293q-32 49 -52 65.5t-51 16.5q-28 0 -46.5 -20.5t-18.5 -57.5q0 -31 19.5 -53.5t48.5 -22.5q51 0 100 72zM553 245q17 24 17 51q0 34 -18.5 56.5t-48.5 22.5q-25 0 -45 -16t-55 -61q33 -46 55.5 -61.5t49.5 -15.5q28 0 45 24z" />
    <glyph glyph-name="orthogonal" unicode="&#x221f;" horiz-adv-x="979" 
d="M157 625h118v-515h527v-110h-645v625z" />
    <glyph glyph-name="intersection" unicode="&#x2229;" horiz-adv-x="722" 
d="M79 410q0 77 37.5 140.5t101.5 99.5t141 36t141 -36t101.5 -99t37.5 -141l2 -410h-120v410q0 49 -21.5 87.5t-58.5 60t-81 21.5t-81 -21.5t-58.5 -60t-21.5 -87.5v-410h-120v410z" />
    <glyph glyph-name="integral" unicode="&#x222b;" horiz-adv-x="274" 
d="M23 -71q75 0 75 58q-27 618 -27 760q0 65 50 88.5t138 23.5v-69q-77 0 -77 -57q28 -620 28 -762q0 -65 -49.5 -88.5t-137.5 -23.5v70z" />
    <glyph glyph-name="approxequal" unicode="&#x2248;" horiz-adv-x="549" 
d="M27 345q22 31 59 52t84 21q25 0 46.5 -7.5t55.5 -22.5q31 -15 55 -23t50 -8q41 0 79 21t64 52v-120q-22 -31 -59 -52t-84 -21q-25 0 -46.5 7.5t-55.5 22.5q-31 15 -55 23t-50 8q-41 0 -79 -21t-64 -52v120zM27 134q22 31 59 52t84 21q25 0 46.5 -7.5t55.5 -22.5
q31 -15 55 -23t50 -8q41 0 79 21t64 52v-120q-22 -31 -59 -52t-84 -21q-25 0 -46.5 7.5t-55.5 22.5q-31 15 -55 23t-50 8q-41 0 -79 -21t-64 -52v120z" />
    <glyph glyph-name="notequal" unicode="&#x2260;" horiz-adv-x="549" 
d="M157 96h-85v103h137l56 109h-193v104h245l37 72h81l-37 -72h86v-104h-138l-56 -109h194v-103h-246l-36 -71h-81z" />
    <glyph glyph-name="equivalence" unicode="&#x2261;" horiz-adv-x="478" 
d="M33 546h412v-104h-412v104zM33 333h412v-104h-412v104zM33 120h412v-103h-412v103z" />
    <glyph glyph-name="lessequal" unicode="&#x2264;" horiz-adv-x="549" 
d="M69 350v127l412 207v-118l-311 -152l311 -152v-118zM69 103h412v-103h-412v103z" />
    <glyph glyph-name="greaterequal" unicode="&#x2265;" horiz-adv-x="549" 
d="M69 262l311 152l-311 152v118l412 -207v-127l-412 -206v118zM69 103h412v-103h-412v103z" />
    <glyph glyph-name="house" unicode="&#x2302;" horiz-adv-x="600" 
d="M75 310l225 253l225 -253v-310h-450v310zM433 89v188l-133 151l-133 -151v-188h266z" />
    <glyph glyph-name="revlogicalnot" unicode="&#x2310;" horiz-adv-x="479" 
d="M34 463h416v-113h-312v-163h-104v276z" />
    <glyph glyph-name="integraltp" unicode="&#x2320;" horiz-adv-x="604" 
d="M239 747q0 65 50 88.5t138 23.5v-69q-77 0 -77 -57l17 -983h-114q-14 880 -14 997z" />
    <glyph glyph-name="integralbt" unicode="&#x2321;" horiz-adv-x="604" 
d="M177 -181q77 0 77 57l-17 983h114q14 -880 14 -997q0 -65 -50 -88.5t-138 -23.5v69z" />
    <glyph glyph-name="lozenge" unicode="&#x25ca;" horiz-adv-x="494" 
d="M14 342l190 344h74l202 -344l-202 -342h-74zM356 335l-117 205l-103 -191l112 -204z" />
    <glyph glyph-name="uni27E8" unicode="&#x27e8;" horiz-adv-x="273" 
d="M20 296l136 439h87l-98 -439l98 -453h-87z" />
    <glyph glyph-name="uni27E9" unicode="&#x27e9;" horiz-adv-x="273" 
d="M128 296l-98 439h87l136 -439l-136 -453h-87z" />
    <glyph glyph-name="uniE0FF" unicode="&#xe0ff;" horiz-adv-x="600" 
 />
    <glyph glyph-name="uniEFFD" unicode="&#xeffd;" horiz-adv-x="600" 
 />
    <glyph glyph-name="uniF000" unicode="&#xf000;" horiz-adv-x="600" 
 />
    <glyph glyph-name="uniF6C3" unicode="&#xf6c3;" horiz-adv-x="0" 
d="M-75 -178h-32v111h107v-100l-46 -96h-65z" />
    <glyph glyph-name="uniFEFF" unicode="&#xfeff;" horiz-adv-x="0" 
 />
    <glyph glyph-name="uni00A40301" horiz-adv-x="684" 
d="M50 686h128v-686h-128v686zM106 853h130l1 -3l-88 -99h-109zM287.5 33q-50.5 45 -50.5 130v53h127v-43q0 -36 17 -55.5t50 -19.5q32 0 48.5 19.5t16.5 55.5v513h128v-523q0 -85 -50 -130t-143 -45t-143.5 45zM554 853h130l1 -3l-88 -99h-109z" />
    <glyph glyph-name="Y.loclGUA" horiz-adv-x="540" 
d="M110 33q-55 45 -55 127v8h118q0 -35 26.5 -54.5t70.5 -19.5q48 0 70 36.5t22 117.5v26h-7q-20 -43 -51 -59.5t-80 -16.5q-76 0 -122.5 52.5t-46.5 152.5v283h123v-278q0 -50 21 -77t60 -27q53 0 78 43.5t25 130.5v208h123v-433q0 -138 -56.5 -201.5t-165.5 -63.5
q-98 0 -153 45z" />
    <glyph glyph-name="Yacute.loclGUA" horiz-adv-x="540" 
d="M110 33q-55 45 -55 127v8h118q0 -35 26.5 -54.5t70.5 -19.5q48 0 70 36.5t22 117.5v26h-7q-20 -43 -51 -59.5t-80 -16.5q-76 0 -122.5 52.5t-46.5 152.5v283h123v-278q0 -50 21 -77t60 -27q53 0 78 43.5t25 130.5v208h123v-433q0 -138 -56.5 -201.5t-165.5 -63.5
q-98 0 -153 45zM262 853h130l1 -3l-88 -99h-109z" />
    <glyph glyph-name="Ycircumflex.loclGUA" horiz-adv-x="540" 
d="M110 33q-55 45 -55 127v8h118q0 -35 26.5 -54.5t70.5 -19.5q48 0 70 36.5t22 117.5v26h-7q-20 -43 -51 -59.5t-80 -16.5q-76 0 -122.5 52.5t-46.5 152.5v283h123v-278q0 -50 21 -77t60 -27q53 0 78 43.5t25 130.5v208h123v-433q0 -138 -56.5 -201.5t-165.5 -63.5
q-98 0 -153 45zM221 853h98l85 -105h-90l-44 39l-45 -39h-90z" />
    <glyph glyph-name="Ydieresis.loclGUA" horiz-adv-x="540" 
d="M110 33q-55 45 -55 127v8h118q0 -35 26.5 -54.5t70.5 -19.5q48 0 70 36.5t22 117.5v26h-7q-20 -43 -51 -59.5t-80 -16.5q-76 0 -122.5 52.5t-46.5 152.5v283h123v-278q0 -50 21 -77t60 -27q53 0 78 43.5t25 130.5v208h123v-433q0 -138 -56.5 -201.5t-165.5 -63.5
q-98 0 -153 45zM132 883h100v-109h-100v109zM307 883h100v-109h-100v109z" />
    <glyph glyph-name="Ygrave.loclGUA" horiz-adv-x="540" 
d="M110 33q-55 45 -55 127v8h118q0 -35 26.5 -54.5t70.5 -19.5q48 0 70 36.5t22 117.5v26h-7q-20 -43 -51 -59.5t-80 -16.5q-76 0 -122.5 52.5t-46.5 152.5v283h123v-278q0 -50 21 -77t60 -27q53 0 78 43.5t25 130.5v208h123v-433q0 -138 -56.5 -201.5t-165.5 -63.5
q-98 0 -153 45zM132 850l1 3h120l86 -102h-99z" />
    <glyph glyph-name="uni0232.loclGUA" horiz-adv-x="540" 
d="M110 33q-55 45 -55 127v8h118q0 -35 26.5 -54.5t70.5 -19.5q48 0 70 36.5t22 117.5v26h-7q-20 -43 -51 -59.5t-80 -16.5q-76 0 -122.5 52.5t-46.5 152.5v283h123v-278q0 -50 21 -77t60 -27q53 0 78 43.5t25 130.5v208h123v-433q0 -138 -56.5 -201.5t-165.5 -63.5
q-98 0 -153 45zM142 846h255v-87h-255v87z" />
    <glyph glyph-name="uni1EF8.loclGUA" horiz-adv-x="540" 
d="M110 33q-55 45 -55 127v8h118q0 -35 26.5 -54.5t70.5 -19.5q48 0 70 36.5t22 117.5v26h-7q-20 -43 -51 -59.5t-80 -16.5q-76 0 -122.5 52.5t-46.5 152.5v283h123v-278q0 -50 21 -77t60 -27q53 0 78 43.5t25 130.5v208h123v-433q0 -138 -56.5 -201.5t-165.5 -63.5
q-98 0 -153 45zM140.5 823.5q22.5 33.5 66.5 33.5q14 0 26.5 -4t35.5 -13q19 -8 32 -12t26 -4q31 0 36 33h59q0 -43 -22.5 -76.5t-66.5 -33.5q-14 0 -26.5 4t-35.5 13q-19 8 -32 12t-26 4q-31 0 -36 -33h-59q0 43 22.5 76.5z" />
    <glyph glyph-name="Cacute.loclPLK" horiz-adv-x="592" 
d="M104.5 76.5q-70.5 88.5 -70.5 266.5t70.5 266.5t202.5 88.5q113 0 182.5 -67t69.5 -200h-131q0 77 -32.5 117t-88.5 40q-70 0 -105.5 -57.5t-35.5 -162.5v-50q0 -105 36.5 -162.5t108.5 -57.5q57 0 90 39.5t33 116.5h125q0 -130 -69 -198t-183 -68q-132 0 -202.5 88.5z
M314 913h120l1 -3l-78 -159h-99z" />
    <glyph glyph-name="Nacute.loclPLK" horiz-adv-x="592" 
d="M60 686h113l212 -378q10 -16 31 -64l3 3l-1 57v382h114v-686h-114l-212 378q-8 13 -31 64l-4 -3l2 -57v-382h-113v686zM303 913h120l1 -3l-78 -159h-99z" />
    <glyph glyph-name="Oacute.loclPLK" horiz-adv-x="638" 
d="M108.5 76.5q-74.5 88.5 -74.5 266.5t74.5 266.5t210.5 88.5t210.5 -88.5t74.5 -266.5t-74.5 -266.5t-210.5 -88.5t-210.5 88.5zM433 155.5q39 57.5 39 162.5v50q0 105 -39 162.5t-114 57.5t-114 -57.5t-39 -162.5v-50q0 -105 39 -162.5t114 -57.5t114 57.5zM326 913h120
l1 -3l-78 -159h-99z" />
    <glyph glyph-name="Sacute.loclPLK" horiz-adv-x="547" 
d="M148 12.5q-54 24.5 -86 72.5t-32 116l1 22h133l-1 -16q0 -50 29 -79.5t81 -29.5q53 0 78.5 23.5t25.5 57.5t-18 55.5t-44.5 33.5t-74.5 28q-63 20 -102 40t-66.5 61t-27.5 109q0 62 31 105.5t83 65t115 21.5q98 0 160.5 -50.5t62.5 -151.5v-12h-131v9q0 44 -25 69.5
t-68 25.5q-45 0 -70.5 -20.5t-25.5 -52.5q0 -28 17 -46t42.5 -29t70.5 -25q65 -21 105 -40.5t69 -60.5t29 -108q0 -113 -64.5 -165.5t-177.5 -52.5q-65 0 -119 24.5zM280 913h120l1 -3l-78 -159h-99z" />
    <glyph glyph-name="Zacute.loclPLK" horiz-adv-x="501" 
d="M16 49l282 523h-261v114h436v-50l-282 -522h289v-114h-464v49zM257 913h120l1 -3l-78 -159h-99z" />
    <glyph glyph-name="i.loclTRK" horiz-adv-x="228" 
d="M54 526h120v-526h-120v526zM53 723h121v-115h-121v115z" />
    <glyph glyph-name="uni006A0301" 
d="M54 526h120v-526h-120v526zM131 723h120l1 -3l-108 -129h-99zM233.5 -178.5q-25.5 3.5 -42.5 8.5v89h44q47 0 47 48v559h120v-567q0 -61 -28 -101t-94 -40q-21 0 -46.5 3.5zM359 723h120l1 -3l-108 -129h-99z" />
    <glyph glyph-name="y.loclGUA" horiz-adv-x="501" 
d="M106 -142.5q-51 39.5 -51 107.5v10h114q0 -26 22 -42.5t55 -16.5q41 0 64.5 32t23.5 88v56h-6q-23 -34 -56 -55.5t-77 -21.5q-65 0 -102.5 40.5t-37.5 128.5v342h120v-309q0 -50 17 -71.5t52 -21.5t58.5 29.5t23.5 73.5v299h120v-443q0 -130 -52.5 -197.5t-147.5 -67.5
q-89 0 -140 39.5z" />
    <glyph glyph-name="yacute.loclGUA" horiz-adv-x="501" 
d="M106 -142.5q-51 39.5 -51 107.5v10h114q0 -26 22 -42.5t55 -16.5q41 0 64.5 32t23.5 88v56h-6q-23 -34 -56 -55.5t-77 -21.5q-65 0 -102.5 40.5t-37.5 128.5v342h120v-309q0 -50 17 -71.5t52 -21.5t58.5 29.5t23.5 73.5v299h120v-443q0 -130 -52.5 -197.5t-147.5 -67.5
q-89 0 -140 39.5zM268 723h120l1 -3l-108 -129h-99z" />
    <glyph glyph-name="ycircumflex.loclGUA" horiz-adv-x="501" 
d="M106 -142.5q-51 39.5 -51 107.5v10h114q0 -26 22 -42.5t55 -16.5q41 0 64.5 32t23.5 88v56h-6q-23 -34 -56 -55.5t-77 -21.5q-65 0 -102.5 40.5t-37.5 128.5v342h120v-309q0 -50 17 -71.5t52 -21.5t58.5 29.5t23.5 73.5v299h120v-443q0 -130 -52.5 -197.5t-147.5 -67.5
q-89 0 -140 39.5zM202 723h98l85 -135h-90l-44 69l-45 -69h-90z" />
    <glyph glyph-name="ydieresis.loclGUA" horiz-adv-x="501" 
d="M106 -142.5q-51 39.5 -51 107.5v10h114q0 -26 22 -42.5t55 -16.5q41 0 64.5 32t23.5 88v56h-6q-23 -34 -56 -55.5t-77 -21.5q-65 0 -102.5 40.5t-37.5 128.5v342h120v-309q0 -50 17 -71.5t52 -21.5t58.5 29.5t23.5 73.5v299h120v-443q0 -130 -52.5 -197.5t-147.5 -67.5
q-89 0 -140 39.5zM113 723h100v-109h-100v109zM288 723h100v-109h-100v109z" />
    <glyph glyph-name="ygrave.loclGUA" horiz-adv-x="501" 
d="M106 -142.5q-51 39.5 -51 107.5v10h114q0 -26 22 -42.5t55 -16.5q41 0 64.5 32t23.5 88v56h-6q-23 -34 -56 -55.5t-77 -21.5q-65 0 -102.5 40.5t-37.5 128.5v342h120v-309q0 -50 17 -71.5t52 -21.5t58.5 29.5t23.5 73.5v299h120v-443q0 -130 -52.5 -197.5t-147.5 -67.5
q-89 0 -140 39.5zM113 720l1 3h120l86 -132h-99z" />
    <glyph glyph-name="uni0233.loclGUA" horiz-adv-x="501" 
d="M106 -142.5q-51 39.5 -51 107.5v10h114q0 -26 22 -42.5t55 -16.5q41 0 64.5 32t23.5 88v56h-6q-23 -34 -56 -55.5t-77 -21.5q-65 0 -102.5 40.5t-37.5 128.5v342h120v-309q0 -50 17 -71.5t52 -21.5t58.5 29.5t23.5 73.5v299h120v-443q0 -130 -52.5 -197.5t-147.5 -67.5
q-89 0 -140 39.5zM123 686h255v-87h-255v87z" />
    <glyph glyph-name="uni1EF9.loclGUA" horiz-adv-x="501" 
d="M106 -142.5q-51 39.5 -51 107.5v10h114q0 -26 22 -42.5t55 -16.5q41 0 64.5 32t23.5 88v56h-6q-23 -34 -56 -55.5t-77 -21.5q-65 0 -102.5 40.5t-37.5 128.5v342h120v-309q0 -50 17 -71.5t52 -21.5t58.5 29.5t23.5 73.5v299h120v-443q0 -130 -52.5 -197.5t-147.5 -67.5
q-89 0 -140 39.5zM108 686q25 37 73 37q16 0 30 -4.5t39 -14.5q21 -9 35 -13.5t29 -4.5q17 0 26.5 8.5t12.5 28.5h66q0 -48 -25 -85t-74 -37q-16 0 -29.5 4.5t-38.5 14.5q-21 9 -35 13.5t-29 4.5q-34 0 -39 -37h-66q0 48 25 85z" />
    <glyph glyph-name="cacute.loclPLK" 
d="M89 54.5q-48 66.5 -48 208.5q0 141 48.5 208t146.5 67q87 0 135.5 -51.5t48.5 -158.5h-123q0 109 -61 109q-37 0 -53.5 -38.5t-16.5 -116.5v-38q0 -78 17.5 -116.5t56.5 -38.5q32 0 46.5 27t14.5 82h119q0 -107 -47 -158.5t-133 -51.5q-103 0 -151 66.5zM244 753h120
l1 -3l-78 -159h-99z" />
    <glyph glyph-name="nacute.loclPLK" horiz-adv-x="501" 
d="M55 526h100l12 -65h6q23 34 56 55.5t77 21.5q65 0 102.5 -40.5t37.5 -128.5v-369h-120v336q0 49 -17.5 71t-51.5 22q-35 0 -58.5 -30.5t-23.5 -74.5v-324h-120v526zM257 753h120l1 -3l-78 -159h-99z" />
    <glyph glyph-name="oacute.loclPLK" horiz-adv-x="501" 
d="M93 55q-52 67 -52 208t52 208t158 67t158 -67t52 -208t-52 -208t-158 -67t-158 67zM316 127.5q20 38.5 20 116.5v38q0 78 -20 116.5t-65 38.5t-65 -38.5t-20 -116.5v-38q0 -78 20 -116.5t65 -38.5t65 38.5zM257 753h120l1 -3l-78 -159h-99z" />
    <glyph glyph-name="sacute.loclPLK" 
d="M83.5 33.5q-50.5 45.5 -50.5 121.5l1 12h122v-7q1 -39 22 -56.5t50 -17.5q28 0 49 13.5t21 43.5q0 32 -24 46.5t-76 28.5q-50 14 -81 28t-53.5 46t-22.5 86q0 77 52.5 118.5t135.5 41.5q77 0 127.5 -38.5t50.5 -104.5l-1 -23h-122v2q-1 66 -59 66q-28 0 -45 -14t-17 -38
q0 -28 23 -40.5t72 -25.5q51 -13 83 -27.5t55.5 -47t23.5 -89.5q0 -170 -196 -170q-90 0 -140.5 45.5zM235 753h120l1 -3l-78 -159h-99z" />
    <glyph glyph-name="zacute.loclPLK" horiz-adv-x="410" 
d="M18 51l204 374h-192v101h355v-50l-205 -375h212v-101h-374v51zM212 753h120l1 -3l-78 -159h-99z" />
    <glyph glyph-name="zero.lf" 
d="M119 19.5q-43 31.5 -66 109.5t-23 214t23 214t66 109.5t109 31.5q65 0 108.5 -32t66.5 -110t23 -213t-23 -213t-66.5 -110t-108.5 -32q-66 0 -109 31.5zM273.5 112q15.5 23 21.5 69.5t6 126.5v70q0 80 -6 126.5t-21.5 69.5t-45.5 23t-45.5 -23t-21.5 -69.5t-6 -126.5v-70
q0 -80 6 -126.5t21.5 -69.5t45.5 -23t45.5 23z" />
    <glyph glyph-name="one.lf" 
d="M40 101h154v428h-155v80q44 5 107 26.5t109 50.5h59v-585h141v-101h-415v101z" />
    <glyph glyph-name="two.lf" 
d="M33 24q0 52 19.5 98.5t54.5 92.5q27 34 63 73q44 49 68.5 80.5t41.5 70.5t17 82q0 29 -15 51.5t-48 22.5q-35 0 -52 -29t-17 -75v-41h-123q-3 17 -3 40q0 104 56.5 156t143.5 52q82 0 133 -44t51 -134q0 -58 -25 -113.5t-58.5 -99.5t-84.5 -103q-44 -50 -51 -60
q-15 -20 -21 -32h243v-112h-393v24z" />
    <glyph glyph-name="three.lf" 
d="M78 43.5q-53 55.5 -53 150.5v18h125v-21q0 -49 19.5 -75.5t56.5 -26.5q35 0 55 25.5t20 75.5q0 108 -82 108h-33v101h35q30 0 49 27.5t19 78.5q0 92 -63 92q-31 0 -47.5 -24t-16.5 -72v-19h-125v28q0 56 24 98.5t66.5 66t97.5 23.5q87 0 138 -49t51 -139
q0 -57 -23.5 -93.5t-65.5 -60.5v-4q46 -17 73.5 -60t27.5 -108q0 -90 -55 -143t-143 -53q-97 0 -150 55.5z" />
    </font>
</defs>
</svg>
