<?xml version="1.0" standalone="no"?>
<!DOCTYPE svg PUBLIC "-//W3C//DTD SVG 1.1//EN" "http://www.w3.org/Graphics/SVG/1.1/DTD/svg11.dtd" >
<svg xmlns="http://www.w3.org/2000/svg" xmlns:xlink="http://www.w3.org/1999/xlink" version="1.1">
<metadata>
Created by FontForge 20170731 at Wed Apr 21 08:12:17 2021
 By Aleksey,,,
Copyright (c) Font Awesome
</metadata>
<defs>
<font id="FontAwesome5Free-Regular" horiz-adv-x="2048" >
  <font-face 
    font-family="Font Awesome 5 Free Regular"
    font-weight="400"
    font-stretch="normal"
    units-per-em="2048"
    panose-1="2 0 5 3 0 0 0 0 0 0"
    ascent="1792"
    descent="-256"
    x-height="1252"
    cap-height="1684"
    bbox="-112 -257.015 15968 1793.4"
    underline-thickness="100"
    underline-position="-304"
    unicode-range="U+0020-F5C8"
  />
<missing-glyph horiz-adv-x="1024" 
d="M100 0v1192h824v-1192h-824zM200 100h624v992h-624v-992z" />
    <glyph glyph-name="heart" unicode="Heart" 
d="M1834 1535q109 -92 163 -214t51.5 -242t-47 -233t-125.5 -196l-702 -715q-61 -63 -150 -63t-150 63l-702 715q-81 83 -125.5 196t-47 233t51.5 242.5t163 213.5q113 96 261 121.5t294 -22.5t255 -159q109 111 255 158.5t293.5 22t261.5 -120.5zM1739 785q55 56 85 133
t31.5 159t-35 165.5t-110.5 145.5q-116 98 -274.5 85.5t-271.5 -127.5l-140 -143l-140 143q-113 115 -271 127.5t-275 -85.5q-98 -82 -130 -198t-2.5 -222.5t103.5 -182.5l701 -715q14 -14 28 0z" />
    <glyph glyph-name="star" unicode="Star" horiz-adv-x="2304" 
d="M2112 1106q51 -7 81.5 -45.5t28.5 -87.5t-39 -85l-423 -412l100 -582q9 -51 -19 -92.5t-72.5 -52.5t-93.5 10l-523 275l-523 -275q-49 -21 -93.5 -10t-72.5 52.5t-19 92.5l100 582l-423 412q-37 36 -39 85t28.5 87.5t81.5 45.5l584 85l261 530q23 46 69 63.5t92 0
t69 -63.5l261 -530zM1554 543l403 392l-556 81l-249 504l-249 -504l-556 -81l403 -392l-95 -554l497 261l497 -261z" />
    <glyph glyph-name="user" unicode="User" horiz-adv-x="1792" 
d="M1254 576q146 0 270 -72t196 -196t72 -270v-102q0 -80 -56 -136t-136 -56h-1408q-80 0 -136 56t-56 136v102q0 146 72 270t196 196t270 72q46 0 97 -16t116 -32t145 -16t145 16t116 32t97 16zM1600 -64v102q0 142 -102 244t-244 102q-20 0 -67.5 -16t-124 -32t-166.5 -16
q-89 0 -165.5 16t-124.5 32t-68 16q-142 0 -244 -102t-102 -244v-102h1408zM896 640q-117 0 -223.5 45.5t-184 123t-123 184t-45.5 223.5t45.5 223.5t123 184t184 123t223.5 45.5t223.5 -45.5t184 -123t123 -184t45.5 -223.5t-45.5 -223.5t-123 -184t-184 -123t-223.5 -45.5
zM896 1600q-159 0 -271.5 -112.5t-112.5 -271.5t112.5 -271.5t271.5 -112.5t271.5 112.5t112.5 271.5t-112.5 271.5t-271.5 112.5z" />
    <glyph glyph-name="clock" unicode="Clock" 
d="M1024 1760q202 0 385.5 -78.5t316.5 -211.5t211.5 -316.5t78.5 -385.5t-78.5 -385.5t-211.5 -316.5t-316.5 -211.5t-385.5 -78.5t-385.5 78.5t-316.5 211.5t-211.5 316.5t-78.5 385.5t78.5 385.5t211.5 316.5t316.5 211.5t385.5 78.5zM1024 -32q163 0 311 63.5t255 170.5
t170.5 255t63.5 311t-63.5 311t-170.5 255t-255 170.5t-311 63.5t-311 -63.5t-255 -170.5t-170.5 -255t-63.5 -311t63.5 -311t170.5 -255t255 -170.5t311 -63.5zM1271 386l-339 246q-20 15 -20 39v657q0 20 14 34t34 14h128q20 0 34 -14t14 -34v-567l267 -194q17 -12 20 -31
t-9 -36l-76 -104q-12 -16 -31 -19t-36 9z" />
    <glyph glyph-name="list-alt" unicode="List&#x2d;Alt" 
d="M1856 1664q80 0 136 -56t56 -136v-1408q0 -80 -56 -136t-136 -56h-1664q-80 0 -136 56t-56 136v1408q0 80 56 136t136 56h1664zM1832 64q10 0 17 7t7 17v1360q0 10 -7 17t-17 7h-1616q-10 0 -17 -7t-7 -17v-1360q0 -10 7 -17t17 -7h1616zM1664 432v-96q0 -20 -14 -34
t-34 -14h-800q-20 0 -34 14t-14 34v96q0 20 14 34t34 14h800q20 0 34 -14t14 -34zM1664 816v-96q0 -20 -14 -34t-34 -14h-800q-20 0 -34 14t-14 34v96q0 20 14 34t34 14h800q20 0 34 -14t14 -34zM1664 1200v-96q0 -20 -14 -34t-34 -14h-800q-20 0 -34 14t-14 34v96
q0 20 14 34t34 14h800q20 0 34 -14t14 -34zM656 1152q0 -60 -42 -102t-102 -42t-102 42t-42 102t42 102t102 42t102 -42t42 -102zM656 768q0 -60 -42 -102t-102 -42t-102 42t-42 102t42 102t102 42t102 -42t42 -102zM656 384q0 -60 -42 -102t-102 -42t-102 42t-42 102
t42 102t102 42t102 -42t42 -102z" />
    <glyph glyph-name="flag" unicode="Flag" 
d="M1345 1472q173 0 435 113q66 24 125.5 9.5t101 -67t41.5 -119.5v-959q0 -49 -23 -92t-64 -69q-246 -160 -514 -160q-92 0 -189 20t-164.5 44t-148.5 44t-146 20q-157 0 -270.5 -28t-240.5 -86v-334q0 -26 -19 -45t-45 -19h-64q-26 0 -45 19t-19 45v1626q-44 25 -70 69.5
t-26 96.5q0 83 60.5 140t144.5 52q69 -4 119.5 -53t58.5 -117q1 -6 1 -22q0 -29 -10 -61q157 61 323 61q92 0 189 -20t164.5 -44t148.5 -44t146 -20zM1856 448v960q-109 -51 -250.5 -89.5t-260.5 -38.5q-80 0 -168.5 20t-155.5 44t-155.5 44t-168.5 20q-115 0 -225 -38
t-184 -90v-928q93 43 236.5 69.5t274.5 26.5q80 0 168.5 -20t155.5 -44t155.5 -44t168.5 -20q115 0 225 38t184 90z" />
    <glyph glyph-name="bookmark" unicode="Bookmark" horiz-adv-x="1536" 
d="M1344 1792q80 0 136 -56t56 -136v-1856l-768 448l-768 -448v1856q0 80 56 136t136 56h1152zM1344 78v1498q0 10 -7 17t-17 7h-1104q-10 0 -17 -7t-7 -17v-1498l576 336z" />
    <glyph glyph-name="image" unicode="Image" 
d="M1856 1536q80 0 136 -56t56 -136v-1152q0 -80 -56 -136t-136 -56h-1664q-80 0 -136 56t-56 136v1152q0 80 56 136t136 56h1664zM1832 192q10 0 17 7t7 17v1104q0 10 -7 17t-17 7h-1616q-10 0 -17 -7t-7 -17v-1104q0 -10 7 -17t17 -7h1616zM512 1184q66 0 113 -47t47 -113
t-47 -113t-113 -47t-113 47t-47 113t47 113t113 47zM384 384v192l158 158q14 14 34 14t34 -14l158 -158l478 478q14 14 34 14t34 -14l350 -350v-320h-1280z" />
    <glyph glyph-name="edit" unicode="Edit" horiz-adv-x="2304" 
d="M1609 412l128 128q15 15 35 7.5t20 -29.5v-582q0 -80 -56 -136t-136 -56h-1408q-80 0 -136 56t-56 136v1408q0 80 56 136t136 56h1094q21 0 29.5 -20t-6.5 -35l-128 -128q-9 -9 -23 -9h-966v-1408h1408v454q0 13 9 22zM2236 1220l-1051 -1051l-361 -40
q-79 -9 -135.5 47.5t-47.5 135.5l40 361l1051 1051q69 69 165.5 69t164.5 -69l173 -173q69 -69 69 -166t-68 -165zM1840 1096l-232 232l-743 -743l-29 -261l261 29zM2100 1415l-173 173q-12 12 -29.5 12t-29.5 -12l-124 -124l232 -232l124 123q12 13 12 30.5t-12 29.5z" />
    <glyph glyph-name="times-circle" unicode="Times&#x2d;Circle" 
d="M1024 1760q202 0 385.5 -78.5t316.5 -211.5t211.5 -316.5t78.5 -385.5t-78.5 -385.5t-211.5 -316.5t-316.5 -211.5t-385.5 -78.5t-385.5 78.5t-316.5 211.5t-211.5 316.5t-78.5 385.5t78.5 385.5t211.5 316.5t316.5 211.5t385.5 78.5zM1024 -32q163 0 311 63.5t255 170.5
t170.5 255t63.5 311t-63.5 311t-170.5 255t-255 170.5t-311 63.5t-311 -63.5t-255 -170.5t-170.5 -255t-63.5 -311t63.5 -311t170.5 -255t255 -170.5t311 -63.5zM1431 1017l-249 -249l249 -249q14 -14 14 -34t-14 -34l-90 -90q-14 -14 -34 -14t-34 14l-249 249l-249 -249
q-14 -14 -34 -14t-34 14l-90 90q-14 14 -14 34t14 34l249 249l-249 249q-14 14 -14 34t14 34l90 90q14 14 34 14t34 -14l249 -249l249 249q14 14 34 14t34 -14l90 -90q14 -14 14 -34t-14 -34z" />
    <glyph glyph-name="check-circle" unicode="Check&#x2d;Circle" 
d="M1024 1760q202 0 385.5 -78.5t316.5 -211.5t211.5 -316.5t78.5 -385.5t-78.5 -385.5t-211.5 -316.5t-316.5 -211.5t-385.5 -78.5t-385.5 78.5t-316.5 211.5t-211.5 316.5t-78.5 385.5t78.5 385.5t211.5 316.5t316.5 211.5t385.5 78.5zM1024 1568q-163 0 -311 -63.5
t-255 -170.5t-170.5 -255t-63.5 -311t63.5 -311t170.5 -255t255 -170.5t311 -63.5t311 63.5t255 170.5t170.5 255t63.5 311t-63.5 311t-170.5 255t-255 170.5t-311 63.5zM1585 1047q14 -14 14 -34t-14 -34l-691 -685q-14 -14 -34 -13.5t-34 14.5l-363 366q-14 14 -14 33.5
t14 33.5l91 91q14 14 34 13.5t34 -14.5l239 -241l566 561q14 14 34 14t34 -14z" />
    <glyph glyph-name="question-circle" unicode="Question&#x2d;Circle" 
d="M1024 1760q202 0 385.5 -78.5t316.5 -211.5t211.5 -316.5t78.5 -385.5t-78.5 -385.5t-211.5 -316.5t-316.5 -211.5t-385.5 -78.5t-385.5 78.5t-316.5 211.5t-211.5 316.5t-78.5 385.5t78.5 385.5t211.5 316.5t316.5 211.5t385.5 78.5zM1024 -32q163 0 311 63.5t255 170.5
t170.5 255t63.5 311t-63.5 311t-170.5 255t-255 170.5t-311 63.5t-311 -63.5t-255 -170.5t-170.5 -255t-63.5 -311t63.5 -311t170.5 -255t255 -170.5t311 -63.5zM1453 989q0 -63 -21.5 -113.5t-53.5 -80t-70 -55.5t-70 -42.5t-53.5 -37t-21.5 -43.5v-25q0 -20 -14 -34
t-34 -14h-182q-20 0 -34 14t-14 34v35q0 30 7 57t15.5 46t27 39.5t30.5 32t37.5 28t35.5 22.5t37 21q61 34 87 58t26 60q0 49 -50.5 82t-108.5 33q-64 0 -104.5 -27.5t-91.5 -92.5q-12 -15 -31 -18t-35 9l-112 85q-15 11 -18 30t8 35q74 108 170 162.5t232 54.5
q73 0 146 -27.5t130.5 -74t93.5 -113.5t36 -140zM1192 320q0 -70 -49 -119t-119 -49t-119 49t-49 119t49 119t119 49t119 -49t49 -119z" />
    <glyph glyph-name="eye" unicode="Eye" horiz-adv-x="2304" 
d="M1152 1216h1q185 0 316 -131t131 -316t-131 -316t-316 -131t-315.5 131t-130.5 316q0 68 17 124q51 -29 108 -29q93 0 158.5 65.5t65.5 158.5q0 57 -29 108q62 18 125 20zM2290 826q14 -26 14 -58t-14 -58q-165 -322 -470 -516t-668 -194t-668 194t-470 516
q-14 26 -14 58t14 58q165 322 470 516t668 194t668 -194t470 -516zM1152 192q296 0 551 154.5t401 421.5q-146 267 -401 421.5t-551 154.5t-551 -154.5t-401 -421.5q146 -267 401 -421.5t551 -154.5z" />
    <glyph glyph-name="eye-slash" unicode="Eye&#x2d;Slash" horiz-adv-x="2560" 
d="M2536 -92q24 -20 24 -50q0 -22 -14 -40l-40 -50q-20 -24 -50 -24q-22 0 -40 14l-2392 1870q-24 20 -24 50q0 22 14 40l40 50q20 24 50 24q22 0 40 -14zM1187 1206q50 10 93 10q181 0 310 -125.5t136 -305.5zM1373 330q-50 -10 -93 -10q-181 0 -310 125.5t-136 305.5z
M1280 1344q-108 0 -233 -28l-186 145q211 75 419 75q363 0 668 -194t470 -516q14 -26 14 -58t-14 -58q-36 -69 -97.5 -157t-113.5 -144l-151 118q43 45 94.5 115.5t81.5 125.5q-146 267 -401 421.5t-551 154.5zM1280 192q108 0 233 28l186 -145q-211 -75 -419 -75
q-363 0 -668 194t-470 516q-14 26 -14 58t14 58q35 68 97.5 156.5t114.5 144.5l150 -118q-43 -45 -94.5 -115.5t-81.5 -125.5q146 -267 401 -421.5t551 -154.5z" />
    <glyph glyph-name="calendar-alt" unicode="Calendar&#x2d;Alt" horiz-adv-x="1792" 
d="M592 640h-160q-20 0 -34 14t-14 34v160q0 20 14 34t34 14h160q20 0 34 -14t14 -34v-160q0 -20 -14 -34t-34 -14zM1024 688q0 -20 -14 -34t-34 -14h-160q-20 0 -34 14t-14 34v160q0 20 14 34t34 14h160q20 0 34 -14t14 -34v-160zM1408 688q0 -20 -14 -34t-34 -14h-160
q-20 0 -34 14t-14 34v160q0 20 14 34t34 14h160q20 0 34 -14t14 -34v-160zM1024 304q0 -20 -14 -34t-34 -14h-160q-20 0 -34 14t-14 34v160q0 20 14 34t34 14h160q20 0 34 -14t14 -34v-160zM640 304q0 -20 -14 -34t-34 -14h-160q-20 0 -34 14t-14 34v160q0 20 14 34t34 14
h160q20 0 34 -14t14 -34v-160zM1408 304q0 -20 -14 -34t-34 -14h-160q-20 0 -34 14t-14 34v160q0 20 14 34t34 14h160q20 0 34 -14t14 -34v-160zM1792 1344v-1408q0 -80 -56 -136t-136 -56h-1408q-80 0 -136 56t-56 136v1408q0 80 56 136t136 56h192v208q0 20 14 34t34 14
h160q20 0 34 -14t14 -34v-208h512v208q0 20 14 34t34 14h160q20 0 34 -14t14 -34v-208h192q80 0 136 -56t56 -136zM1600 -40v1192h-1408v-1192q0 -10 7 -17t17 -7h1360q10 0 17 7t7 17z" />
    <glyph glyph-name="comment" unicode="Comment" 
d="M1024 1664q209 0 398.5 -66t326.5 -177t218 -265.5t81 -323.5t-81 -323.5t-218 -265.5t-326.5 -177t-398.5 -66q-188 0 -372 57q-262 -185 -556 -185q-29 0 -53 16t-35 42t-6 54.5t24 49.5q11 11 36.5 41.5t74 106t75.5 145.5q-212 225 -212 505q0 169 81 323.5
t218 265.5t326.5 177t398.5 66zM1024 192q169 0 323 51t265.5 136.5t177.5 204t66 248.5t-66 248.5t-177.5 204t-265.5 136.5t-323 51t-323 -51t-265.5 -136.5t-177.5 -204t-66 -248.5q0 -204 159 -374l83 -87l-43 -112q-31 -81 -79 -161q119 38 230 116l78 55l90 -29
q152 -48 314 -48z" />
    <glyph glyph-name="folder" unicode="Folder" 
d="M1856 1280q80 0 136 -56t56 -136v-896q0 -80 -56 -136t-136 -56h-1664q-80 0 -136 56t-56 136v1152q0 80 56 136t136 56h587q53 0 90 -37l219 -219h768zM1856 192v896h-794q-54 0 -91 37l-219 219h-560v-1152h1664z" />
    <glyph glyph-name="folder-open" unicode="Folder&#x2d;Open" horiz-adv-x="2304" 
d="M2112 896q55 0 100 -28t68 -70.5t23 -95.5t-29 -100l-319 -512q-26 -42 -69.5 -66t-93.5 -24h-1600q-80 0 -136 56t-56 136v1152q0 80 56 136t136 56h640l256 -256h640q80 0 136 -56t56 -136v-192h192zM192 1320v-934l252 417q26 43 70 68t94 25h1120v168q0 10 -7 17
t-17 7h-696l-256 256h-536q-10 0 -17 -7t-7 -17zM1792 192l320 512h-1515l-309 -512h1504z" />
    <glyph glyph-name="chart-bar" unicode="Chart&#x2d;Bar" 
d="M1587 384q-19 0 -35 16t-16 35v922q0 19 16 35t35 16h90q19 0 35 -16t16 -35v-922q0 -19 -16 -35t-35 -16h-90zM819 384q-19 0 -35 16t-16 35v794q0 19 16 35t35 16h90q19 0 35 -16t16 -35v-794q0 -19 -16 -35t-35 -16h-90zM1203 384q-19 0 -35 16t-16 35v538q0 19 16 35
t35 16h90q19 0 35 -16t16 -35v-538q0 -19 -16 -35t-35 -16h-90zM1984 192q26 0 45 -19t19 -45v-64q0 -26 -19 -45t-45 -19h-1856q-53 0 -90.5 37.5t-37.5 90.5v1344q0 26 19 45t45 19h64q26 0 45 -19t19 -45v-1280h1792zM435 384q-19 0 -35 16t-16 35v282q0 19 16 35t35 16
h90q19 0 35 -16t16 -35v-282q0 -19 -16 -35t-35 -16h-90z" />
    <glyph glyph-name="comments" unicode="Comments" horiz-adv-x="2304" 
d="M2128 247q27 -55 65 -109.5t60.5 -81.5t25.5 -28q41 -44 18 -100q-11 -26 -34 -41t-51 -15q-262 0 -501 155q-114 -27 -239 -27q-255 0 -462 108t-303 283q-53 7 -114 20q-239 -155 -501 -155q-28 0 -50.5 15t-33.5 41q-24 55 17 100q8 8 27 30t58 78t66 111
q-176 174 -176 393q0 130 66 248.5t177 204.5t265.5 136.5t323.5 50.5q255 0 463 -108.5t304 -283.5q198 -23 359 -112t253.5 -226t92.5 -294q0 -220 -176 -393zM557 616l79 -18q94 -22 196 -22q170 0 318 61t235 164.5t87 222.5t-87 222.5t-235 164.5t-318 61t-318 -61
t-235 -164.5t-87 -222.5q0 -137 119 -256l99 -98l-62 -124q-17 -35 -32 -60q82 28 172 86zM1993 384q119 119 119 256q0 146 -127 263t-324 161q3 -39 3 -40q0 -159 -94.5 -297t-258 -226.5t-364.5 -109.5q89 -91 228 -145t297 -54q102 0 196 22l80 19l68 -45
q86 -55 172 -85q-18 32 -32 59l-62 124z" />
    <glyph glyph-name="star-half" unicode="Star&#x2d;Half" horiz-adv-x="2304" 
d="M1152 251v-217l-523 -275q-49 -21 -93.5 -10t-72.5 53t-19 92l100 582l-423 412q-37 36 -39 85t28.5 87.5t81.5 45.5l584 85l261 530q17 35 48 53t67 18v-272l-249 -504l-556 -81l403 -392l-95 -554z" />
    <glyph glyph-name="lemon" unicode="Lemon" 
d="M1936 1680q84 -84 106 -192.5t-29 -195.5q-18 -31 -19 -87t5.5 -125t12 -152.5t-5.5 -181t-41 -198t-102 -216t-180 -223.5t-223 -179.5t-216 -101.5t-198.5 -41.5t-181 -6t-152.5 12t-125 5.5t-87 -19q-87 -51 -195 -29.5t-193 106.5q-84 84 -106 192.5t29 195.5
q18 31 19 87t-5.5 125t-12 152.5t5.5 181t41 198t102 216t180 223.5t223 179.5t216 101.5t198.5 41.5t181 6t152.5 -12t125 -5.5t87 19q87 51 195.5 29t192.5 -106zM1847 1389q15 27 8 62t-30 64.5t-54 54t-64.5 30t-61.5 -8.5q-53 -31 -121 -40t-138.5 -3.5t-150 12.5
t-166.5 2t-176.5 -27.5t-191.5 -84t-200 -159.5t-159.5 -200t-84 -191.5t-27.5 -176.5t2 -166.5t12.5 -150t-3.5 -138.5t-40 -121q-15 -27 -8 -62t30 -64.5t54 -54t64.5 -30t61.5 8.5q53 31 121 40t138.5 3.5t150 -12.5t166.5 -2t176.5 27.5t191.5 84t200 159.5t159.5 200
t84 191.5t27.5 176.5t-2 166.5t-12.5 150t3.5 138.5t40 121zM1167 1354q4 -33 -16 -59t-53 -30q-80 -10 -177.5 -70.5t-180 -143t-143 -180t-70.5 -177.5q-4 -33 -30 -53t-59 -16t-53 30t-16 59q13 107 85.5 229t172.5 222t222 172.5t229 85.5q33 4 59 -16t30 -53z" />
    <glyph glyph-name="credit-card" unicode="Credit&#x2d;Card" horiz-adv-x="2304" 
d="M2112 1664q80 0 136 -56t56 -136v-1408q0 -80 -56 -136t-136 -56h-1920q-80 0 -136 56t-56 136v1408q0 80 56 136t136 56h1920zM216 1472q-10 0 -17 -7t-7 -17v-168h1920v168q0 10 -7 17t-17 7h-1872zM2088 64q10 0 17 7t7 17v680h-1920v-680q0 -10 7 -17t17 -7h1872z
M768 464v-160q0 -20 -14 -34t-34 -14h-288q-20 0 -34 14t-14 34v160q0 20 14 34t34 14h288q20 0 34 -14t14 -34zM1536 464v-160q0 -20 -14 -34t-34 -14h-544q-20 0 -34 14t-14 34v160q0 20 14 34t34 14h544q20 0 34 -14t14 -34z" />
    <glyph glyph-name="hdd" unicode="Hdd" horiz-adv-x="2304" 
d="M2270 849q34 -49 34 -109v-548q0 -80 -56 -136t-136 -56h-1920q-80 0 -136 56t-56 136v548q0 25 10 57t24 52l421 605q24 34 70 58t87 24h1080q41 0 87 -24t70 -58zM612 1344l-311 -448h1702l-311 448h-1080zM2112 192v512h-1920v-512h1920zM1984 448q0 -53 -37.5 -90.5
t-90.5 -37.5t-90.5 37.5t-37.5 90.5t37.5 90.5t90.5 37.5t90.5 -37.5t37.5 -90.5zM1600 448q0 -53 -37.5 -90.5t-90.5 -37.5t-90.5 37.5t-37.5 90.5t37.5 90.5t90.5 37.5t90.5 -37.5t37.5 -90.5z" />
    <glyph glyph-name="hand-point-right" unicode="Hand&#x2d;Point&#x2d;Right" 
d="M1715 1242q135 0 234 -99t99 -234q0 -137 -98 -235t-235 -98h-142q-12 -49 -32 -88q16 -138 -64 -251q-4 -162 -110.5 -263.5t-289.5 -101.5h-85q-81 0 -164 25t-138 55t-112.5 55t-94.5 25h-11q-37 -32 -88 -32h-256q-53 0 -90.5 33.5t-37.5 81.5v922q0 48 37.5 81.5
t90.5 33.5h256q51 0 88 -32h11q21 0 48 21.5t73 73.5l1 1q70 81 103 133q15 24 36 64.5t36 71.5t39.5 66.5t49.5 58.5t62 38.5t80 15.5q168 0 268 -93t100 -240q0 -46 -9 -89h345zM1715 768q57 0 99 42t42 99q0 56 -42.5 98.5t-98.5 42.5h-633q0 27 26 68.5t52.5 96.5
t26.5 116q0 74 -49 107.5t-127 33.5q-16 0 -36.5 -33t-52 -95.5t-51.5 -95.5q-43 -69 -123 -160q-61 -69 -114.5 -109.5t-121.5 -48.5v-707q56 -5 121 -31t115 -54t116.5 -51t127.5 -23h85q120 0 171.5 63t31.5 182q46 25 64 89.5t-13 125.5q37 35 50.5 82t4.5 89.5
t-35 72.5h364zM352 256q0 40 -28 68t-68 28t-68 -28t-28 -68t28 -68t68 -28t68 28t28 68z" />
    <glyph glyph-name="hand-point-left" unicode="Hand&#x2d;Point&#x2d;Left" 
d="M0 909q0 135 99 234t234 99h345q-9 50 -9 89q0 147 100 240t268 93q43 0 80 -15.5t62 -38.5t49.5 -58.5t39.5 -66.5t36 -71.5t36 -64.5q33 -52 103 -133l1 -1q46 -52 73 -73.5t48 -21.5h11q37 32 88 32h256q53 0 90.5 -33.5t37.5 -81.5v-922q0 -48 -37.5 -81.5
t-90.5 -33.5h-256q-51 0 -88 32h-11q-37 0 -94.5 -25t-112.5 -55t-138 -55t-164 -25h-85q-183 0 -289.5 101.5t-110.5 263.5q-80 113 -64 251q-20 39 -32 88h-142q-137 0 -235 98t-98 235zM192 909q0 -57 42 -99t99 -42h364q-26 -30 -35 -72.5t4.5 -89.5t50.5 -82
q-31 -61 -13 -125.5t64 -89.5q-20 -119 31.5 -182t171.5 -63h85q61 0 127.5 23t116.5 51t115 54t121 31v707q-68 8 -121.5 48.5t-114.5 109.5q-80 91 -123 160q-20 33 -51.5 95.5t-52 95.5t-36.5 33q-78 0 -127 -33.5t-49 -107.5q0 -61 26.5 -116t52.5 -96.5t26 -68.5h-633
q-56 0 -98.5 -42.5t-42.5 -98.5zM1792 352q-40 0 -68 -28t-28 -68t28 -68t68 -28t68 28t28 68t-28 68t-68 28z" />
    <glyph glyph-name="hand-point-up" unicode="Hand&#x2d;Point&#x2d;Up" horiz-adv-x="1792" 
d="M422 1459q0 135 99 234t234 99q137 0 235 -98t98 -235v-142q49 -12 88 -32q138 16 251 -64q162 -4 263.5 -110.5t101.5 -289.5v-85q0 -81 -25 -164t-55 -138t-55 -112.5t-25 -94.5v-11q32 -37 32 -88v-256q0 -53 -33.5 -90.5t-81.5 -37.5h-922q-48 0 -81.5 37.5
t-33.5 90.5v256q0 51 32 88v11q0 21 -21.5 48t-73.5 73l-1 1q-81 70 -133 103q-24 15 -64.5 36t-71.5 36t-66.5 39.5t-58.5 49.5t-38.5 62t-15.5 80q0 168 93 268t240 100q46 0 89 -9v345zM896 1459q0 57 -42 99t-99 42q-56 0 -98.5 -42.5t-42.5 -98.5v-633q-27 0 -68.5 26
t-96.5 52.5t-116 26.5q-74 0 -107.5 -49t-33.5 -127q0 -16 33 -36.5t95.5 -52t95.5 -51.5q69 -43 160 -123q69 -61 109.5 -114.5t48.5 -121.5h707q5 56 31 121t54 115t51 116.5t23 127.5v85q0 120 -63 171.5t-182 31.5q-25 46 -89.5 64t-125.5 -13q-35 37 -82 50.5
t-89.5 4.5t-72.5 -35v364zM1408 96q-40 0 -68 -28t-28 -68t28 -68t68 -28t68 28t28 68t-28 68t-68 28z" />
    <glyph glyph-name="hand-point-down" unicode="Hand&#x2d;Point&#x2d;Down" horiz-adv-x="1792" 
d="M755 -256q-135 0 -234 99t-99 234v345q-50 -9 -89 -9q-147 0 -240 100t-93 268q0 43 15.5 80t38.5 62t58.5 49.5t66.5 39.5t71.5 36t64.5 36q52 33 133 103l1 1q52 46 73.5 73t21.5 48v11q-32 37 -32 88v256q0 53 33.5 90.5t81.5 37.5h922q48 0 81.5 -37.5t33.5 -90.5
v-256q0 -51 -32 -88v-11q0 -37 25 -94.5t55 -112.5t55 -138t25 -164v-85q0 -183 -101.5 -289.5t-263.5 -110.5q-113 -80 -251 -64q-39 -20 -88 -32v-142q0 -137 -98 -235t-235 -98zM755 -64q57 0 99 42t42 99v364q30 -26 72.5 -35t89.5 4.5t82 50.5q61 -31 125.5 -13
t89.5 64q119 -20 182 31.5t63 171.5v85q0 61 -23 127.5t-51 116.5t-54 115t-31 121h-707q-8 -68 -48.5 -121.5t-109.5 -114.5q-91 -80 -160 -123q-33 -20 -95.5 -51.5t-95.5 -52t-33 -36.5q0 -78 33.5 -127t107.5 -49q61 0 116 26.5t96.5 52.5t68.5 26v-633
q0 -56 42.5 -98.5t98.5 -42.5zM1312 1536q0 -40 28 -68t68 -28t68 28t28 68t-28 68t-68 28t-68 -28t-28 -68z" />
    <glyph glyph-name="copy" unicode="Copy" horiz-adv-x="1792" 
d="M1736 1528q23 -23 39.5 -63t16.5 -73v-1072q0 -80 -56 -136t-136 -56h-320v-192q0 -80 -56 -136t-136 -56h-896q-80 0 -136 56t-56 136v1280q0 80 56 136t136 56h320v192q0 80 56 136t136 56h688q33 0 73 -16.5t63 -39.5zM1064 -64q10 0 17 7t7 17v168h-384
q-80 0 -136 56t-56 136v896h-296q-10 0 -17 -7t-7 -17v-1232q0 -10 7 -17t17 -7h848zM1576 320q10 0 17 7t7 17v808h-352q-40 0 -68 28t-28 68v352h-424q-10 0 -17 -7t-7 -17v-1232q0 -10 7 -17t17 -7h848zM1600 1344v39q0 10 -7 17l-193 193q-9 7 -17 7h-39v-256h256z" />
    <glyph glyph-name="save" unicode="Save" horiz-adv-x="1792" 
d="M1736 1272q23 -23 39.5 -63t16.5 -73v-1072q0 -80 -56 -136t-136 -56h-1408q-80 0 -136 56t-56 136v1408q0 80 56 136t136 56h1072q33 0 73 -16.5t63 -39.5zM1088 1472h-512v-320h512v320zM1576 64q10 0 17 7t7 17v1039q0 10 -7 17l-313 312v-400q0 -40 -28 -68t-68 -28
h-704q-40 0 -68 28t-28 68v416h-168q-10 0 -17 -7t-7 -17v-1360q0 -10 7 -17t17 -7h1360zM896 864q146 0 249 -103t103 -249t-103 -249t-249 -103t-249 103t-103 249t103 249t249 103zM896 352q66 0 113 47t47 113t-47 113t-113 47t-113 -47t-47 -113t47 -113t113 -47z" />
    <glyph glyph-name="square" unicode="Square" horiz-adv-x="1792" 
d="M1600 1664q80 0 136 -56t56 -136v-1408q0 -80 -56 -136t-136 -56h-1408q-80 0 -136 56t-56 136v1408q0 80 56 136t136 56h1408zM1576 64q10 0 17 7t7 17v1360q0 10 -7 17t-17 7h-1360q-10 0 -17 -7t-7 -17v-1360q0 -10 7 -17t17 -7h1360z" />
    <glyph glyph-name="envelope" unicode="Envelope" 
d="M1856 1536q80 0 136 -56t56 -136v-1152q0 -80 -56 -136t-136 -56h-1664q-80 0 -136 56t-56 136v1152q0 80 56 136t136 56h1664zM1856 1344h-1664v-163q193 -156 538 -426q10 -8 46 -38t61.5 -49.5t61 -43.5t67.5 -36.5t58 -11.5q26 0 58 12t68 36.5t61 43.5t61.5 49.5
t45.5 37.5q345 270 538 426v163zM192 192h1664v742q-114 -90 -420 -330q-12 -10 -49 -40.5t-60.5 -49t-65 -46.5t-75.5 -44t-77.5 -28t-84.5 -12t-85 12t-78 28.5t-75.5 44.5t-65 46.5t-60.5 49t-48 39.5q-306 240 -420 330v-742z" />
    <glyph glyph-name="lightbulb" unicode="Lightbulb" horiz-adv-x="1408" 
d="M704 1472q26 0 45 -19t19 -45t-19 -45t-45 -19q-106 0 -181 -75t-75 -181q0 -26 -19 -45t-45 -19t-45 19t-19 45q0 159 112.5 271.5t271.5 112.5zM384 -45v173h640v-173q0 -19 -11 -35l-98 -147q-19 -29 -53 -29h-316q-34 0 -53 29l-98 147q-11 16 -11 35zM704 1792
q143 0 273.5 -55.5t225 -150t150 -225t55.5 -273.5q0 -263 -174 -463q-57 -65 -120 -171t-90 -198h-192q0 31 9 58q77 242 248 437q127 144 127 337q0 104 -40.5 198.5t-109.5 163.5t-163.5 109.5t-198.5 40.5q-101 0 -195 -39t-164 -106t-111.5 -163t-41.5 -204
q0 -191 127 -337q174 -200 248 -438q9 -27 9 -57h-192q-27 92 -90 198t-120 171q-174 200 -174 463q0 185 89.5 346t252.5 259.5t362 98.5z" />
    <glyph glyph-name="bell" unicode="Bell" horiz-adv-x="1792" 
d="M1758 343q34 -37 34 -87q0 -51 -36.5 -89.5t-91.5 -38.5h-1536q-55 0 -91.5 38.5t-36.5 89.5q0 50 34 87q5 5 15 16q34 36 53.5 59t53 78t52 112t33.5 150t15 202q0 231 144.5 403t367.5 218v83q0 53 37.5 90.5t90.5 37.5t90.5 -37.5t37.5 -90.5v-83q223 -46 367.5 -218
t144.5 -403q0 -109 15 -202t33.5 -150t52 -112t52.5 -78t54 -59q10 -11 15 -16zM270 320h1252q-178 235 -178 638v2q0 185 -131.5 316.5t-316.5 131.5t-316.5 -131.5t-131.5 -316.5v-2q0 -403 -178 -638zM896 -256q-106 0 -181 75t-75 181h512q0 -106 -75 -181t-181 -75z
" />
    <glyph glyph-name="hospital" unicode="Hospital" horiz-adv-x="1792" 
d="M512 816v160q0 20 14 34t34 14h160q20 0 34 -14t14 -34v-160q0 -20 -14 -34t-34 -14h-160q-20 0 -34 14t-14 34zM1072 768q-20 0 -34 14t-14 34v160q0 20 14 34t34 14h160q20 0 34 -14t14 -34v-160q0 -20 -14 -34t-34 -14h-160zM768 432q0 -20 -14 -34t-34 -14h-160
q-20 0 -34 14t-14 34v160q0 20 14 34t34 14h160q20 0 34 -14t14 -34v-160zM1072 384q-20 0 -34 14t-14 34v160q0 20 14 34t34 14h160q20 0 34 -14t14 -34v-160q0 -20 -14 -34t-34 -14h-160zM1792 -112v-144h-1792v144q0 20 14 34t34 14h78v1516q0 35 28 59.5t68 24.5h354
v160q0 40 28 68t68 28h448q40 0 68 -28t28 -68v-160h354q40 0 68 -24.5t28 -59.5v-1516h78q20 0 34 -14t14 -34zM318 -60h450v268q0 20 14 34t34 14h160q20 0 34 -14t14 -34v-268h450v1404h-258v-96q0 -40 -28 -68t-68 -28h-448q-40 0 -68 28t-28 68v96h-258v-1404z
M1064 1536h-104v104q0 10 -7 17t-17 7h-80q-10 0 -17 -7t-7 -17v-104h-104q-10 0 -17 -7t-7 -17v-80q0 -10 7 -17t17 -7h104v-104q0 -10 7 -17t17 -7h80q10 0 17 7t7 17v104h104q10 0 17 7t7 17v80q0 10 -7 17t-17 7z" />
    <glyph glyph-name="plus-square" unicode="Plus&#x2d;Square" horiz-adv-x="1792" 
d="M1408 832v-128q0 -20 -14 -34t-34 -14h-352v-352q0 -20 -14 -34t-34 -14h-128q-20 0 -34 14t-14 34v352h-352q-20 0 -34 14t-14 34v128q0 20 14 34t34 14h352v352q0 20 14 34t34 14h128q20 0 34 -14t14 -34v-352h352q20 0 34 -14t14 -34zM1792 1472v-1408q0 -80 -56 -136
t-136 -56h-1408q-80 0 -136 56t-56 136v1408q0 80 56 136t136 56h1408q80 0 136 -56t56 -136zM1600 88v1360q0 10 -7 17t-17 7h-1360q-10 0 -17 -7t-7 -17v-1360q0 -10 7 -17t17 -7h1360q10 0 17 7t7 17z" />
    <glyph glyph-name="circle" unicode="Circle" 
d="M1024 1760q202 0 385.5 -78.5t316.5 -211.5t211.5 -316.5t78.5 -385.5t-78.5 -385.5t-211.5 -316.5t-316.5 -211.5t-385.5 -78.5t-385.5 78.5t-316.5 211.5t-211.5 316.5t-78.5 385.5t78.5 385.5t211.5 316.5t316.5 211.5t385.5 78.5zM1024 -32q163 0 311 63.5t255 170.5
t170.5 255t63.5 311t-63.5 311t-170.5 255t-255 170.5t-311 63.5t-311 -63.5t-255 -170.5t-170.5 -255t-63.5 -311t63.5 -311t170.5 -255t255 -170.5t311 -63.5z" />
    <glyph glyph-name="smile" unicode="Smile" horiz-adv-x="1984" 
d="M992 1760q202 0 385.5 -78.5t316.5 -211.5t211.5 -316.5t78.5 -385.5t-78.5 -385.5t-211.5 -316.5t-316.5 -211.5t-385.5 -78.5t-385.5 78.5t-316.5 211.5t-211.5 316.5t-78.5 385.5t78.5 385.5t211.5 316.5t316.5 211.5t385.5 78.5zM992 -32q162 0 310.5 63.5
t255.5 170.5t170.5 255.5t63.5 310.5t-63.5 310.5t-170.5 255.5t-255.5 170.5t-310.5 63.5t-310.5 -63.5t-255.5 -170.5t-170.5 -255.5t-63.5 -310.5t63.5 -310.5t170.5 -255.5t255.5 -170.5t310.5 -63.5zM672 832q-53 0 -90.5 37.5t-37.5 90.5t37.5 90.5t90.5 37.5
t90.5 -37.5t37.5 -90.5t-37.5 -90.5t-90.5 -37.5zM1312 832q-53 0 -90.5 37.5t-37.5 90.5t37.5 90.5t90.5 37.5t90.5 -37.5t37.5 -90.5t-37.5 -90.5t-90.5 -37.5zM1328 542q25 31 65 34.5t70 -22.5q31 -26 34.5 -65t-21.5 -70q-90 -108 -217 -167.5t-267 -59.5t-267 59.5
t-217 167.5q-25 31 -21.5 70t34.5 65q30 26 70 22.5t65 -34.5q62 -75 150.5 -116.5t185.5 -41.5t185.5 41.5t150.5 116.5z" />
    <glyph glyph-name="frown" unicode="Frown" horiz-adv-x="1984" 
d="M992 1760q202 0 385.5 -78.5t316.5 -211.5t211.5 -316.5t78.5 -385.5t-78.5 -385.5t-211.5 -316.5t-316.5 -211.5t-385.5 -78.5t-385.5 78.5t-316.5 211.5t-211.5 316.5t-78.5 385.5t78.5 385.5t211.5 316.5t316.5 211.5t385.5 78.5zM992 -32q162 0 310.5 63.5
t255.5 170.5t170.5 255.5t63.5 310.5t-63.5 310.5t-170.5 255.5t-255.5 170.5t-310.5 63.5t-310.5 -63.5t-255.5 -170.5t-170.5 -255.5t-63.5 -310.5t63.5 -310.5t170.5 -255.5t255.5 -170.5t310.5 -63.5zM672 832q-53 0 -90.5 37.5t-37.5 90.5t37.5 90.5t90.5 37.5
t90.5 -37.5t37.5 -90.5t-37.5 -90.5t-90.5 -37.5zM1312 1088q53 0 90.5 -37.5t37.5 -90.5t-37.5 -90.5t-90.5 -37.5t-90.5 37.5t-37.5 90.5t37.5 90.5t90.5 37.5zM992 576q121 0 229.5 -50.5t185.5 -143.5q26 -31 22.5 -71t-34.5 -65q-33 -26 -71.5 -21.5t-63.5 34.5
q-49 60 -119.5 92.5t-148.5 32.5t-148.5 -32.5t-119.5 -92.5q-26 -31 -65 -34.5t-70 21.5t-34.5 65t22.5 71q77 93 185.5 143.5t229.5 50.5z" />
    <glyph glyph-name="meh" unicode="Meh" horiz-adv-x="1984" 
d="M992 1760q202 0 385.5 -78.5t316.5 -211.5t211.5 -316.5t78.5 -385.5t-78.5 -385.5t-211.5 -316.5t-316.5 -211.5t-385.5 -78.5t-385.5 78.5t-316.5 211.5t-211.5 316.5t-78.5 385.5t78.5 385.5t211.5 316.5t316.5 211.5t385.5 78.5zM992 -32q162 0 310.5 63.5
t255.5 170.5t170.5 255.5t63.5 310.5t-63.5 310.5t-170.5 255.5t-255.5 170.5t-310.5 63.5t-310.5 -63.5t-255.5 -170.5t-170.5 -255.5t-63.5 -310.5t63.5 -310.5t170.5 -255.5t255.5 -170.5t310.5 -63.5zM672 832q-53 0 -90.5 37.5t-37.5 90.5t37.5 90.5t90.5 37.5
t90.5 -37.5t37.5 -90.5t-37.5 -90.5t-90.5 -37.5zM1312 1088q53 0 90.5 -37.5t37.5 -90.5t-37.5 -90.5t-90.5 -37.5t-90.5 37.5t-37.5 90.5t37.5 90.5t90.5 37.5zM1344 512q40 0 68 -28t28 -68t-28 -68t-68 -28h-704q-40 0 -68 28t-28 68t28 68t68 28h704z" />
    <glyph glyph-name="keyboard" unicode="Keyboard" horiz-adv-x="2304" 
d="M2112 1536q80 0 136 -56t56 -136v-1152q0 -80 -56 -136t-136 -56h-1920q-80 0 -136 56t-56 136v1152q0 80 56 136t136 56h1920zM2144 192v1152q0 14 -9 23t-23 9h-1920q-14 0 -23 -9t-9 -23v-1152q0 -14 9 -23t23 -9h1920q14 0 23 9t9 23zM680 712q0 -20 -14 -34t-34 -14
h-112q-20 0 -34 14t-14 34v112q0 20 14 34t34 14h112q20 0 34 -14t14 -34v-112zM1064 712q0 -20 -14 -34t-34 -14h-112q-20 0 -34 14t-14 34v112q0 20 14 34t34 14h112q20 0 34 -14t14 -34v-112zM1448 712q0 -20 -14 -34t-34 -14h-112q-20 0 -34 14t-14 34v112q0 20 14 34
t34 14h112q20 0 34 -14t14 -34v-112zM1832 712q0 -20 -14 -34t-34 -14h-112q-20 0 -34 14t-14 34v112q0 20 14 34t34 14h112q20 0 34 -14t14 -34v-112zM488 384q0 -20 -14 -34t-34 -14h-112q-20 0 -34 14t-14 34v112q0 20 14 34t34 14h112q20 0 34 -14t14 -34v-112z
M2024 384q0 -20 -14 -34t-34 -14h-112q-20 0 -34 14t-14 34v112q0 20 14 34t34 14h112q20 0 34 -14t14 -34v-112zM488 1040q0 -20 -14 -34t-34 -14h-112q-20 0 -34 14t-14 34v112q0 20 14 34t34 14h112q20 0 34 -14t14 -34v-112zM872 1040q0 -20 -14 -34t-34 -14h-112
q-20 0 -34 14t-14 34v112q0 20 14 34t34 14h112q20 0 34 -14t14 -34v-112zM1256 1040q0 -20 -14 -34t-34 -14h-112q-20 0 -34 14t-14 34v112q0 20 14 34t34 14h112q20 0 34 -14t14 -34v-112zM1640 1040q0 -20 -14 -34t-34 -14h-112q-20 0 -34 14t-14 34v112q0 20 14 34
t34 14h112q20 0 34 -14t14 -34v-112zM2024 1040q0 -20 -14 -34t-34 -14h-112q-20 0 -34 14t-14 34v112q0 20 14 34t34 14h112q20 0 34 -14t14 -34v-112zM1632 408q0 -20 -14 -34t-34 -14h-864q-20 0 -34 14t-14 34v64q0 20 14 34t34 14h864q20 0 34 -14t14 -34v-64z" />
    <glyph glyph-name="calendar" unicode="Calendar" horiz-adv-x="1792" 
d="M1600 1536q80 0 136 -56t56 -136v-1408q0 -80 -56 -136t-136 -56h-1408q-80 0 -136 56t-56 136v1408q0 80 56 136t136 56h192v208q0 20 14 34t34 14h160q20 0 34 -14t14 -34v-208h512v208q0 20 14 34t34 14h160q20 0 34 -14t14 -34v-208h192zM1576 -64q10 0 17 7t7 17
v1192h-1408v-1192q0 -10 7 -17t17 -7h1360z" />
    <glyph glyph-name="play-circle" unicode="Play&#x2d;Circle" 
d="M1487 840q49 -28 49 -84.5t-49 -83.5l-704 -404q-48 -26 -95.5 1.5t-47.5 82.5v832q0 55 47.5 82.5t95.5 1.5zM2016 768q0 -202 -78.5 -385.5t-211.5 -316.5t-316.5 -211.5t-385.5 -78.5t-385.5 78.5t-316.5 211.5t-211.5 316.5t-78.5 385.5t78.5 385.5t211.5 316.5
t316.5 211.5t385.5 78.5t385.5 -78.5t316.5 -211.5t211.5 -316.5t78.5 -385.5zM224 768q0 -163 63.5 -311t170.5 -255t255 -170.5t311 -63.5t311 63.5t255 170.5t170.5 255t63.5 311t-63.5 311t-170.5 255t-255 170.5t-311 63.5t-311 -63.5t-255 -170.5t-170.5 -255
t-63.5 -311z" />
    <glyph glyph-name="minus-square" unicode="Minus&#x2d;Square" horiz-adv-x="1792" 
d="M432 656q-20 0 -34 14t-14 34v128q0 20 14 34t34 14h928q20 0 34 -14t14 -34v-128q0 -20 -14 -34t-34 -14h-928zM1792 1472v-1408q0 -80 -56 -136t-136 -56h-1408q-80 0 -136 56t-56 136v1408q0 80 56 136t136 56h1408q80 0 136 -56t56 -136zM1600 88v1360q0 10 -7 17
t-17 7h-1360q-10 0 -17 -7t-7 -17v-1360q0 -10 7 -17t17 -7h1360q10 0 17 7t7 17z" />
    <glyph glyph-name="check-square" unicode="Check&#x2d;Square" horiz-adv-x="1792" 
d="M1600 1664q80 0 136 -56t56 -136v-1408q0 -80 -56 -136t-136 -56h-1408q-80 0 -136 56t-56 136v1408q0 80 56 136t136 56h1408zM1600 64v1408h-1408v-1408h1408zM1457 1031l-691 -685q-14 -14 -34 -14t-34 14l-363 366q-14 14 -14 34t14 34l91 90q14 14 34 14t34 -14
l239 -241l566 561q14 14 34 14t34 -14l90 -91q14 -14 14 -34t-14 -34z" />
    <glyph glyph-name="share-square" unicode="Share&#x2d;Square" horiz-adv-x="2304" 
d="M2248 1160q56 -56 56 -136t-56 -136l-576 -576q-43 -43 -101.5 -52.5t-108 10.5t-84 68t-34.5 110v215q-67 -5 -120 -13t-93 -17.5t-68 -23.5t-46.5 -28t-27 -35t-12 -39.5t1 -46.5t11 -52t18.5 -60q14 -51 6.5 -98t-39 -82t-71 -55t-89 -17.5t-92.5 29.5
q-159 99 -249 248.5t-90 330.5q0 237 145 397q120 132 332 198q185 58 483 72v229q0 62 34.5 110t84 68t108 10.5t101.5 -52.5zM1536 448l576 576l-576 576v-416q-84 -1 -150.5 -3t-149 -8.5t-147 -17.5t-135.5 -29t-124 -43t-103 -61.5t-81.5 -81.5t-50.5 -105t-19 -131
q0 -75 21.5 -142t59.5 -118t79 -88.5t89 -67.5q-33 102 -37 183.5t17.5 140.5t71 102.5t112.5 71t153.5 44.5t183 24t210.5 9v-415zM1635 110q46 13 84 37q24 15 48.5 1t24.5 -42v-170q0 -80 -56 -136t-136 -56h-1408q-80 0 -136 56t-56 136v1408q0 80 56 136t136 56h528
q20 0 34 -14t14 -34v-18q0 -33 -30 -45q-77 -30 -152 -74q-10 -7 -26 -7h-344q-10 0 -17 -7t-7 -17v-1360q0 -10 7 -17t17 -7h1360q10 0 17 7t7 17v104q0 16 9.5 29t25.5 17z" />
    <glyph glyph-name="compass" unicode="Compass" horiz-adv-x="1984" 
d="M1392 1273q50 22 89 -16.5t16 -88.5l-264 -578q-8 -18 -26.5 -36.5t-36.5 -26.5l-578 -264q-32 -14 -63.5 -1t-42.5 42t1 64l264 578q8 18 26.5 36.5t36.5 26.5zM1082 678q38 38 38 90t-38 90t-90 38t-90 -38t-38 -90t38 -90t90 -38t90 38zM992 1760q202 0 385.5 -78.5
t316.5 -211.5t211.5 -316.5t78.5 -385.5t-78.5 -385.5t-211.5 -316.5t-316.5 -211.5t-385.5 -78.5t-385.5 78.5t-316.5 211.5t-211.5 316.5t-78.5 385.5t78.5 385.5t211.5 316.5t316.5 211.5t385.5 78.5zM992 -32q162 0 310.5 63.5t255.5 170.5t170.5 255.5t63.5 310.5
t-63.5 310.5t-170.5 255.5t-255.5 170.5t-310.5 63.5t-310.5 -63.5t-255.5 -170.5t-170.5 -255.5t-63.5 -310.5t63.5 -310.5t170.5 -255.5t255.5 -170.5t310.5 -63.5z" />
    <glyph glyph-name="caret-square-down" unicode="Caret&#x2d;Square&#x2d;Down" horiz-adv-x="1792" 
d="M500 960h792q32 0 44.5 -30t-10.5 -52l-396 -393q-14 -14 -34 -14t-34 14l-395 393q-23 22 -11 52t44 30zM1792 1472v-1408q0 -80 -56 -136t-136 -56h-1408q-80 0 -136 56t-56 136v1408q0 80 56 136t136 56h1408q80 0 136 -56t56 -136zM1600 88v1360q0 10 -7 17t-17 7
h-1360q-10 0 -17 -7t-7 -17v-1360q0 -10 7 -17t17 -7h1360q10 0 17 7t7 17z" />
    <glyph glyph-name="caret-square-up" unicode="Caret&#x2d;Square&#x2d;Up" horiz-adv-x="1792" 
d="M1292 576h-792q-32 0 -44.5 30t10.5 52l396 393q14 14 34 14t34 -14l395 -393q23 -22 11 -52t-44 -30zM1792 1472v-1408q0 -80 -56 -136t-136 -56h-1408q-80 0 -136 56t-56 136v1408q0 80 56 136t136 56h1408q80 0 136 -56t56 -136zM1600 88v1360q0 10 -7 17t-17 7h-1360
q-10 0 -17 -7t-7 -17v-1360q0 -10 7 -17t17 -7h1360q10 0 17 7t7 17z" />
    <glyph glyph-name="caret-square-right" unicode="Caret&#x2d;Square&#x2d;Right" horiz-adv-x="1792" 
d="M704 372v792q0 32 30 44.5t52 -10.5l393 -396q14 -14 14 -34t-14 -34l-393 -395q-22 -23 -52 -11t-30 44zM1792 1472v-1408q0 -80 -56 -136t-136 -56h-1408q-80 0 -136 56t-56 136v1408q0 80 56 136t136 56h1408q80 0 136 -56t56 -136zM1600 88v1360q0 10 -7 17t-17 7
h-1360q-10 0 -17 -7t-7 -17v-1360q0 -10 7 -17t17 -7h1360q10 0 17 7t7 17z" />
    <glyph glyph-name="file" unicode="File" horiz-adv-x="1536" 
d="M1480 1400q56 -56 56 -136v-1328q0 -80 -56 -136t-136 -56h-1152q-80 0 -136 56t-56 136v1664q0 80 56 136t136 56h816q80 0 136 -56zM1328 1280l-304 304v-304h304zM192 -64h1152v1152h-416q-40 0 -68 28t-28 68v416h-640v-1664z" />
    <glyph glyph-name="file-alt" unicode="File&#x2d;Alt" horiz-adv-x="1536" 
d="M1152 800v-112q0 -20 -14 -34t-34 -14h-672q-20 0 -34 14t-14 34v112q0 20 14 34t34 14h672q20 0 34 -14t14 -34zM1104 512q20 0 34 -14t14 -34v-112q0 -20 -14 -34t-34 -14h-672q-20 0 -34 14t-14 34v112q0 20 14 34t34 14h672zM1536 1264v-1328q0 -80 -56 -136
t-136 -56h-1152q-80 0 -136 56t-56 136v1664q0 80 56 136t136 56h816q80 0 136 -56l336 -336q56 -56 56 -136zM1024 1584v-304h304zM1344 -64v1152h-416q-40 0 -68 28t-28 68v416h-640v-1664h1152z" />
    <glyph glyph-name="thumbs-up" unicode="Thumbs&#x2d;Up" 
d="M1865 645q27 -132 -36 -252q18 -146 -69 -268q-3 -176 -116 -278.5t-336 -102.5h-89q-114 0 -213 16t-165.5 39.5t-122 46.5t-109 40t-101.5 18q-11 -42 -45.5 -69t-78.5 -27h-256q-53 0 -90.5 37.5t-37.5 90.5v960q0 53 37.5 90.5t90.5 37.5h395q40 35 135.5 162.5
t139.5 171.5q12 12 23.5 51t20.5 86t28 100.5t43.5 96.5t69 71.5t102.5 28.5q179 0 280 -104t101 -315q0 -97 -35 -186h146q143 0 243 -103.5t100 -238.5q0 -107 -55 -200zM1618 430q41 39 55.5 90.5t4 96.5t-38.5 75q30 0 59.5 48.5t29.5 103.5q0 58 -44.5 104.5
t-106.5 46.5h-416q0 50 17.5 100.5t39 86t39 87.5t17.5 104q0 28 -0.5 43t-4 43t-10.5 44t-20.5 37t-33 32.5t-50.5 19.5t-70 8q-25 -25 -40 -75.5t-21.5 -99.5t-29 -107t-60.5 -96q-32 -32 -87.5 -104.5t-100 -131.5t-98 -106.5t-92.5 -47.5h-44v-745q71 0 157.5 -23.5
t158 -52t173.5 -52t198 -23.5h151q116 0 175 63t37 201q49 27 69.5 95.5t-13.5 134.5zM352 64q0 40 -28 68t-68 28t-68 -28t-28 -68t28 -68t68 -28t68 28t28 68z" />
    <glyph glyph-name="thumbs-down" unicode="Thumbs&#x2d;Down" 
d="M1865 891q55 -93 55 -200q0 -135 -100 -238.5t-243 -103.5h-146q35 -89 35 -186q0 -211 -101 -315t-280 -104q-58 0 -102.5 28.5t-69 71.5t-43.5 96.5t-28 100.5t-20.5 86t-23.5 51q-44 44 -139.5 171.5t-135.5 162.5h-28q-17 -29 -46.5 -46.5t-64.5 -17.5h-256
q-53 0 -90.5 37.5t-37.5 90.5v960q0 53 37.5 90.5t90.5 37.5h256q48 0 85 -32h43q44 0 95 16.5t107 40t123 47t167 40t215 16.5h89q223 0 336 -102.5t116 -278.5q87 -122 69 -268q63 -120 36 -252zM256 608q40 0 68 28t28 68t-28 68t-68 28t-68 -28t-28 -68t28 -68t68 -28z
M1577 541q62 0 106.5 46.5t44.5 104.5q0 55 -29.5 103.5t-59.5 48.5q28 30 38.5 75t-4 96.5t-55.5 90.5q34 66 13.5 134.5t-69.5 95.5q22 138 -37 201t-175 63h-151q-96 0 -198 -23.5t-173.5 -52t-158 -52t-157.5 -23.5v-745h44q39 0 92.5 -47.5t98 -106.5t100 -131.5
t87.5 -104.5q38 -38 60.5 -96t29 -107t21.5 -99.5t40 -75.5q39 0 70 8t50.5 19.5t33 32.5t20.5 37t10.5 44t4 43t0.5 43q0 52 -17.5 104t-39 87.5t-39 86t-17.5 100.5h416z" />
    <glyph glyph-name="sun" unicode="Sun" 
d="M1977 904q71 -47 71 -134q0 -40 -19 -75.5t-52 -58.5l-239 -162l55 -284q16 -85 -45 -146t-145 -44l-283 55l-162 -240q-23 -33 -58.5 -52t-75.5 -19q-86 0 -134 72l-162 239l-283 -55q-84 -16 -145 45q-60 60 -44 145l54 284l-239 162q-33 23 -52 58.5t-19 75.5
q0 87 71 134l239 162l-54 284q-16 86 44 146t145 44l283 -54l162 239q29 43 81.5 59t105 0t81.5 -59l162 -239l283 54q85 16 145 -44t44 -146l-54 -284zM1525 562l307 208l-307 208l71 365l-364 -71l-208 308l-207 -307l-364 70l70 -365l-307 -208l307 -208l-70 -364l363 70
l208 -308l208 308l364 -71zM1024 1184q172 0 294 -122t122 -294t-122 -294t-294 -122t-294 122t-122 294t122 294t294 122zM1024 544q93 0 158.5 65.5t65.5 158.5t-65.5 158.5t-158.5 65.5t-158.5 -65.5t-65.5 -158.5t65.5 -158.5t158.5 -65.5z" />
    <glyph glyph-name="moon" unicode="Moon" 
d="M1117 -256q-208 0 -398 81t-327 218.5t-218 327t-81 397.5t81 398t218.5 327t327 218t397.5 81q90 0 186 -17q51 -10 89 -41t53.5 -73.5t14.5 -87.5t-26 -87t-70 -67q-125 -71 -197.5 -194.5t-72.5 -268.5q0 -123 53 -231t139.5 -179.5t203 -103.5t237.5 -9
q51 10 97.5 -5.5t76 -49.5t45.5 -76t7.5 -90.5t-41.5 -88.5q-145 -179 -353 -279t-442 -100zM1117 1600q-169 0 -323.5 -66t-265.5 -177t-177 -265.5t-66 -323.5t66 -323.5t177 -265.5t265.5 -177t323.5 -66q192 0 360.5 82t285.5 226q-112 -23 -219 -8t-202.5 54
t-176 107.5t-139 152.5t-91.5 189t-33 217q0 199 100 367t267 263q-76 14 -152 14z" />
    <glyph glyph-name="caret-square-left" unicode="Caret&#x2d;Square&#x2d;Left" horiz-adv-x="1792" 
d="M1088 1164v-792q0 -32 -30 -44.5t-52 10.5l-393 396q-14 14 -14 34t14 34l393 395q22 23 52 11t30 -44zM1792 1472v-1408q0 -80 -56 -136t-136 -56h-1408q-80 0 -136 56t-56 136v1408q0 80 56 136t136 56h1408q80 0 136 -56t56 -136zM1600 88v1360q0 10 -7 17t-17 7
h-1360q-10 0 -17 -7t-7 -17v-1360q0 -10 7 -17t17 -7h1360q10 0 17 7t7 17z" />
    <glyph glyph-name="dot-circle" unicode="Dot&#x2d;Circle" 
d="M1024 1568q-163 0 -311 -63.5t-255 -170.5t-170.5 -255t-63.5 -311t63.5 -311t170.5 -255t255 -170.5t311 -63.5t311 63.5t255 170.5t170.5 255t63.5 311t-63.5 311t-170.5 255t-255 170.5t-311 63.5zM1024 1760q202 0 385.5 -78.5t316.5 -211.5t211.5 -316.5
t78.5 -385.5t-78.5 -385.5t-211.5 -316.5t-316.5 -211.5t-385.5 -78.5t-385.5 78.5t-316.5 211.5t-211.5 316.5t-78.5 385.5t78.5 385.5t211.5 316.5t316.5 211.5t385.5 78.5zM1024 1088q133 0 226.5 -93.5t93.5 -226.5t-93.5 -226.5t-226.5 -93.5t-226.5 93.5t-93.5 226.5
t93.5 226.5t226.5 93.5z" />
    <glyph glyph-name="building" unicode="Building" horiz-adv-x="1792" 
d="M512 1200v160q0 20 14 34t34 14h160q20 0 34 -14t14 -34v-160q0 -20 -14 -34t-34 -14h-160q-20 0 -34 14t-14 34zM1072 1152q-20 0 -34 14t-14 34v160q0 20 14 34t34 14h160q20 0 34 -14t14 -34v-160q0 -20 -14 -34t-34 -14h-160zM560 768q-20 0 -34 14t-14 34v160
q0 20 14 34t34 14h160q20 0 34 -14t14 -34v-160q0 -20 -14 -34t-34 -14h-160zM1072 768q-20 0 -34 14t-14 34v160q0 20 14 34t34 14h160q20 0 34 -14t14 -34v-160q0 -20 -14 -34t-34 -14h-160zM768 432q0 -20 -14 -34t-34 -14h-160q-20 0 -34 14t-14 34v160q0 20 14 34
t34 14h160q20 0 34 -14t14 -34v-160zM1072 384q-20 0 -34 14t-14 34v160q0 20 14 34t34 14h160q20 0 34 -14t14 -34v-160q0 -20 -14 -34t-34 -14h-160zM1792 -112v-144h-1792v144q0 20 14 34t34 14h78v1760q0 40 28 68t68 28h1348q40 0 68 -28t28 -68v-1760h78q20 0 34 -14
t14 -34zM318 -60h450v268q0 20 14 34t34 14h160q20 0 34 -14t14 -34v-268h450v1656l-1154 4z" />
    <glyph glyph-name="file-pdf" unicode="File&#x2d;Pdf" horiz-adv-x="1536" 
d="M1480 1400q56 -56 56 -136v-1328q0 -80 -56 -136t-136 -56h-1152q-80 0 -136 56t-56 136v1664q0 80 56 136t136 56h816q80 0 136 -56zM1328 1280l-304 304v-304h304zM192 -64h1152v1152h-416q-40 0 -68 28t-28 68v416h-640v-1664zM1193 511q22 -22 24 -58.5t-22.5 -66.5
t-71.5 -30q-97 0 -223 68q-25 -4 -51 -10t-59 -16t-51 -16l-60 -20t-53 -18q-122 -211 -221 -216q-50 -3 -74 44q-13 25 -9 47q18 90 204 185q65 114 141 297q-50 190 -28 269q9 35 47.5 49t77 -5t46.5 -68q19 -61 -22 -224q47 -124 147 -185q205 26 258 -26zM400 200
q0 -3 13.5 6.5t44 44.5t64.5 89q-1 -1 -19.5 -17t-29 -27t-27.5 -28.5t-28.5 -34.5t-17.5 -33zM727 962q-5 0 -6.5 -28.5t2 -68.5t11.5 -66q16 26 15 94.5t-22 68.5zM629 416q12 5 60.5 24.5t85 31.5t73.5 20q-70 51 -120 142q-51 -135 -99 -218zM1156 436q12 8 -8 19
q-36 20 -142 12q57 -24 94.5 -32t46.5 -3z" />
    <glyph glyph-name="file-word" unicode="File&#x2d;Word" horiz-adv-x="1536" 
d="M1480 1400q56 -56 56 -136v-1328q0 -80 -56 -136t-136 -56h-1152q-80 0 -136 56t-56 136v1664q0 80 56 136t136 56h816q80 0 136 -56zM1328 1280l-304 304v-304h304zM192 -64h1152v1152h-416q-40 0 -68 28t-28 68v416h-640v-1664zM1072 768v1h64q23 0 37.5 -19t8.5 -41
q-7 -28 -23 -91l-48 -189t-67 -264q-4 -16 -16.5 -26t-29.5 -10h-99q-17 0 -30 10t-17 26q-71 284 -71 286l-12 69q-3 -32 -12 -69l-71 -286q-4 -16 -17 -26t-30 -10h-101q-17 0 -29.5 10t-16.5 26q-9 38 -62 254t-71 290q-5 23 9.5 41t37.5 18h67q17 0 30.5 -11t16.5 -27
q74 -379 76 -396q2 -14 2 -17q2 22 39 168q34 136 61 247q5 16 17.5 26t28.5 10h54q17 0 29.5 -10.5t16.5 -26.5q94 -390 95 -398q1 -7 3 -17q1 23 32 167q29 135 52 247q3 17 16 27.5t30 10.5z" />
    <glyph glyph-name="file-excel" unicode="File&#x2d;Excel" horiz-adv-x="1536" 
d="M1480 1400q56 -56 56 -136v-1328q0 -80 -56 -136t-136 -56h-1152q-80 0 -136 56t-56 136v1664q0 80 56 136t136 56h816q80 0 136 -56zM1328 1280l-304 304v-304h304zM192 -64h1152v1152h-416q-40 0 -68 28t-28 68v416h-640v-1664zM1040 896q28 0 41.5 -24t-0.5 -48
q-170 -291 -185 -312l186 -312q14 -24 0 -48t-42 -24h-115q-31 0 -43 25q-40 74 -54.5 103t-25.5 55.5t-34 72.5q-2 -4 -11.5 -26.5t-14 -32t-16.5 -35t-29.5 -58.5t-42.5 -79q-12 -25 -42 -25h-116q-28 0 -42 24t0 48l186 312l-186 312q-14 24 0 48t42 24h116q30 0 42 -25
q39 -74 53.5 -102t27.5 -58t33 -71q39 92 115 231q13 25 42 25h115z" />
    <glyph glyph-name="file-powerpoint" unicode="File&#x2d;Powerpoint" horiz-adv-x="1536" 
d="M1480 1400q56 -56 56 -136v-1328q0 -80 -56 -136t-136 -56h-1152q-80 0 -136 56t-56 136v1664q0 80 56 136t136 56h816q80 0 136 -56zM1328 1280l-304 304v-304h304zM192 -64h1152v1152h-416q-40 0 -68 28t-28 68v416h-640v-1664zM480 176v672q0 20 14 34t34 14h277
q111 0 181 -74t70 -191q0 -43 -8.5 -79.5t-20.5 -62.5t-33.5 -46.5t-40.5 -33.5t-48.5 -22.5t-49.5 -13.5t-52 -6.5t-48 -2.5t-45 0.5t-36 0.5v-189q0 -20 -14 -34t-34 -14h-98q-20 0 -34 14t-14 34zM674 526h92q47 0 72 28q25 29 25.5 76.5t-24.5 75.5t-70 28h-95v-208z
" />
    <glyph glyph-name="file-image" unicode="File&#x2d;Image" horiz-adv-x="1536" 
d="M1480 1400q56 -56 56 -136v-1328q0 -80 -56 -136t-136 -56h-1152q-80 0 -136 56t-56 136v1664q0 80 56 136t136 56h816q80 0 136 -56zM1328 1280l-304 304v-304h304zM192 -64h1152v1152h-416q-40 0 -68 28t-28 68v416h-640v-1664zM320 128v256l158 158q14 14 34 14
t34 -14l158 -158l350 350q14 14 34 14t34 -14l94 -94v-512h-896zM512 1088q80 0 136 -56t56 -136t-56 -136t-136 -56t-136 56t-56 136t56 136t136 56z" />
    <glyph glyph-name="file-archive" unicode="File&#x2d;Archive" horiz-adv-x="1536" 
d="M513 1152h128v-128h-128v128zM769 1536v-128h-128v128h128zM513 1408h128v-128h-128v128zM769 1280v-128h-128v128h128zM1480 1400q56 -56 56 -136v-1328q0 -80 -56 -136t-136 -56h-1152q-80 0 -136 56t-56 136v1664q0 80 56 136t136 56h816q80 0 136 -56zM1024 1584
v-304h304zM1344 -64v1152h-416q-40 0 -68 28t-28 68v416h-193v-64h-128v64h-319v-1664h1152zM777 729l69 -351q19 -97 -44 -173.5t-162 -76.5q-100 0 -163 77t-43 175l79 388v128h128v-128h89q17 0 30.5 -11t16.5 -28zM641 232q54 0 92 31.5t38 76.5t-38 76.5t-92 31.5
t-91.5 -31.5t-37.5 -76.5t37.5 -76.5t91.5 -31.5zM769 1024v-128h-128v128h128z" />
    <glyph glyph-name="file-audio" unicode="File&#x2d;Audio" horiz-adv-x="1536" 
d="M1480 1400q23 -23 39.5 -63t16.5 -73v-1328q0 -80 -56 -136t-136 -56h-1152q-80 0 -136 56t-56 136v1664q0 80 56 136t136 56h816q33 0 73 -16.5t63 -39.5zM1328 1280l-304 304v-304h304zM192 -64h1152v1152h-416q-40 0 -68 28t-28 68v416h-640v-1664zM768 240
q0 -32 -30 -44.5t-52 10.5l-142 144h-112q-20 0 -34 14t-14 34v224q0 20 14 34t34 14h112l142 148q22 23 52 10.5t30 -44.5v-544zM933 429q27 28 27 66.5t-27 66.5q-25 26 -28.5 57.5t12.5 55.5t40.5 39.5t56 11.5t56.5 -30q82 -84 82 -200.5t-82 -200.5q-25 -26 -56.5 -30
t-55.5 11.5t-40.5 39t-13.5 55.5t29 58z" />
    <glyph glyph-name="file-video" unicode="File&#x2d;Video" horiz-adv-x="1536" 
d="M1480 1400q23 -23 39.5 -63t16.5 -73v-1328q0 -80 -56 -136t-136 -56h-1152q-80 0 -136 56t-56 136v1664q0 80 56 136t136 56h816q33 0 73 -16.5t63 -39.5zM1328 1280l-304 304v-304h304zM192 -64h1152v1152h-416q-40 0 -68 28t-28 68v416h-640v-1664zM1107 781
q30 30 69.5 14t39.5 -59v-448q0 -43 -39.5 -59t-69.5 14l-211 210v-149q0 -33 -23.5 -56.5t-56.5 -23.5h-416q-33 0 -56.5 23.5t-23.5 56.5v416q0 33 23.5 56.5t56.5 23.5h416q33 0 56.5 -23.5t23.5 -56.5v-149z" />
    <glyph glyph-name="file-code" unicode="File&#x2d;Code" horiz-adv-x="1536" 
d="M600 396q10 -10 10.5 -25t-9.5 -25l-69 -74q-10 -12 -26 -12q-14 0 -24 10l-231 216q-11 10 -11 26t11 26l231 216q11 10 25 9.5t25 -11.5l69 -74l1 -1q10 -11 9 -25t-12 -24l-131 -116l131 -116h1zM1480 1400q56 -56 56 -136v-1328q0 -80 -56 -136t-136 -56h-1152
q-80 0 -136 56t-56 136v1664q0 80 56 136t136 56h816q80 0 136 -56zM1024 1584v-304h304zM1344 -64v1152h-416q-40 0 -68 28t-28 68v416h-640v-1664h1152zM838 936l98 -28q14 -4 21 -17t3 -27l-219 -752q-4 -14 -16.5 -21t-26.5 -3l-98 28q-14 4 -21 17t-3 27l219 752
q5 14 17 21t26 3zM936 628q-10 10 -10.5 25t9.5 25l69 74q10 11 24.5 11.5t25.5 -9.5l231 -216q11 -10 11 -26t-11 -26l-231 -216q-11 -10 -25.5 -9.5t-24.5 11.5l-69 74l-1 1q-10 11 -9 25t12 24l131 116l-131 116h-1z" />
    <glyph glyph-name="life-ring" unicode="Life&#x2d;Ring" 
d="M1024 -224q-202 0 -385.5 78.5t-316.5 211.5t-211.5 316.5t-78.5 385.5t78.5 385.5t211.5 316.5t316.5 211.5t385.5 78.5t385.5 -78.5t316.5 -211.5t211.5 -316.5t78.5 -385.5t-78.5 -385.5t-211.5 -316.5t-316.5 -211.5t-385.5 -78.5zM610 83q190 -115 414 -115t414 115
l-214 214q-95 -41 -200 -41t-200 41zM1344 768q0 132 -94 226t-226 94t-226 -94t-94 -226t94 -226t226 -94t226 94t94 226zM1709 354q115 190 115 414t-115 414l-214 -214q41 -95 41 -200t-41 -200zM1438 1453q-190 115 -414 115t-414 -115l214 -214q95 41 200 41t200 -41z
M339 1182q-115 -190 -115 -414t115 -414l214 214q-41 95 -41 200t41 200z" />
    <glyph glyph-name="paper-plane" unicode="Paper&#x2d;Plane" 
d="M1760 1766q52 32 106.5 25.5t97.5 -33.5t67 -78.5t15 -109.5l-238 -1548q-14 -92 -95 -138q-45 -25 -95 -25q-39 0 -73 14l-447 185l-176 -236q-53 -71 -136.5 -78t-146.5 48t-63 144v338l-457 189q-71 29 -101.5 96t-9.5 137.5t88 109.5zM768 -64l146 198l-146 60v-258z
M1618 51l238 1549l-1664 -960l431 -178l846 737q20 17 45 16t40 -16.5t21 -38t-11 -46.5l-561 -809z" />
    <glyph glyph-name="futbol" unicode="Futbol" horiz-adv-x="1984" 
d="M1935 1074q42 -128 47.5 -261.5t-21.5 -256.5t-86 -238.5t-142.5 -209.5t-195 -167.5t-239.5 -115.5q-151 -49 -306 -49q-208 0 -398.5 83.5t-334 240t-210.5 362.5q-42 128 -47.5 261.5t21.5 256.5t86 238.5t142.5 209.5t195 167.5t239.5 115.5q151 49 306 49
q208 0 398.5 -83.5t334 -240t210.5 -362.5zM1637 300q50 71 67 104q85 168 87 357l-155 146l-285 -89l-97 -300l174 -244zM1637 1241q-151 207 -391 286l-190 -105v-295l257 -186l283 88zM740 1526q-242 -80 -392 -287l41 -210l282 -88l257 186v295zM556 274l174 247
l-97 297l-285 89l-156 -146q2 -254 152 -461zM749 6q37 -12 75 -20t71 -12t67.5 -5.5t61.5 -0.5t55.5 4.5t48 7t40.5 8t32 7.5t24 7l12 4l89 192l-177 247h-314l-175 -247z" />
    <glyph glyph-name="newspaper" unicode="Newspaper" horiz-adv-x="2304" 
d="M2208 1536q40 0 68 -28t28 -68v-1344q0 -40 -28 -68t-68 -28h-1984q-93 0 -158.5 65.5t-65.5 158.5v1088q0 40 28 68t68 28h171q20 56 70 92t111 36h1760zM192 224q0 -14 9 -23t23 -9t23 9t9 23v992h-64v-992zM2112 192v1152h-1664v-1120q0 -12 -2 -32h1666zM688 672
q-20 0 -34 14t-14 34v384q0 20 14 34t34 14h544q20 0 34 -14t14 -34v-384q0 -20 -14 -34t-34 -14h-544zM800 992v-160h320v160h-320zM640 432v96q0 20 14 34t34 14h544q20 0 34 -14t14 -34v-96q0 -20 -14 -34t-34 -14h-544q-20 0 -34 14t-14 34zM1408 432v96q0 20 14 34
t34 14h416q20 0 34 -14t14 -34v-96q0 -20 -14 -34t-34 -14h-416q-20 0 -34 14t-14 34zM1408 1008v96q0 20 14 34t34 14h416q20 0 34 -14t14 -34v-96q0 -20 -14 -34t-34 -14h-416q-20 0 -34 14t-14 34zM1408 720v96q0 20 14 34t34 14h416q20 0 34 -14t14 -34v-96
q0 -20 -14 -34t-34 -14h-416q-20 0 -34 14t-14 34z" />
    <glyph glyph-name="bell-slash" unicode="Bell&#x2d;Slash" horiz-adv-x="2560" 
d="M2536 -92q21 -16 24 -42.5t-14 -47.5l-40 -50q-16 -21 -42.5 -24t-47.5 14l-2392 1870q-21 16 -24 42.5t14 47.5l40 50q16 21 42.5 24t47.5 -14zM654 320h731l246 -192h-1119q-55 0 -91.5 38.5t-36.5 89.5q0 50 34 87q4 5 14 15q32 33 50 55t50 73t50.5 103t35.5 135
t20 181l182 -143q-34 -269 -166 -442zM1280 1408q-137 0 -252 -78l-152 120q124 99 276 131v83q0 53 37.5 90.5t90.5 37.5t90.5 -37.5t37.5 -90.5v-83q223 -46 367.5 -218t144.5 -403q0 -217 57 -371l-238 186q-11 88 -11 183v2q0 185 -131.5 316.5t-316.5 131.5zM1280 -256
q-106 0 -181 75t-75 181h512q0 -106 -75 -181t-181 -75z" />
    <glyph glyph-name="copyright" unicode="Copyright" 
d="M1024 1760q202 0 385.5 -78.5t316.5 -211.5t211.5 -316.5t78.5 -385.5t-78.5 -385.5t-211.5 -316.5t-316.5 -211.5t-385.5 -78.5t-385.5 78.5t-316.5 211.5t-211.5 316.5t-78.5 385.5t78.5 385.5t211.5 316.5t316.5 211.5t385.5 78.5zM1024 -32q163 0 311 63.5t255 170.5
t170.5 255t63.5 311t-63.5 311t-170.5 255t-255 170.5t-311 63.5t-311 -63.5t-255 -170.5t-170.5 -255t-63.5 -311t63.5 -311t170.5 -255t255 -170.5t311 -63.5zM1453 372q-20 -21 -50 -43.5t-82.5 -52.5t-127 -49.5t-156.5 -19.5q-162 0 -291 74.5t-200 203.5t-71 288
q0 156 73 284t201 201t285 73q77 0 147.5 -16.5t120 -42t77 -44.5t46.5 -37q15 -13 15 -35q0 -12 -8 -26l-72 -112q-11 -18 -32.5 -21.5t-37.5 9.5q-113 90 -247 90q-142 0 -227 -91t-85 -229q0 -86 34 -160.5t107.5 -124.5t171.5 -50q144 0 263 109q16 14 37.5 12t34.5 -19
l79 -109q9 -13 9 -28q0 -20 -14 -34z" />
    <glyph glyph-name="closed-captioning" unicode="Closed&#x2d;Captioning" 
d="M1856 1536q80 0 136 -56t56 -136v-1152q0 -80 -56 -136t-136 -56h-1664q-80 0 -136 56t-56 136v1152q0 80 56 136t136 56h1664zM1832 192q10 0 17 7t7 17v1104q0 10 -7 17t-17 7h-1616q-10 0 -17 -7t-7 -17v-1104q0 -10 7 -17t17 -7h1616zM988 535q12 -17 -2 -31
q-52 -55 -125.5 -85.5t-149.5 -34t-151.5 21t-134 71.5t-95 125t-36.5 174q0 94 37 169.5t96.5 120.5t135.5 69.5t152 23t147.5 -28t121.5 -74.5q11 -11 4 -23l-70 -122q-6 -9 -16.5 -11.5t-19.5 4.5q-79 62 -168.5 66t-149.5 -48.5t-60 -141.5q0 -94 57 -152.5t144.5 -55
t166.5 76.5q8 8 19.5 7t17.5 -10zM1749 535q12 -17 -2 -31q-52 -56 -125 -86.5t-149 -33.5t-151.5 21t-134 71.5t-95 125.5t-36.5 174q0 94 37 169.5t96.5 120.5t135.5 69.5t152 23t147.5 -28t121.5 -74.5q11 -11 4 -23l-70 -122q-6 -9 -16.5 -11.5t-19.5 4.5
q-79 62 -169 66t-150 -48.5t-60 -141.5q0 -56 22 -102t60.5 -71t85 -32.5t100 11.5t101.5 63q8 8 19.5 7t17.5 -10z" />
    <glyph glyph-name="object-group" unicode="Object&#x2d;Group" 
d="M2000 1280h-48v-1024h48q20 0 34 -14t14 -34v-288q0 -20 -14 -34t-34 -14h-288q-20 0 -34 14t-14 34v48h-1280v-48q0 -20 -14 -34t-34 -14h-288q-20 0 -34 14t-14 34v288q0 20 14 34t34 14h48v1024h-48q-20 0 -34 14t-14 34v288q0 20 14 34t34 14h288q20 0 34 -14t14 -34
v-48h1280v48q0 20 14 34t34 14h288q20 0 34 -14t14 -34v-288q0 -20 -14 -34t-34 -14zM1792 1536v-128h128v128h-128zM128 1536v-128h128v128h-128zM256 0v128h-128v-128h128zM1920 0v128h-128v-128h128zM1760 256v1024h-48q-20 0 -34 14t-14 34v48h-1280v-48q0 -20 -14 -34
t-34 -14h-48v-1024h48q20 0 34 -14t14 -34v-48h1280v48q0 20 14 34t34 14h48zM1616 1024q20 0 34 -14t14 -34v-672q0 -20 -14 -34t-34 -14h-800q-20 0 -34 14t-14 34v208h-336q-20 0 -34 14t-14 34v672q0 20 14 34t34 14h800q20 0 34 -14t14 -34v-208h336zM544 1120v-448
h576v448h-576zM1504 416v448h-224v-304q0 -20 -14 -34t-34 -14h-304v-96h576z" />
    <glyph glyph-name="object-ungroup" unicode="Object&#x2d;Ungroup" horiz-adv-x="2304" 
d="M2256 896h-48v-640h48q20 0 34 -14t14 -34v-288q0 -20 -14 -34t-34 -14h-288q-20 0 -34 14t-14 34v48h-896v-48q0 -20 -14 -34t-34 -14h-288q-20 0 -34 14t-14 34v288q0 20 14 34t34 14h48v96h-352v-48q0 -20 -14 -34t-34 -14h-288q-20 0 -34 14t-14 34v288q0 20 14 34
t34 14h48v640h-48q-20 0 -34 14t-14 34v288q0 20 14 34t34 14h288q20 0 34 -14t14 -34v-48h896v48q0 20 14 34t34 14h288q20 0 34 -14t14 -34v-288q0 -20 -14 -34t-34 -14h-48v-96h352v48q0 20 14 34t34 14h288q20 0 34 -14t14 -34v-288q0 -20 -14 -34t-34 -14zM1408 1536
v-128h128v128h-128zM1408 512v-128h128v128h-128zM256 384v128h-128v-128h128zM256 1408v128h-128v-128h128zM384 544h896v48q0 20 14 34t34 14h48v640h-48q-20 0 -34 14t-14 34v48h-896v-48q0 -20 -14 -34t-34 -14h-48v-640h48q20 0 34 -14t14 -34v-48zM896 0v128h-128
v-128h128zM2016 256v640h-48q-20 0 -34 14t-14 34v48h-352v-352h48q20 0 34 -14t14 -34v-288q0 -20 -14 -34t-34 -14h-288q-20 0 -34 14t-14 34v48h-352v-96h48q20 0 34 -14t14 -34v-48h896v48q0 20 14 34t34 14h48zM2176 0v128h-128v-128h128zM2176 1024v128h-128v-128h128
z" />
    <glyph glyph-name="sticky-note" unicode="Sticky&#x2d;Note" horiz-adv-x="1792" 
d="M1792 400q0 -33 -16.5 -73t-39.5 -63l-336 -336q-23 -23 -63 -39.5t-73 -16.5h-1072q-80 0 -136 56t-56 136v1408q0 80 56 136t136 56h1408q80 0 136 -56t56 -136v-1072zM1280 80l304 304h-304v-304zM1600 1472h-1408v-1408h896v416q0 40 28 68t68 28h416v896z" />
    <glyph glyph-name="clone" unicode="Clone" 
d="M1856 1792q80 0 136 -56t56 -136v-1280q0 -80 -56 -136t-136 -56h-192v-192q0 -80 -56 -136t-136 -56h-1280q-80 0 -136 56t-56 136v1280q0 80 56 136t136 56h192v192q0 80 56 136t136 56h1280zM1448 -64q10 0 17 7t7 17v168h-896q-80 0 -136 56t-56 136v896h-168
q-10 0 -17 -7t-7 -17v-1232q0 -10 7 -17t17 -7h1232zM1832 320q10 0 17 7t7 17v1232q0 10 -7 17t-17 7h-1232q-10 0 -17 -7t-7 -17v-1232q0 -10 7 -17t17 -7h1232z" />
    <glyph glyph-name="hourglass" unicode="Hourglass" horiz-adv-x="1536" 
d="M1472 1600q0 -164 -42 -319.5t-131.5 -293t-215.5 -219.5q187 -122 288 -350t101 -482h16q20 0 34 -14t14 -34v-96q0 -20 -14 -34t-34 -14h-1440q-20 0 -34 14t-14 34v96q0 20 14 34t34 14h16q0 164 42 319.5t131.5 293t215.5 219.5q-187 122 -288 350t-101 482h-16
q-20 0 -34 14t-14 34v96q0 20 14 34t34 14h1440q20 0 34 -14t14 -34v-96q0 -20 -14 -34t-34 -14h-16zM256 1600q0 -200 68.5 -369.5t186.5 -268t257 -98.5t257 98.5t186.5 268t68.5 369.5h-1024zM1280 -64q0 200 -68.5 369.5t-186.5 268t-257 98.5t-257 -98.5t-186.5 -268
t-68.5 -369.5h1024z" />
    <glyph glyph-name="hand-rock" unicode="Hand&#x2d;Rock" 
d="M1635 1476q59 23 117.5 24t112 -23t94.5 -62t65 -93.5t24 -117.5v-458q0 -90 -37 -178l-171 -399q-5 -11 -8 -22.5t-5 -20t-2.5 -25t-0.5 -25v-35v-41.5q0 -53 -37.5 -90.5t-90.5 -37.5h-1008q-53 0 -90.5 37.5t-37.5 90.5v32.5t0.5 26.5t0.5 20.5v16t-1 11.5t-1.5 8.5
t-2 6t-3.5 5.5l-5 5l-391 340q-75 65 -116 154.5t-41 187.5v228q0 93 52 167t136.5 106.5t175.5 11.5q2 65 30.5 121t75 92t102 55t118 13t117.5 -38q88 93 216 93.5t217 -93.5q97 58 213 32t182 -126zM1856 746v458q0 39 -21.5 65.5t-52 33t-61 0.5t-52 -32t-21.5 -64
q0 -26 -19 -45t-45 -19h-28q-26 0 -45 19t-19 45v107q0 39 -21.5 66t-52 33t-61 0t-52 -32t-21.5 -64v-110q0 -26 -19 -45t-45 -19h-28q-26 0 -45 19t-19 45v162q0 39 -21.5 65.5t-52 32.5t-61 0t-52 -32t-21.5 -64v-164q0 -26 -19 -45t-45 -19h-28q-26 0 -45 19t-19 45v107
q0 39 -21.5 66t-52 33t-61 0t-52 -32t-21.5 -64v-467q0 -26 -19 -45t-45 -19q-24 0 -42 16l-28 24q-22 20 -22 49v165q0 39 -21.5 65.5t-52 32.5t-61 0t-52 -32t-21.5 -64v-228q0 -119 91 -197l391 -341q78 -67 78 -171v-41h880v28q0 78 32 153l171 399q21 47 21 102z" />
    <glyph glyph-name="hand-paper" unicode="Hand&#x2d;Paper" horiz-adv-x="1792" 
d="M1490 1341q120 17 211 -63t91 -202v-526q0 -88 -21 -183l-121 -524q-10 -44 -44.5 -71.5t-79.5 -27.5h-892q-27 0 -57.5 16t-46.5 38l-480 673q-64 89 -47 198.5t105 174.5q55 41 122.5 49.5t126.5 -14.5v505q0 86 47.5 154t124 97.5t157.5 8.5q47 94 140 130.5
t187.5 2.5t144.5 -130q83 22 160.5 -8.5t124.5 -99.5t47 -154v-44zM1600 550v526q0 29 -15 48.5t-36.5 24t-43 0t-36.5 -25t-15 -50.5v-305q0 -26 -19 -45t-45 -19h-28q-26 0 -45 19t-19 45v617q0 29 -15 49.5t-36.5 25.5t-43 1t-36.5 -24t-15 -49v-620q0 -26 -19 -45
t-45 -19h-27q-26 0 -45 19t-19 45v753q0 29 -15 49.5t-36.5 25.5t-43.5 1t-37 -24t-15 -49v-756q0 -26 -19 -45t-45 -19h-27q-26 0 -45 19t-19 45v613q0 29 -15 49.5t-36.5 25.5t-43 1t-36.5 -24t-15 -49v-826q0 -30 -21.5 -48.5t-50 -15.5t-45.5 27l-108 152
q-16 23 -39.5 29.5t-43.5 -3t-35 -26.5t-15.5 -41.5t15.5 -48.5l461 -647h808l109 474q16 67 16 140z" />
    <glyph glyph-name="hand-scissors" unicode="Hand&#x2d;Scissors" 
d="M1024 -128q-88 0 -157 50t-97 130t-2 163q-66 42 -99 112t-22 148h-351q-122 0 -209 86t-87 207t87 207t209 86l376 -37l-315 75q-75 29 -125 91t-60.5 136.5t17.5 152.5q45 112 156.5 160.5t225.5 4.5l580 -223q51 63 109 97t125 37.5t135 -35.5l392 -220
q63 -35 99.5 -97t36.5 -133v-823q0 -92 -58 -164.5t-149 -93.5l-476 -110q-28 -7 -61 -7h-280zM1024 64h280q8 0 18 2l476 110q26 6 42 26t16 45v823q0 42 -38 63l-392 219q-25 14 -53 9t-45 -27l-87 -106q-20 -24 -49 -24q-11 0 -23 4l-667 257q-27 10 -52 8t-42.5 -14.5
t-30 -30.5t-15.5 -40t1 -42.5t20.5 -39t42.5 -28.5l621 -239q17 -7 29 -24.5t12 -35.5v-46q0 -26 -19 -45t-45 -19h-728q-49 0 -76.5 -31.5t-27.5 -69.5t27.5 -69.5t76.5 -31.5h728q26 0 45 -19t19 -45v-27q0 -26 -19 -45t-45 -19h-112q-35 0 -55.5 -23t-20.5 -50t20 -50
t56 -23h112q26 0 45 -19t19 -45v-28q0 -26 -19 -45t-45 -19q-35 0 -55.5 -23t-20.5 -50t20 -50t56 -23z" />
    <glyph glyph-name="hand-lizard" unicode="Hand&#x2d;Lizard" horiz-adv-x="2304" 
d="M2227 630q77 -118 77 -261v-497h-896v286l-399 155q-19 7 -35 7h-526q-93 0 -158.5 65.5t-65.5 158.5q0 146 103 249t249 103h455l73 192h-784q-132 0 -226 94t-94 226v32q0 93 65.5 158.5t158.5 65.5h1176q73 0 137 -34.5t104 -96.5zM2112 64v305q0 36 -13.5 81.5
t-32.5 74.5l-586 903q-29 44 -80 44h-1176q-14 0 -23 -9t-9 -23v-32q0 -53 37.5 -90.5t90.5 -37.5h854q76 0 118.5 -62t15.5 -133l-98 -258q-21 -55 -70.5 -89t-108.5 -34h-455q-66 0 -113 -47t-47 -113q0 -14 9 -23t23 -9h526q54 0 105 -20l399 -155q56 -22 89 -70.5
t33 -108.5v-94h512z" />
    <glyph glyph-name="hand-spock" unicode="Hand&#x2d;Spock" 
d="M84 265q-81 77 -84 187.5t73 191.5q73 77 178.5 84t187.5 -61l-124 546q-19 81 10.5 156.5t95.5 122.5t150 48q5 88 62 156.5t145 88.5q108 25 202.5 -34t119.5 -167l86 -528l68 421q27 108 122.5 165t202.5 30q80 -20 133 -79.5t66 -136.5q85 0 153 -46.5t99 -123.5
t11 -160l-127 -534q-6 -24 -6 -48v-147q0 -70 -19 -132l-127 -429q-12 -41 -46 -66.5t-77 -25.5h-951q-21 0 -46.5 10.5t-40.5 24.5zM213 512q-22 -23 -21 -54t24 -53l498 -469h877l114 383q11 39 11 78v147q0 47 11 93l127 533q11 46 -21.5 74t-74 18t-52.5 -56l-108 -453
q-4 -20 -22.5 -34.5t-39.5 -14.5h-39q-31 0 -50.5 25t-11.5 55l153 610q11 46 -21 74t-74 18t-53 -56l-169 -678q-5 -20 -23 -34t-39 -14h-53q-21 0 -40 15t-23 35l-180 787q-11 46 -52.5 56.5t-74 -17t-22.5 -73.5l167 -725q7 -30 -12 -54t-50 -24h-35q-21 0 -39.5 14.5
t-22.5 35.5l-122 535q-10 46 -51.5 56.5t-74 -17t-22.5 -73.5l136 -601q2 -10 2 -14v-278q0 -42 -38.5 -58.5t-69.5 12.5l-212 199q-22 22 -53.5 21t-53.5 -24z" />
    <glyph glyph-name="hand-pointer" unicode="Hand&#x2d;Pointer" horiz-adv-x="1792" 
d="M1433 1075q65 27 129 15.5t115 -45.5t83 -93.5t32 -127.5v-336q0 -31 -7 -61l-110 -476q-21 -91 -93.5 -149t-164.5 -58h-713q-64 0 -121 29.5t-94 81.5l-439 616q-64 89 -47 198.5t105 174.5q55 41 122.5 49.5t126.5 -14.5v645q0 111 77.5 189.5t187.5 78.5t187.5 -78.5
t77.5 -189.5v-295q133 18 226 -78q81 39 171.5 18t148.5 -94zM324 673q-17 23 -40.5 29.5t-43 -3t-35 -26.5t-15.5 -41.5t16 -48.5l439 -616q23 -31 59 -31h713q25 0 45 16t26 42l110 476q2 12 2 18v336q0 36 -23 56t-50 20t-50 -20.5t-23 -55.5q0 -26 -19 -45t-45 -19h-28
q-26 0 -45 19t-19 45v84q0 36 -23 56t-50 20t-50 -20.5t-23 -55.5v-84q0 -26 -19 -45t-45 -19h-27q-26 0 -45 19t-19 45v140q0 36 -23 56t-50.5 20t-50.5 -20.5t-23 -55.5v-140q0 -26 -19 -45t-45 -19h-27q-26 0 -45 19t-19 45v700q0 36 -23 56t-50 20t-50 -20.5t-23 -55.5
v-966q0 -30 -21.5 -48.5t-50 -15.5t-45.5 27zM705 192v384q0 26 16.5 45t39.5 19h24q23 0 39.5 -19t16.5 -45v-384q0 -26 -16.5 -45t-39.5 -19h-24q-23 0 -39.5 19t-16.5 45zM1006 192v384q0 26 16.5 45t39.5 19h24q23 0 39.5 -19t16.5 -45v-384q0 -26 -16.5 -45t-39.5 -19
h-24q-23 0 -39.5 19t-16.5 45zM1308 192v384q0 26 16.5 45t39.5 19h24q23 0 39.5 -19t16.5 -45v-384q0 -26 -16.5 -45t-39.5 -19h-24q-23 0 -39.5 19t-16.5 45z" />
    <glyph glyph-name="hand-peace" unicode="Hand&#x2d;Peace" horiz-adv-x="1792" 
d="M1449 1024q83 26 163 -2t130 -97t50 -157v-280q0 -31 -7 -61l-110 -476q-21 -91 -93.5 -149t-164.5 -58h-823q-71 0 -133 36.5t-97 99.5l-220 392q-39 68 -35.5 135t37.5 125t97 109l-223 580q-44 114 4.5 225.5t160.5 156.5q78 28 152.5 17.5t136.5 -60.5t91 -125
l75 -315l-37 376q0 122 86 209t207 87t207 -87t86 -209v-351q78 11 148 -22t112 -99zM1600 488v280q0 36 -23 56t-50 20t-50 -20.5t-23 -55.5q0 -26 -19 -45t-45 -19h-28q-26 0 -45 19t-19 45v112q0 36 -23 56t-50 20t-50 -20.5t-23 -55.5v-112q0 -26 -19 -45t-45 -19h-27
q-26 0 -45 19t-19 45v728q0 49 -31.5 76.5t-69.5 27.5t-69.5 -27.5t-31.5 -76.5v-728q0 -26 -19 -45t-45 -19h-46q-18 0 -35.5 12t-24.5 29l-239 621q-10 26 -28.5 42.5t-39 20.5t-42.5 1t-40 -15.5t-30.5 -30t-14.5 -42.5t8 -52l257 -667q4 -12 4 -23q0 -29 -24 -49
l-106 -87q-22 -17 -27 -45t9 -53l219 -392q21 -38 63 -38h823q25 0 45 16t26 42l110 476q2 12 2 18z" />
    <glyph glyph-name="registered" unicode="Registered" 
d="M1024 1760q202 0 385.5 -78.5t316.5 -211.5t211.5 -316.5t78.5 -385.5t-78.5 -385.5t-211.5 -316.5t-316.5 -211.5t-385.5 -78.5t-385.5 78.5t-316.5 211.5t-211.5 316.5t-78.5 385.5t78.5 385.5t211.5 316.5t316.5 211.5t385.5 78.5zM1024 -32q163 0 311 63.5t255 170.5
t170.5 255t63.5 311t-63.5 311t-170.5 255t-255 170.5t-311 63.5t-311 -63.5t-255 -170.5t-170.5 -255t-63.5 -311t63.5 -311t170.5 -255t255 -170.5t311 -63.5zM1466 295q14 -24 0 -47.5t-42 -23.5h-172q-12 0 -24.5 7.5t-17.5 17.5l-190 358h-128v-335q0 -20 -14 -34
t-34 -14h-154q-20 0 -34 14t-14 34v993q0 19 14 33.5t34 14.5h315q207 0 306.5 -89t99.5 -252q0 -94 -42.5 -172t-115.5 -120q6 -9 213 -385zM1028 832q63 0 96 33.5t33 96.5q0 65 -32 96t-123 31h-110v-257h136z" />
    <glyph glyph-name="calendar-plus" unicode="Calendar&#x2d;Plus" horiz-adv-x="1792" 
d="M1344 624v-96q0 -20 -14 -34t-34 -14h-304v-304q0 -20 -14 -34t-34 -14h-96q-20 0 -34 14t-14 34v304h-304q-20 0 -34 14t-14 34v96q0 20 14 34t34 14h304v304q0 20 14 34t34 14h96q20 0 34 -14t14 -34v-304h304q20 0 34 -14t14 -34zM1792 1344v-1408q0 -80 -56 -136
t-136 -56h-1408q-80 0 -136 56t-56 136v1408q0 80 56 136t136 56h192v208q0 20 14 34t34 14h160q20 0 34 -14t14 -34v-208h512v208q0 20 14 34t34 14h160q20 0 34 -14t14 -34v-208h192q80 0 136 -56t56 -136zM1600 -40v1192h-1408v-1192q0 -10 7 -17t17 -7h1360q10 0 17 7
t7 17z" />
    <glyph glyph-name="calendar-minus" unicode="Calendar&#x2d;Minus" horiz-adv-x="1792" 
d="M496 480q-20 0 -34 14t-14 34v96q0 20 14 34t34 14h800q20 0 34 -14t14 -34v-96q0 -20 -14 -34t-34 -14h-800zM1792 1344v-1408q0 -80 -56 -136t-136 -56h-1408q-80 0 -136 56t-56 136v1408q0 80 56 136t136 56h192v208q0 20 14 34t34 14h160q20 0 34 -14t14 -34v-208
h512v208q0 20 14 34t34 14h160q20 0 34 -14t14 -34v-208h192q80 0 136 -56t56 -136zM1600 -40v1192h-1408v-1192q0 -10 7 -17t17 -7h1360q10 0 17 7t7 17z" />
    <glyph glyph-name="calendar-times" unicode="Calendar&#x2d;Times" horiz-adv-x="1792" 
d="M1247 293l-68 -68q-14 -14 -34 -14t-34 14l-215 215l-215 -214q-14 -14 -34 -14t-34 14l-68 68q-14 14 -14 34t14 34l215 214l-215 215q-14 14 -14 34t14 34l68 68q14 14 34 14t34 -14l215 -215l215 215q14 14 34 14t34 -14l68 -68q14 -14 14 -34t-14 -34l-215 -215
l214 -215q14 -14 14.5 -34t-13.5 -34zM1792 1344v-1408q0 -80 -56 -136t-136 -56h-1408q-80 0 -136 56t-56 136v1408q0 80 56 136t136 56h192v208q0 20 14 34t34 14h160q20 0 34 -14t14 -34v-208h512v208q0 20 14 34t34 14h160q20 0 34 -14t14 -34v-208h192q80 0 136 -56
t56 -136zM1600 -40v1192h-1408v-1192q0 -10 7 -17t17 -7h1360q10 0 17 7t7 17z" />
    <glyph glyph-name="calendar-check" unicode="Calendar&#x2d;Check" horiz-adv-x="1792" 
d="M1600 1536q80 0 136 -56t56 -136v-1408q0 -80 -56 -136t-136 -56h-1408q-80 0 -136 56t-56 136v1408q0 80 56 136t136 56h192v208q0 20 14 34t34 14h160q20 0 34 -14t14 -34v-208h512v208q0 20 14 34t34 14h160q20 0 34 -14t14 -34v-208h192zM1576 -64q10 0 17 7t7 17
v1192h-1408v-1192q0 -10 7 -17t17 -7h1360zM1365 739l-570 -565q-14 -14 -34 -14t-34 14l-300 303q-14 14 -14 34t14 34l91 90q14 14 34 14t34 -14l177 -178l444 441q14 14 34 13.5t34 -14.5l90 -91q14 -14 14 -33.5t-14 -33.5z" />
    <glyph glyph-name="map" unicode="Map" horiz-adv-x="2304" 
d="M2240 1664q26 0 45 -18.5t19 -45.5v-1385q0 -36 -23.5 -70.5t-56.5 -48.5l-608 -211q-39 -13 -79 -13t-81 13l-688 243l-680 -251q-13 -5 -24 -5q-26 0 -45 18.5t-19 45.5v1385q0 36 23.5 70.5t56.5 48.5l608 211q42 13 79 13q40 0 81 -13l688 -243l680 251q13 5 24 5z
M896 1430v-1144l512 -180v1144zM192 120l509 188l3 1v1145l-512 -178v-1156zM2112 260v1156l-509 -188l-3 -1v-1145z" />
    <glyph glyph-name="comment-alt" unicode="Comment&#x2d;Alt" 
d="M1792 1792q106 0 181 -75t75 -181v-1152q0 -106 -75 -181t-181 -75h-576l-500 -374q-13 -10 -28 -10q-19 0 -33.5 14t-14.5 34v336h-384q-106 0 -181 75t-75 181v1152q0 106 75 181t181 75h1536zM1856 384v1152q0 26 -19 45t-45 19h-1536q-26 0 -45 -19t-19 -45v-1152
q0 -26 19 -45t45 -19h576v-240l269 202l51 38h640q26 0 45 19t19 45z" />
    <glyph glyph-name="pause-circle" unicode="Pause&#x2d;Circle" 
d="M1024 1760q202 0 385.5 -78.5t316.5 -211.5t211.5 -316.5t78.5 -385.5t-78.5 -385.5t-211.5 -316.5t-316.5 -211.5t-385.5 -78.5t-385.5 78.5t-316.5 211.5t-211.5 316.5t-78.5 385.5t78.5 385.5t211.5 316.5t316.5 211.5t385.5 78.5zM1024 -32q163 0 311 63.5t255 170.5
t170.5 255t63.5 311t-63.5 311t-170.5 255t-255 170.5t-311 63.5t-311 -63.5t-255 -170.5t-170.5 -255t-63.5 -311t63.5 -311t170.5 -255t255 -170.5t311 -63.5zM1408 1088v-640q0 -26 -19 -45t-45 -19h-192q-26 0 -45 19t-19 45v640q0 26 19 45t45 19h192q26 0 45 -19
t19 -45zM960 1088v-640q0 -26 -19 -45t-45 -19h-192q-26 0 -45 19t-19 45v640q0 26 19 45t45 19h192q26 0 45 -19t19 -45z" />
    <glyph glyph-name="stop-circle" unicode="Stop&#x2d;Circle" 
d="M2016 768q0 -202 -78.5 -385.5t-211.5 -316.5t-316.5 -211.5t-385.5 -78.5t-385.5 78.5t-316.5 211.5t-211.5 316.5t-78.5 385.5t78.5 385.5t211.5 316.5t316.5 211.5t385.5 78.5t385.5 -78.5t316.5 -211.5t211.5 -316.5t78.5 -385.5zM224 768q0 -163 63.5 -311
t170.5 -255t255 -170.5t311 -63.5t311 63.5t255 170.5t170.5 255t63.5 311t-63.5 311t-170.5 255t-255 170.5t-311 63.5t-311 -63.5t-255 -170.5t-170.5 -255t-63.5 -311zM1408 1088v-640q0 -26 -19 -45t-45 -19h-640q-26 0 -45 19t-19 45v640q0 26 19 45t45 19h640
q26 0 45 -19t19 -45z" />
    <glyph glyph-name="handshake" unicode="Handshake" horiz-adv-x="2560" 
d="M2077 1280h483v-1022h-256q-53 0 -90.5 37t-37.5 89h-231q-10 -49 -44 -92l-105 -129q-47 -58 -119 -76t-137 9q-79 -96 -195 -96q-90 0 -164 64q-95 -67 -213 -63t-210 78l-338 305h-36q0 -52 -37.5 -89t-90.5 -37h-256v1022h472l190 191q65 65 159 65h907
q38 0 84.5 -19t73.5 -46zM192 386q26 0 45 18.5t19 45.5q0 26 -19 45t-45 19t-45 -19t-19 -45t19 -45t45 -19zM1752 413q8 10 6.5 23.5t-11.5 21.5l-433 352l-32 -30q-57 -52 -122 -68.5t-120 -2.5t-97 37t-67 51q-81 87 -76 205.5t93 199.5l155 142h-227q-4 -1 -11.5 -4
t-11.5 -5l-246 -246h-168v-513h111l389 -352q48 -39 113.5 -31.5t107.5 58.5l63 77l147 -126q7 -6 18.5 -9t27 1t26.5 17l120 146l95 -77q10 -8 24 -7t22 11zM2176 576v512h-179l-247 247q-9 9 -22 9l-334 -1q-61 0 -108 -42l-263 -240q-29 -26 -31 -66t26 -70
q28 -28 69 -27.5t70 27.5l221 203q20 18 46 17t44 -21l44 -47q18 -20 17 -46.5t-21 -44.5l-50 -45l410 -334q17 -14 31 -31h277zM2368 386q26 0 45 18.5t19 45.5q0 26 -19 45t-45 19t-45 -19t-19 -45t19 -45t45 -19z" />
    <glyph glyph-name="envelope-open" unicode="Envelope&#x2d;Open" 
d="M1978 1134q29 -24 49.5 -67.5t20.5 -80.5v-1050q0 -80 -56 -136t-136 -56h-1664q-80 0 -136 56t-56 136v1050q0 38 20.5 81t49.5 67q266 216 541 435q12 10 49.5 41t60.5 50t64.5 47t75.5 44t78 28.5t85 12.5q42 0 86 -12.5t78 -28.5t76 -44.5t65 -47t60 -50t48 -40.5
q465 -371 541 -435zM1856 -40v1015q0 11 -9 18q-251 203 -529 425q-4 3 -59 49t-82 66t-73.5 43.5t-79.5 23.5t-78.5 -23t-73 -43t-82 -65.5t-60.5 -50.5q-278 -222 -529 -425q-9 -7 -9 -18v-1015q0 -10 7 -17t17 -7h1616q10 0 17 7t7 17zM1728 711q13 -16 11 -35.5
t-18 -32.5q-45 -36 -110.5 -89t-109 -88t-64.5 -51q-12 -10 -49.5 -41t-60.5 -50t-64.5 -47t-75.5 -44t-78 -28.5t-85 -12.5q-49 0 -98.5 14.5t-99.5 45.5t-79 52t-78.5 62.5t-57.5 48.5q-50 40 -284 228q-16 13 -18 32.5t11 35.5l61 74q13 15 32.5 17t34.5 -10
q179 -145 282 -226q4 -3 59 -49t82 -66t73.5 -43.5t79.5 -23.5t78.5 23t73 43t82 65.5t60.5 50.5q103 81 282 226q15 12 34.5 10t32.5 -17z" />
    <glyph glyph-name="address-book" unicode="Address&#x2d;Book" horiz-adv-x="1792" 
d="M1744 1152h-80v-256h80q20 0 34 -14t14 -34v-160q0 -20 -14 -34t-34 -14h-80v-256h80q20 0 34 -14t14 -34v-160q0 -20 -14 -34t-34 -14h-80v-192q0 -80 -56 -136t-136 -56h-1280q-80 0 -136 56t-56 136v1664q0 80 56 136t136 56h1280q80 0 136 -56t56 -136v-192h80
q20 0 34 -14t14 -34v-160q0 -20 -14 -34t-34 -14zM1472 -64v1664h-1280v-1664h1280zM832 768q-106 0 -181 75t-75 181t75 181t181 75t181 -75t75 -181t-75 -181t-181 -75zM474 256q-37 0 -63.5 22.5t-26.5 54.5v77q0 95 79 162.5t190 67.5q15 0 66 -16t113 -16
q60 0 112.5 16t66.5 16q111 0 190 -67.5t79 -162.5v-77q0 -32 -26.5 -54.5t-63.5 -22.5h-716z" />
    <glyph glyph-name="address-card" unicode="Address&#x2d;Card" horiz-adv-x="2304" 
d="M2112 1664q80 0 136 -56t56 -136v-1408q0 -80 -56 -136t-136 -56h-1920q-80 0 -136 56t-56 136v1408q0 80 56 136t136 56h1920zM2112 64v1408h-1920v-1408h1920zM832 768q-106 0 -181 75t-75 181t75 181t181 75t181 -75t75 -181t-75 -181t-181 -75zM474 256
q-37 0 -63.5 22.5t-26.5 54.5v77q0 95 79 162.5t190 67.5q15 0 66 -16t113 -16q60 0 112.5 16t66.5 16q111 0 190 -67.5t79 -162.5v-77q0 -32 -26.5 -54.5t-63.5 -22.5h-716zM1440 512q-14 0 -23 9t-9 23v64q0 14 9 23t23 9h448q14 0 23 -9t9 -23v-64q0 -14 -9 -23t-23 -9
h-448zM1440 768q-14 0 -23 9t-9 23v64q0 14 9 23t23 9h448q14 0 23 -9t9 -23v-64q0 -14 -9 -23t-23 -9h-448zM1440 1024q-14 0 -23 9t-9 23v64q0 14 9 23t23 9h448q14 0 23 -9t9 -23v-64q0 -14 -9 -23t-23 -9h-448z" />
    <glyph glyph-name="user-circle" unicode="User&#x2d;Circle" horiz-adv-x="1984" 
d="M992 1376q159 0 271.5 -112.5t112.5 -271.5t-112.5 -271.5t-271.5 -112.5t-271.5 112.5t-112.5 271.5t112.5 271.5t271.5 112.5zM992 800q80 0 136 56t56 136t-56 136t-136 56t-136 -56t-56 -136t56 -136t136 -56zM992 1760q202 0 385.5 -78.5t316.5 -211.5t211.5 -316.5
t78.5 -385.5t-78.5 -385.5t-211.5 -316.5t-316.5 -211.5t-385.5 -78.5t-385.5 78.5t-316.5 211.5t-211.5 316.5t-78.5 385.5t78.5 385.5t211.5 316.5t316.5 211.5t385.5 78.5zM992 -32q146 0 279 51t241 143q-46 70 -119 112.5t-159 45.5q-124 -39 -242 -39t-242 39
q-86 -3 -159 -45.5t-119 -112.5q108 -92 241 -143t279 -51zM1643 304q149 208 149 464q0 162 -63.5 310.5t-170.5 255.5t-255.5 170.5t-310.5 63.5t-310.5 -63.5t-255.5 -170.5t-170.5 -255.5t-63.5 -310.5q0 -256 149 -464q75 97 185 152.5t236 55.5q10 0 83 -19t147 -19
t147 19t83 19q126 0 236 -55.5t185 -152.5z" />
    <glyph glyph-name="id-badge" unicode="Id&#x2d;Badge" horiz-adv-x="1536" 
d="M1344 1792q80 0 136 -56t56 -136v-1664q0 -80 -56 -136t-136 -56h-1152q-80 0 -136 56t-56 136v1664q0 80 56 136t136 56h1152zM1344 -64v1664h-1152v-1664h1152zM576 1344q-26 0 -45 19t-19 45t19 45t45 19h384q26 0 45 -19t19 -45t-19 -45t-45 -19h-384zM768 640
q-106 0 -181 75t-75 181t75 181t181 75t181 -75t75 -181t-75 -181t-181 -75zM410 128q-37 0 -63.5 22.5t-26.5 54.5v77q0 95 79 162.5t190 67.5q15 0 66 -16t113 -16q60 0 112.5 16t66.5 16q111 0 190 -67.5t79 -162.5v-77q0 -32 -26.5 -54.5t-63.5 -22.5h-716z" />
    <glyph glyph-name="id-card" unicode="Id&#x2d;Card" horiz-adv-x="2304" 
d="M2112 1664q80 0 136 -56t56 -136v-1408q0 -80 -56 -136t-136 -56h-1920q-80 0 -136 56t-56 136v1408q0 80 56 136t136 56h1920zM2112 64v1152h-1920v-1152h131q-1 4 -2 7q-1 2 -1 33v50q0 95 79 162.5t190 67.5q15 0 66 -16t113 -16q60 0 112.5 16t66.5 16
q111 0 190 -67.5t79 -162.5q0 -80 -2 -85q0 -2 -1 -5h899zM1440 384q-14 0 -23 9t-9 23v64q0 14 9 23t23 9h448q14 0 23 -9t9 -23v-64q0 -14 -9 -23t-23 -9h-448zM1440 640q-14 0 -23 9t-9 23v64q0 14 9 23t23 9h448q14 0 23 -9t9 -23v-64q0 -14 -9 -23t-23 -9h-448z
M1440 896q-14 0 -23 9t-9 23v64q0 14 9 23t23 9h448q14 0 23 -9t9 -23v-64q0 -14 -9 -23t-23 -9h-448zM768 512q-106 0 -181 75t-75 181t75 181t181 75t181 -75t75 -181t-75 -181t-181 -75z" />
    <glyph glyph-name="window-maximize" unicode="Window&#x2d;Maximize" 
d="M1856 1664q80 0 136 -56t56 -136v-1408q0 -80 -56 -136t-136 -56h-1664q-80 0 -136 56t-56 136v1408q0 80 56 136t136 56h1664zM1856 88v936h-1664v-936q0 -10 7 -17t17 -7h1616q10 0 17 7t7 17z" />
    <glyph glyph-name="window-minimize" unicode="Window&#x2d;Minimize" 
d="M1920 -128h-1792q-53 0 -90.5 37.5t-37.5 90.5t37.5 90.5t90.5 37.5h1792q53 0 90.5 -37.5t37.5 -90.5t-37.5 -90.5t-90.5 -37.5z" />
    <glyph glyph-name="window-restore" unicode="Window&#x2d;Restore" 
d="M1856 1792q80 0 136 -56t56 -136v-1280q0 -80 -56 -136t-136 -56h-192v-192q0 -80 -56 -136t-136 -56h-1280q-80 0 -136 56t-56 136v1280q0 80 56 136t136 56h192v192q0 80 56 136t136 56h1280zM1472 -64v832h-1280v-832h1280zM1856 320v1280h-1280v-192h896
q80 0 136 -56t56 -136v-896h192z" />
    <glyph glyph-name="snowflake" unicode="Snowflake" horiz-adv-x="1792" 
d="M1760 371q23 -14 29 -39t-7 -48l-31 -55q-14 -23 -38.5 -30t-47.5 6l-157 92l36 -139q7 -26 -6 -48.5t-38 -29.5l-61 -16q-25 -7 -47.5 6t-29.5 39l-85 324l-288 169v-338l233 -238q18 -19 18 -45t-18 -45l-44 -45q-18 -19 -44.5 -19t-44.5 19l-99 101v-184
q0 -26 -18.5 -45t-44.5 -19h-63q-26 0 -44.5 19t-18.5 45v184l-99 -102q-18 -19 -44.5 -19t-44.5 19l-45 45q-18 19 -18 45.5t18 45.5l234 237v338l-288 -169l-85 -324q-7 -26 -29.5 -39t-47.5 -6l-61 16q-25 7 -38.5 30t-6.5 49l37 138l-157 -92q-23 -13 -48 -6t-38 30
l-32 56q-13 23 -6 48t30 39l156 92l-136 37q-25 7 -38 30t-6 49l16 62q7 26 29.5 39t47.5 6l319 -87l288 169l-288 169l-319 -87q-25 -7 -47.5 6t-29.5 39l-16 62q-7 26 6 49t38 30l136 36l-156 92q-23 14 -30 39.5t6 48.5l32 55q14 23 38.5 30t47.5 -6l157 -92l-37 139
q-7 26 6.5 48.5t38.5 29.5l61 16q25 7 47.5 -6t29.5 -39l85 -324l288 -169v338l-234 238q-18 19 -18 45t18 45l46 45q18 19 44.5 19t44.5 -19l100 -101v184q0 26 18.5 45t44.5 19h62q26 0 44.5 -19t18.5 -45v-184l100 102q18 19 44.5 19t44.5 -19l44 -45q18 -19 18 -45.5
t-18 -45.5l-233 -237v-338l287 169l86 324q7 26 29.5 39t47.5 6l61 -16q25 -7 38 -30t6 -49l-36 -138l156 92q23 13 48 6t38 -30l32 -56q13 -23 6 -48.5t-29 -38.5l-157 -92l136 -37q25 -7 38.5 -30t6.5 -49l-17 -62q-7 -26 -29.5 -39t-47.5 -6l-319 87l-287 -169l287 -169
l319 87q25 7 47.5 -6t29.5 -39l16 -62q7 -26 -6 -49t-38 -30l-136 -37z" />
    <glyph glyph-name="trash-alt" unicode="Trash&#x2d;Alt" horiz-adv-x="1792" 
d="M1072 128q-20 0 -34 14t-14 34v864q0 20 14 34t34 14h96q20 0 34 -14t14 -34v-864q0 -20 -14 -34t-34 -14h-96zM1728 1472q26 0 45 -19t19 -45v-64q0 -26 -19 -45t-45 -19h-64v-1344q0 -80 -56 -136t-136 -56h-1152q-80 0 -136 56t-56 136v1344h-64q-26 0 -45 19t-19 45
v64q0 26 19 45t45 19h330l136 227q23 38 71 65.5t93 27.5h404q45 0 93 -27.5t71 -65.5l136 -227h330zM687 1588l-69 -116h556l-69 116q-8 12 -21 12h-376q-13 0 -21 -12zM1472 -64v1344h-1152v-1344h1152zM624 128q-20 0 -34 14t-14 34v864q0 20 14 34t34 14h96q20 0 34 -14
t14 -34v-864q0 -20 -14 -34t-34 -14h-96z" />
    <glyph glyph-name="images" unicode="Images" horiz-adv-x="2304" 
d="M1920 128v-64q0 -80 -56 -136t-136 -56h-1536q-80 0 -136 56t-56 136v1024q0 80 56 136t136 56h64v-192h-40q-10 0 -17 -7t-7 -17v-976q0 -10 7 -17t17 -7h1488q10 0 17 7t7 17v40h192zM2088 1472h-1488q-10 0 -17 -7t-7 -17v-976q0 -10 7 -17t17 -7h1488q10 0 17 7t7 17
v976q0 10 -7 17t-17 7zM2112 1664q80 0 136 -56t56 -136v-1024q0 -80 -56 -136t-136 -56h-1536q-80 0 -136 56t-56 136v1024q0 80 56 136t136 56h1536zM1056 1216q0 -66 -47 -113t-113 -47t-113 47t-47 113t47 113t113 47t113 -47t47 -113zM768 832l158 158q14 14 34 14
t34 -14l158 -158l414 414q14 14 34 14t34 -14l286 -286v-320h-1152v192z" />
    <glyph glyph-name="clipboard" unicode="Clipboard" horiz-adv-x="1536" 
d="M1344 1536q80 0 136 -56t56 -136v-1408q0 -80 -56 -136t-136 -56h-1152q-80 0 -136 56t-56 136v1408q0 80 56 136t136 56h320q0 106 75 181t181 75t181 -75t75 -181h320zM768 1632q-40 0 -68 -28t-28 -68t28 -68t68 -28t68 28t28 68t-28 68t-68 28zM1344 -40v1360
q0 10 -7 17t-17 7h-168v-144q0 -20 -14 -34t-34 -14h-672q-20 0 -34 14t-14 34v144h-168q-10 0 -17 -7t-7 -17v-1360q0 -10 7 -17t17 -7h1104q10 0 17 7t7 17z" />
    <glyph glyph-name="arrow-alt-circle-down" unicode="Arrow&#x2d;Alt&#x2d;Circle&#x2d;Down" 
d="M1024 1760q202 0 385.5 -78.5t316.5 -211.5t211.5 -316.5t78.5 -385.5t-78.5 -385.5t-211.5 -316.5t-316.5 -211.5t-385.5 -78.5t-385.5 78.5t-316.5 211.5t-211.5 316.5t-78.5 385.5t78.5 385.5t211.5 316.5t316.5 211.5t385.5 78.5zM1024 -32q163 0 311 63.5t255 170.5
t170.5 255t63.5 311t-63.5 311t-170.5 255t-255 170.5t-311 63.5t-311 -63.5t-255 -170.5t-170.5 -255t-63.5 -311t63.5 -311t170.5 -255t255 -170.5t311 -63.5zM896 1232q0 20 14 34t34 14h160q20 0 34 -14t14 -34v-464h268q32 0 44.5 -30t-10.5 -52l-396 -396
q-14 -14 -34 -14t-34 14l-396 396q-23 22 -10.5 52t44.5 30h268v464z" />
    <glyph glyph-name="arrow-alt-circle-left" unicode="Arrow&#x2d;Alt&#x2d;Circle&#x2d;Left" 
d="M32 768q0 202 78.5 385.5t211.5 316.5t316.5 211.5t385.5 78.5t385.5 -78.5t316.5 -211.5t211.5 -316.5t78.5 -385.5t-78.5 -385.5t-211.5 -316.5t-316.5 -211.5t-385.5 -78.5t-385.5 78.5t-316.5 211.5t-211.5 316.5t-78.5 385.5zM1824 768q0 163 -63.5 311t-170.5 255
t-255 170.5t-311 63.5t-311 -63.5t-255 -170.5t-170.5 -255t-63.5 -311t63.5 -311t170.5 -255t255 -170.5t311 -63.5t311 63.5t255 170.5t170.5 255t63.5 311zM1536 848v-160q0 -20 -14 -34t-34 -14h-464v-268q0 -32 -30 -44.5t-52 10.5l-396 396q-14 14 -14 34t14 34
l396 396q22 23 52 10.5t30 -44.5v-268h464q20 0 34 -14t14 -34z" />
    <glyph glyph-name="arrow-alt-circle-right" unicode="Arrow&#x2d;Alt&#x2d;Circle&#x2d;Right" 
d="M2016 768q0 -202 -78.5 -385.5t-211.5 -316.5t-316.5 -211.5t-385.5 -78.5t-385.5 78.5t-316.5 211.5t-211.5 316.5t-78.5 385.5t78.5 385.5t211.5 316.5t316.5 211.5t385.5 78.5t385.5 -78.5t316.5 -211.5t211.5 -316.5t78.5 -385.5zM224 768q0 -163 63.5 -311
t170.5 -255t255 -170.5t311 -63.5t311 63.5t255 170.5t170.5 255t63.5 311t-63.5 311t-170.5 255t-255 170.5t-311 63.5t-311 -63.5t-255 -170.5t-170.5 -255t-63.5 -311zM512 688v160q0 20 14 34t34 14h464v268q0 32 30 44.5t52 -10.5l396 -396q14 -14 14 -34t-14 -34
l-396 -396q-22 -23 -52 -10.5t-30 44.5v268h-464q-20 0 -34 14t-14 34z" />
    <glyph glyph-name="arrow-alt-circle-up" unicode="Arrow&#x2d;Alt&#x2d;Circle&#x2d;Up" 
d="M1024 -224q-202 0 -385.5 78.5t-316.5 211.5t-211.5 316.5t-78.5 385.5t78.5 385.5t211.5 316.5t316.5 211.5t385.5 78.5t385.5 -78.5t316.5 -211.5t211.5 -316.5t78.5 -385.5t-78.5 -385.5t-211.5 -316.5t-316.5 -211.5t-385.5 -78.5zM1024 1568q-163 0 -311 -63.5
t-255 -170.5t-170.5 -255t-63.5 -311t63.5 -311t170.5 -255t255 -170.5t311 -63.5t311 63.5t255 170.5t170.5 255t63.5 311t-63.5 311t-170.5 255t-255 170.5t-311 63.5zM1104 256h-160q-20 0 -34 14t-14 34v464h-268q-32 0 -44.5 30t10.5 52l396 396q14 14 34 14t34 -14
l396 -396q23 -22 10.5 -52t-44.5 -30h-268v-464q0 -20 -14 -34t-34 -14z" />
    <glyph glyph-name="gem" unicode="Gem" horiz-adv-x="2304" 
d="M1856 1792q26 0 40 -22l400 -588q20 -29 -3 -57l-1104 -1363q-14 -18 -37 -18t-37 18l-1104 1363q-23 28 -3 57l400 588q14 22 40 22h1408zM1779 1600h-227l206 -384h274zM970 1600l-206 -384h776l-207 384h-363zM525 1600l-253 -384h274l206 384h-227zM353 1024
l479 -640l-273 640h-206zM765 1024l387 -973l387 973h-774zM1472 384l478 640h-205z" />
    <glyph glyph-name="money-bill-alt" unicode="Money&#x2d;Bill&#x2d;Alt" horiz-adv-x="2560" 
d="M1280 1216q159 0 271.5 -131.5t112.5 -316.5t-112.5 -316.5t-271.5 -131.5t-271.5 131.5t-112.5 316.5t112.5 316.5t271.5 131.5zM1440 544v64q0 14 -9 23t-23 9h-64v352q0 14 -9 23t-23 9h-54q-31 0 -54 -16l-61 -41q-14 -9 -14 -27q0 -10 5 -17l36 -54q9 -14 26 -14
q10 0 18 6l2 1v-222h-64q-14 0 -23 -9t-9 -23v-64q0 -14 9 -23t23 -9h256q14 0 23 9t9 23zM2432 1536q53 0 90.5 -37.5t37.5 -90.5v-1280q0 -53 -37.5 -90.5t-90.5 -37.5h-2304q-53 0 -90.5 37.5t-37.5 90.5v1280q0 53 37.5 90.5t90.5 37.5h2304zM2368 448v640
q-106 0 -181 75t-75 181h-1664q0 -106 -75 -181t-181 -75v-640q106 0 181 -75t75 -181h1664q0 106 75 181t181 75z" />
    <glyph glyph-name="window-close" unicode="Window&#x2d;Close" 
d="M1856 1664q80 0 136 -56t56 -136v-1408q0 -80 -56 -136t-136 -56h-1664q-80 0 -136 56t-56 136v1408q0 80 56 136t136 56h1664zM1856 88v1360q0 10 -7 17t-17 7h-1616q-10 0 -17 -7t-7 -17v-1360q0 -10 7 -17t17 -7h1616q10 0 17 7t7 17zM1426 1014l-246 -246l246 -246
q14 -14 14 -33.5t-14 -33.5l-89 -89q-13 -14 -33 -14t-34 14l-246 246l-246 -246q-14 -14 -33.5 -14t-33.5 14l-89 89q-14 13 -14 33t14 34l246 246l-246 246q-14 14 -14 33.5t14 33.5l89 89q13 14 33 14t34 -14l246 -246l246 246q14 14 33.5 14t33.5 -14l89 -89
q14 -13 14 -33t-14 -34z" />
    <glyph glyph-name="comment-dots" unicode="Comment&#x2d;Dots" 
d="M576 960q53 0 90.5 -37.5t37.5 -90.5t-37.5 -90.5t-90.5 -37.5t-90.5 37.5t-37.5 90.5t37.5 90.5t90.5 37.5zM1024 960q53 0 90.5 -37.5t37.5 -90.5t-37.5 -90.5t-90.5 -37.5t-90.5 37.5t-37.5 90.5t37.5 90.5t90.5 37.5zM1472 960q53 0 90.5 -37.5t37.5 -90.5
t-37.5 -90.5t-90.5 -37.5t-90.5 37.5t-37.5 90.5t37.5 90.5t90.5 37.5zM1024 1664q209 0 398.5 -66t326.5 -177t218 -265.5t81 -323.5t-81 -323.5t-218 -265.5t-326.5 -177t-398.5 -66q-188 0 -372 57q-262 -185 -556 -185q-29 0 -53 16t-35 42t-6 54.5t24 49.5
q11 11 36.5 41.5t74 106t75.5 145.5q-212 225 -212 505q0 169 81 323.5t218 265.5t326.5 177t398.5 66zM1024 192q169 0 323 51t265.5 136.5t177.5 204t66 248.5t-66 248.5t-177.5 204t-265.5 136.5t-323 51t-323 -51t-265.5 -136.5t-177.5 -204t-66 -248.5q0 -204 159 -374
l83 -87l-43 -112q-31 -81 -79 -161q119 38 230 116l78 55l90 -29q152 -48 314 -48z" />
    <glyph glyph-name="smile-wink" unicode="Smile&#x2d;Wink" horiz-adv-x="1984" 
d="M992 1760q202 0 385.5 -78.5t316.5 -211.5t211.5 -316.5t78.5 -385.5t-78.5 -385.5t-211.5 -316.5t-316.5 -211.5t-385.5 -78.5t-385.5 78.5t-316.5 211.5t-211.5 316.5t-78.5 385.5t78.5 385.5t211.5 316.5t316.5 211.5t385.5 78.5zM992 -32q162 0 310.5 63.5
t255.5 170.5t170.5 255.5t63.5 310.5t-63.5 310.5t-170.5 255.5t-255.5 170.5t-310.5 63.5t-310.5 -63.5t-255.5 -170.5t-170.5 -255.5t-63.5 -310.5t63.5 -310.5t170.5 -255.5t255.5 -170.5t310.5 -63.5zM1463 554q31 -26 34.5 -65.5t-21.5 -70.5q-90 -108 -216.5 -167
t-267.5 -59t-267.5 59t-216.5 167q-25 31 -21.5 70.5t34.5 65.5q30 25 69.5 21.5t65.5 -34.5q62 -75 150 -116t186 -41t186 41t150 116q26 31 65 34.5t70 -21.5zM672 832q-53 0 -90.5 37.5t-37.5 90.5t37.5 90.5t90.5 37.5t90.5 -37.5t37.5 -90.5t-37.5 -90.5t-90.5 -37.5z
M1312 1072q82 0 155 -48t84 -120q5 -33 -24.5 -49.5t-54.5 5.5l-38 34q-44 40 -122 40t-122 -40l-38 -34q-25 -23 -55 -6.5t-25 50.5q11 72 84.5 120t155.5 48z" />
    <glyph glyph-name="font-awesome-logo-full" unicode="Font&#x2d;Awesome&#x2d;Logo&#x2d;Full" horiz-adv-x="15968" 
d="M1818 1792q94 0 162 -68t68 -162v-1588q0 -95 -67.5 -162.5t-161.5 -67.5h-1589q-95 0 -162.5 67.5t-67.5 161.5v1589q0 94 68 162t162 68h1588zM1583 492v642q0 14 -12.5 25t-28.5 11q-8 0 -46 -16.5t-79 -32.5t-92.5 -23.5t-88.5 9.5q-78 30 -146 45t-114.5 18t-98 -6
t-79 -18t-75.5 -27t-71 -26v84q59 46 59 121q0 63 -45 108t-108 45t-107.5 -45t-44.5 -108q0 -74 60 -121v-1000q0 -43 28.5 -67.5t62.5 -24.5t62.5 24.5t28.5 67.5v207q106 53 195.5 73.5t152.5 12t112 -24.5t100.5 -33.5t92.5 -17.5q94 0 246 63q36 15 36 35zM3314 1189
h-548v-280h534q45 0 76.5 -25.5t39 -62.5t0.5 -73.5t-38.5 -62t-77.5 -25.5h-534v-422q0 -43 -21 -75.5t-52 -47t-68 -15t-68 14t-52 47t-21 76.5v1041q0 66 47 112.5t112 46.5h671q45 0 76 -25.5t38.5 -62t1 -73.5t-38 -62.5t-77.5 -25.5zM4079 1096q123 0 222.5 -43.5
t160.5 -114.5t94.5 -161.5t33.5 -185.5t-33.5 -185.5t-94.5 -161.5t-160.5 -114.5t-222.5 -43.5q-122 0 -221 43.5t-160 114.5t-94 161.5t-33 185.5t33 185.5t93.5 161.5t160 114.5t221.5 43.5zM4079 311q60 0 108 24t78 63.5t46 89.5t16 102.5t-16 102.5t-46 89.5t-78 63.5
t-108 24q-67 0 -120 -31t-80.5 -80t-40 -109t0.5 -119.5t40 -108.5t80 -80t120 -31zM5568 98q-52 0 -88.5 36t-36.5 89v468q0 71 -31 116t-78.5 57t-101.5 4t-104.5 -38t-81.5 -73v-534q0 -34 -14 -61t-36.5 -41t-49 -20.5t-53.5 0t-49.5 20.5t-36.5 41t-14 61v737
q0 57 39.5 90t87 33.5t87 -32t39.5 -91.5v-14q43 51 108.5 87.5t137 52.5t144 7.5t130 -40.5t93.5 -100t36 -164v-566q0 -34 -13.5 -59.5t-30.5 -37.5t-38 -19t-30.5 -8t-14.5 -1zM6287 86q-133 0 -203 67t-70 196v502h-62q-50 0 -79.5 34.5t-30 76t28.5 76t81 34.5h62v150
q0 39 19 68.5t47 42.5t61.5 13.5t61.5 -12.5t47 -42.5t19 -69.5v-150h100q50 0 79 -34.5t29 -76.5t-28.5 -76.5t-79.5 -34.5h-100v-434q0 -32 10 -54.5t24.5 -31.5t30 -15t27.5 -4.5t17 0.5h1q57 0 93 -49q37 -51 12 -101q-38 -75 -197 -75zM7968 1300q374 -964 386 -999
q10 -31 10 -52q0 -40 -17.5 -72t-44.5 -50.5t-60.5 -25t-65.5 0.5t-59 30t-41 59l-52 144h-570l-54 -144q-16 -42 -51 -67t-74.5 -25.5t-76.5 14t-61.5 51t-24.5 85.5q0 21 5 35q9 30 306 794q43 110 87 222q22 58 69 96t103 48t112.5 0.5t103.5 -48t70 -96.5zM7532 584h414
l-207 571zM9898 926l-215 -705q-14 -48 -49 -79.5t-77.5 -39t-84.5 0.5t-76.5 39.5t-48.5 78.5l-169 543l-170 -543q-14 -47 -49 -78.5t-77.5 -39.5t-85 -0.5t-77.5 39t-49 79.5l-216 705q-24 74 28 122t122 34t90 -88l158 -570l181 558q16 47 56.5 74t85 28t85.5 -25.5
t58 -76.5l181 -558l157 570q8 31 28.5 52.5t46 29t53.5 7t52 -13t42.5 -32t23.5 -48.5t-4 -63zM10999 626q0 -47 -34.5 -81.5t-82.5 -34.5h-593q10 -76 56.5 -130t111.5 -76t143.5 -15t151.5 46q54 27 106 -4t52 -86q0 -40 -39.5 -72t-99.5 -50t-120.5 -27.5t-112.5 -9.5
q-224 0 -369 139t-145 367q0 139 62.5 254t177 182.5t257.5 67.5q98 0 180.5 -32.5t136 -83.5t91 -115t54 -124.5t16.5 -114.5zM10284 681h474q-5 66 -39.5 115t-83.5 72.5t-107 25t-108.5 -20t-88.5 -72t-47 -120.5zM11551 86q-108 0 -227 34.5t-160 93.5q-36 51 -3.5 105
t91.5 54q21 0 53.5 -14.5t64 -31.5t84 -31.5t108.5 -14.5q79 0 120.5 28.5t41.5 74.5q0 28 -24.5 47.5t-65 30t-91.5 22t-105 22t-105 33t-91.5 52.5t-65 81.5t-24.5 119.5q0 127 106 215t289 88q105 0 208.5 -31t141.5 -86q32 -44 3.5 -94.5t-86.5 -50.5q-19 0 -45 11
t-50.5 23.5t-70 23.5t-99.5 11q-68 0 -109.5 -27t-41.5 -68q0 -29 31.5 -47.5t81.5 -30t110.5 -23t121.5 -33t111 -53t81.5 -89.5t31.5 -137q0 -135 -110.5 -221.5t-305.5 -86.5zM12618 1096q123 0 222 -43.5t160 -114.5t94.5 -161.5t33.5 -185.5t-33 -185.5t-94 -161.5
t-160.5 -114.5t-222.5 -43.5q-122 0 -221 43.5t-160 114.5t-94 161.5t-33 185.5t33 185.5t93.5 161.5t160 114.5t221.5 43.5zM12618 311q60 0 108 24t78 63.5t46 89.5t16 102.5t-16 102.5t-46 89.5t-78 63.5t-108 24q-67 0 -120 -31t-80.5 -80t-40 -109t0 -119.5t40 -108.5
t80.5 -80t120 -31zM14526 223v494q0 76 -40 116t-95 39.5t-113.5 -31t-94.5 -82.5v-536q0 -47 -26.5 -79.5t-63.5 -40t-74.5 -0.5t-64 39.5t-26.5 80.5v494q0 98 -63.5 135t-145.5 8.5t-134 -102.5v-535q0 -40 -18.5 -69t-47 -42t-61 -13.5t-61 13t-47 42.5t-18.5 69v737
q0 57 39.5 90t86.5 33.5t86.5 -32t39.5 -91.5v-14q36 52 125 101t189 49q104 0 171.5 -46t95.5 -130q46 71 136.5 123.5t194.5 52.5q135 0 208.5 -73t73.5 -218v-581q2 -52 -35 -89t-92 -37q-42 0 -79 26q-46 33 -46 99zM15968 626q-1 -47 -35 -81.5t-82 -34.5h-599
q10 -76 57.5 -130t113.5 -76t146 -15t153 46q54 27 105.5 -3.5t51.5 -86.5q0 -40 -38.5 -72t-97.5 -50t-119 -27.5t-111 -9.5q-147 0 -266 61t-190 177.5t-71 267.5q0 103 39 196t106 161t162 107.5t203 39.5q98 0 180 -32.5t134.5 -83.5t89.5 -115t52.5 -124.5t15.5 -114.5
zM15246 681h480q-4 66 -38.5 115t-84.5 73t-108.5 25.5t-110.5 -20t-90.5 -72t-47.5 -121.5z" />
    <glyph glyph-name="angry" unicode="Angry" horiz-adv-x="1984" 
d="M992 1760q202 0 385.5 -78.5t316.5 -211.5t211.5 -316.5t78.5 -385.5t-78.5 -385.5t-211.5 -316.5t-316.5 -211.5t-385.5 -78.5t-385.5 78.5t-316.5 211.5t-211.5 316.5t-78.5 385.5t78.5 385.5t211.5 316.5t316.5 211.5t385.5 78.5zM992 -32q162 0 310.5 63.5
t255.5 170.5t170.5 255.5t63.5 310.5t-63.5 310.5t-170.5 255.5t-255.5 170.5t-310.5 63.5t-310.5 -63.5t-255.5 -170.5t-170.5 -255.5t-63.5 -310.5t63.5 -310.5t170.5 -255.5t255.5 -170.5t310.5 -63.5zM992 544q101 0 192 -42.5t155 -119.5q26 -31 22.5 -71t-34.5 -65
q-32 -26 -71 -22t-64 34q-74 89 -200 89t-200 -89q-25 -31 -64.5 -34.5t-70.5 22.5q-31 25 -34.5 65t22.5 71q64 77 155 119.5t192 42.5zM800 832q0 -53 -37.5 -90.5t-90.5 -37.5t-90.5 37.5t-37.5 90.5q0 31 21 66l-113 34q-38 11 -56.5 46.5t-7.5 73.5t46.5 57t73.5 7
l320 -96q38 -11 56.5 -46.5t7.5 -73.5q-9 -31 -35 -49.5t-57 -18.5zM1596 1052q11 -38 -7.5 -73.5t-56.5 -46.5l-113 -34q21 -35 21 -66q0 -53 -37.5 -90.5t-90.5 -37.5t-90.5 37.5t-37.5 90.5q-31 0 -57 18.5t-35 49.5q-11 38 7.5 73.5t56.5 46.5l320 96q38 11 73.5 -7.5
t46.5 -56.5z" />
    <glyph glyph-name="dizzy" unicode="Dizzy" horiz-adv-x="1984" 
d="M992 1760q202 0 385.5 -78.5t316.5 -211.5t211.5 -316.5t78.5 -385.5t-78.5 -385.5t-211.5 -316.5t-316.5 -211.5t-385.5 -78.5t-385.5 78.5t-316.5 211.5t-211.5 316.5t-78.5 385.5t78.5 385.5t211.5 316.5t316.5 211.5t385.5 78.5zM992 -32q162 0 310.5 63.5
t255.5 170.5t170.5 255.5t63.5 310.5t-63.5 310.5t-170.5 255.5t-255.5 170.5t-310.5 63.5t-310.5 -63.5t-255.5 -170.5t-170.5 -255.5t-63.5 -310.5t63.5 -310.5t170.5 -255.5t255.5 -170.5t310.5 -63.5zM857 840q-24 -24 -57 -24t-57 23l-71 71l-71 -71q-23 -23 -56.5 -23
t-56.5 23t-23 56.5t23 56.5l71 72l-71 71q-23 23 -23 56.5t23 56.5t56.5 23t56.5 -23l71 -71l72 72q23 23 56.5 23t56.5 -23t23 -56.5t-23 -56.5l-72 -72l72 -71q23 -23 23 -56.5t-23 -56.5zM1497 1208q23 -23 23 -56t-23 -56l-72 -72l71 -72q23 -23 23 -56.5t-23 -56.5
t-56.5 -23t-56.5 23l-71 71l-71 -71q-23 -23 -56.5 -23t-56.5 23t-23 56.5t23 56.5l71 72l-71 71q-23 23 -23 56.5t23 56.5t56.5 23t56.5 -23l71 -71l72 71q23 23 56.5 23t56.5 -23zM992 704q106 0 181 -75t75 -181t-75 -181t-181 -75t-181 75t-75 181t75 181t181 75z" />
    <glyph glyph-name="flushed" unicode="Flushed" horiz-adv-x="1984" 
d="M992 1760q202 0 385.5 -78.5t316.5 -211.5t211.5 -316.5t78.5 -385.5t-78.5 -385.5t-211.5 -316.5t-316.5 -211.5t-385.5 -78.5t-385.5 78.5t-316.5 211.5t-211.5 316.5t-78.5 385.5t78.5 385.5t211.5 316.5t316.5 211.5t385.5 78.5zM992 -32q162 0 310.5 63.5
t255.5 170.5t170.5 255.5t63.5 310.5t-63.5 310.5t-170.5 255.5t-255.5 170.5t-310.5 63.5t-310.5 -63.5t-255.5 -170.5t-170.5 -255.5t-63.5 -310.5t63.5 -310.5t170.5 -255.5t255.5 -170.5t310.5 -63.5zM1376 1216q133 0 226.5 -93.5t93.5 -226.5t-93.5 -226.5
t-226.5 -93.5t-226.5 93.5t-93.5 226.5t93.5 226.5t226.5 93.5zM1376 704q80 0 136 56t56 136t-56 136t-136 56t-136 -56t-56 -136t56 -136t136 -56zM1376 992q40 0 68 -28t28 -68t-28 -68t-68 -28t-68 28t-28 68t28 68t68 28zM928 896q0 -133 -93.5 -226.5t-226.5 -93.5
t-226.5 93.5t-93.5 226.5t93.5 226.5t226.5 93.5t226.5 -93.5t93.5 -226.5zM608 704q80 0 136 56t56 136t-56 136t-136 56t-136 -56t-56 -136t56 -136t136 -56zM608 992q40 0 68 -28t28 -68t-28 -68t-68 -28t-68 28t-28 68t28 68t68 28zM1248 416q40 0 68 -28t28 -68
t-28 -68t-68 -28h-512q-40 0 -68 28t-28 68t28 68t68 28h512z" />
    <glyph glyph-name="frown-open" unicode="Frown&#x2d;Open" horiz-adv-x="1984" 
d="M992 1760q202 0 385.5 -78.5t316.5 -211.5t211.5 -316.5t78.5 -385.5t-78.5 -385.5t-211.5 -316.5t-316.5 -211.5t-385.5 -78.5t-385.5 78.5t-316.5 211.5t-211.5 316.5t-78.5 385.5t78.5 385.5t211.5 316.5t316.5 211.5t385.5 78.5zM992 -32q162 0 310.5 63.5
t255.5 170.5t170.5 255.5t63.5 310.5t-63.5 310.5t-170.5 255.5t-255.5 170.5t-310.5 63.5t-310.5 -63.5t-255.5 -170.5t-170.5 -255.5t-63.5 -310.5t63.5 -310.5t170.5 -255.5t255.5 -170.5t310.5 -63.5zM800 960q0 -53 -37.5 -90.5t-90.5 -37.5t-90.5 37.5t-37.5 90.5
t37.5 90.5t90.5 37.5t90.5 -37.5t37.5 -90.5zM1312 1088q53 0 90.5 -37.5t37.5 -90.5t-37.5 -90.5t-90.5 -37.5t-90.5 37.5t-37.5 90.5t37.5 90.5t90.5 37.5zM992 640q75 0 155.5 -26.5t147.5 -85t80 -133.5q6 -35 -21 -58.5t-61 -13.5q-201 61 -301 61t-301 -61
q-34 -10 -61 13.5t-21 58.5q13 75 80 133.5t147.5 85t155.5 26.5z" />
    <glyph glyph-name="grimace" unicode="Grimace" horiz-adv-x="1984" 
d="M992 1760q202 0 385.5 -78.5t316.5 -211.5t211.5 -316.5t78.5 -385.5t-78.5 -385.5t-211.5 -316.5t-316.5 -211.5t-385.5 -78.5t-385.5 78.5t-316.5 211.5t-211.5 316.5t-78.5 385.5t78.5 385.5t211.5 316.5t316.5 211.5t385.5 78.5zM992 -32q162 0 310.5 63.5
t255.5 170.5t170.5 255.5t63.5 310.5t-63.5 310.5t-170.5 255.5t-255.5 170.5t-310.5 63.5t-310.5 -63.5t-255.5 -170.5t-170.5 -255.5t-63.5 -310.5t63.5 -310.5t170.5 -255.5t255.5 -170.5t310.5 -63.5zM672 832q-53 0 -90.5 37.5t-37.5 90.5t37.5 90.5t90.5 37.5
t90.5 -37.5t37.5 -90.5t-37.5 -90.5t-90.5 -37.5zM1312 832q-53 0 -90.5 37.5t-37.5 90.5t37.5 90.5t90.5 37.5t90.5 -37.5t37.5 -90.5t-37.5 -90.5t-90.5 -37.5zM1376 768q80 0 136 -56t56 -136v-128q0 -80 -56 -136t-136 -56h-768q-80 0 -136 56t-56 136v128q0 80 56 136
t136 56h768zM704 384v96h-160v-32q0 -26 19 -45t45 -19h96zM704 544v96h-96q-26 0 -45 -19t-19 -45v-32h160zM960 384v96h-192v-96h192zM960 544v96h-192v-96h192zM1216 384v96h-192v-96h192zM1216 544v96h-192v-96h192zM1440 448v32h-160v-96h96q26 0 45 19t19 45z
M1440 544v32q0 26 -19 45t-45 19h-96v-96h160z" />
    <glyph glyph-name="grin" unicode="Grin" horiz-adv-x="1984" 
d="M992 1760q202 0 385.5 -78.5t316.5 -211.5t211.5 -316.5t78.5 -385.5t-78.5 -385.5t-211.5 -316.5t-316.5 -211.5t-385.5 -78.5t-385.5 78.5t-316.5 211.5t-211.5 316.5t-78.5 385.5t78.5 385.5t211.5 316.5t316.5 211.5t385.5 78.5zM992 -32q162 0 310.5 63.5
t255.5 170.5t170.5 255.5t63.5 310.5t-63.5 310.5t-170.5 255.5t-255.5 170.5t-310.5 63.5t-310.5 -63.5t-255.5 -170.5t-170.5 -255.5t-63.5 -310.5t63.5 -310.5t170.5 -255.5t255.5 -170.5t310.5 -63.5zM1414 574q30 9 53 -11.5t18 -50.5q-15 -90 -94.5 -165t-186.5 -115
t-212 -40t-212 40t-186.5 115t-94.5 165q-5 30 18 50.5t53 11.5q167 -53 422 -53t422 53zM672 832q-53 0 -90.5 37.5t-37.5 90.5t37.5 90.5t90.5 37.5t90.5 -37.5t37.5 -90.5t-37.5 -90.5t-90.5 -37.5zM1312 832q-53 0 -90.5 37.5t-37.5 90.5t37.5 90.5t90.5 37.5
t90.5 -37.5t37.5 -90.5t-37.5 -90.5t-90.5 -37.5z" />
    <glyph glyph-name="grin-alt" unicode="Grin&#x2d;Alt" horiz-adv-x="1984" 
d="M801 800q-23 -35 -65 -35.5t-66 35.5q-58 88 -62 224q4 136 62 224q23 35 65 35.5t66 -35.5q59 -89 63 -224q-4 -135 -63 -224zM1313 800q-23 -35 -65 -35.5t-66 35.5q-58 88 -62 224q4 136 62 224q23 35 65 35.5t66 -35.5q59 -89 63 -224q-4 -135 -63 -224zM992 1760
q202 0 385.5 -78.5t316.5 -211.5t211.5 -316.5t78.5 -385.5t-78.5 -385.5t-211.5 -316.5t-316.5 -211.5t-385.5 -78.5t-385.5 78.5t-316.5 211.5t-211.5 316.5t-78.5 385.5t78.5 385.5t211.5 316.5t316.5 211.5t385.5 78.5zM992 -32q162 0 310.5 63.5t255.5 170.5
t170.5 255.5t63.5 310.5t-63.5 310.5t-170.5 255.5t-255.5 170.5t-310.5 63.5t-310.5 -63.5t-255.5 -170.5t-170.5 -255.5t-63.5 -310.5t63.5 -310.5t170.5 -255.5t255.5 -170.5t310.5 -63.5zM1414 574q30 9 53 -11.5t18 -50.5q-15 -90 -94.5 -165t-186.5 -115t-212 -40
t-212 39.5t-186.5 114.5t-94.5 166q-5 30 18 50.5t53 11.5q167 -53 422 -53t422 53z" />
    <glyph glyph-name="grin-beam" unicode="Grin&#x2d;Beam" horiz-adv-x="1984" 
d="M992 1760q202 0 385.5 -78.5t316.5 -211.5t211.5 -316.5t78.5 -385.5t-78.5 -385.5t-211.5 -316.5t-316.5 -211.5t-385.5 -78.5t-385.5 78.5t-316.5 211.5t-211.5 316.5t-78.5 385.5t78.5 385.5t211.5 316.5t316.5 211.5t385.5 78.5zM992 -32q162 0 310.5 63.5
t255.5 170.5t170.5 255.5t63.5 310.5t-63.5 310.5t-170.5 255.5t-255.5 170.5t-310.5 63.5t-310.5 -63.5t-255.5 -170.5t-170.5 -255.5t-63.5 -310.5t63.5 -310.5t170.5 -255.5t255.5 -170.5t310.5 -63.5zM1414 574q30 9 53 -11.5t18 -50.5q-15 -90 -94.5 -165t-186.5 -115
t-212 -40t-212 40t-186.5 115t-94.5 165q-5 30 18.5 50.5t52.5 11.5q167 -53 422 -53t422 53zM471 865q-11 3 -17.5 12.5t-5.5 20.5q9 121 79 203.5t145 82.5t145 -82.5t79 -203.5q1 -11 -5.5 -20.5t-17.5 -12.5q-25 -8 -37 15l-38 68q-48 86 -126 86t-126 -86l-38 -68
q-13 -22 -37 -15zM1111 865q-11 3 -17.5 12.5t-5.5 20.5q9 121 79 203.5t145 82.5t145 -82.5t79 -203.5q1 -11 -5.5 -20.5t-17.5 -12.5q-25 -8 -37 15l-38 68q-48 86 -126 86t-126 -86l-38 -68q-13 -22 -37 -15z" />
    <glyph glyph-name="grin-beam-sweat" unicode="Grin&#x2d;Beam&#x2d;Sweat" horiz-adv-x="1984" 
d="M1760 1152q-88 0 -150.5 68.5t-62.5 166.5q0 111 185 389q10 16 28 16t28 -16q185 -278 185 -389q0 -98 -62.5 -166.5t-150.5 -68.5zM992 192q-105 0 -212 40t-186.5 115t-94.5 165q-5 30 18.5 50t52.5 11q164 -52 422 -52t422 52q30 10 53 -10.5t18 -50.5
q-15 -90 -94.5 -165t-186.5 -115t-212 -40zM1513 865q-24 -8 -37 15l-38 68q-48 86 -126 86t-126 -86l-38 -68q-13 -22 -37 -15q-11 3 -17.5 12.5t-5.5 20.5q9 121 79 203.5t145 82.5t145 -82.5t79 -203.5q1 -11 -5.5 -20.5t-17.5 -12.5zM1934 1077q50 -152 50 -309
q0 -202 -78.5 -385.5t-211.5 -316.5t-316.5 -211.5t-385.5 -78.5t-385.5 78.5t-316.5 211.5t-211.5 316.5t-78.5 385.5t78.5 385.5t211.5 316.5t316.5 211.5t385.5 78.5q267 0 501 -137q-55 -108 -69 -183q-200 128 -432 128q-162 0 -310.5 -63.5t-255.5 -170.5
t-170.5 -255.5t-63.5 -310.5t63.5 -310.5t170.5 -255.5t255.5 -170.5t310.5 -63.5t310.5 63.5t255.5 170.5t170.5 255.5t63.5 310.5q0 133 -43 257q46 0 70 5q60 12 115 47zM672 1034q-78 0 -126 -86l-38 -68q-13 -22 -37 -15q-11 3 -17.5 12.5t-5.5 20.5q9 121 79 203.5
t145 82.5t145 -82.5t79 -203.5q1 -11 -5.5 -20.5t-17.5 -12.5q-25 -8 -37 15l-38 68q-48 86 -126 86z" />
    <glyph glyph-name="grin-hearts" unicode="Grin&#x2d;Hearts" horiz-adv-x="1984" 
d="M1414 574q30 9 53 -11.5t18 -50.5q-15 -90 -94.5 -165t-186.5 -115t-212 -40t-212 39.5t-186.5 114.5t-94.5 166q-5 30 18.5 50.5t52.5 11.5q167 -53 422 -53t422 53zM803 769l-281 73q-62 16 -90.5 71.5t-5.5 116.5q20 53 72 77.5t107 10.5l29 -7l8 28q15 55 63 88
t103 24q64 -10 98 -63.5t17 -114.5l-78 -280q-4 -14 -16.5 -21t-25.5 -3zM1558 1030q23 -61 -5.5 -116.5t-90.5 -71.5l-281 -73q-13 -4 -25.5 3t-16.5 21l-78 280q-17 61 17 114.5t98 63.5q55 9 103 -24t63 -88l8 -28l29 7q55 14 107 -11t72 -77zM992 1760
q202 0 385.5 -78.5t316.5 -211.5t211.5 -316.5t78.5 -385.5t-78.5 -385.5t-211.5 -316.5t-316.5 -211.5t-385.5 -78.5t-385.5 78.5t-316.5 211.5t-211.5 316.5t-78.5 385.5t78.5 385.5t211.5 316.5t316.5 211.5t385.5 78.5zM992 -32q162 0 310.5 63.5t255.5 170.5
t170.5 255.5t63.5 310.5t-63.5 310.5t-170.5 255.5t-255.5 170.5t-310.5 63.5t-310.5 -63.5t-255.5 -170.5t-170.5 -255.5t-63.5 -310.5t63.5 -310.5t170.5 -255.5t255.5 -170.5t310.5 -63.5z" />
    <glyph glyph-name="grin-squint" unicode="Grin&#x2d;Squint" horiz-adv-x="1984" 
d="M992 1760q202 0 385.5 -78.5t316.5 -211.5t211.5 -316.5t78.5 -385.5t-78.5 -385.5t-211.5 -316.5t-316.5 -211.5t-385.5 -78.5t-385.5 78.5t-316.5 211.5t-211.5 316.5t-78.5 385.5t78.5 385.5t211.5 316.5t316.5 211.5t385.5 78.5zM992 -32q162 0 310.5 63.5
t255.5 170.5t170.5 255.5t63.5 310.5t-63.5 310.5t-170.5 255.5t-255.5 170.5t-310.5 63.5t-310.5 -63.5t-255.5 -170.5t-170.5 -255.5t-63.5 -310.5t63.5 -310.5t170.5 -255.5t255.5 -170.5t310.5 -63.5zM1414 574q30 9 53 -11.5t18 -50.5q-15 -90 -94.5 -165t-186.5 -115
t-212 -40t-212 40t-186.5 115t-94.5 165q-5 30 18 50.5t53 11.5q167 -53 422 -53t422 53zM476 737q-26 32 -1 62l135 161l-135 161q-25 30 1 62q27 30 61 10l320 -192q23 -15 23 -41t-23 -41l-320 -192q-17 -9 -33.5 -6t-27.5 16zM1447 727l-320 192q-23 15 -23 41t23 41
l320 192q15 9 32.5 6t28.5 -16q26 -32 1 -62l-135 -161l135 -161q25 -30 -1 -62q-11 -13 -27.5 -16t-33.5 6z" />
    <glyph glyph-name="grin-squint-tears" unicode="Grin&#x2d;Squint&#x2d;Tears" 
d="M468 256q19 3 32.5 -11t11.5 -33q-48 -330 -122 -404q-66 -66 -160 -65t-162 69q-67 67 -68 161t65 160q75 75 403 123zM304 422q-116 -24 -190 -48q-78 181 -82 377.5t70.5 385t219.5 333.5q143 143 325 216.5t377 73.5q239 0 453 -110q-28 -87 -48 -193
q-188 111 -405 111q-161 0 -307 -60.5t-259 -173.5q-121 -121 -180.5 -278t-52 -321t78.5 -313zM1713 1173q119 23 194 48q96 -186 108.5 -394t-62 -408t-227.5 -353q-143 -143 -325 -216.5t-377 -73.5q-203 0 -394 82q23 65 48 189q164 -79 346 -79q161 0 307 60.5
t259 173.5q129 129 188.5 298.5t42 345t-107.5 327.5zM1580 1280q-19 -3 -32.5 10.5t-11.5 33.5q48 330 122 404q66 66 160 65t162 -69q67 -67 68 -161t-65 -160q-75 -75 -403 -123zM832 847q18 -18 12 -46l-90 -362q-10 -36 -47 -36h-3q-17 2 -30 14t-14 29l-20 210
l-209 19q-17 1 -29 14t-14 30q-1 18 9 31.5t27 18.5l362 91q27 6 46 -13zM990 948q-25 -8 -45 12t-13 46l90 362q4 17 19 26.5t32 9.5q17 -2 30 -14t14 -29l19 -209l209 -20q17 -2 30 -14.5t14 -29.5q1 -18 -9 -31.5t-28 -18.5zM1198 594q187 187 262 335q15 28 45.5 30
t47.5 -23q54 -82 50.5 -186t-51 -209.5t-121.5 -179.5t-179.5 -121.5t-210 -51.5t-185.5 50q-25 18 -23 49t30 45q151 78 335 262z" />
    <glyph glyph-name="grin-stars" unicode="Grin&#x2d;Stars" horiz-adv-x="1984" 
d="M992 1760q202 0 385.5 -78.5t316.5 -211.5t211.5 -316.5t78.5 -385.5t-78.5 -385.5t-211.5 -316.5t-316.5 -211.5t-385.5 -78.5t-385.5 78.5t-316.5 211.5t-211.5 316.5t-78.5 385.5t78.5 385.5t211.5 316.5t316.5 211.5t385.5 78.5zM992 -32q162 0 310.5 63.5
t255.5 170.5t170.5 255.5t63.5 310.5t-63.5 310.5t-170.5 255.5t-255.5 170.5t-310.5 63.5t-310.5 -63.5t-255.5 -170.5t-170.5 -255.5t-63.5 -310.5t63.5 -310.5t170.5 -255.5t255.5 -170.5t310.5 -63.5zM1414 574q30 9 53 -11.5t18 -50.5q-15 -90 -94.5 -165t-186.5 -115
t-212 -40t-212 39.5t-186.5 114.5t-94.5 166q-5 30 18.5 50.5t52.5 11.5q167 -53 422 -53t422 53zM503 804l24 139l-101 99q-13 14 -7.5 31.5t24.5 20.5l139 20l62 127q9 17 28 17t28 -17l62 -127l140 -20q19 -3 24.5 -20.5t-7.5 -31.5l-102 -99l24 -139q3 -19 -12.5 -30
t-31.5 -2l-125 65l-125 -65q-16 -9 -31.5 2t-12.5 30zM1542 1094q19 -3 24.5 -20.5t-7.5 -31.5l-101 -99l24 -139q3 -19 -12.5 -30t-31.5 -2l-126 65l-125 -65q-16 -9 -31.5 2t-12.5 30l24 139l-101 99q-13 14 -7.5 31.5t24.5 20.5l139 20l62 127q9 17 28 17t28 -17l62 -127
z" />
    <glyph glyph-name="grin-tears" unicode="Grin&#x2d;Tears" horiz-adv-x="2560" 
d="M468 768q19 3 32.5 -10.5t11.5 -33.5q-48 -330 -122 -404q-66 -66 -160 -65t-162 69q-67 67 -68 161t65 160q75 75 403 123zM2495 645q66 -66 65 -160t-68 -161t-161 -68t-160 65q-75 75 -123 403q-3 19 11 33t33 11q328 -48 403 -123zM1989 398q10 -31 21 -56.5
t21.5 -44t19 -31.5t17.5 -23t14 -15t12 -10l8 -6q-136 -201 -353 -318.5t-469 -117.5t-469 117.5t-353 318.5l7 6q7 5 12 9.5t14.5 14.5t18 23.5t19 31.5t21.5 44t21 57q102 -195 292 -312.5t417 -117.5t417 117.5t292 312.5zM491 894q-46 5 -198 -28q18 186 103 351
t215.5 284.5t304.5 189t364 69.5t364 -69.5t304.5 -189t215.5 -284.5t103 -351q-155 33 -198 28q-23 141 -93.5 265.5t-174 214.5t-239 142t-282.5 52t-282.5 -52t-239 -142t-174 -214.5t-93.5 -265.5zM1280 192q-105 0 -212 40t-186.5 115t-94.5 165q-5 30 18.5 50t52.5 11
q164 -52 422 -52t422 52q30 10 53 -10.5t18 -50.5q-15 -90 -94.5 -165t-186.5 -115t-212 -40zM1801 865q-24 -8 -37 15l-38 68q-48 86 -126 86t-126 -86l-38 -68q-13 -22 -37 -15q-11 3 -17.5 12.5t-5.5 20.5q9 121 79 203.5t145 82.5t145 -82.5t79 -203.5q1 -11 -5.5 -20.5
t-17.5 -12.5zM960 1034q-78 0 -126 -86l-38 -68q-13 -22 -37 -15q-11 3 -17.5 12.5t-5.5 20.5q9 121 79 203.5t145 82.5t145 -82.5t79 -203.5q1 -11 -5.5 -20.5t-17.5 -12.5q-25 -8 -37 15l-38 68q-48 86 -126 86z" />
    <glyph glyph-name="grin-tongue" unicode="Grin&#x2d;Tongue" horiz-adv-x="1984" 
d="M992 1760q202 0 385.5 -78.5t316.5 -211.5t211.5 -316.5t78.5 -385.5t-78.5 -385.5t-211.5 -316.5t-316.5 -211.5t-385.5 -78.5t-385.5 78.5t-316.5 211.5t-211.5 316.5t-78.5 385.5t78.5 385.5t211.5 316.5t316.5 211.5t385.5 78.5zM1248 160v175l-70 35q-45 21 -87 0
t-53 -66l-11 -48q-6 -28 -34.5 -28t-34.5 28l-12 48q-11 45 -52.5 66t-86.5 0l-71 -35v-171q0 -106 73.5 -182.5t178.5 -77.5q107 -1 183.5 74t76.5 182zM1361 59q195 102 313 292t118 417q0 162 -63.5 310.5t-170.5 255.5t-255.5 170.5t-310.5 63.5t-310.5 -63.5
t-255.5 -170.5t-170.5 -255.5t-63.5 -310.5q0 -227 118 -417t313 -292q-15 53 -15 101v174q-92 81 -109 178q-5 30 18 50t53 11q164 -52 422 -52t422 52q30 10 53 -10.5t18 -50.5q-17 -97 -109 -178v-174q0 -48 -15 -101zM672 1088q53 0 90.5 -37.5t37.5 -90.5t-37.5 -90.5
t-90.5 -37.5t-90.5 37.5t-37.5 90.5t37.5 90.5t90.5 37.5zM1312 1088q53 0 90.5 -37.5t37.5 -90.5t-37.5 -90.5t-90.5 -37.5t-90.5 37.5t-37.5 90.5t37.5 90.5t90.5 37.5z" />
    <glyph glyph-name="grin-tongue-squint" unicode="Grin&#x2d;Tongue&#x2d;Squint" horiz-adv-x="1984" 
d="M992 1760q202 0 385.5 -78.5t316.5 -211.5t211.5 -316.5t78.5 -385.5t-78.5 -385.5t-211.5 -316.5t-316.5 -211.5t-385.5 -78.5t-385.5 78.5t-316.5 211.5t-211.5 316.5t-78.5 385.5t78.5 385.5t211.5 316.5t316.5 211.5t385.5 78.5zM1248 160v175l-70 35q-45 21 -87 0
t-53 -66l-11 -48q-6 -28 -34.5 -28t-34.5 28l-12 48q-11 45 -52.5 66t-86.5 0l-71 -35v-171q0 -106 73.5 -182.5t178.5 -77.5q107 -1 183.5 74t76.5 182zM1361 59q195 102 313 292t118 417q0 162 -63.5 310.5t-170.5 255.5t-255.5 170.5t-310.5 63.5t-310.5 -63.5
t-255.5 -170.5t-170.5 -255.5t-63.5 -310.5q0 -227 118 -417t313 -292q-15 53 -15 101v174q-92 81 -109 178q-5 30 18 50t53 11q164 -52 422 -52t422 52q30 10 53 -10.5t18 -50.5q-17 -97 -109 -178v-174q0 -48 -15 -101zM1508 1183q26 -32 1 -62l-135 -161l135 -161
q25 -30 -1 -62q-11 -13 -27.5 -16t-33.5 6l-320 192q-23 15 -23 41t23 41l320 192q15 9 32.5 6t28.5 -16zM857 1001q23 -15 23 -41t-23 -41l-320 -192q-17 -9 -33.5 -6t-27.5 16q-26 32 -1 62l135 161l-135 161q-25 30 1 62q27 30 61 10z" />
    <glyph glyph-name="grin-tongue-wink" unicode="Grin&#x2d;Tongue&#x2d;Wink" horiz-adv-x="1984" 
d="M608 1072q52 0 103.5 -20.5t89.5 -60t46 -87.5q5 -34 -24 -50q-31 -16 -55 6l-38 34q-44 40 -122 40t-122 -40l-38 -34q-25 -23 -55 -6q-29 16 -24 50q8 48 46 87.5t89.5 60t103.5 20.5zM1312 1280q133 0 226.5 -93.5t93.5 -226.5t-93.5 -226.5t-226.5 -93.5t-226.5 93.5
t-93.5 226.5t93.5 226.5t226.5 93.5zM1312 768q80 0 136 56t56 136t-56 136t-136 56t-136 -56t-56 -136t56 -136t136 -56zM1312 1056q40 0 68 -28t28 -68t-28 -68t-68 -28t-68 28t-28 68t28 68t68 28zM992 1760q202 0 385.5 -78.5t316.5 -211.5t211.5 -316.5t78.5 -385.5
t-78.5 -385.5t-211.5 -316.5t-316.5 -211.5t-385.5 -78.5t-385.5 78.5t-316.5 211.5t-211.5 316.5t-78.5 385.5t78.5 385.5t211.5 316.5t316.5 211.5t385.5 78.5zM1248 160v175l-70 35q-45 21 -87 0t-53 -66l-11 -48q-6 -28 -34.5 -28t-34.5 28l-12 48q-11 45 -52.5 66
t-86.5 0l-71 -35v-171q0 -106 73.5 -182.5t178.5 -77.5q107 -1 183.5 74t76.5 182zM1361 59q195 102 313 292t118 417q0 162 -63.5 310.5t-170.5 255.5t-255.5 170.5t-310.5 63.5t-310.5 -63.5t-255.5 -170.5t-170.5 -255.5t-63.5 -310.5q0 -227 118 -417t313 -292
q-15 53 -15 101v174q-92 81 -109 178q-5 30 18 50t53 11q164 -52 422 -52t422 52q30 10 53 -10.5t18 -50.5q-17 -97 -109 -178v-174q0 -48 -15 -101z" />
    <glyph glyph-name="grin-wink" unicode="Grin&#x2d;Wink" horiz-adv-x="1984" 
d="M1312 1072q52 0 103.5 -20.5t89.5 -60t46 -87.5q5 -33 -24.5 -49.5t-54.5 5.5l-38 34q-44 40 -122 40t-122 -40l-38 -34q-25 -23 -54.5 -6.5t-24.5 50.5q8 48 46 87.5t89.5 60t103.5 20.5zM672 832q-53 0 -90.5 37.5t-37.5 90.5t37.5 90.5t90.5 37.5t90.5 -37.5
t37.5 -90.5t-37.5 -90.5t-90.5 -37.5zM1414 573q30 10 53 -10.5t18 -50.5q-15 -91 -94.5 -166t-186.5 -114.5t-212 -39.5t-212 39.5t-186.5 114.5t-94.5 166q-5 30 18 50.5t53 10.5q164 -52 422 -52t422 52zM992 1760q202 0 385.5 -78.5t316.5 -211.5t211.5 -316.5
t78.5 -385.5t-78.5 -385.5t-211.5 -316.5t-316.5 -211.5t-385.5 -78.5t-385.5 78.5t-316.5 211.5t-211.5 316.5t-78.5 385.5t78.5 385.5t211.5 316.5t316.5 211.5t385.5 78.5zM992 -32q162 0 310.5 63.5t255.5 170.5t170.5 255.5t63.5 310.5t-63.5 310.5t-170.5 255.5
t-255.5 170.5t-310.5 63.5t-310.5 -63.5t-255.5 -170.5t-170.5 -255.5t-63.5 -310.5t63.5 -310.5t170.5 -255.5t255.5 -170.5t310.5 -63.5z" />
    <glyph glyph-name="kiss" unicode="Kiss" horiz-adv-x="1984" 
d="M672 1088q53 0 90.5 -37.5t37.5 -90.5t-37.5 -90.5t-90.5 -37.5t-90.5 37.5t-37.5 90.5t37.5 90.5t90.5 37.5zM1216 560q0 -39 -38 -79t-102 -67q65 -26 102.5 -65.5t37.5 -78.5q0 -61 -81.5 -115t-204.5 -61h-2q-11 0 -20 7t-11 18q-3 11 2.5 21.5t16.5 15.5l68 29
q83 35 83 86t-83 86l-68 29q-18 8 -17.5 29.5t17.5 29.5l68 29q83 35 83 86t-83 86l-68 28q-11 5 -16.5 15.5t-2.5 21.5q2 11 12 18.5t21 6.5q123 -7 204.5 -61t81.5 -115zM992 1760q202 0 385.5 -78.5t316.5 -211.5t211.5 -316.5t78.5 -385.5t-78.5 -385.5t-211.5 -316.5
t-316.5 -211.5t-385.5 -78.5t-385.5 78.5t-316.5 211.5t-211.5 316.5t-78.5 385.5t78.5 385.5t211.5 316.5t316.5 211.5t385.5 78.5zM992 -32q162 0 310.5 63.5t255.5 170.5t170.5 255.5t63.5 310.5t-63.5 310.5t-170.5 255.5t-255.5 170.5t-310.5 63.5t-310.5 -63.5
t-255.5 -170.5t-170.5 -255.5t-63.5 -310.5t63.5 -310.5t170.5 -255.5t255.5 -170.5t310.5 -63.5zM1312 1088q53 0 90.5 -37.5t37.5 -90.5t-37.5 -90.5t-90.5 -37.5t-90.5 37.5t-37.5 90.5t37.5 90.5t90.5 37.5z" />
    <glyph glyph-name="kiss-beam" unicode="Kiss&#x2d;Beam" horiz-adv-x="1984" 
d="M672 1184q75 0 144.5 -83t78.5 -203q2 -26 -22 -33q-25 -8 -37 15l-38 68q-48 86 -126 86t-126 -86l-38 -68q-12 -22 -38 -15q-24 7 -22 33q9 121 79 203.5t145 82.5zM992 1760q202 0 385.5 -78.5t316.5 -211.5t211.5 -316.5t78.5 -385.5t-78.5 -385.5t-211.5 -316.5
t-316.5 -211.5t-385.5 -78.5t-385.5 78.5t-316.5 211.5t-211.5 316.5t-78.5 385.5t78.5 385.5t211.5 316.5t316.5 211.5t385.5 78.5zM992 -32q162 0 310.5 63.5t255.5 170.5t170.5 255.5t63.5 310.5t-63.5 310.5t-170.5 255.5t-255.5 170.5t-310.5 63.5t-310.5 -63.5
t-255.5 -170.5t-170.5 -255.5t-63.5 -310.5t63.5 -310.5t170.5 -255.5t255.5 -170.5t310.5 -63.5zM1216 560q0 -39 -38 -79t-102 -67q65 -26 102.5 -65.5t37.5 -78.5q0 -61 -81.5 -115t-204.5 -61h-2q-11 0 -20 7t-11 18q-3 11 2.5 21.5t16.5 15.5l68 29q83 35 83 86t-83 86
l-68 29q-18 8 -17.5 29.5t17.5 29.5l68 29q83 35 83 86t-83 86l-68 28q-11 5 -16.5 15.5t-2.5 21.5q2 11 12 18.5t21 6.5q123 -7 204.5 -61t81.5 -115zM1312 1184q75 0 144.5 -83t78.5 -203q2 -26 -22 -33q-25 -8 -37 15l-38 68q-48 86 -126 86t-126 -86l-38 -68
q-12 -22 -38 -15q-24 7 -22 33q9 121 79 203.5t145 82.5z" />
    <glyph glyph-name="kiss-wink-heart" unicode="Kiss&#x2d;Wink&#x2d;Heart" horiz-adv-x="2016" 
d="M1216 558q0 -39 -38 -79t-102 -67q65 -26 102.5 -65.5t37.5 -78.5q0 -61 -81.5 -115t-204.5 -61h-2q-11 0 -20 7t-11 18q-3 11 2.5 21.5t16.5 15.5l68 29q83 35 83 86t-83 86l-68 29q-18 8 -17.5 29.5t17.5 29.5l68 29q83 35 83 86t-83 86l-68 28q-11 5 -16.5 15.5
t-2.5 21.5q2 11 12 18.5t21 6.5q123 -7 204.5 -61t81.5 -115zM1498 892q-44 40 -122 40t-122 -40l-38 -34q-24 -22 -55 -6q-29 16 -24 49q11 72 84.5 120.5t154.5 48.5t154.5 -48.5t84.5 -120.5q5 -33 -24 -49t-55 6zM544 958q0 53 37.5 90.5t90.5 37.5t90.5 -37.5
t37.5 -90.5t-37.5 -90.5t-90.5 -37.5t-90.5 37.5t-37.5 90.5zM2004 182q28 -71 -6.5 -137.5t-107.5 -85.5l-332 -86q-16 -4 -30 4.5t-19 24.5l-92 330q-20 72 20.5 135t115.5 75q65 10 121.5 -28.5t74.5 -103.5l9 -33l34 9q65 17 126.5 -12.5t85.5 -91.5zM1336 47
q43 -155 54 -187q-190 -84 -398 -84q-202 0 -385.5 78.5t-316.5 211.5t-211.5 316.5t-78.5 385.5t78.5 385.5t211.5 316.5t316.5 211.5t385.5 78.5t385.5 -78.5t316.5 -211.5t211.5 -316.5t78.5 -385.5q0 -184 -69 -360q-48 12 -74 12q-28 49 -91 95q42 124 42 253
q0 162 -63.5 310.5t-170.5 255.5t-255.5 170.5t-310.5 63.5t-310.5 -63.5t-255.5 -170.5t-170.5 -255.5t-63.5 -310.5t63.5 -310.5t170.5 -255.5t255.5 -170.5t310.5 -63.5q180 0 344 79z" />
    <glyph glyph-name="laugh" unicode="Laugh" horiz-adv-x="1984" 
d="M992 1760q202 0 385.5 -78.5t316.5 -211.5t211.5 -316.5t78.5 -385.5t-78.5 -385.5t-211.5 -316.5t-316.5 -211.5t-385.5 -78.5t-385.5 78.5t-316.5 211.5t-211.5 316.5t-78.5 385.5t78.5 385.5t211.5 316.5t316.5 211.5t385.5 78.5zM1558 202q113 113 173.5 259
t60.5 307t-60.5 307t-173.5 259t-259 173.5t-307 60.5t-307 -60.5t-259 -173.5t-173.5 -259t-60.5 -307t60.5 -307t173.5 -259t259 -173.5t307 -60.5t307 60.5t259 173.5zM1312 896q-53 0 -90.5 37.5t-37.5 90.5t37.5 90.5t90.5 37.5t90.5 -37.5t37.5 -90.5t-37.5 -90.5
t-90.5 -37.5zM672 896q-53 0 -90.5 37.5t-37.5 90.5t37.5 90.5t90.5 37.5t90.5 -37.5t37.5 -90.5t-37.5 -90.5t-90.5 -37.5zM1450 640q25 0 41 -18t13 -42q-23 -179 -161 -299.5t-324 -120.5h-54q-186 0 -324 120.5t-161 299.5q-3 24 13 42t41 18h916z" />
    <glyph glyph-name="laugh-beam" unicode="Laugh&#x2d;Beam" horiz-adv-x="1984" 
d="M992 1760q202 0 385.5 -78.5t316.5 -211.5t211.5 -316.5t78.5 -385.5t-78.5 -385.5t-211.5 -316.5t-316.5 -211.5t-385.5 -78.5t-385.5 78.5t-316.5 211.5t-211.5 316.5t-78.5 385.5t78.5 385.5t211.5 316.5t316.5 211.5t385.5 78.5zM1558 202q113 113 173.5 259
t60.5 307t-60.5 307t-173.5 259t-259 173.5t-307 60.5t-307 -60.5t-259 -173.5t-173.5 -259t-60.5 -307t60.5 -307t173.5 -259t259 -173.5t307 -60.5t307 60.5t259 173.5zM1312 1184q75 0 144.5 -83t78.5 -203q2 -25 -22.5 -33t-36.5 15l-38 68q-49 87 -126 87t-126 -87
l-38 -68q-12 -23 -37 -15t-23 33q9 121 79 203.5t145 82.5zM508 880q-8 -14 -23 -16t-26.5 8t-10.5 26q9 121 79 203.5t145 82.5t145 -82.5t79 -203.5q2 -25 -23 -33t-37 15l-38 68q-49 87 -126 87t-126 -87zM1450 640q25 0 41 -18t13 -42q-23 -179 -161 -299.5t-324 -120.5
h-54q-186 0 -324 120.5t-161 299.5q-3 24 13 42t41 18h916z" />
    <glyph glyph-name="laugh-squint" unicode="Laugh&#x2d;Squint" horiz-adv-x="1984" 
d="M992 1760q202 0 385.5 -78.5t316.5 -211.5t211.5 -316.5t78.5 -385.5t-78.5 -385.5t-211.5 -316.5t-316.5 -211.5t-385.5 -78.5t-385.5 78.5t-316.5 211.5t-211.5 316.5t-78.5 385.5t78.5 385.5t211.5 316.5t316.5 211.5t385.5 78.5zM1558 202q113 113 173.5 259
t60.5 307t-60.5 307t-173.5 259t-259 173.5t-307 60.5t-307 -60.5t-259 -173.5t-173.5 -259t-60.5 -307t60.5 -307t173.5 -259t259 -173.5t307 -60.5t307 60.5t259 173.5zM1374 1008l135 -161q25 -31 -1 -61.5t-61 -10.5l-320 192q-23 14 -23 41t23 41l320 192
q35 20 61 -10.5t1 -61.5zM537 775q-35 -20 -61.5 10.5t-0.5 61.5l135 161l-135 161q-16 20 -9 43.5t27 31.5t44 -3l320 -192q23 -14 23 -41t-23 -41zM1450 640q25 0 41 -18t13 -42q-23 -179 -161 -299.5t-324 -120.5h-54q-186 0 -324 120.5t-161 299.5q-3 24 13 42t41 18
h916z" />
    <glyph glyph-name="laugh-wink" unicode="Laugh&#x2d;Wink" horiz-adv-x="1984" 
d="M992 1760q202 0 385.5 -78.5t316.5 -211.5t211.5 -316.5t78.5 -385.5t-78.5 -385.5t-211.5 -316.5t-316.5 -211.5t-385.5 -78.5t-385.5 78.5t-316.5 211.5t-211.5 316.5t-78.5 385.5t78.5 385.5t211.5 316.5t316.5 211.5t385.5 78.5zM1558 202q113 113 173.5 259
t60.5 307t-60.5 307t-173.5 259t-259 173.5t-307 60.5t-307 -60.5t-259 -173.5t-173.5 -259t-60.5 -307t60.5 -307t173.5 -259t259 -173.5t307 -60.5t307 60.5t259 173.5zM1312 1136q82 0 155 -48t84 -120q5 -33 -24.5 -49.5t-54.5 5.5l-38 34q-44 40 -122 40t-122 -40
l-38 -34q-25 -23 -55 -6.5t-25 50.5q11 72 84.5 120t155.5 48zM672 896q-53 0 -90.5 37.5t-37.5 90.5t37.5 90.5t90.5 37.5t90.5 -37.5t37.5 -90.5t-37.5 -90.5t-90.5 -37.5zM1450 640q25 0 41 -18t13 -42q-23 -179 -161 -299.5t-324 -120.5h-54q-186 0 -324 120.5
t-161 299.5q-3 24 13 42t41 18h916z" />
    <glyph glyph-name="meh-blank" unicode="Meh&#x2d;Blank" horiz-adv-x="1984" 
d="M992 1760q202 0 385.5 -78.5t316.5 -211.5t211.5 -316.5t78.5 -385.5t-78.5 -385.5t-211.5 -316.5t-316.5 -211.5t-385.5 -78.5t-385.5 78.5t-316.5 211.5t-211.5 316.5t-78.5 385.5t78.5 385.5t211.5 316.5t316.5 211.5t385.5 78.5zM992 -32q162 0 310.5 63.5
t255.5 170.5t170.5 255.5t63.5 310.5t-63.5 310.5t-170.5 255.5t-255.5 170.5t-310.5 63.5t-310.5 -63.5t-255.5 -170.5t-170.5 -255.5t-63.5 -310.5t63.5 -310.5t170.5 -255.5t255.5 -170.5t310.5 -63.5zM672 1088q53 0 90.5 -37.5t37.5 -90.5t-37.5 -90.5t-90.5 -37.5
t-90.5 37.5t-37.5 90.5t37.5 90.5t90.5 37.5zM1312 1088q53 0 90.5 -37.5t37.5 -90.5t-37.5 -90.5t-90.5 -37.5t-90.5 37.5t-37.5 90.5t37.5 90.5t90.5 37.5z" />
    <glyph glyph-name="meh-rolling-eyes" unicode="Meh&#x2d;Rolling&#x2d;Eyes" horiz-adv-x="1984" 
d="M992 1760q202 0 385.5 -78.5t316.5 -211.5t211.5 -316.5t78.5 -385.5t-78.5 -385.5t-211.5 -316.5t-316.5 -211.5t-385.5 -78.5t-385.5 78.5t-316.5 211.5t-211.5 316.5t-78.5 385.5t78.5 385.5t211.5 316.5t316.5 211.5t385.5 78.5zM992 -32q162 0 310.5 63.5
t255.5 170.5t170.5 255.5t63.5 310.5t-63.5 310.5t-170.5 255.5t-255.5 170.5t-310.5 63.5t-310.5 -63.5t-255.5 -170.5t-170.5 -255.5t-63.5 -310.5t63.5 -310.5t170.5 -255.5t255.5 -170.5t310.5 -63.5zM1344 1184q119 0 203.5 -84.5t84.5 -203.5t-84.5 -203.5
t-203.5 -84.5t-203.5 84.5t-84.5 203.5t84.5 203.5t203.5 84.5zM1344 736q66 0 113 47t47 113q0 80 -71 129q7 -17 7 -33q0 -40 -28 -68t-68 -28t-68 28t-28 68q0 16 7 33q-71 -49 -71 -129q0 -66 47 -113t113 -47zM928 896q0 -119 -84.5 -203.5t-203.5 -84.5t-203.5 84.5
t-84.5 203.5t84.5 203.5t203.5 84.5t203.5 -84.5t84.5 -203.5zM480 896q0 -66 47 -113t113 -47t113 47t47 113q0 80 -71 129q7 -17 7 -33q0 -40 -28 -68t-68 -28t-68 28t-28 68q0 16 7 33q-71 -49 -71 -129zM1248 384q40 0 68 -28t28 -68t-28 -68t-68 -28h-512q-40 0 -68 28
t-28 68t28 68t68 28h512z" />
    <glyph glyph-name="sad-cry" unicode="Sad&#x2d;Cry" horiz-adv-x="1984" 
d="M992 1760q202 0 385.5 -78.5t316.5 -211.5t211.5 -316.5t78.5 -385.5t-78.5 -385.5t-211.5 -316.5t-316.5 -211.5t-385.5 -78.5t-385.5 78.5t-316.5 211.5t-211.5 316.5t-78.5 385.5t78.5 385.5t211.5 316.5t316.5 211.5t385.5 78.5zM1568 214q106 110 165 253t59 301
q0 162 -63.5 310.5t-170.5 255.5t-255.5 170.5t-310.5 63.5t-310.5 -63.5t-255.5 -170.5t-170.5 -255.5t-63.5 -310.5q0 -158 59 -301t165 -253v458q0 40 28 68t68 28t68 -28t28 -68v-606q180 -98 384 -98t384 98v606q0 40 28 68t68 28t68 -28t28 -68v-458zM823 854
q-30 -17 -55 6l-38 34q-44 40 -122 40t-122 -40l-38 -34q-24 -23 -54 -6t-25 50q11 72 84.5 120t154.5 48t155 -48t85 -120q5 -33 -25 -50zM1376 1072q52 0 103.5 -20.5t89.5 -60t46 -87.5q5 -34 -24 -50q-31 -16 -55 6l-38 34q-44 40 -122 40t-122 -40l-38 -34
q-25 -23 -55 -6q-29 16 -24 50q8 48 46 87.5t89.5 60t103.5 20.5zM992 704q93 0 158.5 -75t65.5 -181t-65.5 -181t-158.5 -75t-158.5 75t-65.5 181t65.5 181t158.5 75z" />
    <glyph glyph-name="sad-tear" unicode="Sad&#x2d;Tear" horiz-adv-x="1984" 
d="M992 1760q202 0 385.5 -78.5t316.5 -211.5t211.5 -316.5t78.5 -385.5t-78.5 -385.5t-211.5 -316.5t-316.5 -211.5t-385.5 -78.5t-385.5 78.5t-316.5 211.5t-211.5 316.5t-78.5 385.5t78.5 385.5t211.5 316.5t316.5 211.5t385.5 78.5zM992 -32q162 0 310.5 63.5
t255.5 170.5t170.5 255.5t63.5 310.5t-63.5 310.5t-170.5 255.5t-255.5 170.5t-310.5 63.5t-310.5 -63.5t-255.5 -170.5t-170.5 -255.5t-63.5 -310.5t63.5 -310.5t170.5 -255.5t255.5 -170.5t310.5 -63.5zM1024 576q114 0 217.5 -48t176.5 -136q26 -31 22.5 -71t-34.5 -65
q-32 -26 -72 -21.5t-64 34.5q-46 55 -110.5 85t-135.5 30q-40 0 -68 28t-28 68t28 68t68 28zM672 832q-53 0 -90.5 37.5t-37.5 90.5t37.5 90.5t90.5 37.5t90.5 -37.5t37.5 -90.5t-37.5 -90.5t-90.5 -37.5zM1312 1088q53 0 90.5 -37.5t37.5 -90.5t-37.5 -90.5t-90.5 -37.5
t-90.5 37.5t-37.5 90.5t37.5 90.5t90.5 37.5zM650 693q8 11 22 11t22 -11q146 -194 146 -273q0 -68 -49 -116t-119 -48t-119 48t-49 116q0 79 146 273z" />
    <glyph glyph-name="smile-beam" unicode="Smile&#x2d;Beam" horiz-adv-x="1984" 
d="M992 1760q202 0 385.5 -78.5t316.5 -211.5t211.5 -316.5t78.5 -385.5t-78.5 -385.5t-211.5 -316.5t-316.5 -211.5t-385.5 -78.5t-385.5 78.5t-316.5 211.5t-211.5 316.5t-78.5 385.5t78.5 385.5t211.5 316.5t316.5 211.5t385.5 78.5zM992 -32q162 0 310.5 63.5
t255.5 170.5t170.5 255.5t63.5 310.5t-63.5 310.5t-170.5 255.5t-255.5 170.5t-310.5 63.5t-310.5 -63.5t-255.5 -170.5t-170.5 -255.5t-63.5 -310.5t63.5 -310.5t170.5 -255.5t255.5 -170.5t310.5 -63.5zM1328 542q25 31 64.5 34.5t70.5 -22.5t34.5 -65t-21.5 -70
q-90 -108 -217 -167.5t-267 -59.5t-267 59.5t-217 167.5q-25 31 -21.5 70t34.5 65t70.5 22.5t64.5 -34.5q62 -75 150.5 -116.5t185.5 -41.5t185.5 41.5t150.5 116.5zM546 948l-38 -68q-13 -22 -37 -15q-11 3 -17.5 12.5t-5.5 20.5q9 121 79 203.5t145 82.5t145 -82.5
t79 -203.5q1 -11 -5.5 -20.5t-17.5 -12.5q-25 -8 -37 15l-38 68q-48 86 -126 86t-126 -86zM1312 1184q75 0 145 -82.5t79 -203.5q1 -11 -5.5 -20.5t-17.5 -12.5q-25 -8 -37 15l-38 68q-48 86 -126 86t-126 -86l-38 -68q-13 -22 -37 -15q-11 3 -17.5 12.5t-5.5 20.5
q9 121 79 203.5t145 82.5z" />
    <glyph glyph-name="surprise" unicode="Surprise" horiz-adv-x="1984" 
d="M992 1760q202 0 385.5 -78.5t316.5 -211.5t211.5 -316.5t78.5 -385.5t-78.5 -385.5t-211.5 -316.5t-316.5 -211.5t-385.5 -78.5t-385.5 78.5t-316.5 211.5t-211.5 316.5t-78.5 385.5t78.5 385.5t211.5 316.5t316.5 211.5t385.5 78.5zM992 -32q162 0 310.5 63.5
t255.5 170.5t170.5 255.5t63.5 310.5t-63.5 310.5t-170.5 255.5t-255.5 170.5t-310.5 63.5t-310.5 -63.5t-255.5 -170.5t-170.5 -255.5t-63.5 -310.5t63.5 -310.5t170.5 -255.5t255.5 -170.5t310.5 -63.5zM992 672q106 0 181 -75t75 -181t-75 -181t-181 -75t-181 75t-75 181
t75 181t181 75zM800 960q0 -53 -37.5 -90.5t-90.5 -37.5t-90.5 37.5t-37.5 90.5t37.5 90.5t90.5 37.5t90.5 -37.5t37.5 -90.5zM1312 1088q53 0 90.5 -37.5t37.5 -90.5t-37.5 -90.5t-90.5 -37.5t-90.5 37.5t-37.5 90.5t37.5 90.5t90.5 37.5z" />
    <glyph glyph-name="tired" unicode="Tired" horiz-adv-x="1984" 
d="M992 1760q202 0 385.5 -78.5t316.5 -211.5t211.5 -316.5t78.5 -385.5t-78.5 -385.5t-211.5 -316.5t-316.5 -211.5t-385.5 -78.5t-385.5 78.5t-316.5 211.5t-211.5 316.5t-78.5 385.5t78.5 385.5t211.5 316.5t316.5 211.5t385.5 78.5zM992 -32q162 0 310.5 63.5
t255.5 170.5t170.5 255.5t63.5 310.5t-63.5 310.5t-170.5 255.5t-255.5 170.5t-310.5 63.5t-310.5 -63.5t-255.5 -170.5t-170.5 -255.5t-63.5 -310.5t63.5 -310.5t170.5 -255.5t255.5 -170.5t310.5 -63.5zM1508 1183q26 -32 1 -62l-135 -161l135 -161q25 -30 -1 -62
q-27 -30 -61 -10l-320 192q-23 15 -23 41t23 41l320 192q15 9 32.5 6t28.5 -16zM880 960q0 -26 -23 -41l-320 -192q-34 -20 -61 10q-26 32 -1 62l135 161l-135 161q-25 30 1 62q11 13 28.5 16t32.5 -6l320 -192q23 -15 23 -41zM992 704q92 0 185.5 -46.5t163 -134
t82.5 -192.5q4 -36 -16 -59.5t-46 -12.5q-142 61 -369 61t-369 -61q-25 -11 -46 13t-16 59q13 105 82.5 192.5t163 134t185.5 46.5z" />
    <glyph glyph-name=".notdef" horiz-adv-x="1024" 
d="M100 0v1192h824v-1192h-824zM200 100h624v992h-624v-992z" />
    <glyph glyph-name=".null" horiz-adv-x="0" 
 />
    <glyph glyph-name="nonmarkingreturn" horiz-adv-x="682" 
 />
    <glyph glyph-name="space" unicode=" " horiz-adv-x="800" 
 />
    <glyph glyph-name="hyphen" unicode="-" horiz-adv-x="876" 
d="M728 844v-140h-580v140h580z" />
    <glyph glyph-name="period" unicode="." horiz-adv-x="476" 
d="M344 224h-212v212h212v-212z" />
    <glyph glyph-name="zero" unicode="0" horiz-adv-x="1228" 
d="M104 952q0 369 130 558.5t382 189.5q249 0 378.5 -190.5t129.5 -553.5q0 -368 -129.5 -558t-378.5 -190q-252 0 -382 189t-130 555zM956 956q0 309 -83 454.5t-257 145.5t-257 -145.5t-83 -454.5q0 -310 83 -459t257 -149q172 0 256 149t84 459z" />
    <glyph glyph-name="one" unicode="1" horiz-adv-x="1340" 
d="M656 1684h96v-1320h324v-140h-812v140h320v1108l-300 -188v160z" />
    <glyph glyph-name="two" unicode="2" horiz-adv-x="1240" 
d="M804 816l-416 -452h720v-140h-940v128l512 564q103 115 149.5 207.5t46.5 184.5q0 120 -69.5 184t-198.5 64q-208 0 -412 -168l-64 132q84 81 216 130.5t264 49.5q201 0 318.5 -103.5t117.5 -280.5q0 -125 -57 -241.5t-187 -258.5z" />
    <glyph glyph-name="three" unicode="3" horiz-adv-x="1188" 
d="M1080 620q0 -192 -129 -302t-351 -110q-141 0 -271.5 48t-220.5 132l68 132q198 -168 420 -168q156 0 236 68.5t80 203.5q0 268 -336 268h-168v144h136q163 0 249.5 70.5t86.5 205.5q0 117 -71.5 180.5t-200.5 63.5q-208 0 -412 -168l-64 132q87 84 215.5 132t268.5 48
q196 0 314 -101t118 -271q0 -125 -62 -219.5t-170 -136.5q129 -36 196.5 -126.5t67.5 -225.5z" />
    <glyph glyph-name="four" unicode="4" horiz-adv-x="1260" 
d="M940 1684v-1004h220v-140h-220v-316h-168v316h-672v128l704 1016h136zM772 680v716l-496 -716h496z" />
    <glyph glyph-name="five" unicode="5" horiz-adv-x="1288" 
d="M1132 676q0 -208 -136 -338t-360 -130q-132 0 -261 48t-219 132l64 132q204 -168 416 -168q153 0 240.5 87t87.5 237q0 145 -86.5 234.5t-229.5 89.5q-203 0 -332 -172h-116v856h872v-140h-704v-520q122 116 308 116q206 0 331 -128t125 -336z" />
    <glyph glyph-name="six" unicode="6" horiz-adv-x="1244" 
d="M1132 676q0 -201 -134 -334.5t-338 -133.5q-264 0 -406 184t-142 524q0 369 148 576.5t412 207.5q125 0 245 -47.5t211 -132.5l-64 -132q-102 87 -195.5 127.5t-192.5 40.5q-188 0 -292 -167.5t-104 -468.5v-32q48 117 153.5 184.5t242.5 67.5q201 0 328.5 -130
t127.5 -334zM964 676q0 144 -87 234t-225 90q-143 0 -233.5 -91t-90.5 -233q0 -147 90 -237.5t234 -90.5q141 0 226.5 89t85.5 239z" />
    <glyph glyph-name="seven" unicode="7" horiz-adv-x="1228" 
d="M912 1540h-780v144h964v-128l-684 -1332h-180z" />
    <glyph glyph-name="eight" unicode="8" horiz-adv-x="1228" 
d="M1136 612q0 -186 -141 -295t-379 -109q-240 0 -382 109t-142 295q0 132 81.5 228t222.5 132q-131 39 -201.5 127.5t-70.5 212.5q0 174 136.5 281t355.5 107q217 0 352.5 -107.5t135.5 -280.5q0 -122 -70.5 -211.5t-197.5 -128.5q143 -36 221.5 -131.5t78.5 -228.5z
M616 1020q149 18 234.5 91.5t85.5 188.5q0 120 -85.5 190t-234.5 70q-152 0 -238 -69.5t-86 -190.5q0 -116 86 -189t238 -91zM972 620q0 120 -96 192.5t-260 91.5q-166 -18 -261 -91t-95 -193q0 -132 91 -202t265 -70q171 0 263.5 70t92.5 202z" />
    <glyph glyph-name="nine" unicode="9" horiz-adv-x="1220" 
d="M1120 988q0 -369 -148.5 -574.5t-415.5 -205.5q-124 0 -244 47t-212 133l64 128q105 -87 199 -127.5t193 -40.5q189 0 292.5 168t103.5 472v28q-48 -116 -154.5 -182t-245.5 -66q-199 0 -325.5 128.5t-126.5 331.5q0 204 133.5 338t334.5 134q264 0 408 -185t144 -527z
M904 1232q0 147 -90.5 235.5t-237.5 88.5q-138 0 -223 -88.5t-85 -235.5t85.5 -235.5t226.5 -88.5q144 0 234 90t90 234z" />
    <glyph glyph-name="A" unicode="A" horiz-adv-x="1504" 
d="M824 1684l644 -1460h-172l-160 376h-764l-160 -376h-176l640 1460h148zM1076 740l-324 748l-320 -748h644z" />
    <glyph glyph-name="B" unicode="B" horiz-adv-x="1452" 
d="M1272 620q0 -189 -126.5 -292.5t-357.5 -103.5h-608v1460h584q225 0 348.5 -100.5t123.5 -283.5q0 -116 -59.5 -201t-168.5 -127q124 -33 194 -125.5t70 -226.5zM740 1544h-392v-508h392q165 0 248.5 65t83.5 191q0 252 -332 252zM1104 624q0 135 -82 201.5t-250 66.5
h-424v-528h424q170 0 251 64t81 196z" />
    <glyph glyph-name="C" unicode="C" horiz-adv-x="1428" 
d="M128 956q0 342 182 543t494 201q306 0 496 -184l-64 -132q-103 91 -204.5 129.5t-227.5 38.5q-241 0 -372.5 -154.5t-131.5 -441.5q0 -288 132 -446t372 -158q124 0 226 39.5t206 128.5l64 -128q-184 -184 -496 -184t-494 201.5t-182 546.5z" />
    <glyph glyph-name="D" unicode="D" horiz-adv-x="1584" 
d="M668 224h-488v1460h488q351 0 543.5 -190t192.5 -538q0 -351 -192.5 -541.5t-543.5 -190.5zM348 1540v-1172h312q568 0 568 588q0 584 -568 584h-312z" />
    <glyph glyph-name="E" unicode="E" horiz-adv-x="1280" 
d="M1100 364v-140h-920v1460h920v-140h-752v-508h712v-144h-712v-528h752z" />
    <glyph glyph-name="F" unicode="F" horiz-adv-x="1260" 
d="M348 892v-668h-168v1460h900v-144h-732v-504h692v-144h-692z" />
    <glyph glyph-name="G" unicode="G" horiz-adv-x="1460" 
d="M816 852v132h516v-676q-84 -45 -224 -72.5t-284 -27.5q-327 0 -511.5 198.5t-184.5 549.5q0 345 183 544.5t501 199.5q314 0 504 -184l-68 -132q-105 93 -206 132.5t-230 39.5q-247 0 -379.5 -155t-132.5 -445q0 -297 135 -452.5t393 -155.5q184 0 352 60v444h-364z" />
    <glyph glyph-name="H" unicode="H" horiz-adv-x="1568" 
d="M348 1036h872v648h168v-1460h-168v668h-872v-668h-168v1460h168v-648z" />
    <glyph glyph-name="I" unicode="I" horiz-adv-x="528" 
d="M348 1684v-1460h-168v1460h168z" />
    <glyph glyph-name="J" unicode="J" horiz-adv-x="504" 
d="M-12 -140v144q128 -16 148 -16q104 0 146 59t42 201v1436h168v-1440q0 -214 -76 -307t-252 -93q-80 0 -176 16z" />
    <glyph glyph-name="K" unicode="K" horiz-adv-x="1500" 
d="M1280 1684l-760 -712l800 -748h-220l-752 696v-696h-168v1460h168v-672l716 672h216z" />
    <glyph glyph-name="L" unicode="L" horiz-adv-x="1260" 
d="M1080 368v-144h-900v1460h168v-1316h732z" />
    <glyph glyph-name="M" unicode="M" horiz-adv-x="1740" 
d="M320 1684l552 -1260l548 1260h140v-1460h-156v1084l-476 -1084h-116l-480 1076l4 -1076h-156v1460h140z" />
    <glyph glyph-name="N" unicode="N" horiz-adv-x="1528" 
d="M308 1684l880 -1176v1176h160v-1460h-128l-884 1172v-1172h-156v1460h128z" />
    <glyph glyph-name="O" unicode="O" horiz-adv-x="1584" 
d="M128 952q0 346 178 547t486 201t486 -200.5t178 -543.5q0 -344 -180 -546t-484 -202q-306 0 -485 201t-179 543zM1280 956q0 287 -128 443.5t-360 156.5q-235 0 -363.5 -156.5t-128.5 -443.5q0 -288 129 -446t363 -158q231 0 359.5 158.5t128.5 445.5z" />
    <glyph glyph-name="P" unicode="P" horiz-adv-x="1420" 
d="M348 224h-168v1460h580q227 0 353.5 -109t126.5 -299q0 -192 -127.5 -302t-352.5 -110h-412v-640zM348 1544v-540h400q161 0 242.5 69.5t81.5 202.5q0 130 -81.5 199t-242.5 69h-400z" />
    <glyph glyph-name="Q" unicode="Q" horiz-adv-x="1584" 
d="M1300 -60l-116 -108q-86 66 -171.5 167t-148.5 213q-32 -4 -72 -4q-306 0 -485 201t-179 543q0 346 178 547t486 201t486 -200.5t178 -543.5q0 -268 -110 -451.5t-310 -256.5q92 -166 264 -308zM792 352q231 0 359.5 158.5t128.5 445.5t-128 443.5t-360 156.5
q-235 0 -363.5 -156.5t-128.5 -443.5q0 -288 129 -446t363 -158z" />
    <glyph glyph-name="R" unicode="R" horiz-adv-x="1504" 
d="M1140 716l184 -492h-176l-180 484q-32 87 -89.5 119.5t-166.5 32.5h-364v-636h-168v1460h580q235 0 361.5 -105.5t126.5 -302.5q0 -141 -75.5 -239.5t-216.5 -140.5q126 -18 184 -180zM348 1544v-544h396q336 0 336 276q0 136 -81.5 202t-254.5 66h-396z" />
    <glyph glyph-name="S" unicode="S" horiz-adv-x="1280" 
d="M100 392l60 128q111 -90 224 -129t260 -39q177 0 274 68.5t94 191.5q-1 39 -11 68.5t-34 53t-49.5 40t-73.5 32.5t-89 27t-111 27q-197 49 -276 80q-244 102 -244 336q0 190 146.5 307t385.5 117q154 0 284 -47t220 -137l-68 -132q-202 172 -436 172q-170 0 -267 -73
t-97 -199q0 -55 20.5 -95.5t65.5 -71.5t105.5 -53t152.5 -44q124 -28 292 -84q117 -38 184.5 -116.5t67.5 -199.5q0 -187 -145.5 -299.5t-390.5 -112.5q-348 0 -544 184z" />
    <glyph glyph-name="T" unicode="T" horiz-adv-x="1236" 
d="M704 1540v-1316h-172v1316h-508v144h1188v-144h-508z" />
    <glyph glyph-name="U" unicode="U" horiz-adv-x="1496" 
d="M168 796v888h168v-904q0 -213 104 -320.5t308 -107.5t308 107.5t104 320.5v904h168v-888q0 -288 -147.5 -438t-432.5 -150q-286 0 -433 149t-147 439z" />
    <glyph glyph-name="V" unicode="V" horiz-adv-x="1428" 
d="M184 1684l532 -1248l536 1248h172l-636 -1460h-148l-636 1460h180z" />
    <glyph glyph-name="W" unicode="W" horiz-adv-x="2276" 
d="M1208 1680l416 -1220l416 1224h168l-512 -1460h-140l-416 1192l-420 -1192h-140l-512 1460h172l412 -1220l424 1220z" />
    <glyph glyph-name="X" unicode="X" horiz-adv-x="1336" 
d="M1096 1684h200l-532 -716l556 -744h-200l-452 620l-452 -620h-200l556 748l-528 712h200l424 -588z" />
    <glyph glyph-name="Y" unicode="Y" horiz-adv-x="1312" 
d="M624 964l460 720h192l-572 -872v-588h-168v592l-572 868h196z" />
    <glyph glyph-name="Z" unicode="Z" horiz-adv-x="1236" 
d="M1124 1684v-124l-836 -1196h856v-140h-1052v124l836 1192h-836v144h1032z" />
    <glyph glyph-name="a" unicode="a" horiz-adv-x="1168" 
d="M904 1076v180h164v-1032h-164v188q-45 -98 -136 -151t-212 -53q-207 0 -331.5 146t-124.5 386t126 390t330 150q119 0 209.5 -53.5t138.5 -150.5zM904 744q0 192 -81.5 294t-234.5 102t-236.5 -105t-83.5 -295q0 -189 83.5 -290.5t236.5 -101.5q152 0 234 103t82 293z
" />
    <glyph glyph-name="b" unicode="b" horiz-adv-x="1292" 
d="M1132 748q0 -241 -127 -390.5t-333 -149.5q-119 0 -209.5 54.5t-138.5 153.5v-192h-164v1508h164v-660q45 99 136.5 153.5t211.5 54.5q207 0 333.5 -146t126.5 -386zM960 748q0 186 -83 289t-233 103q-154 0 -237 -102.5t-83 -293.5q0 -189 83.5 -292.5t236.5 -103.5
q148 0 232 106t84 294z" />
    <glyph glyph-name="c" unicode="c" horiz-adv-x="1064" 
d="M100 740q0 241 136.5 390.5t363.5 149.5q105 0 203 -36.5t161 -99.5l-56 -124q-149 120 -300 120q-159 0 -247.5 -105.5t-88.5 -294.5q0 -186 88.5 -289t247.5 -103q149 0 300 116l56 -120q-66 -63 -166.5 -99.5t-205.5 -36.5q-224 0 -358 145.5t-134 386.5z" />
    <glyph glyph-name="d" unicode="d" horiz-adv-x="1168" 
d="M900 1080v652h168v-1508h-164v188q-45 -98 -136 -151t-212 -53q-204 0 -330 150t-126 390t124.5 386t331.5 146q119 0 209 -53t135 -147zM904 744q0 190 -82 293t-234 103q-153 0 -236.5 -103t-83.5 -289q0 -190 83.5 -295t236.5 -105q152 0 234 103t82 293z" />
    <glyph glyph-name="e" unicode="e" horiz-adv-x="1120" 
d="M1020 776v-32h-752q0 -195 88.5 -295.5t259.5 -100.5q182 0 332 120l56 -120q-69 -63 -175 -101.5t-213 -38.5q-242 0 -379 143t-137 393q0 237 135.5 386.5t348.5 149.5q204 0 320 -135t116 -369zM272 852h600q-12 146 -85 221t-203 75q-128 0 -208 -77t-104 -219z" />
    <glyph glyph-name="f" unicode="f" horiz-adv-x="676" 
d="M380 1392v-136h252v-132h-252v-900h-164v900h-200v132h200v156q0 161 80 244.5t228 83.5q63 0 136 -20v-140q-48 16 -104 16q-176 0 -176 -204z" />
    <glyph glyph-name="g" unicode="g" horiz-adv-x="1176" 
d="M912 1076v180h164v-1024q0 -228 -118 -346t-346 -118q-233 0 -404 104l28 136q101 -55 187 -79.5t189 -24.5q149 0 224.5 79t75.5 233v244q-49 -97 -139.5 -150.5t-212.5 -53.5q-207 0 -333.5 140.5t-126.5 371.5q0 229 127 370.5t333 141.5q122 0 212.5 -53.5
t139.5 -150.5zM912 768q0 174 -85 273t-235 99q-153 0 -238.5 -99t-85.5 -273q0 -175 86 -275.5t238 -100.5q150 0 235 100.5t85 275.5z" />
    <glyph glyph-name="h" unicode="h" horiz-adv-x="1204" 
d="M1044 872v-648h-164v640q0 141 -58.5 208.5t-181.5 67.5q-142 0 -229 -89.5t-87 -238.5v-588h-164v1508h164v-644q51 92 142 142t206 50q372 0 372 -408z" />
    <glyph glyph-name="i" unicode="i" horiz-adv-x="488" 
d="M344 1504h-200v188h200v-188zM324 1256v-1032h-164v1032h164z" />
    <glyph glyph-name="j" unicode="j" horiz-adv-x="456" 
d="M344 1504h-200v188h200v-188zM-12 -84q172 0 172 204v1136h164v-1156q0 -158 -79 -243t-221 -85q-63 0 -136 20v140q72 -16 100 -16z" />
    <glyph glyph-name="k" unicode="k" horiz-adv-x="1232" 
d="M1020 1252l-516 -492l568 -536h-216l-532 496v-496h-164v1508h164v-952l488 472h208z" />
    <glyph glyph-name="l" unicode="l" horiz-adv-x="484" 
d="M324 1732v-1508h-164v1508h164z" />
    <glyph glyph-name="m" unicode="m" horiz-adv-x="1788" 
d="M1644 872v-648h-164v640q0 144 -51 210t-165 66q-129 0 -202.5 -87.5t-73.5 -240.5v-588h-168v640q0 142 -51 209t-161 67q-132 0 -208 -87.5t-76 -240.5v-588h-164v740q0 116 -16 292h156l16 -184q45 100 130 154t198 54q123 0 200 -49t116 -151q46 91 137.5 145.5
t206.5 54.5q340 0 340 -408z" />
    <glyph glyph-name="n" unicode="n" horiz-adv-x="1188" 
d="M1044 872v-648h-164v640q0 141 -58.5 208.5t-181.5 67.5q-142 0 -229 -89.5t-87 -238.5v-588h-164v740q0 116 -16 292h156l16 -188q48 101 141.5 156.5t214.5 55.5q372 0 372 -408z" />
    <glyph glyph-name="o" unicode="o" horiz-adv-x="1172" 
d="M100 744q0 243 132.5 389.5t351.5 146.5q222 0 355 -146.5t133 -389.5t-133 -389.5t-355 -146.5q-219 0 -351.5 146.5t-132.5 389.5zM904 744q0 188 -84.5 292t-235.5 104q-150 0 -233 -103.5t-83 -292.5q0 -194 81 -295t235 -101q156 0 238 100.5t82 295.5z" />
    <glyph glyph-name="p" unicode="p" horiz-adv-x="1276" 
d="M1132 740q0 -240 -126.5 -386t-333.5 -146q-119 0 -209.5 54.5t-138.5 153.5v-636h-164v1184q0 116 -16 292h156l16 -200q45 106 138 165t218 59q206 0 333 -149.5t127 -390.5zM960 740q0 188 -84 294t-232 106q-154 0 -237 -102.5t-83 -293.5q0 -189 83.5 -292.5
t236.5 -103.5q151 0 233.5 102t82.5 290z" />
    <glyph glyph-name="q" unicode="q" horiz-adv-x="1184" 
d="M908 1060l20 196h156q-16 -117 -16 -292v-1184h-168v628q-45 -96 -134.5 -148t-209.5 -52q-207 0 -331.5 146t-124.5 386t126 390t330 150q123 0 215 -57.5t137 -162.5zM904 744q0 192 -81.5 294t-234.5 102t-236.5 -105t-83.5 -295q0 -189 83.5 -290.5t236.5 -101.5
q152 0 234 103t82 293z" />
    <glyph glyph-name="r" unicode="r" horiz-adv-x="876" 
d="M732 1268l-4 -152q-56 16 -108 16q-146 0 -224 -96q-72 -98 -72 -224v-588h-164v740q0 116 -16 292h156l16 -192q38 103 124.5 159.5t199.5 56.5q50 0 92 -12z" />
    <glyph glyph-name="s" unicode="s" horiz-adv-x="1008" 
d="M96 344l56 120q83 -65 168.5 -92.5t195.5 -27.5q114 0 175 40.5t61 115.5q0 60 -41 96t-135 60l-176 40q-129 30 -198.5 102t-69.5 174q0 136 109 222t287 86q109 0 203.5 -35t160.5 -101l-56 -120q-144 120 -308 120q-110 0 -171 -42.5t-61 -117.5q0 -63 38 -100.5
t122 -55.5l172 -44q145 -36 214.5 -104.5t69.5 -175.5q0 -135 -109 -215.5t-295 -80.5q-257 0 -412 136z" />
    <glyph glyph-name="t" unicode="t" horiz-adv-x="692" 
d="M676 1256v-132h-296v-564q0 -110 46 -159t134 -49q52 0 112 20v-140q-66 -24 -144 -24q-148 0 -230 85t-82 243v588h-200v132h200v264l164 56v-320h296z" />
    <glyph glyph-name="u" unicode="u" horiz-adv-x="1172" 
d="M856 672v584h164v-1032h-160v180q-47 -95 -135.5 -145.5t-200.5 -50.5q-183 0 -277.5 103.5t-94.5 304.5v640h168v-636q0 -140 57 -206t175 -66q136 0 220 89t84 235z" />
    <glyph glyph-name="v" unicode="v" horiz-adv-x="1088" 
d="M200 1252l348 -848l352 848h164l-444 -1028h-156l-440 1028h176z" />
    <glyph glyph-name="w" unicode="w" horiz-adv-x="1780" 
d="M968 1256l296 -836l296 836h164l-380 -1032h-160l-296 804l-292 -804h-160l-380 1032h172l292 -832l300 832h148z" />
    <glyph glyph-name="x" unicode="x" horiz-adv-x="1096" 
d="M844 1256h204l-400 -500l424 -532h-200l-324 404l-324 -404h-200l428 532l-404 500h200l300 -380z" />
    <glyph glyph-name="y" unicode="y" horiz-adv-x="1088" 
d="M548 404l352 852h164l-480 -1128q-72 -168 -185.5 -252.5t-286.5 -115.5l-36 128q145 36 220 88q78 58 124 168l40 92l-436 1020h176z" />
    <glyph glyph-name="z" unicode="z" horiz-adv-x="1076" 
d="M952 1256v-124l-644 -776h664v-132h-868v116l648 784h-628v132h828z" />
  </font>
</defs>
</svg>
